%
M48
M72
T01C0.0100
T02C0.0120
T03C0.0140
T04C0.0180
T05C0.0260
T06C0.0394
T07C0.0454
T08C0.0492
T09C0.0550
T10C0.1181
%
T01
X16587Y6200
X17221Y5609
X17471Y5809
T02
X17977Y5627
X17577Y5227
X18827Y5743
X19396Y6311
X19396Y6711
X19796Y6711
X20342Y8090
X20642Y8090
X20942Y8090
X21242Y8090
X22892Y7790
X22892Y7490
X22892Y7190
X23992Y5340
X23992Y5040
X23992Y4740
X23992Y4440
X23627Y3927
X21921Y3609
X20752Y4479
X20492Y4479
X19076Y3879
X18776Y3879
X18476Y3879
X18626Y3579
X18926Y3579
X19226Y3579
X18942Y4479
X17546Y4129
X17196Y4129
X17179Y3112
X14971Y5359
X13546Y5909
X13721Y6409
X14196Y6584
X15327Y8127
X15527Y8677
X16012Y8590
X16012Y8290
X16012Y8890
X16012Y9190
X15327Y9207
X13351Y10359
X13051Y10359
X12751Y10359
X12451Y10359
X12151Y10359
X11851Y10359
X11551Y10359
X11251Y10359
X10951Y10359
X13977Y10677
X14627Y10677
X17054Y6859
X20577Y5377
X28142Y6240
X28142Y6540
X28142Y6840
X29621Y7359
X30096Y5909
X29377Y5127
X24192Y10437
X22542Y10390
X22542Y10690
X22542Y10990
X10972Y5647
X10927Y3977
X6051Y12729
X6051Y13079
X6051Y13429
X6051Y13779
X6051Y14129
T03
X17044Y8294
X17477Y9227
X19744Y8394
X29671Y7759
T04
X24932Y8232
X21367Y10777
T05
X25977Y7777
X23371Y5439
X5561Y16188
T06
X14291Y10919
T07
X1321Y17183
X30925Y1321
T08
X15104Y8672
T09
X22121Y8759
X28871Y8709
X28871Y6709
T10
X2031Y2959
X2031Y12459
X31309Y12459
X31309Y2959
M30
