G75*
G70*
%OFA0B0*%
%FSLAX24Y24*%
%IPPOS*%
%LPD*%
%AMOC8*
5,1,8,0,0,1.08239X$1,22.5*
%
%ADD10C,0.0050*%
%ADD11C,0.0000*%
%ADD12C,0.0004*%
%ADD13C,0.0433*%
%ADD14C,0.0500*%
%ADD15C,0.0850*%
%ADD16C,0.0984*%
%ADD17C,0.0787*%
%ADD18C,0.0591*%
%ADD19C,0.0080*%
%ADD20C,0.0240*%
%ADD21C,0.0200*%
%ADD22C,0.0100*%
%ADD23C,0.0220*%
%ADD24C,0.0240*%
%ADD25C,0.0390*%
%ADD26C,0.0280*%
%ADD27C,0.0320*%
%ADD28C,0.0300*%
%ADD29C,0.0260*%
%ADD30C,0.0160*%
%ADD31C,0.0300*%
%ADD32C,0.0180*%
%ADD33C,0.0120*%
%ADD34C,0.0420*%
D10*
X001427Y000927D02*
X031912Y000927D01*
X031957Y000928D01*
X032000Y000934D01*
X032044Y000943D01*
X032086Y000956D01*
X032127Y000972D01*
X032166Y000992D01*
X032204Y001015D01*
X032239Y001042D01*
X032272Y001071D01*
X032302Y001104D01*
X032329Y001138D01*
X032353Y001175D01*
X032374Y001214D01*
X032392Y001255D01*
X032405Y001297D01*
X032415Y001340D01*
X032422Y001383D01*
X032424Y001427D01*
X032423Y001427D02*
X032423Y018146D01*
X032424Y018146D02*
X032421Y018189D01*
X032415Y018233D01*
X032405Y018276D01*
X032391Y018318D01*
X032374Y018358D01*
X032353Y018397D01*
X032329Y018434D01*
X032302Y018469D01*
X032271Y018501D01*
X032239Y018530D01*
X032203Y018556D01*
X032166Y018580D01*
X032127Y018599D01*
X032086Y018616D01*
X032043Y018628D01*
X032000Y018637D01*
X031957Y018643D01*
X031912Y018644D01*
X001427Y018644D01*
X001383Y018642D01*
X001340Y018637D01*
X001298Y018627D01*
X001256Y018614D01*
X001216Y018598D01*
X001177Y018578D01*
X001141Y018554D01*
X001106Y018528D01*
X001074Y018499D01*
X001044Y018467D01*
X001018Y018432D01*
X000994Y018395D01*
X000974Y018357D01*
X000957Y018317D01*
X000944Y018275D01*
X000935Y018233D01*
X000929Y018189D01*
X000927Y018146D01*
X000927Y001427D01*
X000929Y001383D01*
X000935Y001340D01*
X000944Y001298D01*
X000957Y001256D01*
X000974Y001216D01*
X000994Y001177D01*
X001017Y001140D01*
X001044Y001106D01*
X001073Y001073D01*
X001106Y001044D01*
X001140Y001017D01*
X001177Y000994D01*
X001216Y000974D01*
X001256Y000957D01*
X001298Y000944D01*
X001340Y000935D01*
X001383Y000929D01*
X001427Y000927D01*
X009521Y002579D02*
X009521Y003914D01*
X010421Y003914D01*
X010421Y003659D01*
X010423Y003625D01*
X010429Y003592D01*
X010438Y003560D01*
X010451Y003529D01*
X010467Y003499D01*
X010486Y003472D01*
X010509Y003447D01*
X010534Y003424D01*
X010561Y003405D01*
X010591Y003389D01*
X010622Y003376D01*
X010654Y003367D01*
X010687Y003361D01*
X010721Y003359D01*
X011821Y003359D01*
X011851Y003361D01*
X011881Y003366D01*
X011910Y003375D01*
X011937Y003388D01*
X011963Y003403D01*
X011987Y003422D01*
X012008Y003443D01*
X012027Y003467D01*
X012042Y003493D01*
X012055Y003520D01*
X012064Y003549D01*
X012069Y003579D01*
X012071Y003609D01*
X012071Y006809D01*
X012069Y006839D01*
X012064Y006869D01*
X012055Y006898D01*
X012042Y006925D01*
X012027Y006951D01*
X012008Y006975D01*
X011987Y006996D01*
X011963Y007015D01*
X011937Y007030D01*
X011910Y007043D01*
X011881Y007052D01*
X011851Y007057D01*
X011821Y007059D01*
X011471Y007059D01*
X011441Y007061D01*
X011411Y007066D01*
X011382Y007075D01*
X011355Y007088D01*
X011329Y007103D01*
X011305Y007122D01*
X011284Y007143D01*
X011265Y007167D01*
X011250Y007193D01*
X011237Y007220D01*
X011228Y007249D01*
X011223Y007279D01*
X011221Y007309D01*
X011221Y009109D01*
X011223Y009139D01*
X011228Y009169D01*
X011237Y009198D01*
X011250Y009225D01*
X011265Y009251D01*
X011284Y009275D01*
X011305Y009296D01*
X011329Y009315D01*
X011355Y009330D01*
X011382Y009343D01*
X011411Y009352D01*
X011441Y009357D01*
X011471Y009359D01*
X014871Y009359D01*
X014899Y009358D01*
X014926Y009354D01*
X014953Y009347D01*
X014978Y009336D01*
X015002Y009322D01*
X015023Y009305D01*
X015043Y009285D01*
X015059Y009263D01*
X015073Y009239D01*
X015083Y009213D01*
X015090Y009186D01*
X015093Y009159D01*
X015093Y007915D01*
X015092Y007879D01*
X015095Y007844D01*
X015102Y007809D01*
X015112Y007775D01*
X015126Y007742D01*
X015143Y007710D01*
X015164Y007681D01*
X015187Y007654D01*
X015213Y007630D01*
X015241Y007608D01*
X015272Y007589D01*
X015304Y007574D01*
X015338Y007563D01*
X015373Y007554D01*
X015408Y007550D01*
X016403Y007550D01*
X016435Y007549D01*
X016467Y007546D01*
X016499Y007538D01*
X016530Y007527D01*
X016559Y007513D01*
X016586Y007495D01*
X016612Y007475D01*
X016635Y007452D01*
X016655Y007426D01*
X016672Y007399D01*
X016686Y007369D01*
X016696Y007338D01*
X016703Y007307D01*
X016707Y007274D01*
X016707Y006350D01*
X015862Y006350D01*
X015862Y006614D01*
X015860Y006647D01*
X015854Y006680D01*
X015844Y006712D01*
X015831Y006743D01*
X015815Y006772D01*
X015795Y006800D01*
X015772Y006824D01*
X015747Y006846D01*
X015719Y006865D01*
X015690Y006881D01*
X015658Y006893D01*
X015626Y006902D01*
X015593Y006907D01*
X015559Y006908D01*
X015526Y006905D01*
X015493Y006899D01*
X015461Y006889D01*
X015430Y006875D01*
X015401Y006858D01*
X015374Y006838D01*
X015350Y006815D01*
X015329Y006789D01*
X015310Y006761D01*
X015311Y006760D02*
X013736Y006760D01*
X013735Y006761D02*
X013688Y006719D01*
X013643Y006674D01*
X013602Y006626D01*
X013563Y006576D01*
X013527Y006523D01*
X013495Y006469D01*
X013466Y006412D01*
X013440Y006354D01*
X013418Y006295D01*
X013400Y006234D01*
X013385Y006172D01*
X013375Y006109D01*
X013368Y006046D01*
X013365Y005983D01*
X013366Y005919D01*
X013371Y005856D01*
X013380Y005793D01*
X013392Y005731D01*
X013409Y005670D01*
X013429Y005610D01*
X013452Y005551D01*
X013480Y005493D01*
X013510Y005438D01*
X013544Y005384D01*
X013582Y005333D01*
X013622Y005284D01*
X013665Y005238D01*
X013711Y005194D01*
X013760Y005153D01*
X013811Y005115D01*
X013864Y005081D01*
X013920Y005050D01*
X013977Y005022D01*
X014035Y004998D01*
X014095Y004977D01*
X014157Y004960D01*
X014219Y004947D01*
X014281Y004938D01*
X014345Y004933D01*
X014408Y004931D01*
X014472Y004933D01*
X014535Y004940D01*
X014597Y004950D01*
X014659Y004964D01*
X014720Y004981D01*
X014780Y005003D01*
X014838Y005028D01*
X015547Y005028D01*
X015580Y005027D01*
X015612Y005030D01*
X015644Y005036D01*
X015675Y005046D01*
X015705Y005059D01*
X015733Y005076D01*
X015759Y005095D01*
X015783Y005118D01*
X015804Y005143D01*
X015822Y005170D01*
X015837Y005199D01*
X015849Y005229D01*
X015857Y005261D01*
X015862Y005293D01*
X015862Y005560D01*
X016707Y005560D01*
X016707Y003122D01*
X016709Y003092D01*
X016714Y003062D01*
X016723Y003033D01*
X016736Y003006D01*
X016751Y002980D01*
X016770Y002956D01*
X016791Y002935D01*
X016815Y002916D01*
X016841Y002901D01*
X016868Y002888D01*
X016897Y002879D01*
X016927Y002874D01*
X016957Y002872D01*
X021818Y002959D01*
X021818Y002359D02*
X016357Y002272D01*
X009861Y002272D01*
X009862Y002272D02*
X009828Y002272D01*
X009794Y002276D01*
X009761Y002283D01*
X009729Y002294D01*
X009698Y002307D01*
X009668Y002324D01*
X009641Y002344D01*
X009616Y002367D01*
X009593Y002392D01*
X009573Y002420D01*
X009556Y002449D01*
X009542Y002480D01*
X009532Y002512D01*
X009525Y002546D01*
X009521Y002579D01*
X009521Y004702D02*
X009521Y007909D01*
X010421Y008509D02*
X010421Y004702D01*
X009521Y004702D01*
X009521Y007909D02*
X009524Y008093D01*
X009518Y008277D01*
X009505Y008460D01*
X009484Y008643D01*
X009455Y008824D01*
X009418Y009004D01*
X009374Y009183D01*
X009321Y009359D01*
X011051Y011649D02*
X010922Y011821D01*
X010784Y011987D01*
X010639Y012146D01*
X010486Y012297D01*
X010326Y012441D01*
X010159Y012578D01*
X009986Y012706D01*
X009807Y012825D01*
X009622Y012936D01*
X009432Y013038D01*
X009238Y013131D01*
X009040Y013214D01*
X008837Y013288D01*
X008631Y013352D01*
X008423Y013406D01*
X008212Y013450D01*
X008212Y013449D02*
X008212Y017454D01*
X008210Y017484D01*
X008204Y017513D01*
X008195Y017542D01*
X008183Y017569D01*
X008167Y017595D01*
X008148Y017618D01*
X008127Y017639D01*
X008103Y017657D01*
X008077Y017673D01*
X008050Y017685D01*
X008021Y017693D01*
X007992Y017698D01*
X007962Y017700D01*
X007962Y017699D02*
X006915Y017699D01*
X006915Y016609D01*
X007371Y016609D01*
X007401Y016607D01*
X007431Y016602D01*
X007460Y016593D01*
X007487Y016580D01*
X007513Y016565D01*
X007537Y016546D01*
X007558Y016525D01*
X007577Y016501D01*
X007592Y016475D01*
X007605Y016448D01*
X007614Y016419D01*
X007619Y016389D01*
X007621Y016359D01*
X007621Y014659D01*
X007619Y014629D01*
X007614Y014599D01*
X007605Y014570D01*
X007592Y014543D01*
X007577Y014517D01*
X007558Y014493D01*
X007537Y014472D01*
X007513Y014453D01*
X007487Y014438D01*
X007460Y014425D01*
X007431Y014416D01*
X007401Y014411D01*
X007371Y014409D01*
X006771Y014409D01*
X006741Y014407D01*
X006711Y014402D01*
X006682Y014393D01*
X006655Y014380D01*
X006629Y014365D01*
X006605Y014346D01*
X006584Y014325D01*
X006565Y014301D01*
X006550Y014275D01*
X006537Y014248D01*
X006528Y014219D01*
X006523Y014189D01*
X006521Y014159D01*
X006521Y013159D01*
X006523Y013129D01*
X006528Y013099D01*
X006537Y013070D01*
X006550Y013043D01*
X006565Y013017D01*
X006584Y012993D01*
X006605Y012972D01*
X006629Y012953D01*
X006655Y012938D01*
X006682Y012925D01*
X006711Y012916D01*
X006741Y012911D01*
X006771Y012909D01*
X007621Y012909D01*
X007271Y012059D02*
X005571Y012059D01*
X005541Y012061D01*
X005511Y012066D01*
X005482Y012075D01*
X005455Y012088D01*
X005429Y012103D01*
X005405Y012122D01*
X005384Y012143D01*
X005365Y012167D01*
X005350Y012193D01*
X005337Y012220D01*
X005328Y012249D01*
X005323Y012279D01*
X005321Y012309D01*
X005321Y014589D01*
X005319Y014643D01*
X005313Y014696D01*
X005304Y014748D01*
X005291Y014800D01*
X005274Y014851D01*
X005253Y014901D01*
X005229Y014948D01*
X005202Y014994D01*
X005171Y015038D01*
X005138Y015080D01*
X005101Y015119D01*
X005062Y015156D01*
X005020Y015189D01*
X004976Y015220D01*
X004930Y015247D01*
X004883Y015271D01*
X004833Y015292D01*
X004782Y015309D01*
X004730Y015322D01*
X004678Y015331D01*
X004625Y015337D01*
X004571Y015339D01*
X003321Y015339D01*
X002781Y014739D02*
X002735Y014744D01*
X002690Y014753D01*
X002645Y014765D01*
X002601Y014780D01*
X002559Y014799D01*
X002518Y014822D01*
X002479Y014847D01*
X002442Y014875D01*
X002408Y014906D01*
X002376Y014940D01*
X002347Y014976D01*
X002321Y015015D01*
X002297Y015055D01*
X002278Y015097D01*
X002261Y015140D01*
X002248Y015185D01*
X002238Y015230D01*
X002232Y015276D01*
X002230Y015322D01*
X002231Y015369D01*
X002231Y015368D02*
X002231Y017149D01*
X002233Y017194D01*
X002239Y017240D01*
X002248Y017284D01*
X002261Y017328D01*
X002277Y017370D01*
X002297Y017411D01*
X002321Y017450D01*
X002347Y017487D01*
X002376Y017522D01*
X002408Y017554D01*
X002443Y017583D01*
X002480Y017609D01*
X002519Y017633D01*
X002560Y017653D01*
X002602Y017669D01*
X002646Y017682D01*
X002690Y017691D01*
X002736Y017697D01*
X002781Y017699D01*
X006127Y017699D01*
X006127Y016609D01*
X005471Y016609D01*
X005448Y016611D01*
X005425Y016616D01*
X005403Y016625D01*
X005383Y016638D01*
X005365Y016653D01*
X005350Y016671D01*
X005337Y016691D01*
X005328Y016713D01*
X005323Y016736D01*
X005321Y016759D01*
X005321Y017059D01*
X005319Y017082D01*
X005314Y017105D01*
X005305Y017127D01*
X005292Y017147D01*
X005277Y017165D01*
X005259Y017180D01*
X005239Y017193D01*
X005217Y017202D01*
X005194Y017207D01*
X005171Y017209D01*
X003321Y017209D01*
X003276Y017207D01*
X003230Y017201D01*
X003186Y017192D01*
X003142Y017179D01*
X003100Y017163D01*
X003059Y017143D01*
X003020Y017119D01*
X002983Y017093D01*
X002948Y017064D01*
X002916Y017032D01*
X002887Y016997D01*
X002861Y016960D01*
X002837Y016921D01*
X002817Y016880D01*
X002801Y016838D01*
X002788Y016794D01*
X002779Y016750D01*
X002773Y016704D01*
X002771Y016659D01*
X002771Y015889D01*
X002773Y015844D01*
X002779Y015798D01*
X002788Y015754D01*
X002801Y015710D01*
X002817Y015668D01*
X002837Y015627D01*
X002861Y015588D01*
X002887Y015551D01*
X002916Y015516D01*
X002948Y015484D01*
X002983Y015455D01*
X003020Y015429D01*
X003059Y015405D01*
X003100Y015385D01*
X003142Y015369D01*
X003186Y015356D01*
X003230Y015347D01*
X003276Y015341D01*
X003321Y015339D01*
X002781Y014739D02*
X003971Y014739D01*
X004025Y014737D01*
X004078Y014731D01*
X004130Y014722D01*
X004182Y014709D01*
X004233Y014692D01*
X004283Y014671D01*
X004330Y014647D01*
X004376Y014620D01*
X004420Y014589D01*
X004462Y014556D01*
X004501Y014519D01*
X004538Y014480D01*
X004571Y014438D01*
X004602Y014394D01*
X004629Y014348D01*
X004653Y014301D01*
X004674Y014251D01*
X004691Y014200D01*
X004704Y014148D01*
X004713Y014096D01*
X004719Y014043D01*
X004721Y013989D01*
X004721Y011509D01*
X004723Y011479D01*
X004728Y011449D01*
X004737Y011420D01*
X004750Y011393D01*
X004765Y011367D01*
X004784Y011343D01*
X004805Y011322D01*
X004829Y011303D01*
X004855Y011288D01*
X004882Y011275D01*
X004911Y011266D01*
X004941Y011261D01*
X004971Y011259D01*
X006871Y011259D01*
X010721Y010653D02*
X013671Y010653D01*
X013695Y010655D01*
X013718Y010661D01*
X013740Y010671D01*
X013760Y010684D01*
X013778Y010700D01*
X013794Y010719D01*
X013806Y010739D01*
X013814Y010762D01*
X013820Y010785D01*
X013821Y010809D01*
X013823Y010826D01*
X013827Y010843D01*
X013834Y010859D01*
X013844Y010873D01*
X013857Y010886D01*
X013871Y010896D01*
X013887Y010903D01*
X013904Y010907D01*
X013921Y010909D01*
X014671Y010909D01*
X014688Y010907D01*
X014705Y010903D01*
X014721Y010896D01*
X014735Y010886D01*
X014748Y010873D01*
X014758Y010859D01*
X014765Y010843D01*
X014769Y010826D01*
X014771Y010809D01*
X014772Y010809D02*
X014773Y010785D01*
X014779Y010762D01*
X014787Y010739D01*
X014799Y010719D01*
X014815Y010700D01*
X014833Y010684D01*
X014853Y010671D01*
X014875Y010661D01*
X014898Y010655D01*
X014922Y010653D01*
X014921Y010653D02*
X017312Y010653D01*
X017335Y010655D01*
X017358Y010660D01*
X017380Y010669D01*
X017400Y010682D01*
X017418Y010697D01*
X017433Y010715D01*
X017446Y010735D01*
X017455Y010757D01*
X017460Y010780D01*
X017462Y010803D01*
X017462Y011240D01*
X017465Y011271D01*
X017473Y011302D01*
X017484Y011332D01*
X017498Y011360D01*
X017515Y011387D01*
X017535Y011411D01*
X017557Y011433D01*
X017582Y011453D01*
X017609Y011469D01*
X017638Y011483D01*
X017668Y011493D01*
X017699Y011499D01*
X017730Y011503D01*
X017762Y011502D01*
X017762Y011503D02*
X018477Y011503D01*
X018477Y012853D01*
X016912Y012853D01*
X016912Y012852D02*
X016881Y012853D01*
X016851Y012849D01*
X016822Y012842D01*
X016794Y012831D01*
X016767Y012816D01*
X016743Y012798D01*
X016721Y012777D01*
X016702Y012753D01*
X016687Y012727D01*
X016674Y012699D01*
X016666Y012670D01*
X016662Y012640D01*
X016662Y011803D01*
X016660Y011779D01*
X016655Y011756D01*
X016646Y011733D01*
X016634Y011713D01*
X016619Y011695D01*
X016601Y011679D01*
X016580Y011666D01*
X016558Y011657D01*
X016535Y011651D01*
X016512Y011649D01*
X011051Y011649D01*
X010221Y009659D02*
X010268Y009520D01*
X010308Y009379D01*
X010342Y009236D01*
X010371Y009093D01*
X010393Y008948D01*
X010408Y008802D01*
X010418Y008656D01*
X010421Y008509D01*
X010721Y010653D02*
X010610Y010843D01*
X010490Y011027D01*
X010361Y011205D01*
X010224Y011377D01*
X010078Y011541D01*
X009925Y011699D01*
X009764Y011849D01*
X009596Y011991D01*
X009421Y012124D01*
X009240Y012250D01*
X009054Y012366D01*
X008862Y012473D01*
X008664Y012570D01*
X008463Y012658D01*
X008257Y012736D01*
X008048Y012804D01*
X007836Y012862D01*
X007621Y012909D01*
X004121Y016209D02*
X004121Y016359D01*
X004119Y016398D01*
X004113Y016437D01*
X004104Y016475D01*
X004091Y016512D01*
X004074Y016548D01*
X004054Y016581D01*
X004030Y016613D01*
X004004Y016642D01*
X003975Y016668D01*
X003943Y016692D01*
X003910Y016712D01*
X003874Y016729D01*
X003837Y016742D01*
X003799Y016751D01*
X003760Y016757D01*
X003721Y016759D01*
X003682Y016757D01*
X003643Y016751D01*
X003605Y016742D01*
X003568Y016729D01*
X003532Y016712D01*
X003499Y016692D01*
X003467Y016668D01*
X003438Y016642D01*
X003412Y016613D01*
X003388Y016581D01*
X003368Y016548D01*
X003351Y016512D01*
X003338Y016475D01*
X003329Y016437D01*
X003323Y016398D01*
X003321Y016359D01*
X003321Y016209D01*
X003323Y016170D01*
X003329Y016131D01*
X003338Y016093D01*
X003351Y016056D01*
X003368Y016020D01*
X003388Y015987D01*
X003412Y015955D01*
X003438Y015926D01*
X003467Y015900D01*
X003499Y015876D01*
X003532Y015856D01*
X003568Y015839D01*
X003605Y015826D01*
X003643Y015817D01*
X003682Y015811D01*
X003721Y015809D01*
X003760Y015811D01*
X003799Y015817D01*
X003837Y015826D01*
X003874Y015839D01*
X003910Y015856D01*
X003943Y015876D01*
X003975Y015900D01*
X004004Y015926D01*
X004030Y015955D01*
X004054Y015987D01*
X004074Y016020D01*
X004091Y016056D01*
X004104Y016093D01*
X004113Y016131D01*
X004119Y016170D01*
X004121Y016209D01*
X007271Y012059D02*
X007442Y012030D01*
X007612Y011994D01*
X007780Y011949D01*
X007946Y011897D01*
X008109Y011837D01*
X008269Y011769D01*
X008425Y011694D01*
X008578Y011611D01*
X008727Y011522D01*
X008871Y011425D01*
X009011Y011322D01*
X009146Y011212D01*
X009275Y011097D01*
X009399Y010975D01*
X009517Y010847D01*
X009629Y010714D01*
X009734Y010576D01*
X009833Y010434D01*
X009925Y010286D01*
X010010Y010135D01*
X010088Y009980D01*
X010158Y009821D01*
X010221Y009659D01*
X009321Y009359D02*
X009267Y009490D01*
X009206Y009618D01*
X009140Y009743D01*
X009068Y009865D01*
X008990Y009983D01*
X008907Y010097D01*
X008818Y010208D01*
X008725Y010314D01*
X008626Y010416D01*
X008523Y010513D01*
X008415Y010605D01*
X008303Y010691D01*
X008187Y010773D01*
X008068Y010849D01*
X007945Y010919D01*
X007819Y010983D01*
X007690Y011041D01*
X007558Y011094D01*
X007424Y011139D01*
X007288Y011179D01*
X007150Y011212D01*
X007011Y011239D01*
X006871Y011259D01*
X019265Y011503D02*
X019265Y012853D01*
X023232Y012853D01*
X023233Y012853D02*
X023276Y012844D01*
X023320Y012833D01*
X023362Y012817D01*
X023402Y012799D01*
X023441Y012777D01*
X023478Y012752D01*
X023513Y012724D01*
X023545Y012693D01*
X023575Y012659D01*
X023602Y012623D01*
X023626Y012586D01*
X023646Y012546D01*
X023663Y012505D01*
X023677Y012462D01*
X023687Y012419D01*
X023694Y012374D01*
X023697Y012330D01*
X023696Y012285D01*
X023692Y012240D01*
X023692Y010486D01*
X023694Y010440D01*
X023700Y010394D01*
X023710Y010350D01*
X023724Y010306D01*
X023741Y010263D01*
X023761Y010223D01*
X023785Y010183D01*
X023812Y010146D01*
X023842Y010112D01*
X023875Y010080D01*
X023910Y010050D01*
X023948Y010024D01*
X023987Y010001D01*
X024028Y009981D01*
X024071Y009965D01*
X024115Y009953D01*
X024160Y009944D01*
X024206Y009938D01*
X024251Y009937D01*
X030612Y009937D01*
X030655Y009935D01*
X030698Y009929D01*
X030741Y009920D01*
X030782Y009907D01*
X030822Y009890D01*
X030861Y009870D01*
X030897Y009847D01*
X030931Y009821D01*
X030963Y009791D01*
X030993Y009759D01*
X031019Y009725D01*
X031042Y009688D01*
X031062Y009650D01*
X031079Y009610D01*
X031092Y009569D01*
X031101Y009526D01*
X031107Y009483D01*
X031109Y009440D01*
X031109Y006704D01*
X030321Y006704D01*
X030321Y008259D01*
X030319Y008293D01*
X030313Y008326D01*
X030304Y008358D01*
X030291Y008389D01*
X030275Y008419D01*
X030256Y008446D01*
X030233Y008471D01*
X030208Y008494D01*
X030181Y008513D01*
X030151Y008529D01*
X030120Y008542D01*
X030088Y008551D01*
X030055Y008557D01*
X030021Y008559D01*
X029671Y008559D01*
X029672Y008615D01*
X029668Y008671D01*
X029661Y008727D01*
X029650Y008782D01*
X029634Y008836D01*
X029616Y008889D01*
X029593Y008941D01*
X029567Y008991D01*
X029537Y009038D01*
X029505Y009084D01*
X029469Y009127D01*
X029430Y009168D01*
X029388Y009206D01*
X029344Y009240D01*
X029298Y009272D01*
X029249Y009300D01*
X029198Y009325D01*
X029146Y009346D01*
X029093Y009364D01*
X029038Y009377D01*
X028983Y009387D01*
X028927Y009393D01*
X028871Y009395D01*
X028815Y009393D01*
X028759Y009387D01*
X028704Y009377D01*
X028649Y009364D01*
X028596Y009346D01*
X028544Y009325D01*
X028493Y009300D01*
X028444Y009272D01*
X028398Y009240D01*
X028354Y009206D01*
X028312Y009168D01*
X028273Y009127D01*
X028237Y009084D01*
X028205Y009038D01*
X028175Y008991D01*
X028149Y008941D01*
X028126Y008889D01*
X028108Y008836D01*
X028092Y008782D01*
X028081Y008727D01*
X028074Y008671D01*
X028070Y008615D01*
X028071Y008559D01*
X024061Y008559D01*
X023994Y008560D01*
X023927Y008566D01*
X023860Y008575D01*
X023794Y008588D01*
X023728Y008605D01*
X023664Y008625D01*
X023601Y008650D01*
X023540Y008678D01*
X023480Y008709D01*
X023423Y008744D01*
X023367Y008782D01*
X023314Y008824D01*
X023263Y008868D01*
X023215Y008915D01*
X023170Y008965D01*
X023127Y009018D01*
X023088Y009073D01*
X023052Y009130D01*
X023020Y009189D01*
X022991Y009250D01*
X022965Y009312D01*
X022944Y009376D01*
X022926Y009441D01*
X022911Y009507D01*
X022901Y009573D01*
X022895Y009640D01*
X022892Y009708D01*
X022892Y011353D01*
X022887Y011378D01*
X022878Y011401D01*
X022866Y011424D01*
X022851Y011444D01*
X022833Y011462D01*
X022813Y011477D01*
X022791Y011489D01*
X022767Y011498D01*
X022742Y011503D01*
X022717Y011505D01*
X022692Y011503D01*
X019265Y011503D01*
X029321Y004259D02*
X029387Y004273D01*
X029453Y004291D01*
X029517Y004312D01*
X029580Y004337D01*
X029642Y004365D01*
X029702Y004397D01*
X029760Y004432D01*
X029816Y004470D01*
X029870Y004512D01*
X029921Y004556D01*
X029970Y004603D01*
X030016Y004652D01*
X030060Y004704D01*
X030100Y004759D01*
X030137Y004815D01*
X030172Y004874D01*
X030202Y004934D01*
X030230Y004996D01*
X030254Y005060D01*
X030274Y005124D01*
X030291Y005190D01*
X030304Y005257D01*
X030313Y005324D01*
X030319Y005391D01*
X030321Y005459D01*
X030321Y005916D01*
X031109Y005916D01*
X031109Y004959D01*
X031106Y004890D01*
X031099Y004821D01*
X031088Y004753D01*
X031073Y004686D01*
X031055Y004620D01*
X031033Y004554D01*
X031008Y004490D01*
X030979Y004428D01*
X030946Y004367D01*
X030910Y004308D01*
X030872Y004252D01*
X030829Y004197D01*
X030784Y004145D01*
X030737Y004095D01*
X030686Y004049D01*
X030633Y004005D01*
X030578Y003964D01*
X030520Y003926D01*
X030460Y003892D01*
X030399Y003861D01*
X030336Y003833D01*
X030271Y003809D01*
X030206Y003788D01*
X030139Y003772D01*
X030071Y003758D01*
X029321Y004260D02*
X027468Y003812D01*
X025598Y003446D01*
X023713Y003161D01*
X021818Y002959D01*
X021818Y002359D02*
X023903Y002573D01*
X025976Y002879D01*
X028033Y003274D01*
X030072Y003759D01*
D11*
X030718Y002959D02*
X030720Y003007D01*
X030726Y003055D01*
X030736Y003102D01*
X030749Y003148D01*
X030767Y003193D01*
X030787Y003237D01*
X030812Y003279D01*
X030840Y003318D01*
X030870Y003355D01*
X030904Y003389D01*
X030941Y003421D01*
X030979Y003450D01*
X031020Y003475D01*
X031063Y003497D01*
X031108Y003515D01*
X031154Y003529D01*
X031201Y003540D01*
X031249Y003547D01*
X031297Y003550D01*
X031345Y003549D01*
X031393Y003544D01*
X031441Y003535D01*
X031487Y003523D01*
X031532Y003506D01*
X031576Y003486D01*
X031618Y003463D01*
X031658Y003436D01*
X031696Y003406D01*
X031731Y003373D01*
X031763Y003337D01*
X031793Y003299D01*
X031819Y003258D01*
X031841Y003215D01*
X031861Y003171D01*
X031876Y003126D01*
X031888Y003079D01*
X031896Y003031D01*
X031900Y002983D01*
X031900Y002935D01*
X031896Y002887D01*
X031888Y002839D01*
X031876Y002792D01*
X031861Y002747D01*
X031841Y002703D01*
X031819Y002660D01*
X031793Y002619D01*
X031763Y002581D01*
X031731Y002545D01*
X031696Y002512D01*
X031658Y002482D01*
X031618Y002455D01*
X031576Y002432D01*
X031532Y002412D01*
X031487Y002395D01*
X031441Y002383D01*
X031393Y002374D01*
X031345Y002369D01*
X031297Y002368D01*
X031249Y002371D01*
X031201Y002378D01*
X031154Y002389D01*
X031108Y002403D01*
X031063Y002421D01*
X031020Y002443D01*
X030979Y002468D01*
X030941Y002497D01*
X030904Y002529D01*
X030870Y002563D01*
X030840Y002600D01*
X030812Y002639D01*
X030787Y002681D01*
X030767Y002725D01*
X030749Y002770D01*
X030736Y002816D01*
X030726Y002863D01*
X030720Y002911D01*
X030718Y002959D01*
X030698Y001321D02*
X030700Y001351D01*
X030706Y001380D01*
X030715Y001408D01*
X030728Y001434D01*
X030745Y001459D01*
X030764Y001482D01*
X030787Y001501D01*
X030811Y001518D01*
X030838Y001531D01*
X030866Y001540D01*
X030895Y001546D01*
X030925Y001548D01*
X030955Y001546D01*
X030984Y001540D01*
X031012Y001531D01*
X031038Y001518D01*
X031063Y001501D01*
X031086Y001482D01*
X031105Y001459D01*
X031122Y001435D01*
X031135Y001408D01*
X031144Y001380D01*
X031150Y001351D01*
X031152Y001321D01*
X031150Y001291D01*
X031144Y001262D01*
X031135Y001234D01*
X031122Y001208D01*
X031105Y001183D01*
X031086Y001160D01*
X031063Y001141D01*
X031039Y001124D01*
X031012Y001111D01*
X030984Y001102D01*
X030955Y001096D01*
X030925Y001094D01*
X030895Y001096D01*
X030866Y001102D01*
X030838Y001111D01*
X030812Y001124D01*
X030787Y001141D01*
X030764Y001160D01*
X030745Y001183D01*
X030728Y001207D01*
X030715Y001234D01*
X030706Y001262D01*
X030700Y001291D01*
X030698Y001321D01*
X030718Y012459D02*
X030720Y012507D01*
X030726Y012555D01*
X030736Y012602D01*
X030749Y012648D01*
X030767Y012693D01*
X030787Y012737D01*
X030812Y012779D01*
X030840Y012818D01*
X030870Y012855D01*
X030904Y012889D01*
X030941Y012921D01*
X030979Y012950D01*
X031020Y012975D01*
X031063Y012997D01*
X031108Y013015D01*
X031154Y013029D01*
X031201Y013040D01*
X031249Y013047D01*
X031297Y013050D01*
X031345Y013049D01*
X031393Y013044D01*
X031441Y013035D01*
X031487Y013023D01*
X031532Y013006D01*
X031576Y012986D01*
X031618Y012963D01*
X031658Y012936D01*
X031696Y012906D01*
X031731Y012873D01*
X031763Y012837D01*
X031793Y012799D01*
X031819Y012758D01*
X031841Y012715D01*
X031861Y012671D01*
X031876Y012626D01*
X031888Y012579D01*
X031896Y012531D01*
X031900Y012483D01*
X031900Y012435D01*
X031896Y012387D01*
X031888Y012339D01*
X031876Y012292D01*
X031861Y012247D01*
X031841Y012203D01*
X031819Y012160D01*
X031793Y012119D01*
X031763Y012081D01*
X031731Y012045D01*
X031696Y012012D01*
X031658Y011982D01*
X031618Y011955D01*
X031576Y011932D01*
X031532Y011912D01*
X031487Y011895D01*
X031441Y011883D01*
X031393Y011874D01*
X031345Y011869D01*
X031297Y011868D01*
X031249Y011871D01*
X031201Y011878D01*
X031154Y011889D01*
X031108Y011903D01*
X031063Y011921D01*
X031020Y011943D01*
X030979Y011968D01*
X030941Y011997D01*
X030904Y012029D01*
X030870Y012063D01*
X030840Y012100D01*
X030812Y012139D01*
X030787Y012181D01*
X030767Y012225D01*
X030749Y012270D01*
X030736Y012316D01*
X030726Y012363D01*
X030720Y012411D01*
X030718Y012459D01*
X001440Y012459D02*
X001442Y012507D01*
X001448Y012555D01*
X001458Y012602D01*
X001471Y012648D01*
X001489Y012693D01*
X001509Y012737D01*
X001534Y012779D01*
X001562Y012818D01*
X001592Y012855D01*
X001626Y012889D01*
X001663Y012921D01*
X001701Y012950D01*
X001742Y012975D01*
X001785Y012997D01*
X001830Y013015D01*
X001876Y013029D01*
X001923Y013040D01*
X001971Y013047D01*
X002019Y013050D01*
X002067Y013049D01*
X002115Y013044D01*
X002163Y013035D01*
X002209Y013023D01*
X002254Y013006D01*
X002298Y012986D01*
X002340Y012963D01*
X002380Y012936D01*
X002418Y012906D01*
X002453Y012873D01*
X002485Y012837D01*
X002515Y012799D01*
X002541Y012758D01*
X002563Y012715D01*
X002583Y012671D01*
X002598Y012626D01*
X002610Y012579D01*
X002618Y012531D01*
X002622Y012483D01*
X002622Y012435D01*
X002618Y012387D01*
X002610Y012339D01*
X002598Y012292D01*
X002583Y012247D01*
X002563Y012203D01*
X002541Y012160D01*
X002515Y012119D01*
X002485Y012081D01*
X002453Y012045D01*
X002418Y012012D01*
X002380Y011982D01*
X002340Y011955D01*
X002298Y011932D01*
X002254Y011912D01*
X002209Y011895D01*
X002163Y011883D01*
X002115Y011874D01*
X002067Y011869D01*
X002019Y011868D01*
X001971Y011871D01*
X001923Y011878D01*
X001876Y011889D01*
X001830Y011903D01*
X001785Y011921D01*
X001742Y011943D01*
X001701Y011968D01*
X001663Y011997D01*
X001626Y012029D01*
X001592Y012063D01*
X001562Y012100D01*
X001534Y012139D01*
X001509Y012181D01*
X001489Y012225D01*
X001471Y012270D01*
X001458Y012316D01*
X001448Y012363D01*
X001442Y012411D01*
X001440Y012459D01*
X001094Y017183D02*
X001096Y017213D01*
X001102Y017242D01*
X001111Y017270D01*
X001124Y017296D01*
X001141Y017321D01*
X001160Y017344D01*
X001183Y017363D01*
X001207Y017380D01*
X001234Y017393D01*
X001262Y017402D01*
X001291Y017408D01*
X001321Y017410D01*
X001351Y017408D01*
X001380Y017402D01*
X001408Y017393D01*
X001434Y017380D01*
X001459Y017363D01*
X001482Y017344D01*
X001501Y017321D01*
X001518Y017297D01*
X001531Y017270D01*
X001540Y017242D01*
X001546Y017213D01*
X001548Y017183D01*
X001546Y017153D01*
X001540Y017124D01*
X001531Y017096D01*
X001518Y017070D01*
X001501Y017045D01*
X001482Y017022D01*
X001459Y017003D01*
X001435Y016986D01*
X001408Y016973D01*
X001380Y016964D01*
X001351Y016958D01*
X001321Y016956D01*
X001291Y016958D01*
X001262Y016964D01*
X001234Y016973D01*
X001208Y016986D01*
X001183Y017003D01*
X001160Y017022D01*
X001141Y017045D01*
X001124Y017069D01*
X001111Y017096D01*
X001102Y017124D01*
X001096Y017153D01*
X001094Y017183D01*
X001440Y002959D02*
X001442Y003007D01*
X001448Y003055D01*
X001458Y003102D01*
X001471Y003148D01*
X001489Y003193D01*
X001509Y003237D01*
X001534Y003279D01*
X001562Y003318D01*
X001592Y003355D01*
X001626Y003389D01*
X001663Y003421D01*
X001701Y003450D01*
X001742Y003475D01*
X001785Y003497D01*
X001830Y003515D01*
X001876Y003529D01*
X001923Y003540D01*
X001971Y003547D01*
X002019Y003550D01*
X002067Y003549D01*
X002115Y003544D01*
X002163Y003535D01*
X002209Y003523D01*
X002254Y003506D01*
X002298Y003486D01*
X002340Y003463D01*
X002380Y003436D01*
X002418Y003406D01*
X002453Y003373D01*
X002485Y003337D01*
X002515Y003299D01*
X002541Y003258D01*
X002563Y003215D01*
X002583Y003171D01*
X002598Y003126D01*
X002610Y003079D01*
X002618Y003031D01*
X002622Y002983D01*
X002622Y002935D01*
X002618Y002887D01*
X002610Y002839D01*
X002598Y002792D01*
X002583Y002747D01*
X002563Y002703D01*
X002541Y002660D01*
X002515Y002619D01*
X002485Y002581D01*
X002453Y002545D01*
X002418Y002512D01*
X002380Y002482D01*
X002340Y002455D01*
X002298Y002432D01*
X002254Y002412D01*
X002209Y002395D01*
X002163Y002383D01*
X002115Y002374D01*
X002067Y002369D01*
X002019Y002368D01*
X001971Y002371D01*
X001923Y002378D01*
X001876Y002389D01*
X001830Y002403D01*
X001785Y002421D01*
X001742Y002443D01*
X001701Y002468D01*
X001663Y002497D01*
X001626Y002529D01*
X001592Y002563D01*
X001562Y002600D01*
X001534Y002639D01*
X001509Y002681D01*
X001489Y002725D01*
X001471Y002770D01*
X001458Y002816D01*
X001448Y002863D01*
X001442Y002911D01*
X001440Y002959D01*
D12*
X017731Y003136D02*
X017731Y003380D01*
X017732Y003380D02*
X017734Y003400D01*
X017739Y003419D01*
X017748Y003437D01*
X017760Y003453D01*
X017775Y003466D01*
X017792Y003477D01*
X017810Y003484D01*
X017830Y003488D01*
X017850Y003488D01*
X017870Y003484D01*
X017888Y003477D01*
X017905Y003466D01*
X017920Y003453D01*
X017932Y003437D01*
X017941Y003419D01*
X017946Y003400D01*
X017948Y003380D01*
X017948Y003136D01*
X017946Y003116D01*
X017941Y003097D01*
X017932Y003079D01*
X017920Y003063D01*
X017905Y003050D01*
X017888Y003039D01*
X017870Y003032D01*
X017850Y003028D01*
X017830Y003028D01*
X017810Y003032D01*
X017792Y003039D01*
X017775Y003050D01*
X017760Y003063D01*
X017748Y003079D01*
X017739Y003097D01*
X017734Y003116D01*
X017732Y003136D01*
X017731Y004632D02*
X017731Y004876D01*
X017732Y004876D02*
X017734Y004896D01*
X017739Y004915D01*
X017748Y004933D01*
X017760Y004949D01*
X017775Y004962D01*
X017792Y004973D01*
X017810Y004980D01*
X017830Y004984D01*
X017850Y004984D01*
X017870Y004980D01*
X017888Y004973D01*
X017905Y004962D01*
X017920Y004949D01*
X017932Y004933D01*
X017941Y004915D01*
X017946Y004896D01*
X017948Y004876D01*
X017948Y004632D01*
X017946Y004612D01*
X017941Y004593D01*
X017932Y004575D01*
X017920Y004559D01*
X017905Y004546D01*
X017888Y004535D01*
X017870Y004528D01*
X017850Y004524D01*
X017830Y004524D01*
X017810Y004528D01*
X017792Y004535D01*
X017775Y004546D01*
X017760Y004559D01*
X017748Y004575D01*
X017739Y004593D01*
X017734Y004612D01*
X017732Y004632D01*
X021133Y004632D02*
X021133Y004876D01*
X021135Y004896D01*
X021140Y004915D01*
X021149Y004933D01*
X021161Y004949D01*
X021176Y004962D01*
X021193Y004973D01*
X021211Y004980D01*
X021231Y004984D01*
X021251Y004984D01*
X021271Y004980D01*
X021289Y004973D01*
X021306Y004962D01*
X021321Y004949D01*
X021333Y004933D01*
X021342Y004915D01*
X021347Y004896D01*
X021349Y004876D01*
X021349Y004632D01*
X021347Y004612D01*
X021342Y004593D01*
X021333Y004575D01*
X021321Y004559D01*
X021306Y004546D01*
X021289Y004535D01*
X021271Y004528D01*
X021251Y004524D01*
X021231Y004524D01*
X021211Y004528D01*
X021193Y004535D01*
X021176Y004546D01*
X021161Y004559D01*
X021149Y004575D01*
X021140Y004593D01*
X021135Y004612D01*
X021133Y004632D01*
X021133Y003380D02*
X021133Y003136D01*
X021135Y003116D01*
X021140Y003097D01*
X021149Y003079D01*
X021161Y003063D01*
X021176Y003050D01*
X021193Y003039D01*
X021211Y003032D01*
X021231Y003028D01*
X021251Y003028D01*
X021271Y003032D01*
X021289Y003039D01*
X021306Y003050D01*
X021321Y003063D01*
X021333Y003079D01*
X021342Y003097D01*
X021347Y003116D01*
X021349Y003136D01*
X021349Y003380D01*
X021347Y003400D01*
X021342Y003419D01*
X021333Y003437D01*
X021321Y003453D01*
X021306Y003466D01*
X021289Y003477D01*
X021271Y003484D01*
X021251Y003488D01*
X021231Y003488D01*
X021211Y003484D01*
X021193Y003477D01*
X021176Y003466D01*
X021161Y003453D01*
X021149Y003437D01*
X021140Y003419D01*
X021135Y003400D01*
X021133Y003380D01*
D13*
X021241Y003138D02*
X021241Y003138D01*
X021241Y003374D01*
X021241Y003374D01*
X021241Y003138D01*
X021241Y004634D02*
X021241Y004634D01*
X021241Y004870D01*
X021241Y004870D01*
X021241Y004634D01*
X017840Y004634D02*
X017840Y004634D01*
X017840Y004870D01*
X017840Y004870D01*
X017840Y004634D01*
X017840Y003138D02*
X017840Y003138D01*
X017840Y003374D01*
X017840Y003374D01*
X017840Y003138D01*
D14*
X014862Y005940D03*
X013862Y005940D03*
D15*
X022121Y008759D03*
X028871Y008709D03*
X028871Y006709D03*
D16*
X019931Y003989D03*
X015104Y008672D03*
D17*
X014291Y010919D03*
D18*
X008099Y004809D03*
X008099Y003809D03*
X026599Y011959D03*
X027599Y011959D03*
X028599Y011959D03*
X028599Y012959D03*
X027599Y012959D03*
X026599Y012959D03*
D19*
X026179Y013189D02*
X025991Y013189D01*
X025573Y013607D01*
X019092Y013607D01*
X018842Y013504D01*
X018651Y013313D01*
X018651Y013313D01*
X018570Y013117D01*
X018530Y013117D01*
X018529Y013118D01*
X016922Y013118D01*
X016800Y013128D01*
X016560Y013013D01*
X016408Y012794D01*
X016401Y012703D01*
X016397Y012693D01*
X016397Y012651D01*
X016393Y012609D01*
X016397Y012598D01*
X016397Y011914D01*
X011187Y011914D01*
X011053Y012101D01*
X010542Y012623D01*
X010542Y012623D01*
X009956Y013061D01*
X009310Y013404D01*
X008619Y013644D01*
X008477Y013670D01*
X008477Y017402D01*
X008477Y017403D01*
X008477Y017455D01*
X008477Y017506D01*
X008477Y017508D01*
X008476Y017594D01*
X008336Y017830D01*
X008097Y017966D01*
X007961Y017964D01*
X006862Y017964D01*
X006765Y017924D01*
X006690Y017850D01*
X006650Y017752D01*
X006650Y016556D01*
X006690Y016459D01*
X006765Y016384D01*
X006862Y016344D01*
X007356Y016344D01*
X007356Y014674D01*
X006669Y014674D01*
X006480Y014595D01*
X006480Y014595D01*
X006335Y014451D01*
X006335Y014451D01*
X006256Y014261D01*
X006256Y013056D01*
X006256Y013056D01*
X006335Y012867D01*
X006480Y012722D01*
X006669Y012644D01*
X007591Y012644D01*
X007933Y012562D01*
X008628Y012294D01*
X009266Y011910D01*
X009827Y011421D01*
X010295Y010842D01*
X010484Y010534D01*
X010497Y010503D01*
X010508Y010492D01*
X010515Y010478D01*
X010545Y010455D01*
X010571Y010428D01*
X010586Y010422D01*
X010598Y010413D01*
X010634Y010402D01*
X010669Y010388D01*
X010684Y010388D01*
X010699Y010383D01*
X010736Y010388D01*
X013622Y010388D01*
X013624Y010387D01*
X013674Y010388D01*
X013724Y010388D01*
X013727Y010389D01*
X013789Y010390D01*
X013797Y010395D01*
X013912Y010347D01*
X014172Y010347D01*
X014177Y010345D01*
X014370Y010345D01*
X014424Y010291D01*
X014491Y010224D01*
X014580Y010187D01*
X017237Y010187D01*
X017237Y009426D01*
X017215Y009403D01*
X017167Y009289D01*
X017167Y009166D01*
X017215Y009052D01*
X017302Y008965D01*
X017416Y008917D01*
X017539Y008917D01*
X017653Y008965D01*
X017740Y009052D01*
X017787Y009166D01*
X017787Y009289D01*
X017740Y009403D01*
X017717Y009426D01*
X017717Y010205D01*
X017763Y010224D01*
X017831Y010291D01*
X017831Y010291D01*
X017881Y010341D01*
X017891Y010366D01*
X017907Y010382D01*
X017907Y010406D01*
X017917Y010430D01*
X017917Y010525D01*
X017907Y010549D01*
X017907Y011027D01*
X017908Y011031D01*
X017911Y011039D01*
X017916Y011044D01*
X017923Y011047D01*
X017927Y011047D01*
X018497Y011047D01*
X018508Y011038D01*
X018590Y011047D01*
X018673Y011047D01*
X018683Y011058D01*
X018724Y011062D01*
X018891Y011185D01*
X018956Y011120D01*
X019132Y011047D01*
X020867Y011047D01*
X020920Y011042D01*
X021017Y011002D01*
X021078Y010941D01*
X021037Y010843D01*
X021037Y010712D01*
X021088Y010590D01*
X021107Y010571D01*
X021107Y008976D01*
X021147Y008880D01*
X021220Y008807D01*
X021397Y008630D01*
X021407Y008606D01*
X021483Y008530D01*
X021578Y008491D01*
X021609Y008416D01*
X021779Y008246D01*
X022001Y008154D01*
X022242Y008154D01*
X022464Y008246D01*
X022634Y008416D01*
X022726Y008639D01*
X022726Y008879D01*
X022634Y009102D01*
X022464Y009272D01*
X022242Y009364D01*
X022001Y009364D01*
X021779Y009272D01*
X021635Y009128D01*
X021627Y009135D01*
X021627Y010571D01*
X021647Y010590D01*
X021697Y010712D01*
X021697Y010843D01*
X021647Y010964D01*
X021554Y011057D01*
X021539Y011063D01*
X021486Y011191D01*
X021440Y011238D01*
X022627Y011238D01*
X022627Y009759D01*
X022626Y009758D01*
X022627Y009707D01*
X022627Y009655D01*
X022627Y009654D01*
X022629Y009480D01*
X022772Y009052D01*
X023040Y008689D01*
X023040Y008689D01*
X023040Y008689D01*
X023407Y008428D01*
X023407Y008428D01*
X023838Y008292D01*
X024062Y008294D01*
X028022Y008294D01*
X027977Y008187D01*
X027977Y007808D01*
X027959Y007790D01*
X027902Y007652D01*
X027902Y007503D01*
X027959Y007365D01*
X028065Y007259D01*
X028203Y007202D01*
X028352Y007202D01*
X028490Y007259D01*
X028595Y007365D01*
X028652Y007503D01*
X028652Y007652D01*
X028595Y007790D01*
X028577Y007808D01*
X028577Y008003D01*
X028700Y008125D01*
X028751Y008104D01*
X028992Y008104D01*
X029105Y008151D01*
X029126Y008129D01*
X029871Y008129D01*
X029875Y008129D01*
X029883Y008126D01*
X029888Y008120D01*
X029891Y008113D01*
X029891Y008109D01*
X029891Y007977D01*
X029847Y008022D01*
X029733Y008069D01*
X029610Y008069D01*
X029496Y008022D01*
X029409Y007934D01*
X029361Y007821D01*
X029361Y007697D01*
X029409Y007583D01*
X029496Y007496D01*
X029610Y007449D01*
X029691Y007449D01*
X029691Y006601D01*
X029791Y006362D01*
X029813Y006340D01*
X029713Y006340D01*
X029591Y006343D01*
X029354Y006264D01*
X029158Y006109D01*
X029027Y005896D01*
X029018Y005850D01*
X029005Y005839D01*
X028999Y005759D01*
X028983Y005680D01*
X028988Y005673D01*
X028984Y005641D01*
X028916Y005446D01*
X028800Y005274D01*
X028763Y005237D01*
X028268Y005123D01*
X028176Y005101D01*
X028083Y005080D01*
X028083Y005080D01*
X026680Y004753D01*
X024291Y004305D01*
X022769Y004108D01*
X022715Y004114D01*
X022600Y004161D01*
X022511Y004250D01*
X022500Y004277D01*
X022539Y004277D01*
X022612Y004247D01*
X023043Y004247D01*
X023164Y004298D01*
X023257Y004390D01*
X023307Y004512D01*
X023307Y004643D01*
X023257Y004764D01*
X023164Y004857D01*
X023043Y004907D01*
X022612Y004907D01*
X022539Y004877D01*
X022491Y004877D01*
X021985Y005327D01*
X022139Y005327D01*
X022212Y005297D01*
X022643Y005297D01*
X022764Y005348D01*
X022857Y005440D01*
X022907Y005562D01*
X022907Y005693D01*
X022857Y005814D01*
X022764Y005907D01*
X022643Y005957D01*
X022212Y005957D01*
X022139Y005927D01*
X021902Y005927D01*
X021847Y005982D01*
X021737Y006027D01*
X018677Y006027D01*
X018638Y006031D01*
X018566Y006061D01*
X018511Y006116D01*
X018481Y006188D01*
X018477Y006227D01*
X018477Y006772D01*
X018520Y006789D01*
X018616Y006885D01*
X018667Y007010D01*
X018667Y007445D01*
X018616Y007570D01*
X018520Y007666D01*
X018454Y007693D01*
X018444Y007753D01*
X018444Y007753D01*
X018268Y008066D01*
X018068Y008237D01*
X019423Y008237D01*
X019431Y008218D01*
X019518Y008131D01*
X019632Y008084D01*
X019755Y008084D01*
X019869Y008131D01*
X019956Y008218D01*
X020004Y008332D01*
X020004Y008455D01*
X019956Y008569D01*
X019869Y008656D01*
X019755Y008704D01*
X019741Y008704D01*
X019710Y008717D01*
X019708Y008717D01*
X019707Y008717D01*
X019661Y008717D01*
X019614Y008718D01*
X019613Y008717D01*
X017640Y008717D01*
X017590Y008767D01*
X017476Y008814D01*
X017353Y008814D01*
X017239Y008767D01*
X017152Y008680D01*
X017104Y008566D01*
X017104Y008443D01*
X017111Y008427D01*
X016293Y008427D01*
X016281Y008429D01*
X016253Y008443D01*
X016232Y008467D01*
X016221Y008497D01*
X016221Y008523D01*
X016225Y008573D01*
X016221Y008583D01*
X016221Y009113D01*
X016226Y009126D01*
X016221Y009172D01*
X016221Y009219D01*
X016216Y009231D01*
X016208Y009325D01*
X016090Y009579D01*
X015891Y009777D01*
X015637Y009896D01*
X015544Y009904D01*
X015531Y009909D01*
X015485Y009909D01*
X015438Y009913D01*
X015425Y009909D01*
X010725Y009909D01*
X010721Y009917D01*
X010721Y009919D01*
X010699Y009972D01*
X010678Y010026D01*
X010677Y010027D01*
X010562Y010315D01*
X010170Y010946D01*
X010170Y010946D01*
X009675Y011500D01*
X009092Y011959D01*
X009092Y011959D01*
X008437Y012310D01*
X007732Y012542D01*
X007402Y012590D01*
X007381Y012598D01*
X007343Y012598D01*
X007305Y012604D01*
X007284Y012598D01*
X005970Y012598D01*
X005959Y012602D01*
X005910Y012598D01*
X005890Y012598D01*
X005878Y012602D01*
X005868Y012611D01*
X005861Y012624D01*
X005861Y012626D01*
X005861Y015957D01*
X005879Y015975D01*
X005936Y016113D01*
X005936Y016262D01*
X005902Y016344D01*
X006179Y016344D01*
X006277Y016384D01*
X006351Y016459D01*
X006392Y016556D01*
X006392Y017752D01*
X006351Y017850D01*
X006277Y017924D01*
X006179Y017964D01*
X002619Y017964D01*
X002319Y017840D01*
X002090Y017611D01*
X001966Y017312D01*
X001966Y015377D01*
X001955Y015216D01*
X002064Y014894D01*
X002064Y014894D01*
X002288Y014637D01*
X002288Y014637D01*
X002593Y014486D01*
X002593Y014486D01*
X002720Y014477D01*
X002728Y014474D01*
X002772Y014474D01*
X002816Y014471D01*
X002824Y014474D01*
X003971Y014474D01*
X004047Y014468D01*
X004192Y014421D01*
X004314Y014332D01*
X004404Y014209D01*
X004451Y014065D01*
X004456Y013989D01*
X004456Y011406D01*
X004456Y011406D01*
X004535Y011217D01*
X004680Y011072D01*
X004869Y010994D01*
X006851Y010994D01*
X007133Y010945D01*
X007693Y010750D01*
X008198Y010439D01*
X008624Y010027D01*
X008952Y009534D01*
X009071Y009270D01*
X009160Y008946D01*
X009254Y008263D01*
X009256Y007939D01*
X009256Y007914D01*
X001192Y007914D01*
X001192Y007992D02*
X009256Y007992D01*
X009256Y007914D02*
X009255Y007866D01*
X009256Y007861D01*
X009256Y004688D01*
X008563Y004688D01*
X008574Y004714D01*
X008574Y004903D01*
X008502Y005078D01*
X008368Y005212D01*
X008193Y005284D01*
X008004Y005284D01*
X007829Y005212D01*
X007696Y005078D01*
X007623Y004903D01*
X007623Y004714D01*
X007696Y004540D01*
X007829Y004406D01*
X008004Y004334D01*
X008193Y004334D01*
X008232Y004350D01*
X008273Y004309D01*
X008232Y004268D01*
X008193Y004284D01*
X008004Y004284D01*
X007829Y004212D01*
X007696Y004078D01*
X007623Y003903D01*
X007623Y003714D01*
X007696Y003540D01*
X007829Y003406D01*
X008004Y003334D01*
X008193Y003334D01*
X008368Y003406D01*
X008502Y003540D01*
X008574Y003714D01*
X008574Y003903D01*
X008564Y003928D01*
X009256Y003928D01*
X009256Y002625D01*
X009254Y002618D01*
X009256Y002572D01*
X009256Y002526D01*
X009259Y002520D01*
X009263Y002448D01*
X009364Y002237D01*
X009538Y002080D01*
X009758Y002002D01*
X009758Y002002D01*
X009868Y002007D01*
X016307Y002007D01*
X016309Y002007D01*
X016359Y002007D01*
X016410Y002007D01*
X016412Y002008D01*
X021778Y002093D01*
X021787Y002090D01*
X021831Y002094D01*
X021875Y002094D01*
X021883Y002098D01*
X022890Y002179D01*
X024981Y002441D01*
X027058Y002794D01*
X029119Y003236D01*
X030127Y003499D01*
X030322Y003532D01*
X030702Y003711D01*
X030702Y003711D01*
X031019Y003988D01*
X031019Y003988D01*
X031019Y003988D01*
X031247Y004341D01*
X031247Y004341D01*
X031370Y004744D01*
X031373Y004904D01*
X031374Y004906D01*
X031374Y004956D01*
X031375Y005007D01*
X031374Y005009D01*
X031374Y005830D01*
X031375Y005831D01*
X031375Y005890D01*
X031661Y006012D01*
X031661Y006012D01*
X031895Y006255D01*
X031895Y006255D01*
X032014Y006571D01*
X032014Y006571D01*
X032007Y006735D01*
X032007Y009884D01*
X032009Y009886D01*
X032007Y009979D01*
X032007Y010073D01*
X032006Y010074D01*
X032004Y010154D01*
X031867Y010471D01*
X031867Y010471D01*
X031618Y010712D01*
X031296Y010839D01*
X031125Y010836D01*
X029377Y010836D01*
X029364Y010837D01*
X029339Y010848D01*
X029319Y010867D01*
X029309Y010892D01*
X029307Y010906D01*
X029307Y012779D01*
X029230Y012967D01*
X029086Y013111D01*
X029043Y013129D01*
X029002Y013228D01*
X028868Y013362D01*
X028693Y013434D01*
X028504Y013434D01*
X028329Y013362D01*
X028196Y013228D01*
X028123Y013053D01*
X028123Y012864D01*
X028196Y012690D01*
X028329Y012556D01*
X028504Y012484D01*
X028693Y012484D01*
X028847Y012547D01*
X028847Y012370D01*
X028693Y012434D01*
X028504Y012434D01*
X028329Y012362D01*
X028196Y012228D01*
X028123Y012053D01*
X028123Y011864D01*
X028188Y011707D01*
X028080Y011707D01*
X028031Y011712D01*
X028014Y011719D01*
X028074Y011864D01*
X028074Y012053D01*
X028002Y012228D01*
X027868Y012362D01*
X027693Y012434D01*
X027504Y012434D01*
X027329Y012362D01*
X027196Y012228D01*
X027123Y012053D01*
X027123Y011864D01*
X027196Y011690D01*
X027329Y011556D01*
X027504Y011484D01*
X027549Y011484D01*
X027677Y011356D01*
X027939Y011247D01*
X028377Y011247D01*
X028391Y011246D01*
X028416Y011236D01*
X028436Y011216D01*
X028446Y011191D01*
X028447Y011177D01*
X028447Y010758D01*
X028538Y010478D01*
X028712Y010240D01*
X028764Y010202D01*
X024303Y010202D01*
X024302Y010202D01*
X024250Y010202D01*
X024249Y010202D01*
X024192Y010207D01*
X024088Y010249D01*
X024007Y010328D01*
X023963Y010432D01*
X023957Y010488D01*
X023957Y012221D01*
X023977Y012361D01*
X023977Y012361D01*
X023897Y012672D01*
X023897Y012672D01*
X023704Y012929D01*
X023673Y012947D01*
X025285Y012947D01*
X026140Y012093D01*
X026123Y012053D01*
X026123Y011864D01*
X026196Y011690D01*
X026329Y011556D01*
X026504Y011484D01*
X026693Y011484D01*
X026868Y011556D01*
X027002Y011690D01*
X027074Y011864D01*
X027074Y012053D01*
X027002Y012228D01*
X026868Y012362D01*
X026693Y012434D01*
X026504Y012434D01*
X026465Y012418D01*
X026154Y012729D01*
X026179Y012729D01*
X026196Y012690D01*
X026329Y012556D01*
X026504Y012484D01*
X026693Y012484D01*
X026868Y012556D01*
X027002Y012690D01*
X027074Y012864D01*
X027074Y013053D01*
X027002Y013228D01*
X026868Y013362D01*
X026693Y013434D01*
X026504Y013434D01*
X026329Y013362D01*
X026196Y013228D01*
X026179Y013189D01*
X026220Y013252D02*
X025928Y013252D01*
X025850Y013330D02*
X026298Y013330D01*
X026443Y013409D02*
X025771Y013409D01*
X025693Y013487D02*
X032158Y013487D01*
X032158Y013409D02*
X028754Y013409D01*
X028899Y013330D02*
X032158Y013330D01*
X032158Y013252D02*
X031565Y013252D01*
X031474Y013289D02*
X031144Y013289D01*
X030839Y013163D01*
X030605Y012929D01*
X030479Y012624D01*
X029307Y012624D01*
X029307Y012702D02*
X030511Y012702D01*
X030479Y012624D02*
X030479Y012294D01*
X030605Y011988D01*
X030839Y011755D01*
X031144Y011628D01*
X031474Y011628D01*
X031780Y011755D01*
X032013Y011988D01*
X032140Y012294D01*
X032140Y012624D01*
X032158Y012624D01*
X032140Y012624D02*
X032013Y012929D01*
X031780Y013163D01*
X031474Y013289D01*
X031755Y013173D02*
X032158Y013173D01*
X032158Y013095D02*
X031848Y013095D01*
X031926Y013016D02*
X032158Y013016D01*
X032158Y012938D02*
X032005Y012938D01*
X032042Y012859D02*
X032158Y012859D01*
X032158Y012781D02*
X032075Y012781D01*
X032107Y012702D02*
X032158Y012702D01*
X032158Y012545D02*
X032140Y012545D01*
X032140Y012467D02*
X032158Y012467D01*
X032158Y012388D02*
X032140Y012388D01*
X032140Y012310D02*
X032158Y012310D01*
X032158Y012231D02*
X032114Y012231D01*
X032082Y012153D02*
X032158Y012153D01*
X032158Y012074D02*
X032049Y012074D01*
X032017Y011996D02*
X032158Y011996D01*
X032158Y011917D02*
X031942Y011917D01*
X031864Y011839D02*
X032158Y011839D01*
X032158Y011760D02*
X031785Y011760D01*
X031604Y011682D02*
X032158Y011682D01*
X032158Y011603D02*
X029307Y011603D01*
X029307Y011525D02*
X032158Y011525D01*
X032158Y011446D02*
X029307Y011446D01*
X029307Y011368D02*
X032158Y011368D01*
X032158Y011289D02*
X029307Y011289D01*
X029307Y011211D02*
X032158Y011211D01*
X032158Y011132D02*
X029307Y011132D01*
X029307Y011054D02*
X032158Y011054D01*
X032158Y010975D02*
X029307Y010975D01*
X029308Y010897D02*
X032158Y010897D01*
X032158Y010818D02*
X031348Y010818D01*
X031296Y010839D02*
X031296Y010839D01*
X031547Y010740D02*
X032158Y010740D01*
X032158Y010661D02*
X031670Y010661D01*
X031618Y010712D02*
X031618Y010712D01*
X031751Y010583D02*
X032158Y010583D01*
X032158Y010504D02*
X031833Y010504D01*
X031886Y010426D02*
X032158Y010426D01*
X032158Y010347D02*
X031921Y010347D01*
X031955Y010269D02*
X032158Y010269D01*
X032158Y010190D02*
X031989Y010190D01*
X032004Y010154D02*
X032004Y010154D01*
X032005Y010112D02*
X032158Y010112D01*
X032158Y010033D02*
X032007Y010033D01*
X032008Y009955D02*
X032158Y009955D01*
X032158Y009876D02*
X032007Y009876D01*
X032007Y009798D02*
X032158Y009798D01*
X032158Y009719D02*
X032007Y009719D01*
X032007Y009641D02*
X032158Y009641D01*
X032158Y009562D02*
X032007Y009562D01*
X032007Y009484D02*
X032158Y009484D01*
X032158Y009405D02*
X032007Y009405D01*
X032007Y009327D02*
X032158Y009327D01*
X032158Y009248D02*
X032007Y009248D01*
X032007Y009170D02*
X032158Y009170D01*
X032158Y009091D02*
X032007Y009091D01*
X032007Y009013D02*
X032158Y009013D01*
X032158Y008934D02*
X032007Y008934D01*
X032007Y008856D02*
X032158Y008856D01*
X032158Y008777D02*
X032007Y008777D01*
X032007Y008699D02*
X032158Y008699D01*
X032158Y008620D02*
X032007Y008620D01*
X032007Y008542D02*
X032158Y008542D01*
X032158Y008463D02*
X032007Y008463D01*
X032007Y008385D02*
X032158Y008385D01*
X032158Y008306D02*
X032007Y008306D01*
X032007Y008228D02*
X032158Y008228D01*
X032158Y008149D02*
X032007Y008149D01*
X032007Y008071D02*
X032158Y008071D01*
X032158Y007992D02*
X032007Y007992D01*
X032007Y007914D02*
X032158Y007914D01*
X032158Y007835D02*
X032007Y007835D01*
X032007Y007757D02*
X032158Y007757D01*
X032158Y007678D02*
X032007Y007678D01*
X032007Y007600D02*
X032158Y007600D01*
X032158Y007521D02*
X032007Y007521D01*
X032007Y007443D02*
X032158Y007443D01*
X032158Y007364D02*
X032007Y007364D01*
X032007Y007286D02*
X032158Y007286D01*
X032158Y007207D02*
X032007Y007207D01*
X032007Y007129D02*
X032158Y007129D01*
X032158Y007050D02*
X032007Y007050D01*
X032007Y006972D02*
X032158Y006972D01*
X032158Y006893D02*
X032007Y006893D01*
X032007Y006815D02*
X032158Y006815D01*
X032158Y006736D02*
X032007Y006736D01*
X032011Y006658D02*
X032158Y006658D01*
X032158Y006579D02*
X032014Y006579D01*
X031988Y006501D02*
X032158Y006501D01*
X032158Y006422D02*
X031958Y006422D01*
X031928Y006344D02*
X032158Y006344D01*
X032158Y006265D02*
X031899Y006265D01*
X031829Y006187D02*
X032158Y006187D01*
X032158Y006108D02*
X031754Y006108D01*
X031678Y006030D02*
X032158Y006030D01*
X032158Y005951D02*
X031519Y005951D01*
X031375Y005873D02*
X032158Y005873D01*
X032158Y005794D02*
X031374Y005794D01*
X031374Y005716D02*
X032158Y005716D01*
X032158Y005637D02*
X031374Y005637D01*
X031374Y005559D02*
X032158Y005559D01*
X032158Y005480D02*
X031374Y005480D01*
X031374Y005402D02*
X032158Y005402D01*
X032158Y005323D02*
X031374Y005323D01*
X031374Y005245D02*
X032158Y005245D01*
X032158Y005166D02*
X031374Y005166D01*
X031374Y005088D02*
X032158Y005088D01*
X032158Y005009D02*
X031374Y005009D01*
X031374Y004931D02*
X032158Y004931D01*
X032158Y004852D02*
X031372Y004852D01*
X031371Y004774D02*
X032158Y004774D01*
X032158Y004695D02*
X031355Y004695D01*
X031370Y004744D02*
X031370Y004744D01*
X031331Y004617D02*
X032158Y004617D01*
X032158Y004538D02*
X031307Y004538D01*
X031283Y004460D02*
X032158Y004460D01*
X032158Y004381D02*
X031260Y004381D01*
X031222Y004303D02*
X032158Y004303D01*
X032158Y004224D02*
X031172Y004224D01*
X031121Y004146D02*
X032158Y004146D01*
X032158Y004067D02*
X031070Y004067D01*
X031019Y003989D02*
X032158Y003989D01*
X032158Y003910D02*
X030930Y003910D01*
X030840Y003832D02*
X032158Y003832D01*
X032158Y003753D02*
X031562Y003753D01*
X031474Y003789D02*
X031144Y003789D01*
X030839Y003663D01*
X030605Y003429D01*
X030479Y003124D01*
X030479Y002794D01*
X030605Y002488D01*
X030839Y002255D01*
X031144Y002128D01*
X031474Y002128D01*
X031780Y002255D01*
X032013Y002488D01*
X032140Y002794D01*
X032140Y003124D01*
X032013Y003429D01*
X031780Y003663D01*
X031474Y003789D01*
X031751Y003675D02*
X032158Y003675D01*
X032158Y003596D02*
X031846Y003596D01*
X031925Y003518D02*
X032158Y003518D01*
X032158Y003439D02*
X032003Y003439D01*
X032042Y003361D02*
X032158Y003361D01*
X032158Y003282D02*
X032074Y003282D01*
X032107Y003204D02*
X032158Y003204D01*
X032158Y003125D02*
X032139Y003125D01*
X032140Y003047D02*
X032158Y003047D01*
X032158Y002968D02*
X032140Y002968D01*
X032140Y002890D02*
X032158Y002890D01*
X032158Y002811D02*
X032140Y002811D01*
X032158Y002733D02*
X032115Y002733D01*
X032082Y002654D02*
X032158Y002654D01*
X032158Y002576D02*
X032050Y002576D01*
X032017Y002497D02*
X032158Y002497D01*
X032158Y002419D02*
X031944Y002419D01*
X031865Y002340D02*
X032158Y002340D01*
X032158Y002262D02*
X031787Y002262D01*
X031607Y002183D02*
X032158Y002183D01*
X032158Y002105D02*
X021969Y002105D01*
X022890Y002179D02*
X022890Y002179D01*
X022921Y002183D02*
X031011Y002183D01*
X030832Y002262D02*
X023549Y002262D01*
X024176Y002340D02*
X030753Y002340D01*
X030675Y002419D02*
X024804Y002419D01*
X024981Y002441D02*
X024981Y002441D01*
X025313Y002497D02*
X030601Y002497D01*
X030569Y002576D02*
X025776Y002576D01*
X026238Y002654D02*
X030536Y002654D01*
X030504Y002733D02*
X026701Y002733D01*
X027058Y002794D02*
X027058Y002794D01*
X027142Y002811D02*
X030479Y002811D01*
X030479Y002890D02*
X027507Y002890D01*
X027872Y002968D02*
X030479Y002968D01*
X030479Y003047D02*
X028237Y003047D01*
X028603Y003125D02*
X030479Y003125D01*
X030512Y003204D02*
X028968Y003204D01*
X029119Y003236D02*
X029119Y003236D01*
X029295Y003282D02*
X030544Y003282D01*
X030577Y003361D02*
X029596Y003361D01*
X029897Y003439D02*
X030615Y003439D01*
X030694Y003518D02*
X030239Y003518D01*
X030322Y003532D02*
X030322Y003532D01*
X030459Y003596D02*
X030772Y003596D01*
X030868Y003675D02*
X030626Y003675D01*
X030751Y003753D02*
X031057Y003753D01*
X028771Y005245D02*
X022078Y005245D01*
X022149Y005323D02*
X021990Y005323D01*
X022166Y005166D02*
X028457Y005166D01*
X028268Y005123D02*
X028268Y005123D01*
X028117Y005088D02*
X022255Y005088D01*
X022343Y005009D02*
X027781Y005009D01*
X027445Y004931D02*
X022431Y004931D01*
X022706Y005323D02*
X028833Y005323D01*
X028886Y005402D02*
X022819Y005402D01*
X022874Y005480D02*
X028928Y005480D01*
X028955Y005559D02*
X022906Y005559D01*
X022907Y005637D02*
X028982Y005637D01*
X028990Y005716D02*
X022898Y005716D01*
X022865Y005794D02*
X029002Y005794D01*
X029022Y005873D02*
X022799Y005873D01*
X022793Y006017D02*
X022903Y006063D01*
X022987Y006147D01*
X023033Y006258D01*
X023033Y006377D01*
X022987Y006487D01*
X022903Y006572D01*
X022793Y006617D01*
X022792Y006617D01*
X022764Y006646D01*
X022754Y006651D01*
X022753Y006654D01*
X022668Y006689D01*
X022584Y006726D01*
X022580Y006725D01*
X021450Y007187D01*
X021437Y007217D01*
X021353Y007302D01*
X021243Y007347D01*
X021123Y007347D01*
X021013Y007302D01*
X020929Y007217D01*
X020883Y007107D01*
X020883Y006988D01*
X020929Y006877D01*
X021013Y006793D01*
X021123Y006747D01*
X021243Y006747D01*
X021276Y006761D01*
X022433Y006288D01*
X022433Y006258D01*
X022479Y006147D01*
X022563Y006063D01*
X022673Y006017D01*
X022793Y006017D01*
X022823Y006030D02*
X029110Y006030D01*
X029158Y006108D02*
X022948Y006108D01*
X023004Y006187D02*
X028651Y006187D01*
X028655Y006185D02*
X028739Y006158D01*
X028827Y006144D01*
X028831Y006144D01*
X028831Y006669D01*
X028306Y006669D01*
X028306Y006664D01*
X028320Y006577D01*
X028348Y006492D01*
X028388Y006413D01*
X028441Y006341D01*
X028503Y006278D01*
X028575Y006226D01*
X028655Y006185D01*
X028521Y006265D02*
X023033Y006265D01*
X023033Y006344D02*
X028438Y006344D01*
X028383Y006422D02*
X023014Y006422D01*
X022974Y006501D02*
X028345Y006501D01*
X028320Y006579D02*
X022884Y006579D01*
X022764Y006646D02*
X022764Y006646D01*
X022744Y006658D02*
X028308Y006658D01*
X028306Y006749D02*
X028831Y006749D01*
X028831Y006669D01*
X028911Y006669D01*
X028911Y006144D01*
X028916Y006144D01*
X029004Y006158D01*
X029088Y006185D01*
X029168Y006226D01*
X029240Y006278D01*
X029302Y006341D01*
X029355Y006413D01*
X029395Y006492D01*
X029423Y006577D01*
X029436Y006664D01*
X029436Y006669D01*
X028912Y006669D01*
X028912Y006749D01*
X029436Y006749D01*
X029436Y006753D01*
X029423Y006841D01*
X029395Y006926D01*
X029355Y007005D01*
X029302Y007077D01*
X029240Y007140D01*
X029168Y007192D01*
X029088Y007233D01*
X029004Y007260D01*
X028916Y007274D01*
X028911Y007274D01*
X028911Y006749D01*
X028831Y006749D01*
X028831Y007274D01*
X028827Y007274D01*
X028739Y007260D01*
X028655Y007233D01*
X028575Y007192D01*
X028503Y007140D01*
X028441Y007077D01*
X028388Y007005D01*
X028348Y006926D01*
X028320Y006841D01*
X028306Y006753D01*
X028306Y006749D01*
X028316Y006815D02*
X022360Y006815D01*
X022552Y006736D02*
X028831Y006736D01*
X028831Y006658D02*
X028911Y006658D01*
X028912Y006736D02*
X029691Y006736D01*
X029691Y006658D02*
X029435Y006658D01*
X029423Y006579D02*
X029700Y006579D01*
X029733Y006501D02*
X029398Y006501D01*
X029360Y006422D02*
X029765Y006422D01*
X029791Y006362D02*
X029791Y006362D01*
X029808Y006344D02*
X029305Y006344D01*
X029354Y006264D02*
X029354Y006264D01*
X029358Y006265D02*
X029222Y006265D01*
X029257Y006187D02*
X029092Y006187D01*
X029158Y006109D02*
X029158Y006109D01*
X029158Y006109D01*
X029061Y005951D02*
X022657Y005951D01*
X022643Y006030D02*
X018652Y006030D01*
X018519Y006108D02*
X022518Y006108D01*
X022462Y006187D02*
X018482Y006187D01*
X018477Y006265D02*
X022433Y006265D01*
X022296Y006344D02*
X018477Y006344D01*
X018477Y006422D02*
X022104Y006422D01*
X021912Y006501D02*
X018477Y006501D01*
X018477Y006579D02*
X021720Y006579D01*
X021528Y006658D02*
X018477Y006658D01*
X018477Y006736D02*
X021336Y006736D01*
X020991Y006815D02*
X018546Y006815D01*
X018619Y006893D02*
X020922Y006893D01*
X020890Y006972D02*
X018652Y006972D01*
X018667Y007050D02*
X020883Y007050D01*
X020892Y007129D02*
X018667Y007129D01*
X018667Y007207D02*
X020925Y007207D01*
X020997Y007286D02*
X018667Y007286D01*
X018667Y007364D02*
X027960Y007364D01*
X027927Y007443D02*
X018667Y007443D01*
X018636Y007521D02*
X027902Y007521D01*
X027902Y007600D02*
X018586Y007600D01*
X018489Y007678D02*
X027913Y007678D01*
X027946Y007757D02*
X018442Y007757D01*
X018398Y007835D02*
X027977Y007835D01*
X027977Y007914D02*
X018354Y007914D01*
X018309Y007992D02*
X027977Y007992D01*
X027977Y008071D02*
X018262Y008071D01*
X018268Y008066D02*
X018268Y008066D01*
X018170Y008149D02*
X019499Y008149D01*
X019427Y008228D02*
X018079Y008228D01*
X017565Y008777D02*
X021250Y008777D01*
X021328Y008699D02*
X019766Y008699D01*
X019905Y008620D02*
X021401Y008620D01*
X021471Y008542D02*
X019968Y008542D01*
X020000Y008463D02*
X021589Y008463D01*
X021640Y008385D02*
X020004Y008385D01*
X019993Y008306D02*
X021718Y008306D01*
X021822Y008228D02*
X019960Y008228D01*
X019888Y008149D02*
X027977Y008149D01*
X027994Y008228D02*
X022421Y008228D01*
X022525Y008306D02*
X023792Y008306D01*
X023838Y008292D02*
X023838Y008292D01*
X023543Y008385D02*
X022603Y008385D01*
X022654Y008463D02*
X023357Y008463D01*
X023247Y008542D02*
X022686Y008542D01*
X022719Y008620D02*
X023137Y008620D01*
X023033Y008699D02*
X022726Y008699D01*
X022726Y008777D02*
X022975Y008777D01*
X022917Y008856D02*
X022726Y008856D01*
X022704Y008934D02*
X022859Y008934D01*
X022801Y009013D02*
X022671Y009013D01*
X022639Y009091D02*
X022759Y009091D01*
X022772Y009052D02*
X022772Y009052D01*
X022732Y009170D02*
X022566Y009170D01*
X022488Y009248D02*
X022706Y009248D01*
X022680Y009327D02*
X022331Y009327D01*
X022653Y009405D02*
X021627Y009405D01*
X021627Y009327D02*
X021912Y009327D01*
X021755Y009248D02*
X021627Y009248D01*
X021627Y009170D02*
X021677Y009170D01*
X021627Y009484D02*
X022629Y009484D01*
X022629Y009480D02*
X022629Y009480D01*
X022628Y009562D02*
X021627Y009562D01*
X021627Y009641D02*
X022627Y009641D01*
X022626Y009719D02*
X021627Y009719D01*
X021627Y009798D02*
X022627Y009798D01*
X022627Y009876D02*
X021627Y009876D01*
X021627Y009955D02*
X022627Y009955D01*
X022627Y010033D02*
X021627Y010033D01*
X021627Y010112D02*
X022627Y010112D01*
X022627Y010190D02*
X021627Y010190D01*
X021627Y010269D02*
X022627Y010269D01*
X022627Y010347D02*
X021627Y010347D01*
X021627Y010426D02*
X022627Y010426D01*
X022627Y010504D02*
X021627Y010504D01*
X021640Y010583D02*
X022627Y010583D01*
X022627Y010661D02*
X021677Y010661D01*
X021697Y010740D02*
X022627Y010740D01*
X022627Y010818D02*
X021697Y010818D01*
X021675Y010897D02*
X022627Y010897D01*
X022627Y010975D02*
X021636Y010975D01*
X021558Y011054D02*
X022627Y011054D01*
X022627Y011132D02*
X021510Y011132D01*
X021486Y011191D02*
X021486Y011191D01*
X021466Y011211D02*
X022627Y011211D01*
X023957Y011211D02*
X028438Y011211D01*
X028447Y011132D02*
X023957Y011132D01*
X023957Y011054D02*
X028447Y011054D01*
X028447Y010975D02*
X023957Y010975D01*
X023957Y010897D02*
X028447Y010897D01*
X028447Y010818D02*
X023957Y010818D01*
X023957Y010740D02*
X028453Y010740D01*
X028479Y010661D02*
X023957Y010661D01*
X023957Y010583D02*
X028504Y010583D01*
X028530Y010504D02*
X023957Y010504D01*
X023965Y010426D02*
X028576Y010426D01*
X028538Y010478D02*
X028538Y010478D01*
X028633Y010347D02*
X023999Y010347D01*
X024067Y010269D02*
X028691Y010269D01*
X028712Y010240D02*
X028712Y010240D01*
X028712Y010240D01*
X027837Y011289D02*
X023957Y011289D01*
X023957Y011368D02*
X027665Y011368D01*
X027677Y011356D02*
X027677Y011356D01*
X027586Y011446D02*
X023957Y011446D01*
X023957Y011525D02*
X026404Y011525D01*
X026282Y011603D02*
X023957Y011603D01*
X023957Y011682D02*
X026203Y011682D01*
X026166Y011760D02*
X023957Y011760D01*
X023957Y011839D02*
X026134Y011839D01*
X026123Y011917D02*
X023957Y011917D01*
X023957Y011996D02*
X026123Y011996D01*
X026132Y012074D02*
X023957Y012074D01*
X023957Y012153D02*
X026079Y012153D01*
X026001Y012231D02*
X023958Y012231D01*
X023969Y012310D02*
X025922Y012310D01*
X025844Y012388D02*
X023970Y012388D01*
X023950Y012467D02*
X025765Y012467D01*
X025687Y012545D02*
X023929Y012545D01*
X023909Y012624D02*
X025608Y012624D01*
X025530Y012702D02*
X023874Y012702D01*
X023815Y012781D02*
X025451Y012781D01*
X025373Y012859D02*
X023757Y012859D01*
X023704Y012929D02*
X023704Y012929D01*
X023704Y012929D01*
X023689Y012938D02*
X025294Y012938D01*
X025614Y013566D02*
X032158Y013566D01*
X032158Y013644D02*
X008618Y013644D01*
X008619Y013644D02*
X008619Y013644D01*
X008477Y013723D02*
X032158Y013723D01*
X032158Y013801D02*
X008477Y013801D01*
X008477Y013880D02*
X032158Y013880D01*
X032158Y013958D02*
X008477Y013958D01*
X008477Y014037D02*
X032158Y014037D01*
X032158Y014115D02*
X008477Y014115D01*
X008477Y014194D02*
X032158Y014194D01*
X032158Y014272D02*
X008477Y014272D01*
X008477Y014351D02*
X032158Y014351D01*
X032158Y014429D02*
X008477Y014429D01*
X008477Y014508D02*
X032158Y014508D01*
X032158Y014586D02*
X008477Y014586D01*
X008477Y014665D02*
X032158Y014665D01*
X032158Y014743D02*
X008477Y014743D01*
X008477Y014822D02*
X032158Y014822D01*
X032158Y014900D02*
X008477Y014900D01*
X008477Y014979D02*
X032158Y014979D01*
X032158Y015057D02*
X008477Y015057D01*
X008477Y015136D02*
X032158Y015136D01*
X032158Y015214D02*
X008477Y015214D01*
X008477Y015293D02*
X032158Y015293D01*
X032158Y015371D02*
X008477Y015371D01*
X008477Y015450D02*
X032158Y015450D01*
X032158Y015528D02*
X008477Y015528D01*
X008477Y015607D02*
X032158Y015607D01*
X032158Y015685D02*
X008477Y015685D01*
X008477Y015764D02*
X032158Y015764D01*
X032158Y015842D02*
X008477Y015842D01*
X008477Y015921D02*
X032158Y015921D01*
X032158Y015999D02*
X008477Y015999D01*
X008477Y016078D02*
X032158Y016078D01*
X032158Y016156D02*
X008477Y016156D01*
X008477Y016235D02*
X032158Y016235D01*
X032158Y016313D02*
X008477Y016313D01*
X008477Y016392D02*
X032158Y016392D01*
X032158Y016470D02*
X008477Y016470D01*
X008477Y016549D02*
X032158Y016549D01*
X032158Y016627D02*
X008477Y016627D01*
X008477Y016706D02*
X032158Y016706D01*
X032158Y016784D02*
X008477Y016784D01*
X008477Y016863D02*
X032158Y016863D01*
X032158Y016941D02*
X008477Y016941D01*
X008477Y017020D02*
X032158Y017020D01*
X032158Y017098D02*
X008477Y017098D01*
X008477Y017177D02*
X032158Y017177D01*
X032158Y017255D02*
X008477Y017255D01*
X008477Y017334D02*
X032158Y017334D01*
X032158Y017412D02*
X008477Y017412D01*
X008477Y017491D02*
X032158Y017491D01*
X032158Y017569D02*
X008476Y017569D01*
X008476Y017594D02*
X008476Y017594D01*
X008444Y017648D02*
X032158Y017648D01*
X032158Y017726D02*
X008398Y017726D01*
X008351Y017805D02*
X032158Y017805D01*
X032158Y017883D02*
X008242Y017883D01*
X008336Y017830D02*
X008336Y017830D01*
X008336Y017830D01*
X008104Y017962D02*
X032158Y017962D01*
X032158Y018040D02*
X001192Y018040D01*
X001192Y017962D02*
X002613Y017962D01*
X002423Y017883D02*
X001192Y017883D01*
X001192Y017805D02*
X002284Y017805D01*
X002319Y017840D02*
X002319Y017840D01*
X002205Y017726D02*
X001192Y017726D01*
X001192Y017648D02*
X001223Y017648D01*
X001228Y017650D02*
X001192Y017635D01*
X001192Y018145D01*
X001197Y018191D01*
X001232Y018275D01*
X001297Y018340D01*
X001381Y018375D01*
X001427Y018379D01*
X001480Y018379D01*
X031861Y018379D01*
X031863Y018378D01*
X031914Y018379D01*
X031916Y018379D01*
X031963Y018375D01*
X032049Y018340D01*
X032116Y018275D01*
X032153Y018189D01*
X032158Y018143D01*
X032158Y001430D01*
X032153Y001383D01*
X032116Y001297D01*
X032049Y001231D01*
X031962Y001196D01*
X031916Y001192D01*
X031914Y001192D01*
X031863Y001193D01*
X031861Y001192D01*
X031377Y001192D01*
X031392Y001228D01*
X031392Y001414D01*
X031321Y001586D01*
X031190Y001717D01*
X031018Y001788D01*
X030832Y001788D01*
X030661Y001717D01*
X030529Y001586D01*
X030458Y001414D01*
X030458Y001228D01*
X030473Y001192D01*
X001427Y001192D01*
X001382Y001197D01*
X001297Y001232D01*
X001232Y001297D01*
X001197Y001382D01*
X001192Y001427D01*
X001192Y016731D01*
X001228Y016716D01*
X001414Y016716D01*
X001586Y016787D01*
X001717Y016919D01*
X001788Y017090D01*
X001788Y017276D01*
X001717Y017448D01*
X001586Y017579D01*
X001414Y017650D01*
X001228Y017650D01*
X001420Y017648D02*
X002127Y017648D01*
X002090Y017611D02*
X002090Y017611D01*
X002073Y017569D02*
X001595Y017569D01*
X001674Y017491D02*
X002040Y017491D01*
X002008Y017412D02*
X001732Y017412D01*
X001764Y017334D02*
X001975Y017334D01*
X001966Y017255D02*
X001788Y017255D01*
X001788Y017177D02*
X001966Y017177D01*
X001966Y017098D02*
X001788Y017098D01*
X001759Y017020D02*
X001966Y017020D01*
X001966Y016941D02*
X001726Y016941D01*
X001661Y016863D02*
X001966Y016863D01*
X001966Y016784D02*
X001579Y016784D01*
X001192Y016706D02*
X001966Y016706D01*
X001966Y016627D02*
X001192Y016627D01*
X001192Y016549D02*
X001966Y016549D01*
X001966Y016470D02*
X001192Y016470D01*
X001192Y016392D02*
X001966Y016392D01*
X001966Y016313D02*
X001192Y016313D01*
X001192Y016235D02*
X001966Y016235D01*
X001966Y016156D02*
X001192Y016156D01*
X001192Y016078D02*
X001966Y016078D01*
X001966Y015999D02*
X001192Y015999D01*
X001192Y015921D02*
X001966Y015921D01*
X001966Y015842D02*
X001192Y015842D01*
X001192Y015764D02*
X001966Y015764D01*
X001966Y015685D02*
X001192Y015685D01*
X001192Y015607D02*
X001966Y015607D01*
X001966Y015528D02*
X001192Y015528D01*
X001192Y015450D02*
X001966Y015450D01*
X001966Y015371D02*
X001192Y015371D01*
X001192Y015293D02*
X001960Y015293D01*
X001955Y015216D02*
X001955Y015216D01*
X001956Y015214D02*
X001192Y015214D01*
X001192Y015136D02*
X001982Y015136D01*
X002009Y015057D02*
X001192Y015057D01*
X001192Y014979D02*
X002035Y014979D01*
X002062Y014900D02*
X001192Y014900D01*
X001192Y014822D02*
X002127Y014822D01*
X002195Y014743D02*
X001192Y014743D01*
X001192Y014665D02*
X002264Y014665D01*
X002390Y014586D02*
X001192Y014586D01*
X001192Y014508D02*
X002549Y014508D01*
X001192Y014429D02*
X004166Y014429D01*
X004288Y014351D02*
X001192Y014351D01*
X001192Y014272D02*
X004358Y014272D01*
X004409Y014194D02*
X001192Y014194D01*
X001192Y014115D02*
X004434Y014115D01*
X004453Y014037D02*
X001192Y014037D01*
X001192Y013958D02*
X004456Y013958D01*
X004456Y013880D02*
X001192Y013880D01*
X001192Y013801D02*
X004456Y013801D01*
X004456Y013723D02*
X001192Y013723D01*
X001192Y013644D02*
X004456Y013644D01*
X004456Y013566D02*
X001192Y013566D01*
X001192Y013487D02*
X004456Y013487D01*
X004456Y013409D02*
X001192Y013409D01*
X001192Y013330D02*
X004456Y013330D01*
X004456Y013252D02*
X002286Y013252D01*
X002196Y013289D02*
X001865Y013289D01*
X001560Y013163D01*
X001326Y012929D01*
X001200Y012624D01*
X001192Y012624D01*
X001200Y012624D02*
X001200Y012294D01*
X001326Y011988D01*
X001560Y011755D01*
X001865Y011628D01*
X002196Y011628D01*
X002501Y011755D01*
X002735Y011988D01*
X002861Y012294D01*
X002861Y012624D01*
X004456Y012624D01*
X004456Y012702D02*
X002829Y012702D01*
X002861Y012624D02*
X002735Y012929D01*
X002501Y013163D01*
X002196Y013289D01*
X002476Y013173D02*
X004456Y013173D01*
X004456Y013095D02*
X002569Y013095D01*
X002648Y013016D02*
X004456Y013016D01*
X004456Y012938D02*
X002726Y012938D01*
X002764Y012859D02*
X004456Y012859D01*
X004456Y012781D02*
X002796Y012781D01*
X002861Y012545D02*
X004456Y012545D01*
X004456Y012467D02*
X002861Y012467D01*
X002861Y012388D02*
X004456Y012388D01*
X004456Y012310D02*
X002861Y012310D01*
X002835Y012231D02*
X004456Y012231D01*
X004456Y012153D02*
X002803Y012153D01*
X002770Y012074D02*
X004456Y012074D01*
X004456Y011996D02*
X002738Y011996D01*
X002664Y011917D02*
X004456Y011917D01*
X004456Y011839D02*
X002585Y011839D01*
X002507Y011760D02*
X004456Y011760D01*
X004456Y011682D02*
X002325Y011682D01*
X001736Y011682D02*
X001192Y011682D01*
X001192Y011760D02*
X001554Y011760D01*
X001476Y011839D02*
X001192Y011839D01*
X001192Y011917D02*
X001397Y011917D01*
X001323Y011996D02*
X001192Y011996D01*
X001192Y012074D02*
X001291Y012074D01*
X001258Y012153D02*
X001192Y012153D01*
X001192Y012231D02*
X001226Y012231D01*
X001200Y012310D02*
X001192Y012310D01*
X001192Y012388D02*
X001200Y012388D01*
X001192Y012467D02*
X001200Y012467D01*
X001192Y012545D02*
X001200Y012545D01*
X001192Y012702D02*
X001232Y012702D01*
X001265Y012781D02*
X001192Y012781D01*
X001192Y012859D02*
X001297Y012859D01*
X001335Y012938D02*
X001192Y012938D01*
X001192Y013016D02*
X001414Y013016D01*
X001492Y013095D02*
X001192Y013095D01*
X001192Y013173D02*
X001585Y013173D01*
X001775Y013252D02*
X001192Y013252D01*
X001192Y011603D02*
X004456Y011603D01*
X004456Y011525D02*
X001192Y011525D01*
X001192Y011446D02*
X004456Y011446D01*
X004472Y011368D02*
X001192Y011368D01*
X001192Y011289D02*
X004505Y011289D01*
X004541Y011211D02*
X001192Y011211D01*
X001192Y011132D02*
X004620Y011132D01*
X004680Y011072D02*
X004680Y011072D01*
X004724Y011054D02*
X001192Y011054D01*
X001192Y010975D02*
X006957Y010975D01*
X007270Y010897D02*
X001192Y010897D01*
X001192Y010818D02*
X007495Y010818D01*
X007709Y010740D02*
X001192Y010740D01*
X001192Y010661D02*
X007836Y010661D01*
X007964Y010583D02*
X001192Y010583D01*
X001192Y010504D02*
X008092Y010504D01*
X008211Y010426D02*
X001192Y010426D01*
X001192Y010347D02*
X008293Y010347D01*
X008374Y010269D02*
X001192Y010269D01*
X001192Y010190D02*
X008455Y010190D01*
X008537Y010112D02*
X001192Y010112D01*
X001192Y010033D02*
X008618Y010033D01*
X008672Y009955D02*
X001192Y009955D01*
X001192Y009876D02*
X008724Y009876D01*
X008777Y009798D02*
X001192Y009798D01*
X001192Y009719D02*
X008829Y009719D01*
X008881Y009641D02*
X001192Y009641D01*
X001192Y009562D02*
X008933Y009562D01*
X008975Y009484D02*
X001192Y009484D01*
X001192Y009405D02*
X009010Y009405D01*
X009046Y009327D02*
X001192Y009327D01*
X001192Y009248D02*
X009077Y009248D01*
X009099Y009170D02*
X001192Y009170D01*
X001192Y009091D02*
X009120Y009091D01*
X009141Y009013D02*
X001192Y009013D01*
X001192Y008934D02*
X009161Y008934D01*
X009172Y008856D02*
X001192Y008856D01*
X001192Y008777D02*
X009183Y008777D01*
X009194Y008699D02*
X001192Y008699D01*
X001192Y008620D02*
X009205Y008620D01*
X009215Y008542D02*
X001192Y008542D01*
X001192Y008463D02*
X009226Y008463D01*
X009237Y008385D02*
X001192Y008385D01*
X001192Y008306D02*
X009248Y008306D01*
X009254Y008228D02*
X001192Y008228D01*
X001192Y008149D02*
X009255Y008149D01*
X009255Y008071D02*
X001192Y008071D01*
X001192Y007835D02*
X009256Y007835D01*
X009256Y007757D02*
X001192Y007757D01*
X001192Y007678D02*
X009256Y007678D01*
X009256Y007600D02*
X001192Y007600D01*
X001192Y007521D02*
X009256Y007521D01*
X009256Y007443D02*
X001192Y007443D01*
X001192Y007364D02*
X009256Y007364D01*
X009256Y007286D02*
X001192Y007286D01*
X001192Y007207D02*
X009256Y007207D01*
X009256Y007129D02*
X001192Y007129D01*
X001192Y007050D02*
X009256Y007050D01*
X009256Y006972D02*
X001192Y006972D01*
X001192Y006893D02*
X009256Y006893D01*
X009256Y006815D02*
X001192Y006815D01*
X001192Y006736D02*
X009256Y006736D01*
X009256Y006658D02*
X001192Y006658D01*
X001192Y006579D02*
X009256Y006579D01*
X009256Y006501D02*
X001192Y006501D01*
X001192Y006422D02*
X009256Y006422D01*
X009256Y006344D02*
X001192Y006344D01*
X001192Y006265D02*
X009256Y006265D01*
X009256Y006187D02*
X001192Y006187D01*
X001192Y006108D02*
X009256Y006108D01*
X009256Y006030D02*
X001192Y006030D01*
X001192Y005951D02*
X009256Y005951D01*
X009256Y005873D02*
X001192Y005873D01*
X001192Y005794D02*
X009256Y005794D01*
X009256Y005716D02*
X001192Y005716D01*
X001192Y005637D02*
X009256Y005637D01*
X009256Y005559D02*
X001192Y005559D01*
X001192Y005480D02*
X009256Y005480D01*
X009256Y005402D02*
X001192Y005402D01*
X001192Y005323D02*
X009256Y005323D01*
X009256Y005245D02*
X008288Y005245D01*
X008413Y005166D02*
X009256Y005166D01*
X009256Y005088D02*
X008492Y005088D01*
X008530Y005009D02*
X009256Y005009D01*
X009256Y004931D02*
X008563Y004931D01*
X008574Y004852D02*
X009256Y004852D01*
X009256Y004774D02*
X008574Y004774D01*
X008566Y004695D02*
X009256Y004695D01*
X008267Y004303D02*
X001192Y004303D01*
X001192Y004381D02*
X007889Y004381D01*
X007776Y004460D02*
X001192Y004460D01*
X001192Y004538D02*
X007697Y004538D01*
X007664Y004617D02*
X001192Y004617D01*
X001192Y004695D02*
X007631Y004695D01*
X007623Y004774D02*
X001192Y004774D01*
X001192Y004852D02*
X007623Y004852D01*
X007635Y004931D02*
X001192Y004931D01*
X001192Y005009D02*
X007667Y005009D01*
X007706Y005088D02*
X001192Y005088D01*
X001192Y005166D02*
X007784Y005166D01*
X007909Y005245D02*
X001192Y005245D01*
X001192Y004224D02*
X007860Y004224D01*
X007764Y004146D02*
X001192Y004146D01*
X001192Y004067D02*
X007691Y004067D01*
X007659Y003989D02*
X001192Y003989D01*
X001192Y003910D02*
X007626Y003910D01*
X007623Y003832D02*
X001192Y003832D01*
X001192Y003753D02*
X001778Y003753D01*
X001865Y003789D02*
X001560Y003663D01*
X001326Y003429D01*
X001200Y003124D01*
X001200Y002794D01*
X001326Y002488D01*
X001560Y002255D01*
X001865Y002128D01*
X002196Y002128D01*
X002501Y002255D01*
X002735Y002488D01*
X002861Y002794D01*
X002861Y003124D01*
X002735Y003429D01*
X002501Y003663D01*
X002196Y003789D01*
X001865Y003789D01*
X001589Y003675D02*
X001192Y003675D01*
X001192Y003596D02*
X001493Y003596D01*
X001415Y003518D02*
X001192Y003518D01*
X001192Y003439D02*
X001336Y003439D01*
X001298Y003361D02*
X001192Y003361D01*
X001192Y003282D02*
X001266Y003282D01*
X001233Y003204D02*
X001192Y003204D01*
X001192Y003125D02*
X001201Y003125D01*
X001192Y003047D02*
X001200Y003047D01*
X001192Y002968D02*
X001200Y002968D01*
X001192Y002890D02*
X001200Y002890D01*
X001192Y002811D02*
X001200Y002811D01*
X001192Y002733D02*
X001225Y002733D01*
X001192Y002654D02*
X001258Y002654D01*
X001290Y002576D02*
X001192Y002576D01*
X001192Y002497D02*
X001323Y002497D01*
X001396Y002419D02*
X001192Y002419D01*
X001192Y002340D02*
X001474Y002340D01*
X001553Y002262D02*
X001192Y002262D01*
X001192Y002183D02*
X001732Y002183D01*
X002329Y002183D02*
X009423Y002183D01*
X009364Y002237D02*
X009364Y002237D01*
X009352Y002262D02*
X002508Y002262D01*
X002587Y002340D02*
X009314Y002340D01*
X009277Y002419D02*
X002665Y002419D01*
X002738Y002497D02*
X009260Y002497D01*
X009263Y002448D02*
X009263Y002448D01*
X009256Y002576D02*
X002771Y002576D01*
X002803Y002654D02*
X009256Y002654D01*
X009256Y002733D02*
X002836Y002733D01*
X002861Y002811D02*
X009256Y002811D01*
X009256Y002890D02*
X002861Y002890D01*
X002861Y002968D02*
X009256Y002968D01*
X009256Y003047D02*
X002861Y003047D01*
X002861Y003125D02*
X009256Y003125D01*
X009256Y003204D02*
X002828Y003204D01*
X002796Y003282D02*
X009256Y003282D01*
X009256Y003361D02*
X008259Y003361D01*
X008401Y003439D02*
X009256Y003439D01*
X009256Y003518D02*
X008480Y003518D01*
X008525Y003596D02*
X009256Y003596D01*
X009256Y003675D02*
X008558Y003675D01*
X008574Y003753D02*
X009256Y003753D01*
X009256Y003832D02*
X008574Y003832D01*
X008571Y003910D02*
X009256Y003910D01*
X007938Y003361D02*
X002763Y003361D01*
X002725Y003439D02*
X007796Y003439D01*
X007718Y003518D02*
X002646Y003518D01*
X002568Y003596D02*
X007672Y003596D01*
X007640Y003675D02*
X002472Y003675D01*
X002283Y003753D02*
X007623Y003753D01*
X009510Y002105D02*
X001192Y002105D01*
X001192Y002026D02*
X009688Y002026D01*
X009538Y002080D02*
X009538Y002080D01*
X015321Y006177D02*
X015321Y006200D01*
X016557Y006200D01*
X017077Y005795D02*
X017141Y005859D01*
X017077Y005795D02*
X017077Y004177D01*
X017126Y004129D01*
X017151Y004129D01*
X017277Y004398D02*
X017546Y004129D01*
X017826Y004238D02*
X017918Y004238D01*
X018064Y004298D01*
X018176Y004410D01*
X018236Y004555D01*
X018236Y004882D01*
X018345Y004874D01*
X018352Y004867D01*
X018439Y004867D01*
X018526Y004861D01*
X018533Y004867D01*
X018712Y004867D01*
X018712Y004607D01*
X018688Y004583D01*
X018642Y004473D01*
X018642Y004353D01*
X018688Y004243D01*
X018772Y004159D01*
X018882Y004113D01*
X019002Y004113D01*
X019112Y004159D01*
X019196Y004243D01*
X019242Y004353D01*
X019242Y004473D01*
X019196Y004583D01*
X019172Y004607D01*
X019172Y004867D01*
X019876Y004867D01*
X019884Y004846D01*
X019969Y004762D01*
X020079Y004716D01*
X020198Y004716D01*
X020309Y004762D01*
X020393Y004846D01*
X020439Y004956D01*
X020439Y005076D01*
X020438Y005077D01*
X020898Y005077D01*
X020845Y004949D01*
X020845Y004555D01*
X020905Y004410D01*
X021016Y004298D01*
X021162Y004238D01*
X021320Y004238D01*
X021466Y004298D01*
X021567Y004400D01*
X021594Y004373D01*
X021649Y004350D01*
X021831Y004002D01*
X021719Y004098D01*
X021506Y004180D01*
X021485Y004180D01*
X021483Y004182D01*
X021390Y004182D01*
X021297Y004184D01*
X021295Y004182D01*
X021080Y004182D01*
X020941Y004186D01*
X020941Y004186D01*
X020674Y004084D01*
X020604Y004017D01*
X020604Y004123D01*
X020501Y004370D01*
X020312Y004559D01*
X020065Y004661D01*
X019798Y004661D01*
X019551Y004559D01*
X019362Y004370D01*
X019259Y004123D01*
X019259Y003855D01*
X019312Y003727D01*
X019268Y003727D01*
X019157Y003682D01*
X019073Y003597D01*
X019027Y003487D01*
X019027Y003368D01*
X019041Y003336D01*
X018511Y003312D01*
X018507Y003317D01*
X018507Y003553D01*
X018411Y003784D01*
X018411Y003784D01*
X018234Y003961D01*
X018003Y004057D01*
X017842Y004057D01*
X017846Y004069D01*
X017846Y004189D01*
X017826Y004238D01*
X017832Y004224D02*
X018706Y004224D01*
X018663Y004303D02*
X018069Y004303D01*
X018148Y004381D02*
X018642Y004381D01*
X018642Y004460D02*
X018197Y004460D01*
X018229Y004538D02*
X018669Y004538D01*
X018712Y004617D02*
X018236Y004617D01*
X018236Y004695D02*
X018712Y004695D01*
X018712Y004774D02*
X018236Y004774D01*
X018236Y004852D02*
X018712Y004852D01*
X019172Y004852D02*
X019882Y004852D01*
X019957Y004774D02*
X019172Y004774D01*
X019172Y004695D02*
X020845Y004695D01*
X020845Y004617D02*
X020172Y004617D01*
X020333Y004538D02*
X020852Y004538D01*
X020884Y004460D02*
X020411Y004460D01*
X020490Y004381D02*
X020933Y004381D01*
X021012Y004303D02*
X020529Y004303D01*
X020561Y004224D02*
X021715Y004224D01*
X021756Y004146D02*
X021595Y004146D01*
X021506Y004180D02*
X021506Y004180D01*
X021471Y004303D02*
X021674Y004303D01*
X021586Y004381D02*
X021549Y004381D01*
X021719Y004098D02*
X021719Y004098D01*
X021755Y004067D02*
X021797Y004067D01*
X022537Y004224D02*
X023669Y004224D01*
X023248Y004381D02*
X024701Y004381D01*
X025119Y004460D02*
X023286Y004460D01*
X023307Y004538D02*
X025538Y004538D01*
X025957Y004617D02*
X023307Y004617D01*
X023286Y004695D02*
X026375Y004695D01*
X026772Y004774D02*
X023248Y004774D01*
X023169Y004852D02*
X027108Y004852D01*
X029027Y005896D02*
X029027Y005896D01*
X028911Y006187D02*
X028831Y006187D01*
X028831Y006265D02*
X028911Y006265D01*
X028911Y006344D02*
X028831Y006344D01*
X028831Y006422D02*
X028911Y006422D01*
X028911Y006501D02*
X028831Y006501D01*
X028831Y006579D02*
X028911Y006579D01*
X028911Y006815D02*
X028831Y006815D01*
X028831Y006893D02*
X028911Y006893D01*
X028911Y006972D02*
X028831Y006972D01*
X028831Y007050D02*
X028911Y007050D01*
X028911Y007129D02*
X028831Y007129D01*
X028831Y007207D02*
X028911Y007207D01*
X029138Y007207D02*
X029691Y007207D01*
X029691Y007129D02*
X029251Y007129D01*
X029322Y007050D02*
X029691Y007050D01*
X029691Y006972D02*
X029372Y006972D01*
X029406Y006893D02*
X029691Y006893D01*
X029691Y006815D02*
X029427Y006815D01*
X029591Y006343D02*
X029591Y006343D01*
X028371Y006972D02*
X021976Y006972D01*
X022168Y006893D02*
X028337Y006893D01*
X028421Y007050D02*
X021784Y007050D01*
X021591Y007129D02*
X028492Y007129D01*
X028605Y007207D02*
X028364Y007207D01*
X028516Y007286D02*
X029691Y007286D01*
X029691Y007364D02*
X028595Y007364D01*
X028628Y007443D02*
X029691Y007443D01*
X029471Y007521D02*
X028652Y007521D01*
X028652Y007600D02*
X029402Y007600D01*
X029369Y007678D02*
X028641Y007678D01*
X028609Y007757D02*
X029361Y007757D01*
X029368Y007835D02*
X028577Y007835D01*
X028577Y007914D02*
X029400Y007914D01*
X029467Y007992D02*
X028577Y007992D01*
X028645Y008071D02*
X029891Y008071D01*
X029891Y007992D02*
X029876Y007992D01*
X029106Y008149D02*
X029102Y008149D01*
X028039Y007286D02*
X021369Y007286D01*
X021442Y007207D02*
X028191Y007207D01*
X024278Y004303D02*
X023170Y004303D01*
X023061Y004146D02*
X022637Y004146D01*
X020836Y004146D02*
X020594Y004146D01*
X020604Y004067D02*
X020657Y004067D01*
X020674Y004084D02*
X020674Y004084D01*
X019691Y004617D02*
X019172Y004617D01*
X019215Y004538D02*
X019530Y004538D01*
X019452Y004460D02*
X019242Y004460D01*
X019242Y004381D02*
X019373Y004381D01*
X019334Y004303D02*
X019221Y004303D01*
X019178Y004224D02*
X019302Y004224D01*
X019269Y004146D02*
X019081Y004146D01*
X019259Y004067D02*
X017846Y004067D01*
X017846Y004146D02*
X018803Y004146D01*
X019259Y003989D02*
X018168Y003989D01*
X018234Y003961D02*
X018234Y003961D01*
X018285Y003910D02*
X019259Y003910D01*
X019269Y003832D02*
X018364Y003832D01*
X018424Y003753D02*
X019302Y003753D01*
X019151Y003675D02*
X018457Y003675D01*
X018489Y003596D02*
X019073Y003596D01*
X019040Y003518D02*
X018507Y003518D01*
X018507Y003439D02*
X019027Y003439D01*
X019030Y003361D02*
X018507Y003361D01*
X018511Y003312D02*
X018511Y003312D01*
X017568Y002026D02*
X032158Y002026D01*
X032158Y001948D02*
X001192Y001948D01*
X001192Y001869D02*
X032158Y001869D01*
X032158Y001791D02*
X001192Y001791D01*
X001192Y001712D02*
X030656Y001712D01*
X030577Y001634D02*
X001192Y001634D01*
X001192Y001555D02*
X030517Y001555D01*
X030484Y001477D02*
X001192Y001477D01*
X001195Y001398D02*
X030458Y001398D01*
X030458Y001320D02*
X001222Y001320D01*
X001287Y001241D02*
X030458Y001241D01*
X031194Y001712D02*
X032158Y001712D01*
X032158Y001634D02*
X031273Y001634D01*
X031333Y001555D02*
X032158Y001555D01*
X032158Y001477D02*
X031366Y001477D01*
X031392Y001398D02*
X032155Y001398D01*
X032126Y001320D02*
X031392Y001320D01*
X031392Y001241D02*
X032060Y001241D01*
X022197Y005951D02*
X021878Y005951D01*
X020869Y005009D02*
X020439Y005009D01*
X020428Y004931D02*
X020845Y004931D01*
X020845Y004852D02*
X020396Y004852D01*
X020321Y004774D02*
X020845Y004774D01*
X017341Y005609D02*
X017277Y005545D01*
X017277Y004398D01*
X017104Y008463D02*
X016235Y008463D01*
X016223Y008542D02*
X017104Y008542D01*
X017127Y008620D02*
X016221Y008620D01*
X016221Y008699D02*
X017171Y008699D01*
X017264Y008777D02*
X016221Y008777D01*
X016221Y008856D02*
X021171Y008856D01*
X021124Y008934D02*
X017580Y008934D01*
X017701Y009013D02*
X021107Y009013D01*
X021107Y009091D02*
X017757Y009091D01*
X017787Y009170D02*
X021107Y009170D01*
X021107Y009248D02*
X017787Y009248D01*
X017772Y009327D02*
X021107Y009327D01*
X021107Y009405D02*
X017738Y009405D01*
X017717Y009484D02*
X021107Y009484D01*
X021107Y009562D02*
X017717Y009562D01*
X017717Y009641D02*
X021107Y009641D01*
X021107Y009719D02*
X017717Y009719D01*
X017717Y009798D02*
X021107Y009798D01*
X021107Y009876D02*
X017717Y009876D01*
X017717Y009955D02*
X021107Y009955D01*
X021107Y010033D02*
X017717Y010033D01*
X017717Y010112D02*
X021107Y010112D01*
X021107Y010190D02*
X017717Y010190D01*
X017808Y010269D02*
X021107Y010269D01*
X021107Y010347D02*
X017883Y010347D01*
X017916Y010426D02*
X021107Y010426D01*
X021107Y010504D02*
X017917Y010504D01*
X017907Y010583D02*
X021095Y010583D01*
X021058Y010661D02*
X017907Y010661D01*
X017907Y010740D02*
X021037Y010740D01*
X021037Y010818D02*
X017907Y010818D01*
X017907Y010897D02*
X021060Y010897D01*
X021044Y010975D02*
X017907Y010975D01*
X018679Y011054D02*
X019116Y011054D01*
X018956Y011120D02*
X018956Y011120D01*
X018944Y011132D02*
X018820Y011132D01*
X018724Y011062D02*
X018724Y011062D01*
X017237Y010112D02*
X010643Y010112D01*
X010674Y010033D02*
X017237Y010033D01*
X017237Y009955D02*
X010706Y009955D01*
X010611Y010190D02*
X014572Y010190D01*
X014446Y010269D02*
X010580Y010269D01*
X010562Y010315D02*
X010562Y010315D01*
X010541Y010347D02*
X013912Y010347D01*
X013789Y010390D02*
X013789Y010390D01*
X015637Y009896D02*
X015637Y009896D01*
X015678Y009876D02*
X017237Y009876D01*
X017237Y009798D02*
X015847Y009798D01*
X015891Y009777D02*
X015891Y009777D01*
X015949Y009719D02*
X017237Y009719D01*
X017237Y009641D02*
X016028Y009641D01*
X016090Y009579D02*
X016090Y009579D01*
X016097Y009562D02*
X017237Y009562D01*
X017237Y009484D02*
X016134Y009484D01*
X016170Y009405D02*
X017217Y009405D01*
X017183Y009327D02*
X016207Y009327D01*
X016208Y009325D02*
X016208Y009325D01*
X016215Y009248D02*
X017167Y009248D01*
X017167Y009170D02*
X016222Y009170D01*
X016221Y009091D02*
X017198Y009091D01*
X017253Y009013D02*
X016221Y009013D01*
X016221Y008934D02*
X017375Y008934D01*
X016397Y011917D02*
X011185Y011917D01*
X011129Y011996D02*
X016397Y011996D01*
X016397Y012074D02*
X011072Y012074D01*
X011002Y012153D02*
X016397Y012153D01*
X016397Y012231D02*
X010926Y012231D01*
X010849Y012310D02*
X016397Y012310D01*
X016397Y012388D02*
X010772Y012388D01*
X010695Y012467D02*
X016397Y012467D01*
X016397Y012545D02*
X010618Y012545D01*
X010541Y012624D02*
X016394Y012624D01*
X016401Y012702D02*
X010436Y012702D01*
X010331Y012781D02*
X016407Y012781D01*
X016408Y012794D02*
X016408Y012794D01*
X016453Y012859D02*
X010226Y012859D01*
X010121Y012938D02*
X016508Y012938D01*
X016560Y013013D02*
X016560Y013013D01*
X016560Y013013D01*
X016566Y013016D02*
X010016Y013016D01*
X009892Y013095D02*
X016732Y013095D01*
X016800Y013128D02*
X016800Y013128D01*
X018593Y013173D02*
X009744Y013173D01*
X009596Y013252D02*
X018626Y013252D01*
X018669Y013330D02*
X009449Y013330D01*
X009310Y013404D02*
X009310Y013404D01*
X009296Y013409D02*
X018747Y013409D01*
X018826Y013487D02*
X009070Y013487D01*
X008845Y013566D02*
X018992Y013566D01*
X018842Y013504D02*
X018842Y013504D01*
X026180Y012702D02*
X026190Y012702D01*
X026259Y012624D02*
X026261Y012624D01*
X026337Y012545D02*
X026355Y012545D01*
X026416Y012467D02*
X028847Y012467D01*
X028842Y012545D02*
X028847Y012545D01*
X028847Y012388D02*
X028804Y012388D01*
X028394Y012388D02*
X027804Y012388D01*
X027920Y012310D02*
X028278Y012310D01*
X028199Y012231D02*
X027998Y012231D01*
X028033Y012153D02*
X028165Y012153D01*
X028132Y012074D02*
X028065Y012074D01*
X028074Y011996D02*
X028123Y011996D01*
X028123Y011917D02*
X028074Y011917D01*
X028063Y011839D02*
X028134Y011839D01*
X028166Y011760D02*
X028031Y011760D01*
X027404Y011525D02*
X026793Y011525D01*
X026915Y011603D02*
X027282Y011603D01*
X027203Y011682D02*
X026994Y011682D01*
X027031Y011760D02*
X027166Y011760D01*
X027134Y011839D02*
X027063Y011839D01*
X027074Y011917D02*
X027123Y011917D01*
X027123Y011996D02*
X027074Y011996D01*
X027065Y012074D02*
X027132Y012074D01*
X027165Y012153D02*
X027033Y012153D01*
X026998Y012231D02*
X027199Y012231D01*
X027278Y012310D02*
X026920Y012310D01*
X026804Y012388D02*
X027394Y012388D01*
X027432Y012556D02*
X027497Y012534D01*
X027559Y012525D01*
X027559Y012919D01*
X027639Y012919D01*
X027639Y012999D01*
X028033Y012999D01*
X028023Y013061D01*
X028002Y013126D01*
X027971Y013187D01*
X027931Y013242D01*
X027882Y013291D01*
X027827Y013331D01*
X027766Y013362D01*
X027701Y013383D01*
X027639Y013393D01*
X027639Y012999D01*
X027559Y012999D01*
X027559Y013393D01*
X027497Y013383D01*
X027432Y013362D01*
X027371Y013331D01*
X027315Y013291D01*
X027267Y013242D01*
X027226Y013187D01*
X027195Y013126D01*
X027174Y013061D01*
X027164Y012999D01*
X027559Y012999D01*
X027559Y012919D01*
X027164Y012919D01*
X027174Y012857D01*
X027195Y012792D01*
X027226Y012731D01*
X027267Y012675D01*
X027315Y012627D01*
X027371Y012587D01*
X027432Y012556D01*
X027463Y012545D02*
X026842Y012545D01*
X026936Y012624D02*
X027319Y012624D01*
X027247Y012702D02*
X027007Y012702D01*
X027039Y012781D02*
X027201Y012781D01*
X027174Y012859D02*
X027072Y012859D01*
X027074Y012938D02*
X027559Y012938D01*
X027559Y013016D02*
X027639Y013016D01*
X027639Y012938D02*
X028123Y012938D01*
X028123Y013016D02*
X028030Y013016D01*
X028012Y013095D02*
X028141Y013095D01*
X028173Y013173D02*
X027978Y013173D01*
X027921Y013252D02*
X028220Y013252D01*
X028298Y013330D02*
X027828Y013330D01*
X027639Y013330D02*
X027559Y013330D01*
X027559Y013252D02*
X027639Y013252D01*
X027639Y013173D02*
X027559Y013173D01*
X027559Y013095D02*
X027639Y013095D01*
X027639Y012919D02*
X028033Y012919D01*
X028023Y012857D01*
X028002Y012792D01*
X027971Y012731D01*
X027931Y012675D01*
X027882Y012627D01*
X027827Y012587D01*
X027766Y012556D01*
X027701Y012534D01*
X027639Y012525D01*
X027639Y012919D01*
X027639Y012859D02*
X027559Y012859D01*
X027559Y012781D02*
X027639Y012781D01*
X027639Y012702D02*
X027559Y012702D01*
X027559Y012624D02*
X027639Y012624D01*
X027639Y012545D02*
X027559Y012545D01*
X027735Y012545D02*
X028355Y012545D01*
X028261Y012624D02*
X027878Y012624D01*
X027950Y012702D02*
X028190Y012702D01*
X028158Y012781D02*
X027997Y012781D01*
X028024Y012859D02*
X028125Y012859D01*
X028978Y013252D02*
X031054Y013252D01*
X030864Y013173D02*
X029024Y013173D01*
X029086Y013111D02*
X029086Y013111D01*
X029102Y013095D02*
X030771Y013095D01*
X030692Y013016D02*
X029180Y013016D01*
X029242Y012938D02*
X030614Y012938D01*
X030576Y012859D02*
X029274Y012859D01*
X029307Y012781D02*
X030544Y012781D01*
X030479Y012545D02*
X029307Y012545D01*
X029307Y012467D02*
X030479Y012467D01*
X030479Y012388D02*
X029307Y012388D01*
X029307Y012310D02*
X030479Y012310D01*
X030505Y012231D02*
X029307Y012231D01*
X029307Y012153D02*
X030537Y012153D01*
X030570Y012074D02*
X029307Y012074D01*
X029307Y011996D02*
X030602Y011996D01*
X030676Y011917D02*
X029307Y011917D01*
X029307Y011839D02*
X030755Y011839D01*
X030833Y011760D02*
X029307Y011760D01*
X029307Y011682D02*
X031015Y011682D01*
X029307Y012779D02*
X029307Y012779D01*
X028443Y013409D02*
X026754Y013409D01*
X026899Y013330D02*
X027370Y013330D01*
X027276Y013252D02*
X026978Y013252D01*
X027024Y013173D02*
X027219Y013173D01*
X027185Y013095D02*
X027057Y013095D01*
X027074Y013016D02*
X027167Y013016D01*
X032158Y018119D02*
X001192Y018119D01*
X001200Y018197D02*
X032150Y018197D01*
X032115Y018276D02*
X001233Y018276D01*
X001332Y018354D02*
X032014Y018354D01*
X010576Y010426D02*
X010493Y010426D01*
X010496Y010504D02*
X010444Y010504D01*
X010454Y010583D02*
X010395Y010583D01*
X010406Y010661D02*
X010347Y010661D01*
X010358Y010740D02*
X010298Y010740D01*
X010310Y010818D02*
X010250Y010818D01*
X010251Y010897D02*
X010201Y010897D01*
X010188Y010975D02*
X010144Y010975D01*
X010124Y011054D02*
X010074Y011054D01*
X010061Y011132D02*
X010004Y011132D01*
X009997Y011211D02*
X009934Y011211D01*
X009934Y011289D02*
X009863Y011289D01*
X009870Y011368D02*
X009793Y011368D01*
X009798Y011446D02*
X009723Y011446D01*
X009675Y011500D02*
X009675Y011500D01*
X009675Y011500D01*
X009644Y011525D02*
X009708Y011525D01*
X009618Y011603D02*
X009544Y011603D01*
X009528Y011682D02*
X009444Y011682D01*
X009438Y011760D02*
X009344Y011760D01*
X009347Y011839D02*
X009245Y011839D01*
X009254Y011917D02*
X009145Y011917D01*
X009123Y011996D02*
X009023Y011996D01*
X008993Y012074D02*
X008877Y012074D01*
X008862Y012153D02*
X008731Y012153D01*
X008732Y012231D02*
X008584Y012231D01*
X008587Y012310D02*
X008438Y012310D01*
X008437Y012310D02*
X008437Y012310D01*
X008383Y012388D02*
X008199Y012388D01*
X008179Y012467D02*
X007961Y012467D01*
X007975Y012545D02*
X007709Y012545D01*
X007732Y012542D02*
X007732Y012542D01*
X007674Y012624D02*
X005861Y012624D01*
X005861Y012702D02*
X006528Y012702D01*
X006480Y012722D02*
X006480Y012722D01*
X006421Y012781D02*
X005861Y012781D01*
X005861Y012859D02*
X006343Y012859D01*
X006306Y012938D02*
X005861Y012938D01*
X005861Y013016D02*
X006273Y013016D01*
X006256Y013095D02*
X005861Y013095D01*
X005861Y013173D02*
X006256Y013173D01*
X006256Y013252D02*
X005861Y013252D01*
X005861Y013330D02*
X006256Y013330D01*
X006256Y013409D02*
X005861Y013409D01*
X005861Y013487D02*
X006256Y013487D01*
X006256Y013566D02*
X005861Y013566D01*
X005861Y013644D02*
X006256Y013644D01*
X006256Y013723D02*
X005861Y013723D01*
X005861Y013801D02*
X006256Y013801D01*
X006256Y013880D02*
X005861Y013880D01*
X005861Y013958D02*
X006256Y013958D01*
X006256Y014037D02*
X005861Y014037D01*
X005861Y014115D02*
X006256Y014115D01*
X006256Y014194D02*
X005861Y014194D01*
X005861Y014272D02*
X006261Y014272D01*
X006294Y014351D02*
X005861Y014351D01*
X005861Y014429D02*
X006326Y014429D01*
X006392Y014508D02*
X005861Y014508D01*
X005861Y014586D02*
X006471Y014586D01*
X006647Y014665D02*
X005861Y014665D01*
X005861Y014743D02*
X007356Y014743D01*
X007356Y014822D02*
X005861Y014822D01*
X005861Y014900D02*
X007356Y014900D01*
X007356Y014979D02*
X005861Y014979D01*
X005861Y015057D02*
X007356Y015057D01*
X007356Y015136D02*
X005861Y015136D01*
X005861Y015214D02*
X007356Y015214D01*
X007356Y015293D02*
X005861Y015293D01*
X005861Y015371D02*
X007356Y015371D01*
X007356Y015450D02*
X005861Y015450D01*
X005861Y015528D02*
X007356Y015528D01*
X007356Y015607D02*
X005861Y015607D01*
X005861Y015685D02*
X007356Y015685D01*
X007356Y015764D02*
X005861Y015764D01*
X005861Y015842D02*
X007356Y015842D01*
X007356Y015921D02*
X005861Y015921D01*
X005889Y015999D02*
X007356Y015999D01*
X007356Y016078D02*
X005921Y016078D01*
X005936Y016156D02*
X007356Y016156D01*
X007356Y016235D02*
X005936Y016235D01*
X005915Y016313D02*
X007356Y016313D01*
X006757Y016392D02*
X006285Y016392D01*
X006356Y016470D02*
X006685Y016470D01*
X006653Y016549D02*
X006389Y016549D01*
X006392Y016627D02*
X006650Y016627D01*
X006650Y016706D02*
X006392Y016706D01*
X006392Y016784D02*
X006650Y016784D01*
X006650Y016863D02*
X006392Y016863D01*
X006392Y016941D02*
X006650Y016941D01*
X006650Y017020D02*
X006392Y017020D01*
X006392Y017098D02*
X006650Y017098D01*
X006650Y017177D02*
X006392Y017177D01*
X006392Y017255D02*
X006650Y017255D01*
X006650Y017334D02*
X006392Y017334D01*
X006392Y017412D02*
X006650Y017412D01*
X006650Y017491D02*
X006392Y017491D01*
X006392Y017569D02*
X006650Y017569D01*
X006650Y017648D02*
X006392Y017648D01*
X006392Y017726D02*
X006650Y017726D01*
X006672Y017805D02*
X006370Y017805D01*
X006318Y017883D02*
X006724Y017883D01*
X006856Y017962D02*
X006186Y017962D01*
X008097Y017966D02*
X008097Y017966D01*
X001480Y018379D02*
X001480Y018379D01*
X001427Y018379D02*
X001427Y018379D01*
D20*
X006051Y014129D03*
X006051Y013779D03*
X006051Y013429D03*
X006051Y013079D03*
X006051Y012729D03*
X010951Y010359D03*
X011251Y010359D03*
X011551Y010359D03*
X011851Y010359D03*
X012151Y010359D03*
X012451Y010359D03*
X012751Y010359D03*
X013051Y010359D03*
X013351Y010359D03*
X013977Y010677D03*
X014627Y010677D03*
X016312Y009240D03*
X016562Y009240D03*
X015377Y009022D03*
X015377Y008322D03*
X016954Y006909D03*
X017450Y005917D03*
X019346Y006311D03*
X019746Y006311D03*
X019746Y006711D03*
X019346Y006711D03*
X021183Y007047D03*
X021902Y006315D03*
X021902Y006065D03*
X022733Y006317D03*
X023242Y007040D03*
X022992Y007190D03*
X022992Y007490D03*
X022992Y007790D03*
X021242Y008090D03*
X020942Y008090D03*
X020642Y008090D03*
X020342Y008090D03*
X022542Y010390D03*
X022542Y010690D03*
X022542Y010990D03*
X024192Y010437D03*
X024871Y008190D03*
X024871Y007890D03*
X024871Y007590D03*
X027192Y007540D03*
X027192Y007240D03*
X027192Y006940D03*
X027192Y007840D03*
X027242Y005940D03*
X026942Y005940D03*
X025392Y004640D03*
X025092Y004590D03*
X024792Y004540D03*
X021939Y003672D03*
X021727Y003177D03*
X020872Y004290D03*
X020622Y004290D03*
X020139Y005016D03*
X018942Y004413D03*
X019076Y003929D03*
X018776Y003929D03*
X018476Y003929D03*
X018626Y003629D03*
X018926Y003629D03*
X019327Y003427D03*
X017546Y004129D03*
X017151Y004129D03*
X017179Y003112D03*
X014971Y005359D03*
X013546Y005909D03*
X013721Y006409D03*
X014196Y006584D03*
X010972Y005647D03*
X010927Y003977D03*
X021764Y004627D03*
X029377Y005127D03*
X029527Y005702D03*
X030096Y005809D03*
D21*
X013727Y010387D02*
X010607Y010387D01*
D22*
X014352Y010702D02*
X014377Y010677D01*
X014627Y010677D01*
X017677Y010477D02*
X017677Y011027D01*
X017679Y011057D01*
X017684Y011087D01*
X017693Y011116D01*
X017706Y011143D01*
X017721Y011169D01*
X017740Y011193D01*
X017761Y011214D01*
X017785Y011233D01*
X017811Y011248D01*
X017838Y011261D01*
X017867Y011270D01*
X017897Y011275D01*
X017927Y011277D01*
X018577Y011277D01*
X018604Y011282D01*
X018630Y011290D01*
X018655Y011301D01*
X018678Y011315D01*
X018700Y011331D01*
X018720Y011350D01*
X018737Y011372D01*
X018751Y011395D01*
X018762Y011420D01*
X018771Y011446D01*
X018776Y011472D01*
X018778Y011500D01*
X018777Y011527D01*
X018777Y012927D01*
X018977Y012877D02*
X018977Y011527D01*
X018979Y011497D01*
X018984Y011467D01*
X018993Y011438D01*
X019006Y011411D01*
X019021Y011385D01*
X019040Y011361D01*
X019061Y011340D01*
X019085Y011321D01*
X019111Y011306D01*
X019138Y011293D01*
X019167Y011284D01*
X019197Y011279D01*
X019227Y011277D01*
X020867Y011277D01*
X020911Y011275D01*
X020954Y011269D01*
X020996Y011260D01*
X021038Y011247D01*
X021078Y011230D01*
X021117Y011210D01*
X021154Y011187D01*
X021188Y011160D01*
X021221Y011131D01*
X021250Y011098D01*
X021277Y011064D01*
X021300Y011027D01*
X021320Y010988D01*
X021337Y010948D01*
X021350Y010906D01*
X021359Y010864D01*
X021365Y010821D01*
X021367Y010777D01*
X018977Y012877D02*
X018979Y012911D01*
X018985Y012944D01*
X018994Y012976D01*
X019007Y013007D01*
X019023Y013037D01*
X019042Y013064D01*
X019065Y013089D01*
X019090Y013112D01*
X019117Y013131D01*
X019147Y013147D01*
X019178Y013160D01*
X019210Y013169D01*
X019243Y013175D01*
X019277Y013177D01*
X025380Y013177D01*
X026599Y011959D01*
X026521Y011959D01*
X026521Y011983D01*
X027599Y011959D02*
X027821Y011959D01*
X027599Y011959D02*
X027601Y011917D01*
X027606Y011875D01*
X027615Y011835D01*
X027628Y011794D01*
X027644Y011756D01*
X027663Y011719D01*
X027686Y011683D01*
X027712Y011650D01*
X027740Y011619D01*
X027771Y011591D01*
X027804Y011565D01*
X027839Y011542D01*
X027877Y011523D01*
X027915Y011507D01*
X027956Y011494D01*
X027996Y011485D01*
X028038Y011480D01*
X028080Y011478D01*
X028080Y011477D02*
X028377Y011477D01*
X028411Y011475D01*
X028444Y011469D01*
X028476Y011460D01*
X028507Y011447D01*
X028537Y011431D01*
X028564Y011412D01*
X028589Y011389D01*
X028612Y011364D01*
X028631Y011337D01*
X028647Y011307D01*
X028660Y011276D01*
X028669Y011244D01*
X028675Y011211D01*
X028677Y011177D01*
X028677Y010906D01*
X028877Y010906D02*
X028877Y011680D01*
X028878Y011680D02*
X028876Y011711D01*
X028871Y011742D01*
X028862Y011772D01*
X028850Y011801D01*
X028835Y011828D01*
X028817Y011854D01*
X028796Y011877D01*
X028773Y011898D01*
X028747Y011916D01*
X028720Y011931D01*
X028691Y011943D01*
X028661Y011952D01*
X028630Y011957D01*
X028599Y011959D01*
X029077Y012677D02*
X029075Y012708D01*
X029070Y012740D01*
X029061Y012770D01*
X029049Y012799D01*
X029034Y012827D01*
X029016Y012852D01*
X028995Y012876D01*
X028971Y012897D01*
X028946Y012915D01*
X028918Y012930D01*
X028889Y012942D01*
X028859Y012951D01*
X028827Y012956D01*
X028796Y012958D01*
X028796Y012959D02*
X028599Y012959D01*
X029077Y012677D02*
X029077Y010906D01*
X028677Y010906D02*
X028679Y010856D01*
X028684Y010806D01*
X028693Y010757D01*
X028705Y010709D01*
X028721Y010661D01*
X028740Y010615D01*
X028763Y010571D01*
X028788Y010528D01*
X028817Y010487D01*
X028848Y010448D01*
X028882Y010411D01*
X028919Y010377D01*
X028958Y010346D01*
X028999Y010317D01*
X029042Y010292D01*
X029086Y010269D01*
X029132Y010250D01*
X029180Y010234D01*
X029228Y010222D01*
X029277Y010213D01*
X029327Y010208D01*
X029377Y010206D01*
X031143Y010206D01*
X031143Y010406D02*
X029377Y010406D01*
X029377Y010606D02*
X031127Y010606D01*
X031143Y010205D02*
X031170Y010203D01*
X031198Y010198D01*
X031224Y010190D01*
X031249Y010179D01*
X031273Y010165D01*
X031294Y010148D01*
X031314Y010128D01*
X031331Y010107D01*
X031345Y010083D01*
X031356Y010058D01*
X031364Y010032D01*
X031369Y010004D01*
X031371Y009977D01*
X031371Y006730D01*
X031777Y006730D02*
X031778Y006682D01*
X031774Y006634D01*
X031766Y006586D01*
X031755Y006540D01*
X031739Y006494D01*
X031721Y006450D01*
X031698Y006407D01*
X031673Y006367D01*
X031644Y006328D01*
X031612Y006292D01*
X031577Y006259D01*
X031540Y006229D01*
X031501Y006201D01*
X031459Y006177D01*
X031416Y006157D01*
X031371Y006140D01*
X031325Y006126D01*
X031278Y006117D01*
X031230Y006111D01*
X031182Y006109D01*
X031182Y006110D02*
X029710Y006110D01*
X030096Y005809D02*
X030121Y005784D01*
X030121Y005509D01*
X029709Y006110D02*
X029668Y006109D01*
X029626Y006105D01*
X029585Y006097D01*
X029545Y006086D01*
X029506Y006071D01*
X029468Y006052D01*
X029432Y006031D01*
X029398Y006006D01*
X029367Y005979D01*
X029338Y005949D01*
X029311Y005917D01*
X029288Y005882D01*
X029268Y005845D01*
X029251Y005807D01*
X029237Y005768D01*
X029227Y005727D01*
X030122Y005509D02*
X030119Y005446D01*
X030113Y005384D01*
X030104Y005322D01*
X030090Y005261D01*
X030074Y005201D01*
X030053Y005141D01*
X030029Y005083D01*
X030002Y005027D01*
X029972Y004972D01*
X029939Y004919D01*
X029902Y004868D01*
X029863Y004820D01*
X029821Y004773D01*
X029776Y004730D01*
X029729Y004689D01*
X029679Y004650D01*
X029628Y004615D01*
X029574Y004583D01*
X029519Y004553D01*
X029462Y004528D01*
X029403Y004505D01*
X029344Y004486D01*
X029283Y004470D01*
X029222Y004458D01*
X028877Y005027D02*
X028227Y004877D01*
X026727Y004527D01*
X024327Y004077D01*
X022777Y003877D01*
X022427Y003628D02*
X022398Y003631D01*
X022369Y003638D01*
X022342Y003648D01*
X022315Y003661D01*
X022290Y003677D01*
X022267Y003695D01*
X022246Y003716D01*
X022227Y003739D01*
X021764Y004627D01*
X022227Y004627D02*
X022227Y004427D01*
X022227Y004627D02*
X022245Y004634D01*
X022264Y004638D01*
X022284Y004639D01*
X022303Y004636D01*
X022322Y004630D01*
X022339Y004620D01*
X022354Y004608D01*
X022367Y004594D01*
X022377Y004577D01*
X022227Y004427D02*
X022229Y004382D01*
X022235Y004336D01*
X022244Y004292D01*
X022257Y004248D01*
X022273Y004206D01*
X022293Y004165D01*
X022317Y004126D01*
X022343Y004089D01*
X022372Y004054D01*
X022404Y004022D01*
X022439Y003993D01*
X022476Y003967D01*
X022515Y003943D01*
X022556Y003923D01*
X022598Y003907D01*
X022642Y003894D01*
X022686Y003885D01*
X022732Y003879D01*
X022777Y003877D01*
X022427Y003627D02*
X023807Y003797D01*
X022191Y003378D02*
X022143Y003371D01*
X022095Y003367D01*
X022047Y003366D01*
X021998Y003369D01*
X021951Y003375D01*
X021903Y003385D01*
X021857Y003398D01*
X021811Y003414D01*
X021767Y003434D01*
X021724Y003457D01*
X021683Y003482D01*
X021644Y003511D01*
X021607Y003542D01*
X021748Y003738D02*
X021726Y003771D01*
X021702Y003803D01*
X021675Y003832D01*
X021645Y003859D01*
X021613Y003882D01*
X021579Y003903D01*
X021543Y003920D01*
X021505Y003934D01*
X021467Y003944D01*
X021427Y003950D01*
X021387Y003953D01*
X021387Y003952D02*
X021077Y003952D01*
X021227Y003752D02*
X021277Y003752D01*
X021078Y003953D02*
X021035Y003952D01*
X020993Y003948D01*
X020951Y003939D01*
X020910Y003928D01*
X020870Y003912D01*
X020832Y003894D01*
X020795Y003872D01*
X020761Y003847D01*
X020729Y003819D01*
X020699Y003788D01*
X020673Y003755D01*
X020649Y003720D01*
X020628Y003683D01*
X020611Y003644D01*
X020597Y003603D01*
X020587Y003562D01*
X020580Y003520D01*
X020577Y003478D01*
X020577Y003477D02*
X020575Y003454D01*
X020570Y003431D01*
X020561Y003409D01*
X020548Y003389D01*
X020533Y003371D01*
X020515Y003356D01*
X020495Y003343D01*
X020473Y003334D01*
X020450Y003329D01*
X020427Y003327D01*
X019427Y003307D01*
X019327Y003427D01*
X018428Y003077D02*
X018406Y003078D01*
X018384Y003082D01*
X018364Y003089D01*
X018345Y003099D01*
X018327Y003112D01*
X018312Y003127D01*
X018299Y003145D01*
X018289Y003164D01*
X018282Y003184D01*
X018278Y003206D01*
X018277Y003228D01*
X018277Y003227D02*
X018277Y003427D01*
X018275Y003466D01*
X018269Y003505D01*
X018260Y003543D01*
X018247Y003580D01*
X018230Y003616D01*
X018210Y003649D01*
X018186Y003681D01*
X018160Y003710D01*
X018131Y003736D01*
X018099Y003760D01*
X018066Y003780D01*
X018030Y003797D01*
X017993Y003810D01*
X017955Y003819D01*
X017916Y003825D01*
X017877Y003827D01*
X017453Y003827D01*
X017453Y003828D02*
X017419Y003830D01*
X017386Y003836D01*
X017354Y003845D01*
X017322Y003858D01*
X017293Y003874D01*
X017265Y003894D01*
X017240Y003916D01*
X017218Y003941D01*
X017198Y003969D01*
X017182Y003998D01*
X017169Y004030D01*
X017160Y004062D01*
X017154Y004095D01*
X017152Y004129D01*
X016871Y003370D02*
X016876Y003338D01*
X016884Y003308D01*
X016895Y003278D01*
X016910Y003250D01*
X016928Y003223D01*
X016948Y003199D01*
X016972Y003177D01*
X016997Y003158D01*
X017025Y003142D01*
X017054Y003129D01*
X017084Y003120D01*
X017115Y003114D01*
X017147Y003111D01*
X017179Y003112D01*
X016871Y003370D02*
X016871Y006799D01*
X016954Y006909D01*
X017450Y005917D02*
X017537Y005917D01*
X017567Y005877D01*
X017568Y005878D02*
X017581Y005819D01*
X017598Y005761D01*
X017618Y005704D01*
X017642Y005649D01*
X017670Y005596D01*
X017700Y005544D01*
X017734Y005494D01*
X017771Y005446D01*
X017811Y005401D01*
X017853Y005358D01*
X017898Y005318D01*
X017946Y005281D01*
X017995Y005247D01*
X018047Y005217D01*
X018100Y005189D01*
X018156Y005165D01*
X018212Y005144D01*
X018270Y005127D01*
X018328Y005113D01*
X018388Y005104D01*
X018448Y005097D01*
X018447Y005097D02*
X018927Y005097D01*
X018942Y005093D01*
X018942Y004413D01*
X018927Y005097D02*
X020047Y005097D01*
X020064Y005096D01*
X020080Y005092D01*
X020096Y005085D01*
X020109Y005075D01*
X020121Y005063D01*
X020129Y005048D01*
X020135Y005033D01*
X020138Y005016D01*
X021747Y003737D02*
X021812Y003672D01*
X021939Y003672D01*
X022021Y003159D02*
X021746Y003159D01*
X021727Y003177D01*
X021607Y003542D02*
X021588Y003574D01*
X021566Y003604D01*
X021541Y003632D01*
X021514Y003657D01*
X021485Y003680D01*
X021453Y003700D01*
X021421Y003717D01*
X021386Y003730D01*
X021351Y003741D01*
X021314Y003748D01*
X021277Y003752D01*
X020777Y003327D02*
X020775Y003301D01*
X020770Y003275D01*
X020762Y003250D01*
X020750Y003227D01*
X020736Y003205D01*
X020718Y003186D01*
X020699Y003168D01*
X020677Y003154D01*
X020654Y003142D01*
X020629Y003134D01*
X020603Y003129D01*
X020577Y003127D01*
X020777Y003327D02*
X020782Y003367D01*
X020790Y003406D01*
X020801Y003444D01*
X020816Y003481D01*
X020834Y003517D01*
X020855Y003551D01*
X020879Y003583D01*
X020905Y003613D01*
X020934Y003640D01*
X020966Y003665D01*
X020999Y003687D01*
X021034Y003706D01*
X021071Y003722D01*
X021109Y003735D01*
X021148Y003744D01*
X021187Y003750D01*
X021227Y003752D01*
X022732Y006317D02*
X022718Y006347D01*
X022701Y006374D01*
X022681Y006400D01*
X022658Y006424D01*
X022633Y006444D01*
X022606Y006462D01*
X022577Y006477D01*
X021183Y007047D01*
X015321Y006359D02*
X015321Y006177D01*
X015321Y005709D01*
X015319Y005672D01*
X015313Y005636D01*
X015304Y005601D01*
X015291Y005567D01*
X015274Y005534D01*
X015254Y005503D01*
X015231Y005475D01*
X015205Y005449D01*
X015177Y005426D01*
X015146Y005406D01*
X015113Y005389D01*
X015079Y005376D01*
X015044Y005367D01*
X015008Y005361D01*
X014971Y005359D01*
X014862Y005940D02*
X014640Y005940D01*
X013921Y006409D01*
X013721Y006409D01*
X014196Y006584D02*
X014221Y006559D01*
X015121Y006559D01*
X015147Y006557D01*
X015173Y006552D01*
X015198Y006544D01*
X015221Y006532D01*
X015243Y006518D01*
X015262Y006500D01*
X015280Y006481D01*
X015294Y006459D01*
X015306Y006436D01*
X015314Y006411D01*
X015319Y006385D01*
X015321Y006359D01*
X013862Y005940D02*
X013553Y005940D01*
X013546Y005909D01*
X010972Y005647D02*
X010877Y005552D01*
X010877Y004627D01*
X010708Y004458D01*
X008449Y004458D01*
X008099Y004809D01*
X008448Y004158D02*
X008099Y003809D01*
X008448Y004158D02*
X010747Y004158D01*
X010927Y003977D01*
X018427Y003077D02*
X020577Y003127D01*
X028877Y005027D02*
X028923Y005069D01*
X028965Y005113D01*
X029005Y005160D01*
X029042Y005210D01*
X029076Y005261D01*
X029107Y005315D01*
X029135Y005370D01*
X029159Y005427D01*
X029180Y005485D01*
X029197Y005544D01*
X029211Y005605D01*
X029221Y005666D01*
X029227Y005727D01*
X029771Y005109D02*
X029735Y005060D01*
X029696Y005013D01*
X029655Y004968D01*
X029611Y004926D01*
X029564Y004886D01*
X029516Y004849D01*
X029466Y004815D01*
X029414Y004783D01*
X029360Y004755D01*
X029304Y004729D01*
X029248Y004707D01*
X029190Y004688D01*
X029131Y004672D01*
X029071Y004659D01*
X029127Y004877D02*
X029161Y004891D01*
X029193Y004908D01*
X029224Y004928D01*
X029253Y004950D01*
X029280Y004974D01*
X029304Y005001D01*
X029326Y005030D01*
X029346Y005061D01*
X029363Y005093D01*
X029377Y005127D01*
X029772Y005109D02*
X029791Y005141D01*
X029806Y005176D01*
X029818Y005211D01*
X029827Y005248D01*
X029832Y005285D01*
X029833Y005322D01*
X029831Y005360D01*
X029825Y005397D01*
X029816Y005433D01*
X029803Y005469D01*
X029787Y005503D01*
X029768Y005535D01*
X029746Y005566D01*
X029721Y005594D01*
X029694Y005619D01*
X029664Y005642D01*
X029632Y005662D01*
X029599Y005679D01*
X029564Y005693D01*
X029528Y005703D01*
X030342Y006310D02*
X031182Y006310D01*
X031182Y006510D02*
X030342Y006510D01*
X030342Y006509D02*
X030313Y006511D01*
X030285Y006517D01*
X030257Y006526D01*
X030231Y006539D01*
X030207Y006555D01*
X030186Y006574D01*
X030167Y006595D01*
X030151Y006620D01*
X030138Y006645D01*
X030129Y006673D01*
X030123Y006701D01*
X030121Y006730D01*
X030121Y008109D01*
X030119Y008139D01*
X030114Y008169D01*
X030105Y008198D01*
X030092Y008225D01*
X030077Y008251D01*
X030058Y008275D01*
X030037Y008296D01*
X030013Y008315D01*
X029987Y008330D01*
X029960Y008343D01*
X029931Y008352D01*
X029901Y008357D01*
X029871Y008359D01*
X029221Y008359D01*
X028871Y008709D01*
X029671Y007759D02*
X029721Y007759D01*
X029747Y007757D01*
X029773Y007752D01*
X029798Y007744D01*
X029821Y007732D01*
X029843Y007718D01*
X029862Y007700D01*
X029880Y007681D01*
X029894Y007659D01*
X029906Y007636D01*
X029914Y007611D01*
X029919Y007585D01*
X029921Y007559D01*
X029921Y006730D01*
X029923Y006691D01*
X029928Y006653D01*
X029937Y006615D01*
X029949Y006578D01*
X029965Y006542D01*
X029984Y006508D01*
X030006Y006476D01*
X030031Y006446D01*
X030058Y006419D01*
X030088Y006394D01*
X030120Y006372D01*
X030154Y006353D01*
X030190Y006337D01*
X030227Y006325D01*
X030265Y006316D01*
X030303Y006311D01*
X030342Y006309D01*
X031182Y006309D02*
X031220Y006311D01*
X031257Y006316D01*
X031294Y006325D01*
X031330Y006338D01*
X031364Y006354D01*
X031397Y006373D01*
X031427Y006396D01*
X031456Y006421D01*
X031481Y006449D01*
X031504Y006479D01*
X031524Y006511D01*
X031541Y006545D01*
X031554Y006580D01*
X031564Y006617D01*
X031570Y006654D01*
X031573Y006692D01*
X031572Y006730D01*
X031571Y006730D02*
X031571Y009977D01*
X031777Y009977D02*
X031777Y006730D01*
X031372Y006730D02*
X031374Y006705D01*
X031373Y006679D01*
X031368Y006654D01*
X031360Y006630D01*
X031350Y006607D01*
X031336Y006586D01*
X031319Y006567D01*
X031300Y006550D01*
X031279Y006535D01*
X031256Y006524D01*
X031232Y006516D01*
X031207Y006511D01*
X031182Y006509D01*
X031777Y009978D02*
X031774Y010028D01*
X031767Y010078D01*
X031757Y010127D01*
X031742Y010175D01*
X031724Y010221D01*
X031702Y010267D01*
X031677Y010310D01*
X031649Y010351D01*
X031617Y010390D01*
X031582Y010426D01*
X031545Y010460D01*
X031505Y010490D01*
X031463Y010517D01*
X031418Y010541D01*
X031373Y010561D01*
X031325Y010578D01*
X031277Y010591D01*
X031227Y010600D01*
X031177Y010605D01*
X031127Y010606D01*
X031143Y010405D02*
X031182Y010403D01*
X031222Y010398D01*
X031260Y010389D01*
X031298Y010376D01*
X031334Y010360D01*
X031368Y010341D01*
X031401Y010319D01*
X031431Y010293D01*
X031459Y010265D01*
X031485Y010235D01*
X031507Y010202D01*
X031526Y010168D01*
X031542Y010132D01*
X031555Y010094D01*
X031564Y010056D01*
X031569Y010016D01*
X031571Y009977D01*
X029377Y010606D02*
X029343Y010608D01*
X029310Y010614D01*
X029278Y010623D01*
X029247Y010636D01*
X029217Y010652D01*
X029190Y010671D01*
X029165Y010694D01*
X029142Y010719D01*
X029123Y010746D01*
X029107Y010776D01*
X029094Y010807D01*
X029085Y010839D01*
X029079Y010872D01*
X029077Y010906D01*
X028877Y010906D02*
X028879Y010862D01*
X028885Y010819D01*
X028894Y010777D01*
X028907Y010735D01*
X028924Y010695D01*
X028944Y010656D01*
X028967Y010619D01*
X028994Y010585D01*
X029023Y010552D01*
X029056Y010523D01*
X029090Y010496D01*
X029127Y010473D01*
X029166Y010453D01*
X029206Y010436D01*
X029248Y010423D01*
X029290Y010414D01*
X029333Y010408D01*
X029377Y010406D01*
X026599Y012959D02*
X025896Y012959D01*
X025477Y013377D01*
X019227Y013377D01*
X019185Y013375D01*
X019144Y013369D01*
X019104Y013360D01*
X019064Y013347D01*
X019026Y013330D01*
X018990Y013310D01*
X018956Y013286D01*
X018924Y013260D01*
X018894Y013230D01*
X018868Y013198D01*
X018844Y013164D01*
X018824Y013128D01*
X018807Y013090D01*
X018794Y013050D01*
X018785Y013010D01*
X018779Y012969D01*
X018777Y012927D01*
X022191Y003378D02*
X024504Y003698D01*
X026799Y004125D01*
X029072Y004658D01*
X029222Y004458D02*
X026843Y003913D01*
X024441Y003480D01*
X022021Y003158D01*
X024378Y003877D02*
X026764Y004326D01*
X029128Y004877D01*
X024378Y003877D02*
X023808Y003797D01*
D23*
X017341Y005609D03*
X017141Y005859D03*
X016557Y006200D03*
D24*
X017827Y006027D02*
X017827Y007277D01*
X018177Y007327D02*
X018177Y007527D01*
X018177Y007327D02*
X018277Y007327D01*
X018327Y007377D01*
X018177Y007327D02*
X018177Y006227D01*
X017828Y006028D02*
X017834Y005976D01*
X017845Y005924D01*
X017859Y005873D01*
X017876Y005824D01*
X017898Y005776D01*
X017922Y005730D01*
X017951Y005685D01*
X017982Y005643D01*
X018016Y005603D01*
X018053Y005566D01*
X018093Y005532D01*
X018135Y005501D01*
X018180Y005472D01*
X018226Y005448D01*
X018274Y005426D01*
X018323Y005409D01*
X018374Y005395D01*
X018426Y005384D01*
X018478Y005378D01*
X018477Y005377D02*
X021477Y005377D01*
X022377Y004577D01*
X022677Y004577D01*
X022277Y005627D02*
X021777Y005627D01*
X021677Y005727D01*
X018677Y005727D01*
X018633Y005729D01*
X018590Y005735D01*
X018548Y005744D01*
X018506Y005757D01*
X018466Y005774D01*
X018427Y005794D01*
X018390Y005817D01*
X018356Y005844D01*
X018323Y005873D01*
X018294Y005906D01*
X018267Y005940D01*
X018244Y005977D01*
X018224Y006016D01*
X018207Y006056D01*
X018194Y006098D01*
X018185Y006140D01*
X018179Y006183D01*
X018177Y006227D01*
X017827Y007277D02*
X017825Y007321D01*
X017819Y007364D01*
X017810Y007406D01*
X017797Y007448D01*
X017780Y007488D01*
X017760Y007527D01*
X017737Y007564D01*
X017710Y007598D01*
X017681Y007631D01*
X017648Y007660D01*
X017614Y007687D01*
X017577Y007710D01*
X017538Y007730D01*
X017498Y007747D01*
X017456Y007760D01*
X017414Y007769D01*
X017371Y007775D01*
X017327Y007777D01*
X015677Y007777D01*
X015643Y007779D01*
X015610Y007785D01*
X015578Y007794D01*
X015547Y007807D01*
X015517Y007823D01*
X015490Y007842D01*
X015465Y007865D01*
X015442Y007890D01*
X015423Y007917D01*
X015407Y007947D01*
X015394Y007978D01*
X015385Y008010D01*
X015379Y008043D01*
X015377Y008077D01*
X015921Y008533D02*
X015921Y009159D01*
X015915Y009202D01*
X015906Y009244D01*
X015893Y009285D01*
X015877Y009325D01*
X015857Y009363D01*
X015833Y009400D01*
X015807Y009434D01*
X015778Y009466D01*
X015746Y009495D01*
X015712Y009521D01*
X015675Y009545D01*
X015637Y009565D01*
X015597Y009581D01*
X015556Y009594D01*
X015514Y009603D01*
X015471Y009609D01*
X010521Y009609D01*
X010421Y009859D01*
X010421Y009859D01*
X010421Y009858D02*
X010347Y010031D01*
X010265Y010200D01*
X010175Y010365D01*
X010078Y010525D01*
X009973Y010680D01*
X009860Y010831D01*
X009741Y010976D01*
X009614Y011115D01*
X009482Y011247D01*
X009343Y011374D01*
X009198Y011493D01*
X009048Y011606D01*
X008893Y011711D01*
X008732Y011809D01*
X008568Y011899D01*
X008399Y011981D01*
X008226Y012055D01*
X008050Y012121D01*
X007872Y012178D01*
X007690Y012226D01*
X007507Y012266D01*
X007322Y012298D01*
X007321Y012298D02*
X005921Y012298D01*
X005886Y012297D01*
X005851Y012300D01*
X005816Y012307D01*
X005782Y012317D01*
X005750Y012330D01*
X005719Y012347D01*
X005690Y012368D01*
X005663Y012391D01*
X005639Y012416D01*
X005617Y012444D01*
X005599Y012474D01*
X005584Y012506D01*
X005572Y012540D01*
X005564Y012574D01*
X005560Y012609D01*
X005561Y012609D02*
X005561Y016188D01*
X015104Y008677D02*
X015377Y008677D01*
X015104Y008672D02*
X015104Y008677D01*
X015921Y008533D02*
X015920Y008496D01*
X015923Y008458D01*
X015930Y008421D01*
X015940Y008385D01*
X015954Y008350D01*
X015971Y008317D01*
X015991Y008286D01*
X016015Y008256D01*
X016041Y008229D01*
X016069Y008205D01*
X016100Y008184D01*
X016133Y008165D01*
X016167Y008150D01*
X016203Y008139D01*
X016240Y008131D01*
X016277Y008127D01*
X017477Y008127D01*
X017478Y008127D02*
X017530Y008124D01*
X017582Y008118D01*
X017634Y008108D01*
X017685Y008094D01*
X017735Y008076D01*
X017783Y008055D01*
X017829Y008030D01*
X017874Y008002D01*
X017916Y007971D01*
X017956Y007937D01*
X017994Y007900D01*
X018028Y007860D01*
X018060Y007818D01*
X018088Y007773D01*
X018113Y007727D01*
X018135Y007679D01*
X018153Y007629D01*
X018167Y007579D01*
X018177Y007527D01*
X028277Y007577D02*
X028277Y008127D01*
X028859Y008709D01*
X028871Y008709D01*
D25*
X028277Y007577D03*
X005561Y016188D03*
D26*
X018327Y007377D03*
X018327Y007077D03*
X022277Y005627D03*
X022577Y005627D03*
X022677Y004577D03*
X022977Y004577D03*
D27*
X018327Y007077D02*
X018327Y007377D01*
D28*
X022277Y005627D02*
X022577Y005627D01*
X022677Y004577D02*
X022977Y004577D01*
X014627Y010677D02*
X013977Y010677D01*
D29*
X017477Y009227D03*
X017414Y008504D03*
X019694Y008394D03*
X029671Y007759D03*
D30*
X029653Y007777D01*
X021636Y008759D02*
X021367Y009027D01*
X021367Y010777D01*
X015377Y009099D02*
X015377Y009027D01*
D31*
X021367Y010777D03*
D32*
X021636Y008759D02*
X022121Y008759D01*
D33*
X019694Y008394D02*
X019660Y008477D01*
X017477Y008477D01*
X017420Y008484D01*
X017414Y008504D01*
X017477Y009227D02*
X017477Y010427D01*
X017627Y010427D01*
X017677Y010477D01*
X017477Y010427D02*
X014627Y010427D01*
X014352Y010702D01*
X014291Y010763D01*
X014291Y010919D01*
D34*
X015377Y009099D02*
X015377Y008677D01*
X015377Y008077D01*
M02*
