%
M48
M72
T01C0.0100
T02C0.0120
T03C0.0140
T04C0.0160
T05C0.0180
T06C0.0260
T07C0.0394
T08C0.0454
T09C0.0492
T10C0.0550
T11C0.1181
%
T01
X16557Y6200
X17141Y5859
X17341Y5609
T02
X17450Y5917
X16954Y6909
X15377Y8322
X15377Y9022
X16312Y9240
X16562Y9240
X14627Y10677
X13977Y10677
X13351Y10359
X13051Y10359
X12751Y10359
X12451Y10359
X12151Y10359
X11851Y10359
X11551Y10359
X11251Y10359
X10951Y10359
X6051Y12729
X6051Y13079
X6051Y13429
X6051Y13779
X6051Y14129
X14196Y6584
X13721Y6409
X13546Y5909
X14971Y5359
X17151Y4129
X17546Y4129
X18476Y3929
X18776Y3929
X19076Y3929
X18926Y3629
X18626Y3629
X19327Y3427
X20622Y4290
X20872Y4290
X21764Y4627
X21939Y3672
X21727Y3177
X20139Y5016
X18942Y4413
X17179Y3112
X21902Y6065
X21902Y6315
X22733Y6317
X23242Y7040
X22992Y7190
X22992Y7490
X22992Y7790
X21242Y8090
X20942Y8090
X20642Y8090
X20342Y8090
X21183Y7047
X19746Y6711
X19346Y6711
X19346Y6311
X19746Y6311
X24871Y7590
X24871Y7890
X24871Y8190
X27192Y7840
X27192Y7540
X27192Y7240
X27192Y6940
X27242Y5940
X26942Y5940
X25392Y4640
X25092Y4590
X24792Y4540
X29377Y5127
X29527Y5702
X30096Y5809
X24192Y10437
X22542Y10390
X22542Y10690
X22542Y10990
X10972Y5647
X10927Y3977
T03
X17414Y8504
X17477Y9227
X19694Y8394
X29671Y7759
T04
X22977Y4577
X22677Y4577
X22577Y5627
X22277Y5627
X18327Y7077
X18327Y7377
T05
X21367Y10777
T06
X28277Y7577
X5561Y16188
T07
X14291Y10919
T08
X1321Y17183
X30925Y1321
T09
X15104Y8672
T10
X22121Y8759
X28871Y8709
X28871Y6709
T11
X2031Y2959
X2031Y12459
X31309Y12459
X31309Y2959
M30
