G75*
G70*
%OFA0B0*%
%FSLAX24Y24*%
%IPPOS*%
%LPD*%
%AMOC8*
5,1,8,0,0,1.08239X$1,22.5*
%
%ADD10C,0.0050*%
%ADD11C,0.0040*%
%ADD12C,0.0060*%
%ADD13C,0.0070*%
%ADD14C,0.0130*%
%ADD15C,0.0080*%
%ADD16C,0.0118*%
%ADD17C,0.0000*%
%ADD18C,0.0120*%
%ADD19C,0.0004*%
%ADD20C,0.0160*%
%ADD21C,0.0039*%
%ADD22C,0.0020*%
%ADD23C,0.0140*%
%ADD24C,0.0400*%
%ADD25C,0.0200*%
%ADD26C,0.0100*%
%ADD27C,0.0300*%
%ADD28C,0.0079*%
%ADD29R,0.0079X0.0551*%
%ADD30C,0.0240*%
D10*
X001427Y000927D02*
X031912Y000927D01*
X031957Y000928D01*
X032000Y000934D01*
X032044Y000943D01*
X032086Y000956D01*
X032127Y000972D01*
X032166Y000992D01*
X032204Y001015D01*
X032239Y001042D01*
X032272Y001071D01*
X032302Y001104D01*
X032329Y001138D01*
X032353Y001175D01*
X032374Y001214D01*
X032392Y001255D01*
X032405Y001297D01*
X032415Y001340D01*
X032422Y001383D01*
X032424Y001427D01*
X032423Y001427D02*
X032423Y018146D01*
X032424Y018146D02*
X032421Y018189D01*
X032415Y018233D01*
X032405Y018276D01*
X032391Y018318D01*
X032374Y018358D01*
X032353Y018397D01*
X032329Y018434D01*
X032302Y018469D01*
X032271Y018501D01*
X032239Y018530D01*
X032203Y018556D01*
X032166Y018580D01*
X032127Y018599D01*
X032086Y018616D01*
X032043Y018628D01*
X032000Y018637D01*
X031957Y018643D01*
X031912Y018644D01*
X001427Y018644D01*
X001383Y018642D01*
X001340Y018637D01*
X001298Y018627D01*
X001256Y018614D01*
X001216Y018598D01*
X001177Y018578D01*
X001141Y018554D01*
X001106Y018528D01*
X001074Y018499D01*
X001044Y018467D01*
X001018Y018432D01*
X000994Y018395D01*
X000974Y018357D01*
X000957Y018317D01*
X000944Y018275D01*
X000935Y018233D01*
X000929Y018189D01*
X000927Y018146D01*
X000927Y001427D01*
X000929Y001383D01*
X000935Y001340D01*
X000944Y001298D01*
X000957Y001256D01*
X000974Y001216D01*
X000994Y001177D01*
X001017Y001140D01*
X001044Y001106D01*
X001073Y001073D01*
X001106Y001044D01*
X001140Y001017D01*
X001177Y000994D01*
X001216Y000974D01*
X001256Y000957D01*
X001298Y000944D01*
X001340Y000935D01*
X001383Y000929D01*
X001427Y000927D01*
X003609Y002950D02*
X003740Y002834D01*
X003919Y002790D01*
X003925Y002843D01*
X003993Y002855D01*
X004073Y002892D01*
X004113Y002941D01*
X004092Y002963D02*
X004009Y002897D01*
X003893Y002880D01*
X003810Y002884D01*
X003718Y002937D01*
X003649Y003024D01*
X003601Y003164D01*
X003631Y003458D01*
X003652Y003462D01*
X003688Y003543D01*
X003821Y003613D01*
X003934Y003630D01*
X003993Y003615D01*
X004079Y003511D01*
X004100Y003503D01*
X004120Y003520D01*
X004113Y003557D01*
X004033Y003674D01*
X003892Y003706D01*
X004021Y003637D01*
X004088Y003539D01*
X003925Y003657D02*
X003796Y003644D01*
X003671Y003574D01*
X003617Y003489D01*
X003594Y003488D01*
X003656Y003612D01*
X003758Y003665D01*
X003856Y003693D01*
X003887Y003680D01*
X003589Y003470D02*
X003544Y003157D01*
X003609Y002950D01*
X003629Y003001D02*
X003576Y003152D01*
X003595Y003280D01*
X003629Y003001D02*
X003691Y002904D01*
X003831Y002837D01*
X003913Y002839D01*
X003944Y002797D02*
X004076Y002848D01*
X004139Y002909D01*
X004148Y002972D01*
X004131Y003000D01*
X004092Y002963D01*
X004348Y003082D02*
X004334Y003158D01*
X004341Y003334D01*
X004362Y003434D01*
X004421Y003563D01*
X004489Y003643D01*
X004561Y003688D01*
X004663Y003728D01*
X004782Y003717D01*
X004877Y003676D01*
X004954Y003606D01*
X005012Y003506D01*
X005046Y003401D01*
X005061Y003311D01*
X005066Y003148D01*
X005010Y002962D01*
X004983Y002921D01*
X004892Y002845D01*
X004821Y002800D01*
X004748Y002776D01*
X004733Y002778D01*
X004742Y002775D02*
X004660Y002775D01*
X004627Y002781D01*
X004553Y002803D01*
X004482Y002848D01*
X004419Y002918D01*
X004379Y002992D01*
X004348Y003082D01*
X004402Y003031D02*
X004362Y003187D01*
X004394Y003418D01*
X004482Y003588D01*
X004665Y003688D01*
X004820Y003657D01*
X004935Y003565D01*
X005002Y003424D01*
X005022Y003313D01*
X004987Y003297D01*
X004938Y003517D01*
X004909Y003504D01*
X004881Y003577D01*
X004673Y003654D01*
X004822Y003621D01*
X004619Y003603D01*
X004645Y003639D01*
X004498Y003546D01*
X004422Y003380D01*
X004527Y003541D01*
X004558Y003531D02*
X004506Y003467D01*
X004474Y003394D01*
X004451Y003300D01*
X004445Y003232D01*
X004444Y003149D01*
X004458Y003080D01*
X004514Y003001D01*
X004574Y002940D01*
X004645Y002910D01*
X004730Y002908D01*
X004773Y002920D01*
X004811Y002939D01*
X004855Y002965D01*
X004883Y002996D01*
X004903Y003021D02*
X004935Y003089D01*
X004948Y003147D01*
X004952Y003298D01*
X004943Y003368D01*
X004920Y003442D01*
X004874Y003510D01*
X004823Y003557D01*
X004767Y003575D01*
X004721Y003581D01*
X004661Y003582D01*
X004606Y003566D01*
X004558Y003531D01*
X004425Y003363D02*
X004407Y003177D01*
X004433Y003035D01*
X004537Y002894D01*
X004658Y002848D01*
X004765Y002845D01*
X004869Y002856D01*
X004884Y002888D01*
X004835Y002913D01*
X004784Y002879D01*
X004655Y002886D01*
X004524Y002944D01*
X004511Y002867D02*
X004402Y003031D01*
X004511Y002867D02*
X004641Y002817D01*
X004762Y002814D01*
X005013Y003001D01*
X004900Y002902D01*
X005016Y003096D01*
X005025Y003286D01*
X004995Y003274D01*
X004983Y003097D01*
X004880Y002922D01*
X004850Y002938D02*
X004903Y003021D01*
X005276Y003031D02*
X005270Y002849D01*
X005279Y002821D01*
X005290Y002809D01*
X005311Y002796D01*
X005333Y002787D01*
X005364Y002782D01*
X005417Y002778D01*
X005710Y002805D01*
X005731Y002870D01*
X005419Y002893D01*
X005692Y002897D01*
X005681Y002831D01*
X005316Y002823D01*
X005307Y002899D01*
X005611Y002842D01*
X005336Y002865D01*
X005362Y002902D02*
X005361Y003549D01*
X005322Y002908D01*
X005299Y003533D01*
X005295Y003688D01*
X005340Y003680D01*
X005345Y003575D01*
X005340Y003439D01*
X005389Y003502D02*
X005372Y003675D01*
X005349Y003716D01*
X005317Y003726D01*
X005292Y003721D01*
X005272Y003708D01*
X005263Y003684D01*
X005261Y003656D01*
X005280Y003286D01*
X005276Y003031D01*
X005393Y002959D02*
X005394Y002928D01*
X005423Y002915D01*
X005516Y002915D01*
X005610Y002928D01*
X005692Y002924D01*
X005746Y002899D01*
X005761Y002868D01*
X005764Y002833D01*
X005757Y002804D01*
X005744Y002784D01*
X005726Y002771D01*
X005696Y002772D01*
X005617Y002782D01*
X005511Y002780D01*
X005430Y002779D01*
X005393Y002959D02*
X005397Y003141D01*
X005395Y003341D01*
X005389Y003502D01*
X005882Y003355D02*
X005881Y003209D01*
X005894Y003096D01*
X005938Y002973D01*
X005991Y002893D01*
X006038Y002842D01*
X006117Y002796D01*
X006199Y002774D01*
X006269Y002769D01*
X006270Y002786D02*
X006296Y002773D01*
X006382Y002804D01*
X006472Y002872D01*
X006532Y002952D01*
X006581Y003067D01*
X006611Y003207D01*
X006606Y003389D01*
X006557Y003530D01*
X006509Y003604D01*
X006433Y003671D01*
X006338Y003715D01*
X006221Y003726D01*
X006132Y003702D01*
X006037Y003645D01*
X005966Y003583D01*
X005929Y003524D01*
X005882Y003355D01*
X005992Y003323D02*
X005986Y003159D01*
X006010Y003073D01*
X006081Y002971D01*
X006163Y002913D01*
X006235Y002907D01*
X006288Y002908D01*
X006285Y002908D02*
X006339Y002929D01*
X006395Y002965D01*
X006436Y003010D01*
X006469Y003069D01*
X006494Y003159D01*
X006495Y003341D01*
X006474Y003423D01*
X006435Y003495D01*
X006378Y003550D01*
X006303Y003581D01*
X006195Y003582D01*
X006094Y003540D01*
X006109Y003542D01*
X006077Y003516D01*
X006024Y003433D01*
X005992Y003323D01*
X006782Y003617D02*
X006791Y003594D01*
X006823Y003567D01*
X006834Y003541D01*
X006832Y003140D01*
X006828Y002892D01*
X006830Y002863D01*
X006837Y002818D01*
X006846Y002793D01*
X006866Y002777D01*
X006877Y002774D01*
X006886Y002773D02*
X006889Y002775D01*
X006910Y002777D01*
X006925Y002789D01*
X006937Y002811D01*
X006938Y003091D01*
X006953Y003111D01*
X006986Y003110D01*
X007016Y003116D01*
X007064Y003126D01*
X007074Y003132D01*
X007094Y003133D01*
X007208Y002875D01*
X007237Y002819D01*
X007290Y002763D01*
X007338Y002744D01*
X007367Y002746D01*
X007392Y002760D01*
X007403Y002784D01*
X007402Y002802D01*
X007288Y002985D01*
X007205Y003149D01*
X007225Y003190D01*
X007233Y003185D01*
X007311Y003236D01*
X007360Y003284D01*
X007385Y003331D01*
X007402Y003382D01*
X007402Y003474D01*
X007396Y003512D01*
X007376Y003563D01*
X007341Y003617D01*
X007272Y003669D01*
X007203Y003699D01*
X007098Y003722D01*
X006987Y003722D01*
X006879Y003708D01*
X006820Y003691D01*
X006789Y003659D01*
X006782Y003617D01*
X006946Y003583D02*
X006938Y003442D01*
X006937Y003240D01*
X006956Y003235D02*
X007001Y003236D01*
X007140Y003272D01*
X007199Y003306D01*
X007251Y003341D01*
X007283Y003382D01*
X007297Y003440D01*
X007291Y003428D01*
X007290Y003474D01*
X007254Y003531D01*
X007207Y003570D01*
X007147Y003590D01*
X007079Y003599D01*
X007014Y003600D01*
X006962Y003589D01*
X006946Y003583D01*
X009521Y003914D02*
X009521Y002579D01*
X009525Y002546D01*
X009532Y002512D01*
X009542Y002480D01*
X009556Y002449D01*
X009573Y002420D01*
X009593Y002392D01*
X009616Y002367D01*
X009641Y002344D01*
X009668Y002324D01*
X009698Y002307D01*
X009729Y002294D01*
X009761Y002283D01*
X009794Y002276D01*
X009828Y002272D01*
X009862Y002272D01*
X009861Y002272D02*
X016357Y002272D01*
X021818Y002359D01*
X021818Y002959D02*
X016957Y002872D01*
X016927Y002874D01*
X016897Y002879D01*
X016868Y002888D01*
X016841Y002901D01*
X016815Y002916D01*
X016791Y002935D01*
X016770Y002956D01*
X016751Y002980D01*
X016736Y003006D01*
X016723Y003033D01*
X016714Y003062D01*
X016709Y003092D01*
X016707Y003122D01*
X016707Y005560D01*
X015862Y005560D01*
X015862Y005293D01*
X015857Y005261D01*
X015849Y005229D01*
X015837Y005199D01*
X015822Y005170D01*
X015804Y005143D01*
X015783Y005118D01*
X015759Y005095D01*
X015733Y005076D01*
X015705Y005059D01*
X015675Y005046D01*
X015644Y005036D01*
X015612Y005030D01*
X015580Y005027D01*
X015547Y005028D01*
X014838Y005028D01*
X015185Y005199D02*
X015185Y005432D01*
X015068Y005315D02*
X015302Y005315D01*
X014411Y005630D02*
X014332Y005630D01*
X014332Y005552D01*
X014332Y005630D02*
X014332Y005709D01*
X014332Y005912D02*
X014332Y005990D01*
X014411Y005990D01*
X013735Y006761D02*
X013688Y006719D01*
X013643Y006674D01*
X013602Y006626D01*
X013563Y006576D01*
X013527Y006523D01*
X013495Y006469D01*
X013466Y006412D01*
X013440Y006354D01*
X013418Y006295D01*
X013400Y006234D01*
X013385Y006172D01*
X013375Y006109D01*
X013368Y006046D01*
X013365Y005983D01*
X013366Y005919D01*
X013371Y005856D01*
X013380Y005793D01*
X013392Y005731D01*
X013409Y005670D01*
X013429Y005610D01*
X013452Y005551D01*
X013480Y005493D01*
X013510Y005438D01*
X013544Y005384D01*
X013582Y005333D01*
X013622Y005284D01*
X013665Y005238D01*
X013711Y005194D01*
X013760Y005153D01*
X013811Y005115D01*
X013864Y005081D01*
X013920Y005050D01*
X013977Y005022D01*
X014035Y004998D01*
X014095Y004977D01*
X014157Y004960D01*
X014219Y004947D01*
X014281Y004938D01*
X014345Y004933D01*
X014408Y004931D01*
X014472Y004933D01*
X014535Y004940D01*
X014597Y004950D01*
X014659Y004964D01*
X014720Y004981D01*
X014780Y005003D01*
X014838Y005028D01*
X014332Y005990D02*
X014332Y006069D01*
X014332Y006272D02*
X014332Y006350D01*
X014411Y006350D01*
X014332Y006350D02*
X014332Y006429D01*
X013736Y006760D02*
X015311Y006760D01*
X015310Y006761D02*
X015329Y006789D01*
X015350Y006815D01*
X015374Y006838D01*
X015401Y006858D01*
X015430Y006875D01*
X015461Y006889D01*
X015493Y006899D01*
X015526Y006905D01*
X015559Y006908D01*
X015593Y006907D01*
X015626Y006902D01*
X015658Y006893D01*
X015690Y006881D01*
X015719Y006865D01*
X015747Y006846D01*
X015772Y006824D01*
X015795Y006800D01*
X015815Y006772D01*
X015831Y006743D01*
X015844Y006712D01*
X015854Y006680D01*
X015860Y006647D01*
X015862Y006614D01*
X015862Y006350D01*
X016707Y006350D01*
X016707Y007274D01*
X016703Y007307D01*
X016696Y007338D01*
X016686Y007369D01*
X016672Y007399D01*
X016655Y007426D01*
X016635Y007452D01*
X016612Y007475D01*
X016586Y007495D01*
X016559Y007513D01*
X016530Y007527D01*
X016499Y007538D01*
X016467Y007546D01*
X016435Y007549D01*
X016403Y007550D01*
X015408Y007550D01*
X015373Y007554D01*
X015338Y007563D01*
X015304Y007574D01*
X015272Y007589D01*
X015241Y007608D01*
X015213Y007630D01*
X015187Y007654D01*
X015164Y007681D01*
X015143Y007710D01*
X015126Y007742D01*
X015112Y007775D01*
X015102Y007809D01*
X015095Y007844D01*
X015092Y007879D01*
X015093Y007915D01*
X015093Y009159D01*
X015090Y009186D01*
X015083Y009213D01*
X015073Y009239D01*
X015059Y009263D01*
X015043Y009285D01*
X015023Y009305D01*
X015002Y009322D01*
X014978Y009336D01*
X014953Y009347D01*
X014926Y009354D01*
X014899Y009358D01*
X014871Y009359D01*
X011471Y009359D01*
X011441Y009357D01*
X011411Y009352D01*
X011382Y009343D01*
X011355Y009330D01*
X011329Y009315D01*
X011305Y009296D01*
X011284Y009275D01*
X011265Y009251D01*
X011250Y009225D01*
X011237Y009198D01*
X011228Y009169D01*
X011223Y009139D01*
X011221Y009109D01*
X011221Y007309D01*
X011223Y007279D01*
X011228Y007249D01*
X011237Y007220D01*
X011250Y007193D01*
X011265Y007167D01*
X011284Y007143D01*
X011305Y007122D01*
X011329Y007103D01*
X011355Y007088D01*
X011382Y007075D01*
X011411Y007066D01*
X011441Y007061D01*
X011471Y007059D01*
X011821Y007059D01*
X011851Y007057D01*
X011881Y007052D01*
X011910Y007043D01*
X011937Y007030D01*
X011963Y007015D01*
X011987Y006996D01*
X012008Y006975D01*
X012027Y006951D01*
X012042Y006925D01*
X012055Y006898D01*
X012064Y006869D01*
X012069Y006839D01*
X012071Y006809D01*
X012071Y003609D01*
X012069Y003579D01*
X012064Y003549D01*
X012055Y003520D01*
X012042Y003493D01*
X012027Y003467D01*
X012008Y003443D01*
X011987Y003422D01*
X011963Y003403D01*
X011937Y003388D01*
X011910Y003375D01*
X011881Y003366D01*
X011851Y003361D01*
X011821Y003359D01*
X010721Y003359D01*
X010687Y003361D01*
X010654Y003367D01*
X010622Y003376D01*
X010591Y003389D01*
X010561Y003405D01*
X010534Y003424D01*
X010509Y003447D01*
X010486Y003472D01*
X010467Y003499D01*
X010451Y003529D01*
X010438Y003560D01*
X010429Y003592D01*
X010423Y003625D01*
X010421Y003659D01*
X010421Y003914D01*
X009521Y003914D01*
X009521Y004702D02*
X009521Y007909D01*
X010421Y008509D02*
X010421Y004702D01*
X009521Y004702D01*
X009521Y007909D02*
X009524Y008093D01*
X009518Y008277D01*
X009505Y008460D01*
X009484Y008643D01*
X009455Y008824D01*
X009418Y009004D01*
X009374Y009183D01*
X009321Y009359D01*
X011051Y011649D02*
X010922Y011821D01*
X010784Y011987D01*
X010639Y012146D01*
X010486Y012297D01*
X010326Y012441D01*
X010159Y012578D01*
X009986Y012706D01*
X009807Y012825D01*
X009622Y012936D01*
X009432Y013038D01*
X009238Y013131D01*
X009040Y013214D01*
X008837Y013288D01*
X008631Y013352D01*
X008423Y013406D01*
X008212Y013450D01*
X008212Y013449D02*
X008212Y017454D01*
X008210Y017484D01*
X008204Y017513D01*
X008195Y017542D01*
X008183Y017569D01*
X008167Y017595D01*
X008148Y017618D01*
X008127Y017639D01*
X008103Y017657D01*
X008077Y017673D01*
X008050Y017685D01*
X008021Y017693D01*
X007992Y017698D01*
X007962Y017700D01*
X007962Y017699D02*
X006915Y017699D01*
X006915Y016609D01*
X007371Y016609D01*
X007401Y016607D01*
X007431Y016602D01*
X007460Y016593D01*
X007487Y016580D01*
X007513Y016565D01*
X007537Y016546D01*
X007558Y016525D01*
X007577Y016501D01*
X007592Y016475D01*
X007605Y016448D01*
X007614Y016419D01*
X007619Y016389D01*
X007621Y016359D01*
X007621Y014659D01*
X007619Y014629D01*
X007614Y014599D01*
X007605Y014570D01*
X007592Y014543D01*
X007577Y014517D01*
X007558Y014493D01*
X007537Y014472D01*
X007513Y014453D01*
X007487Y014438D01*
X007460Y014425D01*
X007431Y014416D01*
X007401Y014411D01*
X007371Y014409D01*
X006771Y014409D01*
X006741Y014407D01*
X006711Y014402D01*
X006682Y014393D01*
X006655Y014380D01*
X006629Y014365D01*
X006605Y014346D01*
X006584Y014325D01*
X006565Y014301D01*
X006550Y014275D01*
X006537Y014248D01*
X006528Y014219D01*
X006523Y014189D01*
X006521Y014159D01*
X006521Y013159D01*
X006523Y013129D01*
X006528Y013099D01*
X006537Y013070D01*
X006550Y013043D01*
X006565Y013017D01*
X006584Y012993D01*
X006605Y012972D01*
X006629Y012953D01*
X006655Y012938D01*
X006682Y012925D01*
X006711Y012916D01*
X006741Y012911D01*
X006771Y012909D01*
X007621Y012909D01*
X007271Y012059D02*
X005571Y012059D01*
X005541Y012061D01*
X005511Y012066D01*
X005482Y012075D01*
X005455Y012088D01*
X005429Y012103D01*
X005405Y012122D01*
X005384Y012143D01*
X005365Y012167D01*
X005350Y012193D01*
X005337Y012220D01*
X005328Y012249D01*
X005323Y012279D01*
X005321Y012309D01*
X005321Y014589D01*
X005319Y014643D01*
X005313Y014696D01*
X005304Y014748D01*
X005291Y014800D01*
X005274Y014851D01*
X005253Y014901D01*
X005229Y014948D01*
X005202Y014994D01*
X005171Y015038D01*
X005138Y015080D01*
X005101Y015119D01*
X005062Y015156D01*
X005020Y015189D01*
X004976Y015220D01*
X004930Y015247D01*
X004883Y015271D01*
X004833Y015292D01*
X004782Y015309D01*
X004730Y015322D01*
X004678Y015331D01*
X004625Y015337D01*
X004571Y015339D01*
X003321Y015339D01*
X002781Y014739D02*
X002735Y014744D01*
X002690Y014753D01*
X002645Y014765D01*
X002601Y014780D01*
X002559Y014799D01*
X002518Y014822D01*
X002479Y014847D01*
X002442Y014875D01*
X002408Y014906D01*
X002376Y014940D01*
X002347Y014976D01*
X002321Y015015D01*
X002297Y015055D01*
X002278Y015097D01*
X002261Y015140D01*
X002248Y015185D01*
X002238Y015230D01*
X002232Y015276D01*
X002230Y015322D01*
X002231Y015369D01*
X002231Y015368D02*
X002231Y017149D01*
X002233Y017194D01*
X002239Y017240D01*
X002248Y017284D01*
X002261Y017328D01*
X002277Y017370D01*
X002297Y017411D01*
X002321Y017450D01*
X002347Y017487D01*
X002376Y017522D01*
X002408Y017554D01*
X002443Y017583D01*
X002480Y017609D01*
X002519Y017633D01*
X002560Y017653D01*
X002602Y017669D01*
X002646Y017682D01*
X002690Y017691D01*
X002736Y017697D01*
X002781Y017699D01*
X006127Y017699D01*
X006127Y016609D01*
X005471Y016609D01*
X005448Y016611D01*
X005425Y016616D01*
X005403Y016625D01*
X005383Y016638D01*
X005365Y016653D01*
X005350Y016671D01*
X005337Y016691D01*
X005328Y016713D01*
X005323Y016736D01*
X005321Y016759D01*
X005321Y017059D01*
X005319Y017082D01*
X005314Y017105D01*
X005305Y017127D01*
X005292Y017147D01*
X005277Y017165D01*
X005259Y017180D01*
X005239Y017193D01*
X005217Y017202D01*
X005194Y017207D01*
X005171Y017209D01*
X003321Y017209D01*
X003276Y017207D01*
X003230Y017201D01*
X003186Y017192D01*
X003142Y017179D01*
X003100Y017163D01*
X003059Y017143D01*
X003020Y017119D01*
X002983Y017093D01*
X002948Y017064D01*
X002916Y017032D01*
X002887Y016997D01*
X002861Y016960D01*
X002837Y016921D01*
X002817Y016880D01*
X002801Y016838D01*
X002788Y016794D01*
X002779Y016750D01*
X002773Y016704D01*
X002771Y016659D01*
X002771Y015889D01*
X002773Y015844D01*
X002779Y015798D01*
X002788Y015754D01*
X002801Y015710D01*
X002817Y015668D01*
X002837Y015627D01*
X002861Y015588D01*
X002887Y015551D01*
X002916Y015516D01*
X002948Y015484D01*
X002983Y015455D01*
X003020Y015429D01*
X003059Y015405D01*
X003100Y015385D01*
X003142Y015369D01*
X003186Y015356D01*
X003230Y015347D01*
X003276Y015341D01*
X003321Y015339D01*
X002781Y014739D02*
X003971Y014739D01*
X004025Y014737D01*
X004078Y014731D01*
X004130Y014722D01*
X004182Y014709D01*
X004233Y014692D01*
X004283Y014671D01*
X004330Y014647D01*
X004376Y014620D01*
X004420Y014589D01*
X004462Y014556D01*
X004501Y014519D01*
X004538Y014480D01*
X004571Y014438D01*
X004602Y014394D01*
X004629Y014348D01*
X004653Y014301D01*
X004674Y014251D01*
X004691Y014200D01*
X004704Y014148D01*
X004713Y014096D01*
X004719Y014043D01*
X004721Y013989D01*
X004721Y011509D01*
X004723Y011479D01*
X004728Y011449D01*
X004737Y011420D01*
X004750Y011393D01*
X004765Y011367D01*
X004784Y011343D01*
X004805Y011322D01*
X004829Y011303D01*
X004855Y011288D01*
X004882Y011275D01*
X004911Y011266D01*
X004941Y011261D01*
X004971Y011259D01*
X006871Y011259D01*
X004330Y009039D02*
X004330Y009019D01*
X004047Y008909D02*
X004049Y008934D01*
X004055Y008957D01*
X004065Y008980D01*
X004078Y009001D01*
X004094Y009019D01*
X004113Y009035D01*
X004134Y009047D01*
X004157Y009056D01*
X004182Y009061D01*
X004206Y009062D01*
X004231Y009059D01*
X004254Y009052D01*
X004276Y009042D01*
X004297Y009028D01*
X004315Y009010D01*
X004329Y008991D01*
X004341Y008969D01*
X004349Y008946D01*
X004353Y008921D01*
X004353Y008897D01*
X004349Y008872D01*
X004341Y008849D01*
X004329Y008827D01*
X004315Y008808D01*
X004297Y008790D01*
X004277Y008776D01*
X004254Y008766D01*
X004231Y008759D01*
X004206Y008756D01*
X004182Y008757D01*
X004157Y008762D01*
X004134Y008771D01*
X004113Y008783D01*
X004094Y008799D01*
X004078Y008817D01*
X004065Y008838D01*
X004055Y008861D01*
X004049Y008884D01*
X004047Y008909D01*
X004050Y009009D02*
X004050Y009039D01*
X004090Y009039D01*
X004080Y008779D02*
X004070Y008779D01*
X004080Y008779D02*
X004080Y008759D01*
X004050Y008759D01*
X004050Y008769D01*
X004330Y008749D02*
X004330Y008779D01*
X006871Y011259D02*
X007011Y011239D01*
X007150Y011212D01*
X007288Y011179D01*
X007424Y011139D01*
X007558Y011094D01*
X007690Y011041D01*
X007819Y010983D01*
X007945Y010919D01*
X008068Y010849D01*
X008187Y010773D01*
X008303Y010691D01*
X008415Y010605D01*
X008523Y010513D01*
X008626Y010416D01*
X008725Y010314D01*
X008818Y010208D01*
X008907Y010097D01*
X008990Y009983D01*
X009068Y009865D01*
X009140Y009743D01*
X009206Y009618D01*
X009267Y009490D01*
X009321Y009359D01*
X010221Y009659D02*
X010268Y009520D01*
X010308Y009379D01*
X010342Y009236D01*
X010371Y009093D01*
X010393Y008948D01*
X010408Y008802D01*
X010418Y008656D01*
X010421Y008509D01*
X010721Y010653D02*
X013671Y010653D01*
X013695Y010655D01*
X013718Y010661D01*
X013740Y010671D01*
X013760Y010684D01*
X013778Y010700D01*
X013794Y010719D01*
X013806Y010739D01*
X013814Y010762D01*
X013820Y010785D01*
X013821Y010809D01*
X013823Y010826D01*
X013827Y010843D01*
X013834Y010859D01*
X013844Y010873D01*
X013857Y010886D01*
X013871Y010896D01*
X013887Y010903D01*
X013904Y010907D01*
X013921Y010909D01*
X014671Y010909D01*
X014688Y010907D01*
X014705Y010903D01*
X014721Y010896D01*
X014735Y010886D01*
X014748Y010873D01*
X014758Y010859D01*
X014765Y010843D01*
X014769Y010826D01*
X014771Y010809D01*
X014772Y010809D02*
X014773Y010785D01*
X014779Y010762D01*
X014787Y010739D01*
X014799Y010719D01*
X014815Y010700D01*
X014833Y010684D01*
X014853Y010671D01*
X014875Y010661D01*
X014898Y010655D01*
X014922Y010653D01*
X014921Y010653D02*
X017312Y010653D01*
X017335Y010655D01*
X017358Y010660D01*
X017380Y010669D01*
X017400Y010682D01*
X017418Y010697D01*
X017433Y010715D01*
X017446Y010735D01*
X017455Y010757D01*
X017460Y010780D01*
X017462Y010803D01*
X017462Y011240D01*
X017465Y011271D01*
X017473Y011302D01*
X017484Y011332D01*
X017498Y011360D01*
X017515Y011387D01*
X017535Y011411D01*
X017557Y011433D01*
X017582Y011453D01*
X017609Y011469D01*
X017638Y011483D01*
X017668Y011493D01*
X017699Y011499D01*
X017730Y011503D01*
X017762Y011502D01*
X017762Y011503D02*
X018477Y011503D01*
X018477Y012853D01*
X016912Y012853D01*
X016912Y012852D02*
X016881Y012853D01*
X016851Y012849D01*
X016822Y012842D01*
X016794Y012831D01*
X016767Y012816D01*
X016743Y012798D01*
X016721Y012777D01*
X016702Y012753D01*
X016687Y012727D01*
X016674Y012699D01*
X016666Y012670D01*
X016662Y012640D01*
X016662Y011803D01*
X016660Y011779D01*
X016655Y011756D01*
X016646Y011733D01*
X016634Y011713D01*
X016619Y011695D01*
X016601Y011679D01*
X016580Y011666D01*
X016558Y011657D01*
X016535Y011651D01*
X016512Y011649D01*
X011051Y011649D01*
X011212Y013840D02*
X011447Y013830D01*
X011532Y013875D01*
X011432Y013865D01*
X011302Y013860D01*
X011222Y013875D01*
X011267Y014115D02*
X011392Y014090D01*
X011487Y014115D01*
X011492Y014155D01*
X011442Y014130D01*
X011372Y014125D01*
X011302Y014135D01*
X011222Y014180D01*
X011172Y014240D01*
X011157Y014340D01*
X011157Y014410D01*
X011192Y014485D01*
X011252Y014555D01*
X011312Y014580D01*
X011417Y014590D01*
X011497Y014555D01*
X011562Y014490D01*
X011582Y014425D01*
X011632Y014440D02*
X011627Y014015D01*
X011617Y013985D02*
X011582Y013995D01*
X011547Y013925D01*
X011487Y013885D01*
X011547Y013880D02*
X011617Y013985D01*
X011582Y014005D02*
X011592Y014040D01*
X011597Y014515D01*
X011632Y014440D01*
X011572Y014530D02*
X011527Y014575D01*
X011467Y014610D01*
X011372Y014625D01*
X011292Y014605D01*
X011207Y014555D01*
X011137Y014465D01*
X011117Y014330D01*
X011152Y014220D01*
X011197Y014160D01*
X011267Y014115D01*
X011872Y014095D02*
X011862Y014615D01*
X011887Y014620D02*
X011907Y014620D01*
X011907Y014095D01*
X011872Y014095D01*
X012162Y014095D02*
X012167Y014880D01*
X012202Y014885D01*
X012202Y014095D01*
X012457Y014145D02*
X012432Y014225D01*
X012427Y014760D01*
X012462Y014760D01*
X012467Y014225D01*
X012492Y014165D01*
X012522Y014140D01*
X012677Y014130D01*
X012672Y014095D02*
X012512Y014110D01*
X012457Y014145D01*
X012817Y014245D02*
X012792Y014345D01*
X012812Y014460D01*
X012877Y014560D01*
X012992Y014615D01*
X013142Y014615D01*
X013207Y014580D01*
X013277Y014520D01*
X013297Y014490D01*
X012962Y014305D01*
X012947Y014330D01*
X013242Y014495D01*
X013157Y014580D01*
X013042Y014585D01*
X012977Y014575D01*
X012907Y014535D01*
X012857Y014465D01*
X012837Y014385D01*
X012842Y014280D01*
X012907Y014175D01*
X013007Y014125D01*
X013137Y014130D01*
X013212Y014175D01*
X013267Y014245D01*
X013282Y014305D01*
X013322Y014300D02*
X013292Y014205D01*
X013202Y014125D01*
X013117Y014095D01*
X012997Y014100D01*
X012897Y014140D01*
X012817Y014245D01*
X012672Y014575D02*
X012472Y014580D01*
X012487Y014605D02*
X012677Y014610D01*
X012672Y014575D01*
X013467Y014535D02*
X013472Y014450D01*
X013517Y014400D01*
X013692Y014330D01*
X013702Y014320D02*
X013787Y014300D01*
X013827Y014250D01*
X013822Y014170D01*
X013767Y014140D01*
X013462Y014135D01*
X013457Y014095D02*
X013767Y014105D01*
X013842Y014140D01*
X013867Y014205D01*
X013867Y014260D01*
X013827Y014315D01*
X013547Y014420D01*
X013512Y014460D01*
X013512Y014530D01*
X013542Y014565D01*
X013572Y014575D01*
X013842Y014575D01*
X013842Y014610D01*
X013562Y014605D01*
X013497Y014575D01*
X013467Y014535D01*
X013727Y014375D02*
X013772Y014345D01*
X013992Y014380D02*
X014027Y014495D01*
X014097Y014575D01*
X014202Y014620D01*
X014342Y014615D01*
X014442Y014565D01*
X014492Y014495D01*
X014517Y014445D01*
X014522Y014095D01*
X014482Y014095D02*
X014487Y014420D01*
X014442Y014515D01*
X014372Y014570D01*
X014282Y014590D01*
X014192Y014585D01*
X014122Y014550D01*
X014072Y014495D01*
X014042Y014410D01*
X014032Y014295D01*
X014077Y014210D01*
X014147Y014145D01*
X014217Y014130D01*
X014297Y014125D01*
X014377Y014165D01*
X014372Y014125D01*
X014302Y014090D01*
X014157Y014100D01*
X014082Y014150D01*
X014012Y014250D01*
X013992Y014380D01*
X014742Y014155D02*
X014737Y014125D01*
X014747Y014105D01*
X014762Y014135D01*
X014742Y014155D02*
X014782Y014165D01*
X014807Y014125D01*
X014772Y014090D01*
X015067Y014215D02*
X015027Y014300D01*
X015032Y014420D01*
X015092Y014540D01*
X015212Y014600D01*
X015347Y014615D01*
X015347Y014580D01*
X015242Y014575D01*
X015132Y014525D01*
X015082Y014435D01*
X015067Y014330D01*
X015097Y014230D01*
X015187Y014155D01*
X015277Y014135D01*
X015357Y014135D01*
X015352Y014100D02*
X015217Y014110D01*
X015127Y014155D01*
X015067Y014215D01*
X015482Y014280D02*
X015477Y014390D01*
X015497Y014455D01*
X015552Y014550D01*
X015642Y014610D01*
X015787Y014625D01*
X015687Y014620D01*
X015822Y014610D01*
X015932Y014550D01*
X015997Y014450D01*
X016012Y014325D01*
X015977Y014220D01*
X015912Y014145D01*
X015832Y014105D01*
X015747Y014085D01*
X015722Y014090D02*
X015762Y014120D01*
X015667Y014135D01*
X015582Y014185D01*
X015532Y014265D01*
X015517Y014350D01*
X015537Y014455D01*
X015587Y014535D01*
X015692Y014590D01*
X015782Y014585D01*
X015882Y014550D01*
X015932Y014500D01*
X015972Y014405D01*
X015962Y014300D01*
X015937Y014235D01*
X015887Y014175D01*
X015787Y014115D01*
X015782Y014135D01*
X015722Y014090D02*
X015622Y014115D01*
X015547Y014165D01*
X015482Y014280D01*
X016172Y014095D02*
X016177Y014495D01*
X016217Y014575D01*
X016212Y014095D01*
X016497Y014100D02*
X016492Y014550D01*
X016477Y014565D02*
X016412Y014615D01*
X016352Y014625D01*
X016292Y014615D01*
X016227Y014585D01*
X016267Y014565D02*
X016312Y014585D01*
X016382Y014590D01*
X016422Y014575D01*
X016472Y014525D01*
X016537Y014550D02*
X016537Y014090D01*
X016822Y014090D02*
X016822Y014560D01*
X016802Y014575D02*
X016717Y014620D01*
X016652Y014620D01*
X016602Y014600D01*
X016562Y014575D01*
X016607Y014570D02*
X016657Y014595D01*
X016727Y014585D01*
X016777Y014555D01*
X016802Y014510D01*
X016802Y014575D01*
X016847Y014530D02*
X016862Y014100D01*
X016552Y014525D02*
X016607Y014570D01*
X016267Y014565D02*
X016237Y014525D01*
X019265Y012853D02*
X019265Y011503D01*
X022692Y011503D01*
X022717Y011505D01*
X022742Y011503D01*
X022767Y011498D01*
X022791Y011489D01*
X022813Y011477D01*
X022833Y011462D01*
X022851Y011444D01*
X022866Y011424D01*
X022878Y011401D01*
X022887Y011378D01*
X022892Y011353D01*
X022892Y009708D01*
X023692Y010486D02*
X023692Y012240D01*
X023696Y012285D01*
X023697Y012330D01*
X023694Y012374D01*
X023687Y012419D01*
X023677Y012462D01*
X023663Y012505D01*
X023646Y012546D01*
X023626Y012586D01*
X023602Y012623D01*
X023575Y012659D01*
X023545Y012693D01*
X023513Y012724D01*
X023478Y012752D01*
X023441Y012777D01*
X023402Y012799D01*
X023362Y012817D01*
X023320Y012833D01*
X023276Y012844D01*
X023233Y012853D01*
X023232Y012853D02*
X019265Y012853D01*
X023692Y010486D02*
X023694Y010440D01*
X023700Y010394D01*
X023710Y010350D01*
X023724Y010306D01*
X023741Y010263D01*
X023761Y010223D01*
X023785Y010183D01*
X023812Y010146D01*
X023842Y010112D01*
X023875Y010080D01*
X023910Y010050D01*
X023948Y010024D01*
X023987Y010001D01*
X024028Y009981D01*
X024071Y009965D01*
X024115Y009953D01*
X024160Y009944D01*
X024206Y009938D01*
X024251Y009937D01*
X030612Y009937D01*
X030655Y009935D01*
X030698Y009929D01*
X030741Y009920D01*
X030782Y009907D01*
X030822Y009890D01*
X030861Y009870D01*
X030897Y009847D01*
X030931Y009821D01*
X030963Y009791D01*
X030993Y009759D01*
X031019Y009725D01*
X031042Y009688D01*
X031062Y009650D01*
X031079Y009610D01*
X031092Y009569D01*
X031101Y009526D01*
X031107Y009483D01*
X031109Y009440D01*
X031109Y006704D01*
X030321Y006704D01*
X030321Y008259D01*
X030319Y008293D01*
X030313Y008326D01*
X030304Y008358D01*
X030291Y008389D01*
X030275Y008419D01*
X030256Y008446D01*
X030233Y008471D01*
X030208Y008494D01*
X030181Y008513D01*
X030151Y008529D01*
X030120Y008542D01*
X030088Y008551D01*
X030055Y008557D01*
X030021Y008559D01*
X029671Y008559D01*
X029672Y008615D01*
X029668Y008671D01*
X029661Y008727D01*
X029650Y008782D01*
X029634Y008836D01*
X029616Y008889D01*
X029593Y008941D01*
X029567Y008991D01*
X029537Y009038D01*
X029505Y009084D01*
X029469Y009127D01*
X029430Y009168D01*
X029388Y009206D01*
X029344Y009240D01*
X029298Y009272D01*
X029249Y009300D01*
X029198Y009325D01*
X029146Y009346D01*
X029093Y009364D01*
X029038Y009377D01*
X028983Y009387D01*
X028927Y009393D01*
X028871Y009395D01*
X028815Y009393D01*
X028759Y009387D01*
X028704Y009377D01*
X028649Y009364D01*
X028596Y009346D01*
X028544Y009325D01*
X028493Y009300D01*
X028444Y009272D01*
X028398Y009240D01*
X028354Y009206D01*
X028312Y009168D01*
X028273Y009127D01*
X028237Y009084D01*
X028205Y009038D01*
X028175Y008991D01*
X028149Y008941D01*
X028126Y008889D01*
X028108Y008836D01*
X028092Y008782D01*
X028081Y008727D01*
X028074Y008671D01*
X028070Y008615D01*
X028071Y008559D01*
X024061Y008559D01*
X022622Y008159D02*
X022622Y007912D01*
X022622Y008159D02*
X020870Y008159D01*
X020870Y007912D01*
X020333Y007298D02*
X020333Y007096D01*
X020333Y007298D02*
X020131Y007298D01*
X020870Y006811D02*
X020870Y006564D01*
X022622Y006564D01*
X022622Y006811D01*
X023446Y006652D02*
X024509Y006652D01*
X024509Y006003D02*
X023446Y006003D01*
X023446Y005852D02*
X024509Y005852D01*
X025238Y005852D02*
X026301Y005852D01*
X026301Y005203D02*
X025238Y005203D01*
X024509Y005203D02*
X023446Y005203D01*
X020921Y004509D02*
X018171Y004509D01*
X018171Y003009D01*
X020921Y003059D01*
X020921Y004509D01*
X020921Y004468D02*
X018171Y004468D01*
X018171Y004419D02*
X020921Y004419D01*
X020921Y004371D02*
X018171Y004371D01*
X018171Y004322D02*
X020921Y004322D01*
X020921Y004274D02*
X018171Y004274D01*
X018171Y004225D02*
X020921Y004225D01*
X020921Y004177D02*
X018171Y004177D01*
X018171Y004128D02*
X020921Y004128D01*
X020921Y004080D02*
X018171Y004080D01*
X018171Y004031D02*
X020921Y004031D01*
X020921Y003983D02*
X018171Y003983D01*
X018171Y003934D02*
X020921Y003934D01*
X020921Y003886D02*
X018171Y003886D01*
X018171Y003837D02*
X020921Y003837D01*
X020921Y003789D02*
X018171Y003789D01*
X018171Y003740D02*
X020921Y003740D01*
X020921Y003692D02*
X018171Y003692D01*
X018171Y003643D02*
X020921Y003643D01*
X020921Y003595D02*
X018171Y003595D01*
X018171Y003546D02*
X020921Y003546D01*
X020921Y003498D02*
X018171Y003498D01*
X018171Y003449D02*
X020921Y003449D01*
X020921Y003401D02*
X018171Y003401D01*
X018171Y003352D02*
X020921Y003352D01*
X020921Y003304D02*
X018171Y003304D01*
X018171Y003255D02*
X020921Y003255D01*
X020921Y003207D02*
X018171Y003207D01*
X018171Y003158D02*
X020921Y003158D01*
X020921Y003110D02*
X018171Y003110D01*
X018171Y003061D02*
X020921Y003061D01*
X018392Y003013D02*
X018171Y003013D01*
X017433Y003556D02*
X017354Y003556D01*
X017354Y003634D01*
X017354Y003556D02*
X017275Y003556D01*
X017073Y003556D02*
X016994Y003556D01*
X016994Y003634D01*
X016994Y003556D02*
X016915Y003556D01*
X018759Y005723D02*
X018759Y005926D01*
X018759Y005723D02*
X018961Y005723D01*
X020131Y005723D02*
X020333Y005926D01*
X018759Y007096D02*
X018759Y007298D01*
X018961Y007298D01*
X022892Y009708D02*
X022895Y009640D01*
X022901Y009573D01*
X022911Y009507D01*
X022926Y009441D01*
X022944Y009376D01*
X022965Y009312D01*
X022991Y009250D01*
X023020Y009189D01*
X023052Y009130D01*
X023088Y009073D01*
X023127Y009018D01*
X023170Y008965D01*
X023215Y008915D01*
X023263Y008868D01*
X023314Y008824D01*
X023367Y008782D01*
X023423Y008744D01*
X023480Y008709D01*
X023540Y008678D01*
X023601Y008650D01*
X023664Y008625D01*
X023728Y008605D01*
X023794Y008588D01*
X023860Y008575D01*
X023927Y008566D01*
X023994Y008560D01*
X024061Y008559D01*
X026315Y008359D02*
X026315Y008112D01*
X026315Y008359D02*
X028067Y008359D01*
X028067Y008112D01*
X028067Y007011D02*
X028067Y006764D01*
X026315Y006764D01*
X026315Y007011D01*
X029321Y004259D02*
X029387Y004273D01*
X029453Y004291D01*
X029517Y004312D01*
X029580Y004337D01*
X029642Y004365D01*
X029702Y004397D01*
X029760Y004432D01*
X029816Y004470D01*
X029870Y004512D01*
X029921Y004556D01*
X029970Y004603D01*
X030016Y004652D01*
X030060Y004704D01*
X030100Y004759D01*
X030137Y004815D01*
X030172Y004874D01*
X030202Y004934D01*
X030230Y004996D01*
X030254Y005060D01*
X030274Y005124D01*
X030291Y005190D01*
X030304Y005257D01*
X030313Y005324D01*
X030319Y005391D01*
X030321Y005459D01*
X030321Y005916D01*
X031109Y005916D01*
X031109Y004959D01*
X031106Y004890D01*
X031099Y004821D01*
X031088Y004753D01*
X031073Y004686D01*
X031055Y004620D01*
X031033Y004554D01*
X031008Y004490D01*
X030979Y004428D01*
X030946Y004367D01*
X030910Y004308D01*
X030872Y004252D01*
X030829Y004197D01*
X030784Y004145D01*
X030737Y004095D01*
X030686Y004049D01*
X030633Y004005D01*
X030578Y003964D01*
X030520Y003926D01*
X030460Y003892D01*
X030399Y003861D01*
X030336Y003833D01*
X030271Y003809D01*
X030206Y003788D01*
X030139Y003772D01*
X030071Y003758D01*
X011917Y014765D02*
X011902Y014800D01*
X011862Y014795D01*
X011862Y014770D01*
X011877Y014745D02*
X011917Y014765D01*
X004121Y016209D02*
X004121Y016359D01*
X004119Y016398D01*
X004113Y016437D01*
X004104Y016475D01*
X004091Y016512D01*
X004074Y016548D01*
X004054Y016581D01*
X004030Y016613D01*
X004004Y016642D01*
X003975Y016668D01*
X003943Y016692D01*
X003910Y016712D01*
X003874Y016729D01*
X003837Y016742D01*
X003799Y016751D01*
X003760Y016757D01*
X003721Y016759D01*
X003682Y016757D01*
X003643Y016751D01*
X003605Y016742D01*
X003568Y016729D01*
X003532Y016712D01*
X003499Y016692D01*
X003467Y016668D01*
X003438Y016642D01*
X003412Y016613D01*
X003388Y016581D01*
X003368Y016548D01*
X003351Y016512D01*
X003338Y016475D01*
X003329Y016437D01*
X003323Y016398D01*
X003321Y016359D01*
X003321Y016209D01*
X003323Y016170D01*
X003329Y016131D01*
X003338Y016093D01*
X003351Y016056D01*
X003368Y016020D01*
X003388Y015987D01*
X003412Y015955D01*
X003438Y015926D01*
X003467Y015900D01*
X003499Y015876D01*
X003532Y015856D01*
X003568Y015839D01*
X003605Y015826D01*
X003643Y015817D01*
X003682Y015811D01*
X003721Y015809D01*
X003760Y015811D01*
X003799Y015817D01*
X003837Y015826D01*
X003874Y015839D01*
X003910Y015856D01*
X003943Y015876D01*
X003975Y015900D01*
X004004Y015926D01*
X004030Y015955D01*
X004054Y015987D01*
X004074Y016020D01*
X004091Y016056D01*
X004104Y016093D01*
X004113Y016131D01*
X004119Y016170D01*
X004121Y016209D01*
X007621Y012909D02*
X007836Y012862D01*
X008048Y012804D01*
X008257Y012736D01*
X008463Y012658D01*
X008664Y012570D01*
X008862Y012473D01*
X009054Y012366D01*
X009240Y012250D01*
X009421Y012124D01*
X009596Y011991D01*
X009764Y011849D01*
X009925Y011699D01*
X010078Y011541D01*
X010224Y011377D01*
X010361Y011205D01*
X010490Y011027D01*
X010610Y010843D01*
X010721Y010653D01*
X010221Y009659D02*
X010158Y009821D01*
X010088Y009980D01*
X010010Y010135D01*
X009925Y010286D01*
X009833Y010434D01*
X009734Y010576D01*
X009629Y010714D01*
X009517Y010847D01*
X009399Y010975D01*
X009275Y011097D01*
X009146Y011212D01*
X009011Y011322D01*
X008871Y011425D01*
X008727Y011522D01*
X008578Y011611D01*
X008425Y011694D01*
X008269Y011769D01*
X008109Y011837D01*
X007946Y011897D01*
X007780Y011949D01*
X007612Y011994D01*
X007442Y012030D01*
X007271Y012059D01*
X021818Y002959D02*
X023713Y003161D01*
X025598Y003446D01*
X027468Y003812D01*
X029321Y004260D01*
X030072Y003759D02*
X028033Y003274D01*
X025976Y002879D01*
X023903Y002573D01*
X021818Y002359D01*
D11*
X021784Y003084D02*
X021551Y003084D01*
X021551Y003271D02*
X021784Y003271D01*
X021831Y003224D01*
X021831Y003130D01*
X021784Y003084D01*
X021784Y003378D02*
X021831Y003425D01*
X021831Y003518D01*
X021784Y003565D01*
X021738Y003565D01*
X021691Y003518D01*
X021691Y003425D01*
X021644Y003378D01*
X021598Y003378D01*
X021551Y003425D01*
X021551Y003518D01*
X021598Y003565D01*
X021551Y003673D02*
X021551Y003813D01*
X021598Y003860D01*
X021644Y003860D01*
X021691Y003813D01*
X021691Y003673D01*
X021831Y003673D02*
X021551Y003673D01*
X021691Y003813D02*
X021738Y003860D01*
X021784Y003860D01*
X021831Y003813D01*
X021831Y003673D01*
X022237Y003688D02*
X022237Y003370D01*
X023025Y003370D01*
X023025Y003688D01*
X022237Y003688D01*
X022237Y003780D02*
X022237Y004098D01*
X023025Y004098D01*
X023025Y003780D01*
X022237Y003780D01*
X021691Y003968D02*
X021691Y004154D01*
X021598Y004262D02*
X021784Y004262D01*
X021831Y004309D01*
X021831Y004402D01*
X021784Y004449D01*
X021598Y004449D02*
X021551Y004402D01*
X021551Y004309D01*
X021598Y004262D01*
X023183Y004769D02*
X023183Y005086D01*
X023972Y005086D01*
X023972Y004769D01*
X023183Y004769D01*
X025647Y004847D02*
X025647Y004529D01*
X026436Y004529D01*
X026436Y004847D01*
X025647Y004847D01*
X025647Y004435D02*
X026436Y004435D01*
X026436Y004118D01*
X025647Y004118D01*
X025647Y004435D01*
X023756Y008202D02*
X023569Y008202D01*
X023663Y008202D02*
X023663Y008482D01*
X023569Y008389D01*
X023461Y008435D02*
X023461Y008342D01*
X023415Y008295D01*
X023275Y008295D01*
X023368Y008295D02*
X023461Y008202D01*
X023275Y008202D02*
X023275Y008482D01*
X023415Y008482D01*
X023461Y008435D01*
X023167Y008482D02*
X023167Y008295D01*
X023073Y008202D01*
X022980Y008295D01*
X022980Y008482D01*
X021186Y008393D02*
X020869Y008393D01*
X020869Y009182D01*
X021186Y009182D01*
X021186Y008393D01*
X021186Y009283D02*
X020869Y009283D01*
X020869Y010072D01*
X021186Y010072D01*
X021186Y009283D01*
X021186Y010183D02*
X020868Y010183D01*
X020868Y010972D01*
X021186Y010972D01*
X021186Y010183D01*
X017626Y008035D02*
X017626Y007246D01*
X017308Y007246D01*
X017308Y008035D01*
X017626Y008035D01*
X016542Y007689D02*
X016355Y007689D01*
X016448Y007689D02*
X016448Y007969D01*
X016355Y007876D01*
X016247Y007969D02*
X016154Y007969D01*
X016200Y007969D02*
X016200Y007736D01*
X016154Y007689D01*
X016107Y007689D01*
X016060Y007736D01*
X015953Y007736D02*
X015906Y007689D01*
X015812Y007689D01*
X015766Y007736D01*
X015812Y007829D02*
X015906Y007829D01*
X015953Y007782D01*
X015953Y007736D01*
X015812Y007829D02*
X015766Y007876D01*
X015766Y007923D01*
X015812Y007969D01*
X015906Y007969D01*
X015953Y007923D01*
X016944Y006863D02*
X017164Y006863D01*
X017177Y006861D01*
X017189Y006856D01*
X017199Y006848D01*
X017207Y006838D01*
X017212Y006826D01*
X017214Y006813D01*
X017214Y006103D01*
X017212Y006090D01*
X017207Y006078D01*
X017199Y006068D01*
X017189Y006060D01*
X017177Y006055D01*
X017164Y006053D01*
X016944Y006053D01*
X016931Y006055D01*
X016919Y006060D01*
X016909Y006068D01*
X016901Y006078D01*
X016896Y006090D01*
X016894Y006103D01*
X016894Y006813D01*
X016896Y006826D01*
X016901Y006838D01*
X016909Y006848D01*
X016919Y006856D01*
X016931Y006861D01*
X016944Y006863D01*
X015292Y006650D02*
X015292Y006330D01*
X015132Y006330D01*
X015078Y006383D01*
X015078Y006597D01*
X015132Y006650D01*
X015292Y006650D01*
X015238Y006050D02*
X015132Y006050D01*
X015078Y005997D01*
X015238Y006050D02*
X015292Y005997D01*
X015292Y005783D01*
X015238Y005730D01*
X015132Y005730D01*
X015078Y005783D01*
X014756Y005429D02*
X014756Y005112D01*
X013967Y005112D01*
X013967Y005429D01*
X014756Y005429D01*
X016835Y005073D02*
X016835Y004284D01*
X017152Y004284D01*
X017152Y005073D01*
X016835Y005073D01*
X017195Y005073D02*
X017512Y005073D01*
X017512Y004284D01*
X017195Y004284D01*
X017195Y005073D01*
X006850Y005139D02*
X006830Y005139D01*
X006760Y005209D02*
X006740Y005209D01*
X006650Y005289D02*
X006630Y005289D01*
X006560Y005179D02*
X006540Y005179D01*
X006460Y005259D02*
X006440Y005259D01*
X006360Y005149D02*
X006340Y005149D01*
X006270Y005239D02*
X006250Y005239D01*
X006160Y005129D02*
X006140Y005129D01*
X006240Y005039D02*
X006260Y005039D01*
X006340Y004959D02*
X006360Y004959D01*
X006430Y004889D02*
X006450Y004889D01*
X006530Y004809D02*
X006550Y004809D01*
X006610Y004719D02*
X006630Y004719D01*
X006720Y004649D02*
X006740Y004649D01*
X006810Y004749D02*
X006830Y004749D01*
X006740Y004839D02*
X006720Y004839D01*
X006650Y004919D02*
X006630Y004919D01*
X006550Y004989D02*
X006530Y004989D01*
X006460Y005069D02*
X006440Y005069D01*
X006630Y005109D02*
X006650Y005109D01*
X006730Y005029D02*
X006750Y005029D01*
X006820Y004949D02*
X006840Y004949D01*
X006360Y004769D02*
X006340Y004769D01*
X006420Y004689D02*
X006440Y004689D01*
X006520Y004619D02*
X006540Y004619D01*
X006340Y004589D02*
X006320Y004589D01*
X006250Y004659D02*
X006230Y004659D01*
X006160Y004729D02*
X006140Y004729D01*
X006230Y004849D02*
X006250Y004849D01*
X006160Y004929D02*
X006140Y004929D01*
X004041Y003705D02*
X004016Y003719D01*
X003963Y003732D01*
X003896Y003737D01*
X003827Y003726D01*
X003770Y003711D01*
X003714Y003690D01*
X003682Y003672D01*
X003654Y003648D01*
X003625Y003616D01*
X003596Y003571D01*
X003575Y003526D01*
X003555Y003464D01*
X003537Y003404D01*
X003522Y003280D01*
X003520Y003152D01*
X003538Y003068D01*
X003563Y002985D01*
X003594Y002924D01*
X003647Y002861D01*
X003715Y002814D01*
X003785Y002781D01*
X003838Y002769D01*
X003856Y002765D01*
X003915Y002766D01*
X003929Y002766D02*
X003984Y002771D01*
X004048Y002793D01*
X004094Y002818D01*
X004137Y002856D01*
X004165Y002891D01*
X004179Y002928D01*
X004184Y002964D01*
X004181Y002984D01*
X004169Y003008D01*
X004155Y003024D01*
X004135Y003032D01*
X004126Y003033D01*
X004104Y003026D01*
X004086Y003011D01*
X004057Y002972D01*
X004016Y002938D01*
X003962Y002916D01*
X003943Y002910D01*
X003861Y002908D01*
X003806Y002925D01*
X003766Y002948D01*
X003725Y002984D01*
X003692Y003028D01*
X003669Y003077D01*
X003652Y003122D01*
X003644Y003162D01*
X003641Y003298D01*
X003646Y003314D01*
X003658Y003392D01*
X003684Y003464D01*
X003708Y003504D01*
X003751Y003540D01*
X003790Y003561D01*
X003850Y003583D01*
X003881Y003589D01*
X003949Y003591D01*
X003993Y003571D01*
X004026Y003534D01*
X004048Y003498D01*
X004060Y003482D01*
X004085Y003466D01*
X004116Y003464D01*
X004134Y003478D01*
X004150Y003498D01*
X004158Y003513D01*
X004158Y003548D01*
X004155Y003564D01*
X004121Y003621D01*
X004079Y003672D01*
X004041Y003705D01*
X003929Y002766D02*
X003895Y002767D01*
D12*
X010580Y005079D02*
X010921Y005079D01*
X010921Y004909D01*
X010864Y004852D01*
X010750Y004852D01*
X010694Y004909D01*
X010694Y005079D01*
X010694Y005220D02*
X010637Y005220D01*
X010580Y005277D01*
X010580Y005390D01*
X010637Y005447D01*
X010750Y005390D02*
X010750Y005277D01*
X010694Y005220D01*
X010864Y005220D02*
X010921Y005277D01*
X010921Y005390D01*
X010864Y005447D01*
X010807Y005447D01*
X010750Y005390D01*
X010750Y005589D02*
X010750Y005816D01*
X010637Y005702D02*
X010864Y005702D01*
X010750Y004711D02*
X010750Y004484D01*
X016627Y007777D02*
X016727Y007777D01*
X016927Y007577D01*
X016927Y006877D01*
X017731Y006808D02*
X018223Y006808D01*
X018223Y005863D01*
X017731Y005863D01*
X017731Y006808D01*
X017731Y007218D02*
X017731Y008163D01*
X018223Y008163D01*
X018223Y007218D01*
X017731Y007218D01*
X017741Y008406D02*
X018314Y008406D01*
X018314Y009647D01*
X017741Y009647D01*
X017741Y008406D01*
X017337Y008517D02*
X016217Y008517D01*
X016217Y009037D01*
X017337Y009037D01*
X017337Y008517D01*
X018591Y008406D02*
X019164Y008406D01*
X019164Y009647D01*
X018591Y009647D01*
X018591Y008406D01*
X018591Y009806D02*
X019164Y009806D01*
X019164Y011047D01*
X018591Y011047D01*
X018591Y009806D01*
X018313Y009807D02*
X017740Y009807D01*
X017740Y011049D01*
X018313Y011049D01*
X018313Y009807D01*
X021555Y010022D02*
X021555Y009530D01*
X022500Y009530D01*
X022500Y010022D01*
X021555Y010022D01*
X021555Y010131D02*
X021555Y010623D01*
X022500Y010623D01*
X022500Y010131D01*
X021555Y010131D01*
X021555Y010731D02*
X021555Y011223D01*
X022500Y011223D01*
X022500Y010731D01*
X021555Y010731D01*
X023777Y008327D02*
X024127Y008327D01*
X024174Y006485D02*
X024174Y006170D01*
X023781Y006327D01*
X024174Y006485D01*
X025048Y006613D02*
X025048Y006040D01*
X026289Y006040D01*
X026289Y006613D01*
X025048Y006613D01*
X025573Y005527D02*
X025966Y005685D01*
X025966Y005370D01*
X025573Y005527D01*
X026833Y006041D02*
X026833Y006614D01*
X028075Y006614D01*
X028075Y006041D01*
X026833Y006041D01*
X029283Y006122D02*
X029283Y005896D01*
X029340Y005839D01*
X029453Y005839D01*
X029510Y005896D01*
X029510Y006122D02*
X029453Y006179D01*
X029340Y006179D01*
X029283Y006122D01*
X029283Y007189D02*
X029453Y007189D01*
X029510Y007246D01*
X029510Y007472D01*
X029453Y007529D01*
X029283Y007529D01*
X029283Y007189D01*
X029340Y007789D02*
X029283Y007846D01*
X029340Y007789D02*
X029453Y007789D01*
X029510Y007846D01*
X029510Y007902D01*
X029453Y007959D01*
X029340Y007959D01*
X029283Y008016D01*
X029283Y008072D01*
X029340Y008129D01*
X029453Y008129D01*
X029510Y008072D01*
X024174Y005527D02*
X023781Y005685D01*
X023781Y005370D01*
X024174Y005527D01*
X022987Y005337D02*
X022987Y004817D01*
X021867Y004817D01*
X021867Y005337D01*
X022987Y005337D01*
X022931Y005881D02*
X021986Y005881D01*
X021986Y006373D01*
X022931Y006373D01*
X022931Y005881D01*
X021819Y005881D02*
X021819Y006373D01*
X020874Y006373D01*
X020874Y005881D01*
X021819Y005881D01*
X021836Y013243D02*
X022036Y013243D01*
X021936Y013243D02*
X021936Y013544D01*
X021836Y013444D01*
X021704Y013243D02*
X021504Y013243D01*
X021604Y013243D02*
X021604Y013544D01*
X021504Y013444D01*
X021373Y013544D02*
X021173Y013243D01*
X021041Y013243D02*
X020841Y013243D01*
X021041Y013444D01*
X021041Y013494D01*
X020991Y013544D01*
X020891Y013544D01*
X020841Y013494D01*
X020710Y013494D02*
X020660Y013544D01*
X020560Y013544D01*
X020510Y013494D01*
X020378Y013494D02*
X020178Y013293D01*
X020228Y013243D01*
X020328Y013243D01*
X020378Y013293D01*
X020378Y013494D01*
X020328Y013544D01*
X020228Y013544D01*
X020178Y013494D01*
X020178Y013293D01*
X020047Y013243D02*
X019847Y013243D01*
X020047Y013444D01*
X020047Y013494D01*
X019997Y013544D01*
X019897Y013544D01*
X019847Y013494D01*
X020427Y013842D02*
X020527Y013742D01*
X020627Y013842D01*
X020627Y014043D01*
X020758Y013993D02*
X020808Y014043D01*
X020909Y014043D01*
X020959Y013993D01*
X020959Y013942D01*
X020758Y013742D01*
X020959Y013742D01*
X021090Y013742D02*
X021140Y013742D01*
X021140Y013792D01*
X021090Y013792D01*
X021090Y013742D01*
X021256Y013792D02*
X021306Y013742D01*
X021406Y013742D01*
X021456Y013792D01*
X021456Y013842D01*
X021406Y013892D01*
X021356Y013892D01*
X021406Y013892D02*
X021456Y013942D01*
X021456Y013993D01*
X021406Y014043D01*
X021306Y014043D01*
X021256Y013993D01*
X021442Y014214D02*
X021262Y014334D01*
X021182Y014294D01*
X021042Y014634D01*
X021082Y014614D02*
X021232Y014814D01*
X021182Y015064D01*
X020982Y015164D01*
X020782Y015164D01*
X020632Y015014D01*
X020632Y014714D01*
X020782Y014614D01*
X020632Y014364D01*
X020582Y014364D01*
X020432Y014264D01*
X020332Y014364D01*
X020432Y014514D01*
X020332Y014764D01*
X020132Y014814D01*
X020132Y014964D01*
X020332Y014964D01*
X020432Y015214D01*
X020282Y015414D01*
X020432Y015514D01*
X020582Y015364D01*
X020782Y015464D01*
X020832Y015664D01*
X020982Y015664D01*
X021032Y015464D01*
X021232Y015364D01*
X021432Y015514D01*
X021532Y015414D01*
X021432Y015214D01*
X021532Y014964D01*
X021732Y014964D01*
X021732Y014814D01*
X021482Y014764D01*
X021432Y014514D01*
X021532Y014364D01*
X021432Y014264D01*
X021282Y014364D01*
X021182Y014314D01*
X021082Y014614D01*
X021084Y014616D02*
X021453Y014616D01*
X021441Y014558D02*
X021101Y014558D01*
X021120Y014499D02*
X021442Y014499D01*
X021452Y014534D02*
X021582Y014354D01*
X021442Y014214D01*
X021434Y014265D02*
X021430Y014265D01*
X021492Y014324D02*
X021342Y014324D01*
X021202Y014324D02*
X021179Y014324D01*
X021159Y014382D02*
X021520Y014382D01*
X021481Y014441D02*
X021140Y014441D01*
X021128Y014675D02*
X021464Y014675D01*
X021476Y014733D02*
X021172Y014733D01*
X021216Y014792D02*
X021622Y014792D01*
X021532Y014734D02*
X021752Y014774D01*
X021752Y014974D01*
X021532Y015014D01*
X021507Y015026D02*
X021190Y015026D01*
X021201Y014967D02*
X021531Y014967D01*
X021484Y015084D02*
X021141Y015084D01*
X021024Y015143D02*
X021461Y015143D01*
X021437Y015201D02*
X020427Y015201D01*
X020392Y015204D02*
X020262Y015394D01*
X020402Y015534D01*
X020592Y015404D01*
X020608Y015377D02*
X021206Y015377D01*
X021249Y015377D02*
X021514Y015377D01*
X021511Y015435D02*
X021327Y015435D01*
X021242Y015404D02*
X021442Y015534D01*
X021582Y015394D01*
X021442Y015204D01*
X021455Y015260D02*
X020398Y015260D01*
X020354Y015318D02*
X021484Y015318D01*
X021452Y015494D02*
X021405Y015494D01*
X021089Y015435D02*
X020725Y015435D01*
X020772Y015474D02*
X020822Y015714D01*
X021012Y015714D01*
X021062Y015474D01*
X021025Y015494D02*
X020790Y015494D01*
X020804Y015552D02*
X021010Y015552D01*
X020995Y015611D02*
X020819Y015611D01*
X020569Y015377D02*
X020310Y015377D01*
X020314Y015435D02*
X020511Y015435D01*
X020452Y015494D02*
X020402Y015494D01*
X020404Y015143D02*
X020761Y015143D01*
X020703Y015084D02*
X020380Y015084D01*
X020357Y015026D02*
X020644Y015026D01*
X020632Y014967D02*
X020334Y014967D01*
X020312Y015014D02*
X020082Y014974D01*
X020082Y014774D01*
X020302Y014734D01*
X020344Y014733D02*
X020632Y014733D01*
X020632Y014792D02*
X020220Y014792D01*
X020132Y014850D02*
X020632Y014850D01*
X020632Y014909D02*
X020132Y014909D01*
X020368Y014675D02*
X020691Y014675D01*
X020778Y014616D02*
X020391Y014616D01*
X020415Y014558D02*
X020748Y014558D01*
X020713Y014499D02*
X020422Y014499D01*
X020382Y014534D02*
X020262Y014354D01*
X020402Y014214D01*
X020582Y014334D01*
X020652Y014294D01*
X020802Y014634D01*
X020678Y014441D02*
X020383Y014441D01*
X020344Y014382D02*
X020643Y014382D01*
X020522Y014324D02*
X020372Y014324D01*
X020431Y014265D02*
X020434Y014265D01*
X020427Y014043D02*
X020427Y013842D01*
X020710Y013494D02*
X020710Y013444D01*
X020510Y013243D01*
X020710Y013243D01*
X020595Y015400D02*
X020637Y015423D01*
X020680Y015442D01*
X020725Y015459D01*
X020771Y015471D01*
X020304Y014718D02*
X020319Y014671D01*
X020337Y014625D01*
X020359Y014581D01*
X020384Y014539D01*
X020310Y015016D02*
X020321Y015056D01*
X020335Y015095D01*
X020351Y015132D01*
X020370Y015169D01*
X020391Y015204D01*
X020802Y014634D02*
X020774Y014650D01*
X020747Y014669D01*
X020724Y014691D01*
X020703Y014716D01*
X020685Y014744D01*
X020670Y014773D01*
X020660Y014804D01*
X020652Y014835D01*
X020649Y014868D01*
X020650Y014900D01*
X020654Y014933D01*
X020663Y014964D01*
X020675Y014994D01*
X020690Y015023D01*
X020709Y015050D01*
X020731Y015074D01*
X020755Y015095D01*
X020782Y015114D01*
X020811Y015129D01*
X020842Y015140D01*
X020873Y015148D01*
X020906Y015152D01*
X020938Y015152D01*
X020971Y015148D01*
X021002Y015140D01*
X021033Y015129D01*
X021062Y015114D01*
X021089Y015095D01*
X021113Y015074D01*
X021135Y015050D01*
X021154Y015023D01*
X021169Y014994D01*
X021181Y014964D01*
X021190Y014933D01*
X021194Y014900D01*
X021195Y014868D01*
X021192Y014835D01*
X021184Y014804D01*
X021174Y014773D01*
X021159Y014744D01*
X021141Y014716D01*
X021120Y014691D01*
X021097Y014669D01*
X021070Y014650D01*
X021042Y014634D01*
X021534Y015015D02*
X021522Y015055D01*
X021507Y015094D01*
X021489Y015132D01*
X021469Y015168D01*
X021447Y015203D01*
X021213Y014909D02*
X021732Y014909D01*
X021732Y014850D02*
X021225Y014850D01*
X021242Y015404D02*
X021199Y015427D01*
X021155Y015447D01*
X021109Y015463D01*
X021063Y015475D01*
X021531Y014735D02*
X021521Y014693D01*
X021508Y014652D01*
X021492Y014612D01*
X021473Y014573D01*
X021451Y014536D01*
X004040Y009179D02*
X004040Y008689D01*
D13*
X029270Y005359D02*
X029503Y005359D01*
X029387Y005476D02*
X029387Y005242D01*
D14*
X028858Y017378D02*
X028858Y017948D01*
X028668Y017948D02*
X029048Y017948D01*
X028429Y017948D02*
X028238Y017948D01*
X028333Y017948D02*
X028333Y017378D01*
X028238Y017378D02*
X028429Y017378D01*
X027974Y017378D02*
X027689Y017663D01*
X027594Y017568D02*
X027974Y017948D01*
X027594Y017948D02*
X027594Y017378D01*
X026685Y017473D02*
X026685Y017663D01*
X026495Y017663D01*
X026685Y017473D02*
X026590Y017378D01*
X026400Y017378D01*
X026305Y017473D01*
X026305Y017853D01*
X026400Y017948D01*
X026590Y017948D01*
X026685Y017853D01*
X026040Y017948D02*
X026040Y017378D01*
X025660Y017948D01*
X025660Y017378D01*
X025421Y017378D02*
X025230Y017378D01*
X025326Y017378D02*
X025326Y017948D01*
X025421Y017948D02*
X025230Y017948D01*
X024966Y017853D02*
X024871Y017948D01*
X024681Y017948D01*
X024586Y017853D01*
X024586Y017473D01*
X024681Y017378D01*
X024871Y017378D01*
X024966Y017473D01*
X024966Y017663D01*
X024776Y017663D01*
X024322Y017663D02*
X024227Y017568D01*
X023941Y017568D01*
X023941Y017378D02*
X023941Y017948D01*
X024227Y017948D01*
X024322Y017853D01*
X024322Y017663D01*
X024132Y017568D02*
X024322Y017378D01*
X023677Y017378D02*
X023677Y017758D01*
X023487Y017948D01*
X023297Y017758D01*
X023297Y017378D01*
X023033Y017378D02*
X023033Y017948D01*
X023033Y017663D02*
X022652Y017663D01*
X022652Y017378D02*
X022652Y017948D01*
X022388Y017853D02*
X022293Y017948D01*
X022103Y017948D01*
X022008Y017853D01*
X022008Y017473D01*
X022103Y017378D01*
X022293Y017378D01*
X022388Y017473D01*
X023297Y017663D02*
X023677Y017663D01*
X021099Y017473D02*
X021004Y017378D01*
X020814Y017378D01*
X020719Y017473D01*
X020719Y017853D01*
X020814Y017948D01*
X021004Y017948D01*
X021099Y017853D01*
X020454Y017663D02*
X020074Y017663D01*
X019810Y017568D02*
X019810Y017473D01*
X019715Y017378D01*
X019430Y017378D01*
X019430Y017948D01*
X019715Y017948D01*
X019810Y017853D01*
X019810Y017758D01*
X019715Y017663D01*
X019430Y017663D01*
X019165Y017568D02*
X019165Y017473D01*
X019070Y017378D01*
X018880Y017378D01*
X018785Y017473D01*
X018880Y017663D02*
X019070Y017663D01*
X019165Y017568D01*
X018880Y017663D02*
X018785Y017758D01*
X018785Y017853D01*
X018880Y017948D01*
X019070Y017948D01*
X019165Y017853D01*
X019715Y017663D02*
X019810Y017568D01*
X018521Y017473D02*
X018426Y017378D01*
X018235Y017378D01*
X018140Y017473D01*
X018140Y017948D01*
X018521Y017948D02*
X018521Y017473D01*
X017232Y017473D02*
X017137Y017378D01*
X016946Y017378D01*
X016851Y017473D01*
X016851Y017853D01*
X016946Y017948D01*
X017137Y017948D01*
X017232Y017853D01*
X016587Y017853D02*
X016587Y017758D01*
X016492Y017663D01*
X016207Y017663D01*
X015943Y017663D02*
X015943Y017473D01*
X015847Y017378D01*
X015657Y017378D01*
X015562Y017473D01*
X015562Y017853D01*
X015657Y017948D01*
X015847Y017948D01*
X015943Y017853D01*
X015943Y017663D02*
X015752Y017663D01*
X016207Y017378D02*
X016207Y017948D01*
X016492Y017948D01*
X016587Y017853D01*
X016492Y017663D02*
X016587Y017568D01*
X016587Y017473D01*
X016492Y017378D01*
X016207Y017378D01*
X029957Y017378D02*
X029957Y017948D01*
X030242Y017948D01*
X030337Y017853D01*
X030337Y017663D01*
X030242Y017568D01*
X029957Y017568D01*
X030602Y017568D02*
X030887Y017568D01*
X030982Y017663D01*
X030982Y017853D01*
X030887Y017948D01*
X030602Y017948D01*
X030602Y017378D01*
X030792Y017568D02*
X030982Y017378D01*
X031246Y017473D02*
X031341Y017378D01*
X031531Y017378D01*
X031627Y017473D01*
X031627Y017853D01*
X031531Y017948D01*
X031341Y017948D01*
X031246Y017853D01*
X031246Y017473D01*
D15*
X031225Y016615D02*
X030945Y016615D01*
X030945Y016195D01*
X031225Y016195D01*
X031405Y016195D02*
X031405Y016615D01*
X031616Y016615D01*
X031686Y016545D01*
X031686Y016405D01*
X031616Y016335D01*
X031405Y016335D01*
X031546Y016335D02*
X031686Y016195D01*
X031616Y015913D02*
X031686Y015843D01*
X031686Y015703D01*
X031616Y015633D01*
X031405Y015633D01*
X031405Y015493D02*
X031405Y015913D01*
X031616Y015913D01*
X031225Y015913D02*
X030945Y015913D01*
X030945Y015493D01*
X031225Y015493D01*
X031085Y015703D02*
X030945Y015703D01*
X030765Y015913D02*
X030485Y015913D01*
X030625Y015913D02*
X030625Y015493D01*
X030304Y015493D02*
X030164Y015633D01*
X030234Y015633D02*
X030024Y015633D01*
X030024Y015493D02*
X030024Y015913D01*
X030234Y015913D01*
X030304Y015843D01*
X030304Y015703D01*
X030234Y015633D01*
X029844Y015493D02*
X029564Y015493D01*
X029564Y015913D01*
X029844Y015913D01*
X029704Y015703D02*
X029564Y015703D01*
X029384Y015633D02*
X029244Y015493D01*
X029103Y015633D01*
X029103Y015913D01*
X028923Y015913D02*
X028923Y015493D01*
X028643Y015913D01*
X028643Y015493D01*
X028463Y015563D02*
X028463Y015843D01*
X028393Y015913D01*
X028253Y015913D01*
X028183Y015843D01*
X028183Y015563D01*
X028253Y015493D01*
X028393Y015493D01*
X028463Y015563D01*
X028393Y015212D02*
X028183Y015212D01*
X028183Y014791D01*
X028183Y014932D02*
X028393Y014932D01*
X028463Y015002D01*
X028463Y015142D01*
X028393Y015212D01*
X028643Y015142D02*
X028643Y014861D01*
X028713Y014791D01*
X028853Y014791D01*
X028923Y014861D01*
X028923Y015002D01*
X028783Y015002D01*
X028643Y015142D02*
X028713Y015212D01*
X028853Y015212D01*
X028923Y015142D01*
X029103Y015212D02*
X029103Y014791D01*
X029384Y014791D01*
X029244Y015002D02*
X029103Y015002D01*
X029103Y015212D02*
X029384Y015212D01*
X029564Y015002D02*
X029844Y015002D01*
X030024Y014932D02*
X030234Y014932D01*
X030304Y015002D01*
X030304Y015142D01*
X030234Y015212D01*
X030024Y015212D01*
X030024Y014791D01*
X030011Y014510D02*
X029871Y014510D01*
X029941Y014510D02*
X029941Y014090D01*
X029871Y014090D02*
X030011Y014090D01*
X030178Y014090D02*
X030178Y014510D01*
X030458Y014510D01*
X030638Y014510D02*
X030778Y014510D01*
X030708Y014510D02*
X030708Y014090D01*
X030638Y014090D02*
X030778Y014090D01*
X030945Y014090D02*
X031225Y014090D01*
X031405Y014090D02*
X031405Y014510D01*
X031616Y014510D01*
X031686Y014440D01*
X031686Y014300D01*
X031616Y014230D01*
X031405Y014230D01*
X031546Y014230D02*
X031686Y014090D01*
X031085Y014300D02*
X030945Y014300D01*
X030945Y014510D02*
X030945Y014090D01*
X030318Y014300D02*
X030178Y014300D01*
X029691Y014090D02*
X029410Y014090D01*
X029410Y014510D01*
X029230Y014440D02*
X029230Y014300D01*
X029160Y014230D01*
X028950Y014230D01*
X028950Y014090D02*
X028950Y014510D01*
X029160Y014510D01*
X029230Y014440D01*
X028770Y014510D02*
X028770Y014090D01*
X028490Y014090D02*
X028490Y014510D01*
X028630Y014370D01*
X028770Y014510D01*
X028463Y014791D02*
X028323Y014932D01*
X028003Y015002D02*
X027722Y015002D01*
X027722Y015072D02*
X027722Y014791D01*
X027542Y014791D02*
X027542Y015212D01*
X027542Y015002D02*
X027262Y015002D01*
X027262Y015212D02*
X027262Y014791D01*
X027082Y014861D02*
X027012Y014791D01*
X026872Y014791D01*
X026801Y014861D01*
X026801Y015142D01*
X026872Y015212D01*
X027012Y015212D01*
X027082Y015142D01*
X026942Y015493D02*
X026942Y015913D01*
X027082Y015913D02*
X026801Y015913D01*
X026621Y015843D02*
X026551Y015913D01*
X026411Y015913D01*
X026341Y015843D01*
X026341Y015773D01*
X026411Y015703D01*
X026551Y015703D01*
X026621Y015633D01*
X026621Y015563D01*
X026551Y015493D01*
X026411Y015493D01*
X026341Y015563D01*
X026161Y015563D02*
X026161Y015843D01*
X026091Y015913D01*
X025951Y015913D01*
X025881Y015843D01*
X025881Y015563D01*
X025951Y015493D01*
X026091Y015493D01*
X026161Y015563D01*
X025701Y015563D02*
X025701Y015843D01*
X025630Y015913D01*
X025490Y015913D01*
X025420Y015843D01*
X025420Y015563D01*
X025490Y015493D01*
X025630Y015493D01*
X025701Y015563D01*
X025701Y015212D02*
X025420Y015212D01*
X025420Y014791D01*
X025240Y014791D02*
X025240Y015072D01*
X025100Y015212D01*
X024960Y015072D01*
X024960Y014791D01*
X024780Y014861D02*
X024710Y014791D01*
X024570Y014791D01*
X024500Y014861D01*
X024570Y015002D02*
X024710Y015002D01*
X024780Y014932D01*
X024780Y014861D01*
X024960Y015002D02*
X025240Y015002D01*
X025420Y015002D02*
X025560Y015002D01*
X025881Y015002D02*
X026021Y015002D01*
X026161Y015212D02*
X025881Y015212D01*
X025881Y014791D01*
X026161Y014791D01*
X026161Y014510D02*
X026161Y014160D01*
X026091Y014090D01*
X025951Y014090D01*
X025881Y014160D01*
X025881Y014510D01*
X025701Y014370D02*
X025701Y014090D01*
X025420Y014090D02*
X025420Y014370D01*
X025560Y014510D01*
X025701Y014370D01*
X025701Y014300D02*
X025420Y014300D01*
X026341Y014090D02*
X026551Y014090D01*
X026621Y014160D01*
X026621Y014440D01*
X026551Y014510D01*
X026341Y014510D01*
X026341Y014090D01*
X026801Y014090D02*
X026942Y014090D01*
X026872Y014090D02*
X026872Y014510D01*
X026942Y014510D02*
X026801Y014510D01*
X027108Y014440D02*
X027108Y014160D01*
X027178Y014090D01*
X027319Y014090D01*
X027389Y014160D01*
X027389Y014440D01*
X027319Y014510D01*
X027178Y014510D01*
X027108Y014440D01*
X028003Y014791D02*
X028003Y015072D01*
X027862Y015212D01*
X027722Y015072D01*
X027792Y015493D02*
X027932Y015493D01*
X028003Y015563D01*
X027792Y015493D02*
X027722Y015563D01*
X027722Y015843D01*
X027792Y015913D01*
X027932Y015913D01*
X028003Y015843D01*
X027862Y016195D02*
X027862Y016405D01*
X028003Y016545D01*
X028003Y016615D01*
X027862Y016405D02*
X027722Y016545D01*
X027722Y016615D01*
X027542Y016545D02*
X027542Y016405D01*
X027472Y016335D01*
X027262Y016335D01*
X027402Y016335D02*
X027542Y016195D01*
X027262Y016195D02*
X027262Y016615D01*
X027472Y016615D01*
X027542Y016545D01*
X027082Y016615D02*
X026801Y016615D01*
X026801Y016195D01*
X027082Y016195D01*
X026942Y016405D02*
X026801Y016405D01*
X026621Y016615D02*
X026341Y016615D01*
X026481Y016615D02*
X026481Y016195D01*
X026021Y016195D02*
X026021Y016615D01*
X025881Y016615D02*
X026161Y016615D01*
X025701Y016475D02*
X025701Y016195D01*
X025701Y016405D02*
X025420Y016405D01*
X025420Y016475D02*
X025420Y016195D01*
X025240Y016265D02*
X025170Y016195D01*
X024960Y016195D01*
X024960Y016615D01*
X025170Y016615D01*
X025240Y016545D01*
X025240Y016475D01*
X025170Y016405D01*
X024960Y016405D01*
X025170Y016405D02*
X025240Y016335D01*
X025240Y016265D01*
X025420Y016475D02*
X025560Y016615D01*
X025701Y016475D01*
X025170Y015913D02*
X024960Y015913D01*
X024960Y015493D01*
X025170Y015493D01*
X025240Y015563D01*
X025240Y015633D01*
X025170Y015703D01*
X024960Y015703D01*
X025170Y015703D02*
X025240Y015773D01*
X025240Y015843D01*
X025170Y015913D01*
X024710Y015212D02*
X024570Y015212D01*
X024500Y015142D01*
X024500Y015072D01*
X024570Y015002D01*
X024780Y015142D02*
X024710Y015212D01*
X028029Y014370D02*
X028029Y014090D01*
X028309Y014090D02*
X028309Y014370D01*
X028169Y014510D01*
X028029Y014370D01*
X028029Y014300D02*
X028309Y014300D01*
X029384Y015633D02*
X029384Y015913D01*
X029384Y016195D02*
X029384Y016615D01*
X029384Y016405D02*
X029103Y016405D01*
X029103Y016195D02*
X029103Y016615D01*
X028923Y016545D02*
X028853Y016615D01*
X028713Y016615D01*
X028643Y016545D01*
X028643Y016265D01*
X028713Y016195D01*
X028853Y016195D01*
X028923Y016265D01*
X029564Y016195D02*
X029564Y016475D01*
X029704Y016615D01*
X029844Y016475D01*
X029844Y016195D01*
X030024Y016195D02*
X030024Y016615D01*
X030234Y016615D01*
X030304Y016545D01*
X030304Y016405D01*
X030234Y016335D01*
X030024Y016335D01*
X030164Y016335D02*
X030304Y016195D01*
X030485Y016265D02*
X030555Y016195D01*
X030695Y016195D01*
X030765Y016265D01*
X030765Y016405D01*
X030625Y016405D01*
X030765Y016545D02*
X030695Y016615D01*
X030555Y016615D01*
X030485Y016545D01*
X030485Y016265D01*
X030945Y016405D02*
X031085Y016405D01*
X031546Y015633D02*
X031686Y015493D01*
X031686Y015212D02*
X031686Y015142D01*
X031546Y015002D01*
X031546Y014791D01*
X031546Y015002D02*
X031405Y015142D01*
X031405Y015212D01*
X031225Y015072D02*
X031225Y014791D01*
X031225Y015002D02*
X030945Y015002D01*
X030945Y015072D02*
X030945Y014791D01*
X030765Y014791D02*
X030485Y014791D01*
X030485Y015212D01*
X030945Y015072D02*
X031085Y015212D01*
X031225Y015072D01*
X031225Y014510D02*
X030945Y014510D01*
X029844Y016405D02*
X029564Y016405D01*
X020618Y010410D02*
X020618Y009229D01*
X019437Y009229D02*
X019437Y010410D01*
X024261Y008365D02*
X024261Y008109D01*
X024261Y008365D02*
X025206Y008365D01*
X025481Y007853D02*
X025481Y007636D01*
X025206Y007144D02*
X024261Y007144D01*
X024261Y007381D01*
X027522Y005772D02*
X027860Y005772D01*
X028010Y005317D02*
X028010Y005106D01*
X027860Y004652D02*
X027522Y004652D01*
X021241Y004284D02*
X021241Y003687D01*
X017840Y003687D02*
X017840Y004284D01*
X016557Y005578D02*
X016557Y006330D01*
X016924Y006458D02*
X017184Y006458D01*
X015962Y006330D02*
X015962Y005578D01*
X007333Y003556D02*
X007362Y003373D01*
X007220Y003210D01*
X007118Y003165D01*
X006882Y003139D01*
X006854Y003566D01*
X006821Y003619D01*
X007058Y003635D01*
X007218Y003602D01*
X007309Y003508D01*
X007314Y003370D01*
X007204Y003253D01*
X007057Y003206D01*
X006916Y003195D01*
X006900Y003587D01*
X006838Y003662D02*
X007155Y003669D01*
X007333Y003556D01*
X007128Y003193D02*
X007174Y003076D01*
X007235Y002961D01*
X007304Y002828D01*
X007348Y002773D01*
X007358Y002807D01*
X007220Y003014D01*
X006885Y002920D02*
X006886Y002817D01*
X006885Y002920D02*
X006885Y003158D01*
X006536Y003118D02*
X006555Y003309D01*
X006511Y003476D01*
X006362Y003624D01*
X006149Y003614D01*
X006024Y003527D01*
X005965Y003348D01*
X005953Y003102D01*
X006063Y002909D01*
X006232Y002865D01*
X006362Y002885D01*
X006425Y002936D01*
X006525Y003038D01*
X006367Y002836D01*
X006247Y002810D01*
X006107Y002846D01*
X006021Y002907D01*
X005972Y003022D01*
X005916Y003278D01*
X005985Y003539D01*
X006169Y003668D01*
X006356Y003663D01*
X006493Y003539D01*
X006565Y003385D01*
X006536Y003118D02*
X006457Y002969D01*
X005865Y014702D02*
X005865Y015056D01*
X005865Y015942D02*
X005865Y016316D01*
X007566Y016263D02*
X007566Y014755D01*
D16*
X015534Y017069D02*
X031636Y017069D01*
D17*
X030718Y012459D02*
X030720Y012507D01*
X030726Y012555D01*
X030736Y012602D01*
X030749Y012648D01*
X030767Y012693D01*
X030787Y012737D01*
X030812Y012779D01*
X030840Y012818D01*
X030870Y012855D01*
X030904Y012889D01*
X030941Y012921D01*
X030979Y012950D01*
X031020Y012975D01*
X031063Y012997D01*
X031108Y013015D01*
X031154Y013029D01*
X031201Y013040D01*
X031249Y013047D01*
X031297Y013050D01*
X031345Y013049D01*
X031393Y013044D01*
X031441Y013035D01*
X031487Y013023D01*
X031532Y013006D01*
X031576Y012986D01*
X031618Y012963D01*
X031658Y012936D01*
X031696Y012906D01*
X031731Y012873D01*
X031763Y012837D01*
X031793Y012799D01*
X031819Y012758D01*
X031841Y012715D01*
X031861Y012671D01*
X031876Y012626D01*
X031888Y012579D01*
X031896Y012531D01*
X031900Y012483D01*
X031900Y012435D01*
X031896Y012387D01*
X031888Y012339D01*
X031876Y012292D01*
X031861Y012247D01*
X031841Y012203D01*
X031819Y012160D01*
X031793Y012119D01*
X031763Y012081D01*
X031731Y012045D01*
X031696Y012012D01*
X031658Y011982D01*
X031618Y011955D01*
X031576Y011932D01*
X031532Y011912D01*
X031487Y011895D01*
X031441Y011883D01*
X031393Y011874D01*
X031345Y011869D01*
X031297Y011868D01*
X031249Y011871D01*
X031201Y011878D01*
X031154Y011889D01*
X031108Y011903D01*
X031063Y011921D01*
X031020Y011943D01*
X030979Y011968D01*
X030941Y011997D01*
X030904Y012029D01*
X030870Y012063D01*
X030840Y012100D01*
X030812Y012139D01*
X030787Y012181D01*
X030767Y012225D01*
X030749Y012270D01*
X030736Y012316D01*
X030726Y012363D01*
X030720Y012411D01*
X030718Y012459D01*
X030718Y002959D02*
X030720Y003007D01*
X030726Y003055D01*
X030736Y003102D01*
X030749Y003148D01*
X030767Y003193D01*
X030787Y003237D01*
X030812Y003279D01*
X030840Y003318D01*
X030870Y003355D01*
X030904Y003389D01*
X030941Y003421D01*
X030979Y003450D01*
X031020Y003475D01*
X031063Y003497D01*
X031108Y003515D01*
X031154Y003529D01*
X031201Y003540D01*
X031249Y003547D01*
X031297Y003550D01*
X031345Y003549D01*
X031393Y003544D01*
X031441Y003535D01*
X031487Y003523D01*
X031532Y003506D01*
X031576Y003486D01*
X031618Y003463D01*
X031658Y003436D01*
X031696Y003406D01*
X031731Y003373D01*
X031763Y003337D01*
X031793Y003299D01*
X031819Y003258D01*
X031841Y003215D01*
X031861Y003171D01*
X031876Y003126D01*
X031888Y003079D01*
X031896Y003031D01*
X031900Y002983D01*
X031900Y002935D01*
X031896Y002887D01*
X031888Y002839D01*
X031876Y002792D01*
X031861Y002747D01*
X031841Y002703D01*
X031819Y002660D01*
X031793Y002619D01*
X031763Y002581D01*
X031731Y002545D01*
X031696Y002512D01*
X031658Y002482D01*
X031618Y002455D01*
X031576Y002432D01*
X031532Y002412D01*
X031487Y002395D01*
X031441Y002383D01*
X031393Y002374D01*
X031345Y002369D01*
X031297Y002368D01*
X031249Y002371D01*
X031201Y002378D01*
X031154Y002389D01*
X031108Y002403D01*
X031063Y002421D01*
X031020Y002443D01*
X030979Y002468D01*
X030941Y002497D01*
X030904Y002529D01*
X030870Y002563D01*
X030840Y002600D01*
X030812Y002639D01*
X030787Y002681D01*
X030767Y002725D01*
X030749Y002770D01*
X030736Y002816D01*
X030726Y002863D01*
X030720Y002911D01*
X030718Y002959D01*
X030698Y001321D02*
X030700Y001351D01*
X030706Y001380D01*
X030715Y001408D01*
X030728Y001434D01*
X030745Y001459D01*
X030764Y001482D01*
X030787Y001501D01*
X030811Y001518D01*
X030838Y001531D01*
X030866Y001540D01*
X030895Y001546D01*
X030925Y001548D01*
X030955Y001546D01*
X030984Y001540D01*
X031012Y001531D01*
X031038Y001518D01*
X031063Y001501D01*
X031086Y001482D01*
X031105Y001459D01*
X031122Y001435D01*
X031135Y001408D01*
X031144Y001380D01*
X031150Y001351D01*
X031152Y001321D01*
X031150Y001291D01*
X031144Y001262D01*
X031135Y001234D01*
X031122Y001208D01*
X031105Y001183D01*
X031086Y001160D01*
X031063Y001141D01*
X031039Y001124D01*
X031012Y001111D01*
X030984Y001102D01*
X030955Y001096D01*
X030925Y001094D01*
X030895Y001096D01*
X030866Y001102D01*
X030838Y001111D01*
X030812Y001124D01*
X030787Y001141D01*
X030764Y001160D01*
X030745Y001183D01*
X030728Y001207D01*
X030715Y001234D01*
X030706Y001262D01*
X030700Y001291D01*
X030698Y001321D01*
X001440Y002959D02*
X001442Y003007D01*
X001448Y003055D01*
X001458Y003102D01*
X001471Y003148D01*
X001489Y003193D01*
X001509Y003237D01*
X001534Y003279D01*
X001562Y003318D01*
X001592Y003355D01*
X001626Y003389D01*
X001663Y003421D01*
X001701Y003450D01*
X001742Y003475D01*
X001785Y003497D01*
X001830Y003515D01*
X001876Y003529D01*
X001923Y003540D01*
X001971Y003547D01*
X002019Y003550D01*
X002067Y003549D01*
X002115Y003544D01*
X002163Y003535D01*
X002209Y003523D01*
X002254Y003506D01*
X002298Y003486D01*
X002340Y003463D01*
X002380Y003436D01*
X002418Y003406D01*
X002453Y003373D01*
X002485Y003337D01*
X002515Y003299D01*
X002541Y003258D01*
X002563Y003215D01*
X002583Y003171D01*
X002598Y003126D01*
X002610Y003079D01*
X002618Y003031D01*
X002622Y002983D01*
X002622Y002935D01*
X002618Y002887D01*
X002610Y002839D01*
X002598Y002792D01*
X002583Y002747D01*
X002563Y002703D01*
X002541Y002660D01*
X002515Y002619D01*
X002485Y002581D01*
X002453Y002545D01*
X002418Y002512D01*
X002380Y002482D01*
X002340Y002455D01*
X002298Y002432D01*
X002254Y002412D01*
X002209Y002395D01*
X002163Y002383D01*
X002115Y002374D01*
X002067Y002369D01*
X002019Y002368D01*
X001971Y002371D01*
X001923Y002378D01*
X001876Y002389D01*
X001830Y002403D01*
X001785Y002421D01*
X001742Y002443D01*
X001701Y002468D01*
X001663Y002497D01*
X001626Y002529D01*
X001592Y002563D01*
X001562Y002600D01*
X001534Y002639D01*
X001509Y002681D01*
X001489Y002725D01*
X001471Y002770D01*
X001458Y002816D01*
X001448Y002863D01*
X001442Y002911D01*
X001440Y002959D01*
X001440Y012459D02*
X001442Y012507D01*
X001448Y012555D01*
X001458Y012602D01*
X001471Y012648D01*
X001489Y012693D01*
X001509Y012737D01*
X001534Y012779D01*
X001562Y012818D01*
X001592Y012855D01*
X001626Y012889D01*
X001663Y012921D01*
X001701Y012950D01*
X001742Y012975D01*
X001785Y012997D01*
X001830Y013015D01*
X001876Y013029D01*
X001923Y013040D01*
X001971Y013047D01*
X002019Y013050D01*
X002067Y013049D01*
X002115Y013044D01*
X002163Y013035D01*
X002209Y013023D01*
X002254Y013006D01*
X002298Y012986D01*
X002340Y012963D01*
X002380Y012936D01*
X002418Y012906D01*
X002453Y012873D01*
X002485Y012837D01*
X002515Y012799D01*
X002541Y012758D01*
X002563Y012715D01*
X002583Y012671D01*
X002598Y012626D01*
X002610Y012579D01*
X002618Y012531D01*
X002622Y012483D01*
X002622Y012435D01*
X002618Y012387D01*
X002610Y012339D01*
X002598Y012292D01*
X002583Y012247D01*
X002563Y012203D01*
X002541Y012160D01*
X002515Y012119D01*
X002485Y012081D01*
X002453Y012045D01*
X002418Y012012D01*
X002380Y011982D01*
X002340Y011955D01*
X002298Y011932D01*
X002254Y011912D01*
X002209Y011895D01*
X002163Y011883D01*
X002115Y011874D01*
X002067Y011869D01*
X002019Y011868D01*
X001971Y011871D01*
X001923Y011878D01*
X001876Y011889D01*
X001830Y011903D01*
X001785Y011921D01*
X001742Y011943D01*
X001701Y011968D01*
X001663Y011997D01*
X001626Y012029D01*
X001592Y012063D01*
X001562Y012100D01*
X001534Y012139D01*
X001509Y012181D01*
X001489Y012225D01*
X001471Y012270D01*
X001458Y012316D01*
X001448Y012363D01*
X001442Y012411D01*
X001440Y012459D01*
X001094Y017183D02*
X001096Y017213D01*
X001102Y017242D01*
X001111Y017270D01*
X001124Y017296D01*
X001141Y017321D01*
X001160Y017344D01*
X001183Y017363D01*
X001207Y017380D01*
X001234Y017393D01*
X001262Y017402D01*
X001291Y017408D01*
X001321Y017410D01*
X001351Y017408D01*
X001380Y017402D01*
X001408Y017393D01*
X001434Y017380D01*
X001459Y017363D01*
X001482Y017344D01*
X001501Y017321D01*
X001518Y017297D01*
X001531Y017270D01*
X001540Y017242D01*
X001546Y017213D01*
X001548Y017183D01*
X001546Y017153D01*
X001540Y017124D01*
X001531Y017096D01*
X001518Y017070D01*
X001501Y017045D01*
X001482Y017022D01*
X001459Y017003D01*
X001435Y016986D01*
X001408Y016973D01*
X001380Y016964D01*
X001351Y016958D01*
X001321Y016956D01*
X001291Y016958D01*
X001262Y016964D01*
X001234Y016973D01*
X001208Y016986D01*
X001183Y017003D01*
X001160Y017022D01*
X001141Y017045D01*
X001124Y017069D01*
X001111Y017096D01*
X001102Y017124D01*
X001096Y017153D01*
X001094Y017183D01*
D18*
X023227Y007738D02*
X023477Y007738D01*
X023477Y007638D01*
X023577Y007738D01*
X023477Y007838D01*
X023477Y007738D01*
D19*
X021349Y004876D02*
X021349Y004632D01*
X021347Y004612D01*
X021342Y004593D01*
X021333Y004575D01*
X021321Y004559D01*
X021306Y004546D01*
X021289Y004535D01*
X021271Y004528D01*
X021251Y004524D01*
X021231Y004524D01*
X021211Y004528D01*
X021193Y004535D01*
X021176Y004546D01*
X021161Y004559D01*
X021149Y004575D01*
X021140Y004593D01*
X021135Y004612D01*
X021133Y004632D01*
X021133Y004876D01*
X021135Y004896D01*
X021140Y004915D01*
X021149Y004933D01*
X021161Y004949D01*
X021176Y004962D01*
X021193Y004973D01*
X021211Y004980D01*
X021231Y004984D01*
X021251Y004984D01*
X021271Y004980D01*
X021289Y004973D01*
X021306Y004962D01*
X021321Y004949D01*
X021333Y004933D01*
X021342Y004915D01*
X021347Y004896D01*
X021349Y004876D01*
X021349Y003380D02*
X021349Y003136D01*
X021347Y003116D01*
X021342Y003097D01*
X021333Y003079D01*
X021321Y003063D01*
X021306Y003050D01*
X021289Y003039D01*
X021271Y003032D01*
X021251Y003028D01*
X021231Y003028D01*
X021211Y003032D01*
X021193Y003039D01*
X021176Y003050D01*
X021161Y003063D01*
X021149Y003079D01*
X021140Y003097D01*
X021135Y003116D01*
X021133Y003136D01*
X021133Y003380D01*
X021135Y003400D01*
X021140Y003419D01*
X021149Y003437D01*
X021161Y003453D01*
X021176Y003466D01*
X021193Y003477D01*
X021211Y003484D01*
X021231Y003488D01*
X021251Y003488D01*
X021271Y003484D01*
X021289Y003477D01*
X021306Y003466D01*
X021321Y003453D01*
X021333Y003437D01*
X021342Y003419D01*
X021347Y003400D01*
X021349Y003380D01*
X017948Y003380D02*
X017948Y003136D01*
X017946Y003116D01*
X017941Y003097D01*
X017932Y003079D01*
X017920Y003063D01*
X017905Y003050D01*
X017888Y003039D01*
X017870Y003032D01*
X017850Y003028D01*
X017830Y003028D01*
X017810Y003032D01*
X017792Y003039D01*
X017775Y003050D01*
X017760Y003063D01*
X017748Y003079D01*
X017739Y003097D01*
X017734Y003116D01*
X017732Y003136D01*
X017731Y003136D02*
X017731Y003380D01*
X017732Y003380D02*
X017734Y003400D01*
X017739Y003419D01*
X017748Y003437D01*
X017760Y003453D01*
X017775Y003466D01*
X017792Y003477D01*
X017810Y003484D01*
X017830Y003488D01*
X017850Y003488D01*
X017870Y003484D01*
X017888Y003477D01*
X017905Y003466D01*
X017920Y003453D01*
X017932Y003437D01*
X017941Y003419D01*
X017946Y003400D01*
X017948Y003380D01*
X017948Y004632D02*
X017948Y004876D01*
X017946Y004896D01*
X017941Y004915D01*
X017932Y004933D01*
X017920Y004949D01*
X017905Y004962D01*
X017888Y004973D01*
X017870Y004980D01*
X017850Y004984D01*
X017830Y004984D01*
X017810Y004980D01*
X017792Y004973D01*
X017775Y004962D01*
X017760Y004949D01*
X017748Y004933D01*
X017739Y004915D01*
X017734Y004896D01*
X017732Y004876D01*
X017731Y004876D02*
X017731Y004632D01*
X017732Y004632D02*
X017734Y004612D01*
X017739Y004593D01*
X017748Y004575D01*
X017760Y004559D01*
X017775Y004546D01*
X017792Y004535D01*
X017810Y004528D01*
X017830Y004524D01*
X017850Y004524D01*
X017870Y004528D01*
X017888Y004535D01*
X017905Y004546D01*
X017920Y004559D01*
X017932Y004575D01*
X017941Y004593D01*
X017946Y004612D01*
X017948Y004632D01*
D20*
X007080Y004519D02*
X007080Y009819D01*
X007078Y009841D01*
X007073Y009862D01*
X007065Y009883D01*
X007053Y009901D01*
X007039Y009918D01*
X007022Y009932D01*
X007004Y009944D01*
X006983Y009952D01*
X006962Y009957D01*
X006940Y009959D01*
X003910Y009959D01*
X003888Y009957D01*
X003867Y009952D01*
X003846Y009944D01*
X003828Y009932D01*
X003811Y009918D01*
X003797Y009901D01*
X003785Y009883D01*
X003777Y009862D01*
X003772Y009841D01*
X003770Y009819D01*
X003770Y004519D01*
X004380Y005869D02*
X004490Y005869D01*
X004490Y006539D01*
X004380Y006539D01*
X004380Y006239D01*
X004380Y006139D02*
X004380Y005869D01*
X004380Y006139D02*
X004110Y006139D01*
X004110Y006259D01*
X004760Y006259D01*
X004760Y006139D01*
X004220Y006139D01*
X005930Y006079D02*
X005970Y006079D01*
X005978Y006077D01*
X005984Y006073D01*
X005988Y006067D01*
X005990Y006059D01*
X005858Y006059D02*
X005860Y006081D01*
X005866Y006102D01*
X005875Y006122D01*
X005888Y006139D01*
X005904Y006154D01*
X005922Y006166D01*
X005942Y006175D01*
X005964Y006180D01*
X005985Y006181D01*
X006007Y006178D01*
X006028Y006171D01*
X006047Y006161D01*
X006064Y006147D01*
X006079Y006131D01*
X006090Y006112D01*
X006098Y006091D01*
X006102Y006070D01*
X006102Y006048D01*
X006098Y006027D01*
X006090Y006006D01*
X006079Y005987D01*
X006064Y005971D01*
X006047Y005957D01*
X006028Y005947D01*
X006007Y005940D01*
X005985Y005937D01*
X005964Y005938D01*
X005942Y005943D01*
X005922Y005952D01*
X005904Y005964D01*
X005888Y005979D01*
X005875Y005996D01*
X005866Y006016D01*
X005860Y006037D01*
X005858Y006059D01*
X006520Y006269D02*
X006640Y006269D01*
X006645Y006268D01*
X006649Y006264D01*
X006650Y006259D01*
X006476Y006269D02*
X006478Y006291D01*
X006483Y006311D01*
X006493Y006331D01*
X006505Y006349D01*
X006520Y006364D01*
X006538Y006376D01*
X006558Y006386D01*
X006578Y006391D01*
X006600Y006393D01*
X006622Y006391D01*
X006642Y006386D01*
X006662Y006376D01*
X006680Y006364D01*
X006695Y006349D01*
X006707Y006331D01*
X006717Y006311D01*
X006722Y006291D01*
X006724Y006269D01*
X006722Y006247D01*
X006717Y006227D01*
X006707Y006207D01*
X006695Y006189D01*
X006680Y006174D01*
X006662Y006162D01*
X006642Y006152D01*
X006622Y006147D01*
X006600Y006145D01*
X006578Y006147D01*
X006558Y006152D01*
X006538Y006162D01*
X006520Y006174D01*
X006505Y006189D01*
X006493Y006207D01*
X006483Y006227D01*
X006478Y006247D01*
X006476Y006269D01*
X007080Y004518D02*
X006851Y004443D01*
X006618Y004380D01*
X006383Y004327D01*
X006146Y004287D01*
X005906Y004257D01*
X005666Y004240D01*
X005425Y004234D01*
X005184Y004240D01*
X004944Y004257D01*
X004704Y004287D01*
X004467Y004327D01*
X004232Y004380D01*
X003999Y004443D01*
X003770Y004518D01*
X005596Y014910D02*
X005598Y014923D01*
X005604Y014935D01*
X005613Y014944D01*
X005624Y014951D01*
X005637Y014954D01*
X005650Y014953D01*
X005662Y014948D01*
X005672Y014940D01*
X005680Y014929D01*
X005684Y014917D01*
X005684Y014903D01*
X005680Y014891D01*
X005672Y014880D01*
X005662Y014872D01*
X005650Y014867D01*
X005637Y014866D01*
X005624Y014869D01*
X005613Y014876D01*
X005604Y014885D01*
X005598Y014897D01*
X005596Y014910D01*
D21*
X013967Y006508D02*
X013967Y006193D01*
X014756Y006193D01*
X014756Y006508D01*
X013967Y006508D01*
X013967Y006148D02*
X013967Y005833D01*
X014756Y005833D01*
X014756Y006148D01*
X013967Y006148D01*
X013967Y005788D02*
X013967Y005473D01*
X014756Y005473D01*
X014756Y005788D01*
X013967Y005788D01*
X016836Y003979D02*
X017151Y003979D01*
X017151Y003190D01*
X016836Y003190D01*
X016836Y003979D01*
X017196Y003979D02*
X017511Y003979D01*
X017511Y003190D01*
X017196Y003190D01*
X017196Y003979D01*
D22*
X006792Y004749D02*
X006794Y004759D01*
X006799Y004768D01*
X006808Y004774D01*
X006817Y004777D01*
X006828Y004776D01*
X006837Y004771D01*
X006844Y004764D01*
X006848Y004754D01*
X006848Y004744D01*
X006844Y004734D01*
X006837Y004727D01*
X006828Y004722D01*
X006817Y004721D01*
X006808Y004724D01*
X006799Y004730D01*
X006794Y004739D01*
X006792Y004749D01*
X006702Y004839D02*
X006704Y004849D01*
X006709Y004858D01*
X006718Y004864D01*
X006727Y004867D01*
X006738Y004866D01*
X006747Y004861D01*
X006754Y004854D01*
X006758Y004844D01*
X006758Y004834D01*
X006754Y004824D01*
X006747Y004817D01*
X006738Y004812D01*
X006727Y004811D01*
X006718Y004814D01*
X006709Y004820D01*
X006704Y004829D01*
X006702Y004839D01*
X006612Y004919D02*
X006614Y004929D01*
X006619Y004938D01*
X006628Y004944D01*
X006637Y004947D01*
X006648Y004946D01*
X006657Y004941D01*
X006664Y004934D01*
X006668Y004924D01*
X006668Y004914D01*
X006664Y004904D01*
X006657Y004897D01*
X006648Y004892D01*
X006637Y004891D01*
X006628Y004894D01*
X006619Y004900D01*
X006614Y004909D01*
X006612Y004919D01*
X006512Y004989D02*
X006514Y004999D01*
X006519Y005008D01*
X006528Y005014D01*
X006537Y005017D01*
X006548Y005016D01*
X006557Y005011D01*
X006564Y005004D01*
X006568Y004994D01*
X006568Y004984D01*
X006564Y004974D01*
X006557Y004967D01*
X006548Y004962D01*
X006537Y004961D01*
X006528Y004964D01*
X006519Y004970D01*
X006514Y004979D01*
X006512Y004989D01*
X006422Y005069D02*
X006424Y005079D01*
X006429Y005088D01*
X006438Y005094D01*
X006447Y005097D01*
X006458Y005096D01*
X006467Y005091D01*
X006474Y005084D01*
X006478Y005074D01*
X006478Y005064D01*
X006474Y005054D01*
X006467Y005047D01*
X006458Y005042D01*
X006447Y005041D01*
X006438Y005044D01*
X006429Y005050D01*
X006424Y005059D01*
X006422Y005069D01*
X006322Y005149D02*
X006324Y005159D01*
X006329Y005168D01*
X006338Y005174D01*
X006347Y005177D01*
X006358Y005176D01*
X006367Y005171D01*
X006374Y005164D01*
X006378Y005154D01*
X006378Y005144D01*
X006374Y005134D01*
X006367Y005127D01*
X006358Y005122D01*
X006347Y005121D01*
X006338Y005124D01*
X006329Y005130D01*
X006324Y005139D01*
X006322Y005149D01*
X006232Y005239D02*
X006234Y005249D01*
X006239Y005258D01*
X006248Y005264D01*
X006257Y005267D01*
X006268Y005266D01*
X006277Y005261D01*
X006284Y005254D01*
X006288Y005244D01*
X006288Y005234D01*
X006284Y005224D01*
X006277Y005217D01*
X006268Y005212D01*
X006257Y005211D01*
X006248Y005214D01*
X006239Y005220D01*
X006234Y005229D01*
X006232Y005239D01*
X006122Y005129D02*
X006124Y005139D01*
X006129Y005148D01*
X006138Y005154D01*
X006147Y005157D01*
X006158Y005156D01*
X006167Y005151D01*
X006174Y005144D01*
X006178Y005134D01*
X006178Y005124D01*
X006174Y005114D01*
X006167Y005107D01*
X006158Y005102D01*
X006147Y005101D01*
X006138Y005104D01*
X006129Y005110D01*
X006124Y005119D01*
X006122Y005129D01*
X006222Y005039D02*
X006224Y005049D01*
X006229Y005058D01*
X006238Y005064D01*
X006247Y005067D01*
X006258Y005066D01*
X006267Y005061D01*
X006274Y005054D01*
X006278Y005044D01*
X006278Y005034D01*
X006274Y005024D01*
X006267Y005017D01*
X006258Y005012D01*
X006247Y005011D01*
X006238Y005014D01*
X006229Y005020D01*
X006224Y005029D01*
X006222Y005039D01*
X006122Y004929D02*
X006124Y004939D01*
X006129Y004948D01*
X006138Y004954D01*
X006147Y004957D01*
X006158Y004956D01*
X006167Y004951D01*
X006174Y004944D01*
X006178Y004934D01*
X006178Y004924D01*
X006174Y004914D01*
X006167Y004907D01*
X006158Y004902D01*
X006147Y004901D01*
X006138Y004904D01*
X006129Y004910D01*
X006124Y004919D01*
X006122Y004929D01*
X006212Y004849D02*
X006214Y004859D01*
X006219Y004868D01*
X006228Y004874D01*
X006237Y004877D01*
X006248Y004876D01*
X006257Y004871D01*
X006264Y004864D01*
X006268Y004854D01*
X006268Y004844D01*
X006264Y004834D01*
X006257Y004827D01*
X006248Y004822D01*
X006237Y004821D01*
X006228Y004824D01*
X006219Y004830D01*
X006214Y004839D01*
X006212Y004849D01*
X006122Y004729D02*
X006124Y004739D01*
X006129Y004748D01*
X006138Y004754D01*
X006147Y004757D01*
X006158Y004756D01*
X006167Y004751D01*
X006174Y004744D01*
X006178Y004734D01*
X006178Y004724D01*
X006174Y004714D01*
X006167Y004707D01*
X006158Y004702D01*
X006147Y004701D01*
X006138Y004704D01*
X006129Y004710D01*
X006124Y004719D01*
X006122Y004729D01*
X006212Y004659D02*
X006214Y004669D01*
X006219Y004678D01*
X006228Y004684D01*
X006237Y004687D01*
X006248Y004686D01*
X006257Y004681D01*
X006264Y004674D01*
X006268Y004664D01*
X006268Y004654D01*
X006264Y004644D01*
X006257Y004637D01*
X006248Y004632D01*
X006237Y004631D01*
X006228Y004634D01*
X006219Y004640D01*
X006214Y004649D01*
X006212Y004659D01*
X006302Y004589D02*
X006304Y004599D01*
X006309Y004608D01*
X006318Y004614D01*
X006327Y004617D01*
X006338Y004616D01*
X006347Y004611D01*
X006354Y004604D01*
X006358Y004594D01*
X006358Y004584D01*
X006354Y004574D01*
X006347Y004567D01*
X006338Y004562D01*
X006327Y004561D01*
X006318Y004564D01*
X006309Y004570D01*
X006304Y004579D01*
X006302Y004589D01*
X006402Y004689D02*
X006404Y004699D01*
X006409Y004708D01*
X006418Y004714D01*
X006427Y004717D01*
X006438Y004716D01*
X006447Y004711D01*
X006454Y004704D01*
X006458Y004694D01*
X006458Y004684D01*
X006454Y004674D01*
X006447Y004667D01*
X006438Y004662D01*
X006427Y004661D01*
X006418Y004664D01*
X006409Y004670D01*
X006404Y004679D01*
X006402Y004689D01*
X006322Y004769D02*
X006324Y004779D01*
X006329Y004788D01*
X006338Y004794D01*
X006347Y004797D01*
X006358Y004796D01*
X006367Y004791D01*
X006374Y004784D01*
X006378Y004774D01*
X006378Y004764D01*
X006374Y004754D01*
X006367Y004747D01*
X006358Y004742D01*
X006347Y004741D01*
X006338Y004744D01*
X006329Y004750D01*
X006324Y004759D01*
X006322Y004769D01*
X006412Y004889D02*
X006414Y004899D01*
X006419Y004908D01*
X006428Y004914D01*
X006437Y004917D01*
X006448Y004916D01*
X006457Y004911D01*
X006464Y004904D01*
X006468Y004894D01*
X006468Y004884D01*
X006464Y004874D01*
X006457Y004867D01*
X006448Y004862D01*
X006437Y004861D01*
X006428Y004864D01*
X006419Y004870D01*
X006414Y004879D01*
X006412Y004889D01*
X006322Y004959D02*
X006324Y004969D01*
X006329Y004978D01*
X006338Y004984D01*
X006347Y004987D01*
X006358Y004986D01*
X006367Y004981D01*
X006374Y004974D01*
X006378Y004964D01*
X006378Y004954D01*
X006374Y004944D01*
X006367Y004937D01*
X006358Y004932D01*
X006347Y004931D01*
X006338Y004934D01*
X006329Y004940D01*
X006324Y004949D01*
X006322Y004959D01*
X006512Y004809D02*
X006514Y004819D01*
X006519Y004828D01*
X006528Y004834D01*
X006537Y004837D01*
X006548Y004836D01*
X006557Y004831D01*
X006564Y004824D01*
X006568Y004814D01*
X006568Y004804D01*
X006564Y004794D01*
X006557Y004787D01*
X006548Y004782D01*
X006537Y004781D01*
X006528Y004784D01*
X006519Y004790D01*
X006514Y004799D01*
X006512Y004809D01*
X006592Y004719D02*
X006594Y004729D01*
X006599Y004738D01*
X006608Y004744D01*
X006617Y004747D01*
X006628Y004746D01*
X006637Y004741D01*
X006644Y004734D01*
X006648Y004724D01*
X006648Y004714D01*
X006644Y004704D01*
X006637Y004697D01*
X006628Y004692D01*
X006617Y004691D01*
X006608Y004694D01*
X006599Y004700D01*
X006594Y004709D01*
X006592Y004719D01*
X006502Y004619D02*
X006504Y004629D01*
X006509Y004638D01*
X006518Y004644D01*
X006527Y004647D01*
X006538Y004646D01*
X006547Y004641D01*
X006554Y004634D01*
X006558Y004624D01*
X006558Y004614D01*
X006554Y004604D01*
X006547Y004597D01*
X006538Y004592D01*
X006527Y004591D01*
X006518Y004594D01*
X006509Y004600D01*
X006504Y004609D01*
X006502Y004619D01*
X006702Y004649D02*
X006704Y004659D01*
X006709Y004668D01*
X006718Y004674D01*
X006727Y004677D01*
X006738Y004676D01*
X006747Y004671D01*
X006754Y004664D01*
X006758Y004654D01*
X006758Y004644D01*
X006754Y004634D01*
X006747Y004627D01*
X006738Y004622D01*
X006727Y004621D01*
X006718Y004624D01*
X006709Y004630D01*
X006704Y004639D01*
X006702Y004649D01*
X006802Y004949D02*
X006804Y004959D01*
X006809Y004968D01*
X006818Y004974D01*
X006827Y004977D01*
X006838Y004976D01*
X006847Y004971D01*
X006854Y004964D01*
X006858Y004954D01*
X006858Y004944D01*
X006854Y004934D01*
X006847Y004927D01*
X006838Y004922D01*
X006827Y004921D01*
X006818Y004924D01*
X006809Y004930D01*
X006804Y004939D01*
X006802Y004949D01*
X006712Y005029D02*
X006714Y005039D01*
X006719Y005048D01*
X006728Y005054D01*
X006737Y005057D01*
X006748Y005056D01*
X006757Y005051D01*
X006764Y005044D01*
X006768Y005034D01*
X006768Y005024D01*
X006764Y005014D01*
X006757Y005007D01*
X006748Y005002D01*
X006737Y005001D01*
X006728Y005004D01*
X006719Y005010D01*
X006714Y005019D01*
X006712Y005029D01*
X006612Y005109D02*
X006614Y005119D01*
X006619Y005128D01*
X006628Y005134D01*
X006637Y005137D01*
X006648Y005136D01*
X006657Y005131D01*
X006664Y005124D01*
X006668Y005114D01*
X006668Y005104D01*
X006664Y005094D01*
X006657Y005087D01*
X006648Y005082D01*
X006637Y005081D01*
X006628Y005084D01*
X006619Y005090D01*
X006614Y005099D01*
X006612Y005109D01*
X006522Y005179D02*
X006524Y005189D01*
X006529Y005198D01*
X006538Y005204D01*
X006547Y005207D01*
X006558Y005206D01*
X006567Y005201D01*
X006574Y005194D01*
X006578Y005184D01*
X006578Y005174D01*
X006574Y005164D01*
X006567Y005157D01*
X006558Y005152D01*
X006547Y005151D01*
X006538Y005154D01*
X006529Y005160D01*
X006524Y005169D01*
X006522Y005179D01*
X006422Y005259D02*
X006424Y005269D01*
X006429Y005278D01*
X006438Y005284D01*
X006447Y005287D01*
X006458Y005286D01*
X006467Y005281D01*
X006474Y005274D01*
X006478Y005264D01*
X006478Y005254D01*
X006474Y005244D01*
X006467Y005237D01*
X006458Y005232D01*
X006447Y005231D01*
X006438Y005234D01*
X006429Y005240D01*
X006424Y005249D01*
X006422Y005259D01*
X006612Y005289D02*
X006614Y005299D01*
X006619Y005308D01*
X006628Y005314D01*
X006637Y005317D01*
X006648Y005316D01*
X006657Y005311D01*
X006664Y005304D01*
X006668Y005294D01*
X006668Y005284D01*
X006664Y005274D01*
X006657Y005267D01*
X006648Y005262D01*
X006637Y005261D01*
X006628Y005264D01*
X006619Y005270D01*
X006614Y005279D01*
X006612Y005289D01*
X006722Y005209D02*
X006724Y005219D01*
X006729Y005228D01*
X006738Y005234D01*
X006747Y005237D01*
X006758Y005236D01*
X006767Y005231D01*
X006774Y005224D01*
X006778Y005214D01*
X006778Y005204D01*
X006774Y005194D01*
X006767Y005187D01*
X006758Y005182D01*
X006747Y005181D01*
X006738Y005184D01*
X006729Y005190D01*
X006724Y005199D01*
X006722Y005209D01*
X006812Y005139D02*
X006814Y005149D01*
X006819Y005158D01*
X006828Y005164D01*
X006837Y005167D01*
X006848Y005166D01*
X006857Y005161D01*
X006864Y005154D01*
X006868Y005144D01*
X006868Y005134D01*
X006864Y005124D01*
X006857Y005117D01*
X006848Y005112D01*
X006837Y005111D01*
X006828Y005114D01*
X006819Y005120D01*
X006814Y005129D01*
X006812Y005139D01*
X011187Y013830D02*
X011207Y013910D01*
X011282Y013890D01*
X011327Y013885D01*
X011407Y013885D01*
X011447Y013895D01*
X011472Y013905D01*
X011507Y013925D01*
X011537Y013955D01*
X011557Y013990D01*
X011567Y014020D01*
X011572Y014065D01*
X011572Y014390D01*
X011552Y014460D01*
X011532Y014485D01*
X011507Y014515D01*
X011477Y014540D01*
X011447Y014555D01*
X011412Y014565D01*
X011347Y014565D01*
X011322Y014560D01*
X011282Y014545D01*
X011252Y014520D01*
X011232Y014500D01*
X011212Y014475D01*
X011197Y014435D01*
X011187Y014405D01*
X011182Y014365D01*
X011182Y014330D01*
X011187Y014295D01*
X011197Y014265D01*
X011212Y014230D01*
X011237Y014205D01*
X011267Y014180D01*
X011302Y014160D01*
X011337Y014150D01*
X011412Y014150D01*
X011447Y014160D01*
X011492Y014180D01*
X011512Y014190D01*
X011512Y014100D01*
X011482Y014085D01*
X011437Y014070D01*
X011402Y014065D01*
X011357Y014065D01*
X011302Y014075D01*
X011252Y014095D01*
X011212Y014115D01*
X011182Y014140D01*
X011157Y014170D01*
X011132Y014205D01*
X011117Y014235D01*
X011102Y014280D01*
X011097Y014325D01*
X011097Y014370D01*
X011102Y014420D01*
X011112Y014460D01*
X011127Y014495D01*
X011147Y014530D01*
X011167Y014555D01*
X011202Y014590D01*
X011242Y014615D01*
X011287Y014635D01*
X011327Y014645D01*
X011362Y014650D01*
X011397Y014650D01*
X011432Y014645D01*
X011462Y014640D01*
X011492Y014630D01*
X011537Y014605D01*
X011562Y014585D01*
X011597Y014550D01*
X011622Y014515D01*
X011637Y014485D01*
X011652Y014440D01*
X011662Y014385D01*
X011662Y014085D01*
X011662Y014090D02*
X011652Y014030D01*
X011642Y013985D01*
X011627Y013945D01*
X011597Y013900D01*
X011567Y013870D01*
X011537Y013845D01*
X011502Y013825D01*
X011457Y013810D01*
X011397Y013800D01*
X011337Y013800D01*
X011257Y013810D01*
X011187Y013830D01*
X011842Y014075D02*
X011842Y014640D01*
X011932Y014640D01*
X011932Y014075D01*
X011842Y014075D01*
X012142Y014075D02*
X012142Y014905D01*
X012232Y014905D01*
X012232Y014075D01*
X012142Y014075D01*
X012422Y014160D02*
X012432Y014140D01*
X012457Y014110D01*
X012492Y014090D01*
X012522Y014080D01*
X012542Y014075D01*
X012697Y014075D01*
X012682Y014085D01*
X012697Y014080D02*
X012697Y014160D01*
X012552Y014160D01*
X012532Y014165D01*
X012517Y014175D01*
X012502Y014190D01*
X012492Y014215D01*
X012492Y014555D01*
X012697Y014555D01*
X012697Y014635D01*
X012492Y014635D01*
X012492Y014780D01*
X012402Y014780D01*
X012402Y014235D01*
X012407Y014200D01*
X012422Y014160D01*
X012782Y014260D02*
X012772Y014300D01*
X012767Y014330D01*
X012767Y014380D01*
X012777Y014430D01*
X012792Y014475D01*
X012817Y014525D01*
X012857Y014570D01*
X012902Y014605D01*
X012952Y014630D01*
X013002Y014645D01*
X013037Y014650D01*
X013092Y014650D01*
X013137Y014640D01*
X013187Y014625D01*
X013247Y014585D01*
X013287Y014545D01*
X013327Y014480D01*
X012952Y014270D01*
X012917Y014340D01*
X013202Y014500D01*
X013192Y014515D01*
X013167Y014535D01*
X013137Y014555D01*
X013097Y014565D01*
X013037Y014565D01*
X013007Y014560D01*
X012977Y014550D01*
X012947Y014535D01*
X012917Y014505D01*
X012897Y014480D01*
X012877Y014445D01*
X012867Y014415D01*
X012862Y014385D01*
X012862Y014315D01*
X012872Y014280D01*
X012887Y014245D01*
X012912Y014210D01*
X012937Y014185D01*
X012957Y014175D01*
X012992Y014155D01*
X013027Y014150D01*
X013102Y014150D01*
X013132Y014155D01*
X013162Y014170D01*
X013187Y014185D01*
X013212Y014210D01*
X013232Y014245D01*
X013247Y014275D01*
X013257Y014305D01*
X013262Y014330D01*
X013352Y014320D01*
X013342Y014260D01*
X013322Y014215D01*
X013297Y014175D01*
X013252Y014130D01*
X013222Y014110D01*
X013197Y014095D01*
X013162Y014080D01*
X013127Y014070D01*
X013092Y014065D01*
X013032Y014065D01*
X012997Y014070D01*
X012937Y014090D01*
X012907Y014105D01*
X012877Y014125D01*
X012847Y014155D01*
X012822Y014185D01*
X012797Y014225D01*
X012782Y014260D01*
X013437Y014160D02*
X013437Y014075D01*
X013747Y014075D01*
X013782Y014080D01*
X013822Y014095D01*
X013847Y014110D01*
X013872Y014135D01*
X013887Y014165D01*
X013897Y014195D01*
X013897Y014250D01*
X013887Y014280D01*
X013872Y014310D01*
X013847Y014335D01*
X013817Y014355D01*
X013757Y014380D01*
X013597Y014430D01*
X013562Y014445D01*
X013542Y014460D01*
X013532Y014480D01*
X013532Y014510D01*
X013547Y014540D01*
X013567Y014550D01*
X013867Y014550D01*
X013867Y014635D01*
X013597Y014635D01*
X013552Y014630D01*
X013512Y014615D01*
X013487Y014600D01*
X013462Y014575D01*
X013447Y014550D01*
X013437Y014510D01*
X013437Y014470D01*
X013447Y014435D01*
X013472Y014405D01*
X013497Y014380D01*
X013532Y014360D01*
X013572Y014345D01*
X013627Y014325D01*
X013712Y014300D01*
X013752Y014285D01*
X013787Y014265D01*
X013802Y014245D01*
X013802Y014205D01*
X013792Y014185D01*
X013777Y014170D01*
X013747Y014160D01*
X013437Y014160D01*
X013982Y014270D02*
X013972Y014325D01*
X013972Y014400D01*
X013977Y014440D01*
X013997Y014490D01*
X014017Y014530D01*
X014052Y014570D01*
X014082Y014595D01*
X014112Y014615D01*
X014147Y014630D01*
X014177Y014640D01*
X014237Y014650D01*
X014292Y014650D01*
X014347Y014640D01*
X014382Y014630D01*
X014422Y014610D01*
X014452Y014590D01*
X014487Y014560D01*
X014507Y014530D01*
X014522Y014500D01*
X014532Y014470D01*
X014542Y014435D01*
X014547Y014400D01*
X014547Y014075D01*
X014457Y014075D01*
X014457Y014400D01*
X014452Y014435D01*
X014437Y014480D01*
X014402Y014520D01*
X014362Y014545D01*
X014322Y014560D01*
X014287Y014565D01*
X014237Y014565D01*
X014207Y014560D01*
X014172Y014550D01*
X014142Y014530D01*
X014112Y014505D01*
X014092Y014475D01*
X014077Y014445D01*
X014067Y014420D01*
X014062Y014395D01*
X014062Y014320D01*
X014072Y014275D01*
X014092Y014235D01*
X014112Y014210D01*
X014152Y014175D01*
X014192Y014155D01*
X014227Y014150D01*
X014297Y014150D01*
X014327Y014160D01*
X014352Y014175D01*
X014377Y014195D01*
X014392Y014210D01*
X014392Y014115D01*
X014357Y014090D01*
X014322Y014075D01*
X014287Y014065D01*
X014217Y014065D01*
X014182Y014070D01*
X014137Y014085D01*
X014092Y014110D01*
X014057Y014140D01*
X014022Y014185D01*
X013997Y014230D01*
X013982Y014270D01*
X014707Y014140D02*
X014707Y014120D01*
X014717Y014100D01*
X014727Y014085D01*
X014742Y014075D01*
X014762Y014070D01*
X014767Y014070D02*
X014782Y014070D01*
X014797Y014075D01*
X014812Y014085D01*
X014827Y014105D01*
X014832Y014120D01*
X014832Y014140D01*
X014827Y014155D01*
X014817Y014170D01*
X014802Y014185D01*
X014787Y014190D01*
X014757Y014190D01*
X014742Y014185D01*
X014727Y014175D01*
X014712Y014155D01*
X014707Y014140D01*
X015007Y014285D02*
X015002Y014325D01*
X015002Y014380D01*
X015007Y014425D01*
X015022Y014465D01*
X015037Y014495D01*
X015062Y014535D01*
X015082Y014555D01*
X015117Y014585D01*
X015152Y014605D01*
X015187Y014620D01*
X015222Y014630D01*
X015257Y014635D01*
X015372Y014635D01*
X015372Y014555D01*
X015272Y014555D01*
X015232Y014545D01*
X015207Y014535D01*
X015187Y014525D01*
X015157Y014505D01*
X015132Y014480D01*
X015117Y014455D01*
X015102Y014420D01*
X015092Y014380D01*
X015092Y014340D01*
X015097Y014310D01*
X015107Y014275D01*
X015122Y014245D01*
X015147Y014215D01*
X015177Y014195D01*
X015212Y014175D01*
X015247Y014165D01*
X015272Y014160D01*
X015377Y014160D01*
X015377Y014075D01*
X015257Y014075D01*
X015212Y014085D01*
X015167Y014100D01*
X015122Y014125D01*
X015072Y014165D01*
X015042Y014205D01*
X015027Y014235D01*
X015007Y014285D01*
X015452Y014340D02*
X015462Y014275D01*
X015477Y014235D01*
X015497Y014195D01*
X015537Y014145D01*
X015582Y014110D01*
X015622Y014090D01*
X015662Y014075D01*
X015707Y014065D01*
X015777Y014065D01*
X015827Y014075D01*
X015867Y014090D01*
X015912Y014115D01*
X015962Y014155D01*
X015992Y014200D01*
X016012Y014240D01*
X016027Y014285D01*
X016037Y014330D01*
X016037Y014385D01*
X016027Y014425D01*
X016012Y014475D01*
X015992Y014515D01*
X015962Y014555D01*
X015922Y014590D01*
X015882Y014615D01*
X015837Y014635D01*
X015797Y014645D01*
X015772Y014650D01*
X015717Y014650D01*
X015662Y014640D01*
X015612Y014620D01*
X015587Y014605D01*
X015557Y014585D01*
X015527Y014555D01*
X015507Y014530D01*
X015487Y014500D01*
X015472Y014465D01*
X015457Y014415D01*
X015452Y014375D01*
X015452Y014340D01*
X015547Y014320D02*
X015557Y014275D01*
X015572Y014240D01*
X015597Y014210D01*
X015617Y014190D01*
X015642Y014170D01*
X015677Y014155D01*
X015737Y014145D01*
X015722Y014150D02*
X015772Y014150D01*
X015807Y014155D01*
X015832Y014165D01*
X015857Y014180D01*
X015882Y014200D01*
X015907Y014230D01*
X015927Y014270D01*
X015937Y014295D01*
X015942Y014325D01*
X015942Y014385D01*
X015932Y014430D01*
X015917Y014465D01*
X015897Y014500D01*
X015902Y014490D02*
X015882Y014515D01*
X015862Y014530D01*
X015837Y014545D01*
X015812Y014555D01*
X015772Y014565D01*
X015717Y014565D01*
X015677Y014555D01*
X015647Y014545D01*
X015652Y014545D02*
X015632Y014535D01*
X015607Y014515D01*
X015587Y014490D01*
X015572Y014470D01*
X015557Y014440D01*
X015547Y014400D01*
X015547Y014320D01*
X016147Y014470D02*
X016147Y014075D01*
X016237Y014075D01*
X016237Y014450D01*
X016242Y014490D01*
X016242Y014485D02*
X016252Y014510D01*
X016272Y014535D01*
X016287Y014550D01*
X016322Y014565D01*
X016382Y014565D01*
X016417Y014550D01*
X016447Y014525D01*
X016462Y014495D01*
X016472Y014465D01*
X016472Y014075D01*
X016562Y014075D01*
X016562Y014465D01*
X016572Y014500D01*
X016592Y014530D01*
X016617Y014550D01*
X016647Y014565D01*
X016707Y014565D01*
X016732Y014555D01*
X016757Y014540D01*
X016777Y014515D01*
X016792Y014485D01*
X016797Y014450D01*
X016797Y014075D01*
X016882Y014075D01*
X016882Y014480D01*
X016877Y014510D01*
X016867Y014540D01*
X016857Y014555D01*
X016842Y014575D01*
X016822Y014600D01*
X016802Y014615D01*
X016772Y014630D01*
X016742Y014640D01*
X016722Y014645D01*
X016707Y014650D01*
X016662Y014650D01*
X016632Y014645D01*
X016597Y014630D01*
X016577Y014620D01*
X016552Y014605D01*
X016512Y014560D01*
X016517Y014565D02*
X016482Y014600D01*
X016457Y014620D01*
X016427Y014635D01*
X016397Y014645D01*
X016367Y014650D01*
X016327Y014650D01*
X016287Y014640D01*
X016247Y014625D01*
X016217Y014605D01*
X016192Y014580D01*
X016172Y014550D01*
X016157Y014515D01*
X016147Y014470D01*
X011942Y014760D02*
X011942Y014785D01*
X011937Y014800D01*
X011927Y014815D01*
X011912Y014825D01*
X011897Y014830D01*
X011877Y014830D01*
X011862Y014825D01*
X011847Y014815D01*
X011837Y014800D01*
X011832Y014780D01*
X011832Y014760D01*
X011847Y014735D01*
X011862Y014725D01*
X011882Y014720D01*
X011887Y014720D02*
X011897Y014720D01*
X011912Y014725D01*
X011932Y014745D01*
X011937Y014755D01*
X011942Y014760D01*
D23*
X018741Y010427D02*
X019014Y010427D01*
X019014Y009027D02*
X018741Y009027D01*
X005790Y005209D02*
X005560Y005209D01*
X005300Y005209D02*
X005060Y005209D01*
D24*
X004430Y007569D02*
X006520Y007569D01*
X006520Y009529D01*
D25*
X006510Y009539D02*
X004420Y009539D01*
X004420Y009129D01*
X004110Y009139D01*
X004110Y009589D01*
X004111Y009599D01*
X004115Y009609D01*
X004122Y009617D01*
X004130Y009624D01*
X004140Y009628D01*
X004150Y009629D01*
X006650Y009629D01*
X006667Y009627D01*
X006684Y009623D01*
X006700Y009616D01*
X006714Y009606D01*
X006727Y009593D01*
X006737Y009579D01*
X006744Y009563D01*
X006748Y009546D01*
X006750Y009529D01*
X006750Y007289D01*
X006660Y007339D02*
X006660Y007429D01*
X006650Y007429D01*
X004420Y007409D02*
X004270Y007409D01*
X004270Y008539D01*
X004280Y008539D01*
X004420Y008679D02*
X004110Y008679D01*
X004110Y007299D01*
X004420Y007409D02*
X004420Y008679D01*
X004240Y009249D02*
X004240Y009589D01*
X004110Y007288D02*
X004438Y007238D01*
X004767Y007202D01*
X005098Y007180D01*
X005430Y007173D01*
X005762Y007180D01*
X006093Y007202D01*
X006422Y007238D01*
X006750Y007288D01*
D26*
X004470Y008709D02*
X004380Y008709D01*
X004380Y009029D01*
X004470Y009119D02*
X004470Y008709D01*
D27*
X004490Y007359D02*
X006520Y007359D01*
D28*
X020675Y006127D02*
X020677Y006139D01*
X020682Y006150D01*
X020691Y006159D01*
X020702Y006164D01*
X020714Y006166D01*
X020726Y006164D01*
X020737Y006159D01*
X020746Y006150D01*
X020751Y006139D01*
X020753Y006127D01*
X020751Y006115D01*
X020746Y006104D01*
X020737Y006095D01*
X020726Y006090D01*
X020714Y006088D01*
X020702Y006090D01*
X020691Y006095D01*
X020682Y006104D01*
X020677Y006115D01*
X020675Y006127D01*
X026686Y005580D02*
X026688Y005592D01*
X026693Y005603D01*
X026702Y005612D01*
X026713Y005617D01*
X026725Y005619D01*
X026737Y005617D01*
X026748Y005612D01*
X026757Y005603D01*
X026762Y005592D01*
X026764Y005580D01*
X026762Y005568D01*
X026757Y005557D01*
X026748Y005548D01*
X026737Y005543D01*
X026725Y005541D01*
X026713Y005543D01*
X026702Y005548D01*
X026693Y005557D01*
X026688Y005568D01*
X026686Y005580D01*
D29*
X025533Y005527D03*
X024214Y005527D03*
X023741Y006327D03*
D30*
X019453Y008515D02*
X019455Y008520D01*
X019459Y008523D01*
X019463Y008523D01*
X019467Y008520D01*
X019469Y008515D01*
X019467Y008510D01*
X019463Y008507D01*
X019459Y008507D01*
X019455Y008510D01*
X019453Y008515D01*
M02*
