G75*
G70*
%OFA0B0*%
%FSLAX24Y24*%
%IPPOS*%
%LPD*%
%AMOC8*
5,1,8,0,0,1.08239X$1,22.5*
%
%ADD10C,0.0050*%
%ADD11C,0.0000*%
%ADD12R,0.0197X0.0220*%
%ADD13R,0.0220X0.0197*%
%ADD14R,0.0315X0.0472*%
%ADD15R,0.0250X0.0472*%
%ADD16C,0.0277*%
%ADD17C,0.0004*%
%ADD18C,0.0450*%
%ADD19C,0.0709*%
%ADD20R,0.0600X0.0236*%
%ADD21R,0.1450X0.0350*%
%ADD22C,0.0850*%
%ADD23C,0.0825*%
%ADD24R,0.0394X0.0433*%
%ADD25C,0.0787*%
%ADD26C,0.0512*%
%ADD27R,0.0197X0.0250*%
%ADD28R,0.0472X0.0217*%
%ADD29R,0.0358X0.0480*%
%ADD30R,0.0551X0.0906*%
%ADD31R,0.0157X0.0551*%
%ADD32R,0.0250X0.0354*%
%ADD33R,0.0433X0.0394*%
%ADD34R,0.0315X0.0354*%
%ADD35R,0.0354X0.0250*%
%ADD36C,0.0984*%
%ADD37R,0.0551X0.0236*%
%ADD38R,0.0551X0.1181*%
%ADD39R,0.0906X0.0551*%
%ADD40C,0.0080*%
%ADD41C,0.0240*%
%ADD42C,0.0400*%
%ADD43C,0.0160*%
%ADD44C,0.0280*%
%ADD45C,0.0220*%
%ADD46C,0.0100*%
%ADD47C,0.0220*%
%ADD48C,0.0200*%
%ADD49C,0.0070*%
%ADD50C,0.0240*%
%ADD51C,0.0230*%
%ADD52C,0.0140*%
%ADD53C,0.0390*%
%ADD54C,0.0280*%
%ADD55C,0.0300*%
%ADD56C,0.0300*%
%ADD57C,0.0260*%
%ADD58C,0.0120*%
%ADD59C,0.0180*%
%ADD60C,0.0420*%
%ADD61C,0.0320*%
D10*
X001677Y000927D02*
X016366Y000927D01*
X016366Y000955D01*
X016370Y000983D01*
X016377Y001010D01*
X016388Y001036D01*
X016402Y001060D01*
X016419Y001082D01*
X016439Y001102D01*
X016461Y001119D01*
X016485Y001133D01*
X016511Y001144D01*
X016538Y001151D01*
X016566Y001155D01*
X016716Y001155D01*
X016744Y001151D01*
X016771Y001144D01*
X016797Y001133D01*
X016821Y001119D01*
X016843Y001102D01*
X016863Y001082D01*
X016880Y001060D01*
X016894Y001036D01*
X016905Y001010D01*
X016912Y000983D01*
X016916Y000955D01*
X016916Y000927D01*
X022103Y000927D01*
X022103Y000955D01*
X022107Y000983D01*
X022114Y001010D01*
X022125Y001036D01*
X022139Y001060D01*
X022156Y001082D01*
X022176Y001102D01*
X022198Y001119D01*
X022222Y001133D01*
X022248Y001144D01*
X022275Y001151D01*
X022303Y001155D01*
X022453Y001155D01*
X022453Y001156D02*
X022482Y001152D01*
X022509Y001145D01*
X022535Y001135D01*
X022560Y001121D01*
X022583Y001104D01*
X022603Y001084D01*
X022621Y001062D01*
X022635Y001037D01*
X022647Y001011D01*
X022654Y000984D01*
X022658Y000956D01*
X022659Y000928D01*
X022658Y000927D02*
X031662Y000927D01*
X031716Y000929D01*
X031770Y000934D01*
X031823Y000943D01*
X031876Y000956D01*
X031927Y000973D01*
X031977Y000993D01*
X032025Y001017D01*
X032072Y001044D01*
X032117Y001075D01*
X032159Y001108D01*
X032199Y001145D01*
X032236Y001184D01*
X032270Y001226D01*
X032301Y001270D01*
X032329Y001316D01*
X032353Y001364D01*
X032374Y001414D01*
X032392Y001465D01*
X032406Y001517D01*
X032416Y001570D01*
X032422Y001624D01*
X032424Y001677D01*
X032423Y001677D02*
X032423Y017896D01*
X032424Y017895D02*
X032422Y017949D01*
X032415Y018003D01*
X032405Y018056D01*
X032392Y018108D01*
X032374Y018159D01*
X032353Y018209D01*
X032329Y018257D01*
X032301Y018303D01*
X032269Y018347D01*
X032235Y018388D01*
X032198Y018427D01*
X032158Y018464D01*
X032116Y018497D01*
X032072Y018528D01*
X032025Y018555D01*
X031977Y018578D01*
X031927Y018599D01*
X031875Y018615D01*
X031823Y018628D01*
X031770Y018637D01*
X031716Y018643D01*
X031663Y018644D01*
X031662Y018644D02*
X001677Y018644D01*
X001624Y018642D01*
X001570Y018637D01*
X001518Y018627D01*
X001466Y018614D01*
X001415Y018597D01*
X001366Y018577D01*
X001318Y018553D01*
X001272Y018526D01*
X001228Y018495D01*
X001186Y018462D01*
X001147Y018425D01*
X001111Y018386D01*
X001077Y018345D01*
X001046Y018301D01*
X001019Y018255D01*
X000995Y018207D01*
X000975Y018158D01*
X000958Y018107D01*
X000944Y018055D01*
X000935Y018003D01*
X000929Y017949D01*
X000927Y017896D01*
X000927Y001677D01*
X000929Y001623D01*
X000935Y001570D01*
X000944Y001518D01*
X000957Y001466D01*
X000974Y001415D01*
X000995Y001365D01*
X001019Y001318D01*
X001046Y001272D01*
X001077Y001228D01*
X001110Y001186D01*
X001147Y001147D01*
X001186Y001110D01*
X001228Y001077D01*
X001272Y001046D01*
X001318Y001019D01*
X001365Y000995D01*
X001415Y000974D01*
X001466Y000957D01*
X001518Y000944D01*
X001570Y000935D01*
X001623Y000929D01*
X001677Y000927D01*
X009521Y002579D02*
X009521Y003914D01*
X010421Y003914D01*
X010421Y003659D01*
X010423Y003625D01*
X010429Y003592D01*
X010438Y003560D01*
X010451Y003529D01*
X010467Y003499D01*
X010486Y003472D01*
X010509Y003447D01*
X010534Y003424D01*
X010561Y003405D01*
X010591Y003389D01*
X010622Y003376D01*
X010654Y003367D01*
X010687Y003361D01*
X010721Y003359D01*
X011821Y003359D01*
X011851Y003361D01*
X011881Y003366D01*
X011910Y003375D01*
X011937Y003388D01*
X011963Y003403D01*
X011987Y003422D01*
X012008Y003443D01*
X012027Y003467D01*
X012042Y003493D01*
X012055Y003520D01*
X012064Y003549D01*
X012069Y003579D01*
X012071Y003609D01*
X012071Y006809D01*
X012069Y006839D01*
X012064Y006869D01*
X012055Y006898D01*
X012042Y006925D01*
X012027Y006951D01*
X012008Y006975D01*
X011987Y006996D01*
X011963Y007015D01*
X011937Y007030D01*
X011910Y007043D01*
X011881Y007052D01*
X011851Y007057D01*
X011821Y007059D01*
X011471Y007059D01*
X011441Y007061D01*
X011411Y007066D01*
X011382Y007075D01*
X011355Y007088D01*
X011329Y007103D01*
X011305Y007122D01*
X011284Y007143D01*
X011265Y007167D01*
X011250Y007193D01*
X011237Y007220D01*
X011228Y007249D01*
X011223Y007279D01*
X011221Y007309D01*
X011221Y009109D01*
X011223Y009139D01*
X011228Y009169D01*
X011237Y009198D01*
X011250Y009225D01*
X011265Y009251D01*
X011284Y009275D01*
X011305Y009296D01*
X011329Y009315D01*
X011355Y009330D01*
X011382Y009343D01*
X011411Y009352D01*
X011441Y009357D01*
X011471Y009359D01*
X013471Y009359D01*
X013499Y009358D01*
X013526Y009354D01*
X013553Y009347D01*
X013578Y009336D01*
X013602Y009322D01*
X013623Y009305D01*
X013643Y009285D01*
X013659Y009263D01*
X013673Y009239D01*
X013683Y009213D01*
X013690Y009186D01*
X013693Y009159D01*
X013693Y008015D01*
X013692Y007979D01*
X013695Y007944D01*
X013702Y007909D01*
X013712Y007875D01*
X013726Y007842D01*
X013743Y007810D01*
X013764Y007781D01*
X013787Y007754D01*
X013813Y007730D01*
X013841Y007708D01*
X013872Y007689D01*
X013904Y007674D01*
X013938Y007663D01*
X013973Y007654D01*
X014008Y007650D01*
X016403Y007650D01*
X016435Y007649D01*
X016467Y007646D01*
X016499Y007638D01*
X016530Y007627D01*
X016559Y007613D01*
X016586Y007595D01*
X016612Y007575D01*
X016635Y007552D01*
X016655Y007526D01*
X016672Y007499D01*
X016686Y007469D01*
X016696Y007438D01*
X016703Y007407D01*
X016707Y007374D01*
X016707Y005092D01*
X016007Y005092D01*
X016007Y005093D02*
X015984Y005097D01*
X015962Y005104D01*
X015941Y005114D01*
X015922Y005127D01*
X015905Y005143D01*
X015891Y005161D01*
X015879Y005181D01*
X015870Y005202D01*
X015864Y005224D01*
X015861Y005247D01*
X015862Y005270D01*
X015862Y005332D01*
X015862Y005355D01*
X015858Y005378D01*
X015852Y005400D01*
X015842Y005421D01*
X015830Y005440D01*
X015815Y005457D01*
X015797Y005472D01*
X015778Y005485D01*
X015757Y005494D01*
X015735Y005500D01*
X015712Y005504D01*
X015572Y005504D01*
X015572Y005505D02*
X015549Y005508D01*
X015527Y005515D01*
X015506Y005525D01*
X015486Y005538D01*
X015469Y005554D01*
X015453Y005571D01*
X015441Y005591D01*
X015432Y005613D01*
X015425Y005635D01*
X015422Y005658D01*
X015423Y005682D01*
X015422Y005682D02*
X015422Y006132D01*
X014322Y006132D01*
X014304Y006072D01*
X014282Y006013D01*
X014256Y005956D01*
X014227Y005900D01*
X014195Y005847D01*
X014159Y005795D01*
X014121Y005745D01*
X014080Y005698D01*
X014035Y005653D01*
X013989Y005612D01*
X013939Y005573D01*
X013888Y005537D01*
X013834Y005504D01*
X013784Y005466D01*
X013736Y005425D01*
X013691Y005381D01*
X013649Y005335D01*
X013609Y005286D01*
X013573Y005234D01*
X013540Y005181D01*
X013510Y005126D01*
X013483Y005069D01*
X013460Y005010D01*
X013441Y004950D01*
X013425Y004889D01*
X013413Y004828D01*
X013404Y004765D01*
X013400Y004702D01*
X013399Y004640D01*
X013402Y004577D01*
X013409Y004514D01*
X013420Y004452D01*
X013434Y004391D01*
X013452Y004331D01*
X013474Y004272D01*
X013499Y004214D01*
X013528Y004158D01*
X013560Y004104D01*
X013595Y004052D01*
X013633Y004002D01*
X013674Y003954D01*
X013719Y003909D01*
X013765Y003867D01*
X013814Y003828D01*
X013866Y003792D01*
X013919Y003759D01*
X013975Y003729D01*
X014032Y003703D01*
X014090Y003680D01*
X014150Y003661D01*
X014211Y003645D01*
X014273Y003633D01*
X014335Y003625D01*
X014398Y003621D01*
X014461Y003620D01*
X014524Y003624D01*
X014586Y003631D01*
X014648Y003642D01*
X014710Y003656D01*
X014770Y003674D01*
X014829Y003696D01*
X014886Y003722D01*
X015547Y003722D01*
X015580Y003724D01*
X015613Y003730D01*
X015645Y003739D01*
X015676Y003751D01*
X015706Y003766D01*
X015734Y003785D01*
X015759Y003806D01*
X015782Y003830D01*
X015803Y003856D01*
X015821Y003884D01*
X015836Y003914D01*
X015847Y003945D01*
X015856Y003977D01*
X015861Y004010D01*
X015862Y004043D01*
X015865Y004066D01*
X015872Y004088D01*
X015882Y004109D01*
X015895Y004129D01*
X015910Y004146D01*
X015928Y004161D01*
X015948Y004173D01*
X015969Y004183D01*
X015992Y004189D01*
X016015Y004192D01*
X016038Y004191D01*
X016038Y004192D02*
X016707Y004192D01*
X016707Y003122D01*
X016709Y003092D01*
X016714Y003062D01*
X016723Y003033D01*
X016736Y003006D01*
X016751Y002980D01*
X016770Y002956D01*
X016791Y002935D01*
X016815Y002916D01*
X016841Y002901D01*
X016868Y002888D01*
X016897Y002879D01*
X016927Y002874D01*
X016957Y002872D01*
X021818Y002959D01*
X022103Y002305D02*
X016916Y002305D01*
X016916Y002277D01*
X016912Y002249D01*
X016905Y002222D01*
X016894Y002196D01*
X016880Y002172D01*
X016863Y002150D01*
X016843Y002130D01*
X016821Y002113D01*
X016797Y002099D01*
X016771Y002088D01*
X016744Y002081D01*
X016716Y002077D01*
X016566Y002077D01*
X016538Y002081D01*
X016511Y002088D01*
X016485Y002099D01*
X016461Y002113D01*
X016439Y002130D01*
X016419Y002150D01*
X016402Y002172D01*
X016388Y002196D01*
X016377Y002222D01*
X016370Y002249D01*
X016366Y002277D01*
X016366Y002305D01*
X009861Y002305D01*
X009829Y002303D01*
X009797Y002305D01*
X009765Y002310D01*
X009733Y002318D01*
X009703Y002329D01*
X009674Y002344D01*
X009647Y002361D01*
X009622Y002382D01*
X009599Y002405D01*
X009579Y002430D01*
X009561Y002457D01*
X009546Y002485D01*
X009534Y002516D01*
X009526Y002547D01*
X009521Y002579D01*
X009521Y004702D02*
X009521Y007909D01*
X010421Y008509D02*
X010421Y004702D01*
X009521Y004702D01*
X009521Y007909D02*
X009524Y008093D01*
X009518Y008277D01*
X009505Y008460D01*
X009484Y008643D01*
X009455Y008824D01*
X009418Y009004D01*
X009374Y009183D01*
X009321Y009359D01*
X011051Y011649D02*
X010922Y011821D01*
X010784Y011987D01*
X010639Y012146D01*
X010486Y012297D01*
X010326Y012441D01*
X010159Y012578D01*
X009986Y012706D01*
X009807Y012825D01*
X009622Y012936D01*
X009432Y013038D01*
X009238Y013131D01*
X009040Y013214D01*
X008837Y013288D01*
X008631Y013352D01*
X008423Y013406D01*
X008212Y013450D01*
X008212Y013449D02*
X008212Y017454D01*
X008210Y017484D01*
X008204Y017513D01*
X008195Y017542D01*
X008183Y017569D01*
X008167Y017595D01*
X008148Y017618D01*
X008127Y017639D01*
X008103Y017657D01*
X008077Y017673D01*
X008050Y017685D01*
X008021Y017693D01*
X007992Y017698D01*
X007962Y017700D01*
X007962Y017699D02*
X006915Y017699D01*
X006915Y016609D01*
X007371Y016609D01*
X007401Y016607D01*
X007431Y016602D01*
X007460Y016593D01*
X007487Y016580D01*
X007513Y016565D01*
X007537Y016546D01*
X007558Y016525D01*
X007577Y016501D01*
X007592Y016475D01*
X007605Y016448D01*
X007614Y016419D01*
X007619Y016389D01*
X007621Y016359D01*
X007621Y014659D01*
X007619Y014629D01*
X007614Y014599D01*
X007605Y014570D01*
X007592Y014543D01*
X007577Y014517D01*
X007558Y014493D01*
X007537Y014472D01*
X007513Y014453D01*
X007487Y014438D01*
X007460Y014425D01*
X007431Y014416D01*
X007401Y014411D01*
X007371Y014409D01*
X006771Y014409D01*
X006741Y014407D01*
X006711Y014402D01*
X006682Y014393D01*
X006655Y014380D01*
X006629Y014365D01*
X006605Y014346D01*
X006584Y014325D01*
X006565Y014301D01*
X006550Y014275D01*
X006537Y014248D01*
X006528Y014219D01*
X006523Y014189D01*
X006521Y014159D01*
X006521Y013159D01*
X006523Y013129D01*
X006528Y013099D01*
X006537Y013070D01*
X006550Y013043D01*
X006565Y013017D01*
X006584Y012993D01*
X006605Y012972D01*
X006629Y012953D01*
X006655Y012938D01*
X006682Y012925D01*
X006711Y012916D01*
X006741Y012911D01*
X006771Y012909D01*
X007621Y012909D01*
X007271Y012059D02*
X005571Y012059D01*
X005541Y012061D01*
X005511Y012066D01*
X005482Y012075D01*
X005455Y012088D01*
X005429Y012103D01*
X005405Y012122D01*
X005384Y012143D01*
X005365Y012167D01*
X005350Y012193D01*
X005337Y012220D01*
X005328Y012249D01*
X005323Y012279D01*
X005321Y012309D01*
X005321Y014589D01*
X005319Y014643D01*
X005313Y014696D01*
X005304Y014748D01*
X005291Y014800D01*
X005274Y014851D01*
X005253Y014901D01*
X005229Y014948D01*
X005202Y014994D01*
X005171Y015038D01*
X005138Y015080D01*
X005101Y015119D01*
X005062Y015156D01*
X005020Y015189D01*
X004976Y015220D01*
X004930Y015247D01*
X004883Y015271D01*
X004833Y015292D01*
X004782Y015309D01*
X004730Y015322D01*
X004678Y015331D01*
X004625Y015337D01*
X004571Y015339D01*
X003321Y015339D01*
X002781Y014739D02*
X002735Y014744D01*
X002690Y014753D01*
X002645Y014765D01*
X002601Y014780D01*
X002559Y014799D01*
X002518Y014822D01*
X002479Y014847D01*
X002442Y014875D01*
X002408Y014906D01*
X002376Y014940D01*
X002347Y014976D01*
X002321Y015015D01*
X002297Y015055D01*
X002278Y015097D01*
X002261Y015140D01*
X002248Y015185D01*
X002238Y015230D01*
X002232Y015276D01*
X002230Y015322D01*
X002231Y015369D01*
X002231Y015368D02*
X002231Y017149D01*
X002233Y017194D01*
X002239Y017240D01*
X002248Y017284D01*
X002261Y017328D01*
X002277Y017370D01*
X002297Y017411D01*
X002321Y017450D01*
X002347Y017487D01*
X002376Y017522D01*
X002408Y017554D01*
X002443Y017583D01*
X002480Y017609D01*
X002519Y017633D01*
X002560Y017653D01*
X002602Y017669D01*
X002646Y017682D01*
X002690Y017691D01*
X002736Y017697D01*
X002781Y017699D01*
X006127Y017699D01*
X006127Y016609D01*
X005471Y016609D01*
X005448Y016611D01*
X005425Y016616D01*
X005403Y016625D01*
X005383Y016638D01*
X005365Y016653D01*
X005350Y016671D01*
X005337Y016691D01*
X005328Y016713D01*
X005323Y016736D01*
X005321Y016759D01*
X005321Y017059D01*
X005319Y017082D01*
X005314Y017105D01*
X005305Y017127D01*
X005292Y017147D01*
X005277Y017165D01*
X005259Y017180D01*
X005239Y017193D01*
X005217Y017202D01*
X005194Y017207D01*
X005171Y017209D01*
X003321Y017209D01*
X003276Y017207D01*
X003230Y017201D01*
X003186Y017192D01*
X003142Y017179D01*
X003100Y017163D01*
X003059Y017143D01*
X003020Y017119D01*
X002983Y017093D01*
X002948Y017064D01*
X002916Y017032D01*
X002887Y016997D01*
X002861Y016960D01*
X002837Y016921D01*
X002817Y016880D01*
X002801Y016838D01*
X002788Y016794D01*
X002779Y016750D01*
X002773Y016704D01*
X002771Y016659D01*
X002771Y015889D01*
X002773Y015844D01*
X002779Y015798D01*
X002788Y015754D01*
X002801Y015710D01*
X002817Y015668D01*
X002837Y015627D01*
X002861Y015588D01*
X002887Y015551D01*
X002916Y015516D01*
X002948Y015484D01*
X002983Y015455D01*
X003020Y015429D01*
X003059Y015405D01*
X003100Y015385D01*
X003142Y015369D01*
X003186Y015356D01*
X003230Y015347D01*
X003276Y015341D01*
X003321Y015339D01*
X002781Y014739D02*
X003971Y014739D01*
X004025Y014737D01*
X004078Y014731D01*
X004130Y014722D01*
X004182Y014709D01*
X004233Y014692D01*
X004283Y014671D01*
X004330Y014647D01*
X004376Y014620D01*
X004420Y014589D01*
X004462Y014556D01*
X004501Y014519D01*
X004538Y014480D01*
X004571Y014438D01*
X004602Y014394D01*
X004629Y014348D01*
X004653Y014301D01*
X004674Y014251D01*
X004691Y014200D01*
X004704Y014148D01*
X004713Y014096D01*
X004719Y014043D01*
X004721Y013989D01*
X004721Y011509D01*
X004723Y011479D01*
X004728Y011449D01*
X004737Y011420D01*
X004750Y011393D01*
X004765Y011367D01*
X004784Y011343D01*
X004805Y011322D01*
X004829Y011303D01*
X004855Y011288D01*
X004882Y011275D01*
X004911Y011266D01*
X004941Y011261D01*
X004971Y011259D01*
X006871Y011259D01*
X010721Y010653D02*
X013671Y010653D01*
X013695Y010655D01*
X013718Y010661D01*
X013740Y010671D01*
X013760Y010684D01*
X013778Y010700D01*
X013794Y010719D01*
X013806Y010739D01*
X013814Y010762D01*
X013820Y010785D01*
X013821Y010809D01*
X013823Y010826D01*
X013827Y010843D01*
X013834Y010859D01*
X013844Y010873D01*
X013857Y010886D01*
X013871Y010896D01*
X013887Y010903D01*
X013904Y010907D01*
X013921Y010909D01*
X014671Y010909D01*
X014688Y010907D01*
X014705Y010903D01*
X014721Y010896D01*
X014735Y010886D01*
X014748Y010873D01*
X014758Y010859D01*
X014765Y010843D01*
X014769Y010826D01*
X014771Y010809D01*
X014772Y010809D02*
X014773Y010785D01*
X014779Y010762D01*
X014787Y010739D01*
X014799Y010719D01*
X014815Y010700D01*
X014833Y010684D01*
X014853Y010671D01*
X014875Y010661D01*
X014898Y010655D01*
X014922Y010653D01*
X014921Y010653D02*
X017312Y010653D01*
X017335Y010655D01*
X017358Y010660D01*
X017380Y010669D01*
X017400Y010682D01*
X017418Y010697D01*
X017433Y010715D01*
X017446Y010735D01*
X017455Y010757D01*
X017460Y010780D01*
X017462Y010803D01*
X017462Y011240D01*
X017465Y011271D01*
X017473Y011302D01*
X017484Y011332D01*
X017498Y011360D01*
X017515Y011387D01*
X017535Y011411D01*
X017557Y011433D01*
X017582Y011453D01*
X017609Y011469D01*
X017638Y011483D01*
X017668Y011493D01*
X017699Y011499D01*
X017730Y011503D01*
X017762Y011502D01*
X017762Y011503D02*
X018477Y011503D01*
X018477Y012853D01*
X016912Y012853D01*
X016912Y012852D02*
X016881Y012853D01*
X016851Y012849D01*
X016822Y012842D01*
X016794Y012831D01*
X016767Y012816D01*
X016743Y012798D01*
X016721Y012777D01*
X016702Y012753D01*
X016687Y012727D01*
X016674Y012699D01*
X016666Y012670D01*
X016662Y012640D01*
X016662Y011803D01*
X016660Y011779D01*
X016655Y011756D01*
X016646Y011733D01*
X016634Y011713D01*
X016619Y011695D01*
X016601Y011679D01*
X016580Y011666D01*
X016558Y011657D01*
X016535Y011651D01*
X016512Y011649D01*
X011051Y011649D01*
X010221Y009659D02*
X010268Y009520D01*
X010308Y009379D01*
X010342Y009236D01*
X010371Y009093D01*
X010393Y008948D01*
X010408Y008802D01*
X010418Y008656D01*
X010421Y008509D01*
X010721Y010653D02*
X010610Y010843D01*
X010490Y011027D01*
X010361Y011205D01*
X010224Y011377D01*
X010078Y011541D01*
X009925Y011699D01*
X009764Y011849D01*
X009596Y011991D01*
X009421Y012124D01*
X009240Y012250D01*
X009054Y012366D01*
X008862Y012473D01*
X008664Y012570D01*
X008463Y012658D01*
X008257Y012736D01*
X008048Y012804D01*
X007836Y012862D01*
X007621Y012909D01*
X004121Y016209D02*
X004121Y016359D01*
X004119Y016398D01*
X004113Y016437D01*
X004104Y016475D01*
X004091Y016512D01*
X004074Y016548D01*
X004054Y016581D01*
X004030Y016613D01*
X004004Y016642D01*
X003975Y016668D01*
X003943Y016692D01*
X003910Y016712D01*
X003874Y016729D01*
X003837Y016742D01*
X003799Y016751D01*
X003760Y016757D01*
X003721Y016759D01*
X003682Y016757D01*
X003643Y016751D01*
X003605Y016742D01*
X003568Y016729D01*
X003532Y016712D01*
X003499Y016692D01*
X003467Y016668D01*
X003438Y016642D01*
X003412Y016613D01*
X003388Y016581D01*
X003368Y016548D01*
X003351Y016512D01*
X003338Y016475D01*
X003329Y016437D01*
X003323Y016398D01*
X003321Y016359D01*
X003321Y016209D01*
X003323Y016170D01*
X003329Y016131D01*
X003338Y016093D01*
X003351Y016056D01*
X003368Y016020D01*
X003388Y015987D01*
X003412Y015955D01*
X003438Y015926D01*
X003467Y015900D01*
X003499Y015876D01*
X003532Y015856D01*
X003568Y015839D01*
X003605Y015826D01*
X003643Y015817D01*
X003682Y015811D01*
X003721Y015809D01*
X003760Y015811D01*
X003799Y015817D01*
X003837Y015826D01*
X003874Y015839D01*
X003910Y015856D01*
X003943Y015876D01*
X003975Y015900D01*
X004004Y015926D01*
X004030Y015955D01*
X004054Y015987D01*
X004074Y016020D01*
X004091Y016056D01*
X004104Y016093D01*
X004113Y016131D01*
X004119Y016170D01*
X004121Y016209D01*
X007271Y012059D02*
X007442Y012030D01*
X007612Y011994D01*
X007780Y011949D01*
X007946Y011897D01*
X008109Y011837D01*
X008269Y011769D01*
X008425Y011694D01*
X008578Y011611D01*
X008727Y011522D01*
X008871Y011425D01*
X009011Y011322D01*
X009146Y011212D01*
X009275Y011097D01*
X009399Y010975D01*
X009517Y010847D01*
X009629Y010714D01*
X009734Y010576D01*
X009833Y010434D01*
X009925Y010286D01*
X010010Y010135D01*
X010088Y009980D01*
X010158Y009821D01*
X010221Y009659D01*
X009321Y009359D02*
X009267Y009490D01*
X009206Y009618D01*
X009140Y009743D01*
X009068Y009865D01*
X008990Y009983D01*
X008907Y010097D01*
X008818Y010208D01*
X008725Y010314D01*
X008626Y010416D01*
X008523Y010513D01*
X008415Y010605D01*
X008303Y010691D01*
X008187Y010773D01*
X008068Y010849D01*
X007945Y010919D01*
X007819Y010983D01*
X007690Y011041D01*
X007558Y011094D01*
X007424Y011139D01*
X007288Y011179D01*
X007150Y011212D01*
X007011Y011239D01*
X006871Y011259D01*
X019265Y011503D02*
X019265Y012853D01*
X023232Y012853D01*
X023233Y012853D02*
X023276Y012844D01*
X023320Y012833D01*
X023362Y012817D01*
X023402Y012799D01*
X023441Y012777D01*
X023478Y012752D01*
X023513Y012724D01*
X023545Y012693D01*
X023575Y012659D01*
X023602Y012623D01*
X023626Y012586D01*
X023646Y012546D01*
X023663Y012505D01*
X023677Y012462D01*
X023687Y012419D01*
X023694Y012374D01*
X023697Y012330D01*
X023696Y012285D01*
X023692Y012240D01*
X023692Y010486D01*
X023694Y010440D01*
X023700Y010394D01*
X023710Y010350D01*
X023724Y010306D01*
X023741Y010263D01*
X023761Y010223D01*
X023785Y010183D01*
X023812Y010146D01*
X023842Y010112D01*
X023875Y010080D01*
X023910Y010050D01*
X023948Y010024D01*
X023987Y010001D01*
X024028Y009981D01*
X024071Y009965D01*
X024115Y009953D01*
X024160Y009944D01*
X024206Y009938D01*
X024251Y009937D01*
X030612Y009937D01*
X030655Y009935D01*
X030698Y009929D01*
X030741Y009920D01*
X030782Y009907D01*
X030822Y009890D01*
X030861Y009870D01*
X030897Y009847D01*
X030931Y009821D01*
X030963Y009791D01*
X030993Y009759D01*
X031019Y009725D01*
X031042Y009688D01*
X031062Y009650D01*
X031079Y009610D01*
X031092Y009569D01*
X031101Y009526D01*
X031107Y009483D01*
X031109Y009440D01*
X031109Y006704D01*
X030321Y006704D01*
X030321Y008259D01*
X030319Y008293D01*
X030313Y008326D01*
X030304Y008358D01*
X030291Y008389D01*
X030275Y008419D01*
X030256Y008446D01*
X030233Y008471D01*
X030208Y008494D01*
X030181Y008513D01*
X030151Y008529D01*
X030120Y008542D01*
X030088Y008551D01*
X030055Y008557D01*
X030021Y008559D01*
X029521Y008559D01*
X029522Y008559D02*
X029504Y008561D01*
X029487Y008566D01*
X029471Y008574D01*
X029456Y008585D01*
X029444Y008598D01*
X029434Y008613D01*
X029427Y008630D01*
X029423Y008647D01*
X029422Y008665D01*
X029421Y008665D02*
X029419Y008682D01*
X029415Y008699D01*
X029408Y008715D01*
X029398Y008729D01*
X029385Y008742D01*
X029371Y008752D01*
X029355Y008759D01*
X029338Y008763D01*
X029321Y008765D01*
X028421Y008765D01*
X028404Y008763D01*
X028387Y008759D01*
X028371Y008752D01*
X028357Y008742D01*
X028344Y008729D01*
X028334Y008715D01*
X028327Y008699D01*
X028323Y008682D01*
X028321Y008665D01*
X028320Y008647D01*
X028316Y008630D01*
X028309Y008613D01*
X028299Y008598D01*
X028287Y008585D01*
X028272Y008574D01*
X028256Y008566D01*
X028239Y008561D01*
X028221Y008559D01*
X024061Y008559D01*
X023994Y008560D01*
X023927Y008566D01*
X023860Y008575D01*
X023794Y008588D01*
X023728Y008605D01*
X023664Y008625D01*
X023601Y008650D01*
X023540Y008678D01*
X023480Y008709D01*
X023423Y008744D01*
X023367Y008782D01*
X023314Y008824D01*
X023263Y008868D01*
X023215Y008915D01*
X023170Y008965D01*
X023127Y009018D01*
X023088Y009073D01*
X023052Y009130D01*
X023020Y009189D01*
X022991Y009250D01*
X022965Y009312D01*
X022944Y009376D01*
X022926Y009441D01*
X022911Y009507D01*
X022901Y009573D01*
X022895Y009640D01*
X022892Y009708D01*
X022892Y011353D01*
X022887Y011378D01*
X022878Y011401D01*
X022866Y011424D01*
X022851Y011444D01*
X022833Y011462D01*
X022813Y011477D01*
X022791Y011489D01*
X022767Y011498D01*
X022742Y011503D01*
X022717Y011505D01*
X022692Y011503D01*
X019265Y011503D01*
X029321Y004259D02*
X029387Y004273D01*
X029453Y004291D01*
X029517Y004312D01*
X029580Y004337D01*
X029642Y004365D01*
X029702Y004397D01*
X029760Y004432D01*
X029816Y004470D01*
X029870Y004512D01*
X029921Y004556D01*
X029970Y004603D01*
X030016Y004652D01*
X030060Y004704D01*
X030100Y004759D01*
X030137Y004815D01*
X030172Y004874D01*
X030202Y004934D01*
X030230Y004996D01*
X030254Y005060D01*
X030274Y005124D01*
X030291Y005190D01*
X030304Y005257D01*
X030313Y005324D01*
X030319Y005391D01*
X030321Y005459D01*
X030321Y005916D01*
X031109Y005916D01*
X031109Y004959D01*
X031106Y004890D01*
X031099Y004821D01*
X031088Y004753D01*
X031073Y004686D01*
X031055Y004620D01*
X031033Y004554D01*
X031008Y004490D01*
X030979Y004428D01*
X030946Y004367D01*
X030910Y004308D01*
X030872Y004252D01*
X030829Y004197D01*
X030784Y004145D01*
X030737Y004095D01*
X030686Y004049D01*
X030633Y004005D01*
X030578Y003964D01*
X030520Y003926D01*
X030460Y003892D01*
X030399Y003861D01*
X030336Y003833D01*
X030271Y003809D01*
X030206Y003788D01*
X030139Y003772D01*
X030071Y003758D01*
X022659Y002305D02*
X022658Y002277D01*
X022654Y002249D01*
X022647Y002222D01*
X022635Y002196D01*
X022621Y002171D01*
X022603Y002149D01*
X022583Y002129D01*
X022560Y002112D01*
X022535Y002098D01*
X022509Y002088D01*
X022482Y002081D01*
X022453Y002077D01*
X022303Y002077D01*
X022275Y002081D01*
X022248Y002088D01*
X022222Y002099D01*
X022198Y002113D01*
X022176Y002130D01*
X022156Y002150D01*
X022139Y002172D01*
X022125Y002196D01*
X022114Y002222D01*
X022107Y002249D01*
X022103Y002277D01*
X022103Y002305D01*
X022658Y002306D02*
X024534Y002548D01*
X026397Y002871D01*
X028244Y003275D01*
X030072Y003759D01*
X029321Y004260D02*
X027468Y003812D01*
X025598Y003446D01*
X023713Y003161D01*
X021818Y002959D01*
D11*
X030718Y002959D02*
X030720Y003007D01*
X030726Y003055D01*
X030736Y003102D01*
X030749Y003148D01*
X030767Y003193D01*
X030787Y003237D01*
X030812Y003279D01*
X030840Y003318D01*
X030870Y003355D01*
X030904Y003389D01*
X030941Y003421D01*
X030979Y003450D01*
X031020Y003475D01*
X031063Y003497D01*
X031108Y003515D01*
X031154Y003529D01*
X031201Y003540D01*
X031249Y003547D01*
X031297Y003550D01*
X031345Y003549D01*
X031393Y003544D01*
X031441Y003535D01*
X031487Y003523D01*
X031532Y003506D01*
X031576Y003486D01*
X031618Y003463D01*
X031658Y003436D01*
X031696Y003406D01*
X031731Y003373D01*
X031763Y003337D01*
X031793Y003299D01*
X031819Y003258D01*
X031841Y003215D01*
X031861Y003171D01*
X031876Y003126D01*
X031888Y003079D01*
X031896Y003031D01*
X031900Y002983D01*
X031900Y002935D01*
X031896Y002887D01*
X031888Y002839D01*
X031876Y002792D01*
X031861Y002747D01*
X031841Y002703D01*
X031819Y002660D01*
X031793Y002619D01*
X031763Y002581D01*
X031731Y002545D01*
X031696Y002512D01*
X031658Y002482D01*
X031618Y002455D01*
X031576Y002432D01*
X031532Y002412D01*
X031487Y002395D01*
X031441Y002383D01*
X031393Y002374D01*
X031345Y002369D01*
X031297Y002368D01*
X031249Y002371D01*
X031201Y002378D01*
X031154Y002389D01*
X031108Y002403D01*
X031063Y002421D01*
X031020Y002443D01*
X030979Y002468D01*
X030941Y002497D01*
X030904Y002529D01*
X030870Y002563D01*
X030840Y002600D01*
X030812Y002639D01*
X030787Y002681D01*
X030767Y002725D01*
X030749Y002770D01*
X030736Y002816D01*
X030726Y002863D01*
X030720Y002911D01*
X030718Y002959D01*
X030718Y012459D02*
X030720Y012507D01*
X030726Y012555D01*
X030736Y012602D01*
X030749Y012648D01*
X030767Y012693D01*
X030787Y012737D01*
X030812Y012779D01*
X030840Y012818D01*
X030870Y012855D01*
X030904Y012889D01*
X030941Y012921D01*
X030979Y012950D01*
X031020Y012975D01*
X031063Y012997D01*
X031108Y013015D01*
X031154Y013029D01*
X031201Y013040D01*
X031249Y013047D01*
X031297Y013050D01*
X031345Y013049D01*
X031393Y013044D01*
X031441Y013035D01*
X031487Y013023D01*
X031532Y013006D01*
X031576Y012986D01*
X031618Y012963D01*
X031658Y012936D01*
X031696Y012906D01*
X031731Y012873D01*
X031763Y012837D01*
X031793Y012799D01*
X031819Y012758D01*
X031841Y012715D01*
X031861Y012671D01*
X031876Y012626D01*
X031888Y012579D01*
X031896Y012531D01*
X031900Y012483D01*
X031900Y012435D01*
X031896Y012387D01*
X031888Y012339D01*
X031876Y012292D01*
X031861Y012247D01*
X031841Y012203D01*
X031819Y012160D01*
X031793Y012119D01*
X031763Y012081D01*
X031731Y012045D01*
X031696Y012012D01*
X031658Y011982D01*
X031618Y011955D01*
X031576Y011932D01*
X031532Y011912D01*
X031487Y011895D01*
X031441Y011883D01*
X031393Y011874D01*
X031345Y011869D01*
X031297Y011868D01*
X031249Y011871D01*
X031201Y011878D01*
X031154Y011889D01*
X031108Y011903D01*
X031063Y011921D01*
X031020Y011943D01*
X030979Y011968D01*
X030941Y011997D01*
X030904Y012029D01*
X030870Y012063D01*
X030840Y012100D01*
X030812Y012139D01*
X030787Y012181D01*
X030767Y012225D01*
X030749Y012270D01*
X030736Y012316D01*
X030726Y012363D01*
X030720Y012411D01*
X030718Y012459D01*
X001440Y012459D02*
X001442Y012507D01*
X001448Y012555D01*
X001458Y012602D01*
X001471Y012648D01*
X001489Y012693D01*
X001509Y012737D01*
X001534Y012779D01*
X001562Y012818D01*
X001592Y012855D01*
X001626Y012889D01*
X001663Y012921D01*
X001701Y012950D01*
X001742Y012975D01*
X001785Y012997D01*
X001830Y013015D01*
X001876Y013029D01*
X001923Y013040D01*
X001971Y013047D01*
X002019Y013050D01*
X002067Y013049D01*
X002115Y013044D01*
X002163Y013035D01*
X002209Y013023D01*
X002254Y013006D01*
X002298Y012986D01*
X002340Y012963D01*
X002380Y012936D01*
X002418Y012906D01*
X002453Y012873D01*
X002485Y012837D01*
X002515Y012799D01*
X002541Y012758D01*
X002563Y012715D01*
X002583Y012671D01*
X002598Y012626D01*
X002610Y012579D01*
X002618Y012531D01*
X002622Y012483D01*
X002622Y012435D01*
X002618Y012387D01*
X002610Y012339D01*
X002598Y012292D01*
X002583Y012247D01*
X002563Y012203D01*
X002541Y012160D01*
X002515Y012119D01*
X002485Y012081D01*
X002453Y012045D01*
X002418Y012012D01*
X002380Y011982D01*
X002340Y011955D01*
X002298Y011932D01*
X002254Y011912D01*
X002209Y011895D01*
X002163Y011883D01*
X002115Y011874D01*
X002067Y011869D01*
X002019Y011868D01*
X001971Y011871D01*
X001923Y011878D01*
X001876Y011889D01*
X001830Y011903D01*
X001785Y011921D01*
X001742Y011943D01*
X001701Y011968D01*
X001663Y011997D01*
X001626Y012029D01*
X001592Y012063D01*
X001562Y012100D01*
X001534Y012139D01*
X001509Y012181D01*
X001489Y012225D01*
X001471Y012270D01*
X001458Y012316D01*
X001448Y012363D01*
X001442Y012411D01*
X001440Y012459D01*
X001440Y002959D02*
X001442Y003007D01*
X001448Y003055D01*
X001458Y003102D01*
X001471Y003148D01*
X001489Y003193D01*
X001509Y003237D01*
X001534Y003279D01*
X001562Y003318D01*
X001592Y003355D01*
X001626Y003389D01*
X001663Y003421D01*
X001701Y003450D01*
X001742Y003475D01*
X001785Y003497D01*
X001830Y003515D01*
X001876Y003529D01*
X001923Y003540D01*
X001971Y003547D01*
X002019Y003550D01*
X002067Y003549D01*
X002115Y003544D01*
X002163Y003535D01*
X002209Y003523D01*
X002254Y003506D01*
X002298Y003486D01*
X002340Y003463D01*
X002380Y003436D01*
X002418Y003406D01*
X002453Y003373D01*
X002485Y003337D01*
X002515Y003299D01*
X002541Y003258D01*
X002563Y003215D01*
X002583Y003171D01*
X002598Y003126D01*
X002610Y003079D01*
X002618Y003031D01*
X002622Y002983D01*
X002622Y002935D01*
X002618Y002887D01*
X002610Y002839D01*
X002598Y002792D01*
X002583Y002747D01*
X002563Y002703D01*
X002541Y002660D01*
X002515Y002619D01*
X002485Y002581D01*
X002453Y002545D01*
X002418Y002512D01*
X002380Y002482D01*
X002340Y002455D01*
X002298Y002432D01*
X002254Y002412D01*
X002209Y002395D01*
X002163Y002383D01*
X002115Y002374D01*
X002067Y002369D01*
X002019Y002368D01*
X001971Y002371D01*
X001923Y002378D01*
X001876Y002389D01*
X001830Y002403D01*
X001785Y002421D01*
X001742Y002443D01*
X001701Y002468D01*
X001663Y002497D01*
X001626Y002529D01*
X001592Y002563D01*
X001562Y002600D01*
X001534Y002639D01*
X001509Y002681D01*
X001489Y002725D01*
X001471Y002770D01*
X001458Y002816D01*
X001448Y002863D01*
X001442Y002911D01*
X001440Y002959D01*
D12*
X016994Y003362D03*
X017354Y003362D03*
X017354Y003808D03*
X016994Y003808D03*
X016994Y004505D03*
X017354Y004505D03*
X017354Y004951D03*
X016994Y004951D03*
X021027Y008564D03*
X021027Y009011D03*
X021027Y009454D03*
X021027Y009901D03*
X021027Y010354D03*
X021027Y010801D03*
X023119Y007450D03*
X023119Y007003D03*
X025544Y004755D03*
X025544Y004309D03*
D13*
X026018Y004327D03*
X026465Y004327D03*
X026465Y004738D03*
X026018Y004738D03*
X024951Y004836D03*
X024504Y004836D03*
X023213Y003939D03*
X022767Y003939D03*
X022767Y003529D03*
X023213Y003529D03*
X022304Y003529D03*
X021858Y003529D03*
X021858Y003939D03*
X022304Y003939D03*
X024504Y003820D03*
X024951Y003820D03*
X025354Y007801D03*
X025801Y007801D03*
X025801Y008227D03*
X025354Y008227D03*
X020120Y007707D03*
X019673Y007707D03*
X019220Y007707D03*
X018773Y007707D03*
X018320Y007707D03*
X017873Y007707D03*
X014585Y005044D03*
X014138Y005044D03*
X014138Y004684D03*
X014138Y004324D03*
X014585Y004324D03*
X014585Y004684D03*
X014585Y003964D03*
X014138Y003964D03*
D14*
X018458Y004805D03*
X018942Y004805D03*
X020139Y004805D03*
X020623Y004805D03*
D15*
X019737Y004805D03*
X019343Y004805D03*
D16*
X017840Y004752D03*
X017840Y003256D03*
X021241Y003256D03*
X021241Y004752D03*
D17*
X021455Y004751D02*
X021025Y004751D01*
X021025Y004749D02*
X021455Y004749D01*
X021455Y004747D02*
X021025Y004747D01*
X021025Y004744D02*
X021455Y004744D01*
X021455Y004742D02*
X021025Y004742D01*
X021025Y004739D02*
X021455Y004739D01*
X021455Y004737D02*
X021025Y004737D01*
X021025Y004734D02*
X021455Y004734D01*
X021455Y004732D02*
X021025Y004732D01*
X021025Y004730D02*
X021455Y004730D01*
X021455Y004727D02*
X021025Y004727D01*
X021025Y004725D02*
X021455Y004725D01*
X021455Y004722D02*
X021025Y004722D01*
X021025Y004720D02*
X021455Y004720D01*
X021455Y004717D02*
X021025Y004717D01*
X021025Y004715D02*
X021455Y004715D01*
X021455Y004712D02*
X021025Y004712D01*
X021025Y004710D02*
X021455Y004710D01*
X021455Y004708D02*
X021025Y004708D01*
X021025Y004705D02*
X021455Y004705D01*
X021455Y004703D02*
X021025Y004703D01*
X021025Y004700D02*
X021455Y004700D01*
X021455Y004698D02*
X021025Y004698D01*
X021025Y004695D02*
X021455Y004695D01*
X021455Y004693D02*
X021025Y004693D01*
X021025Y004691D02*
X021455Y004691D01*
X021455Y004688D02*
X021025Y004688D01*
X021025Y004686D02*
X021455Y004686D01*
X021455Y004683D02*
X021025Y004683D01*
X021025Y004681D02*
X021455Y004681D01*
X021455Y004678D02*
X021025Y004678D01*
X021025Y004676D02*
X021455Y004676D01*
X021455Y004673D02*
X021025Y004673D01*
X021025Y004671D02*
X021455Y004671D01*
X021455Y004669D02*
X021025Y004669D01*
X021025Y004666D02*
X021455Y004666D01*
X021455Y004664D02*
X021025Y004664D01*
X021025Y004661D02*
X021455Y004661D01*
X021455Y004659D02*
X021025Y004659D01*
X021025Y004656D02*
X021455Y004656D01*
X021455Y004654D02*
X021025Y004654D01*
X021025Y004652D02*
X021455Y004652D01*
X021455Y004649D02*
X021025Y004649D01*
X021025Y004647D02*
X021455Y004647D01*
X021455Y004644D02*
X021025Y004644D01*
X021025Y004642D02*
X021455Y004642D01*
X021455Y004639D02*
X021025Y004639D01*
X021025Y004637D02*
X021455Y004637D01*
X021455Y004634D02*
X021025Y004634D01*
X021025Y004870D01*
X021031Y004918D01*
X021047Y004964D01*
X021072Y005004D01*
X021106Y005038D01*
X021147Y005064D01*
X021193Y005080D01*
X021240Y005085D01*
X021288Y005080D01*
X021334Y005064D01*
X021374Y005038D01*
X021408Y005004D01*
X021434Y004964D01*
X021450Y004918D01*
X021455Y004870D01*
X021455Y004634D01*
X021450Y004586D01*
X021434Y004541D01*
X021408Y004500D01*
X021374Y004466D01*
X021334Y004441D01*
X021288Y004425D01*
X021240Y004419D01*
X021193Y004425D01*
X021147Y004441D01*
X021106Y004466D01*
X021374Y004466D01*
X021377Y004469D02*
X021104Y004469D01*
X021101Y004471D02*
X021379Y004471D01*
X021382Y004474D02*
X021099Y004474D01*
X021096Y004476D02*
X021384Y004476D01*
X021387Y004478D02*
X021094Y004478D01*
X021092Y004481D02*
X021389Y004481D01*
X021391Y004483D02*
X021089Y004483D01*
X021087Y004486D02*
X021394Y004486D01*
X021396Y004488D02*
X021084Y004488D01*
X021082Y004491D02*
X021399Y004491D01*
X021401Y004493D02*
X021079Y004493D01*
X021077Y004496D02*
X021404Y004496D01*
X021406Y004498D02*
X021075Y004498D01*
X021072Y004500D02*
X021047Y004541D01*
X021031Y004586D01*
X021450Y004586D01*
X021450Y004588D02*
X021031Y004588D01*
X021031Y004586D02*
X021025Y004634D01*
X021026Y004632D02*
X021455Y004632D01*
X021455Y004630D02*
X021026Y004630D01*
X021026Y004627D02*
X021454Y004627D01*
X021454Y004625D02*
X021027Y004625D01*
X021027Y004622D02*
X021454Y004622D01*
X021454Y004620D02*
X021027Y004620D01*
X021027Y004617D02*
X021453Y004617D01*
X021453Y004615D02*
X021028Y004615D01*
X021028Y004613D02*
X021453Y004613D01*
X021452Y004610D02*
X021028Y004610D01*
X021028Y004608D02*
X021452Y004608D01*
X021452Y004605D02*
X021029Y004605D01*
X021029Y004603D02*
X021452Y004603D01*
X021451Y004600D02*
X021029Y004600D01*
X021030Y004598D02*
X021451Y004598D01*
X021451Y004595D02*
X021030Y004595D01*
X021030Y004593D02*
X021451Y004593D01*
X021450Y004591D02*
X021030Y004591D01*
X021032Y004583D02*
X021449Y004583D01*
X021448Y004581D02*
X021033Y004581D01*
X021034Y004578D02*
X021447Y004578D01*
X021446Y004576D02*
X021034Y004576D01*
X021035Y004574D02*
X021445Y004574D01*
X021444Y004571D02*
X021036Y004571D01*
X021037Y004569D02*
X021444Y004569D01*
X021443Y004566D02*
X021038Y004566D01*
X021039Y004564D02*
X021442Y004564D01*
X021441Y004561D02*
X021040Y004561D01*
X021040Y004559D02*
X021440Y004559D01*
X021439Y004556D02*
X021041Y004556D01*
X021042Y004554D02*
X021438Y004554D01*
X021438Y004552D02*
X021043Y004552D01*
X021044Y004549D02*
X021437Y004549D01*
X021436Y004547D02*
X021045Y004547D01*
X021046Y004544D02*
X021435Y004544D01*
X021434Y004542D02*
X021046Y004542D01*
X021048Y004539D02*
X021433Y004539D01*
X021431Y004537D02*
X021049Y004537D01*
X021051Y004535D02*
X021430Y004535D01*
X021428Y004532D02*
X021052Y004532D01*
X021054Y004530D02*
X021427Y004530D01*
X021425Y004527D02*
X021055Y004527D01*
X021057Y004525D02*
X021424Y004525D01*
X021422Y004522D02*
X021058Y004522D01*
X021060Y004520D02*
X021421Y004520D01*
X021419Y004517D02*
X021061Y004517D01*
X021063Y004515D02*
X021418Y004515D01*
X021416Y004513D02*
X021065Y004513D01*
X021066Y004510D02*
X021415Y004510D01*
X021413Y004508D02*
X021068Y004508D01*
X021069Y004505D02*
X021412Y004505D01*
X021410Y004503D02*
X021071Y004503D01*
X021072Y004500D02*
X021408Y004500D01*
X021371Y004464D02*
X021110Y004464D01*
X021106Y004466D02*
X021072Y004500D01*
X021114Y004461D02*
X021367Y004461D01*
X021363Y004459D02*
X021118Y004459D01*
X021122Y004457D02*
X021359Y004457D01*
X021355Y004454D02*
X021126Y004454D01*
X021129Y004452D02*
X021351Y004452D01*
X021347Y004449D02*
X021133Y004449D01*
X021137Y004447D02*
X021343Y004447D01*
X021340Y004444D02*
X021141Y004444D01*
X021145Y004442D02*
X021336Y004442D01*
X021330Y004439D02*
X021150Y004439D01*
X021157Y004437D02*
X021324Y004437D01*
X021317Y004435D02*
X021164Y004435D01*
X021171Y004432D02*
X021310Y004432D01*
X021303Y004430D02*
X021178Y004430D01*
X021185Y004427D02*
X021296Y004427D01*
X021289Y004425D02*
X021192Y004425D01*
X021212Y004422D02*
X021268Y004422D01*
X021247Y004420D02*
X021234Y004420D01*
X021025Y004754D02*
X021455Y004754D01*
X021455Y004756D02*
X021025Y004756D01*
X021025Y004759D02*
X021455Y004759D01*
X021455Y004761D02*
X021025Y004761D01*
X021025Y004764D02*
X021455Y004764D01*
X021455Y004766D02*
X021025Y004766D01*
X021025Y004769D02*
X021455Y004769D01*
X021455Y004771D02*
X021025Y004771D01*
X021025Y004773D02*
X021455Y004773D01*
X021455Y004776D02*
X021025Y004776D01*
X021025Y004778D02*
X021455Y004778D01*
X021455Y004781D02*
X021025Y004781D01*
X021025Y004783D02*
X021455Y004783D01*
X021455Y004786D02*
X021025Y004786D01*
X021025Y004788D02*
X021455Y004788D01*
X021455Y004790D02*
X021025Y004790D01*
X021025Y004793D02*
X021455Y004793D01*
X021455Y004795D02*
X021025Y004795D01*
X021025Y004798D02*
X021455Y004798D01*
X021455Y004800D02*
X021025Y004800D01*
X021025Y004803D02*
X021455Y004803D01*
X021455Y004805D02*
X021025Y004805D01*
X021025Y004808D02*
X021455Y004808D01*
X021455Y004810D02*
X021025Y004810D01*
X021025Y004812D02*
X021455Y004812D01*
X021455Y004815D02*
X021025Y004815D01*
X021025Y004817D02*
X021455Y004817D01*
X021455Y004820D02*
X021025Y004820D01*
X021025Y004822D02*
X021455Y004822D01*
X021455Y004825D02*
X021025Y004825D01*
X021025Y004827D02*
X021455Y004827D01*
X021455Y004829D02*
X021025Y004829D01*
X021025Y004832D02*
X021455Y004832D01*
X021455Y004834D02*
X021025Y004834D01*
X021025Y004837D02*
X021455Y004837D01*
X021455Y004839D02*
X021025Y004839D01*
X021025Y004842D02*
X021455Y004842D01*
X021455Y004844D02*
X021025Y004844D01*
X021025Y004847D02*
X021455Y004847D01*
X021455Y004849D02*
X021025Y004849D01*
X021025Y004851D02*
X021455Y004851D01*
X021455Y004854D02*
X021025Y004854D01*
X021025Y004856D02*
X021455Y004856D01*
X021455Y004859D02*
X021025Y004859D01*
X021025Y004861D02*
X021455Y004861D01*
X021455Y004864D02*
X021025Y004864D01*
X021025Y004866D02*
X021455Y004866D01*
X021455Y004868D02*
X021025Y004868D01*
X021026Y004871D02*
X021455Y004871D01*
X021455Y004873D02*
X021026Y004873D01*
X021026Y004876D02*
X021455Y004876D01*
X021454Y004878D02*
X021026Y004878D01*
X021027Y004881D02*
X021454Y004881D01*
X021454Y004883D02*
X021027Y004883D01*
X021027Y004886D02*
X021453Y004886D01*
X021453Y004888D02*
X021027Y004888D01*
X021028Y004890D02*
X021453Y004890D01*
X021453Y004893D02*
X021028Y004893D01*
X021028Y004895D02*
X021452Y004895D01*
X021452Y004898D02*
X021029Y004898D01*
X021029Y004900D02*
X021452Y004900D01*
X021452Y004903D02*
X021029Y004903D01*
X021029Y004905D02*
X021451Y004905D01*
X021451Y004907D02*
X021030Y004907D01*
X021030Y004910D02*
X021451Y004910D01*
X021450Y004912D02*
X021030Y004912D01*
X021030Y004915D02*
X021450Y004915D01*
X021450Y004917D02*
X021031Y004917D01*
X021031Y004920D02*
X021449Y004920D01*
X021448Y004922D02*
X021032Y004922D01*
X021033Y004924D02*
X021448Y004924D01*
X021447Y004927D02*
X021034Y004927D01*
X021035Y004929D02*
X021446Y004929D01*
X021445Y004932D02*
X021036Y004932D01*
X021036Y004934D02*
X021444Y004934D01*
X021443Y004937D02*
X021037Y004937D01*
X021038Y004939D02*
X021442Y004939D01*
X021442Y004942D02*
X021039Y004942D01*
X021040Y004944D02*
X021441Y004944D01*
X021440Y004946D02*
X021041Y004946D01*
X021042Y004949D02*
X021439Y004949D01*
X021438Y004951D02*
X021042Y004951D01*
X021043Y004954D02*
X021437Y004954D01*
X021436Y004956D02*
X021044Y004956D01*
X021045Y004959D02*
X021436Y004959D01*
X021435Y004961D02*
X021046Y004961D01*
X021047Y004963D02*
X021434Y004963D01*
X021432Y004966D02*
X021048Y004966D01*
X021050Y004968D02*
X021431Y004968D01*
X021429Y004971D02*
X021051Y004971D01*
X021053Y004973D02*
X021428Y004973D01*
X021426Y004976D02*
X021054Y004976D01*
X021056Y004978D02*
X021425Y004978D01*
X021423Y004981D02*
X021057Y004981D01*
X021059Y004983D02*
X021422Y004983D01*
X021420Y004985D02*
X021060Y004985D01*
X021062Y004988D02*
X021419Y004988D01*
X021417Y004990D02*
X021064Y004990D01*
X021065Y004993D02*
X021416Y004993D01*
X021414Y004995D02*
X021067Y004995D01*
X021068Y004998D02*
X021412Y004998D01*
X021411Y005000D02*
X021070Y005000D01*
X021071Y005002D02*
X021409Y005002D01*
X021408Y005005D02*
X021073Y005005D01*
X021075Y005007D02*
X021405Y005007D01*
X021403Y005010D02*
X021078Y005010D01*
X021080Y005012D02*
X021400Y005012D01*
X021398Y005015D02*
X021083Y005015D01*
X021085Y005017D02*
X021395Y005017D01*
X021393Y005020D02*
X021088Y005020D01*
X021090Y005022D02*
X021391Y005022D01*
X021388Y005024D02*
X021092Y005024D01*
X021095Y005027D02*
X021386Y005027D01*
X021383Y005029D02*
X021097Y005029D01*
X021100Y005032D02*
X021381Y005032D01*
X021378Y005034D02*
X021102Y005034D01*
X021105Y005037D02*
X021376Y005037D01*
X021373Y005039D02*
X021108Y005039D01*
X021111Y005041D02*
X021369Y005041D01*
X021365Y005044D02*
X021115Y005044D01*
X021119Y005046D02*
X021361Y005046D01*
X021358Y005049D02*
X021123Y005049D01*
X021127Y005051D02*
X021354Y005051D01*
X021350Y005054D02*
X021131Y005054D01*
X021135Y005056D02*
X021346Y005056D01*
X021342Y005059D02*
X021139Y005059D01*
X021142Y005061D02*
X021338Y005061D01*
X021334Y005063D02*
X021146Y005063D01*
X021153Y005066D02*
X021328Y005066D01*
X021321Y005068D02*
X021160Y005068D01*
X021167Y005071D02*
X021314Y005071D01*
X021307Y005073D02*
X021174Y005073D01*
X021180Y005076D02*
X021300Y005076D01*
X021293Y005078D02*
X021187Y005078D01*
X021198Y005080D02*
X021282Y005080D01*
X021261Y005083D02*
X021220Y005083D01*
X021240Y003589D02*
X021288Y003584D01*
X021334Y003568D01*
X021374Y003542D01*
X021408Y003508D01*
X021434Y003468D01*
X021450Y003422D01*
X021455Y003374D01*
X021455Y003138D01*
X021025Y003138D01*
X021025Y003374D01*
X021031Y003422D01*
X021047Y003468D01*
X021072Y003508D01*
X021106Y003542D01*
X021147Y003568D01*
X021193Y003584D01*
X021240Y003589D01*
X021238Y003589D02*
X021243Y003589D01*
X021264Y003586D02*
X021216Y003586D01*
X021195Y003584D02*
X021286Y003584D01*
X021294Y003582D02*
X021186Y003582D01*
X021179Y003579D02*
X021301Y003579D01*
X021308Y003577D02*
X021172Y003577D01*
X021165Y003574D02*
X021315Y003574D01*
X021322Y003572D02*
X021158Y003572D01*
X021151Y003569D02*
X021329Y003569D01*
X021335Y003567D02*
X021146Y003567D01*
X021142Y003565D02*
X021339Y003565D01*
X021343Y003562D02*
X021138Y003562D01*
X021134Y003560D02*
X021347Y003560D01*
X021351Y003557D02*
X021130Y003557D01*
X021126Y003555D02*
X021354Y003555D01*
X021358Y003552D02*
X021122Y003552D01*
X021118Y003550D02*
X021362Y003550D01*
X021366Y003547D02*
X021115Y003547D01*
X021111Y003545D02*
X021370Y003545D01*
X021374Y003543D02*
X021107Y003543D01*
X021104Y003540D02*
X021376Y003540D01*
X021379Y003538D02*
X021102Y003538D01*
X021099Y003535D02*
X021381Y003535D01*
X021384Y003533D02*
X021097Y003533D01*
X021094Y003530D02*
X021386Y003530D01*
X021389Y003528D02*
X021092Y003528D01*
X021090Y003526D02*
X021391Y003526D01*
X021393Y003523D02*
X021087Y003523D01*
X021085Y003521D02*
X021396Y003521D01*
X021398Y003518D02*
X021082Y003518D01*
X021080Y003516D02*
X021401Y003516D01*
X021403Y003513D02*
X021077Y003513D01*
X021075Y003511D02*
X021406Y003511D01*
X021408Y003508D02*
X021073Y003508D01*
X021071Y003506D02*
X021410Y003506D01*
X021411Y003504D02*
X021069Y003504D01*
X021068Y003501D02*
X021413Y003501D01*
X021414Y003499D02*
X021066Y003499D01*
X021065Y003496D02*
X021416Y003496D01*
X021417Y003494D02*
X021063Y003494D01*
X021062Y003491D02*
X021419Y003491D01*
X021420Y003489D02*
X021060Y003489D01*
X021059Y003487D02*
X021422Y003487D01*
X021423Y003484D02*
X021057Y003484D01*
X021056Y003482D02*
X021425Y003482D01*
X021427Y003479D02*
X021054Y003479D01*
X021053Y003477D02*
X021428Y003477D01*
X021430Y003474D02*
X021051Y003474D01*
X021049Y003472D02*
X021431Y003472D01*
X021433Y003469D02*
X021048Y003469D01*
X021047Y003467D02*
X021434Y003467D01*
X021435Y003465D02*
X021046Y003465D01*
X021045Y003462D02*
X021436Y003462D01*
X021437Y003460D02*
X021044Y003460D01*
X021043Y003457D02*
X021437Y003457D01*
X021438Y003455D02*
X021042Y003455D01*
X021041Y003452D02*
X021439Y003452D01*
X021440Y003450D02*
X021041Y003450D01*
X021040Y003448D02*
X021441Y003448D01*
X021442Y003445D02*
X021039Y003445D01*
X021038Y003443D02*
X021443Y003443D01*
X021443Y003440D02*
X021037Y003440D01*
X021036Y003438D02*
X021444Y003438D01*
X021445Y003435D02*
X021035Y003435D01*
X021035Y003433D02*
X021446Y003433D01*
X021447Y003430D02*
X021034Y003430D01*
X021033Y003428D02*
X021448Y003428D01*
X021449Y003426D02*
X021032Y003426D01*
X021031Y003423D02*
X021449Y003423D01*
X021450Y003421D02*
X021031Y003421D01*
X021030Y003418D02*
X021450Y003418D01*
X021450Y003416D02*
X021030Y003416D01*
X021030Y003413D02*
X021451Y003413D01*
X021451Y003411D02*
X021030Y003411D01*
X021029Y003409D02*
X021451Y003409D01*
X021452Y003406D02*
X021029Y003406D01*
X021029Y003404D02*
X021452Y003404D01*
X021452Y003401D02*
X021028Y003401D01*
X021028Y003399D02*
X021452Y003399D01*
X021453Y003396D02*
X021028Y003396D01*
X021028Y003394D02*
X021453Y003394D01*
X021453Y003391D02*
X021027Y003391D01*
X021027Y003389D02*
X021454Y003389D01*
X021454Y003387D02*
X021027Y003387D01*
X021027Y003384D02*
X021454Y003384D01*
X021454Y003382D02*
X021026Y003382D01*
X021026Y003379D02*
X021455Y003379D01*
X021455Y003377D02*
X021026Y003377D01*
X021025Y003374D02*
X021455Y003374D01*
X021455Y003372D02*
X021025Y003372D01*
X021025Y003370D02*
X021455Y003370D01*
X021455Y003367D02*
X021025Y003367D01*
X021025Y003365D02*
X021455Y003365D01*
X021455Y003362D02*
X021025Y003362D01*
X021025Y003360D02*
X021455Y003360D01*
X021455Y003357D02*
X021025Y003357D01*
X021025Y003355D02*
X021455Y003355D01*
X021455Y003352D02*
X021025Y003352D01*
X021025Y003350D02*
X021455Y003350D01*
X021455Y003348D02*
X021025Y003348D01*
X021025Y003345D02*
X021455Y003345D01*
X021455Y003343D02*
X021025Y003343D01*
X021025Y003340D02*
X021455Y003340D01*
X021455Y003338D02*
X021025Y003338D01*
X021025Y003335D02*
X021455Y003335D01*
X021455Y003333D02*
X021025Y003333D01*
X021025Y003331D02*
X021455Y003331D01*
X021455Y003328D02*
X021025Y003328D01*
X021025Y003326D02*
X021455Y003326D01*
X021455Y003323D02*
X021025Y003323D01*
X021025Y003321D02*
X021455Y003321D01*
X021455Y003318D02*
X021025Y003318D01*
X021025Y003316D02*
X021455Y003316D01*
X021455Y003313D02*
X021025Y003313D01*
X021025Y003311D02*
X021455Y003311D01*
X021455Y003309D02*
X021025Y003309D01*
X021025Y003306D02*
X021455Y003306D01*
X021455Y003304D02*
X021025Y003304D01*
X021025Y003301D02*
X021455Y003301D01*
X021455Y003299D02*
X021025Y003299D01*
X021025Y003296D02*
X021455Y003296D01*
X021455Y003294D02*
X021025Y003294D01*
X021025Y003292D02*
X021455Y003292D01*
X021455Y003289D02*
X021025Y003289D01*
X021025Y003287D02*
X021455Y003287D01*
X021455Y003284D02*
X021025Y003284D01*
X021025Y003282D02*
X021455Y003282D01*
X021455Y003279D02*
X021025Y003279D01*
X021025Y003277D02*
X021455Y003277D01*
X021455Y003274D02*
X021025Y003274D01*
X021025Y003272D02*
X021455Y003272D01*
X021455Y003270D02*
X021025Y003270D01*
X021025Y003267D02*
X021455Y003267D01*
X021455Y003265D02*
X021025Y003265D01*
X021025Y003262D02*
X021455Y003262D01*
X021455Y003260D02*
X021025Y003260D01*
X021025Y003257D02*
X021455Y003257D01*
X021455Y003255D02*
X021025Y003255D01*
X021025Y003253D02*
X021455Y003253D01*
X021455Y003250D02*
X021025Y003250D01*
X021025Y003248D02*
X021455Y003248D01*
X021455Y003245D02*
X021025Y003245D01*
X021025Y003243D02*
X021455Y003243D01*
X021455Y003240D02*
X021025Y003240D01*
X021025Y003238D02*
X021455Y003238D01*
X021455Y003235D02*
X021025Y003235D01*
X021025Y003233D02*
X021455Y003233D01*
X021455Y003231D02*
X021025Y003231D01*
X021025Y003228D02*
X021455Y003228D01*
X021455Y003226D02*
X021025Y003226D01*
X021025Y003223D02*
X021455Y003223D01*
X021455Y003221D02*
X021025Y003221D01*
X021025Y003218D02*
X021455Y003218D01*
X021455Y003216D02*
X021025Y003216D01*
X021025Y003214D02*
X021455Y003214D01*
X021455Y003211D02*
X021025Y003211D01*
X021025Y003209D02*
X021455Y003209D01*
X021455Y003206D02*
X021025Y003206D01*
X021025Y003204D02*
X021455Y003204D01*
X021455Y003201D02*
X021025Y003201D01*
X021025Y003199D02*
X021455Y003199D01*
X021455Y003196D02*
X021025Y003196D01*
X021025Y003194D02*
X021455Y003194D01*
X021455Y003192D02*
X021025Y003192D01*
X021025Y003189D02*
X021455Y003189D01*
X021455Y003187D02*
X021025Y003187D01*
X021025Y003184D02*
X021455Y003184D01*
X021455Y003182D02*
X021025Y003182D01*
X021025Y003179D02*
X021455Y003179D01*
X021455Y003177D02*
X021025Y003177D01*
X021025Y003175D02*
X021455Y003175D01*
X021455Y003172D02*
X021025Y003172D01*
X021025Y003170D02*
X021455Y003170D01*
X021455Y003167D02*
X021025Y003167D01*
X021025Y003165D02*
X021455Y003165D01*
X021455Y003162D02*
X021025Y003162D01*
X021025Y003160D02*
X021455Y003160D01*
X021455Y003157D02*
X021025Y003157D01*
X021025Y003155D02*
X021455Y003155D01*
X021455Y003153D02*
X021025Y003153D01*
X021025Y003150D02*
X021455Y003150D01*
X021455Y003148D02*
X021025Y003148D01*
X021025Y003145D02*
X021455Y003145D01*
X021455Y003143D02*
X021025Y003143D01*
X021025Y003140D02*
X021455Y003140D01*
X021455Y003138D02*
X021450Y003090D01*
X021434Y003045D01*
X021408Y003004D01*
X021073Y003004D01*
X021072Y003004D02*
X021047Y003045D01*
X021031Y003090D01*
X021025Y003138D01*
X021026Y003136D02*
X021455Y003136D01*
X021455Y003133D02*
X021026Y003133D01*
X021026Y003131D02*
X021454Y003131D01*
X021454Y003128D02*
X021027Y003128D01*
X021027Y003126D02*
X021454Y003126D01*
X021454Y003123D02*
X021027Y003123D01*
X021027Y003121D02*
X021453Y003121D01*
X021453Y003118D02*
X021028Y003118D01*
X021028Y003116D02*
X021453Y003116D01*
X021452Y003114D02*
X021028Y003114D01*
X021028Y003111D02*
X021452Y003111D01*
X021452Y003109D02*
X021029Y003109D01*
X021029Y003106D02*
X021452Y003106D01*
X021451Y003104D02*
X021029Y003104D01*
X021030Y003101D02*
X021451Y003101D01*
X021451Y003099D02*
X021030Y003099D01*
X021030Y003097D02*
X021450Y003097D01*
X021450Y003094D02*
X021030Y003094D01*
X021031Y003092D02*
X021450Y003092D01*
X021449Y003089D02*
X021031Y003089D01*
X021032Y003087D02*
X021449Y003087D01*
X021448Y003084D02*
X021033Y003084D01*
X021034Y003082D02*
X021447Y003082D01*
X021446Y003079D02*
X021035Y003079D01*
X021035Y003077D02*
X021445Y003077D01*
X021444Y003075D02*
X021036Y003075D01*
X021037Y003072D02*
X021443Y003072D01*
X021443Y003070D02*
X021038Y003070D01*
X021039Y003067D02*
X021442Y003067D01*
X021441Y003065D02*
X021040Y003065D01*
X021041Y003062D02*
X021440Y003062D01*
X021439Y003060D02*
X021041Y003060D01*
X021042Y003058D02*
X021438Y003058D01*
X021437Y003055D02*
X021043Y003055D01*
X021044Y003053D02*
X021437Y003053D01*
X021436Y003050D02*
X021045Y003050D01*
X021046Y003048D02*
X021435Y003048D01*
X021434Y003045D02*
X021047Y003045D01*
X021048Y003043D02*
X021433Y003043D01*
X021431Y003041D02*
X021049Y003041D01*
X021051Y003038D02*
X021430Y003038D01*
X021428Y003036D02*
X021053Y003036D01*
X021054Y003033D02*
X021427Y003033D01*
X021425Y003031D02*
X021056Y003031D01*
X021057Y003028D02*
X021424Y003028D01*
X021422Y003026D02*
X021059Y003026D01*
X021060Y003023D02*
X021420Y003023D01*
X021419Y003021D02*
X021062Y003021D01*
X021063Y003019D02*
X021417Y003019D01*
X021416Y003016D02*
X021065Y003016D01*
X021066Y003014D02*
X021414Y003014D01*
X021413Y003011D02*
X021068Y003011D01*
X021069Y003009D02*
X021411Y003009D01*
X021410Y003006D02*
X021071Y003006D01*
X021072Y003004D02*
X021106Y002970D01*
X021147Y002944D01*
X021193Y002929D01*
X021240Y002923D01*
X021288Y002929D01*
X021334Y002944D01*
X021374Y002970D01*
X021107Y002970D01*
X021104Y002972D02*
X021376Y002972D01*
X021374Y002970D02*
X021408Y003004D01*
X021406Y003002D02*
X021075Y003002D01*
X021077Y002999D02*
X021403Y002999D01*
X021401Y002997D02*
X021080Y002997D01*
X021082Y002994D02*
X021398Y002994D01*
X021396Y002992D02*
X021085Y002992D01*
X021087Y002989D02*
X021393Y002989D01*
X021391Y002987D02*
X021090Y002987D01*
X021092Y002984D02*
X021389Y002984D01*
X021386Y002982D02*
X021094Y002982D01*
X021097Y002980D02*
X021384Y002980D01*
X021381Y002977D02*
X021099Y002977D01*
X021102Y002975D02*
X021379Y002975D01*
X021370Y002967D02*
X021111Y002967D01*
X021115Y002965D02*
X021366Y002965D01*
X021362Y002963D02*
X021118Y002963D01*
X021122Y002960D02*
X021358Y002960D01*
X021354Y002958D02*
X021126Y002958D01*
X021130Y002955D02*
X021351Y002955D01*
X021347Y002953D02*
X021134Y002953D01*
X021138Y002950D02*
X021343Y002950D01*
X021339Y002948D02*
X021142Y002948D01*
X021146Y002945D02*
X021335Y002945D01*
X021329Y002943D02*
X021151Y002943D01*
X021158Y002941D02*
X021322Y002941D01*
X021315Y002938D02*
X021165Y002938D01*
X021172Y002936D02*
X021308Y002936D01*
X021301Y002933D02*
X021179Y002933D01*
X021186Y002931D02*
X021294Y002931D01*
X021286Y002928D02*
X021194Y002928D01*
X021216Y002926D02*
X021265Y002926D01*
X021243Y002924D02*
X021238Y002924D01*
X018054Y003138D02*
X018049Y003090D01*
X018033Y003045D01*
X018008Y003004D01*
X017973Y002970D01*
X017706Y002970D01*
X017672Y003004D01*
X018007Y003004D01*
X018009Y003006D02*
X017670Y003006D01*
X017672Y003004D02*
X017646Y003045D01*
X017630Y003090D01*
X017625Y003138D01*
X018054Y003138D01*
X018054Y003374D01*
X018049Y003422D01*
X018033Y003468D01*
X018008Y003508D01*
X017973Y003542D01*
X017933Y003568D01*
X017887Y003584D01*
X017840Y003589D01*
X017792Y003584D01*
X017746Y003568D01*
X017706Y003542D01*
X017672Y003508D01*
X017646Y003468D01*
X017630Y003422D01*
X017625Y003374D01*
X017625Y003138D01*
X017625Y003136D02*
X018054Y003136D01*
X018054Y003133D02*
X017625Y003133D01*
X017626Y003131D02*
X018054Y003131D01*
X018053Y003128D02*
X017626Y003128D01*
X017626Y003126D02*
X018053Y003126D01*
X018053Y003123D02*
X017626Y003123D01*
X017627Y003121D02*
X018052Y003121D01*
X018052Y003118D02*
X017627Y003118D01*
X017627Y003116D02*
X018052Y003116D01*
X018052Y003114D02*
X017627Y003114D01*
X017628Y003111D02*
X018051Y003111D01*
X018051Y003109D02*
X017628Y003109D01*
X017628Y003106D02*
X018051Y003106D01*
X018051Y003104D02*
X017629Y003104D01*
X017629Y003101D02*
X018050Y003101D01*
X018050Y003099D02*
X017629Y003099D01*
X017629Y003097D02*
X018050Y003097D01*
X018049Y003094D02*
X017630Y003094D01*
X017630Y003092D02*
X018049Y003092D01*
X018049Y003089D02*
X017630Y003089D01*
X017631Y003087D02*
X018048Y003087D01*
X018047Y003084D02*
X017632Y003084D01*
X017633Y003082D02*
X018046Y003082D01*
X018045Y003079D02*
X017634Y003079D01*
X017635Y003077D02*
X018044Y003077D01*
X018044Y003075D02*
X017636Y003075D01*
X017636Y003072D02*
X018043Y003072D01*
X018042Y003070D02*
X017637Y003070D01*
X017638Y003067D02*
X018041Y003067D01*
X018040Y003065D02*
X017639Y003065D01*
X017640Y003062D02*
X018039Y003062D01*
X018038Y003060D02*
X017641Y003060D01*
X017642Y003058D02*
X018038Y003058D01*
X018037Y003055D02*
X017642Y003055D01*
X017643Y003053D02*
X018036Y003053D01*
X018035Y003050D02*
X017644Y003050D01*
X017645Y003048D02*
X018034Y003048D01*
X018033Y003045D02*
X017646Y003045D01*
X017647Y003043D02*
X018032Y003043D01*
X018030Y003041D02*
X017649Y003041D01*
X017650Y003038D02*
X018029Y003038D01*
X018027Y003036D02*
X017652Y003036D01*
X017653Y003033D02*
X018026Y003033D01*
X018024Y003031D02*
X017655Y003031D01*
X017656Y003028D02*
X018023Y003028D01*
X018021Y003026D02*
X017658Y003026D01*
X017659Y003023D02*
X018020Y003023D01*
X018018Y003021D02*
X017661Y003021D01*
X017662Y003019D02*
X018017Y003019D01*
X018015Y003016D02*
X017664Y003016D01*
X017666Y003014D02*
X018014Y003014D01*
X018012Y003011D02*
X017667Y003011D01*
X017669Y003009D02*
X018010Y003009D01*
X018005Y003002D02*
X017674Y003002D01*
X017677Y002999D02*
X018002Y002999D01*
X018000Y002997D02*
X017679Y002997D01*
X017681Y002994D02*
X017998Y002994D01*
X017995Y002992D02*
X017684Y002992D01*
X017686Y002989D02*
X017993Y002989D01*
X017990Y002987D02*
X017689Y002987D01*
X017691Y002984D02*
X017988Y002984D01*
X017985Y002982D02*
X017694Y002982D01*
X017696Y002980D02*
X017983Y002980D01*
X017981Y002977D02*
X017699Y002977D01*
X017701Y002975D02*
X017978Y002975D01*
X017976Y002972D02*
X017703Y002972D01*
X017706Y002970D02*
X017746Y002944D01*
X017792Y002929D01*
X017840Y002923D01*
X017887Y002929D01*
X017933Y002944D01*
X017973Y002970D01*
X017969Y002967D02*
X017710Y002967D01*
X017714Y002965D02*
X017965Y002965D01*
X017961Y002963D02*
X017718Y002963D01*
X017722Y002960D02*
X017958Y002960D01*
X017954Y002958D02*
X017725Y002958D01*
X017729Y002955D02*
X017950Y002955D01*
X017946Y002953D02*
X017733Y002953D01*
X017737Y002950D02*
X017942Y002950D01*
X017938Y002948D02*
X017741Y002948D01*
X017745Y002945D02*
X017934Y002945D01*
X017929Y002943D02*
X017751Y002943D01*
X017758Y002941D02*
X017922Y002941D01*
X017915Y002938D02*
X017764Y002938D01*
X017771Y002936D02*
X017908Y002936D01*
X017901Y002933D02*
X017778Y002933D01*
X017785Y002931D02*
X017894Y002931D01*
X017885Y002928D02*
X017794Y002928D01*
X017815Y002926D02*
X017864Y002926D01*
X017842Y002924D02*
X017837Y002924D01*
X017625Y003140D02*
X018054Y003140D01*
X018054Y003143D02*
X017625Y003143D01*
X017625Y003145D02*
X018054Y003145D01*
X018054Y003148D02*
X017625Y003148D01*
X017625Y003150D02*
X018054Y003150D01*
X018054Y003153D02*
X017625Y003153D01*
X017625Y003155D02*
X018054Y003155D01*
X018054Y003157D02*
X017625Y003157D01*
X017625Y003160D02*
X018054Y003160D01*
X018054Y003162D02*
X017625Y003162D01*
X017625Y003165D02*
X018054Y003165D01*
X018054Y003167D02*
X017625Y003167D01*
X017625Y003170D02*
X018054Y003170D01*
X018054Y003172D02*
X017625Y003172D01*
X017625Y003175D02*
X018054Y003175D01*
X018054Y003177D02*
X017625Y003177D01*
X017625Y003179D02*
X018054Y003179D01*
X018054Y003182D02*
X017625Y003182D01*
X017625Y003184D02*
X018054Y003184D01*
X018054Y003187D02*
X017625Y003187D01*
X017625Y003189D02*
X018054Y003189D01*
X018054Y003192D02*
X017625Y003192D01*
X017625Y003194D02*
X018054Y003194D01*
X018054Y003196D02*
X017625Y003196D01*
X017625Y003199D02*
X018054Y003199D01*
X018054Y003201D02*
X017625Y003201D01*
X017625Y003204D02*
X018054Y003204D01*
X018054Y003206D02*
X017625Y003206D01*
X017625Y003209D02*
X018054Y003209D01*
X018054Y003211D02*
X017625Y003211D01*
X017625Y003214D02*
X018054Y003214D01*
X018054Y003216D02*
X017625Y003216D01*
X017625Y003218D02*
X018054Y003218D01*
X018054Y003221D02*
X017625Y003221D01*
X017625Y003223D02*
X018054Y003223D01*
X018054Y003226D02*
X017625Y003226D01*
X017625Y003228D02*
X018054Y003228D01*
X018054Y003231D02*
X017625Y003231D01*
X017625Y003233D02*
X018054Y003233D01*
X018054Y003235D02*
X017625Y003235D01*
X017625Y003238D02*
X018054Y003238D01*
X018054Y003240D02*
X017625Y003240D01*
X017625Y003243D02*
X018054Y003243D01*
X018054Y003245D02*
X017625Y003245D01*
X017625Y003248D02*
X018054Y003248D01*
X018054Y003250D02*
X017625Y003250D01*
X017625Y003253D02*
X018054Y003253D01*
X018054Y003255D02*
X017625Y003255D01*
X017625Y003257D02*
X018054Y003257D01*
X018054Y003260D02*
X017625Y003260D01*
X017625Y003262D02*
X018054Y003262D01*
X018054Y003265D02*
X017625Y003265D01*
X017625Y003267D02*
X018054Y003267D01*
X018054Y003270D02*
X017625Y003270D01*
X017625Y003272D02*
X018054Y003272D01*
X018054Y003274D02*
X017625Y003274D01*
X017625Y003277D02*
X018054Y003277D01*
X018054Y003279D02*
X017625Y003279D01*
X017625Y003282D02*
X018054Y003282D01*
X018054Y003284D02*
X017625Y003284D01*
X017625Y003287D02*
X018054Y003287D01*
X018054Y003289D02*
X017625Y003289D01*
X017625Y003292D02*
X018054Y003292D01*
X018054Y003294D02*
X017625Y003294D01*
X017625Y003296D02*
X018054Y003296D01*
X018054Y003299D02*
X017625Y003299D01*
X017625Y003301D02*
X018054Y003301D01*
X018054Y003304D02*
X017625Y003304D01*
X017625Y003306D02*
X018054Y003306D01*
X018054Y003309D02*
X017625Y003309D01*
X017625Y003311D02*
X018054Y003311D01*
X018054Y003313D02*
X017625Y003313D01*
X017625Y003316D02*
X018054Y003316D01*
X018054Y003318D02*
X017625Y003318D01*
X017625Y003321D02*
X018054Y003321D01*
X018054Y003323D02*
X017625Y003323D01*
X017625Y003326D02*
X018054Y003326D01*
X018054Y003328D02*
X017625Y003328D01*
X017625Y003331D02*
X018054Y003331D01*
X018054Y003333D02*
X017625Y003333D01*
X017625Y003335D02*
X018054Y003335D01*
X018054Y003338D02*
X017625Y003338D01*
X017625Y003340D02*
X018054Y003340D01*
X018054Y003343D02*
X017625Y003343D01*
X017625Y003345D02*
X018054Y003345D01*
X018054Y003348D02*
X017625Y003348D01*
X017625Y003350D02*
X018054Y003350D01*
X018054Y003352D02*
X017625Y003352D01*
X017625Y003355D02*
X018054Y003355D01*
X018054Y003357D02*
X017625Y003357D01*
X017625Y003360D02*
X018054Y003360D01*
X018054Y003362D02*
X017625Y003362D01*
X017625Y003365D02*
X018054Y003365D01*
X018054Y003367D02*
X017625Y003367D01*
X017625Y003370D02*
X018054Y003370D01*
X018054Y003372D02*
X017625Y003372D01*
X017625Y003374D02*
X018054Y003374D01*
X018054Y003377D02*
X017625Y003377D01*
X017625Y003379D02*
X018054Y003379D01*
X018054Y003382D02*
X017626Y003382D01*
X017626Y003384D02*
X018053Y003384D01*
X018053Y003387D02*
X017626Y003387D01*
X017626Y003389D02*
X018053Y003389D01*
X018052Y003391D02*
X017627Y003391D01*
X017627Y003394D02*
X018052Y003394D01*
X018052Y003396D02*
X017627Y003396D01*
X017627Y003399D02*
X018052Y003399D01*
X018051Y003401D02*
X017628Y003401D01*
X017628Y003404D02*
X018051Y003404D01*
X018051Y003406D02*
X017628Y003406D01*
X017629Y003409D02*
X018051Y003409D01*
X018050Y003411D02*
X017629Y003411D01*
X017629Y003413D02*
X018050Y003413D01*
X018050Y003416D02*
X017629Y003416D01*
X017630Y003418D02*
X018049Y003418D01*
X018049Y003421D02*
X017630Y003421D01*
X017630Y003423D02*
X018049Y003423D01*
X018048Y003426D02*
X017631Y003426D01*
X017632Y003428D02*
X018047Y003428D01*
X018046Y003430D02*
X017633Y003430D01*
X017634Y003433D02*
X018045Y003433D01*
X018044Y003435D02*
X017635Y003435D01*
X017636Y003438D02*
X018044Y003438D01*
X018043Y003440D02*
X017636Y003440D01*
X017637Y003443D02*
X018042Y003443D01*
X018041Y003445D02*
X017638Y003445D01*
X017639Y003448D02*
X018040Y003448D01*
X018039Y003450D02*
X017640Y003450D01*
X017641Y003452D02*
X018038Y003452D01*
X018038Y003455D02*
X017642Y003455D01*
X017642Y003457D02*
X018037Y003457D01*
X018036Y003460D02*
X017643Y003460D01*
X017644Y003462D02*
X018035Y003462D01*
X018034Y003465D02*
X017645Y003465D01*
X017646Y003467D02*
X018033Y003467D01*
X018032Y003469D02*
X017647Y003469D01*
X017649Y003472D02*
X018030Y003472D01*
X018029Y003474D02*
X017650Y003474D01*
X017652Y003477D02*
X018027Y003477D01*
X018026Y003479D02*
X017653Y003479D01*
X017655Y003482D02*
X018024Y003482D01*
X018023Y003484D02*
X017656Y003484D01*
X017658Y003487D02*
X018021Y003487D01*
X018020Y003489D02*
X017659Y003489D01*
X017661Y003491D02*
X018018Y003491D01*
X018017Y003494D02*
X017662Y003494D01*
X017664Y003496D02*
X018015Y003496D01*
X018014Y003499D02*
X017666Y003499D01*
X017667Y003501D02*
X018012Y003501D01*
X018010Y003504D02*
X017669Y003504D01*
X017670Y003506D02*
X018009Y003506D01*
X018007Y003508D02*
X017672Y003508D01*
X017674Y003511D02*
X018005Y003511D01*
X018002Y003513D02*
X017677Y003513D01*
X017679Y003516D02*
X018000Y003516D01*
X017998Y003518D02*
X017682Y003518D01*
X017684Y003521D02*
X017995Y003521D01*
X017993Y003523D02*
X017686Y003523D01*
X017689Y003526D02*
X017990Y003526D01*
X017988Y003528D02*
X017691Y003528D01*
X017694Y003530D02*
X017985Y003530D01*
X017983Y003533D02*
X017696Y003533D01*
X017699Y003535D02*
X017980Y003535D01*
X017978Y003538D02*
X017701Y003538D01*
X017703Y003540D02*
X017976Y003540D01*
X017973Y003543D02*
X017706Y003543D01*
X017710Y003545D02*
X017969Y003545D01*
X017965Y003547D02*
X017714Y003547D01*
X017718Y003550D02*
X017961Y003550D01*
X017957Y003552D02*
X017722Y003552D01*
X017725Y003555D02*
X017954Y003555D01*
X017950Y003557D02*
X017729Y003557D01*
X017733Y003560D02*
X017946Y003560D01*
X017942Y003562D02*
X017737Y003562D01*
X017741Y003565D02*
X017938Y003565D01*
X017934Y003567D02*
X017745Y003567D01*
X017751Y003569D02*
X017928Y003569D01*
X017921Y003572D02*
X017758Y003572D01*
X017765Y003574D02*
X017914Y003574D01*
X017908Y003577D02*
X017772Y003577D01*
X017779Y003579D02*
X017901Y003579D01*
X017894Y003582D02*
X017785Y003582D01*
X017794Y003584D02*
X017885Y003584D01*
X017863Y003586D02*
X017816Y003586D01*
X017837Y003589D02*
X017842Y003589D01*
X017840Y004419D02*
X017792Y004425D01*
X017746Y004441D01*
X017706Y004466D01*
X017672Y004500D01*
X017646Y004541D01*
X017630Y004586D01*
X017625Y004634D01*
X017625Y004870D01*
X017630Y004918D01*
X017646Y004964D01*
X017672Y005004D01*
X017706Y005038D01*
X017746Y005064D01*
X017792Y005080D01*
X017840Y005085D01*
X017887Y005080D01*
X017933Y005064D01*
X017973Y005038D01*
X018008Y005004D01*
X018033Y004964D01*
X018049Y004918D01*
X018054Y004870D01*
X018054Y004634D01*
X018049Y004586D01*
X018033Y004541D01*
X018008Y004500D01*
X017973Y004466D01*
X017933Y004441D01*
X017887Y004425D01*
X017840Y004419D01*
X017846Y004420D02*
X017833Y004420D01*
X017812Y004422D02*
X017867Y004422D01*
X017888Y004425D02*
X017791Y004425D01*
X017784Y004427D02*
X017895Y004427D01*
X017902Y004430D02*
X017777Y004430D01*
X017770Y004432D02*
X017909Y004432D01*
X017916Y004435D02*
X017763Y004435D01*
X017756Y004437D02*
X017923Y004437D01*
X017930Y004439D02*
X017749Y004439D01*
X017744Y004442D02*
X017935Y004442D01*
X017939Y004444D02*
X017740Y004444D01*
X017736Y004447D02*
X017943Y004447D01*
X017947Y004449D02*
X017733Y004449D01*
X017729Y004452D02*
X017950Y004452D01*
X017954Y004454D02*
X017725Y004454D01*
X017721Y004457D02*
X017958Y004457D01*
X017962Y004459D02*
X017717Y004459D01*
X017713Y004461D02*
X017966Y004461D01*
X017970Y004464D02*
X017709Y004464D01*
X017705Y004466D02*
X017974Y004466D01*
X017976Y004469D02*
X017703Y004469D01*
X017701Y004471D02*
X017978Y004471D01*
X017981Y004474D02*
X017698Y004474D01*
X017696Y004476D02*
X017983Y004476D01*
X017986Y004478D02*
X017693Y004478D01*
X017691Y004481D02*
X017988Y004481D01*
X017991Y004483D02*
X017688Y004483D01*
X017686Y004486D02*
X017993Y004486D01*
X017996Y004488D02*
X017683Y004488D01*
X017681Y004491D02*
X017998Y004491D01*
X018000Y004493D02*
X017679Y004493D01*
X017676Y004496D02*
X018003Y004496D01*
X018005Y004498D02*
X017674Y004498D01*
X017671Y004500D02*
X018008Y004500D01*
X018009Y004503D02*
X017670Y004503D01*
X017668Y004505D02*
X018011Y004505D01*
X018012Y004508D02*
X017667Y004508D01*
X017665Y004510D02*
X018014Y004510D01*
X018015Y004513D02*
X017664Y004513D01*
X017662Y004515D02*
X018017Y004515D01*
X018018Y004517D02*
X017661Y004517D01*
X017659Y004520D02*
X018020Y004520D01*
X018021Y004522D02*
X017658Y004522D01*
X017656Y004525D02*
X018023Y004525D01*
X018025Y004527D02*
X017655Y004527D01*
X017653Y004530D02*
X018026Y004530D01*
X018028Y004532D02*
X017651Y004532D01*
X017650Y004535D02*
X018029Y004535D01*
X018031Y004537D02*
X017648Y004537D01*
X017647Y004539D02*
X018032Y004539D01*
X018033Y004542D02*
X017646Y004542D01*
X017645Y004544D02*
X018034Y004544D01*
X018035Y004547D02*
X017644Y004547D01*
X017643Y004549D02*
X018036Y004549D01*
X018037Y004552D02*
X017642Y004552D01*
X017641Y004554D02*
X018038Y004554D01*
X018039Y004556D02*
X017641Y004556D01*
X017640Y004559D02*
X018039Y004559D01*
X018040Y004561D02*
X017639Y004561D01*
X017638Y004564D02*
X018041Y004564D01*
X018042Y004566D02*
X017637Y004566D01*
X017636Y004569D02*
X018043Y004569D01*
X018044Y004571D02*
X017635Y004571D01*
X017635Y004574D02*
X018045Y004574D01*
X018045Y004576D02*
X017634Y004576D01*
X017633Y004578D02*
X018046Y004578D01*
X018047Y004581D02*
X017632Y004581D01*
X017631Y004583D02*
X018048Y004583D01*
X018049Y004586D02*
X017630Y004586D01*
X017630Y004588D02*
X018049Y004588D01*
X018049Y004591D02*
X017630Y004591D01*
X017629Y004593D02*
X018050Y004593D01*
X018050Y004595D02*
X017629Y004595D01*
X017629Y004598D02*
X018050Y004598D01*
X018051Y004600D02*
X017628Y004600D01*
X017628Y004603D02*
X018051Y004603D01*
X018051Y004605D02*
X017628Y004605D01*
X017628Y004608D02*
X018051Y004608D01*
X018052Y004610D02*
X017627Y004610D01*
X017627Y004613D02*
X018052Y004613D01*
X018052Y004615D02*
X017627Y004615D01*
X017627Y004617D02*
X018052Y004617D01*
X018053Y004620D02*
X017626Y004620D01*
X017626Y004622D02*
X018053Y004622D01*
X018053Y004625D02*
X017626Y004625D01*
X017625Y004627D02*
X018054Y004627D01*
X018054Y004630D02*
X017625Y004630D01*
X017625Y004632D02*
X018054Y004632D01*
X018054Y004634D02*
X017625Y004634D01*
X017625Y004637D02*
X018054Y004637D01*
X018054Y004639D02*
X017625Y004639D01*
X017625Y004642D02*
X018054Y004642D01*
X018054Y004644D02*
X017625Y004644D01*
X017625Y004647D02*
X018054Y004647D01*
X018054Y004649D02*
X017625Y004649D01*
X017625Y004652D02*
X018054Y004652D01*
X018054Y004654D02*
X017625Y004654D01*
X017625Y004656D02*
X018054Y004656D01*
X018054Y004659D02*
X017625Y004659D01*
X017625Y004661D02*
X018054Y004661D01*
X018054Y004664D02*
X017625Y004664D01*
X017625Y004666D02*
X018054Y004666D01*
X018054Y004669D02*
X017625Y004669D01*
X017625Y004671D02*
X018054Y004671D01*
X018054Y004673D02*
X017625Y004673D01*
X017625Y004676D02*
X018054Y004676D01*
X018054Y004678D02*
X017625Y004678D01*
X017625Y004681D02*
X018054Y004681D01*
X018054Y004683D02*
X017625Y004683D01*
X017625Y004686D02*
X018054Y004686D01*
X018054Y004688D02*
X017625Y004688D01*
X017625Y004691D02*
X018054Y004691D01*
X018054Y004693D02*
X017625Y004693D01*
X017625Y004695D02*
X018054Y004695D01*
X018054Y004698D02*
X017625Y004698D01*
X017625Y004700D02*
X018054Y004700D01*
X018054Y004703D02*
X017625Y004703D01*
X017625Y004705D02*
X018054Y004705D01*
X018054Y004708D02*
X017625Y004708D01*
X017625Y004710D02*
X018054Y004710D01*
X018054Y004712D02*
X017625Y004712D01*
X017625Y004715D02*
X018054Y004715D01*
X018054Y004717D02*
X017625Y004717D01*
X017625Y004720D02*
X018054Y004720D01*
X018054Y004722D02*
X017625Y004722D01*
X017625Y004725D02*
X018054Y004725D01*
X018054Y004727D02*
X017625Y004727D01*
X017625Y004730D02*
X018054Y004730D01*
X018054Y004732D02*
X017625Y004732D01*
X017625Y004734D02*
X018054Y004734D01*
X018054Y004737D02*
X017625Y004737D01*
X017625Y004739D02*
X018054Y004739D01*
X018054Y004742D02*
X017625Y004742D01*
X017625Y004744D02*
X018054Y004744D01*
X018054Y004747D02*
X017625Y004747D01*
X017625Y004749D02*
X018054Y004749D01*
X018054Y004751D02*
X017625Y004751D01*
X017625Y004754D02*
X018054Y004754D01*
X018054Y004756D02*
X017625Y004756D01*
X017625Y004759D02*
X018054Y004759D01*
X018054Y004761D02*
X017625Y004761D01*
X017625Y004764D02*
X018054Y004764D01*
X018054Y004766D02*
X017625Y004766D01*
X017625Y004769D02*
X018054Y004769D01*
X018054Y004771D02*
X017625Y004771D01*
X017625Y004773D02*
X018054Y004773D01*
X018054Y004776D02*
X017625Y004776D01*
X017625Y004778D02*
X018054Y004778D01*
X018054Y004781D02*
X017625Y004781D01*
X017625Y004783D02*
X018054Y004783D01*
X018054Y004786D02*
X017625Y004786D01*
X017625Y004788D02*
X018054Y004788D01*
X018054Y004790D02*
X017625Y004790D01*
X017625Y004793D02*
X018054Y004793D01*
X018054Y004795D02*
X017625Y004795D01*
X017625Y004798D02*
X018054Y004798D01*
X018054Y004800D02*
X017625Y004800D01*
X017625Y004803D02*
X018054Y004803D01*
X018054Y004805D02*
X017625Y004805D01*
X017625Y004808D02*
X018054Y004808D01*
X018054Y004810D02*
X017625Y004810D01*
X017625Y004812D02*
X018054Y004812D01*
X018054Y004815D02*
X017625Y004815D01*
X017625Y004817D02*
X018054Y004817D01*
X018054Y004820D02*
X017625Y004820D01*
X017625Y004822D02*
X018054Y004822D01*
X018054Y004825D02*
X017625Y004825D01*
X017625Y004827D02*
X018054Y004827D01*
X018054Y004829D02*
X017625Y004829D01*
X017625Y004832D02*
X018054Y004832D01*
X018054Y004834D02*
X017625Y004834D01*
X017625Y004837D02*
X018054Y004837D01*
X018054Y004839D02*
X017625Y004839D01*
X017625Y004842D02*
X018054Y004842D01*
X018054Y004844D02*
X017625Y004844D01*
X017625Y004847D02*
X018054Y004847D01*
X018054Y004849D02*
X017625Y004849D01*
X017625Y004851D02*
X018054Y004851D01*
X018054Y004854D02*
X017625Y004854D01*
X017625Y004856D02*
X018054Y004856D01*
X018054Y004859D02*
X017625Y004859D01*
X017625Y004861D02*
X018054Y004861D01*
X018054Y004864D02*
X017625Y004864D01*
X017625Y004866D02*
X018054Y004866D01*
X018054Y004868D02*
X017625Y004868D01*
X017625Y004871D02*
X018054Y004871D01*
X018054Y004873D02*
X017625Y004873D01*
X017625Y004876D02*
X018054Y004876D01*
X018053Y004878D02*
X017626Y004878D01*
X017626Y004881D02*
X018053Y004881D01*
X018053Y004883D02*
X017626Y004883D01*
X017626Y004886D02*
X018053Y004886D01*
X018052Y004888D02*
X017627Y004888D01*
X017627Y004890D02*
X018052Y004890D01*
X018052Y004893D02*
X017627Y004893D01*
X017627Y004895D02*
X018052Y004895D01*
X018051Y004898D02*
X017628Y004898D01*
X017628Y004900D02*
X018051Y004900D01*
X018051Y004903D02*
X017628Y004903D01*
X017629Y004905D02*
X018050Y004905D01*
X018050Y004907D02*
X017629Y004907D01*
X017629Y004910D02*
X018050Y004910D01*
X018050Y004912D02*
X017629Y004912D01*
X017630Y004915D02*
X018049Y004915D01*
X018049Y004917D02*
X017630Y004917D01*
X017631Y004920D02*
X018048Y004920D01*
X018048Y004922D02*
X017631Y004922D01*
X017632Y004924D02*
X018047Y004924D01*
X018046Y004927D02*
X017633Y004927D01*
X017634Y004929D02*
X018045Y004929D01*
X018044Y004932D02*
X017635Y004932D01*
X017636Y004934D02*
X018043Y004934D01*
X018043Y004937D02*
X017637Y004937D01*
X017637Y004939D02*
X018042Y004939D01*
X018041Y004942D02*
X017638Y004942D01*
X017639Y004944D02*
X018040Y004944D01*
X018039Y004946D02*
X017640Y004946D01*
X017641Y004949D02*
X018038Y004949D01*
X018037Y004951D02*
X017642Y004951D01*
X017643Y004954D02*
X018037Y004954D01*
X018036Y004956D02*
X017643Y004956D01*
X017644Y004959D02*
X018035Y004959D01*
X018034Y004961D02*
X017645Y004961D01*
X017646Y004963D02*
X018033Y004963D01*
X018032Y004966D02*
X017647Y004966D01*
X017649Y004968D02*
X018030Y004968D01*
X018029Y004971D02*
X017650Y004971D01*
X017652Y004973D02*
X018027Y004973D01*
X018025Y004976D02*
X017654Y004976D01*
X017655Y004978D02*
X018024Y004978D01*
X018022Y004981D02*
X017657Y004981D01*
X017658Y004983D02*
X018021Y004983D01*
X018019Y004985D02*
X017660Y004985D01*
X017661Y004988D02*
X018018Y004988D01*
X018016Y004990D02*
X017663Y004990D01*
X017664Y004993D02*
X018015Y004993D01*
X018013Y004995D02*
X017666Y004995D01*
X017667Y004998D02*
X018012Y004998D01*
X018010Y005000D02*
X017669Y005000D01*
X017670Y005002D02*
X018009Y005002D01*
X018007Y005005D02*
X017672Y005005D01*
X017675Y005007D02*
X018004Y005007D01*
X018002Y005010D02*
X017677Y005010D01*
X017679Y005012D02*
X018000Y005012D01*
X017997Y005015D02*
X017682Y005015D01*
X017684Y005017D02*
X017995Y005017D01*
X017992Y005020D02*
X017687Y005020D01*
X017689Y005022D02*
X017990Y005022D01*
X017987Y005024D02*
X017692Y005024D01*
X017694Y005027D02*
X017985Y005027D01*
X017983Y005029D02*
X017697Y005029D01*
X017699Y005032D02*
X017980Y005032D01*
X017978Y005034D02*
X017701Y005034D01*
X017704Y005037D02*
X017975Y005037D01*
X017972Y005039D02*
X017707Y005039D01*
X017711Y005041D02*
X017968Y005041D01*
X017965Y005044D02*
X017714Y005044D01*
X017718Y005046D02*
X017961Y005046D01*
X017957Y005049D02*
X017722Y005049D01*
X017726Y005051D02*
X017953Y005051D01*
X017949Y005054D02*
X017730Y005054D01*
X017734Y005056D02*
X017945Y005056D01*
X017941Y005059D02*
X017738Y005059D01*
X017742Y005061D02*
X017937Y005061D01*
X017934Y005063D02*
X017746Y005063D01*
X017752Y005066D02*
X017927Y005066D01*
X017920Y005068D02*
X017759Y005068D01*
X017766Y005071D02*
X017913Y005071D01*
X017906Y005073D02*
X017773Y005073D01*
X017780Y005076D02*
X017899Y005076D01*
X017892Y005078D02*
X017787Y005078D01*
X017798Y005080D02*
X017881Y005080D01*
X017860Y005083D02*
X017819Y005083D01*
D18*
X015562Y005034D03*
X015562Y004234D03*
D19*
X014871Y006121D03*
D20*
X005727Y015312D03*
X005727Y015706D03*
D21*
X006771Y016318D03*
X006771Y014700D03*
D22*
X022121Y008759D03*
X028871Y008709D03*
X028871Y006709D03*
D23*
X028871Y006584D03*
X028871Y006459D03*
X022121Y008884D03*
X022121Y009009D03*
D24*
X025115Y006477D03*
X025824Y006477D03*
X027099Y006327D03*
X027808Y006327D03*
D25*
X014291Y010919D03*
X011373Y005909D03*
X011373Y004309D03*
D26*
X029921Y005259D03*
X029921Y006159D03*
X029921Y007059D03*
X029921Y007959D03*
D27*
X017054Y006678D03*
X017054Y006238D03*
D28*
X027216Y005586D03*
X027216Y005212D03*
X027216Y004838D03*
X028239Y004838D03*
X028239Y005212D03*
X028239Y005586D03*
D29*
X026464Y005677D03*
X025175Y005677D03*
X024672Y005677D03*
X023383Y005677D03*
D30*
X026492Y007562D03*
X027890Y007562D03*
D31*
X020411Y008953D03*
X020155Y008953D03*
X019899Y008953D03*
X019644Y008953D03*
X019644Y010685D03*
X019899Y010685D03*
X020155Y010685D03*
X020411Y010685D03*
D32*
X021754Y010477D03*
X022301Y010477D03*
X022301Y011077D03*
X021754Y011077D03*
X021754Y009876D03*
X022301Y009876D03*
X023147Y006400D03*
X023694Y006400D03*
X024454Y004329D03*
X025001Y004329D03*
D33*
X018877Y008673D03*
X018027Y008673D03*
X018027Y009382D03*
X018877Y009382D03*
X018877Y010073D03*
X018027Y010073D03*
X018027Y010782D03*
X018877Y010782D03*
D34*
X017151Y009201D03*
X016403Y009201D03*
X016777Y008344D03*
X022427Y005510D03*
X022053Y004654D03*
X022801Y004654D03*
D35*
X023722Y006953D03*
X024372Y006954D03*
X024372Y007501D03*
X023722Y007500D03*
D36*
X013704Y008672D03*
D37*
X018153Y007216D03*
X018153Y006716D03*
X018153Y006216D03*
X018153Y005716D03*
X020240Y005716D03*
X020240Y006216D03*
X020240Y006716D03*
X020240Y007216D03*
D38*
X019197Y006466D03*
D39*
X021770Y006095D03*
X021770Y007493D03*
D40*
X022087Y008042D02*
X022198Y007973D01*
X022328Y007951D01*
X022456Y007981D01*
X022549Y008047D01*
X022574Y008058D01*
X022601Y008085D01*
X022633Y008107D01*
X022647Y008131D01*
X022664Y008147D01*
X022990Y007888D01*
X023007Y007867D01*
X023036Y007851D01*
X023062Y007830D01*
X023088Y007823D01*
X023131Y007800D01*
X022690Y007800D01*
X022580Y007754D01*
X022496Y007670D01*
X022403Y007577D01*
X022403Y007843D01*
X022298Y007948D01*
X021243Y007948D01*
X021138Y007843D01*
X021138Y007615D01*
X021057Y007582D01*
X020973Y007497D01*
X020696Y007220D01*
X020696Y007409D01*
X020624Y007480D01*
X020682Y007537D01*
X020727Y007648D01*
X020727Y007767D01*
X020682Y007877D01*
X020597Y007962D01*
X020487Y008007D01*
X020368Y008007D01*
X020308Y007983D01*
X020305Y007986D01*
X019935Y007986D01*
X019868Y007919D01*
X019837Y007936D01*
X019802Y007946D01*
X019683Y007946D01*
X019683Y007717D01*
X019664Y007717D01*
X019664Y007946D01*
X019545Y007946D01*
X019509Y007936D01*
X019477Y007918D01*
X019451Y007892D01*
X019447Y007884D01*
X019442Y007892D01*
X019416Y007918D01*
X019384Y007936D01*
X019348Y007946D01*
X019229Y007946D01*
X019229Y007717D01*
X019211Y007717D01*
X019211Y007946D01*
X019092Y007946D01*
X019056Y007936D01*
X019025Y007919D01*
X018958Y007986D01*
X018589Y007986D01*
X018547Y007944D01*
X018505Y007986D01*
X018427Y007986D01*
X018427Y008092D01*
X018382Y008202D01*
X018297Y008287D01*
X018187Y008332D01*
X018068Y008332D01*
X017957Y008287D01*
X017873Y008202D01*
X017827Y008092D01*
X017827Y008082D01*
X017748Y007986D01*
X017689Y007986D01*
X017583Y007880D01*
X017583Y007809D01*
X017533Y007758D01*
X017487Y007777D01*
X017368Y007777D01*
X017257Y007732D01*
X017173Y007647D01*
X017127Y007537D01*
X017127Y007418D01*
X017173Y007307D01*
X017257Y007223D01*
X017368Y007177D01*
X017487Y007177D01*
X017494Y007180D01*
X017472Y007143D01*
X017472Y006448D01*
X017332Y006308D01*
X017332Y006437D01*
X017278Y006491D01*
X017283Y006499D01*
X017292Y006534D01*
X017292Y006668D01*
X017063Y006668D01*
X017063Y006687D01*
X017045Y006687D01*
X017045Y006943D01*
X016972Y006943D01*
X016972Y007328D01*
X016975Y007335D01*
X016972Y007381D01*
X016972Y007427D01*
X016970Y007433D01*
X016967Y007498D01*
X016872Y007697D01*
X016872Y007697D01*
X016708Y007846D01*
X016500Y007920D01*
X016396Y007915D01*
X014580Y007915D01*
X014482Y008012D01*
X014482Y009192D01*
X014627Y009337D01*
X016106Y009337D01*
X016106Y009240D01*
X016365Y009240D01*
X016365Y009162D01*
X016442Y009162D01*
X016442Y008884D01*
X016579Y008884D01*
X016615Y008893D01*
X016647Y008912D01*
X016673Y008938D01*
X016691Y008970D01*
X016701Y009006D01*
X016701Y009162D01*
X016442Y009162D01*
X016442Y009240D01*
X016701Y009240D01*
X016701Y009337D01*
X016814Y009337D01*
X016814Y008949D01*
X016919Y008844D01*
X017383Y008844D01*
X017428Y008889D01*
X017498Y008917D01*
X017539Y008917D01*
X017653Y008965D01*
X017715Y009027D01*
X017736Y009005D01*
X017776Y009005D01*
X017757Y009000D01*
X017725Y008982D01*
X017699Y008956D01*
X017680Y008924D01*
X017671Y008888D01*
X017671Y008713D01*
X017987Y008713D01*
X017987Y008633D01*
X017671Y008633D01*
X017671Y008457D01*
X017680Y008422D01*
X017699Y008390D01*
X017725Y008364D01*
X017757Y008345D01*
X017792Y008336D01*
X017987Y008336D01*
X017987Y008633D01*
X018067Y008633D01*
X018067Y008336D01*
X018262Y008336D01*
X018298Y008345D01*
X018330Y008364D01*
X018356Y008390D01*
X018374Y008422D01*
X018384Y008457D01*
X018384Y008633D01*
X018067Y008633D01*
X018067Y008713D01*
X018384Y008713D01*
X018384Y008746D01*
X018481Y008665D01*
X018481Y008401D01*
X018586Y008296D01*
X019168Y008296D01*
X019274Y008401D01*
X019274Y008944D01*
X019191Y009027D01*
X019274Y009111D01*
X019274Y009230D01*
X019278Y009233D01*
X019280Y009233D01*
X019322Y009261D01*
X019363Y009288D01*
X019364Y009290D01*
X019384Y009303D01*
X019384Y008901D01*
X019385Y008898D01*
X019385Y008603D01*
X019404Y008584D01*
X019404Y008503D01*
X019384Y008455D01*
X019384Y008332D01*
X019431Y008218D01*
X019518Y008131D01*
X019632Y008084D01*
X019755Y008084D01*
X019869Y008131D01*
X019956Y008218D01*
X019991Y008302D01*
X020138Y008217D01*
X020979Y008217D01*
X021075Y008257D01*
X021092Y008274D01*
X021200Y008274D01*
X021306Y008379D01*
X021306Y008748D01*
X021267Y008787D01*
X021306Y008826D01*
X021306Y008848D01*
X021529Y009071D01*
X021529Y008909D01*
X021516Y008879D01*
X021516Y008639D01*
X021609Y008416D01*
X021779Y008246D01*
X022001Y008154D01*
X022010Y008154D01*
X022011Y008149D01*
X022087Y008042D01*
X022066Y008071D02*
X018427Y008071D01*
X018427Y007992D02*
X020332Y007992D01*
X020523Y007992D02*
X022167Y007992D01*
X022332Y007914D02*
X022957Y007914D01*
X022859Y007992D02*
X022472Y007992D01*
X022588Y008071D02*
X022760Y008071D01*
X023056Y007835D02*
X022403Y007835D01*
X022403Y007757D02*
X022586Y007757D01*
X022504Y007678D02*
X022403Y007678D01*
X022403Y007600D02*
X022426Y007600D01*
X022011Y008149D02*
X019888Y008149D01*
X019960Y008228D02*
X020120Y008228D01*
X019683Y007914D02*
X019664Y007914D01*
X019664Y007835D02*
X019683Y007835D01*
X019683Y007757D02*
X019664Y007757D01*
X019664Y007717D02*
X019664Y007698D01*
X019683Y007698D01*
X019683Y007469D01*
X019735Y007469D01*
X019651Y007434D01*
X019499Y007283D01*
X019499Y007283D01*
X019499Y007283D01*
X019464Y007197D01*
X019237Y007197D01*
X019237Y006506D01*
X019157Y006506D01*
X019157Y007197D01*
X019007Y007197D01*
X019007Y007478D01*
X019025Y007496D01*
X019056Y007478D01*
X019092Y007469D01*
X019211Y007469D01*
X019211Y007698D01*
X019229Y007698D01*
X019229Y007469D01*
X019348Y007469D01*
X019384Y007478D01*
X019416Y007497D01*
X019442Y007523D01*
X019447Y007531D01*
X019451Y007523D01*
X019477Y007497D01*
X019509Y007478D01*
X019545Y007469D01*
X019664Y007469D01*
X019664Y007698D01*
X019470Y007698D01*
X019229Y007698D01*
X019229Y007717D01*
X019664Y007717D01*
X019664Y007678D02*
X019683Y007678D01*
X019683Y007600D02*
X019664Y007600D01*
X019664Y007521D02*
X019683Y007521D01*
X019672Y007443D02*
X019007Y007443D01*
X019007Y007364D02*
X019581Y007364D01*
X019651Y007434D02*
X019651Y007434D01*
X019503Y007286D02*
X019007Y007286D01*
X019007Y007207D02*
X019468Y007207D01*
X019237Y007129D02*
X019157Y007129D01*
X019157Y007050D02*
X019237Y007050D01*
X019237Y006972D02*
X019157Y006972D01*
X019157Y006893D02*
X019237Y006893D01*
X019237Y006815D02*
X019157Y006815D01*
X019157Y006736D02*
X019237Y006736D01*
X019237Y006658D02*
X019157Y006658D01*
X019157Y006579D02*
X019237Y006579D01*
X019237Y006426D02*
X019237Y005736D01*
X019417Y005736D01*
X019417Y005627D01*
X019031Y005627D01*
X018852Y005553D01*
X018716Y005417D01*
X018642Y005238D01*
X018642Y005179D01*
X018634Y005181D01*
X018496Y005181D01*
X018496Y004844D01*
X018419Y004844D01*
X018419Y005181D01*
X018282Y005181D01*
X018246Y005171D01*
X018214Y005153D01*
X018188Y005127D01*
X018172Y005099D01*
X018169Y005100D01*
X018151Y005118D01*
X018137Y005141D01*
X018134Y005152D01*
X018126Y005157D01*
X018121Y005165D01*
X018110Y005168D01*
X018088Y005181D01*
X018069Y005200D01*
X018064Y005211D01*
X018055Y005214D01*
X018049Y005220D01*
X018037Y005220D01*
X018012Y005229D01*
X017990Y005243D01*
X017983Y005252D01*
X017973Y005253D01*
X017966Y005258D01*
X017954Y005255D01*
X017928Y005258D01*
X017903Y005267D01*
X017894Y005274D01*
X017885Y005273D01*
X017876Y005276D01*
X017865Y005271D01*
X017840Y005268D01*
X017814Y005271D01*
X017803Y005276D01*
X017794Y005273D01*
X017785Y005274D01*
X017776Y005267D01*
X017751Y005258D01*
X017725Y005255D01*
X017713Y005258D01*
X017706Y005253D01*
X017696Y005252D01*
X017689Y005243D01*
X017667Y005229D01*
X017642Y005220D01*
X017630Y005220D01*
X017624Y005214D01*
X017615Y005211D01*
X017610Y005200D01*
X017591Y005181D01*
X017589Y005180D01*
X017584Y005185D01*
X017584Y005309D01*
X017748Y005473D01*
X017803Y005418D01*
X018504Y005418D01*
X018609Y005524D01*
X018609Y005584D01*
X018673Y005647D01*
X018807Y005782D01*
X018807Y005793D01*
X018809Y005790D01*
X018835Y005764D01*
X018867Y005745D01*
X018903Y005736D01*
X019157Y005736D01*
X019157Y006426D01*
X019237Y006426D01*
X019237Y006422D02*
X019157Y006422D01*
X019157Y006344D02*
X019237Y006344D01*
X019237Y006265D02*
X019157Y006265D01*
X019157Y006187D02*
X019237Y006187D01*
X019237Y006108D02*
X019157Y006108D01*
X019157Y006030D02*
X019237Y006030D01*
X019237Y005951D02*
X019157Y005951D01*
X019157Y005873D02*
X019237Y005873D01*
X019237Y005794D02*
X019157Y005794D01*
X019417Y005716D02*
X018741Y005716D01*
X018663Y005637D02*
X019417Y005637D01*
X018865Y005559D02*
X018609Y005559D01*
X018566Y005480D02*
X018779Y005480D01*
X018716Y005417D02*
X018716Y005417D01*
X018710Y005402D02*
X017677Y005402D01*
X017599Y005323D02*
X018677Y005323D01*
X018645Y005245D02*
X017988Y005245D01*
X018115Y005166D02*
X018237Y005166D01*
X018419Y005166D02*
X018496Y005166D01*
X018496Y005088D02*
X018419Y005088D01*
X018419Y005009D02*
X018496Y005009D01*
X018496Y004931D02*
X018419Y004931D01*
X018419Y004852D02*
X018496Y004852D01*
X018496Y004766D02*
X018496Y004457D01*
X018419Y004457D01*
X018419Y004766D01*
X018496Y004766D01*
X018496Y004695D02*
X018419Y004695D01*
X018419Y004617D02*
X018496Y004617D01*
X018496Y004538D02*
X018419Y004538D01*
X018419Y004460D02*
X018496Y004460D01*
X017691Y005245D02*
X017584Y005245D01*
X018852Y005553D02*
X018852Y005553D01*
X017447Y006422D02*
X017332Y006422D01*
X017332Y006344D02*
X017369Y006344D01*
X017283Y006501D02*
X017472Y006501D01*
X017472Y006579D02*
X017292Y006579D01*
X017292Y006658D02*
X017472Y006658D01*
X017472Y006736D02*
X017292Y006736D01*
X017292Y006687D02*
X017292Y006821D01*
X017283Y006857D01*
X017264Y006889D01*
X017238Y006915D01*
X017206Y006933D01*
X017171Y006943D01*
X017063Y006943D01*
X017063Y006687D01*
X017292Y006687D01*
X017292Y006815D02*
X017472Y006815D01*
X017472Y006893D02*
X017260Y006893D01*
X017063Y006893D02*
X017045Y006893D01*
X017045Y006815D02*
X017063Y006815D01*
X017063Y006736D02*
X017045Y006736D01*
X017054Y006678D02*
X017054Y006997D01*
X016972Y006972D02*
X017472Y006972D01*
X017472Y007050D02*
X016972Y007050D01*
X016972Y007129D02*
X017472Y007129D01*
X017295Y007207D02*
X016972Y007207D01*
X016972Y007286D02*
X017195Y007286D01*
X017149Y007364D02*
X016973Y007364D01*
X016969Y007443D02*
X017127Y007443D01*
X017127Y007521D02*
X016955Y007521D01*
X016967Y007498D02*
X016967Y007498D01*
X016918Y007600D02*
X017153Y007600D01*
X017204Y007678D02*
X016881Y007678D01*
X016806Y007757D02*
X017318Y007757D01*
X017583Y007835D02*
X016720Y007835D01*
X016708Y007846D02*
X016708Y007846D01*
X016517Y007914D02*
X017617Y007914D01*
X017753Y007992D02*
X017015Y007992D01*
X017009Y007987D02*
X017115Y008093D01*
X017115Y008596D01*
X017009Y008701D01*
X016793Y008701D01*
X016763Y008731D01*
X016675Y008767D01*
X016482Y008767D01*
X016477Y008780D01*
X016390Y008867D01*
X016349Y008884D01*
X016365Y008884D01*
X016365Y009162D01*
X016106Y009162D01*
X016106Y009006D01*
X016115Y008970D01*
X016134Y008938D01*
X016158Y008914D01*
X016153Y008914D01*
X016039Y008867D01*
X015952Y008780D01*
X015904Y008666D01*
X015904Y008543D01*
X015952Y008429D01*
X016039Y008342D01*
X016153Y008294D01*
X016227Y008294D01*
X016244Y008287D01*
X016440Y008287D01*
X016440Y008093D01*
X016545Y007987D01*
X017009Y007987D01*
X017093Y008071D02*
X017818Y008071D01*
X017851Y008149D02*
X017115Y008149D01*
X017115Y008228D02*
X017899Y008228D01*
X018005Y008306D02*
X017115Y008306D01*
X017115Y008385D02*
X017704Y008385D01*
X017671Y008463D02*
X017115Y008463D01*
X017115Y008542D02*
X017671Y008542D01*
X017671Y008620D02*
X017091Y008620D01*
X017012Y008699D02*
X017987Y008699D01*
X017987Y008620D02*
X018067Y008620D01*
X018067Y008542D02*
X017987Y008542D01*
X017987Y008463D02*
X018067Y008463D01*
X018067Y008385D02*
X017987Y008385D01*
X018250Y008306D02*
X018576Y008306D01*
X018497Y008385D02*
X018351Y008385D01*
X018384Y008463D02*
X018481Y008463D01*
X018481Y008542D02*
X018384Y008542D01*
X018384Y008620D02*
X018481Y008620D01*
X018440Y008699D02*
X018067Y008699D01*
X017671Y008777D02*
X016478Y008777D01*
X016401Y008856D02*
X016907Y008856D01*
X016829Y008934D02*
X016669Y008934D01*
X016701Y009013D02*
X016814Y009013D01*
X016814Y009091D02*
X016701Y009091D01*
X016814Y009170D02*
X016442Y009170D01*
X016365Y009170D02*
X014482Y009170D01*
X014482Y009091D02*
X016106Y009091D01*
X016106Y009013D02*
X014482Y009013D01*
X014482Y008934D02*
X016137Y008934D01*
X016028Y008856D02*
X014482Y008856D01*
X014482Y008777D02*
X015950Y008777D01*
X015918Y008699D02*
X014482Y008699D01*
X014482Y008620D02*
X015904Y008620D01*
X015905Y008542D02*
X014482Y008542D01*
X014482Y008463D02*
X015937Y008463D01*
X015995Y008385D02*
X014482Y008385D01*
X014482Y008306D02*
X016123Y008306D01*
X016440Y008228D02*
X014482Y008228D01*
X014482Y008149D02*
X016440Y008149D01*
X016462Y008071D02*
X014482Y008071D01*
X014502Y007992D02*
X016540Y007992D01*
X016500Y007920D02*
X016500Y007920D01*
X016442Y008934D02*
X016365Y008934D01*
X016365Y009013D02*
X016442Y009013D01*
X016442Y009091D02*
X016365Y009091D01*
X016106Y009248D02*
X014538Y009248D01*
X014617Y009327D02*
X016106Y009327D01*
X016701Y009327D02*
X016814Y009327D01*
X016814Y009248D02*
X016701Y009248D01*
X017395Y008856D02*
X017671Y008856D01*
X017687Y008934D02*
X017580Y008934D01*
X017701Y009013D02*
X017729Y009013D01*
X018356Y008228D02*
X019427Y008228D01*
X019394Y008306D02*
X019179Y008306D01*
X019258Y008385D02*
X019384Y008385D01*
X019387Y008463D02*
X019274Y008463D01*
X019274Y008542D02*
X019404Y008542D01*
X019385Y008620D02*
X019274Y008620D01*
X019274Y008699D02*
X019385Y008699D01*
X019385Y008777D02*
X019274Y008777D01*
X019274Y008856D02*
X019385Y008856D01*
X019384Y008934D02*
X019274Y008934D01*
X019205Y009013D02*
X019384Y009013D01*
X019384Y009091D02*
X019255Y009091D01*
X019274Y009170D02*
X019384Y009170D01*
X019384Y009248D02*
X019303Y009248D01*
X018481Y010333D02*
X018424Y010333D01*
X018424Y010344D01*
X018318Y010450D01*
X018279Y010450D01*
X018298Y010455D01*
X018330Y010473D01*
X018356Y010499D01*
X018374Y010531D01*
X018384Y010567D01*
X018384Y010742D01*
X018067Y010742D01*
X018067Y010822D01*
X017987Y010822D01*
X017987Y010742D01*
X017727Y010742D01*
X017727Y010822D01*
X017987Y010822D01*
X017987Y011119D01*
X017792Y011119D01*
X017757Y011109D01*
X017727Y011092D01*
X017727Y011225D01*
X017727Y011227D01*
X017732Y011234D01*
X017739Y011238D01*
X017753Y011238D01*
X017797Y011235D01*
X017805Y011238D01*
X018392Y011238D01*
X018392Y011237D01*
X019350Y011237D01*
X019350Y011238D01*
X019941Y011238D01*
X019895Y011158D01*
X019895Y011101D01*
X019837Y011101D01*
X019797Y011141D01*
X019490Y011141D01*
X019385Y011035D01*
X019385Y010945D01*
X019274Y010945D01*
X019274Y011053D01*
X019168Y011159D01*
X018586Y011159D01*
X018481Y011053D01*
X018481Y010511D01*
X018564Y010427D01*
X018481Y010344D01*
X018481Y010333D01*
X018484Y010347D02*
X018421Y010347D01*
X018342Y010426D02*
X018563Y010426D01*
X018487Y010504D02*
X018359Y010504D01*
X018384Y010583D02*
X018481Y010583D01*
X018481Y010661D02*
X018384Y010661D01*
X018384Y010740D02*
X018481Y010740D01*
X018481Y010818D02*
X018067Y010818D01*
X018067Y010822D02*
X018384Y010822D01*
X018384Y010997D01*
X018374Y011033D01*
X018356Y011065D01*
X018330Y011091D01*
X018298Y011109D01*
X018262Y011119D01*
X018067Y011119D01*
X018067Y010822D01*
X018067Y010897D02*
X017987Y010897D01*
X017987Y010975D02*
X018067Y010975D01*
X018067Y011054D02*
X017987Y011054D01*
X017987Y010818D02*
X017727Y010818D01*
X017671Y010595D02*
X017671Y010567D01*
X017680Y010531D01*
X017699Y010499D01*
X017725Y010473D01*
X017757Y010455D01*
X017776Y010450D01*
X017736Y010450D01*
X017631Y010344D01*
X017631Y010267D01*
X011174Y010267D01*
X010881Y010172D01*
X010632Y009992D01*
X010632Y009992D01*
X010632Y009992D01*
X010466Y009762D01*
X010453Y009798D01*
X010453Y009798D01*
X010492Y009798D01*
X010453Y009798D02*
X010349Y010085D01*
X010349Y010085D01*
X009989Y010704D01*
X009524Y011248D01*
X008969Y011699D01*
X008342Y012044D01*
X007663Y012271D01*
X007342Y012317D01*
X007324Y012324D01*
X007290Y012324D01*
X007257Y012329D01*
X007238Y012324D01*
X005586Y012324D01*
X005586Y014750D01*
X005488Y015054D01*
X005708Y015054D01*
X005708Y015293D01*
X005746Y015293D01*
X005746Y015054D01*
X005971Y015054D01*
X005866Y014950D01*
X005866Y014451D01*
X005972Y014345D01*
X006291Y014345D01*
X006256Y014261D01*
X006256Y013056D01*
X006335Y012867D01*
X006480Y012722D01*
X006669Y012644D01*
X007591Y012644D01*
X007933Y012562D01*
X008628Y012294D01*
X009266Y011910D01*
X009827Y011421D01*
X010295Y010842D01*
X010484Y010534D01*
X010497Y010503D01*
X010508Y010492D01*
X010515Y010478D01*
X010545Y010455D01*
X010571Y010428D01*
X010586Y010422D01*
X010598Y010413D01*
X010634Y010402D01*
X010669Y010388D01*
X010684Y010388D01*
X010699Y010383D01*
X010736Y010388D01*
X013622Y010388D01*
X013624Y010387D01*
X013674Y010388D01*
X013724Y010388D01*
X013727Y010389D01*
X013789Y010390D01*
X013829Y010414D01*
X013918Y010377D01*
X014037Y010377D01*
X014068Y010390D01*
X014177Y010345D01*
X014406Y010345D01*
X014526Y010395D01*
X014568Y010377D01*
X014687Y010377D01*
X014769Y010411D01*
X014804Y010390D01*
X014804Y010390D01*
X014866Y010389D01*
X014869Y010388D01*
X014919Y010388D01*
X014969Y010387D01*
X014971Y010388D01*
X017423Y010388D01*
X017615Y010499D01*
X017671Y010595D01*
X017671Y010583D02*
X017664Y010583D01*
X017696Y010504D02*
X017619Y010504D01*
X017615Y010499D02*
X017615Y010499D01*
X017615Y010499D01*
X017713Y010426D02*
X017489Y010426D01*
X017634Y010347D02*
X014411Y010347D01*
X014172Y010347D02*
X010197Y010347D01*
X010242Y010269D02*
X017631Y010269D01*
X018384Y010897D02*
X018481Y010897D01*
X018481Y010975D02*
X018384Y010975D01*
X018362Y011054D02*
X018481Y011054D01*
X018560Y011132D02*
X017727Y011132D01*
X017727Y011211D02*
X019926Y011211D01*
X019895Y011132D02*
X019805Y011132D01*
X019482Y011132D02*
X019195Y011132D01*
X019273Y011054D02*
X019403Y011054D01*
X019385Y010975D02*
X019274Y010975D01*
X016397Y011914D02*
X016397Y012598D01*
X016393Y012609D01*
X016397Y012651D01*
X016397Y012693D01*
X016401Y012703D01*
X016408Y012794D01*
X016408Y012794D01*
X016560Y013013D01*
X016560Y013013D01*
X016560Y013013D01*
X016800Y013128D01*
X016800Y013128D01*
X016922Y013118D01*
X018529Y013118D01*
X018530Y013117D01*
X019212Y013117D01*
X019212Y013118D01*
X023199Y013118D01*
X023217Y013122D01*
X023251Y013118D01*
X023285Y013118D01*
X023303Y013110D01*
X023428Y013092D01*
X023428Y013092D01*
X023704Y012929D01*
X023704Y012929D01*
X023897Y012672D01*
X023977Y012361D01*
X023977Y012361D01*
X023957Y012221D01*
X023957Y010488D01*
X023963Y010432D01*
X024007Y010328D01*
X024088Y010249D01*
X024192Y010207D01*
X024249Y010202D01*
X024250Y010202D01*
X024302Y010202D01*
X024303Y010202D01*
X030764Y010202D01*
X031044Y010086D01*
X031044Y010086D01*
X031258Y009872D01*
X031258Y009872D01*
X031374Y009592D01*
X031374Y006790D01*
X031375Y006789D01*
X031375Y005831D01*
X031374Y005830D01*
X031374Y005009D01*
X031375Y005007D01*
X031374Y004956D01*
X031374Y004906D01*
X031373Y004904D01*
X031370Y004744D01*
X031370Y004744D01*
X031247Y004341D01*
X031247Y004341D01*
X031019Y003988D01*
X031019Y003988D01*
X031019Y003988D01*
X030702Y003711D01*
X030702Y003711D01*
X030322Y003532D01*
X030322Y003532D01*
X030130Y003500D01*
X028926Y003153D01*
X028926Y003153D01*
X026451Y002592D01*
X026451Y002592D01*
X023948Y002177D01*
X023948Y002177D01*
X022923Y002067D01*
X022923Y001192D01*
X031611Y001192D01*
X031612Y001193D01*
X031663Y001192D01*
X031664Y001192D01*
X031741Y001198D01*
X031887Y001244D01*
X032012Y001334D01*
X032103Y001457D01*
X032152Y001603D01*
X032158Y001679D01*
X032158Y017894D01*
X032152Y017970D01*
X032103Y018115D01*
X032012Y018239D01*
X031887Y018328D01*
X031741Y018374D01*
X031665Y018379D01*
X031664Y018379D01*
X031612Y018378D01*
X031611Y018379D01*
X001730Y018379D01*
X001730Y018379D01*
X001677Y018379D01*
X001677Y018379D01*
X001601Y018373D01*
X001457Y018326D01*
X001335Y018238D01*
X001245Y018115D01*
X001198Y017971D01*
X001192Y017896D01*
X001192Y001677D01*
X001198Y001602D01*
X001245Y001457D01*
X001334Y001334D01*
X001457Y001245D01*
X001602Y001198D01*
X001677Y001192D01*
X016162Y001192D01*
X016174Y001206D01*
X016174Y002027D01*
X016162Y002040D01*
X009876Y002040D01*
X009777Y002030D01*
X009777Y002030D01*
X009558Y002094D01*
X009558Y002094D01*
X009380Y002237D01*
X009380Y002237D01*
X009270Y002437D01*
X009270Y002437D01*
X009262Y002513D01*
X009256Y002526D01*
X009256Y002565D01*
X009252Y002603D01*
X009256Y002617D01*
X009256Y003967D01*
X009257Y003969D01*
X009257Y004647D01*
X009256Y004649D01*
X009256Y007861D01*
X009255Y007866D01*
X009256Y007914D01*
X006380Y007914D01*
X006380Y007992D02*
X009256Y007992D01*
X009256Y007939D02*
X009256Y007914D01*
X009256Y007939D02*
X009254Y008263D01*
X009160Y008946D01*
X009071Y009270D01*
X008952Y009534D01*
X008624Y010027D01*
X008198Y010439D01*
X007693Y010750D01*
X007133Y010945D01*
X006851Y010994D01*
X004869Y010994D01*
X004680Y011072D01*
X004680Y011072D01*
X004680Y011072D01*
X004535Y011217D01*
X004535Y011217D01*
X004456Y011406D01*
X004456Y013989D01*
X004451Y014065D01*
X004404Y014209D01*
X004314Y014332D01*
X004192Y014421D01*
X004047Y014468D01*
X003971Y014474D01*
X002824Y014474D01*
X002816Y014471D01*
X002772Y014474D01*
X002728Y014474D01*
X002720Y014477D01*
X002593Y014486D01*
X002593Y014486D01*
X002288Y014637D01*
X002288Y014637D01*
X002064Y014894D01*
X002064Y014894D01*
X001955Y015216D01*
X001955Y015216D01*
X001966Y015377D01*
X001966Y017312D01*
X002090Y017611D01*
X002090Y017611D01*
X002319Y017840D01*
X002319Y017840D01*
X002619Y017964D01*
X006179Y017964D01*
X006184Y017962D01*
X006857Y017962D01*
X006862Y017964D01*
X007961Y017964D01*
X008097Y017966D01*
X008097Y017966D01*
X008336Y017830D01*
X008336Y017830D01*
X008336Y017830D01*
X008476Y017594D01*
X008476Y017594D01*
X008477Y017508D01*
X008477Y017506D01*
X008477Y017455D01*
X008477Y017403D01*
X008477Y017402D01*
X008477Y013670D01*
X008619Y013644D01*
X008619Y013644D01*
X009310Y013404D01*
X009310Y013404D01*
X009956Y013061D01*
X009956Y013061D01*
X010542Y012623D01*
X010542Y012623D01*
X011053Y012101D01*
X011053Y012101D01*
X011187Y011914D01*
X016397Y011914D01*
X016397Y011917D02*
X011185Y011917D01*
X011129Y011996D02*
X016397Y011996D01*
X016397Y012074D02*
X011072Y012074D01*
X011002Y012153D02*
X016397Y012153D01*
X016397Y012231D02*
X010926Y012231D01*
X010849Y012310D02*
X016397Y012310D01*
X016397Y012388D02*
X010772Y012388D01*
X010695Y012467D02*
X016397Y012467D01*
X016397Y012545D02*
X010618Y012545D01*
X010542Y012623D02*
X010542Y012623D01*
X010541Y012624D02*
X016394Y012624D01*
X016401Y012702D02*
X010436Y012702D01*
X010331Y012781D02*
X016407Y012781D01*
X016453Y012859D02*
X010226Y012859D01*
X010121Y012938D02*
X016508Y012938D01*
X016566Y013016D02*
X010016Y013016D01*
X009892Y013095D02*
X016732Y013095D01*
X013789Y010390D02*
X013789Y010390D01*
X010937Y010190D02*
X010288Y010190D01*
X010334Y010112D02*
X010798Y010112D01*
X010881Y010172D02*
X010881Y010172D01*
X010690Y010033D02*
X010368Y010033D01*
X010396Y009955D02*
X010606Y009955D01*
X010549Y009876D02*
X010425Y009876D01*
X010576Y010426D02*
X010151Y010426D01*
X010105Y010504D02*
X010496Y010504D01*
X010454Y010583D02*
X010060Y010583D01*
X010014Y010661D02*
X010406Y010661D01*
X010358Y010740D02*
X009958Y010740D01*
X009989Y010704D02*
X009989Y010704D01*
X009891Y010818D02*
X010310Y010818D01*
X010251Y010897D02*
X009824Y010897D01*
X009757Y010975D02*
X010188Y010975D01*
X010124Y011054D02*
X009690Y011054D01*
X009623Y011132D02*
X010061Y011132D01*
X009997Y011211D02*
X009556Y011211D01*
X009524Y011248D02*
X009524Y011248D01*
X009524Y011248D01*
X009473Y011289D02*
X009934Y011289D01*
X009870Y011368D02*
X009376Y011368D01*
X009280Y011446D02*
X009798Y011446D01*
X009708Y011525D02*
X009183Y011525D01*
X009087Y011603D02*
X009618Y011603D01*
X009528Y011682D02*
X008990Y011682D01*
X008858Y011760D02*
X009438Y011760D01*
X009347Y011839D02*
X008715Y011839D01*
X008572Y011917D02*
X009254Y011917D01*
X009123Y011996D02*
X008429Y011996D01*
X008342Y012044D02*
X008342Y012044D01*
X008251Y012074D02*
X008993Y012074D01*
X008862Y012153D02*
X008016Y012153D01*
X007781Y012231D02*
X008732Y012231D01*
X008587Y012310D02*
X007388Y012310D01*
X007674Y012624D02*
X005586Y012624D01*
X005586Y012702D02*
X006528Y012702D01*
X006480Y012722D02*
X006480Y012722D01*
X006421Y012781D02*
X005586Y012781D01*
X005586Y012859D02*
X006343Y012859D01*
X006335Y012867D02*
X006335Y012867D01*
X006306Y012938D02*
X005586Y012938D01*
X005586Y013016D02*
X006273Y013016D01*
X006256Y013095D02*
X005586Y013095D01*
X005586Y013173D02*
X006256Y013173D01*
X006256Y013252D02*
X005586Y013252D01*
X005586Y013330D02*
X006256Y013330D01*
X006256Y013409D02*
X005586Y013409D01*
X005586Y013487D02*
X006256Y013487D01*
X006256Y013566D02*
X005586Y013566D01*
X005586Y013644D02*
X006256Y013644D01*
X006256Y013723D02*
X005586Y013723D01*
X005586Y013801D02*
X006256Y013801D01*
X006256Y013880D02*
X005586Y013880D01*
X005586Y013958D02*
X006256Y013958D01*
X006256Y014037D02*
X005586Y014037D01*
X005586Y014115D02*
X006256Y014115D01*
X006256Y014194D02*
X005586Y014194D01*
X005586Y014272D02*
X006261Y014272D01*
X005966Y014351D02*
X005586Y014351D01*
X005586Y014429D02*
X005888Y014429D01*
X005866Y014508D02*
X005586Y014508D01*
X005586Y014586D02*
X005866Y014586D01*
X005866Y014665D02*
X005586Y014665D01*
X005586Y014743D02*
X005866Y014743D01*
X005866Y014822D02*
X005563Y014822D01*
X005538Y014900D02*
X005866Y014900D01*
X005896Y014979D02*
X005512Y014979D01*
X005708Y015057D02*
X005746Y015057D01*
X005746Y015136D02*
X005708Y015136D01*
X005708Y015214D02*
X005746Y015214D01*
X005746Y015293D02*
X005708Y015293D01*
X005746Y015293D02*
X005746Y015331D01*
X006167Y015331D01*
X006167Y015449D01*
X006162Y015468D01*
X006207Y015513D01*
X006207Y015898D01*
X006143Y015963D01*
X007356Y015963D01*
X007356Y015055D01*
X006051Y015055D01*
X006081Y015063D01*
X006113Y015082D01*
X006139Y015108D01*
X006158Y015140D01*
X006167Y015176D01*
X006167Y015293D01*
X005746Y015293D01*
X006167Y015293D02*
X007356Y015293D01*
X007356Y015371D02*
X006167Y015371D01*
X006167Y015450D02*
X007356Y015450D01*
X007356Y015528D02*
X006207Y015528D01*
X006207Y015607D02*
X007356Y015607D01*
X007356Y015685D02*
X006207Y015685D01*
X006207Y015764D02*
X007356Y015764D01*
X007356Y015842D02*
X006207Y015842D01*
X006185Y015921D02*
X007356Y015921D01*
X008477Y015921D02*
X032158Y015921D01*
X032158Y015999D02*
X008477Y015999D01*
X008477Y016078D02*
X032158Y016078D01*
X032158Y016156D02*
X008477Y016156D01*
X008477Y016235D02*
X032158Y016235D01*
X032158Y016313D02*
X008477Y016313D01*
X008477Y016392D02*
X032158Y016392D01*
X032158Y016470D02*
X008477Y016470D01*
X008477Y016549D02*
X032158Y016549D01*
X032158Y016627D02*
X008477Y016627D01*
X008477Y016706D02*
X032158Y016706D01*
X032158Y016784D02*
X008477Y016784D01*
X008477Y016863D02*
X032158Y016863D01*
X032158Y016941D02*
X008477Y016941D01*
X008477Y017020D02*
X032158Y017020D01*
X032158Y017098D02*
X008477Y017098D01*
X008477Y017177D02*
X032158Y017177D01*
X032158Y017255D02*
X008477Y017255D01*
X008477Y017334D02*
X032158Y017334D01*
X032158Y017412D02*
X008477Y017412D01*
X008477Y017491D02*
X032158Y017491D01*
X032158Y017569D02*
X008476Y017569D01*
X008444Y017648D02*
X032158Y017648D01*
X032158Y017726D02*
X008398Y017726D01*
X008351Y017805D02*
X032158Y017805D01*
X032158Y017883D02*
X008242Y017883D01*
X008104Y017962D02*
X032153Y017962D01*
X032128Y018040D02*
X001221Y018040D01*
X001198Y017962D02*
X002613Y017962D01*
X002423Y017883D02*
X001192Y017883D01*
X001192Y017805D02*
X002284Y017805D01*
X002205Y017726D02*
X001192Y017726D01*
X001192Y017648D02*
X002127Y017648D01*
X002073Y017569D02*
X001192Y017569D01*
X001192Y017491D02*
X002040Y017491D01*
X002008Y017412D02*
X001192Y017412D01*
X001192Y017334D02*
X001975Y017334D01*
X001966Y017255D02*
X001192Y017255D01*
X001192Y017177D02*
X001966Y017177D01*
X001966Y017098D02*
X001192Y017098D01*
X001192Y017020D02*
X001966Y017020D01*
X001966Y016941D02*
X001192Y016941D01*
X001192Y016863D02*
X001966Y016863D01*
X001966Y016784D02*
X001192Y016784D01*
X001192Y016706D02*
X001966Y016706D01*
X001966Y016627D02*
X001192Y016627D01*
X001192Y016549D02*
X001966Y016549D01*
X001966Y016470D02*
X001192Y016470D01*
X001192Y016392D02*
X001966Y016392D01*
X001966Y016313D02*
X001192Y016313D01*
X001192Y016235D02*
X001966Y016235D01*
X001966Y016156D02*
X001192Y016156D01*
X001192Y016078D02*
X001966Y016078D01*
X001966Y015999D02*
X001192Y015999D01*
X001192Y015921D02*
X001966Y015921D01*
X001966Y015842D02*
X001192Y015842D01*
X001192Y015764D02*
X001966Y015764D01*
X001966Y015685D02*
X001192Y015685D01*
X001192Y015607D02*
X001966Y015607D01*
X001966Y015528D02*
X001192Y015528D01*
X001192Y015450D02*
X001966Y015450D01*
X001966Y015371D02*
X001192Y015371D01*
X001192Y015293D02*
X001960Y015293D01*
X001956Y015214D02*
X001192Y015214D01*
X001192Y015136D02*
X001982Y015136D01*
X002009Y015057D02*
X001192Y015057D01*
X001192Y014979D02*
X002035Y014979D01*
X002062Y014900D02*
X001192Y014900D01*
X001192Y014822D02*
X002127Y014822D01*
X002195Y014743D02*
X001192Y014743D01*
X001192Y014665D02*
X002264Y014665D01*
X002390Y014586D02*
X001192Y014586D01*
X001192Y014508D02*
X002549Y014508D01*
X001192Y014429D02*
X004166Y014429D01*
X004288Y014351D02*
X001192Y014351D01*
X001192Y014272D02*
X004358Y014272D01*
X004409Y014194D02*
X001192Y014194D01*
X001192Y014115D02*
X004434Y014115D01*
X004453Y014037D02*
X001192Y014037D01*
X001192Y013958D02*
X004456Y013958D01*
X004456Y013880D02*
X001192Y013880D01*
X001192Y013801D02*
X004456Y013801D01*
X004456Y013723D02*
X001192Y013723D01*
X001192Y013644D02*
X004456Y013644D01*
X004456Y013566D02*
X001192Y013566D01*
X001192Y013487D02*
X004456Y013487D01*
X004456Y013409D02*
X001192Y013409D01*
X001192Y013330D02*
X004456Y013330D01*
X004456Y013252D02*
X002286Y013252D01*
X002196Y013289D02*
X001865Y013289D01*
X001560Y013163D01*
X001326Y012929D01*
X001200Y012624D01*
X001192Y012624D01*
X001200Y012624D02*
X001200Y012294D01*
X001326Y011988D01*
X001560Y011755D01*
X001865Y011628D01*
X002196Y011628D01*
X002501Y011755D01*
X002735Y011988D01*
X002861Y012294D01*
X002861Y012624D01*
X004456Y012624D01*
X004456Y012702D02*
X002829Y012702D01*
X002861Y012624D02*
X002735Y012929D01*
X002501Y013163D01*
X002196Y013289D01*
X002476Y013173D02*
X004456Y013173D01*
X004456Y013095D02*
X002569Y013095D01*
X002648Y013016D02*
X004456Y013016D01*
X004456Y012938D02*
X002726Y012938D01*
X002764Y012859D02*
X004456Y012859D01*
X004456Y012781D02*
X002796Y012781D01*
X002861Y012545D02*
X004456Y012545D01*
X004456Y012467D02*
X002861Y012467D01*
X002861Y012388D02*
X004456Y012388D01*
X004456Y012310D02*
X002861Y012310D01*
X002835Y012231D02*
X004456Y012231D01*
X004456Y012153D02*
X002803Y012153D01*
X002770Y012074D02*
X004456Y012074D01*
X004456Y011996D02*
X002738Y011996D01*
X002664Y011917D02*
X004456Y011917D01*
X004456Y011839D02*
X002585Y011839D01*
X002507Y011760D02*
X004456Y011760D01*
X004456Y011682D02*
X002325Y011682D01*
X001736Y011682D02*
X001192Y011682D01*
X001192Y011760D02*
X001554Y011760D01*
X001476Y011839D02*
X001192Y011839D01*
X001192Y011917D02*
X001397Y011917D01*
X001323Y011996D02*
X001192Y011996D01*
X001192Y012074D02*
X001291Y012074D01*
X001258Y012153D02*
X001192Y012153D01*
X001192Y012231D02*
X001226Y012231D01*
X001200Y012310D02*
X001192Y012310D01*
X001192Y012388D02*
X001200Y012388D01*
X001192Y012467D02*
X001200Y012467D01*
X001192Y012545D02*
X001200Y012545D01*
X001192Y012702D02*
X001232Y012702D01*
X001265Y012781D02*
X001192Y012781D01*
X001192Y012859D02*
X001297Y012859D01*
X001335Y012938D02*
X001192Y012938D01*
X001192Y013016D02*
X001414Y013016D01*
X001492Y013095D02*
X001192Y013095D01*
X001192Y013173D02*
X001585Y013173D01*
X001775Y013252D02*
X001192Y013252D01*
X001192Y011603D02*
X004456Y011603D01*
X004456Y011525D02*
X001192Y011525D01*
X001192Y011446D02*
X004456Y011446D01*
X004472Y011368D02*
X001192Y011368D01*
X001192Y011289D02*
X004505Y011289D01*
X004541Y011211D02*
X001192Y011211D01*
X001192Y011132D02*
X004620Y011132D01*
X004724Y011054D02*
X001192Y011054D01*
X001192Y010975D02*
X006957Y010975D01*
X007270Y010897D02*
X001192Y010897D01*
X001192Y010818D02*
X007495Y010818D01*
X007709Y010740D02*
X001192Y010740D01*
X001192Y010661D02*
X007836Y010661D01*
X007964Y010583D02*
X001192Y010583D01*
X001192Y010504D02*
X008092Y010504D01*
X008211Y010426D02*
X001192Y010426D01*
X001192Y010347D02*
X008293Y010347D01*
X008374Y010269D02*
X001192Y010269D01*
X001192Y010190D02*
X008455Y010190D01*
X008537Y010112D02*
X001192Y010112D01*
X001192Y010033D02*
X008618Y010033D01*
X008672Y009955D02*
X001192Y009955D01*
X001192Y009876D02*
X008724Y009876D01*
X008777Y009798D02*
X001192Y009798D01*
X001192Y009719D02*
X008829Y009719D01*
X008881Y009641D02*
X001192Y009641D01*
X001192Y009562D02*
X008933Y009562D01*
X008975Y009484D02*
X006341Y009484D01*
X006380Y009445D02*
X006275Y009551D01*
X004525Y009551D01*
X004420Y009445D01*
X004420Y008926D01*
X004358Y009075D01*
X004196Y009142D01*
X004033Y009075D01*
X003965Y008912D01*
X004033Y008749D01*
X004196Y008682D01*
X004358Y008749D01*
X004420Y008898D01*
X004420Y007796D01*
X004525Y007691D01*
X006275Y007691D01*
X006380Y007796D01*
X006380Y009445D01*
X006380Y009405D02*
X009010Y009405D01*
X009046Y009327D02*
X006380Y009327D01*
X006380Y009248D02*
X009077Y009248D01*
X009099Y009170D02*
X006380Y009170D01*
X006380Y009091D02*
X009120Y009091D01*
X009141Y009013D02*
X006380Y009013D01*
X006380Y008934D02*
X009161Y008934D01*
X009172Y008856D02*
X006380Y008856D01*
X006380Y008777D02*
X009183Y008777D01*
X009194Y008699D02*
X006380Y008699D01*
X006380Y008620D02*
X009205Y008620D01*
X009215Y008542D02*
X006380Y008542D01*
X006380Y008463D02*
X009226Y008463D01*
X009237Y008385D02*
X006380Y008385D01*
X006380Y008306D02*
X009248Y008306D01*
X009254Y008228D02*
X006380Y008228D01*
X006380Y008149D02*
X009255Y008149D01*
X009255Y008071D02*
X006380Y008071D01*
X006380Y007835D02*
X009256Y007835D01*
X009256Y007757D02*
X006341Y007757D01*
X004459Y007757D02*
X001192Y007757D01*
X001192Y007835D02*
X004420Y007835D01*
X004420Y007914D02*
X001192Y007914D01*
X001192Y007992D02*
X004420Y007992D01*
X004420Y008071D02*
X001192Y008071D01*
X001192Y008149D02*
X004420Y008149D01*
X004420Y008228D02*
X001192Y008228D01*
X001192Y008306D02*
X004420Y008306D01*
X004420Y008385D02*
X001192Y008385D01*
X001192Y008463D02*
X004420Y008463D01*
X004420Y008542D02*
X001192Y008542D01*
X001192Y008620D02*
X004420Y008620D01*
X004420Y008699D02*
X004237Y008699D01*
X004154Y008699D02*
X001192Y008699D01*
X001192Y008777D02*
X004021Y008777D01*
X003989Y008856D02*
X001192Y008856D01*
X001192Y008934D02*
X003975Y008934D01*
X004007Y009013D02*
X001192Y009013D01*
X001192Y009091D02*
X004073Y009091D01*
X004318Y009091D02*
X004420Y009091D01*
X004420Y009013D02*
X004384Y009013D01*
X004416Y008934D02*
X004420Y008934D01*
X004420Y008856D02*
X004402Y008856D01*
X004420Y008777D02*
X004370Y008777D01*
X004420Y009170D02*
X001192Y009170D01*
X001192Y009248D02*
X004420Y009248D01*
X004420Y009327D02*
X001192Y009327D01*
X001192Y009405D02*
X004420Y009405D01*
X004459Y009484D02*
X001192Y009484D01*
X001192Y007678D02*
X009256Y007678D01*
X009256Y007600D02*
X001192Y007600D01*
X001192Y007521D02*
X009256Y007521D01*
X009256Y007443D02*
X001192Y007443D01*
X001192Y007364D02*
X009256Y007364D01*
X009256Y007286D02*
X001192Y007286D01*
X001192Y007207D02*
X009256Y007207D01*
X009256Y007129D02*
X001192Y007129D01*
X001192Y007050D02*
X009256Y007050D01*
X009256Y006972D02*
X001192Y006972D01*
X001192Y006893D02*
X009256Y006893D01*
X009256Y006815D02*
X001192Y006815D01*
X001192Y006736D02*
X009256Y006736D01*
X009256Y006658D02*
X001192Y006658D01*
X001192Y006579D02*
X009256Y006579D01*
X009256Y006501D02*
X001192Y006501D01*
X001192Y006422D02*
X009256Y006422D01*
X009256Y006344D02*
X001192Y006344D01*
X001192Y006265D02*
X009256Y006265D01*
X009256Y006187D02*
X001192Y006187D01*
X001192Y006108D02*
X009256Y006108D01*
X009256Y006030D02*
X001192Y006030D01*
X001192Y005951D02*
X009256Y005951D01*
X009256Y005873D02*
X001192Y005873D01*
X001192Y005794D02*
X009256Y005794D01*
X009256Y005716D02*
X001192Y005716D01*
X001192Y005637D02*
X009256Y005637D01*
X009256Y005559D02*
X001192Y005559D01*
X001192Y005480D02*
X009256Y005480D01*
X009256Y005402D02*
X001192Y005402D01*
X001192Y005323D02*
X009256Y005323D01*
X009256Y005245D02*
X001192Y005245D01*
X001192Y005166D02*
X009256Y005166D01*
X009256Y005088D02*
X001192Y005088D01*
X001192Y005009D02*
X009256Y005009D01*
X009256Y004931D02*
X001192Y004931D01*
X001192Y004852D02*
X009256Y004852D01*
X009256Y004774D02*
X001192Y004774D01*
X001192Y004695D02*
X009256Y004695D01*
X009257Y004617D02*
X001192Y004617D01*
X001192Y004538D02*
X009257Y004538D01*
X009257Y004460D02*
X001192Y004460D01*
X001192Y004381D02*
X009257Y004381D01*
X009257Y004303D02*
X001192Y004303D01*
X001192Y004224D02*
X009257Y004224D01*
X009257Y004146D02*
X001192Y004146D01*
X001192Y004067D02*
X009257Y004067D01*
X009257Y003989D02*
X001192Y003989D01*
X001192Y003910D02*
X009256Y003910D01*
X009256Y003832D02*
X001192Y003832D01*
X001192Y003753D02*
X001778Y003753D01*
X001865Y003789D02*
X001560Y003663D01*
X001326Y003429D01*
X001200Y003124D01*
X001200Y002794D01*
X001326Y002488D01*
X001560Y002255D01*
X001865Y002128D01*
X002196Y002128D01*
X002501Y002255D01*
X002735Y002488D01*
X002861Y002794D01*
X002861Y003124D01*
X002735Y003429D01*
X002501Y003663D01*
X002196Y003789D01*
X001865Y003789D01*
X001589Y003675D02*
X001192Y003675D01*
X001192Y003596D02*
X001493Y003596D01*
X001415Y003518D02*
X001192Y003518D01*
X001192Y003439D02*
X001336Y003439D01*
X001298Y003361D02*
X001192Y003361D01*
X001192Y003282D02*
X001266Y003282D01*
X001233Y003204D02*
X001192Y003204D01*
X001192Y003125D02*
X001201Y003125D01*
X001192Y003047D02*
X001200Y003047D01*
X001192Y002968D02*
X001200Y002968D01*
X001192Y002890D02*
X001200Y002890D01*
X001192Y002811D02*
X001200Y002811D01*
X001192Y002733D02*
X001225Y002733D01*
X001192Y002654D02*
X001258Y002654D01*
X001290Y002576D02*
X001192Y002576D01*
X001192Y002497D02*
X001323Y002497D01*
X001396Y002419D02*
X001192Y002419D01*
X001192Y002340D02*
X001474Y002340D01*
X001553Y002262D02*
X001192Y002262D01*
X001192Y002183D02*
X001732Y002183D01*
X002329Y002183D02*
X009446Y002183D01*
X009366Y002262D02*
X002508Y002262D01*
X002587Y002340D02*
X009323Y002340D01*
X009280Y002419D02*
X002665Y002419D01*
X002738Y002497D02*
X009264Y002497D01*
X009255Y002576D02*
X002771Y002576D01*
X002803Y002654D02*
X009256Y002654D01*
X009256Y002733D02*
X002836Y002733D01*
X002861Y002811D02*
X009256Y002811D01*
X009256Y002890D02*
X002861Y002890D01*
X002861Y002968D02*
X009256Y002968D01*
X009256Y003047D02*
X002861Y003047D01*
X002861Y003125D02*
X009256Y003125D01*
X009256Y003204D02*
X002828Y003204D01*
X002796Y003282D02*
X009256Y003282D01*
X009256Y003361D02*
X002763Y003361D01*
X002725Y003439D02*
X009256Y003439D01*
X009256Y003518D02*
X002646Y003518D01*
X002568Y003596D02*
X009256Y003596D01*
X009256Y003675D02*
X002472Y003675D01*
X002283Y003753D02*
X009256Y003753D01*
X009544Y002105D02*
X001192Y002105D01*
X001192Y002026D02*
X016174Y002026D01*
X016174Y001948D02*
X001192Y001948D01*
X001192Y001869D02*
X016174Y001869D01*
X016174Y001791D02*
X001192Y001791D01*
X001192Y001712D02*
X016174Y001712D01*
X016174Y001634D02*
X001196Y001634D01*
X001213Y001555D02*
X016174Y001555D01*
X016174Y001477D02*
X001239Y001477D01*
X001288Y001398D02*
X016174Y001398D01*
X016174Y001320D02*
X001354Y001320D01*
X001469Y001241D02*
X016174Y001241D01*
X015236Y003987D02*
X014932Y003987D01*
X014925Y003989D01*
X014879Y003987D01*
X014835Y003987D01*
X014835Y004081D01*
X014832Y004094D01*
X014869Y004094D01*
X014918Y004074D01*
X015037Y004074D01*
X015147Y004120D01*
X015164Y004136D01*
X015218Y004005D01*
X015236Y003987D01*
X015234Y003989D02*
X014926Y003989D01*
X014917Y003989D02*
X014835Y003989D01*
X014835Y004067D02*
X015192Y004067D01*
X014148Y004693D02*
X014129Y004693D01*
X014129Y004675D01*
X013888Y004675D01*
X013888Y004567D01*
X013895Y004543D01*
X013848Y004497D01*
X013848Y004175D01*
X013772Y004266D01*
X013680Y004503D01*
X013671Y004756D01*
X013743Y005000D01*
X013891Y005206D01*
X013915Y005227D01*
X013898Y005197D01*
X013888Y005161D01*
X013888Y005053D01*
X014129Y005053D01*
X014129Y005035D01*
X013888Y005035D01*
X013888Y004927D01*
X013898Y004892D01*
X013914Y004864D01*
X013898Y004837D01*
X013888Y004801D01*
X013888Y004693D01*
X014129Y004693D01*
X014129Y005035D01*
X014148Y005035D01*
X014148Y004806D01*
X014148Y004693D01*
X014148Y004695D02*
X014129Y004695D01*
X014129Y004774D02*
X014148Y004774D01*
X014148Y004852D02*
X014129Y004852D01*
X014129Y004931D02*
X014148Y004931D01*
X014148Y005009D02*
X014129Y005009D01*
X014129Y005053D02*
X014129Y005283D01*
X014010Y005283D01*
X013974Y005273D01*
X013961Y005265D01*
X013982Y005284D01*
X014114Y005359D01*
X014359Y005600D01*
X014359Y005600D01*
X014483Y005814D01*
X014494Y005799D01*
X014549Y005744D01*
X014612Y005699D01*
X014681Y005663D01*
X014755Y005639D01*
X014831Y005627D01*
X014831Y005867D01*
X014911Y005867D01*
X014911Y005627D01*
X014987Y005639D01*
X015061Y005663D01*
X015130Y005699D01*
X015157Y005718D01*
X015157Y005693D01*
X015148Y005590D01*
X015148Y005590D01*
X015246Y005381D01*
X015299Y005344D01*
X015229Y005274D01*
X014818Y005274D01*
X014770Y005323D01*
X014400Y005323D01*
X014333Y005255D01*
X014302Y005273D01*
X014267Y005283D01*
X014148Y005283D01*
X014148Y005053D01*
X014129Y005053D01*
X014129Y005088D02*
X014148Y005088D01*
X014148Y005166D02*
X014129Y005166D01*
X014129Y005245D02*
X014148Y005245D01*
X014114Y005359D02*
X014114Y005359D01*
X014158Y005402D02*
X015236Y005402D01*
X015246Y005381D02*
X015246Y005381D01*
X015278Y005323D02*
X014052Y005323D01*
X013890Y005166D02*
X013863Y005166D01*
X013888Y005088D02*
X013807Y005088D01*
X013750Y005009D02*
X013888Y005009D01*
X013888Y004931D02*
X013723Y004931D01*
X013699Y004852D02*
X013907Y004852D01*
X013888Y004774D02*
X013676Y004774D01*
X013673Y004695D02*
X013888Y004695D01*
X013888Y004617D02*
X013676Y004617D01*
X013679Y004538D02*
X013890Y004538D01*
X013848Y004460D02*
X013697Y004460D01*
X013727Y004381D02*
X013848Y004381D01*
X013848Y004303D02*
X013758Y004303D01*
X013807Y004224D02*
X013848Y004224D01*
X014237Y005480D02*
X015199Y005480D01*
X015162Y005559D02*
X014317Y005559D01*
X014380Y005637D02*
X014767Y005637D01*
X014831Y005637D02*
X014911Y005637D01*
X014975Y005637D02*
X015152Y005637D01*
X015154Y005716D02*
X015157Y005716D01*
X014911Y005716D02*
X014831Y005716D01*
X014831Y005794D02*
X014911Y005794D01*
X014588Y005716D02*
X014426Y005716D01*
X014472Y005794D02*
X014499Y005794D01*
X018404Y008149D02*
X019499Y008149D01*
X019473Y007914D02*
X019420Y007914D01*
X019229Y007914D02*
X019211Y007914D01*
X019211Y007835D02*
X019229Y007835D01*
X019229Y007757D02*
X019211Y007757D01*
X019211Y007678D02*
X019229Y007678D01*
X019229Y007600D02*
X019211Y007600D01*
X019211Y007521D02*
X019229Y007521D01*
X019441Y007521D02*
X019453Y007521D01*
X020662Y007443D02*
X020919Y007443D01*
X020997Y007521D02*
X020666Y007521D01*
X020708Y007600D02*
X021101Y007600D01*
X021138Y007678D02*
X020727Y007678D01*
X020727Y007757D02*
X021138Y007757D01*
X021138Y007835D02*
X020699Y007835D01*
X020645Y007914D02*
X021209Y007914D01*
X021005Y008228D02*
X021822Y008228D01*
X021718Y008306D02*
X021233Y008306D01*
X021306Y008385D02*
X021640Y008385D01*
X021589Y008463D02*
X021306Y008463D01*
X021306Y008542D02*
X021557Y008542D01*
X021524Y008620D02*
X021306Y008620D01*
X021306Y008699D02*
X021516Y008699D01*
X021516Y008777D02*
X021277Y008777D01*
X021314Y008856D02*
X021516Y008856D01*
X021529Y008934D02*
X021392Y008934D01*
X021471Y009013D02*
X021529Y009013D01*
X022597Y010136D02*
X022528Y010205D01*
X022538Y010214D01*
X022556Y010246D01*
X022566Y010282D01*
X022566Y010455D01*
X022323Y010455D01*
X022323Y010500D01*
X022278Y010500D01*
X022278Y011055D01*
X022323Y011055D01*
X022323Y010760D01*
X022323Y010500D01*
X022566Y010500D01*
X022566Y010673D01*
X022556Y010709D01*
X022538Y010741D01*
X022512Y010767D01*
X022493Y010777D01*
X022512Y010788D01*
X022538Y010814D01*
X022556Y010846D01*
X022566Y010882D01*
X022566Y011055D01*
X022323Y011055D01*
X022323Y011100D01*
X022566Y011100D01*
X022566Y011238D01*
X022627Y011238D01*
X022627Y010136D01*
X022597Y010136D01*
X022627Y010190D02*
X022543Y010190D01*
X022562Y010269D02*
X022627Y010269D01*
X022627Y010347D02*
X022566Y010347D01*
X022566Y010426D02*
X022627Y010426D01*
X022627Y010504D02*
X022566Y010504D01*
X022566Y010583D02*
X022627Y010583D01*
X022627Y010661D02*
X022566Y010661D01*
X022538Y010740D02*
X022627Y010740D01*
X022627Y010818D02*
X022540Y010818D01*
X022566Y010897D02*
X022627Y010897D01*
X022627Y010975D02*
X022566Y010975D01*
X022566Y011054D02*
X022627Y011054D01*
X022627Y011132D02*
X022566Y011132D01*
X022566Y011211D02*
X022627Y011211D01*
X022323Y011054D02*
X022278Y011054D01*
X022278Y010975D02*
X022323Y010975D01*
X022323Y010897D02*
X022278Y010897D01*
X022278Y010818D02*
X022323Y010818D01*
X022323Y010740D02*
X022278Y010740D01*
X022278Y010661D02*
X022323Y010661D01*
X022323Y010583D02*
X022278Y010583D01*
X022278Y010504D02*
X022323Y010504D01*
X023957Y010504D02*
X032158Y010504D01*
X032158Y010426D02*
X023965Y010426D01*
X023999Y010347D02*
X032158Y010347D01*
X032158Y010269D02*
X024067Y010269D01*
X023957Y010583D02*
X032158Y010583D01*
X032158Y010661D02*
X023957Y010661D01*
X023957Y010740D02*
X032158Y010740D01*
X032158Y010818D02*
X023957Y010818D01*
X023957Y010897D02*
X032158Y010897D01*
X032158Y010975D02*
X023957Y010975D01*
X023957Y011054D02*
X032158Y011054D01*
X032158Y011132D02*
X023957Y011132D01*
X023957Y011211D02*
X032158Y011211D01*
X032158Y011289D02*
X023957Y011289D01*
X023957Y011368D02*
X032158Y011368D01*
X032158Y011446D02*
X023957Y011446D01*
X023957Y011525D02*
X032158Y011525D01*
X032158Y011603D02*
X023957Y011603D01*
X023957Y011682D02*
X031015Y011682D01*
X031144Y011628D02*
X031474Y011628D01*
X031780Y011755D01*
X032013Y011988D01*
X032140Y012294D01*
X032140Y012624D01*
X032158Y012624D01*
X032140Y012624D02*
X032013Y012929D01*
X031780Y013163D01*
X031474Y013289D01*
X031144Y013289D01*
X030839Y013163D01*
X030605Y012929D01*
X030479Y012624D01*
X023909Y012624D01*
X023929Y012545D02*
X030479Y012545D01*
X030479Y012467D02*
X023950Y012467D01*
X023970Y012388D02*
X030479Y012388D01*
X030479Y012310D02*
X023969Y012310D01*
X023958Y012231D02*
X030505Y012231D01*
X030479Y012294D02*
X030605Y011988D01*
X030839Y011755D01*
X031144Y011628D01*
X030833Y011760D02*
X023957Y011760D01*
X023957Y011839D02*
X030755Y011839D01*
X030676Y011917D02*
X023957Y011917D01*
X023957Y011996D02*
X030602Y011996D01*
X030570Y012074D02*
X023957Y012074D01*
X023957Y012153D02*
X030537Y012153D01*
X030479Y012294D02*
X030479Y012624D01*
X030511Y012702D02*
X023874Y012702D01*
X023815Y012781D02*
X030544Y012781D01*
X030576Y012859D02*
X023757Y012859D01*
X023689Y012938D02*
X030614Y012938D01*
X030692Y013016D02*
X023557Y013016D01*
X023410Y013095D02*
X030771Y013095D01*
X030864Y013173D02*
X009744Y013173D01*
X009596Y013252D02*
X031054Y013252D01*
X031565Y013252D02*
X032158Y013252D01*
X032158Y013330D02*
X009449Y013330D01*
X009296Y013409D02*
X032158Y013409D01*
X032158Y013487D02*
X009070Y013487D01*
X008845Y013566D02*
X032158Y013566D01*
X032158Y013644D02*
X008618Y013644D01*
X008477Y013723D02*
X032158Y013723D01*
X032158Y013801D02*
X008477Y013801D01*
X008477Y013880D02*
X032158Y013880D01*
X032158Y013958D02*
X008477Y013958D01*
X008477Y014037D02*
X032158Y014037D01*
X032158Y014115D02*
X008477Y014115D01*
X008477Y014194D02*
X032158Y014194D01*
X032158Y014272D02*
X008477Y014272D01*
X008477Y014351D02*
X032158Y014351D01*
X032158Y014429D02*
X008477Y014429D01*
X008477Y014508D02*
X032158Y014508D01*
X032158Y014586D02*
X008477Y014586D01*
X008477Y014665D02*
X032158Y014665D01*
X032158Y014743D02*
X008477Y014743D01*
X008477Y014822D02*
X032158Y014822D01*
X032158Y014900D02*
X008477Y014900D01*
X008477Y014979D02*
X032158Y014979D01*
X032158Y015057D02*
X008477Y015057D01*
X008477Y015136D02*
X032158Y015136D01*
X032158Y015214D02*
X008477Y015214D01*
X008477Y015293D02*
X032158Y015293D01*
X032158Y015371D02*
X008477Y015371D01*
X008477Y015450D02*
X032158Y015450D01*
X032158Y015528D02*
X008477Y015528D01*
X008477Y015607D02*
X032158Y015607D01*
X032158Y015685D02*
X008477Y015685D01*
X008477Y015764D02*
X032158Y015764D01*
X032158Y015842D02*
X008477Y015842D01*
X007356Y015214D02*
X006167Y015214D01*
X006156Y015136D02*
X007356Y015136D01*
X007356Y015057D02*
X006059Y015057D01*
X005586Y012545D02*
X007975Y012545D01*
X008179Y012467D02*
X005586Y012467D01*
X005586Y012388D02*
X008383Y012388D01*
X001248Y018119D02*
X032101Y018119D01*
X032043Y018197D02*
X001305Y018197D01*
X001388Y018276D02*
X031960Y018276D01*
X031802Y018354D02*
X001544Y018354D01*
X020696Y007364D02*
X020840Y007364D01*
X020762Y007286D02*
X020696Y007286D01*
X023671Y006688D02*
X023671Y006423D01*
X023716Y006423D01*
X023716Y006717D01*
X023744Y006717D01*
X023744Y006931D01*
X023699Y006931D01*
X023699Y006688D01*
X023671Y006688D01*
X023671Y006658D02*
X023716Y006658D01*
X023716Y006579D02*
X023671Y006579D01*
X023671Y006501D02*
X023716Y006501D01*
X023716Y006423D02*
X023959Y006423D01*
X023959Y006596D01*
X023949Y006631D01*
X023931Y006663D01*
X023906Y006688D01*
X023917Y006688D01*
X023953Y006698D01*
X023985Y006716D01*
X024011Y006742D01*
X024017Y006753D01*
X024121Y006649D01*
X024519Y006649D01*
X024738Y006430D01*
X024738Y006186D01*
X024827Y006098D01*
X024418Y006098D01*
X024313Y005992D01*
X024313Y005977D01*
X024168Y005977D01*
X024057Y005932D01*
X023973Y005847D01*
X023742Y005616D01*
X023742Y005992D01*
X023651Y006083D01*
X023671Y006083D01*
X023671Y006378D01*
X023716Y006378D01*
X023716Y006423D01*
X023716Y006422D02*
X024738Y006422D01*
X024738Y006344D02*
X023959Y006344D01*
X023959Y006378D02*
X023716Y006378D01*
X023716Y006083D01*
X023837Y006083D01*
X023873Y006093D01*
X023904Y006111D01*
X023931Y006137D01*
X023949Y006169D01*
X023959Y006205D01*
X023959Y006378D01*
X023959Y006265D02*
X024738Y006265D01*
X024738Y006187D02*
X023954Y006187D01*
X023900Y006108D02*
X024816Y006108D01*
X024351Y006030D02*
X023704Y006030D01*
X023716Y006108D02*
X023671Y006108D01*
X023671Y006187D02*
X023716Y006187D01*
X023716Y006265D02*
X023671Y006265D01*
X023671Y006344D02*
X023716Y006344D01*
X023959Y006501D02*
X024667Y006501D01*
X024588Y006579D02*
X023959Y006579D01*
X023934Y006658D02*
X024112Y006658D01*
X024033Y006736D02*
X024005Y006736D01*
X023744Y006736D02*
X023699Y006736D01*
X023699Y006815D02*
X023744Y006815D01*
X023744Y006893D02*
X023699Y006893D01*
X024682Y007254D02*
X024730Y007301D01*
X024730Y007700D01*
X024677Y007752D01*
X024677Y007837D01*
X024594Y008039D01*
X024585Y008047D01*
X025040Y008047D01*
X025080Y008007D01*
X025132Y007985D01*
X025114Y007953D01*
X025104Y007918D01*
X025104Y007810D01*
X025345Y007810D01*
X025345Y007791D01*
X025363Y007791D01*
X025363Y007562D01*
X025482Y007562D01*
X025518Y007572D01*
X025549Y007590D01*
X025616Y007522D01*
X025985Y007522D01*
X026037Y007574D01*
X026037Y007034D01*
X026142Y006929D01*
X026227Y006929D01*
X026227Y006098D01*
X026210Y006098D01*
X026105Y005992D01*
X026105Y005363D01*
X026210Y005257D01*
X026718Y005257D01*
X026746Y005286D01*
X026839Y005286D01*
X026839Y005226D01*
X027201Y005226D01*
X027201Y005198D01*
X026839Y005198D01*
X026839Y005085D01*
X026845Y005066D01*
X026799Y005020D01*
X026799Y005008D01*
X026658Y005008D01*
X026649Y005016D01*
X026280Y005016D01*
X026249Y004985D01*
X026247Y004990D01*
X025706Y005530D01*
X025630Y005606D01*
X025626Y005608D01*
X025534Y005700D01*
X025534Y005992D01*
X025432Y006094D01*
X025432Y006127D01*
X025492Y006186D01*
X025492Y006226D01*
X025497Y006207D01*
X025515Y006175D01*
X025541Y006149D01*
X025573Y006130D01*
X025609Y006121D01*
X025784Y006121D01*
X025784Y006437D01*
X025864Y006437D01*
X025864Y006121D01*
X026039Y006121D01*
X026075Y006130D01*
X026107Y006149D01*
X026133Y006175D01*
X026151Y006207D01*
X026161Y006242D01*
X026161Y006437D01*
X025864Y006437D01*
X025864Y006517D01*
X026161Y006517D01*
X026161Y006712D01*
X026151Y006748D01*
X026133Y006780D01*
X026107Y006806D01*
X026075Y006824D01*
X026039Y006834D01*
X025864Y006834D01*
X025864Y006517D01*
X025784Y006517D01*
X025784Y006834D01*
X025609Y006834D01*
X025573Y006824D01*
X025541Y006806D01*
X025515Y006780D01*
X025497Y006748D01*
X025492Y006729D01*
X025492Y006768D01*
X025386Y006874D01*
X025142Y006874D01*
X024892Y007124D01*
X024808Y007208D01*
X024698Y007254D01*
X024682Y007254D01*
X024714Y007286D02*
X026037Y007286D01*
X026037Y007364D02*
X024730Y007364D01*
X024730Y007443D02*
X026037Y007443D01*
X026037Y007521D02*
X024730Y007521D01*
X024730Y007600D02*
X025148Y007600D01*
X025158Y007590D02*
X025190Y007572D01*
X025226Y007562D01*
X025345Y007562D01*
X025345Y007791D01*
X025104Y007791D01*
X025104Y007684D01*
X025114Y007648D01*
X025132Y007616D01*
X025158Y007590D01*
X025105Y007678D02*
X024730Y007678D01*
X024677Y007757D02*
X025104Y007757D01*
X025104Y007835D02*
X024677Y007835D01*
X024645Y007914D02*
X025104Y007914D01*
X025132Y007985D02*
X025132Y007985D01*
X025115Y007992D02*
X024613Y007992D01*
X024594Y008039D02*
X024594Y008039D01*
X025345Y007757D02*
X025363Y007757D01*
X025363Y007678D02*
X025345Y007678D01*
X025345Y007600D02*
X025363Y007600D01*
X024887Y007129D02*
X026037Y007129D01*
X026037Y007207D02*
X024809Y007207D01*
X024966Y007050D02*
X026037Y007050D01*
X026099Y006972D02*
X025044Y006972D01*
X025123Y006893D02*
X026227Y006893D01*
X026227Y006815D02*
X026091Y006815D01*
X026154Y006736D02*
X026227Y006736D01*
X026227Y006658D02*
X026161Y006658D01*
X026161Y006579D02*
X026227Y006579D01*
X026227Y006501D02*
X025864Y006501D01*
X025864Y006579D02*
X025784Y006579D01*
X025784Y006658D02*
X025864Y006658D01*
X025864Y006736D02*
X025784Y006736D01*
X025784Y006815D02*
X025864Y006815D01*
X025557Y006815D02*
X025445Y006815D01*
X025492Y006736D02*
X025494Y006736D01*
X025784Y006422D02*
X025864Y006422D01*
X025864Y006344D02*
X025784Y006344D01*
X025784Y006265D02*
X025864Y006265D01*
X025864Y006187D02*
X025784Y006187D01*
X025508Y006187D02*
X025492Y006187D01*
X025432Y006108D02*
X026227Y006108D01*
X026227Y006187D02*
X026140Y006187D01*
X026161Y006265D02*
X026227Y006265D01*
X026227Y006344D02*
X026161Y006344D01*
X026161Y006422D02*
X026227Y006422D01*
X026143Y006030D02*
X025496Y006030D01*
X025534Y005951D02*
X026105Y005951D01*
X026105Y005873D02*
X025534Y005873D01*
X025534Y005794D02*
X026105Y005794D01*
X026105Y005716D02*
X025534Y005716D01*
X025597Y005637D02*
X026105Y005637D01*
X026105Y005559D02*
X025678Y005559D01*
X025756Y005480D02*
X026105Y005480D01*
X026105Y005402D02*
X025835Y005402D01*
X025913Y005323D02*
X026144Y005323D01*
X025992Y005245D02*
X026839Y005245D01*
X026839Y005166D02*
X026070Y005166D01*
X026149Y005088D02*
X026839Y005088D01*
X026799Y005009D02*
X026656Y005009D01*
X026273Y005009D02*
X026227Y005009D01*
X026009Y004336D02*
X025783Y004336D01*
X025783Y004318D01*
X025553Y004318D01*
X025553Y004300D01*
X025553Y004059D01*
X025661Y004059D01*
X025697Y004068D01*
X025729Y004087D01*
X025755Y004113D01*
X025773Y004145D01*
X025780Y004170D01*
X025796Y004142D01*
X025822Y004116D01*
X025854Y004098D01*
X025889Y004088D01*
X026009Y004088D01*
X026009Y004317D01*
X026027Y004317D01*
X026027Y004088D01*
X026146Y004088D01*
X026182Y004098D01*
X026213Y004115D01*
X026280Y004048D01*
X026649Y004048D01*
X026755Y004154D01*
X026755Y004468D01*
X027041Y004468D01*
X027141Y004509D01*
X027181Y004549D01*
X027526Y004549D01*
X027632Y004655D01*
X027632Y004763D01*
X027721Y004673D01*
X027803Y004592D01*
X027909Y004548D01*
X028297Y004548D01*
X028301Y004549D01*
X028550Y004549D01*
X028655Y004655D01*
X028655Y005020D01*
X028651Y005025D01*
X028655Y005029D01*
X028655Y005394D01*
X028651Y005399D01*
X028655Y005403D01*
X028655Y005768D01*
X028550Y005874D01*
X028027Y005874D01*
X028027Y005931D01*
X028080Y005931D01*
X028185Y006036D01*
X028185Y006618D01*
X028080Y006724D01*
X028027Y006724D01*
X028027Y006929D01*
X028240Y006929D01*
X028346Y007034D01*
X028346Y007084D01*
X028430Y007119D01*
X028526Y007215D01*
X028577Y007340D01*
X028577Y007717D01*
X029371Y007717D01*
X029371Y007699D01*
X029417Y007589D01*
X029441Y007565D01*
X029373Y007497D01*
X029327Y007387D01*
X029327Y007268D01*
X029373Y007157D01*
X029457Y007073D01*
X029486Y007061D01*
X029486Y006972D01*
X029372Y006972D01*
X029355Y007005D02*
X029302Y007077D01*
X029240Y007140D01*
X029168Y007192D01*
X029088Y007233D01*
X029004Y007260D01*
X028916Y007274D01*
X028911Y007274D01*
X028911Y006749D01*
X028831Y006749D01*
X028831Y007274D01*
X028827Y007274D01*
X028739Y007260D01*
X028655Y007233D01*
X028575Y007192D01*
X028503Y007140D01*
X028441Y007077D01*
X028388Y007005D01*
X028348Y006926D01*
X028320Y006841D01*
X028306Y006753D01*
X028306Y006749D01*
X028344Y006749D01*
X028333Y006713D01*
X028326Y006669D01*
X028306Y006669D01*
X028306Y006664D01*
X028320Y006577D01*
X028327Y006555D01*
X028326Y006544D01*
X028319Y006544D01*
X028319Y006540D01*
X028322Y006521D01*
X028319Y006502D01*
X028319Y006499D01*
X028326Y006499D01*
X028333Y006455D01*
X028344Y006419D01*
X028319Y006419D01*
X028319Y006415D01*
X028333Y006330D01*
X028359Y006247D01*
X028399Y006169D01*
X028450Y006099D01*
X028512Y006037D01*
X028582Y005986D01*
X028659Y005947D01*
X028742Y005920D01*
X028828Y005906D01*
X028831Y005906D01*
X028831Y006419D01*
X028911Y006419D01*
X028911Y005906D01*
X028915Y005906D01*
X029001Y005920D01*
X029084Y005947D01*
X029161Y005986D01*
X029231Y006037D01*
X029293Y006099D01*
X029344Y006169D01*
X029384Y006247D01*
X029410Y006330D01*
X029424Y006415D01*
X029424Y006419D01*
X029399Y006419D01*
X029410Y006455D01*
X029417Y006499D01*
X029424Y006499D01*
X029424Y006502D01*
X029421Y006521D01*
X029424Y006540D01*
X029424Y006544D01*
X029417Y006544D01*
X029416Y006555D01*
X029423Y006577D01*
X029436Y006664D01*
X029436Y006669D01*
X029417Y006669D01*
X029410Y006713D01*
X029407Y006722D01*
X029407Y006749D01*
X029436Y006749D01*
X029436Y006753D01*
X029423Y006841D01*
X029407Y006888D01*
X029407Y006912D01*
X029396Y006924D01*
X029395Y006926D01*
X029355Y007005D01*
X029322Y007050D02*
X029486Y007050D01*
X029486Y006972D02*
X029552Y006812D01*
X029675Y006689D01*
X029835Y006623D01*
X030008Y006623D01*
X030059Y006644D01*
X030095Y006559D01*
X030008Y006595D01*
X029835Y006595D01*
X029675Y006528D01*
X029552Y006406D01*
X029486Y006246D01*
X029486Y006072D01*
X029552Y005912D01*
X029675Y005789D01*
X029835Y005723D01*
X030008Y005723D01*
X030056Y005743D01*
X030056Y005675D01*
X030008Y005695D01*
X029835Y005695D01*
X029675Y005628D01*
X029552Y005506D01*
X029486Y005346D01*
X029486Y005172D01*
X029548Y005022D01*
X029523Y004997D01*
X029477Y004887D01*
X029477Y004768D01*
X029523Y004657D01*
X029553Y004627D01*
X029402Y004552D01*
X029307Y004528D01*
X029305Y004529D01*
X029264Y004518D01*
X029222Y004510D01*
X029215Y004505D01*
X028028Y004210D01*
X025553Y003706D01*
X025183Y003653D01*
X025191Y003668D01*
X025201Y003703D01*
X025201Y003811D01*
X024960Y003811D01*
X024960Y003829D01*
X025201Y003829D01*
X025201Y003937D01*
X025191Y003973D01*
X025173Y004005D01*
X025161Y004016D01*
X025180Y004021D01*
X025212Y004039D01*
X025238Y004066D01*
X025256Y004097D01*
X025266Y004133D01*
X025266Y004306D01*
X025023Y004306D01*
X025023Y004351D01*
X025266Y004351D01*
X025266Y004524D01*
X025256Y004560D01*
X025241Y004586D01*
X025266Y004586D01*
X025266Y004571D01*
X025333Y004504D01*
X025315Y004473D01*
X025306Y004437D01*
X025306Y004318D01*
X025535Y004318D01*
X025535Y004300D01*
X025306Y004300D01*
X025306Y004180D01*
X025315Y004145D01*
X025334Y004113D01*
X025360Y004087D01*
X025392Y004068D01*
X025427Y004059D01*
X025535Y004059D01*
X025535Y004300D01*
X025553Y004300D01*
X025768Y004300D01*
X025768Y004317D01*
X026009Y004317D01*
X026009Y004336D01*
X026009Y004303D02*
X026027Y004303D01*
X026027Y004224D02*
X026009Y004224D01*
X026009Y004146D02*
X026027Y004146D01*
X025794Y004146D02*
X025773Y004146D01*
X025693Y004067D02*
X026261Y004067D01*
X026172Y003832D02*
X025201Y003832D01*
X025201Y003910D02*
X026558Y003910D01*
X026668Y004067D02*
X027329Y004067D01*
X026944Y003989D02*
X025182Y003989D01*
X025239Y004067D02*
X025395Y004067D01*
X025315Y004146D02*
X025266Y004146D01*
X025266Y004224D02*
X025306Y004224D01*
X025266Y004303D02*
X025535Y004303D01*
X025553Y004303D02*
X025768Y004303D01*
X025553Y004224D02*
X025535Y004224D01*
X025535Y004146D02*
X025553Y004146D01*
X025553Y004067D02*
X025535Y004067D01*
X025786Y003753D02*
X025201Y003753D01*
X025193Y003675D02*
X025336Y003675D01*
X025306Y004381D02*
X025266Y004381D01*
X025266Y004460D02*
X025312Y004460D01*
X025298Y004538D02*
X025262Y004538D01*
X026755Y004460D02*
X029032Y004460D01*
X028718Y004381D02*
X026755Y004381D01*
X026755Y004303D02*
X028403Y004303D01*
X028088Y004224D02*
X026755Y004224D01*
X026747Y004146D02*
X027715Y004146D01*
X027778Y004617D02*
X027594Y004617D01*
X027632Y004695D02*
X027699Y004695D01*
X027170Y004538D02*
X029347Y004538D01*
X029533Y004617D02*
X028618Y004617D01*
X028655Y004695D02*
X029507Y004695D01*
X029477Y004774D02*
X028655Y004774D01*
X028655Y004852D02*
X029477Y004852D01*
X029496Y004931D02*
X028655Y004931D01*
X028655Y005009D02*
X029535Y005009D01*
X029520Y005088D02*
X028655Y005088D01*
X028655Y005166D02*
X029488Y005166D01*
X029486Y005245D02*
X028655Y005245D01*
X028655Y005323D02*
X029486Y005323D01*
X029509Y005402D02*
X028655Y005402D01*
X028655Y005480D02*
X029541Y005480D01*
X029605Y005559D02*
X028655Y005559D01*
X028655Y005637D02*
X029696Y005637D01*
X029670Y005794D02*
X028630Y005794D01*
X028655Y005716D02*
X030056Y005716D01*
X029591Y005873D02*
X028551Y005873D01*
X028650Y005951D02*
X028100Y005951D01*
X028179Y006030D02*
X028522Y006030D01*
X028443Y006108D02*
X028185Y006108D01*
X028185Y006187D02*
X028390Y006187D01*
X028353Y006265D02*
X028185Y006265D01*
X028185Y006344D02*
X028330Y006344D01*
X028343Y006422D02*
X028185Y006422D01*
X028185Y006501D02*
X028319Y006501D01*
X028320Y006579D02*
X028185Y006579D01*
X028146Y006658D02*
X028308Y006658D01*
X028340Y006736D02*
X028027Y006736D01*
X028027Y006815D02*
X028316Y006815D01*
X028337Y006893D02*
X028027Y006893D01*
X028283Y006972D02*
X028371Y006972D01*
X028346Y007050D02*
X028421Y007050D01*
X028440Y007129D02*
X028492Y007129D01*
X028518Y007207D02*
X028605Y007207D01*
X028555Y007286D02*
X029327Y007286D01*
X029327Y007364D02*
X028577Y007364D01*
X028577Y007443D02*
X029351Y007443D01*
X029397Y007521D02*
X028577Y007521D01*
X028577Y007600D02*
X029413Y007600D01*
X029380Y007678D02*
X028577Y007678D01*
X028831Y007207D02*
X028911Y007207D01*
X028911Y007129D02*
X028831Y007129D01*
X028831Y007050D02*
X028911Y007050D01*
X028911Y006972D02*
X028831Y006972D01*
X028831Y006893D02*
X028911Y006893D01*
X028911Y006815D02*
X028831Y006815D01*
X028831Y006669D02*
X028831Y006624D01*
X028911Y006624D01*
X028911Y006669D01*
X028831Y006669D01*
X028831Y006658D02*
X028911Y006658D01*
X028911Y006544D02*
X028911Y006499D01*
X028831Y006499D01*
X028831Y006544D01*
X028911Y006544D01*
X028911Y006501D02*
X028831Y006501D01*
X028831Y006344D02*
X028911Y006344D01*
X028911Y006265D02*
X028831Y006265D01*
X028831Y006187D02*
X028911Y006187D01*
X028911Y006108D02*
X028831Y006108D01*
X028831Y006030D02*
X028911Y006030D01*
X028911Y005951D02*
X028831Y005951D01*
X029092Y005951D02*
X029536Y005951D01*
X029503Y006030D02*
X029221Y006030D01*
X029300Y006108D02*
X029486Y006108D01*
X029486Y006187D02*
X029353Y006187D01*
X029390Y006265D02*
X029494Y006265D01*
X029526Y006344D02*
X029413Y006344D01*
X029400Y006422D02*
X029569Y006422D01*
X029647Y006501D02*
X029424Y006501D01*
X029423Y006579D02*
X029798Y006579D01*
X029750Y006658D02*
X029435Y006658D01*
X029407Y006736D02*
X029628Y006736D01*
X029551Y006815D02*
X029427Y006815D01*
X029407Y006893D02*
X029518Y006893D01*
X029402Y007129D02*
X029251Y007129D01*
X029352Y007207D02*
X029138Y007207D01*
X030045Y006579D02*
X030086Y006579D01*
X031375Y006579D02*
X032158Y006579D01*
X032158Y006501D02*
X031375Y006501D01*
X031375Y006422D02*
X032158Y006422D01*
X032158Y006344D02*
X031375Y006344D01*
X031375Y006265D02*
X032158Y006265D01*
X032158Y006187D02*
X031375Y006187D01*
X031375Y006108D02*
X032158Y006108D01*
X032158Y006030D02*
X031375Y006030D01*
X031375Y005951D02*
X032158Y005951D01*
X032158Y005873D02*
X031375Y005873D01*
X031374Y005794D02*
X032158Y005794D01*
X032158Y005716D02*
X031374Y005716D01*
X031374Y005637D02*
X032158Y005637D01*
X032158Y005559D02*
X031374Y005559D01*
X031374Y005480D02*
X032158Y005480D01*
X032158Y005402D02*
X031374Y005402D01*
X031374Y005323D02*
X032158Y005323D01*
X032158Y005245D02*
X031374Y005245D01*
X031374Y005166D02*
X032158Y005166D01*
X032158Y005088D02*
X031374Y005088D01*
X031374Y005009D02*
X032158Y005009D01*
X032158Y004931D02*
X031374Y004931D01*
X031372Y004852D02*
X032158Y004852D01*
X032158Y004774D02*
X031371Y004774D01*
X031355Y004695D02*
X032158Y004695D01*
X032158Y004617D02*
X031331Y004617D01*
X031307Y004538D02*
X032158Y004538D01*
X032158Y004460D02*
X031283Y004460D01*
X031260Y004381D02*
X032158Y004381D01*
X032158Y004303D02*
X031222Y004303D01*
X031172Y004224D02*
X032158Y004224D01*
X032158Y004146D02*
X031121Y004146D01*
X031070Y004067D02*
X032158Y004067D01*
X032158Y003989D02*
X031019Y003989D01*
X030930Y003910D02*
X032158Y003910D01*
X032158Y003832D02*
X030840Y003832D01*
X030751Y003753D02*
X031057Y003753D01*
X031144Y003789D02*
X030839Y003663D01*
X030605Y003429D01*
X030479Y003124D01*
X030479Y002794D01*
X030605Y002488D01*
X030839Y002255D01*
X031144Y002128D01*
X031474Y002128D01*
X031780Y002255D01*
X032013Y002488D01*
X032140Y002794D01*
X032140Y003124D01*
X032013Y003429D01*
X031780Y003663D01*
X031474Y003789D01*
X031144Y003789D01*
X030868Y003675D02*
X030626Y003675D01*
X030772Y003596D02*
X030459Y003596D01*
X030615Y003439D02*
X029920Y003439D01*
X029648Y003361D02*
X030577Y003361D01*
X030544Y003282D02*
X029376Y003282D01*
X029104Y003204D02*
X030512Y003204D01*
X030479Y003125D02*
X028806Y003125D01*
X028459Y003047D02*
X030479Y003047D01*
X030479Y002968D02*
X028113Y002968D01*
X027766Y002890D02*
X030479Y002890D01*
X030479Y002811D02*
X027419Y002811D01*
X027073Y002733D02*
X030504Y002733D01*
X030536Y002654D02*
X026726Y002654D01*
X026353Y002576D02*
X030569Y002576D01*
X030601Y002497D02*
X025881Y002497D01*
X025408Y002419D02*
X030675Y002419D01*
X030753Y002340D02*
X024935Y002340D01*
X024462Y002262D02*
X030832Y002262D01*
X031011Y002183D02*
X023989Y002183D01*
X023277Y002105D02*
X032158Y002105D01*
X032158Y002183D02*
X031607Y002183D01*
X031787Y002262D02*
X032158Y002262D01*
X032158Y002340D02*
X031865Y002340D01*
X031944Y002419D02*
X032158Y002419D01*
X032158Y002497D02*
X032017Y002497D01*
X032050Y002576D02*
X032158Y002576D01*
X032158Y002654D02*
X032082Y002654D01*
X032115Y002733D02*
X032158Y002733D01*
X032158Y002811D02*
X032140Y002811D01*
X032140Y002890D02*
X032158Y002890D01*
X032158Y002968D02*
X032140Y002968D01*
X032140Y003047D02*
X032158Y003047D01*
X032158Y003125D02*
X032139Y003125D01*
X032158Y003204D02*
X032107Y003204D01*
X032074Y003282D02*
X032158Y003282D01*
X032158Y003361D02*
X032042Y003361D01*
X032003Y003439D02*
X032158Y003439D01*
X032158Y003518D02*
X031925Y003518D01*
X031846Y003596D02*
X032158Y003596D01*
X032158Y003675D02*
X031751Y003675D01*
X031562Y003753D02*
X032158Y003753D01*
X030694Y003518D02*
X030239Y003518D01*
X032158Y002026D02*
X022923Y002026D01*
X022923Y001948D02*
X032158Y001948D01*
X032158Y001869D02*
X022923Y001869D01*
X022923Y001791D02*
X032158Y001791D01*
X032158Y001712D02*
X022923Y001712D01*
X022923Y001634D02*
X032155Y001634D01*
X032136Y001555D02*
X022923Y001555D01*
X022923Y001477D02*
X032110Y001477D01*
X032060Y001398D02*
X022923Y001398D01*
X022923Y001320D02*
X031993Y001320D01*
X031879Y001241D02*
X022923Y001241D01*
X022599Y003302D02*
X021803Y003223D01*
X021637Y003220D01*
X021637Y003286D01*
X021673Y003250D01*
X022042Y003250D01*
X022109Y003318D01*
X022140Y003300D01*
X022176Y003290D01*
X022295Y003290D01*
X022295Y003520D01*
X022314Y003520D01*
X022314Y003538D01*
X022757Y003538D01*
X022757Y003520D01*
X022554Y003520D01*
X022314Y003520D01*
X022314Y003290D01*
X022433Y003290D01*
X022468Y003300D01*
X022500Y003318D01*
X022526Y003344D01*
X022535Y003360D01*
X022545Y003344D01*
X022571Y003318D01*
X022599Y003302D01*
X022399Y003282D02*
X022074Y003282D01*
X022295Y003361D02*
X022314Y003361D01*
X022314Y003439D02*
X022295Y003439D01*
X022295Y003518D02*
X022314Y003518D01*
X022314Y003538D02*
X022295Y003538D01*
X022295Y003767D01*
X022295Y003930D01*
X022314Y003930D01*
X022314Y003948D01*
X022757Y003948D01*
X022757Y003930D01*
X022554Y003930D01*
X022314Y003930D01*
X022314Y003538D01*
X022314Y003596D02*
X022295Y003596D01*
X022295Y003675D02*
X022314Y003675D01*
X022314Y003753D02*
X022295Y003753D01*
X022295Y003832D02*
X022314Y003832D01*
X022314Y003910D02*
X022295Y003910D01*
X022295Y003948D02*
X022295Y004142D01*
X022314Y004124D01*
X022314Y003948D01*
X022295Y003948D01*
X022295Y003989D02*
X022314Y003989D01*
X022314Y004067D02*
X022295Y004067D01*
X022260Y004177D02*
X022176Y004177D01*
X022140Y004168D01*
X022109Y004150D01*
X022042Y004217D01*
X021713Y004217D01*
X021698Y004232D01*
X021298Y004232D01*
X021304Y004238D01*
X021329Y004246D01*
X021355Y004249D01*
X021367Y004246D01*
X021374Y004251D01*
X021383Y004252D01*
X021391Y004262D01*
X021413Y004276D01*
X021438Y004284D01*
X021450Y004284D01*
X021456Y004291D01*
X021465Y004294D01*
X021470Y004305D01*
X021488Y004323D01*
X021511Y004337D01*
X021522Y004340D01*
X021527Y004347D01*
X021535Y004352D01*
X021538Y004364D01*
X021551Y004386D01*
X021570Y004404D01*
X021581Y004410D01*
X021584Y004418D01*
X021590Y004425D01*
X021590Y004437D01*
X021599Y004461D01*
X021613Y004484D01*
X021622Y004491D01*
X021623Y004500D01*
X021628Y004508D01*
X021625Y004520D01*
X021628Y004546D01*
X021631Y004552D01*
X021637Y004559D01*
X021637Y004571D01*
X021646Y004597D01*
X021637Y004617D01*
X021716Y004617D01*
X021716Y004695D02*
X021639Y004695D01*
X021637Y004698D02*
X021644Y004689D01*
X021637Y004624D01*
X021637Y004617D01*
X021628Y004538D02*
X021716Y004538D01*
X021716Y004460D02*
X021598Y004460D01*
X021549Y004381D02*
X021736Y004381D01*
X021716Y004402D02*
X021821Y004297D01*
X022141Y004297D01*
X022260Y004177D01*
X022213Y004224D02*
X021706Y004224D01*
X021815Y004303D02*
X021469Y004303D01*
X021716Y004402D02*
X021716Y004715D01*
X021637Y004793D01*
X021637Y004698D01*
X021637Y004774D02*
X021657Y004774D01*
X021011Y004305D02*
X020992Y004323D01*
X020970Y004337D01*
X020958Y004340D01*
X020953Y004347D01*
X020946Y004352D01*
X020943Y004364D01*
X020929Y004386D01*
X020911Y004404D01*
X020900Y004410D01*
X020897Y004418D01*
X020890Y004425D01*
X020890Y004437D01*
X020882Y004461D01*
X020878Y004468D01*
X020866Y004457D01*
X020835Y004438D01*
X020799Y004429D01*
X020662Y004429D01*
X020662Y004766D01*
X020584Y004766D01*
X020584Y004429D01*
X020447Y004429D01*
X020418Y004436D01*
X020371Y004389D01*
X019991Y004389D01*
X020025Y004325D01*
X020104Y004260D01*
X020198Y004232D01*
X020266Y004232D01*
X020349Y004241D01*
X020359Y004232D01*
X021183Y004232D01*
X021176Y004238D01*
X021152Y004246D01*
X021126Y004249D01*
X021114Y004246D01*
X021106Y004251D01*
X021097Y004252D01*
X021090Y004262D01*
X021068Y004276D01*
X021043Y004284D01*
X021031Y004284D01*
X021024Y004291D01*
X021016Y004294D01*
X021011Y004305D01*
X021011Y004303D02*
X020052Y004303D01*
X019995Y004381D02*
X020932Y004381D01*
X020882Y004460D02*
X020870Y004460D01*
X020662Y004460D02*
X020584Y004460D01*
X020584Y004538D02*
X020662Y004538D01*
X020662Y004617D02*
X020584Y004617D01*
X020584Y004695D02*
X020662Y004695D01*
X020662Y004844D02*
X020662Y005027D01*
X020584Y005027D01*
X020584Y004844D01*
X020662Y004844D01*
X020662Y004852D02*
X020584Y004852D01*
X020584Y004931D02*
X020662Y004931D01*
X020662Y005009D02*
X020584Y005009D01*
X022757Y003930D02*
X022757Y003767D01*
X022757Y003538D01*
X022776Y003538D01*
X022776Y003930D01*
X022757Y003930D01*
X022757Y003910D02*
X022776Y003910D01*
X022776Y003832D02*
X022757Y003832D01*
X022757Y003753D02*
X022776Y003753D01*
X022776Y003675D02*
X022757Y003675D01*
X022757Y003596D02*
X022776Y003596D01*
X021641Y003282D02*
X021637Y003282D01*
X023742Y005637D02*
X023763Y005637D01*
X023742Y005716D02*
X023842Y005716D01*
X023920Y005794D02*
X023742Y005794D01*
X023742Y005873D02*
X023999Y005873D01*
X023973Y005847D02*
X023973Y005847D01*
X024105Y005951D02*
X023742Y005951D01*
X026827Y005951D02*
X027427Y005951D01*
X027382Y005999D02*
X027408Y006025D01*
X027426Y006057D01*
X027427Y006062D01*
X027427Y005874D01*
X027304Y005874D01*
X027275Y005886D01*
X026827Y005886D01*
X026827Y005992D01*
X026848Y005980D01*
X026884Y005971D01*
X027059Y005971D01*
X027059Y006287D01*
X027139Y006287D01*
X027139Y005971D01*
X027314Y005971D01*
X027350Y005980D01*
X027382Y005999D01*
X027411Y006030D02*
X027427Y006030D01*
X027139Y006030D02*
X027059Y006030D01*
X027059Y006108D02*
X027139Y006108D01*
X027139Y006187D02*
X027059Y006187D01*
X027059Y006265D02*
X027139Y006265D01*
X027139Y006367D02*
X027059Y006367D01*
X027059Y006684D01*
X026884Y006684D01*
X026848Y006674D01*
X026827Y006663D01*
X026827Y006929D01*
X026843Y006929D01*
X026948Y007034D01*
X026948Y008047D01*
X027434Y008047D01*
X027434Y007304D01*
X027427Y007287D01*
X027427Y006593D01*
X027426Y006598D01*
X027408Y006630D01*
X027382Y006656D01*
X027350Y006674D01*
X027314Y006684D01*
X027139Y006684D01*
X027139Y006367D01*
X027139Y006422D02*
X027059Y006422D01*
X027059Y006501D02*
X027139Y006501D01*
X027139Y006579D02*
X027059Y006579D01*
X027059Y006658D02*
X027139Y006658D01*
X027378Y006658D02*
X027427Y006658D01*
X027427Y006736D02*
X026827Y006736D01*
X026827Y006815D02*
X027427Y006815D01*
X027427Y006893D02*
X026827Y006893D01*
X026886Y006972D02*
X027427Y006972D01*
X027427Y007050D02*
X026948Y007050D01*
X026948Y007129D02*
X027427Y007129D01*
X027427Y007207D02*
X026948Y007207D01*
X026948Y007286D02*
X027427Y007286D01*
X027434Y007364D02*
X026948Y007364D01*
X026948Y007443D02*
X027434Y007443D01*
X027434Y007521D02*
X026948Y007521D01*
X026948Y007600D02*
X027434Y007600D01*
X027434Y007678D02*
X026948Y007678D01*
X026948Y007757D02*
X027434Y007757D01*
X027434Y007835D02*
X026948Y007835D01*
X026948Y007914D02*
X027434Y007914D01*
X027434Y007992D02*
X026948Y007992D01*
X030791Y010190D02*
X032158Y010190D01*
X032158Y010112D02*
X030981Y010112D01*
X031096Y010033D02*
X032158Y010033D01*
X032158Y009955D02*
X031175Y009955D01*
X031253Y009876D02*
X032158Y009876D01*
X032158Y009798D02*
X031288Y009798D01*
X031321Y009719D02*
X032158Y009719D01*
X032158Y009641D02*
X031353Y009641D01*
X031374Y009562D02*
X032158Y009562D01*
X032158Y009484D02*
X031374Y009484D01*
X031374Y009405D02*
X032158Y009405D01*
X032158Y009327D02*
X031374Y009327D01*
X031374Y009248D02*
X032158Y009248D01*
X032158Y009170D02*
X031374Y009170D01*
X031374Y009091D02*
X032158Y009091D01*
X032158Y009013D02*
X031374Y009013D01*
X031374Y008934D02*
X032158Y008934D01*
X032158Y008856D02*
X031374Y008856D01*
X031374Y008777D02*
X032158Y008777D01*
X032158Y008699D02*
X031374Y008699D01*
X031374Y008620D02*
X032158Y008620D01*
X032158Y008542D02*
X031374Y008542D01*
X031374Y008463D02*
X032158Y008463D01*
X032158Y008385D02*
X031374Y008385D01*
X031374Y008306D02*
X032158Y008306D01*
X032158Y008228D02*
X031374Y008228D01*
X031374Y008149D02*
X032158Y008149D01*
X032158Y008071D02*
X031374Y008071D01*
X031374Y007992D02*
X032158Y007992D01*
X032158Y007914D02*
X031374Y007914D01*
X031374Y007835D02*
X032158Y007835D01*
X032158Y007757D02*
X031374Y007757D01*
X031374Y007678D02*
X032158Y007678D01*
X032158Y007600D02*
X031374Y007600D01*
X031374Y007521D02*
X032158Y007521D01*
X032158Y007443D02*
X031374Y007443D01*
X031374Y007364D02*
X032158Y007364D01*
X032158Y007286D02*
X031374Y007286D01*
X031374Y007207D02*
X032158Y007207D01*
X032158Y007129D02*
X031374Y007129D01*
X031374Y007050D02*
X032158Y007050D01*
X032158Y006972D02*
X031374Y006972D01*
X031374Y006893D02*
X032158Y006893D01*
X032158Y006815D02*
X031374Y006815D01*
X031375Y006736D02*
X032158Y006736D01*
X032158Y006658D02*
X031375Y006658D01*
X031604Y011682D02*
X032158Y011682D01*
X032158Y011760D02*
X031785Y011760D01*
X031864Y011839D02*
X032158Y011839D01*
X032158Y011917D02*
X031942Y011917D01*
X032017Y011996D02*
X032158Y011996D01*
X032158Y012074D02*
X032049Y012074D01*
X032082Y012153D02*
X032158Y012153D01*
X032158Y012231D02*
X032114Y012231D01*
X032140Y012310D02*
X032158Y012310D01*
X032158Y012388D02*
X032140Y012388D01*
X032140Y012467D02*
X032158Y012467D01*
X032158Y012545D02*
X032140Y012545D01*
X032158Y012702D02*
X032107Y012702D01*
X032075Y012781D02*
X032158Y012781D01*
X032158Y012859D02*
X032042Y012859D01*
X032005Y012938D02*
X032158Y012938D01*
X032158Y013016D02*
X031926Y013016D01*
X031848Y013095D02*
X032158Y013095D01*
X032158Y013173D02*
X031755Y013173D01*
D41*
X024192Y010437D03*
X022542Y010390D03*
X022542Y010690D03*
X022542Y010990D03*
X022527Y008477D03*
X022317Y008287D03*
X021545Y008110D03*
X021245Y008110D03*
X020945Y008110D03*
X020645Y008110D03*
X020427Y007707D03*
X019347Y006930D03*
X019347Y006660D03*
X019047Y006660D03*
X019047Y006930D03*
X019047Y006390D03*
X019047Y006120D03*
X019347Y006120D03*
X019347Y006390D03*
X020216Y006216D03*
X020626Y004929D03*
X020626Y004679D03*
X018807Y004312D03*
X018456Y004679D03*
X018456Y004929D03*
X017352Y004152D03*
X018247Y003927D03*
X018807Y003957D03*
X017177Y003127D03*
X015140Y004014D03*
X014977Y004374D03*
X013792Y004584D03*
X013792Y004884D03*
X014717Y005734D03*
X015017Y005734D03*
X017154Y005907D03*
X017427Y007477D03*
X018127Y008032D03*
X015912Y009190D03*
X015612Y009190D03*
X015312Y009190D03*
X015012Y009190D03*
X013977Y009022D03*
X013977Y008322D03*
X013351Y010359D03*
X013051Y010359D03*
X012751Y010359D03*
X012451Y010359D03*
X012151Y010359D03*
X011851Y010359D03*
X011551Y010359D03*
X011251Y010359D03*
X010951Y010359D03*
X013977Y010677D03*
X014627Y010677D03*
X006051Y012729D03*
X006051Y013079D03*
X006051Y013429D03*
X006051Y013779D03*
X006051Y014129D03*
X010972Y005647D03*
X010927Y003977D03*
X023627Y003677D03*
X025692Y005690D03*
X025842Y005940D03*
X025992Y005690D03*
X026942Y005940D03*
X027242Y005940D03*
X028277Y005990D03*
X028842Y005790D03*
X028842Y005490D03*
X029897Y006159D03*
X028192Y006790D03*
X027192Y006940D03*
X027192Y007240D03*
X027192Y007540D03*
X027192Y007840D03*
X028477Y008477D03*
X028652Y008302D03*
X029671Y007759D03*
X029627Y007327D03*
X029777Y004827D03*
X024645Y006260D03*
X024345Y006260D03*
X024045Y006260D03*
X024895Y007860D03*
D42*
X005751Y014329D02*
X005751Y015189D01*
D43*
X005727Y015706D02*
X005727Y015731D01*
X005561Y015731D01*
X016777Y008344D02*
X016777Y008327D01*
X018027Y009382D02*
X018877Y008673D01*
X019644Y008953D02*
X019644Y009394D01*
X020627Y010077D01*
X021027Y010354D01*
X021027Y009901D02*
X021141Y009901D01*
X021717Y010477D01*
X021754Y010477D01*
X021367Y010777D02*
X021367Y011177D01*
X021654Y011177D01*
X021671Y011175D01*
X021688Y011171D01*
X021704Y011164D01*
X021718Y011154D01*
X021731Y011141D01*
X021741Y011127D01*
X021748Y011111D01*
X021752Y011094D01*
X021754Y011077D01*
X021367Y011177D02*
X021077Y011177D01*
X021027Y011127D01*
X021027Y010801D01*
X021077Y011177D02*
X020277Y011177D01*
X020256Y011175D01*
X020235Y011170D01*
X020216Y011161D01*
X020199Y011148D01*
X020184Y011133D01*
X020171Y011116D01*
X020162Y011097D01*
X020157Y011076D01*
X020155Y011055D01*
X020155Y010685D01*
X019899Y010685D02*
X019899Y011195D01*
X019827Y011193D01*
X019727Y011193D01*
X019644Y010685D02*
X018974Y010685D01*
X018877Y010782D01*
X018877Y010073D02*
X018027Y010073D01*
X019032Y009382D02*
X019177Y009477D01*
X020411Y010311D01*
X020411Y010685D01*
X021367Y009527D02*
X021667Y009827D01*
X021706Y009827D01*
X021754Y009876D01*
X022301Y009876D02*
X022557Y009876D01*
X022574Y009874D01*
X022591Y009870D01*
X022607Y009863D01*
X022621Y009853D01*
X022634Y009840D01*
X022644Y009826D01*
X022651Y009810D01*
X022655Y009793D01*
X022657Y009776D01*
X021367Y009527D02*
X021367Y009277D01*
X021101Y009011D01*
X021027Y009011D01*
X021027Y009454D02*
X020604Y009454D01*
X020577Y009452D01*
X020550Y009446D01*
X020524Y009437D01*
X020500Y009423D01*
X020478Y009407D01*
X020458Y009387D01*
X020442Y009365D01*
X020428Y009341D01*
X020419Y009315D01*
X020413Y009288D01*
X020411Y009261D01*
X020411Y008953D01*
X020155Y008953D02*
X020155Y008549D01*
X020157Y008533D01*
X020162Y008518D01*
X020171Y008504D01*
X020182Y008493D01*
X020196Y008484D01*
X020211Y008479D01*
X020227Y008477D01*
X020927Y008477D01*
X021014Y008564D01*
X021027Y008564D01*
X022527Y008498D02*
X022606Y008577D01*
X022527Y008498D02*
X022527Y008477D01*
X024026Y008307D02*
X025147Y008307D01*
X025227Y008227D01*
X025354Y008227D01*
X025801Y008227D02*
X025897Y008227D01*
X025977Y008307D01*
X028202Y008307D01*
X028502Y007977D01*
X029903Y007977D01*
X029921Y007959D01*
X028677Y008277D02*
X028477Y008477D01*
X028640Y008477D01*
X028871Y008709D01*
X025804Y008224D02*
X025801Y007801D01*
X025804Y008224D02*
X025801Y008227D01*
X024026Y008308D02*
X023952Y008312D01*
X023878Y008321D01*
X023805Y008333D01*
X023732Y008349D01*
X023661Y008369D01*
X023590Y008393D01*
X023521Y008420D01*
X023454Y008451D01*
X023388Y008485D01*
X023324Y008523D01*
X023262Y008564D01*
X023202Y008608D01*
X023145Y008655D01*
X023090Y008706D01*
X023038Y008759D01*
X022989Y008814D01*
X022942Y008872D01*
X022899Y008933D01*
X022859Y008996D01*
X022823Y009060D01*
X022790Y009127D01*
X022760Y009195D01*
X022734Y009264D01*
X022712Y009335D01*
X022693Y009407D01*
X022678Y009480D01*
X022668Y009554D01*
X022660Y009627D01*
X022657Y009702D01*
X022658Y009776D01*
X019032Y009382D02*
X018877Y009382D01*
X022427Y006177D02*
X022427Y005510D01*
X022151Y004654D02*
X022053Y004654D01*
X022151Y004654D02*
X022527Y004277D01*
X023177Y004277D01*
X024377Y004277D01*
X024429Y004329D01*
X024454Y004329D01*
X022304Y004101D02*
X022304Y003939D01*
X022304Y004101D02*
X022177Y004227D01*
X020777Y004227D01*
X020626Y004378D01*
X020626Y004679D01*
X028277Y005977D02*
X028277Y006709D01*
X028871Y006709D01*
D44*
X018027Y010782D02*
X017982Y010782D01*
D45*
X017944Y010728D01*
X017903Y010676D01*
X017859Y010625D01*
X017812Y010578D01*
X017764Y010532D01*
X017712Y010490D01*
X017659Y010450D01*
X017604Y010413D01*
X017547Y010379D01*
X017488Y010348D01*
X017927Y009977D02*
X018027Y010077D01*
X018023Y010077D01*
X018027Y010073D01*
X017927Y009977D02*
X011327Y009977D01*
X011377Y009627D02*
X017627Y009627D01*
X017877Y009377D01*
X018023Y009377D01*
X018027Y009382D01*
X011377Y009627D02*
X011340Y009625D01*
X011303Y009620D01*
X011266Y009611D01*
X011231Y009598D01*
X011197Y009582D01*
X011165Y009563D01*
X011135Y009541D01*
X011108Y009515D01*
X011082Y009488D01*
X011060Y009458D01*
X011041Y009426D01*
X011025Y009392D01*
X011012Y009357D01*
X011003Y009320D01*
X010998Y009283D01*
X010996Y009246D01*
X010996Y006285D01*
X011373Y005909D01*
X010646Y004858D02*
X011196Y004309D01*
X010646Y004858D02*
X010646Y009296D01*
X010648Y009347D01*
X010654Y009397D01*
X010663Y009448D01*
X010676Y009497D01*
X010693Y009545D01*
X010713Y009591D01*
X010737Y009637D01*
X010764Y009680D01*
X010795Y009721D01*
X010828Y009759D01*
X010864Y009795D01*
X010902Y009828D01*
X010943Y009859D01*
X010986Y009886D01*
X011032Y009910D01*
X011078Y009930D01*
X011126Y009947D01*
X011175Y009960D01*
X011226Y009969D01*
X011276Y009975D01*
X011327Y009977D01*
X027727Y005227D02*
X027743Y005212D01*
X028239Y005212D01*
X027967Y004838D02*
X027727Y005077D01*
X027727Y005127D01*
X027727Y005227D01*
X027967Y004838D02*
X028239Y004838D01*
D46*
X029778Y004827D02*
X029807Y004885D01*
X029833Y004945D01*
X029856Y005006D01*
X029877Y005068D01*
X029895Y005131D01*
X029910Y005194D01*
X029922Y005258D01*
X029877Y006153D02*
X029921Y006159D01*
X029897Y006159D02*
X029877Y006153D01*
X029927Y007053D02*
X029921Y007059D01*
X029896Y007059D01*
X029627Y007327D01*
X029671Y007759D02*
X029871Y007959D01*
X029921Y007959D01*
X023119Y007450D02*
X023077Y007450D01*
X023077Y007500D01*
X020427Y007707D02*
X020120Y007707D01*
X018777Y007703D02*
X018777Y006802D01*
X018577Y006602D01*
X018577Y005877D01*
X018416Y005716D01*
X018153Y005716D01*
X017677Y005727D02*
X017677Y006027D01*
X017866Y006216D01*
X018153Y006216D01*
X017702Y006352D02*
X017477Y006127D01*
X017477Y005827D01*
X016994Y005344D01*
X016994Y004951D01*
X017354Y004951D02*
X017354Y005404D01*
X017677Y005727D01*
X017154Y005907D02*
X017054Y006007D01*
X017054Y006238D01*
X017702Y006352D02*
X017702Y007027D01*
X017704Y007053D01*
X017709Y007079D01*
X017717Y007104D01*
X017729Y007127D01*
X017743Y007149D01*
X017761Y007168D01*
X017780Y007186D01*
X017802Y007200D01*
X017825Y007212D01*
X017850Y007220D01*
X017876Y007225D01*
X017902Y007227D01*
X018164Y007227D01*
X018153Y007216D01*
X018164Y007227D02*
X018377Y007227D01*
X018577Y007427D02*
X018577Y006877D01*
X018427Y006727D01*
X018164Y006727D01*
X018153Y006716D01*
X018577Y007427D02*
X018320Y007685D01*
X018320Y007707D01*
X018102Y008052D02*
X017852Y007752D01*
X017873Y007731D01*
X017873Y007707D01*
X017852Y007752D02*
X017577Y007477D01*
X017427Y007477D01*
X018102Y008052D02*
X018127Y008032D01*
X018773Y007707D02*
X018777Y007703D01*
X020216Y006216D02*
X020240Y006216D01*
X019737Y004805D02*
X019737Y004443D01*
X019343Y004601D02*
X019345Y004545D01*
X019351Y004489D01*
X019361Y004434D01*
X019375Y004380D01*
X019392Y004327D01*
X019414Y004275D01*
X019439Y004225D01*
X019467Y004177D01*
X019499Y004131D01*
X019534Y004088D01*
X019573Y004047D01*
X019614Y004008D01*
X019657Y003973D01*
X019703Y003941D01*
X019751Y003913D01*
X019801Y003888D01*
X019853Y003866D01*
X019906Y003849D01*
X019960Y003835D01*
X020015Y003825D01*
X020071Y003819D01*
X020127Y003817D01*
X021487Y003817D01*
X021776Y003529D01*
X021858Y003529D01*
X021846Y003927D02*
X021858Y003939D01*
X021846Y003927D02*
X021677Y003927D01*
X021602Y004002D01*
X020277Y004002D01*
X020277Y004003D02*
X020234Y004000D01*
X020191Y004001D01*
X020148Y004006D01*
X020106Y004015D01*
X020065Y004027D01*
X020025Y004043D01*
X019987Y004063D01*
X019950Y004085D01*
X019916Y004111D01*
X019883Y004139D01*
X019854Y004171D01*
X019827Y004204D01*
X019804Y004240D01*
X019783Y004278D01*
X019766Y004318D01*
X019753Y004359D01*
X019743Y004400D01*
X019737Y004443D01*
X019343Y004601D02*
X019343Y004805D01*
X018807Y004312D02*
X018762Y004312D01*
X018677Y004227D01*
X017652Y004227D01*
X017627Y004202D01*
X017627Y004277D01*
X017400Y004505D01*
X017354Y004505D01*
X017354Y004501D01*
X017352Y004152D02*
X016994Y004152D01*
X016994Y004505D01*
X016994Y004152D02*
X016994Y003808D01*
X017354Y003808D02*
X017408Y003808D01*
X017627Y004027D01*
X017627Y004202D01*
X018247Y003927D02*
X018277Y003957D01*
X018807Y003957D01*
X017354Y003362D02*
X017177Y003362D01*
X016994Y003362D01*
X017177Y003362D02*
X017177Y003127D01*
X015562Y004234D02*
X015112Y004684D01*
X014585Y004684D01*
X014585Y004324D02*
X014927Y004324D01*
X014977Y004374D01*
X015084Y004007D02*
X014647Y004007D01*
X014624Y003984D01*
X014605Y003984D01*
X014585Y003964D01*
X014138Y003964D02*
X014138Y004324D01*
X014585Y005044D02*
X015552Y005044D01*
X015562Y005034D01*
X014717Y005734D02*
X014871Y006121D01*
X011373Y005909D02*
X011234Y005909D01*
X010972Y005647D01*
X011373Y004309D02*
X011377Y004304D01*
X011377Y003977D01*
X010927Y003977D01*
X015084Y004007D02*
X015140Y004014D01*
X022477Y005027D02*
X022527Y005077D01*
X023627Y003677D02*
X023625Y003654D01*
X023620Y003631D01*
X023611Y003609D01*
X023598Y003589D01*
X023583Y003571D01*
X023565Y003556D01*
X023545Y003543D01*
X023523Y003534D01*
X023500Y003529D01*
X023477Y003527D01*
X023215Y003527D01*
X023215Y003528D02*
X023214Y003528D01*
X023214Y003529D01*
X023214Y003529D01*
D47*
X017054Y006997D03*
X017054Y007247D03*
X017054Y007497D03*
D48*
X013727Y010387D02*
X010607Y010387D01*
X023367Y004849D02*
X023368Y004814D01*
D49*
X017354Y004651D02*
X017277Y004727D01*
X015868Y004727D01*
X015562Y005034D01*
X015862Y004580D02*
X015562Y004234D01*
X015862Y004580D02*
X016994Y004580D01*
X016994Y004505D01*
X017354Y004505D02*
X017354Y004651D01*
D50*
X018942Y004805D02*
X018942Y005142D01*
X018941Y005142D02*
X018943Y005168D01*
X018949Y005194D01*
X018958Y005219D01*
X018971Y005243D01*
X018986Y005264D01*
X019005Y005283D01*
X019026Y005298D01*
X019050Y005311D01*
X019075Y005320D01*
X019101Y005326D01*
X019127Y005328D01*
X019127Y005327D02*
X019717Y005327D01*
X019717Y006977D01*
X019719Y007006D01*
X019724Y007034D01*
X019733Y007062D01*
X019744Y007088D01*
X019759Y007113D01*
X019777Y007135D01*
X019798Y007156D01*
X019820Y007174D01*
X019845Y007189D01*
X019871Y007200D01*
X019899Y007209D01*
X019927Y007214D01*
X019956Y007216D01*
X020240Y006716D02*
X020616Y006716D01*
X021227Y007327D01*
X021577Y007327D01*
X021743Y007443D01*
X021770Y007493D01*
X022577Y007327D02*
X022750Y007500D01*
X023077Y007500D01*
X023722Y007500D01*
X024127Y007977D02*
X024157Y007975D01*
X024187Y007970D01*
X024216Y007961D01*
X024243Y007948D01*
X024269Y007933D01*
X024293Y007914D01*
X024314Y007893D01*
X024333Y007869D01*
X024348Y007843D01*
X024361Y007816D01*
X024370Y007787D01*
X024375Y007757D01*
X024377Y007727D01*
X024377Y007506D01*
X024376Y007504D01*
X024375Y007502D01*
X024372Y007501D01*
X024127Y007977D02*
X023727Y007977D01*
X023202Y008102D02*
X022606Y008577D01*
X022377Y008759D01*
X022121Y008759D01*
X023202Y008102D02*
X023256Y008075D01*
X023312Y008051D01*
X023369Y008030D01*
X023427Y008013D01*
X023486Y007999D01*
X023546Y007988D01*
X023606Y007981D01*
X023667Y007977D01*
X023727Y007977D01*
X022577Y007327D02*
X022577Y006977D01*
X022377Y006777D01*
X021327Y006777D01*
X020827Y006277D01*
X020827Y005927D01*
X020616Y005716D01*
X020240Y005716D01*
X020177Y005327D02*
X019717Y005327D01*
X020139Y005289D02*
X020177Y005327D01*
X021527Y005327D01*
X021777Y005077D01*
X022527Y005077D01*
X022811Y005077D01*
X023343Y005593D01*
X023383Y005583D01*
X023383Y005677D01*
X024227Y005677D02*
X023204Y004654D01*
X023208Y004654D01*
X023368Y004814D01*
X023204Y004654D02*
X022801Y004654D01*
X022091Y004763D02*
X022053Y004654D01*
X022091Y004763D02*
X021777Y005077D01*
X021770Y006095D02*
X022427Y006045D01*
X022427Y006177D01*
X022927Y006677D01*
X023147Y006458D01*
X023147Y006400D01*
X022927Y006677D02*
X023119Y006869D01*
X023119Y007003D01*
X022427Y006227D02*
X022427Y006177D01*
X024227Y005677D02*
X024672Y005677D01*
X025132Y005720D02*
X025175Y005677D01*
X025132Y005720D02*
X025132Y006477D01*
X025115Y006477D01*
X024638Y006954D01*
X024372Y006954D01*
X026477Y007547D02*
X026508Y007547D01*
X026527Y007527D01*
X026527Y005591D01*
X026464Y005677D01*
X026472Y005586D01*
X027216Y005586D01*
X027727Y005127D02*
X027727Y006127D01*
X027777Y006327D01*
X027808Y006327D01*
X027727Y006127D02*
X027727Y007227D01*
X027890Y007390D01*
X027890Y007562D01*
X028237Y007722D01*
X026492Y007562D02*
X026477Y007547D01*
X026464Y005677D02*
X026414Y005564D01*
X026477Y005627D01*
X023598Y005044D02*
X023580Y005026D01*
X023582Y005027D01*
X020139Y004805D02*
X020139Y005289D01*
X011373Y005909D02*
X011296Y005909D01*
X011373Y004309D02*
X011196Y004309D01*
X005561Y015731D02*
X005561Y016188D01*
D51*
X019956Y007216D02*
X020240Y007216D01*
D52*
X024504Y004836D02*
X024504Y003820D01*
X024504Y004279D01*
X024454Y004329D01*
X024951Y004836D02*
X025464Y004836D01*
X025544Y004755D01*
X023213Y004241D02*
X023213Y003939D01*
X023213Y004241D02*
X023177Y004277D01*
D53*
X005561Y016188D03*
D54*
X022427Y006177D03*
X022427Y005877D03*
X023580Y005026D03*
X023368Y004814D03*
X028237Y007407D03*
X028237Y007717D03*
D55*
X023580Y005026D02*
X023368Y004814D01*
X022427Y005877D02*
X022427Y006177D01*
X022317Y008287D02*
X022387Y008337D01*
X022527Y008477D01*
D56*
X021367Y010777D03*
D57*
X017477Y009227D03*
X016214Y008604D03*
X019694Y008394D03*
D58*
X019644Y008444D01*
X019644Y008953D01*
X017477Y009227D02*
X017377Y009127D01*
X017158Y009127D01*
X017151Y009201D01*
X016627Y008527D02*
X016291Y008527D01*
X016214Y008604D01*
X016627Y008527D02*
X016777Y008377D01*
X016777Y008344D01*
D59*
X025175Y005677D02*
X025475Y005377D01*
X025477Y005377D01*
X026018Y004837D01*
X026018Y004738D01*
X026465Y004738D02*
X026988Y004738D01*
X027088Y004838D01*
X027216Y004838D01*
X026465Y004738D02*
X026465Y004327D01*
D60*
X013977Y008322D02*
X013977Y009022D01*
D61*
X028237Y007722D02*
X028237Y007407D01*
M02*
