G75*
G70*
%OFA0B0*%
%FSLAX24Y24*%
%IPPOS*%
%LPD*%
%AMOC8*
5,1,8,0,0,1.08239X$1,22.5*
%
%ADD10C,0.0060*%
%ADD11C,0.0070*%
%ADD12C,0.0050*%
%ADD13C,0.0080*%
%ADD14C,0.0000*%
%ADD15C,0.0040*%
%ADD16C,0.0100*%
%ADD17C,0.0160*%
%ADD18C,0.0039*%
%ADD19C,0.0020*%
%ADD20C,0.0140*%
%ADD21C,0.0400*%
%ADD22C,0.0200*%
%ADD23C,0.0300*%
%ADD24C,0.0079*%
%ADD25R,0.0079X0.0800*%
%ADD26C,0.0120*%
%ADD27C,0.0010*%
%ADD28C,0.0030*%
D10*
X010580Y005079D02*
X010921Y005079D01*
X010921Y004909D01*
X010864Y004852D01*
X010750Y004852D01*
X010694Y004909D01*
X010694Y005079D01*
X010694Y005220D02*
X010637Y005220D01*
X010580Y005277D01*
X010580Y005390D01*
X010637Y005447D01*
X010750Y005390D02*
X010750Y005277D01*
X010694Y005220D01*
X010864Y005220D02*
X010921Y005277D01*
X010921Y005390D01*
X010864Y005447D01*
X010807Y005447D01*
X010750Y005390D01*
X010750Y005589D02*
X010750Y005816D01*
X010637Y005702D02*
X010864Y005702D01*
X010750Y004711D02*
X010750Y004484D01*
X016217Y008517D02*
X016537Y008517D01*
X016217Y008517D02*
X016217Y008987D01*
X016617Y009037D02*
X016937Y009037D01*
X017337Y008987D02*
X017337Y008517D01*
X017017Y008517D01*
X017741Y008406D02*
X018314Y008406D01*
X018314Y009647D01*
X017741Y009647D01*
X017741Y008406D01*
X018591Y008406D02*
X019164Y008406D01*
X019164Y009647D01*
X018591Y009647D01*
X018591Y008406D01*
X018487Y007396D02*
X019907Y007396D01*
X019907Y005536D02*
X018487Y005536D01*
X021867Y005337D02*
X021867Y004867D01*
X022267Y004817D02*
X022587Y004817D01*
X022987Y004867D02*
X022987Y005337D01*
X022667Y005337D01*
X022187Y005337D02*
X021867Y005337D01*
X022948Y006154D02*
X022948Y006646D01*
X023893Y006646D01*
X023893Y006154D01*
X022948Y006154D01*
X023476Y006754D02*
X023968Y006754D01*
X023968Y007699D01*
X023476Y007699D01*
X023476Y006754D01*
X024126Y006755D02*
X024618Y006755D01*
X024618Y007700D01*
X024126Y007700D01*
X024126Y006755D01*
X024848Y006763D02*
X024848Y006190D01*
X026089Y006190D01*
X026089Y006763D01*
X024848Y006763D01*
X024224Y005677D02*
X023831Y005835D01*
X023831Y005520D01*
X024224Y005677D01*
X025623Y005677D02*
X026016Y005520D01*
X026016Y005835D01*
X025623Y005677D01*
X026833Y006041D02*
X026833Y006614D01*
X028075Y006614D01*
X028075Y006041D01*
X026833Y006041D01*
X025200Y004575D02*
X025200Y004083D01*
X024255Y004083D01*
X024255Y004575D01*
X025200Y004575D01*
X029283Y005896D02*
X029340Y005839D01*
X029453Y005839D01*
X029510Y005896D01*
X029510Y006122D02*
X029453Y006179D01*
X029340Y006179D01*
X029283Y006122D01*
X029283Y005896D01*
X029283Y007189D02*
X029453Y007189D01*
X029510Y007246D01*
X029510Y007472D01*
X029453Y007529D01*
X029283Y007529D01*
X029283Y007189D01*
X029340Y007789D02*
X029283Y007846D01*
X029340Y007789D02*
X029453Y007789D01*
X029510Y007846D01*
X029510Y007902D01*
X029453Y007959D01*
X029340Y007959D01*
X029283Y008016D01*
X029283Y008072D01*
X029340Y008129D01*
X029453Y008129D01*
X029510Y008072D01*
X022500Y009630D02*
X021555Y009630D01*
X021555Y010122D01*
X022500Y010122D01*
X022500Y009630D01*
X022500Y010231D02*
X021555Y010231D01*
X021555Y010723D01*
X022500Y010723D01*
X022500Y010231D01*
X022500Y010831D02*
X021555Y010831D01*
X021555Y011323D01*
X022500Y011323D01*
X022500Y010831D01*
X019164Y011047D02*
X019164Y009806D01*
X018591Y009806D01*
X018591Y011047D01*
X019164Y011047D01*
X018313Y011049D02*
X017740Y011049D01*
X017740Y009807D01*
X018313Y009807D01*
X018313Y011049D01*
X019847Y013243D02*
X020047Y013444D01*
X020047Y013494D01*
X019997Y013544D01*
X019897Y013544D01*
X019847Y013494D01*
X019847Y013243D02*
X020047Y013243D01*
X020178Y013293D02*
X020378Y013494D01*
X020378Y013293D01*
X020328Y013243D01*
X020228Y013243D01*
X020178Y013293D01*
X020178Y013494D01*
X020228Y013544D01*
X020328Y013544D01*
X020378Y013494D01*
X020510Y013494D02*
X020560Y013544D01*
X020660Y013544D01*
X020710Y013494D01*
X020710Y013444D01*
X020510Y013243D01*
X020710Y013243D01*
X020841Y013293D02*
X020891Y013243D01*
X020991Y013243D01*
X021041Y013293D01*
X021041Y013344D01*
X020991Y013394D01*
X020941Y013394D01*
X020991Y013394D02*
X021041Y013444D01*
X021041Y013494D01*
X020991Y013544D01*
X020891Y013544D01*
X020841Y013494D01*
X021173Y013243D02*
X021373Y013544D01*
X021504Y013444D02*
X021604Y013544D01*
X021604Y013243D01*
X021504Y013243D02*
X021704Y013243D01*
X021836Y013293D02*
X022036Y013494D01*
X022036Y013293D01*
X021986Y013243D01*
X021886Y013243D01*
X021836Y013293D01*
X021836Y013494D01*
X021886Y013544D01*
X021986Y013544D01*
X022036Y013494D01*
X021456Y013742D02*
X021256Y013742D01*
X021456Y013942D01*
X021456Y013993D01*
X021406Y014043D01*
X021306Y014043D01*
X021256Y013993D01*
X021140Y013792D02*
X021140Y013742D01*
X021090Y013742D01*
X021090Y013792D01*
X021140Y013792D01*
X020959Y013792D02*
X020909Y013742D01*
X020808Y013742D01*
X020758Y013792D01*
X020627Y013842D02*
X020627Y014043D01*
X020758Y013993D02*
X020808Y014043D01*
X020909Y014043D01*
X020959Y013993D01*
X020959Y013942D01*
X020909Y013892D01*
X020959Y013842D01*
X020959Y013792D01*
X020909Y013892D02*
X020858Y013892D01*
X020627Y013842D02*
X020527Y013742D01*
X020427Y013842D01*
X020427Y014043D01*
X020402Y014214D02*
X020262Y014354D01*
X020382Y014534D01*
X020415Y014558D02*
X020748Y014558D01*
X020782Y014614D02*
X020632Y014364D01*
X020582Y014364D01*
X020432Y014264D01*
X020332Y014364D01*
X020432Y014514D01*
X020332Y014764D01*
X020132Y014814D01*
X020132Y014964D01*
X020332Y014964D01*
X020432Y015214D01*
X020282Y015414D01*
X020432Y015514D01*
X020582Y015364D01*
X020782Y015464D01*
X020832Y015664D01*
X020982Y015664D01*
X021032Y015464D01*
X021232Y015364D01*
X021432Y015514D01*
X021532Y015414D01*
X021432Y015214D01*
X021532Y014964D01*
X021732Y014964D01*
X021732Y014814D01*
X021482Y014764D01*
X021432Y014514D01*
X021532Y014364D01*
X021432Y014264D01*
X021282Y014364D01*
X021182Y014314D01*
X021082Y014614D01*
X021232Y014814D01*
X021182Y015064D01*
X020982Y015164D01*
X020782Y015164D01*
X020632Y015014D01*
X020632Y014714D01*
X020782Y014614D01*
X020778Y014616D02*
X020391Y014616D01*
X020368Y014675D02*
X020691Y014675D01*
X020632Y014733D02*
X020344Y014733D01*
X020302Y014734D02*
X020082Y014774D01*
X020082Y014974D01*
X020312Y015014D01*
X020357Y015026D02*
X020644Y015026D01*
X020632Y014967D02*
X020334Y014967D01*
X020380Y015084D02*
X020703Y015084D01*
X020761Y015143D02*
X020404Y015143D01*
X020392Y015204D02*
X020262Y015394D01*
X020402Y015534D01*
X020592Y015404D01*
X020608Y015377D02*
X021206Y015377D01*
X021249Y015377D02*
X021514Y015377D01*
X021511Y015435D02*
X021327Y015435D01*
X021242Y015404D02*
X021442Y015534D01*
X021582Y015394D01*
X021442Y015204D01*
X021437Y015201D02*
X020427Y015201D01*
X020398Y015260D02*
X021455Y015260D01*
X021484Y015318D02*
X020354Y015318D01*
X020310Y015377D02*
X020569Y015377D01*
X020511Y015435D02*
X020314Y015435D01*
X020402Y015494D02*
X020452Y015494D01*
X020725Y015435D02*
X021089Y015435D01*
X021062Y015474D02*
X021012Y015714D01*
X020822Y015714D01*
X020772Y015474D01*
X020790Y015494D02*
X021025Y015494D01*
X021010Y015552D02*
X020804Y015552D01*
X020819Y015611D02*
X020995Y015611D01*
X021405Y015494D02*
X021452Y015494D01*
X021461Y015143D02*
X021024Y015143D01*
X021141Y015084D02*
X021484Y015084D01*
X021507Y015026D02*
X021190Y015026D01*
X021201Y014967D02*
X021531Y014967D01*
X021532Y015014D02*
X021752Y014974D01*
X021752Y014774D01*
X021532Y014734D01*
X021476Y014733D02*
X021172Y014733D01*
X021128Y014675D02*
X021464Y014675D01*
X021453Y014616D02*
X021084Y014616D01*
X021042Y014634D02*
X021182Y014294D01*
X021262Y014334D01*
X021442Y014214D01*
X021582Y014354D01*
X021452Y014534D01*
X021441Y014558D02*
X021101Y014558D01*
X021120Y014499D02*
X021442Y014499D01*
X021481Y014441D02*
X021140Y014441D01*
X021159Y014382D02*
X021520Y014382D01*
X021492Y014324D02*
X021342Y014324D01*
X021430Y014265D02*
X021434Y014265D01*
X021202Y014324D02*
X021179Y014324D01*
X020802Y014634D02*
X020652Y014294D01*
X020582Y014334D01*
X020402Y014214D01*
X020431Y014265D02*
X020434Y014265D01*
X020372Y014324D02*
X020522Y014324D01*
X020643Y014382D02*
X020344Y014382D01*
X020383Y014441D02*
X020678Y014441D01*
X020713Y014499D02*
X020422Y014499D01*
X020220Y014792D02*
X020632Y014792D01*
X020632Y014850D02*
X020132Y014850D01*
X020132Y014909D02*
X020632Y014909D01*
X020304Y014718D02*
X020319Y014671D01*
X020337Y014625D01*
X020359Y014581D01*
X020384Y014539D01*
X020595Y015400D02*
X020637Y015423D01*
X020680Y015442D01*
X020725Y015459D01*
X020771Y015471D01*
X020802Y014634D02*
X020774Y014650D01*
X020747Y014669D01*
X020724Y014691D01*
X020703Y014716D01*
X020685Y014744D01*
X020670Y014773D01*
X020660Y014804D01*
X020652Y014835D01*
X020649Y014868D01*
X020650Y014900D01*
X020654Y014933D01*
X020663Y014964D01*
X020675Y014994D01*
X020690Y015023D01*
X020709Y015050D01*
X020731Y015074D01*
X020755Y015095D01*
X020782Y015114D01*
X020811Y015129D01*
X020842Y015140D01*
X020873Y015148D01*
X020906Y015152D01*
X020938Y015152D01*
X020971Y015148D01*
X021002Y015140D01*
X021033Y015129D01*
X021062Y015114D01*
X021089Y015095D01*
X021113Y015074D01*
X021135Y015050D01*
X021154Y015023D01*
X021169Y014994D01*
X021181Y014964D01*
X021190Y014933D01*
X021194Y014900D01*
X021195Y014868D01*
X021192Y014835D01*
X021184Y014804D01*
X021174Y014773D01*
X021159Y014744D01*
X021141Y014716D01*
X021120Y014691D01*
X021097Y014669D01*
X021070Y014650D01*
X021042Y014634D01*
X021216Y014792D02*
X021622Y014792D01*
X021732Y014850D02*
X021225Y014850D01*
X021213Y014909D02*
X021732Y014909D01*
X021534Y015015D02*
X021522Y015055D01*
X021507Y015094D01*
X021489Y015132D01*
X021469Y015168D01*
X021447Y015203D01*
X021242Y015404D02*
X021199Y015427D01*
X021155Y015447D01*
X021109Y015463D01*
X021063Y015475D01*
X021531Y014735D02*
X021521Y014693D01*
X021508Y014652D01*
X021492Y014612D01*
X021473Y014573D01*
X021451Y014536D01*
X020310Y015016D02*
X020321Y015056D01*
X020335Y015095D01*
X020351Y015132D01*
X020370Y015169D01*
X020391Y015204D01*
X014345Y014356D02*
X012472Y014359D01*
X013044Y014594D02*
X013276Y014611D01*
X013545Y014628D01*
X013378Y014715D01*
X013360Y014752D01*
X013340Y014670D01*
X013427Y014653D01*
X013309Y014649D01*
X013285Y014643D02*
X013320Y014814D01*
X013354Y014816D01*
X013394Y014749D01*
X013458Y014696D01*
X013540Y014666D01*
X013575Y014643D01*
X013574Y014596D01*
X013525Y014581D01*
X013427Y014585D01*
X013375Y014603D01*
X013324Y014600D01*
X013293Y014581D01*
X013216Y014582D01*
X013134Y014584D01*
X013093Y014584D01*
X013044Y014594D01*
X013058Y014643D02*
X013285Y014643D01*
X013320Y014853D02*
X013100Y014868D01*
X013105Y014896D01*
X013330Y014876D01*
X013334Y014933D01*
X013102Y014937D01*
X012903Y014954D02*
X012931Y015129D01*
X013353Y014980D02*
X013380Y015121D01*
X013439Y015116D02*
X013455Y015104D01*
X013439Y015116D02*
X013395Y015054D01*
X013576Y014932D02*
X013619Y014935D01*
X013715Y014922D01*
X013779Y014952D01*
X013790Y015031D01*
X013775Y015107D01*
X013941Y015109D01*
X013908Y015027D01*
X013829Y015068D01*
X013896Y015062D01*
X013896Y014981D01*
X013805Y014780D01*
X013643Y014907D01*
X013744Y014894D01*
X013799Y014835D01*
X013862Y015003D01*
X013831Y015031D01*
X013780Y014899D01*
X013715Y014823D02*
X013643Y014861D01*
X013557Y014894D01*
X013576Y014932D01*
X013715Y014823D02*
X013780Y014755D01*
X013780Y014633D01*
X013998Y015112D01*
X013839Y015196D02*
X013957Y016046D01*
X014187Y015152D02*
X014320Y014356D01*
X014345Y014356D01*
X014340Y014365D02*
X014223Y015135D01*
X014048Y014827D02*
X014019Y014728D01*
X014061Y014721D01*
X014056Y014774D01*
X014065Y014522D02*
X013957Y014517D01*
X013889Y014371D01*
X013951Y014390D02*
X013985Y014467D01*
X014042Y014471D01*
X014018Y014431D01*
X014076Y014399D02*
X013951Y014390D01*
X014076Y014399D02*
X014065Y014522D01*
X013705Y014443D02*
X013674Y014374D01*
X013614Y014369D02*
X013705Y014443D01*
X013373Y014388D02*
X013363Y014388D01*
X013341Y014380D02*
X013316Y014359D01*
X004032Y009185D02*
X004032Y008695D01*
D11*
X014972Y005144D02*
X014972Y004924D01*
X015027Y004869D01*
X015192Y004869D01*
X015192Y005199D01*
X015027Y005199D01*
X014972Y005144D01*
X015027Y004399D02*
X014972Y004344D01*
X015027Y004399D02*
X015137Y004399D01*
X015192Y004344D01*
X015192Y004124D01*
X015137Y004069D01*
X015027Y004069D01*
X014972Y004124D01*
X029270Y004584D02*
X029445Y004584D01*
X029503Y004642D01*
X029503Y004701D01*
X029445Y004759D01*
X029270Y004759D01*
X029445Y004759D02*
X029503Y004817D01*
X029503Y004876D01*
X029445Y004934D01*
X029270Y004934D01*
X029270Y004584D01*
D12*
X016366Y000927D02*
X001677Y000927D01*
X001623Y000929D01*
X001570Y000935D01*
X001518Y000944D01*
X001466Y000957D01*
X001415Y000974D01*
X001365Y000995D01*
X001318Y001019D01*
X001272Y001046D01*
X001228Y001077D01*
X001186Y001110D01*
X001147Y001147D01*
X001110Y001186D01*
X001077Y001228D01*
X001046Y001272D01*
X001019Y001318D01*
X000995Y001365D01*
X000974Y001415D01*
X000957Y001466D01*
X000944Y001518D01*
X000935Y001570D01*
X000929Y001623D01*
X000927Y001677D01*
X000927Y017896D01*
X000929Y017949D01*
X000935Y018003D01*
X000944Y018055D01*
X000958Y018107D01*
X000975Y018158D01*
X000995Y018207D01*
X001019Y018255D01*
X001046Y018301D01*
X001077Y018345D01*
X001111Y018386D01*
X001147Y018425D01*
X001186Y018462D01*
X001228Y018495D01*
X001272Y018526D01*
X001318Y018553D01*
X001366Y018577D01*
X001415Y018597D01*
X001466Y018614D01*
X001518Y018627D01*
X001570Y018637D01*
X001624Y018642D01*
X001677Y018644D01*
X031662Y018644D01*
X031663Y018644D02*
X031716Y018643D01*
X031770Y018637D01*
X031823Y018628D01*
X031875Y018615D01*
X031927Y018599D01*
X031977Y018578D01*
X032025Y018555D01*
X032072Y018528D01*
X032116Y018497D01*
X032158Y018464D01*
X032198Y018427D01*
X032235Y018388D01*
X032269Y018347D01*
X032301Y018303D01*
X032329Y018257D01*
X032353Y018209D01*
X032374Y018159D01*
X032392Y018108D01*
X032405Y018056D01*
X032415Y018003D01*
X032422Y017949D01*
X032424Y017895D01*
X032423Y017896D02*
X032423Y001677D01*
X032424Y001677D02*
X032422Y001624D01*
X032416Y001570D01*
X032406Y001517D01*
X032392Y001465D01*
X032374Y001414D01*
X032353Y001364D01*
X032329Y001316D01*
X032301Y001270D01*
X032270Y001226D01*
X032236Y001184D01*
X032199Y001145D01*
X032159Y001108D01*
X032117Y001075D01*
X032072Y001044D01*
X032025Y001017D01*
X031977Y000993D01*
X031927Y000973D01*
X031876Y000956D01*
X031823Y000943D01*
X031770Y000934D01*
X031716Y000929D01*
X031662Y000927D01*
X022658Y000927D01*
X022659Y000928D02*
X022658Y000956D01*
X022654Y000984D01*
X022647Y001011D01*
X022635Y001037D01*
X022621Y001062D01*
X022603Y001084D01*
X022583Y001104D01*
X022560Y001121D01*
X022535Y001135D01*
X022509Y001145D01*
X022482Y001152D01*
X022453Y001156D01*
X022453Y001155D02*
X022303Y001155D01*
X022275Y001151D01*
X022248Y001144D01*
X022222Y001133D01*
X022198Y001119D01*
X022176Y001102D01*
X022156Y001082D01*
X022139Y001060D01*
X022125Y001036D01*
X022114Y001010D01*
X022107Y000983D01*
X022103Y000955D01*
X022103Y000927D01*
X016916Y000927D01*
X016916Y000955D01*
X016912Y000983D01*
X016905Y001010D01*
X016894Y001036D01*
X016880Y001060D01*
X016863Y001082D01*
X016843Y001102D01*
X016821Y001119D01*
X016797Y001133D01*
X016771Y001144D01*
X016744Y001151D01*
X016716Y001155D01*
X016566Y001155D01*
X016538Y001151D01*
X016511Y001144D01*
X016485Y001133D01*
X016461Y001119D01*
X016439Y001102D01*
X016419Y001082D01*
X016402Y001060D01*
X016388Y001036D01*
X016377Y001010D01*
X016370Y000983D01*
X016366Y000955D01*
X016366Y000927D01*
X016566Y002077D02*
X016716Y002077D01*
X016744Y002081D01*
X016771Y002088D01*
X016797Y002099D01*
X016821Y002113D01*
X016843Y002130D01*
X016863Y002150D01*
X016880Y002172D01*
X016894Y002196D01*
X016905Y002222D01*
X016912Y002249D01*
X016916Y002277D01*
X016916Y002305D01*
X022103Y002305D01*
X022103Y002277D01*
X022107Y002249D01*
X022114Y002222D01*
X022125Y002196D01*
X022139Y002172D01*
X022156Y002150D01*
X022176Y002130D01*
X022198Y002113D01*
X022222Y002099D01*
X022248Y002088D01*
X022275Y002081D01*
X022303Y002077D01*
X022453Y002077D01*
X022482Y002081D01*
X022509Y002088D01*
X022535Y002098D01*
X022560Y002112D01*
X022583Y002129D01*
X022603Y002149D01*
X022621Y002171D01*
X022635Y002196D01*
X022647Y002222D01*
X022654Y002249D01*
X022658Y002277D01*
X022659Y002305D01*
X021818Y002959D02*
X016957Y002872D01*
X016927Y002874D01*
X016897Y002879D01*
X016868Y002888D01*
X016841Y002901D01*
X016815Y002916D01*
X016791Y002935D01*
X016770Y002956D01*
X016751Y002980D01*
X016736Y003006D01*
X016723Y003033D01*
X016714Y003062D01*
X016709Y003092D01*
X016707Y003122D01*
X016707Y004192D01*
X016038Y004192D01*
X016038Y004191D02*
X016015Y004192D01*
X015992Y004189D01*
X015969Y004183D01*
X015948Y004173D01*
X015928Y004161D01*
X015910Y004146D01*
X015895Y004129D01*
X015882Y004109D01*
X015872Y004088D01*
X015865Y004066D01*
X015862Y004043D01*
X015861Y004010D01*
X015856Y003977D01*
X015847Y003945D01*
X015836Y003914D01*
X015821Y003884D01*
X015803Y003856D01*
X015782Y003830D01*
X015759Y003806D01*
X015734Y003785D01*
X015706Y003766D01*
X015676Y003751D01*
X015645Y003739D01*
X015613Y003730D01*
X015580Y003724D01*
X015547Y003722D01*
X014886Y003722D01*
X014391Y004245D02*
X014391Y004324D01*
X014312Y004324D01*
X014391Y004324D02*
X014391Y004403D01*
X014391Y004605D02*
X014391Y004684D01*
X014312Y004684D01*
X014391Y004684D02*
X014391Y004763D01*
X013834Y005504D02*
X013784Y005466D01*
X013736Y005425D01*
X013691Y005381D01*
X013649Y005335D01*
X013609Y005286D01*
X013573Y005234D01*
X013540Y005181D01*
X013510Y005126D01*
X013483Y005069D01*
X013460Y005010D01*
X013441Y004950D01*
X013425Y004889D01*
X013413Y004828D01*
X013404Y004765D01*
X013400Y004702D01*
X013399Y004640D01*
X013402Y004577D01*
X013409Y004514D01*
X013420Y004452D01*
X013434Y004391D01*
X013452Y004331D01*
X013474Y004272D01*
X013499Y004214D01*
X013528Y004158D01*
X013560Y004104D01*
X013595Y004052D01*
X013633Y004002D01*
X013674Y003954D01*
X013719Y003909D01*
X013765Y003867D01*
X013814Y003828D01*
X013866Y003792D01*
X013919Y003759D01*
X013975Y003729D01*
X014032Y003703D01*
X014090Y003680D01*
X014150Y003661D01*
X014211Y003645D01*
X014273Y003633D01*
X014335Y003625D01*
X014398Y003621D01*
X014461Y003620D01*
X014524Y003624D01*
X014586Y003631D01*
X014648Y003642D01*
X014710Y003656D01*
X014770Y003674D01*
X014829Y003696D01*
X014886Y003722D01*
X014391Y004965D02*
X014391Y005044D01*
X014312Y005044D01*
X014391Y005044D02*
X014391Y005123D01*
X015422Y005682D02*
X015422Y006132D01*
X014322Y006132D01*
X014304Y006072D01*
X014282Y006013D01*
X014256Y005956D01*
X014227Y005900D01*
X014195Y005847D01*
X014159Y005795D01*
X014121Y005745D01*
X014080Y005698D01*
X014035Y005653D01*
X013989Y005612D01*
X013939Y005573D01*
X013888Y005537D01*
X013834Y005504D01*
X015572Y005504D02*
X015712Y005504D01*
X015735Y005500D01*
X015757Y005494D01*
X015778Y005485D01*
X015797Y005472D01*
X015815Y005457D01*
X015830Y005440D01*
X015842Y005421D01*
X015852Y005400D01*
X015858Y005378D01*
X015862Y005355D01*
X015862Y005332D01*
X015862Y005270D01*
X015861Y005247D01*
X015864Y005224D01*
X015870Y005202D01*
X015879Y005181D01*
X015891Y005161D01*
X015905Y005143D01*
X015922Y005127D01*
X015941Y005114D01*
X015962Y005104D01*
X015984Y005097D01*
X016007Y005093D01*
X016007Y005092D02*
X016707Y005092D01*
X016707Y007374D01*
X016703Y007407D01*
X016696Y007438D01*
X016686Y007469D01*
X016672Y007499D01*
X016655Y007526D01*
X016635Y007552D01*
X016612Y007575D01*
X016586Y007595D01*
X016559Y007613D01*
X016530Y007627D01*
X016499Y007638D01*
X016467Y007646D01*
X016435Y007649D01*
X016403Y007650D01*
X014008Y007650D01*
X013973Y007654D01*
X013938Y007663D01*
X013904Y007674D01*
X013872Y007689D01*
X013841Y007708D01*
X013813Y007730D01*
X013787Y007754D01*
X013764Y007781D01*
X013743Y007810D01*
X013726Y007842D01*
X013712Y007875D01*
X013702Y007909D01*
X013695Y007944D01*
X013692Y007979D01*
X013693Y008015D01*
X013693Y009159D01*
X013690Y009186D01*
X013683Y009213D01*
X013673Y009239D01*
X013659Y009263D01*
X013643Y009285D01*
X013623Y009305D01*
X013602Y009322D01*
X013578Y009336D01*
X013553Y009347D01*
X013526Y009354D01*
X013499Y009358D01*
X013471Y009359D01*
X011471Y009359D01*
X011441Y009357D01*
X011411Y009352D01*
X011382Y009343D01*
X011355Y009330D01*
X011329Y009315D01*
X011305Y009296D01*
X011284Y009275D01*
X011265Y009251D01*
X011250Y009225D01*
X011237Y009198D01*
X011228Y009169D01*
X011223Y009139D01*
X011221Y009109D01*
X011221Y007309D01*
X011223Y007279D01*
X011228Y007249D01*
X011237Y007220D01*
X011250Y007193D01*
X011265Y007167D01*
X011284Y007143D01*
X011305Y007122D01*
X011329Y007103D01*
X011355Y007088D01*
X011382Y007075D01*
X011411Y007066D01*
X011441Y007061D01*
X011471Y007059D01*
X011821Y007059D01*
X011851Y007057D01*
X011881Y007052D01*
X011910Y007043D01*
X011937Y007030D01*
X011963Y007015D01*
X011987Y006996D01*
X012008Y006975D01*
X012027Y006951D01*
X012042Y006925D01*
X012055Y006898D01*
X012064Y006869D01*
X012069Y006839D01*
X012071Y006809D01*
X012071Y003609D01*
X012069Y003579D01*
X012064Y003549D01*
X012055Y003520D01*
X012042Y003493D01*
X012027Y003467D01*
X012008Y003443D01*
X011987Y003422D01*
X011963Y003403D01*
X011937Y003388D01*
X011910Y003375D01*
X011881Y003366D01*
X011851Y003361D01*
X011821Y003359D01*
X010721Y003359D01*
X010687Y003361D01*
X010654Y003367D01*
X010622Y003376D01*
X010591Y003389D01*
X010561Y003405D01*
X010534Y003424D01*
X010509Y003447D01*
X010486Y003472D01*
X010467Y003499D01*
X010451Y003529D01*
X010438Y003560D01*
X010429Y003592D01*
X010423Y003625D01*
X010421Y003659D01*
X010421Y003914D01*
X009521Y003914D01*
X009521Y002579D01*
X009526Y002547D01*
X009534Y002516D01*
X009546Y002485D01*
X009561Y002457D01*
X009579Y002430D01*
X009599Y002405D01*
X009622Y002382D01*
X009647Y002361D01*
X009674Y002344D01*
X009703Y002329D01*
X009733Y002318D01*
X009765Y002310D01*
X009797Y002305D01*
X009829Y002303D01*
X009861Y002305D01*
X016366Y002305D01*
X016366Y002277D01*
X016370Y002249D01*
X016377Y002222D01*
X016388Y002196D01*
X016402Y002172D01*
X016419Y002150D01*
X016439Y002130D01*
X016461Y002113D01*
X016485Y002099D01*
X016511Y002088D01*
X016538Y002081D01*
X016566Y002077D01*
X018171Y003009D02*
X018171Y004509D01*
X020921Y004509D01*
X020921Y003059D01*
X018171Y003009D01*
X018171Y003013D02*
X018392Y003013D01*
X018171Y003061D02*
X020921Y003061D01*
X020921Y003110D02*
X018171Y003110D01*
X018171Y003158D02*
X020921Y003158D01*
X020921Y003207D02*
X018171Y003207D01*
X018171Y003255D02*
X020921Y003255D01*
X020921Y003304D02*
X018171Y003304D01*
X018171Y003352D02*
X020921Y003352D01*
X020921Y003401D02*
X018171Y003401D01*
X018171Y003449D02*
X020921Y003449D01*
X020921Y003498D02*
X018171Y003498D01*
X018171Y003546D02*
X020921Y003546D01*
X020921Y003595D02*
X018171Y003595D01*
X018171Y003643D02*
X020921Y003643D01*
X020921Y003692D02*
X018171Y003692D01*
X018171Y003740D02*
X020921Y003740D01*
X020921Y003789D02*
X018171Y003789D01*
X018171Y003837D02*
X020921Y003837D01*
X020921Y003886D02*
X018171Y003886D01*
X018171Y003934D02*
X020921Y003934D01*
X020921Y003983D02*
X018171Y003983D01*
X018171Y004031D02*
X020921Y004031D01*
X020921Y004080D02*
X018171Y004080D01*
X018171Y004128D02*
X020921Y004128D01*
X020921Y004177D02*
X018171Y004177D01*
X018171Y004225D02*
X020921Y004225D01*
X020921Y004274D02*
X018171Y004274D01*
X018171Y004322D02*
X020921Y004322D01*
X020921Y004371D02*
X018171Y004371D01*
X018171Y004419D02*
X020921Y004419D01*
X020921Y004468D02*
X018171Y004468D01*
X017433Y003614D02*
X017354Y003614D01*
X017354Y003536D01*
X017354Y003614D02*
X017275Y003614D01*
X017073Y003614D02*
X016994Y003614D01*
X016994Y003536D01*
X016994Y003614D02*
X016915Y003614D01*
X015572Y005505D02*
X015549Y005508D01*
X015527Y005515D01*
X015506Y005525D01*
X015486Y005538D01*
X015469Y005554D01*
X015453Y005571D01*
X015441Y005591D01*
X015432Y005613D01*
X015425Y005635D01*
X015422Y005658D01*
X015423Y005682D01*
X010421Y004702D02*
X009521Y004702D01*
X009521Y007909D01*
X010421Y008509D02*
X010421Y004702D01*
X007396Y003512D02*
X007376Y003563D01*
X007341Y003617D01*
X007272Y003669D01*
X007203Y003699D01*
X007098Y003722D01*
X006987Y003722D01*
X006879Y003708D01*
X006820Y003691D01*
X006789Y003659D01*
X006782Y003617D01*
X006791Y003594D01*
X006823Y003567D01*
X006834Y003541D01*
X006832Y003140D01*
X006828Y002892D01*
X006830Y002863D01*
X006837Y002818D01*
X006846Y002793D01*
X006866Y002777D01*
X006877Y002774D01*
X006886Y002773D02*
X006889Y002775D01*
X006910Y002777D01*
X006925Y002789D01*
X006937Y002811D01*
X006938Y003091D01*
X006953Y003111D01*
X006986Y003110D01*
X007016Y003116D01*
X007064Y003126D01*
X007074Y003132D01*
X007094Y003133D01*
X007208Y002875D01*
X007237Y002819D01*
X007290Y002763D01*
X007338Y002744D01*
X007367Y002746D01*
X007392Y002760D01*
X007403Y002784D01*
X007402Y002802D01*
X007288Y002985D01*
X007205Y003149D01*
X007225Y003190D01*
X007233Y003185D01*
X007311Y003236D01*
X007360Y003284D01*
X007385Y003331D01*
X007402Y003382D01*
X007402Y003474D01*
X007396Y003512D01*
X007290Y003474D02*
X007254Y003531D01*
X007207Y003570D01*
X007147Y003590D01*
X007079Y003599D01*
X007014Y003600D01*
X006962Y003589D01*
X006946Y003583D01*
X006938Y003442D01*
X006937Y003240D01*
X006956Y003235D02*
X007001Y003236D01*
X007140Y003272D01*
X007199Y003306D01*
X007251Y003341D01*
X007283Y003382D01*
X007297Y003440D01*
X007291Y003428D01*
X007290Y003474D01*
X006606Y003389D02*
X006611Y003207D01*
X006581Y003067D01*
X006532Y002952D01*
X006472Y002872D01*
X006382Y002804D01*
X006296Y002773D01*
X006270Y002786D01*
X006269Y002769D02*
X006199Y002774D01*
X006117Y002796D01*
X006038Y002842D01*
X005991Y002893D01*
X005938Y002973D01*
X005894Y003096D01*
X005881Y003209D01*
X005882Y003355D01*
X005929Y003524D01*
X005966Y003583D01*
X006037Y003645D01*
X006132Y003702D01*
X006221Y003726D01*
X006338Y003715D01*
X006433Y003671D01*
X006509Y003604D01*
X006557Y003530D01*
X006606Y003389D01*
X006495Y003341D02*
X006474Y003423D01*
X006435Y003495D01*
X006378Y003550D01*
X006303Y003581D01*
X006195Y003582D01*
X006094Y003540D01*
X006109Y003542D01*
X006077Y003516D01*
X006024Y003433D01*
X005992Y003323D01*
X005986Y003159D01*
X006010Y003073D01*
X006081Y002971D01*
X006163Y002913D01*
X006235Y002907D01*
X006288Y002908D01*
X006285Y002908D02*
X006339Y002929D01*
X006395Y002965D01*
X006436Y003010D01*
X006469Y003069D01*
X006494Y003159D01*
X006495Y003341D01*
X005746Y002899D02*
X005692Y002924D01*
X005610Y002928D01*
X005516Y002915D01*
X005423Y002915D01*
X005394Y002928D01*
X005393Y002959D01*
X005397Y003141D01*
X005395Y003341D01*
X005389Y003502D01*
X005372Y003675D01*
X005349Y003716D01*
X005317Y003726D01*
X005292Y003721D01*
X005272Y003708D01*
X005263Y003684D01*
X005261Y003656D01*
X005280Y003286D01*
X005276Y003031D01*
X005270Y002849D01*
X005279Y002821D01*
X005290Y002809D01*
X005311Y002796D01*
X005333Y002787D01*
X005364Y002782D01*
X005417Y002778D01*
X005710Y002805D01*
X005731Y002870D01*
X005419Y002893D01*
X005692Y002897D01*
X005681Y002831D01*
X005316Y002823D01*
X005307Y002899D01*
X005611Y002842D01*
X005336Y002865D01*
X005362Y002902D02*
X005361Y003549D01*
X005322Y002908D01*
X005299Y003533D01*
X005295Y003688D01*
X005340Y003680D01*
X005345Y003575D01*
X005340Y003439D01*
X005046Y003401D02*
X005061Y003311D01*
X005066Y003148D01*
X005010Y002962D01*
X004983Y002921D01*
X004892Y002845D01*
X004821Y002800D01*
X004748Y002776D01*
X004733Y002778D01*
X004742Y002775D02*
X004660Y002775D01*
X004627Y002781D01*
X004553Y002803D01*
X004482Y002848D01*
X004419Y002918D01*
X004379Y002992D01*
X004348Y003082D01*
X004334Y003158D01*
X004341Y003334D01*
X004362Y003434D01*
X004421Y003563D01*
X004489Y003643D01*
X004561Y003688D01*
X004663Y003728D01*
X004782Y003717D01*
X004877Y003676D01*
X004954Y003606D01*
X005012Y003506D01*
X005046Y003401D01*
X005002Y003424D02*
X005022Y003313D01*
X004987Y003297D01*
X004938Y003517D01*
X004909Y003504D01*
X004881Y003577D01*
X004673Y003654D01*
X004822Y003621D01*
X004619Y003603D01*
X004645Y003639D01*
X004498Y003546D01*
X004422Y003380D01*
X004527Y003541D01*
X004558Y003531D02*
X004506Y003467D01*
X004474Y003394D01*
X004451Y003300D01*
X004445Y003232D01*
X004444Y003149D01*
X004458Y003080D01*
X004514Y003001D01*
X004574Y002940D01*
X004645Y002910D01*
X004730Y002908D01*
X004773Y002920D01*
X004811Y002939D01*
X004855Y002965D01*
X004883Y002996D01*
X004903Y003021D02*
X004935Y003089D01*
X004948Y003147D01*
X004952Y003298D01*
X004943Y003368D01*
X004920Y003442D01*
X004874Y003510D01*
X004823Y003557D01*
X004767Y003575D01*
X004721Y003581D01*
X004661Y003582D01*
X004606Y003566D01*
X004558Y003531D01*
X004482Y003588D02*
X004665Y003688D01*
X004820Y003657D01*
X004935Y003565D01*
X005002Y003424D01*
X005025Y003286D02*
X004995Y003274D01*
X004983Y003097D01*
X004880Y002922D01*
X004900Y002902D02*
X005013Y003001D01*
X004762Y002814D01*
X004641Y002817D01*
X004511Y002867D01*
X004402Y003031D01*
X004362Y003187D01*
X004394Y003418D01*
X004482Y003588D01*
X004425Y003363D02*
X004407Y003177D01*
X004433Y003035D01*
X004537Y002894D01*
X004658Y002848D01*
X004765Y002845D01*
X004869Y002856D01*
X004884Y002888D01*
X004835Y002913D01*
X004784Y002879D01*
X004655Y002886D01*
X004524Y002944D01*
X004850Y002938D02*
X004903Y003021D01*
X004900Y002902D02*
X005016Y003096D01*
X005025Y003286D01*
X004786Y003669D02*
X004756Y003699D01*
X004726Y003699D01*
X004113Y003557D02*
X004120Y003520D01*
X004100Y003503D01*
X004079Y003511D01*
X003993Y003615D01*
X003934Y003630D01*
X003821Y003613D01*
X003688Y003543D01*
X003652Y003462D01*
X003631Y003458D01*
X003601Y003164D01*
X003649Y003024D01*
X003718Y002937D01*
X003810Y002884D01*
X003893Y002880D01*
X004009Y002897D01*
X004092Y002963D01*
X004131Y003000D01*
X004148Y002972D01*
X004139Y002909D01*
X004076Y002848D01*
X003944Y002797D01*
X003919Y002790D02*
X003925Y002843D01*
X003993Y002855D01*
X004073Y002892D01*
X004113Y002941D01*
X003913Y002839D02*
X003831Y002837D01*
X003691Y002904D01*
X003629Y003001D01*
X003576Y003152D01*
X003595Y003280D01*
X003544Y003157D02*
X003609Y002950D01*
X003740Y002834D01*
X003919Y002790D01*
X003544Y003157D02*
X003589Y003470D01*
X003594Y003488D02*
X003656Y003612D01*
X003758Y003665D01*
X003856Y003693D01*
X003887Y003680D01*
X003892Y003706D02*
X004021Y003637D01*
X004088Y003539D01*
X004113Y003557D02*
X004033Y003674D01*
X003892Y003706D01*
X003925Y003657D02*
X003796Y003644D01*
X003671Y003574D01*
X003617Y003489D01*
X003594Y003488D01*
X005430Y002779D02*
X005511Y002780D01*
X005617Y002782D01*
X005696Y002772D01*
X005726Y002771D01*
X005744Y002784D01*
X005757Y002804D01*
X005764Y002833D01*
X005761Y002868D01*
X005746Y002899D01*
X009521Y007909D02*
X009524Y008093D01*
X009518Y008277D01*
X009505Y008460D01*
X009484Y008643D01*
X009455Y008824D01*
X009418Y009004D01*
X009374Y009183D01*
X009321Y009359D01*
X011051Y011649D02*
X010922Y011821D01*
X010784Y011987D01*
X010639Y012146D01*
X010486Y012297D01*
X010326Y012441D01*
X010159Y012578D01*
X009986Y012706D01*
X009807Y012825D01*
X009622Y012936D01*
X009432Y013038D01*
X009238Y013131D01*
X009040Y013214D01*
X008837Y013288D01*
X008631Y013352D01*
X008423Y013406D01*
X008212Y013450D01*
X008212Y013449D02*
X008212Y017454D01*
X008210Y017484D01*
X008204Y017513D01*
X008195Y017542D01*
X008183Y017569D01*
X008167Y017595D01*
X008148Y017618D01*
X008127Y017639D01*
X008103Y017657D01*
X008077Y017673D01*
X008050Y017685D01*
X008021Y017693D01*
X007992Y017698D01*
X007962Y017700D01*
X007962Y017699D02*
X006915Y017699D01*
X006915Y016609D01*
X007371Y016609D01*
X007401Y016607D01*
X007431Y016602D01*
X007460Y016593D01*
X007487Y016580D01*
X007513Y016565D01*
X007537Y016546D01*
X007558Y016525D01*
X007577Y016501D01*
X007592Y016475D01*
X007605Y016448D01*
X007614Y016419D01*
X007619Y016389D01*
X007621Y016359D01*
X007621Y014659D01*
X007619Y014629D01*
X007614Y014599D01*
X007605Y014570D01*
X007592Y014543D01*
X007577Y014517D01*
X007558Y014493D01*
X007537Y014472D01*
X007513Y014453D01*
X007487Y014438D01*
X007460Y014425D01*
X007431Y014416D01*
X007401Y014411D01*
X007371Y014409D01*
X006771Y014409D01*
X006741Y014407D01*
X006711Y014402D01*
X006682Y014393D01*
X006655Y014380D01*
X006629Y014365D01*
X006605Y014346D01*
X006584Y014325D01*
X006565Y014301D01*
X006550Y014275D01*
X006537Y014248D01*
X006528Y014219D01*
X006523Y014189D01*
X006521Y014159D01*
X006521Y013159D01*
X006523Y013129D01*
X006528Y013099D01*
X006537Y013070D01*
X006550Y013043D01*
X006565Y013017D01*
X006584Y012993D01*
X006605Y012972D01*
X006629Y012953D01*
X006655Y012938D01*
X006682Y012925D01*
X006711Y012916D01*
X006741Y012911D01*
X006771Y012909D01*
X007621Y012909D01*
X007271Y012059D02*
X005571Y012059D01*
X005541Y012061D01*
X005511Y012066D01*
X005482Y012075D01*
X005455Y012088D01*
X005429Y012103D01*
X005405Y012122D01*
X005384Y012143D01*
X005365Y012167D01*
X005350Y012193D01*
X005337Y012220D01*
X005328Y012249D01*
X005323Y012279D01*
X005321Y012309D01*
X005321Y014589D01*
X005319Y014643D01*
X005313Y014696D01*
X005304Y014748D01*
X005291Y014800D01*
X005274Y014851D01*
X005253Y014901D01*
X005229Y014948D01*
X005202Y014994D01*
X005171Y015038D01*
X005138Y015080D01*
X005101Y015119D01*
X005062Y015156D01*
X005020Y015189D01*
X004976Y015220D01*
X004930Y015247D01*
X004883Y015271D01*
X004833Y015292D01*
X004782Y015309D01*
X004730Y015322D01*
X004678Y015331D01*
X004625Y015337D01*
X004571Y015339D01*
X003321Y015339D01*
X002781Y014739D02*
X002735Y014744D01*
X002690Y014753D01*
X002645Y014765D01*
X002601Y014780D01*
X002559Y014799D01*
X002518Y014822D01*
X002479Y014847D01*
X002442Y014875D01*
X002408Y014906D01*
X002376Y014940D01*
X002347Y014976D01*
X002321Y015015D01*
X002297Y015055D01*
X002278Y015097D01*
X002261Y015140D01*
X002248Y015185D01*
X002238Y015230D01*
X002232Y015276D01*
X002230Y015322D01*
X002231Y015369D01*
X002231Y015368D02*
X002231Y017149D01*
X002233Y017194D01*
X002239Y017240D01*
X002248Y017284D01*
X002261Y017328D01*
X002277Y017370D01*
X002297Y017411D01*
X002321Y017450D01*
X002347Y017487D01*
X002376Y017522D01*
X002408Y017554D01*
X002443Y017583D01*
X002480Y017609D01*
X002519Y017633D01*
X002560Y017653D01*
X002602Y017669D01*
X002646Y017682D01*
X002690Y017691D01*
X002736Y017697D01*
X002781Y017699D01*
X006127Y017699D01*
X006127Y016609D01*
X005471Y016609D01*
X005448Y016611D01*
X005425Y016616D01*
X005403Y016625D01*
X005383Y016638D01*
X005365Y016653D01*
X005350Y016671D01*
X005337Y016691D01*
X005328Y016713D01*
X005323Y016736D01*
X005321Y016759D01*
X005321Y017059D01*
X005319Y017082D01*
X005314Y017105D01*
X005305Y017127D01*
X005292Y017147D01*
X005277Y017165D01*
X005259Y017180D01*
X005239Y017193D01*
X005217Y017202D01*
X005194Y017207D01*
X005171Y017209D01*
X003321Y017209D01*
X003276Y017207D01*
X003230Y017201D01*
X003186Y017192D01*
X003142Y017179D01*
X003100Y017163D01*
X003059Y017143D01*
X003020Y017119D01*
X002983Y017093D01*
X002948Y017064D01*
X002916Y017032D01*
X002887Y016997D01*
X002861Y016960D01*
X002837Y016921D01*
X002817Y016880D01*
X002801Y016838D01*
X002788Y016794D01*
X002779Y016750D01*
X002773Y016704D01*
X002771Y016659D01*
X002771Y015889D01*
X002773Y015844D01*
X002779Y015798D01*
X002788Y015754D01*
X002801Y015710D01*
X002817Y015668D01*
X002837Y015627D01*
X002861Y015588D01*
X002887Y015551D01*
X002916Y015516D01*
X002948Y015484D01*
X002983Y015455D01*
X003020Y015429D01*
X003059Y015405D01*
X003100Y015385D01*
X003142Y015369D01*
X003186Y015356D01*
X003230Y015347D01*
X003276Y015341D01*
X003321Y015339D01*
X002781Y014739D02*
X003971Y014739D01*
X004025Y014737D01*
X004078Y014731D01*
X004130Y014722D01*
X004182Y014709D01*
X004233Y014692D01*
X004283Y014671D01*
X004330Y014647D01*
X004376Y014620D01*
X004420Y014589D01*
X004462Y014556D01*
X004501Y014519D01*
X004538Y014480D01*
X004571Y014438D01*
X004602Y014394D01*
X004629Y014348D01*
X004653Y014301D01*
X004674Y014251D01*
X004691Y014200D01*
X004704Y014148D01*
X004713Y014096D01*
X004719Y014043D01*
X004721Y013989D01*
X004721Y011509D01*
X004723Y011479D01*
X004728Y011449D01*
X004737Y011420D01*
X004750Y011393D01*
X004765Y011367D01*
X004784Y011343D01*
X004805Y011322D01*
X004829Y011303D01*
X004855Y011288D01*
X004882Y011275D01*
X004911Y011266D01*
X004941Y011261D01*
X004971Y011259D01*
X006871Y011259D01*
X004322Y009045D02*
X004322Y009025D01*
X004039Y008915D02*
X004041Y008940D01*
X004047Y008963D01*
X004057Y008986D01*
X004070Y009007D01*
X004086Y009025D01*
X004105Y009041D01*
X004126Y009053D01*
X004149Y009062D01*
X004174Y009067D01*
X004198Y009068D01*
X004223Y009065D01*
X004246Y009058D01*
X004268Y009048D01*
X004289Y009034D01*
X004307Y009016D01*
X004321Y008997D01*
X004333Y008975D01*
X004341Y008952D01*
X004345Y008927D01*
X004345Y008903D01*
X004341Y008878D01*
X004333Y008855D01*
X004321Y008833D01*
X004307Y008814D01*
X004289Y008796D01*
X004269Y008782D01*
X004246Y008772D01*
X004223Y008765D01*
X004198Y008762D01*
X004174Y008763D01*
X004149Y008768D01*
X004126Y008777D01*
X004105Y008789D01*
X004086Y008805D01*
X004070Y008823D01*
X004057Y008844D01*
X004047Y008867D01*
X004041Y008890D01*
X004039Y008915D01*
X004042Y009015D02*
X004042Y009045D01*
X004082Y009045D01*
X004072Y008785D02*
X004062Y008785D01*
X004072Y008785D02*
X004072Y008765D01*
X004042Y008765D01*
X004042Y008775D01*
X004322Y008755D02*
X004322Y008785D01*
X006871Y011259D02*
X007011Y011239D01*
X007150Y011212D01*
X007288Y011179D01*
X007424Y011139D01*
X007558Y011094D01*
X007690Y011041D01*
X007819Y010983D01*
X007945Y010919D01*
X008068Y010849D01*
X008187Y010773D01*
X008303Y010691D01*
X008415Y010605D01*
X008523Y010513D01*
X008626Y010416D01*
X008725Y010314D01*
X008818Y010208D01*
X008907Y010097D01*
X008990Y009983D01*
X009068Y009865D01*
X009140Y009743D01*
X009206Y009618D01*
X009267Y009490D01*
X009321Y009359D01*
X010221Y009659D02*
X010268Y009520D01*
X010308Y009379D01*
X010342Y009236D01*
X010371Y009093D01*
X010393Y008948D01*
X010408Y008802D01*
X010418Y008656D01*
X010421Y008509D01*
X010721Y010653D02*
X013671Y010653D01*
X013695Y010655D01*
X013718Y010661D01*
X013740Y010671D01*
X013760Y010684D01*
X013778Y010700D01*
X013794Y010719D01*
X013806Y010739D01*
X013814Y010762D01*
X013820Y010785D01*
X013821Y010809D01*
X013823Y010826D01*
X013827Y010843D01*
X013834Y010859D01*
X013844Y010873D01*
X013857Y010886D01*
X013871Y010896D01*
X013887Y010903D01*
X013904Y010907D01*
X013921Y010909D01*
X014671Y010909D01*
X014688Y010907D01*
X014705Y010903D01*
X014721Y010896D01*
X014735Y010886D01*
X014748Y010873D01*
X014758Y010859D01*
X014765Y010843D01*
X014769Y010826D01*
X014771Y010809D01*
X014772Y010809D02*
X014773Y010785D01*
X014779Y010762D01*
X014787Y010739D01*
X014799Y010719D01*
X014815Y010700D01*
X014833Y010684D01*
X014853Y010671D01*
X014875Y010661D01*
X014898Y010655D01*
X014922Y010653D01*
X014921Y010653D02*
X017312Y010653D01*
X017335Y010655D01*
X017358Y010660D01*
X017380Y010669D01*
X017400Y010682D01*
X017418Y010697D01*
X017433Y010715D01*
X017446Y010735D01*
X017455Y010757D01*
X017460Y010780D01*
X017462Y010803D01*
X017462Y011240D01*
X017465Y011271D01*
X017473Y011302D01*
X017484Y011332D01*
X017498Y011360D01*
X017515Y011387D01*
X017535Y011411D01*
X017557Y011433D01*
X017582Y011453D01*
X017609Y011469D01*
X017638Y011483D01*
X017668Y011493D01*
X017699Y011499D01*
X017730Y011503D01*
X017762Y011502D01*
X017762Y011503D02*
X018477Y011503D01*
X018477Y012853D01*
X016912Y012853D01*
X016912Y012852D02*
X016881Y012853D01*
X016851Y012849D01*
X016822Y012842D01*
X016794Y012831D01*
X016767Y012816D01*
X016743Y012798D01*
X016721Y012777D01*
X016702Y012753D01*
X016687Y012727D01*
X016674Y012699D01*
X016666Y012670D01*
X016662Y012640D01*
X016662Y011803D01*
X016660Y011779D01*
X016655Y011756D01*
X016646Y011733D01*
X016634Y011713D01*
X016619Y011695D01*
X016601Y011679D01*
X016580Y011666D01*
X016558Y011657D01*
X016535Y011651D01*
X016512Y011649D01*
X011051Y011649D01*
X010697Y013080D02*
X010462Y013090D01*
X010472Y013125D02*
X010552Y013110D01*
X010682Y013115D01*
X010782Y013125D01*
X010697Y013080D01*
X010737Y013135D02*
X010797Y013175D01*
X010832Y013245D01*
X010867Y013235D01*
X010797Y013130D01*
X010832Y013255D02*
X010842Y013290D01*
X010847Y013765D01*
X010882Y013690D01*
X010877Y013265D01*
X010737Y013365D02*
X010642Y013340D01*
X010517Y013365D01*
X010447Y013410D01*
X010402Y013470D01*
X010367Y013580D01*
X010387Y013715D01*
X010457Y013805D01*
X010542Y013855D01*
X010622Y013875D01*
X010717Y013860D01*
X010777Y013825D01*
X010822Y013780D01*
X010812Y013740D02*
X010747Y013805D01*
X010667Y013840D01*
X010562Y013830D01*
X010502Y013805D01*
X010442Y013735D01*
X010407Y013660D01*
X010407Y013590D01*
X010422Y013490D01*
X010472Y013430D01*
X010552Y013385D01*
X010622Y013375D01*
X010692Y013380D01*
X010742Y013405D01*
X010737Y013365D01*
X010832Y013675D02*
X010812Y013740D01*
X011112Y013865D02*
X011122Y013345D01*
X011157Y013345D01*
X011157Y013870D01*
X011137Y013870D01*
X011127Y013995D02*
X011167Y014015D01*
X011152Y014050D01*
X011112Y014045D01*
X011112Y014020D01*
X011417Y014130D02*
X011452Y014135D01*
X011452Y013345D01*
X011412Y013345D02*
X011417Y014130D01*
X011677Y014010D02*
X011712Y014010D01*
X011717Y013475D01*
X011742Y013415D01*
X011772Y013390D01*
X011927Y013380D01*
X011922Y013345D02*
X011762Y013360D01*
X011707Y013395D01*
X011682Y013475D01*
X011677Y014010D01*
X011737Y013855D02*
X011927Y013860D01*
X011922Y013825D01*
X011722Y013830D01*
X012062Y013710D02*
X012042Y013595D01*
X012067Y013495D01*
X012147Y013390D01*
X012247Y013350D01*
X012367Y013345D01*
X012452Y013375D01*
X012542Y013455D01*
X012572Y013550D01*
X012532Y013555D02*
X012517Y013495D01*
X012462Y013425D01*
X012387Y013380D01*
X012257Y013375D01*
X012157Y013425D01*
X012092Y013530D01*
X012087Y013635D01*
X012107Y013715D01*
X012157Y013785D01*
X012227Y013825D01*
X012292Y013835D01*
X012407Y013830D01*
X012492Y013745D01*
X012197Y013580D01*
X012212Y013555D01*
X012547Y013740D01*
X012527Y013770D01*
X012457Y013830D01*
X012392Y013865D01*
X012242Y013865D01*
X012127Y013810D01*
X012062Y013710D01*
X012717Y013785D02*
X012722Y013700D01*
X012767Y013650D01*
X012942Y013580D01*
X012952Y013570D02*
X013037Y013550D01*
X013077Y013500D01*
X013072Y013420D01*
X013017Y013390D01*
X012712Y013385D01*
X012707Y013345D02*
X013017Y013355D01*
X013092Y013390D01*
X013117Y013455D01*
X013117Y013510D01*
X013077Y013565D01*
X012797Y013670D01*
X012762Y013710D01*
X012762Y013780D01*
X012792Y013815D01*
X012822Y013825D01*
X013092Y013825D01*
X013092Y013860D01*
X012812Y013855D01*
X012747Y013825D01*
X012717Y013785D01*
X012977Y013625D02*
X013022Y013595D01*
X013242Y013630D02*
X013277Y013745D01*
X013347Y013825D01*
X013452Y013870D01*
X013592Y013865D01*
X013692Y013815D01*
X013742Y013745D01*
X013767Y013695D01*
X013772Y013345D01*
X013732Y013345D02*
X013737Y013670D01*
X013692Y013765D01*
X013622Y013820D01*
X013532Y013840D01*
X013442Y013835D01*
X013372Y013800D01*
X013322Y013745D01*
X013292Y013660D01*
X013282Y013545D01*
X013327Y013460D01*
X013397Y013395D01*
X013467Y013380D01*
X013547Y013375D01*
X013627Y013415D01*
X013622Y013375D01*
X013552Y013340D01*
X013407Y013350D01*
X013332Y013400D01*
X013262Y013500D01*
X013242Y013630D01*
X013992Y013405D02*
X013987Y013375D01*
X013997Y013355D01*
X014012Y013385D01*
X013992Y013405D02*
X014032Y013415D01*
X014057Y013375D01*
X014022Y013340D01*
X014317Y013465D02*
X014277Y013550D01*
X014282Y013670D01*
X014342Y013790D01*
X014462Y013850D01*
X014597Y013865D01*
X014597Y013830D01*
X014492Y013825D01*
X014382Y013775D01*
X014332Y013685D01*
X014317Y013580D01*
X014347Y013480D01*
X014437Y013405D01*
X014527Y013385D01*
X014607Y013385D01*
X014602Y013350D02*
X014467Y013360D01*
X014377Y013405D01*
X014317Y013465D01*
X014732Y013530D02*
X014797Y013415D01*
X014872Y013365D01*
X014972Y013340D01*
X015012Y013370D01*
X014917Y013385D01*
X014832Y013435D01*
X014782Y013515D01*
X014767Y013600D01*
X014787Y013705D01*
X014837Y013785D01*
X014942Y013840D01*
X015032Y013835D01*
X015132Y013800D01*
X015182Y013750D01*
X015222Y013655D01*
X015212Y013550D01*
X015187Y013485D01*
X015137Y013425D01*
X015037Y013365D01*
X015032Y013385D01*
X015082Y013355D02*
X015162Y013395D01*
X015227Y013470D01*
X015262Y013575D01*
X015247Y013700D01*
X015182Y013800D01*
X015072Y013860D01*
X014937Y013870D01*
X015037Y013875D01*
X014892Y013860D01*
X014802Y013800D01*
X014747Y013705D01*
X014727Y013640D01*
X014732Y013530D01*
X014997Y013335D02*
X015082Y013355D01*
X015422Y013345D02*
X015427Y013745D01*
X015467Y013825D01*
X015462Y013345D01*
X015747Y013350D02*
X015742Y013800D01*
X015727Y013815D02*
X015662Y013865D01*
X015602Y013875D01*
X015542Y013865D01*
X015477Y013835D01*
X015517Y013815D02*
X015562Y013835D01*
X015632Y013840D01*
X015672Y013825D01*
X015722Y013775D01*
X015787Y013800D02*
X015787Y013340D01*
X016072Y013340D02*
X016072Y013810D01*
X016052Y013825D02*
X015967Y013870D01*
X015902Y013870D01*
X015852Y013850D01*
X015812Y013825D01*
X015857Y013820D02*
X015907Y013845D01*
X015977Y013835D01*
X016027Y013805D01*
X016052Y013760D01*
X016052Y013825D01*
X016097Y013780D02*
X016112Y013350D01*
X015802Y013775D02*
X015857Y013820D01*
X015517Y013815D02*
X015487Y013775D01*
X019265Y012853D02*
X019265Y011503D01*
X022692Y011503D01*
X022717Y011505D01*
X022742Y011503D01*
X022767Y011498D01*
X022791Y011489D01*
X022813Y011477D01*
X022833Y011462D01*
X022851Y011444D01*
X022866Y011424D01*
X022878Y011401D01*
X022887Y011378D01*
X022892Y011353D01*
X022892Y009708D01*
X023692Y010486D02*
X023692Y012240D01*
X023696Y012285D01*
X023697Y012330D01*
X023694Y012374D01*
X023687Y012419D01*
X023677Y012462D01*
X023663Y012505D01*
X023646Y012546D01*
X023626Y012586D01*
X023602Y012623D01*
X023575Y012659D01*
X023545Y012693D01*
X023513Y012724D01*
X023478Y012752D01*
X023441Y012777D01*
X023402Y012799D01*
X023362Y012817D01*
X023320Y012833D01*
X023276Y012844D01*
X023233Y012853D01*
X023232Y012853D02*
X019265Y012853D01*
X023692Y010486D02*
X023694Y010440D01*
X023700Y010394D01*
X023710Y010350D01*
X023724Y010306D01*
X023741Y010263D01*
X023761Y010223D01*
X023785Y010183D01*
X023812Y010146D01*
X023842Y010112D01*
X023875Y010080D01*
X023910Y010050D01*
X023948Y010024D01*
X023987Y010001D01*
X024028Y009981D01*
X024071Y009965D01*
X024115Y009953D01*
X024160Y009944D01*
X024206Y009938D01*
X024251Y009937D01*
X030612Y009937D01*
X030655Y009935D01*
X030698Y009929D01*
X030741Y009920D01*
X030782Y009907D01*
X030822Y009890D01*
X030861Y009870D01*
X030897Y009847D01*
X030931Y009821D01*
X030963Y009791D01*
X030993Y009759D01*
X031019Y009725D01*
X031042Y009688D01*
X031062Y009650D01*
X031079Y009610D01*
X031092Y009569D01*
X031101Y009526D01*
X031107Y009483D01*
X031109Y009440D01*
X031109Y006704D01*
X030321Y006704D01*
X030321Y008259D01*
X030319Y008293D01*
X030313Y008326D01*
X030304Y008358D01*
X030291Y008389D01*
X030275Y008419D01*
X030256Y008446D01*
X030233Y008471D01*
X030208Y008494D01*
X030181Y008513D01*
X030151Y008529D01*
X030120Y008542D01*
X030088Y008551D01*
X030055Y008557D01*
X030021Y008559D01*
X029521Y008559D01*
X029522Y008559D02*
X029504Y008561D01*
X029487Y008566D01*
X029471Y008574D01*
X029456Y008585D01*
X029444Y008598D01*
X029434Y008613D01*
X029427Y008630D01*
X029423Y008647D01*
X029422Y008665D01*
X029421Y008665D02*
X029419Y008682D01*
X029415Y008699D01*
X029408Y008715D01*
X029398Y008729D01*
X029385Y008742D01*
X029371Y008752D01*
X029355Y008759D01*
X029338Y008763D01*
X029321Y008765D01*
X028421Y008765D01*
X028404Y008763D01*
X028387Y008759D01*
X028371Y008752D01*
X028357Y008742D01*
X028344Y008729D01*
X028334Y008715D01*
X028327Y008699D01*
X028323Y008682D01*
X028321Y008665D01*
X028320Y008647D01*
X028316Y008630D01*
X028309Y008613D01*
X028299Y008598D01*
X028287Y008585D01*
X028272Y008574D01*
X028256Y008566D01*
X028239Y008561D01*
X028221Y008559D01*
X024061Y008559D01*
X022568Y007670D02*
X022321Y007670D01*
X022568Y007670D02*
X022568Y005918D01*
X022321Y005918D01*
X021220Y005918D02*
X020973Y005918D01*
X020973Y007670D01*
X021220Y007670D01*
X023496Y006002D02*
X024559Y006002D01*
X025288Y006002D02*
X026351Y006002D01*
X026351Y005353D02*
X025288Y005353D01*
X024559Y005353D02*
X023496Y005353D01*
X026315Y006764D02*
X026315Y007011D01*
X026315Y006764D02*
X028067Y006764D01*
X028067Y007011D01*
X028067Y008112D02*
X028067Y008359D01*
X026315Y008359D01*
X026315Y008112D01*
X024061Y008559D02*
X023994Y008560D01*
X023927Y008566D01*
X023860Y008575D01*
X023794Y008588D01*
X023728Y008605D01*
X023664Y008625D01*
X023601Y008650D01*
X023540Y008678D01*
X023480Y008709D01*
X023423Y008744D01*
X023367Y008782D01*
X023314Y008824D01*
X023263Y008868D01*
X023215Y008915D01*
X023170Y008965D01*
X023127Y009018D01*
X023088Y009073D01*
X023052Y009130D01*
X023020Y009189D01*
X022991Y009250D01*
X022965Y009312D01*
X022944Y009376D01*
X022926Y009441D01*
X022911Y009507D01*
X022901Y009573D01*
X022895Y009640D01*
X022892Y009708D01*
X029321Y004259D02*
X029387Y004273D01*
X029453Y004291D01*
X029517Y004312D01*
X029580Y004337D01*
X029642Y004365D01*
X029702Y004397D01*
X029760Y004432D01*
X029816Y004470D01*
X029870Y004512D01*
X029921Y004556D01*
X029970Y004603D01*
X030016Y004652D01*
X030060Y004704D01*
X030100Y004759D01*
X030137Y004815D01*
X030172Y004874D01*
X030202Y004934D01*
X030230Y004996D01*
X030254Y005060D01*
X030274Y005124D01*
X030291Y005190D01*
X030304Y005257D01*
X030313Y005324D01*
X030319Y005391D01*
X030321Y005459D01*
X030321Y005916D01*
X031109Y005916D01*
X031109Y004959D01*
X031106Y004890D01*
X031099Y004821D01*
X031088Y004753D01*
X031073Y004686D01*
X031055Y004620D01*
X031033Y004554D01*
X031008Y004490D01*
X030979Y004428D01*
X030946Y004367D01*
X030910Y004308D01*
X030872Y004252D01*
X030829Y004197D01*
X030784Y004145D01*
X030737Y004095D01*
X030686Y004049D01*
X030633Y004005D01*
X030578Y003964D01*
X030520Y003926D01*
X030460Y003892D01*
X030399Y003861D01*
X030336Y003833D01*
X030271Y003809D01*
X030206Y003788D01*
X030139Y003772D01*
X030071Y003758D01*
X010221Y009659D02*
X010158Y009821D01*
X010088Y009980D01*
X010010Y010135D01*
X009925Y010286D01*
X009833Y010434D01*
X009734Y010576D01*
X009629Y010714D01*
X009517Y010847D01*
X009399Y010975D01*
X009275Y011097D01*
X009146Y011212D01*
X009011Y011322D01*
X008871Y011425D01*
X008727Y011522D01*
X008578Y011611D01*
X008425Y011694D01*
X008269Y011769D01*
X008109Y011837D01*
X007946Y011897D01*
X007780Y011949D01*
X007612Y011994D01*
X007442Y012030D01*
X007271Y012059D01*
X007621Y012909D02*
X007836Y012862D01*
X008048Y012804D01*
X008257Y012736D01*
X008463Y012658D01*
X008664Y012570D01*
X008862Y012473D01*
X009054Y012366D01*
X009240Y012250D01*
X009421Y012124D01*
X009596Y011991D01*
X009764Y011849D01*
X009925Y011699D01*
X010078Y011541D01*
X010224Y011377D01*
X010361Y011205D01*
X010490Y011027D01*
X010610Y010843D01*
X010721Y010653D01*
X004121Y016209D02*
X004121Y016359D01*
X004119Y016398D01*
X004113Y016437D01*
X004104Y016475D01*
X004091Y016512D01*
X004074Y016548D01*
X004054Y016581D01*
X004030Y016613D01*
X004004Y016642D01*
X003975Y016668D01*
X003943Y016692D01*
X003910Y016712D01*
X003874Y016729D01*
X003837Y016742D01*
X003799Y016751D01*
X003760Y016757D01*
X003721Y016759D01*
X003682Y016757D01*
X003643Y016751D01*
X003605Y016742D01*
X003568Y016729D01*
X003532Y016712D01*
X003499Y016692D01*
X003467Y016668D01*
X003438Y016642D01*
X003412Y016613D01*
X003388Y016581D01*
X003368Y016548D01*
X003351Y016512D01*
X003338Y016475D01*
X003329Y016437D01*
X003323Y016398D01*
X003321Y016359D01*
X003321Y016209D01*
X003323Y016170D01*
X003329Y016131D01*
X003338Y016093D01*
X003351Y016056D01*
X003368Y016020D01*
X003388Y015987D01*
X003412Y015955D01*
X003438Y015926D01*
X003467Y015900D01*
X003499Y015876D01*
X003532Y015856D01*
X003568Y015839D01*
X003605Y015826D01*
X003643Y015817D01*
X003682Y015811D01*
X003721Y015809D01*
X003760Y015811D01*
X003799Y015817D01*
X003837Y015826D01*
X003874Y015839D01*
X003910Y015856D01*
X003943Y015876D01*
X003975Y015900D01*
X004004Y015926D01*
X004030Y015955D01*
X004054Y015987D01*
X004074Y016020D01*
X004091Y016056D01*
X004104Y016093D01*
X004113Y016131D01*
X004119Y016170D01*
X004121Y016209D01*
X022658Y002306D02*
X024534Y002548D01*
X026397Y002871D01*
X028244Y003275D01*
X030072Y003759D01*
X029321Y004260D02*
X027468Y003812D01*
X025598Y003446D01*
X023713Y003161D01*
X021818Y002959D01*
D13*
X021241Y003687D02*
X021241Y004284D01*
X017840Y004284D02*
X017840Y003687D01*
X016557Y004192D02*
X016557Y005092D01*
X015962Y005092D02*
X015962Y004192D01*
X016924Y006458D02*
X017184Y006458D01*
X019437Y009229D02*
X019437Y010410D01*
X020618Y010410D02*
X020618Y009229D01*
X027558Y005772D02*
X027896Y005772D01*
X027896Y004652D02*
X027558Y004652D01*
X029591Y005259D02*
X029593Y005295D01*
X029599Y005330D01*
X029608Y005364D01*
X029622Y005398D01*
X029638Y005429D01*
X029658Y005459D01*
X029681Y005486D01*
X029707Y005511D01*
X029736Y005532D01*
X029766Y005551D01*
X029799Y005566D01*
X029833Y005577D01*
X029868Y005585D01*
X029903Y005589D01*
X029939Y005589D01*
X029974Y005585D01*
X030009Y005577D01*
X030043Y005566D01*
X030076Y005551D01*
X030106Y005532D01*
X030135Y005511D01*
X030161Y005486D01*
X030184Y005459D01*
X030204Y005429D01*
X030220Y005398D01*
X030234Y005364D01*
X030243Y005330D01*
X030249Y005295D01*
X030251Y005259D01*
X030249Y005223D01*
X030243Y005188D01*
X030234Y005154D01*
X030220Y005120D01*
X030204Y005089D01*
X030184Y005059D01*
X030161Y005032D01*
X030135Y005007D01*
X030106Y004986D01*
X030076Y004967D01*
X030043Y004952D01*
X030009Y004941D01*
X029974Y004933D01*
X029939Y004929D01*
X029903Y004929D01*
X029868Y004933D01*
X029833Y004941D01*
X029799Y004952D01*
X029766Y004967D01*
X029736Y004986D01*
X029707Y005007D01*
X029681Y005032D01*
X029658Y005059D01*
X029638Y005089D01*
X029622Y005120D01*
X029608Y005154D01*
X029599Y005188D01*
X029593Y005223D01*
X029591Y005259D01*
X020091Y001507D02*
X020091Y001437D01*
X020021Y001367D01*
X019811Y001367D01*
X019630Y001296D02*
X019630Y001226D01*
X019560Y001156D01*
X019420Y001156D01*
X019350Y001226D01*
X019420Y001367D02*
X019560Y001367D01*
X019630Y001296D01*
X019630Y001507D02*
X019560Y001577D01*
X019420Y001577D01*
X019350Y001507D01*
X019350Y001437D01*
X019420Y001367D01*
X019170Y001226D02*
X019100Y001156D01*
X018960Y001156D01*
X018890Y001226D01*
X018890Y001577D01*
X019170Y001577D02*
X019170Y001226D01*
X019811Y001156D02*
X019811Y001577D01*
X020021Y001577D01*
X020091Y001507D01*
X020021Y001367D02*
X020091Y001296D01*
X020091Y001226D01*
X020021Y001156D01*
X019811Y001156D01*
X007358Y002807D02*
X007220Y003014D01*
X007235Y002961D02*
X007304Y002828D01*
X007348Y002773D01*
X007358Y002807D01*
X007235Y002961D02*
X007174Y003076D01*
X007128Y003193D01*
X007118Y003165D02*
X006882Y003139D01*
X006854Y003566D01*
X006821Y003619D01*
X007058Y003635D01*
X007218Y003602D01*
X007309Y003508D01*
X007314Y003370D01*
X007204Y003253D01*
X007057Y003206D01*
X006916Y003195D01*
X006900Y003587D01*
X006838Y003662D02*
X007155Y003669D01*
X007333Y003556D01*
X007362Y003373D01*
X007220Y003210D01*
X007118Y003165D01*
X006885Y003158D02*
X006885Y002920D01*
X006886Y002817D01*
X006525Y003038D02*
X006367Y002836D01*
X006247Y002810D01*
X006107Y002846D01*
X006021Y002907D01*
X005972Y003022D01*
X005916Y003278D01*
X005985Y003539D01*
X006169Y003668D01*
X006356Y003663D01*
X006493Y003539D01*
X006565Y003385D01*
X006555Y003309D02*
X006511Y003476D01*
X006362Y003624D01*
X006149Y003614D01*
X006024Y003527D01*
X005965Y003348D01*
X005953Y003102D01*
X006063Y002909D01*
X006232Y002865D01*
X006362Y002885D01*
X006425Y002936D01*
X006525Y003038D01*
X006536Y003118D02*
X006555Y003309D01*
X006536Y003118D02*
X006457Y002969D01*
X004946Y003519D02*
X004936Y003579D01*
X004866Y003639D01*
X004766Y003679D01*
X004696Y003679D01*
X004766Y003629D01*
X004876Y003609D01*
X004916Y003549D01*
X004946Y003519D02*
X004916Y003499D01*
X004836Y003579D01*
X004766Y003629D01*
X004646Y003619D01*
X012445Y014375D02*
X012509Y014928D01*
X012367Y014939D01*
X012381Y015136D01*
X012411Y015149D01*
X014208Y015155D01*
X014348Y015175D02*
X014373Y015302D01*
X014377Y015393D01*
X014109Y015412D01*
X014195Y016027D01*
X014136Y016033D01*
X013772Y016035D01*
X013726Y016021D02*
X013624Y015219D01*
X013574Y015181D01*
X013745Y015173D01*
X013842Y015173D01*
X013836Y015183D01*
X014348Y015175D01*
X013457Y015330D02*
X013425Y015402D01*
X013404Y015349D01*
X013433Y015304D01*
X013370Y015311D01*
X012481Y015312D01*
X012351Y015315D01*
X012338Y015361D01*
X012462Y015349D01*
X012361Y015410D01*
X012371Y015458D01*
X012564Y016890D01*
X013647Y016894D01*
X013653Y016834D01*
X013622Y016444D01*
X013579Y016442D01*
X013582Y016834D01*
X012620Y016853D01*
X012600Y016831D01*
X012607Y016775D02*
X012429Y015469D01*
X012468Y015394D01*
X012538Y015377D01*
X013265Y015362D01*
X013337Y015376D01*
X013394Y015447D01*
X013430Y015499D01*
X013474Y015962D01*
X013465Y016002D01*
X013097Y016012D01*
X013093Y015996D01*
X013558Y016024D01*
X013537Y015951D01*
X013457Y015330D01*
X012880Y014942D02*
X012802Y014370D01*
X012726Y014367D01*
X012811Y014883D01*
X012762Y014925D02*
X012880Y014942D01*
X012762Y014925D02*
X012676Y014361D01*
X013539Y016442D02*
X013582Y016760D01*
X013523Y016830D01*
X013455Y016842D01*
X012709Y016837D01*
X012607Y016775D01*
X016504Y017069D02*
X031686Y017069D01*
X031499Y017352D02*
X031408Y017306D01*
X031322Y017284D01*
X031223Y017290D01*
X031165Y017309D01*
X031105Y017355D01*
X031056Y017428D01*
X031035Y017528D01*
X031046Y017681D01*
X031084Y017827D01*
X031155Y017961D01*
X031239Y018050D01*
X031354Y018031D01*
X031461Y018031D01*
X031521Y018009D01*
X031586Y017934D01*
X031613Y017817D01*
X031596Y017686D01*
X031537Y017517D01*
X031449Y017381D01*
X031430Y017387D01*
X031329Y017341D01*
X031232Y017346D01*
X031152Y017382D01*
X031097Y017488D01*
X031092Y017634D01*
X031131Y017762D01*
X031172Y017870D01*
X031232Y017969D01*
X031304Y018012D01*
X031278Y018061D02*
X031299Y018080D01*
X031433Y018080D01*
X031525Y018072D01*
X031588Y018026D01*
X031641Y017945D01*
X031664Y017852D01*
X031667Y017746D01*
X031641Y017629D01*
X031575Y017453D01*
X031499Y017352D01*
X030909Y017286D02*
X030817Y017296D01*
X030654Y017612D01*
X030632Y017654D01*
X030588Y017664D01*
X030553Y017642D01*
X030537Y017605D01*
X030486Y017294D01*
X030476Y017325D01*
X030460Y017288D01*
X030590Y018022D01*
X030635Y018028D01*
X030744Y018019D01*
X030815Y018003D01*
X030850Y017954D01*
X030870Y017863D01*
X030836Y017807D01*
X030790Y017746D01*
X030741Y017727D01*
X030702Y017680D01*
X030690Y017647D01*
X030705Y017730D01*
X030592Y017739D01*
X030587Y017720D01*
X030661Y017686D01*
X030574Y017750D01*
X030570Y017785D01*
X030600Y017967D01*
X030534Y018084D02*
X030758Y018084D01*
X030826Y018058D01*
X030888Y018008D01*
X030917Y017957D01*
X030926Y017886D01*
X030926Y017833D01*
X030896Y017766D01*
X030840Y017720D01*
X030777Y017677D01*
X030735Y017666D01*
X030729Y017626D01*
X030897Y017290D01*
X030909Y017286D01*
X030438Y017328D02*
X030417Y017293D01*
X030534Y018084D01*
X030313Y017977D02*
X030344Y017920D01*
X030339Y017862D01*
X030310Y017780D01*
X030277Y017727D01*
X030216Y017694D01*
X030160Y017666D01*
X030052Y017668D01*
X030010Y017671D01*
X030013Y017733D01*
X030133Y017726D01*
X030186Y017742D01*
X030236Y017788D01*
X030264Y017861D01*
X030279Y017929D01*
X030233Y017977D01*
X030207Y018020D01*
X030159Y018023D01*
X030055Y018031D01*
X029989Y018076D01*
X029935Y018079D01*
X029840Y017347D01*
X030001Y018059D01*
X030020Y018079D02*
X030130Y018081D01*
X030204Y018065D01*
X030268Y018038D01*
X030313Y017977D01*
X030020Y018079D02*
X029902Y017296D01*
X029831Y017294D01*
X030419Y017302D02*
X030438Y017328D01*
X030555Y016615D02*
X030485Y016545D01*
X030485Y016265D01*
X030555Y016195D01*
X030695Y016195D01*
X030765Y016265D01*
X030765Y016405D01*
X030625Y016405D01*
X030765Y016545D02*
X030695Y016615D01*
X030555Y016615D01*
X030304Y016545D02*
X030304Y016405D01*
X030234Y016335D01*
X030024Y016335D01*
X030164Y016335D02*
X030304Y016195D01*
X030024Y016195D02*
X030024Y016615D01*
X030234Y016615D01*
X030304Y016545D01*
X029844Y016475D02*
X029844Y016195D01*
X029844Y016405D02*
X029564Y016405D01*
X029564Y016475D02*
X029564Y016195D01*
X029384Y016195D02*
X029384Y016615D01*
X029384Y016405D02*
X029103Y016405D01*
X029103Y016195D02*
X029103Y016615D01*
X028923Y016545D02*
X028853Y016615D01*
X028713Y016615D01*
X028643Y016545D01*
X028643Y016265D01*
X028713Y016195D01*
X028853Y016195D01*
X028923Y016265D01*
X028923Y015913D02*
X028923Y015493D01*
X028643Y015913D01*
X028643Y015493D01*
X028463Y015563D02*
X028463Y015843D01*
X028393Y015913D01*
X028253Y015913D01*
X028183Y015843D01*
X028183Y015563D01*
X028253Y015493D01*
X028393Y015493D01*
X028463Y015563D01*
X028393Y015212D02*
X028183Y015212D01*
X028183Y014791D01*
X028183Y014932D02*
X028393Y014932D01*
X028463Y015002D01*
X028463Y015142D01*
X028393Y015212D01*
X028643Y015142D02*
X028643Y014861D01*
X028713Y014791D01*
X028853Y014791D01*
X028923Y014861D01*
X028923Y015002D01*
X028783Y015002D01*
X028643Y015142D02*
X028713Y015212D01*
X028853Y015212D01*
X028923Y015142D01*
X029103Y015212D02*
X029103Y014791D01*
X029384Y014791D01*
X029244Y015002D02*
X029103Y015002D01*
X029103Y015212D02*
X029384Y015212D01*
X029564Y015002D02*
X029844Y015002D01*
X030024Y014932D02*
X030234Y014932D01*
X030304Y015002D01*
X030304Y015142D01*
X030234Y015212D01*
X030024Y015212D01*
X030024Y014791D01*
X030011Y014510D02*
X029871Y014510D01*
X029941Y014510D02*
X029941Y014090D01*
X029871Y014090D02*
X030011Y014090D01*
X030178Y014090D02*
X030178Y014510D01*
X030458Y014510D01*
X030638Y014510D02*
X030778Y014510D01*
X030708Y014510D02*
X030708Y014090D01*
X030638Y014090D02*
X030778Y014090D01*
X030945Y014090D02*
X031225Y014090D01*
X031405Y014090D02*
X031405Y014510D01*
X031616Y014510D01*
X031686Y014440D01*
X031686Y014300D01*
X031616Y014230D01*
X031405Y014230D01*
X031546Y014230D02*
X031686Y014090D01*
X031085Y014300D02*
X030945Y014300D01*
X030945Y014510D02*
X030945Y014090D01*
X030318Y014300D02*
X030178Y014300D01*
X029691Y014090D02*
X029410Y014090D01*
X029410Y014510D01*
X029230Y014440D02*
X029230Y014300D01*
X029160Y014230D01*
X028950Y014230D01*
X028950Y014090D02*
X028950Y014510D01*
X029160Y014510D01*
X029230Y014440D01*
X028770Y014510D02*
X028770Y014090D01*
X028490Y014090D02*
X028490Y014510D01*
X028630Y014370D01*
X028770Y014510D01*
X028463Y014791D02*
X028323Y014932D01*
X028003Y015002D02*
X027722Y015002D01*
X027722Y015072D02*
X027722Y014791D01*
X027542Y014791D02*
X027542Y015212D01*
X027542Y015002D02*
X027262Y015002D01*
X027262Y015212D02*
X027262Y014791D01*
X027082Y014861D02*
X027012Y014791D01*
X026872Y014791D01*
X026801Y014861D01*
X026801Y015142D01*
X026872Y015212D01*
X027012Y015212D01*
X027082Y015142D01*
X026942Y015493D02*
X026942Y015913D01*
X027082Y015913D02*
X026801Y015913D01*
X026621Y015843D02*
X026551Y015913D01*
X026411Y015913D01*
X026341Y015843D01*
X026341Y015773D01*
X026411Y015703D01*
X026551Y015703D01*
X026621Y015633D01*
X026621Y015563D01*
X026551Y015493D01*
X026411Y015493D01*
X026341Y015563D01*
X026161Y015563D02*
X026161Y015843D01*
X026091Y015913D01*
X025951Y015913D01*
X025881Y015843D01*
X025881Y015563D01*
X025951Y015493D01*
X026091Y015493D01*
X026161Y015563D01*
X025701Y015563D02*
X025701Y015843D01*
X025630Y015913D01*
X025490Y015913D01*
X025420Y015843D01*
X025420Y015563D01*
X025490Y015493D01*
X025630Y015493D01*
X025701Y015563D01*
X025701Y015212D02*
X025420Y015212D01*
X025420Y014791D01*
X025240Y014791D02*
X025240Y015072D01*
X025100Y015212D01*
X024960Y015072D01*
X024960Y014791D01*
X024780Y014861D02*
X024710Y014791D01*
X024570Y014791D01*
X024500Y014861D01*
X024570Y015002D02*
X024710Y015002D01*
X024780Y014932D01*
X024780Y014861D01*
X024960Y015002D02*
X025240Y015002D01*
X025420Y015002D02*
X025560Y015002D01*
X025881Y015002D02*
X026021Y015002D01*
X026161Y015212D02*
X025881Y015212D01*
X025881Y014791D01*
X026161Y014791D01*
X026161Y014510D02*
X026161Y014160D01*
X026091Y014090D01*
X025951Y014090D01*
X025881Y014160D01*
X025881Y014510D01*
X025701Y014370D02*
X025701Y014090D01*
X025420Y014090D02*
X025420Y014370D01*
X025560Y014510D01*
X025701Y014370D01*
X025701Y014300D02*
X025420Y014300D01*
X026341Y014090D02*
X026551Y014090D01*
X026621Y014160D01*
X026621Y014440D01*
X026551Y014510D01*
X026341Y014510D01*
X026341Y014090D01*
X026801Y014090D02*
X026942Y014090D01*
X026872Y014090D02*
X026872Y014510D01*
X026942Y014510D02*
X026801Y014510D01*
X027108Y014440D02*
X027108Y014160D01*
X027178Y014090D01*
X027319Y014090D01*
X027389Y014160D01*
X027389Y014440D01*
X027319Y014510D01*
X027178Y014510D01*
X027108Y014440D01*
X028003Y014791D02*
X028003Y015072D01*
X027862Y015212D01*
X027722Y015072D01*
X027792Y015493D02*
X027932Y015493D01*
X028003Y015563D01*
X027792Y015493D02*
X027722Y015563D01*
X027722Y015843D01*
X027792Y015913D01*
X027932Y015913D01*
X028003Y015843D01*
X027862Y016195D02*
X027862Y016405D01*
X028003Y016545D01*
X028003Y016615D01*
X027862Y016405D02*
X027722Y016545D01*
X027722Y016615D01*
X027542Y016545D02*
X027542Y016405D01*
X027472Y016335D01*
X027262Y016335D01*
X027402Y016335D02*
X027542Y016195D01*
X027262Y016195D02*
X027262Y016615D01*
X027472Y016615D01*
X027542Y016545D01*
X027082Y016615D02*
X026801Y016615D01*
X026801Y016195D01*
X027082Y016195D01*
X026942Y016405D02*
X026801Y016405D01*
X026621Y016615D02*
X026341Y016615D01*
X026481Y016615D02*
X026481Y016195D01*
X026021Y016195D02*
X026021Y016615D01*
X025881Y016615D02*
X026161Y016615D01*
X025701Y016475D02*
X025701Y016195D01*
X025701Y016405D02*
X025420Y016405D01*
X025420Y016475D02*
X025420Y016195D01*
X025240Y016265D02*
X025170Y016195D01*
X024960Y016195D01*
X024960Y016615D01*
X025170Y016615D01*
X025240Y016545D01*
X025240Y016475D01*
X025170Y016405D01*
X024960Y016405D01*
X025170Y016405D02*
X025240Y016335D01*
X025240Y016265D01*
X025420Y016475D02*
X025560Y016615D01*
X025701Y016475D01*
X025170Y015913D02*
X024960Y015913D01*
X024960Y015493D01*
X025170Y015493D01*
X025240Y015563D01*
X025240Y015633D01*
X025170Y015703D01*
X024960Y015703D01*
X025170Y015703D02*
X025240Y015773D01*
X025240Y015843D01*
X025170Y015913D01*
X024710Y015212D02*
X024570Y015212D01*
X024500Y015142D01*
X024500Y015072D01*
X024570Y015002D01*
X024780Y015142D02*
X024710Y015212D01*
X028029Y014370D02*
X028029Y014090D01*
X028309Y014090D02*
X028309Y014370D01*
X028169Y014510D01*
X028029Y014370D01*
X028029Y014300D02*
X028309Y014300D01*
X029244Y015493D02*
X029384Y015633D01*
X029384Y015913D01*
X029564Y015913D02*
X029564Y015493D01*
X029844Y015493D01*
X030024Y015493D02*
X030024Y015913D01*
X030234Y015913D01*
X030304Y015843D01*
X030304Y015703D01*
X030234Y015633D01*
X030024Y015633D01*
X030164Y015633D02*
X030304Y015493D01*
X030625Y015493D02*
X030625Y015913D01*
X030485Y015913D02*
X030765Y015913D01*
X030945Y015913D02*
X030945Y015493D01*
X031225Y015493D01*
X031405Y015493D02*
X031405Y015913D01*
X031616Y015913D01*
X031686Y015843D01*
X031686Y015703D01*
X031616Y015633D01*
X031405Y015633D01*
X031546Y015633D02*
X031686Y015493D01*
X031686Y015212D02*
X031686Y015142D01*
X031546Y015002D01*
X031546Y014791D01*
X031546Y015002D02*
X031405Y015142D01*
X031405Y015212D01*
X031225Y015072D02*
X031225Y014791D01*
X031225Y015002D02*
X030945Y015002D01*
X030945Y015072D02*
X030945Y014791D01*
X030765Y014791D02*
X030485Y014791D01*
X030485Y015212D01*
X030945Y015072D02*
X031085Y015212D01*
X031225Y015072D01*
X031225Y014510D02*
X030945Y014510D01*
X029244Y015493D02*
X029103Y015633D01*
X029103Y015913D01*
X029564Y015913D02*
X029844Y015913D01*
X029704Y015703D02*
X029564Y015703D01*
X029564Y016475D02*
X029704Y016615D01*
X029844Y016475D01*
X030945Y016405D02*
X031085Y016405D01*
X030945Y016615D02*
X030945Y016195D01*
X031225Y016195D01*
X031405Y016195D02*
X031405Y016615D01*
X031616Y016615D01*
X031686Y016545D01*
X031686Y016405D01*
X031616Y016335D01*
X031405Y016335D01*
X031546Y016335D02*
X031686Y016195D01*
X031225Y015913D02*
X030945Y015913D01*
X030945Y015703D02*
X031085Y015703D01*
X031225Y016615D02*
X030945Y016615D01*
X029112Y017292D02*
X029079Y017296D01*
X029048Y017307D02*
X029150Y018001D01*
X029125Y018027D01*
X029166Y018025D02*
X028935Y018033D01*
X028939Y018081D01*
X028961Y018086D02*
X029439Y018084D01*
X029427Y018031D01*
X029206Y018033D01*
X029211Y017972D01*
X029112Y017292D01*
X029048Y017307D02*
X029039Y017288D01*
X028667Y017292D02*
X028779Y018083D01*
X028786Y018089D01*
X028749Y018087D01*
X028711Y018088D02*
X028601Y017296D01*
X028667Y017292D01*
X028430Y017291D02*
X028167Y017776D01*
X028146Y017725D01*
X028168Y017749D02*
X028405Y018075D01*
X028500Y018084D01*
X028231Y017735D01*
X028140Y017672D02*
X028358Y017293D01*
X028430Y017291D01*
X028034Y017295D02*
X027963Y017292D01*
X028070Y018026D01*
X028086Y018070D02*
X028076Y018080D01*
X028148Y018083D01*
X028034Y017295D01*
X027469Y017380D02*
X027382Y017324D01*
X027274Y017298D01*
X027160Y017305D01*
X027059Y017349D01*
X026969Y017434D01*
X026944Y017510D01*
X026940Y017775D01*
X026998Y017900D01*
X027076Y017986D01*
X027188Y018052D01*
X027294Y018085D01*
X027507Y018092D01*
X027551Y018087D02*
X027564Y018090D01*
X027564Y018031D01*
X027476Y018041D01*
X027358Y018036D01*
X027243Y018007D01*
X027163Y017967D01*
X027102Y017933D01*
X027033Y017843D01*
X026998Y017763D01*
X026982Y017671D01*
X026986Y017564D01*
X027010Y017476D01*
X027054Y017423D01*
X027120Y017373D01*
X027179Y017354D01*
X027279Y017363D01*
X027345Y017366D01*
X027402Y017395D01*
X027416Y017434D01*
X027428Y017551D01*
X027381Y017587D01*
X027345Y017576D01*
X027308Y017573D01*
X027311Y017631D01*
X027503Y017632D01*
X027473Y017588D01*
X027491Y017575D01*
X027469Y017380D01*
X026698Y017287D02*
X026811Y018082D01*
X026744Y018086D01*
X026631Y017289D01*
X026288Y018011D01*
X026196Y017291D01*
X026183Y017291D01*
X026132Y017296D02*
X026246Y018085D01*
X026336Y018078D01*
X026698Y017287D01*
X026312Y017843D02*
X026279Y017824D01*
X026312Y017843D02*
X026287Y017891D01*
X026060Y018087D02*
X026023Y018085D01*
X026053Y018081D02*
X026060Y018087D01*
X026053Y018081D02*
X025941Y017290D01*
X025875Y017294D01*
X025985Y018086D01*
X025811Y018076D02*
X025811Y018017D01*
X025723Y018027D01*
X025605Y018022D01*
X025490Y017993D01*
X025410Y017953D01*
X025349Y017919D01*
X025280Y017829D01*
X025245Y017749D01*
X025229Y017657D01*
X025233Y017550D01*
X025257Y017462D01*
X025301Y017409D01*
X025367Y017359D01*
X025426Y017340D01*
X025526Y017349D01*
X025592Y017352D01*
X025649Y017381D01*
X025663Y017420D01*
X025675Y017537D01*
X025628Y017573D01*
X025592Y017562D01*
X025555Y017559D01*
X025558Y017617D01*
X025750Y017618D01*
X025720Y017574D01*
X025738Y017561D01*
X025716Y017366D01*
X025629Y017310D01*
X025521Y017284D01*
X025407Y017291D01*
X025306Y017335D01*
X025216Y017420D01*
X025191Y017496D01*
X025187Y017761D01*
X025245Y017886D01*
X025323Y017972D01*
X025435Y018038D01*
X025541Y018071D01*
X025754Y018078D01*
X025798Y018073D02*
X025811Y018076D01*
X025034Y017957D02*
X025043Y017886D01*
X025043Y017833D01*
X025013Y017766D01*
X024957Y017720D01*
X024894Y017677D01*
X024852Y017666D01*
X024846Y017626D01*
X025014Y017290D01*
X025026Y017286D01*
X024934Y017296D01*
X024771Y017612D01*
X024749Y017654D01*
X024705Y017664D01*
X024670Y017642D01*
X024654Y017605D01*
X024603Y017294D01*
X024593Y017325D01*
X024577Y017288D01*
X024707Y018022D01*
X024752Y018028D01*
X024861Y018019D01*
X024932Y018003D01*
X024967Y017954D01*
X024987Y017863D01*
X024953Y017807D01*
X024907Y017746D01*
X024858Y017727D01*
X024819Y017680D01*
X024807Y017647D01*
X024822Y017730D01*
X024709Y017739D01*
X024704Y017720D01*
X024778Y017686D01*
X024691Y017750D01*
X024687Y017785D01*
X024717Y017967D01*
X024651Y018084D02*
X024875Y018084D01*
X024943Y018058D01*
X025005Y018008D01*
X025034Y017957D01*
X024651Y018084D02*
X024534Y017293D01*
X024555Y017328D01*
X024536Y017302D01*
X024373Y017281D02*
X024304Y017283D01*
X024190Y018014D01*
X024154Y017866D01*
X024128Y017835D01*
X023877Y017293D01*
X023870Y017290D01*
X023813Y017290D02*
X023800Y017287D01*
X024165Y018078D01*
X024234Y018086D01*
X024373Y017281D01*
X024212Y017521D02*
X024204Y017580D01*
X024066Y017580D01*
X023990Y017524D02*
X024212Y017521D01*
X023636Y017287D02*
X023555Y017286D01*
X023672Y018049D01*
X023680Y018075D02*
X023675Y018082D01*
X023750Y018080D01*
X023636Y017287D01*
X023130Y017297D02*
X023055Y017292D01*
X023168Y018020D01*
X023173Y018068D02*
X023167Y018080D01*
X023248Y018080D01*
X023130Y017297D01*
X022879Y017329D02*
X022908Y017421D01*
X022889Y017397D01*
X022834Y017375D01*
X022778Y017363D01*
X022696Y017352D01*
X022613Y017358D01*
X022546Y017369D01*
X022486Y017405D01*
X022442Y017483D01*
X022408Y017557D01*
X022412Y017657D01*
X022425Y017742D01*
X022449Y017808D01*
X022485Y017878D01*
X022533Y017932D01*
X022629Y017982D01*
X022713Y018022D01*
X022852Y018030D01*
X022990Y018030D01*
X022995Y018089D01*
X022995Y018090D01*
X022961Y018088D02*
X022704Y018081D01*
X022635Y018052D01*
X022541Y018002D01*
X022450Y017923D01*
X022375Y017814D01*
X022350Y017685D01*
X022347Y017548D01*
X022409Y017415D01*
X022499Y017338D01*
X022563Y017306D01*
X022632Y017294D01*
X022719Y017297D01*
X022809Y017308D01*
X022879Y017329D01*
X023241Y017669D02*
X023566Y017666D01*
X023578Y017723D01*
X023232Y017727D01*
X021945Y018026D02*
X021807Y018026D01*
X021668Y018018D01*
X021584Y017978D01*
X021488Y017928D01*
X021440Y017874D01*
X021404Y017804D01*
X021380Y017738D01*
X021367Y017653D01*
X021363Y017553D01*
X021397Y017479D01*
X021441Y017401D01*
X021501Y017365D01*
X021568Y017354D01*
X021651Y017348D01*
X021733Y017359D01*
X021789Y017371D01*
X021844Y017393D01*
X021863Y017417D01*
X021834Y017325D01*
X021764Y017304D01*
X021674Y017293D01*
X021587Y017290D01*
X021518Y017302D01*
X021454Y017334D01*
X021364Y017411D01*
X021302Y017544D01*
X021305Y017681D01*
X021330Y017810D01*
X021405Y017919D01*
X021496Y017998D01*
X021590Y018048D01*
X021659Y018077D01*
X021916Y018084D01*
X021950Y018085D02*
X021945Y018026D01*
X021950Y018085D02*
X021950Y018086D01*
X021149Y017736D02*
X021138Y017668D01*
X020835Y017661D01*
X020844Y017696D01*
X020854Y017736D02*
X021149Y017736D01*
X020645Y017622D02*
X020617Y017636D01*
X020614Y017646D02*
X020655Y017549D01*
X020651Y017452D01*
X020597Y017360D01*
X020535Y017311D01*
X020468Y017295D01*
X020218Y017296D01*
X020257Y017367D01*
X020341Y018018D01*
X020427Y018022D01*
X020507Y018017D01*
X020525Y017983D01*
X020562Y017915D01*
X020557Y017848D01*
X020515Y017790D01*
X020456Y017749D01*
X020393Y017746D01*
X020354Y017746D01*
X020344Y017688D01*
X020411Y017684D01*
X020458Y017680D01*
X020512Y017730D01*
X020497Y017668D01*
X020550Y017631D01*
X020589Y017567D01*
X020593Y017470D01*
X020557Y017399D01*
X020470Y017341D01*
X020311Y017342D01*
X020170Y017291D02*
X020290Y018076D01*
X020507Y018080D01*
X020580Y018026D01*
X020617Y017959D01*
X020619Y017879D01*
X020608Y017826D01*
X020552Y017745D01*
X020563Y017706D01*
X020614Y017646D01*
X020045Y017571D02*
X019995Y017669D01*
X019914Y017724D01*
X019769Y017774D01*
X019766Y017796D01*
X019725Y017887D01*
X019763Y017972D01*
X019821Y018013D01*
X019893Y018030D01*
X020020Y018018D01*
X020014Y018077D02*
X020026Y018077D01*
X019847Y018080D01*
X019769Y018045D01*
X019701Y017977D01*
X019665Y017877D01*
X019707Y017771D01*
X019778Y017718D01*
X019875Y017671D01*
X019933Y017639D01*
X019976Y017569D01*
X019986Y017485D01*
X019928Y017391D01*
X019874Y017355D01*
X019798Y017348D01*
X019679Y017355D01*
X019587Y017389D01*
X019591Y017330D01*
X019587Y017324D01*
X019729Y017288D01*
X019825Y017288D01*
X019914Y017319D01*
X019989Y017379D01*
X020033Y017454D01*
X020045Y017571D01*
X019414Y017452D02*
X019371Y017371D01*
X019293Y017305D01*
X019226Y017282D01*
X019104Y017285D01*
X019030Y017301D01*
X018969Y017348D01*
X018925Y017409D01*
X018915Y017475D01*
X018983Y018079D01*
X019032Y018084D02*
X019058Y018082D01*
X019047Y018072D01*
X018981Y017488D01*
X019006Y017380D01*
X019104Y017337D01*
X019258Y017350D01*
X019301Y017410D01*
X019335Y017423D01*
X019441Y018087D01*
X019507Y018084D01*
X019414Y017452D01*
X018445Y017417D02*
X018416Y017325D01*
X018346Y017304D01*
X018256Y017293D01*
X018169Y017290D01*
X018100Y017302D01*
X018036Y017334D01*
X017946Y017411D01*
X017884Y017544D01*
X017887Y017681D01*
X017912Y017810D01*
X017987Y017919D01*
X018078Y017998D01*
X018172Y018048D01*
X018241Y018077D01*
X018498Y018084D01*
X018532Y018085D02*
X018527Y018026D01*
X018389Y018026D01*
X018250Y018018D01*
X018166Y017978D01*
X018070Y017928D01*
X018022Y017874D01*
X017986Y017804D01*
X017962Y017738D01*
X017949Y017653D01*
X017945Y017553D01*
X017979Y017479D01*
X018023Y017401D01*
X018083Y017365D01*
X018150Y017354D01*
X018233Y017348D01*
X018315Y017359D01*
X018371Y017371D01*
X018426Y017393D01*
X018445Y017417D01*
X017712Y017454D02*
X017658Y017362D01*
X017596Y017313D01*
X017529Y017297D01*
X017279Y017298D01*
X017318Y017369D01*
X017402Y018020D01*
X017488Y018024D01*
X017568Y018019D01*
X017586Y017985D01*
X017623Y017917D01*
X017618Y017850D01*
X017576Y017792D01*
X017517Y017751D01*
X017454Y017748D01*
X017415Y017748D01*
X017405Y017690D01*
X017472Y017686D01*
X017519Y017682D01*
X017573Y017732D01*
X017558Y017670D01*
X017611Y017633D01*
X017650Y017569D01*
X017654Y017472D01*
X017618Y017401D01*
X017531Y017343D01*
X017372Y017344D01*
X017231Y017293D02*
X017351Y018078D01*
X017568Y018082D01*
X017641Y018028D01*
X017678Y017961D01*
X017680Y017881D01*
X017669Y017828D01*
X017613Y017747D01*
X017624Y017708D01*
X017675Y017648D01*
X017716Y017551D01*
X017712Y017454D01*
X017701Y017621D02*
X017675Y017639D01*
X017110Y017623D02*
X017080Y017579D01*
X017098Y017566D01*
X017076Y017371D01*
X016989Y017315D01*
X016881Y017289D01*
X016767Y017296D01*
X016666Y017340D01*
X016576Y017425D01*
X016551Y017501D01*
X016547Y017766D01*
X016605Y017891D01*
X016683Y017977D01*
X016795Y018043D01*
X016901Y018076D01*
X017114Y018083D01*
X017158Y018078D02*
X017171Y018081D01*
X017171Y018022D01*
X017083Y018032D01*
X016965Y018027D01*
X016850Y017998D01*
X016770Y017958D01*
X016709Y017924D01*
X016640Y017834D01*
X016605Y017754D01*
X016589Y017662D01*
X016593Y017555D01*
X016617Y017467D01*
X016661Y017414D01*
X016727Y017364D01*
X016786Y017345D01*
X016886Y017354D01*
X016952Y017357D01*
X017009Y017386D01*
X017023Y017425D01*
X017035Y017542D01*
X016988Y017578D01*
X016952Y017567D01*
X016915Y017564D01*
X016918Y017622D01*
X017110Y017623D01*
X018532Y018086D02*
X018532Y018085D01*
X007566Y016263D02*
X007566Y014755D01*
X005865Y014702D02*
X005865Y015056D01*
X005865Y015942D02*
X005865Y016316D01*
X031282Y018069D02*
X031319Y018097D01*
X031358Y018104D01*
X031401Y018107D01*
X031457Y018106D01*
X031515Y018094D01*
D14*
X030718Y012459D02*
X030720Y012507D01*
X030726Y012555D01*
X030736Y012602D01*
X030749Y012648D01*
X030767Y012693D01*
X030787Y012737D01*
X030812Y012779D01*
X030840Y012818D01*
X030870Y012855D01*
X030904Y012889D01*
X030941Y012921D01*
X030979Y012950D01*
X031020Y012975D01*
X031063Y012997D01*
X031108Y013015D01*
X031154Y013029D01*
X031201Y013040D01*
X031249Y013047D01*
X031297Y013050D01*
X031345Y013049D01*
X031393Y013044D01*
X031441Y013035D01*
X031487Y013023D01*
X031532Y013006D01*
X031576Y012986D01*
X031618Y012963D01*
X031658Y012936D01*
X031696Y012906D01*
X031731Y012873D01*
X031763Y012837D01*
X031793Y012799D01*
X031819Y012758D01*
X031841Y012715D01*
X031861Y012671D01*
X031876Y012626D01*
X031888Y012579D01*
X031896Y012531D01*
X031900Y012483D01*
X031900Y012435D01*
X031896Y012387D01*
X031888Y012339D01*
X031876Y012292D01*
X031861Y012247D01*
X031841Y012203D01*
X031819Y012160D01*
X031793Y012119D01*
X031763Y012081D01*
X031731Y012045D01*
X031696Y012012D01*
X031658Y011982D01*
X031618Y011955D01*
X031576Y011932D01*
X031532Y011912D01*
X031487Y011895D01*
X031441Y011883D01*
X031393Y011874D01*
X031345Y011869D01*
X031297Y011868D01*
X031249Y011871D01*
X031201Y011878D01*
X031154Y011889D01*
X031108Y011903D01*
X031063Y011921D01*
X031020Y011943D01*
X030979Y011968D01*
X030941Y011997D01*
X030904Y012029D01*
X030870Y012063D01*
X030840Y012100D01*
X030812Y012139D01*
X030787Y012181D01*
X030767Y012225D01*
X030749Y012270D01*
X030736Y012316D01*
X030726Y012363D01*
X030720Y012411D01*
X030718Y012459D01*
X030718Y002959D02*
X030720Y003007D01*
X030726Y003055D01*
X030736Y003102D01*
X030749Y003148D01*
X030767Y003193D01*
X030787Y003237D01*
X030812Y003279D01*
X030840Y003318D01*
X030870Y003355D01*
X030904Y003389D01*
X030941Y003421D01*
X030979Y003450D01*
X031020Y003475D01*
X031063Y003497D01*
X031108Y003515D01*
X031154Y003529D01*
X031201Y003540D01*
X031249Y003547D01*
X031297Y003550D01*
X031345Y003549D01*
X031393Y003544D01*
X031441Y003535D01*
X031487Y003523D01*
X031532Y003506D01*
X031576Y003486D01*
X031618Y003463D01*
X031658Y003436D01*
X031696Y003406D01*
X031731Y003373D01*
X031763Y003337D01*
X031793Y003299D01*
X031819Y003258D01*
X031841Y003215D01*
X031861Y003171D01*
X031876Y003126D01*
X031888Y003079D01*
X031896Y003031D01*
X031900Y002983D01*
X031900Y002935D01*
X031896Y002887D01*
X031888Y002839D01*
X031876Y002792D01*
X031861Y002747D01*
X031841Y002703D01*
X031819Y002660D01*
X031793Y002619D01*
X031763Y002581D01*
X031731Y002545D01*
X031696Y002512D01*
X031658Y002482D01*
X031618Y002455D01*
X031576Y002432D01*
X031532Y002412D01*
X031487Y002395D01*
X031441Y002383D01*
X031393Y002374D01*
X031345Y002369D01*
X031297Y002368D01*
X031249Y002371D01*
X031201Y002378D01*
X031154Y002389D01*
X031108Y002403D01*
X031063Y002421D01*
X031020Y002443D01*
X030979Y002468D01*
X030941Y002497D01*
X030904Y002529D01*
X030870Y002563D01*
X030840Y002600D01*
X030812Y002639D01*
X030787Y002681D01*
X030767Y002725D01*
X030749Y002770D01*
X030736Y002816D01*
X030726Y002863D01*
X030720Y002911D01*
X030718Y002959D01*
X001440Y002959D02*
X001442Y003007D01*
X001448Y003055D01*
X001458Y003102D01*
X001471Y003148D01*
X001489Y003193D01*
X001509Y003237D01*
X001534Y003279D01*
X001562Y003318D01*
X001592Y003355D01*
X001626Y003389D01*
X001663Y003421D01*
X001701Y003450D01*
X001742Y003475D01*
X001785Y003497D01*
X001830Y003515D01*
X001876Y003529D01*
X001923Y003540D01*
X001971Y003547D01*
X002019Y003550D01*
X002067Y003549D01*
X002115Y003544D01*
X002163Y003535D01*
X002209Y003523D01*
X002254Y003506D01*
X002298Y003486D01*
X002340Y003463D01*
X002380Y003436D01*
X002418Y003406D01*
X002453Y003373D01*
X002485Y003337D01*
X002515Y003299D01*
X002541Y003258D01*
X002563Y003215D01*
X002583Y003171D01*
X002598Y003126D01*
X002610Y003079D01*
X002618Y003031D01*
X002622Y002983D01*
X002622Y002935D01*
X002618Y002887D01*
X002610Y002839D01*
X002598Y002792D01*
X002583Y002747D01*
X002563Y002703D01*
X002541Y002660D01*
X002515Y002619D01*
X002485Y002581D01*
X002453Y002545D01*
X002418Y002512D01*
X002380Y002482D01*
X002340Y002455D01*
X002298Y002432D01*
X002254Y002412D01*
X002209Y002395D01*
X002163Y002383D01*
X002115Y002374D01*
X002067Y002369D01*
X002019Y002368D01*
X001971Y002371D01*
X001923Y002378D01*
X001876Y002389D01*
X001830Y002403D01*
X001785Y002421D01*
X001742Y002443D01*
X001701Y002468D01*
X001663Y002497D01*
X001626Y002529D01*
X001592Y002563D01*
X001562Y002600D01*
X001534Y002639D01*
X001509Y002681D01*
X001489Y002725D01*
X001471Y002770D01*
X001458Y002816D01*
X001448Y002863D01*
X001442Y002911D01*
X001440Y002959D01*
X001440Y012459D02*
X001442Y012507D01*
X001448Y012555D01*
X001458Y012602D01*
X001471Y012648D01*
X001489Y012693D01*
X001509Y012737D01*
X001534Y012779D01*
X001562Y012818D01*
X001592Y012855D01*
X001626Y012889D01*
X001663Y012921D01*
X001701Y012950D01*
X001742Y012975D01*
X001785Y012997D01*
X001830Y013015D01*
X001876Y013029D01*
X001923Y013040D01*
X001971Y013047D01*
X002019Y013050D01*
X002067Y013049D01*
X002115Y013044D01*
X002163Y013035D01*
X002209Y013023D01*
X002254Y013006D01*
X002298Y012986D01*
X002340Y012963D01*
X002380Y012936D01*
X002418Y012906D01*
X002453Y012873D01*
X002485Y012837D01*
X002515Y012799D01*
X002541Y012758D01*
X002563Y012715D01*
X002583Y012671D01*
X002598Y012626D01*
X002610Y012579D01*
X002618Y012531D01*
X002622Y012483D01*
X002622Y012435D01*
X002618Y012387D01*
X002610Y012339D01*
X002598Y012292D01*
X002583Y012247D01*
X002563Y012203D01*
X002541Y012160D01*
X002515Y012119D01*
X002485Y012081D01*
X002453Y012045D01*
X002418Y012012D01*
X002380Y011982D01*
X002340Y011955D01*
X002298Y011932D01*
X002254Y011912D01*
X002209Y011895D01*
X002163Y011883D01*
X002115Y011874D01*
X002067Y011869D01*
X002019Y011868D01*
X001971Y011871D01*
X001923Y011878D01*
X001876Y011889D01*
X001830Y011903D01*
X001785Y011921D01*
X001742Y011943D01*
X001701Y011968D01*
X001663Y011997D01*
X001626Y012029D01*
X001592Y012063D01*
X001562Y012100D01*
X001534Y012139D01*
X001509Y012181D01*
X001489Y012225D01*
X001471Y012270D01*
X001458Y012316D01*
X001448Y012363D01*
X001442Y012411D01*
X001440Y012459D01*
D15*
X006622Y005295D02*
X006642Y005295D01*
X006732Y005215D02*
X006752Y005215D01*
X006822Y005145D02*
X006842Y005145D01*
X006742Y005035D02*
X006722Y005035D01*
X006642Y005115D02*
X006622Y005115D01*
X006552Y005185D02*
X006532Y005185D01*
X006452Y005265D02*
X006432Y005265D01*
X006352Y005155D02*
X006332Y005155D01*
X006262Y005245D02*
X006242Y005245D01*
X006152Y005135D02*
X006132Y005135D01*
X006232Y005045D02*
X006252Y005045D01*
X006332Y004965D02*
X006352Y004965D01*
X006422Y004895D02*
X006442Y004895D01*
X006522Y004815D02*
X006542Y004815D01*
X006602Y004725D02*
X006622Y004725D01*
X006712Y004655D02*
X006732Y004655D01*
X006802Y004755D02*
X006822Y004755D01*
X006732Y004845D02*
X006712Y004845D01*
X006642Y004925D02*
X006622Y004925D01*
X006542Y004995D02*
X006522Y004995D01*
X006452Y005075D02*
X006432Y005075D01*
X006242Y004855D02*
X006222Y004855D01*
X006152Y004935D02*
X006132Y004935D01*
X006152Y004735D02*
X006132Y004735D01*
X006222Y004665D02*
X006242Y004665D01*
X006312Y004595D02*
X006332Y004595D01*
X006412Y004695D02*
X006432Y004695D01*
X006512Y004625D02*
X006532Y004625D01*
X006352Y004775D02*
X006332Y004775D01*
X006812Y004955D02*
X006832Y004955D01*
X004155Y003564D02*
X004121Y003621D01*
X004079Y003672D01*
X004041Y003705D01*
X004016Y003719D01*
X003963Y003732D01*
X003896Y003737D01*
X003827Y003726D01*
X003770Y003711D01*
X003714Y003690D01*
X003682Y003672D01*
X003654Y003648D01*
X003625Y003616D01*
X003596Y003571D01*
X003575Y003526D01*
X003555Y003464D01*
X003537Y003404D01*
X003522Y003280D01*
X003520Y003152D01*
X003538Y003068D01*
X003563Y002985D01*
X003594Y002924D01*
X003647Y002861D01*
X003715Y002814D01*
X003785Y002781D01*
X003838Y002769D01*
X003856Y002765D01*
X003915Y002766D01*
X003929Y002766D02*
X003984Y002771D01*
X004048Y002793D01*
X004094Y002818D01*
X004137Y002856D01*
X004165Y002891D01*
X004179Y002928D01*
X004184Y002964D01*
X004181Y002984D01*
X004169Y003008D01*
X004155Y003024D01*
X004135Y003032D01*
X004126Y003033D01*
X004104Y003026D01*
X004086Y003011D01*
X004057Y002972D01*
X004016Y002938D01*
X003962Y002916D01*
X003943Y002910D01*
X003861Y002908D01*
X003806Y002925D01*
X003766Y002948D01*
X003725Y002984D01*
X003692Y003028D01*
X003669Y003077D01*
X003652Y003122D01*
X003644Y003162D01*
X003641Y003298D01*
X003646Y003314D01*
X003658Y003392D01*
X003684Y003464D01*
X003708Y003504D01*
X003751Y003540D01*
X003790Y003561D01*
X003850Y003583D01*
X003881Y003589D01*
X003949Y003591D01*
X003993Y003571D01*
X004026Y003534D01*
X004048Y003498D01*
X004060Y003482D01*
X004085Y003466D01*
X004116Y003464D01*
X004134Y003478D01*
X004150Y003498D01*
X004158Y003513D01*
X004158Y003548D01*
X004155Y003564D01*
X003929Y002766D02*
X003895Y002767D01*
X013967Y003805D02*
X013967Y004123D01*
X014756Y004123D01*
X014756Y003805D01*
X013967Y003805D01*
X016835Y004334D02*
X017152Y004334D01*
X017152Y005123D01*
X016835Y005123D01*
X016835Y004334D01*
X017195Y004334D02*
X017512Y004334D01*
X017512Y005123D01*
X017195Y005123D01*
X017195Y004334D01*
X017164Y006053D02*
X016944Y006053D01*
X016931Y006055D01*
X016919Y006060D01*
X016909Y006068D01*
X016901Y006078D01*
X016896Y006090D01*
X016894Y006103D01*
X016894Y006813D01*
X016896Y006826D01*
X016901Y006838D01*
X016909Y006848D01*
X016919Y006856D01*
X016931Y006861D01*
X016944Y006863D01*
X017164Y006863D01*
X017177Y006861D01*
X017189Y006856D01*
X017199Y006848D01*
X017207Y006838D01*
X017212Y006826D01*
X017214Y006813D01*
X017214Y006103D01*
X017212Y006090D01*
X017207Y006078D01*
X017199Y006068D01*
X017189Y006060D01*
X017177Y006055D01*
X017164Y006053D01*
X017314Y006079D02*
X017314Y006265D01*
X017314Y006172D02*
X017594Y006172D01*
X017501Y006265D01*
X017594Y006373D02*
X017594Y006467D01*
X017594Y006420D02*
X017361Y006420D01*
X017314Y006467D01*
X017314Y006513D01*
X017361Y006560D01*
X017361Y006668D02*
X017314Y006715D01*
X017314Y006808D01*
X017361Y006855D01*
X017454Y006808D02*
X017501Y006855D01*
X017548Y006855D01*
X017594Y006808D01*
X017594Y006715D01*
X017548Y006668D01*
X017454Y006715D02*
X017407Y006668D01*
X017361Y006668D01*
X017454Y006715D02*
X017454Y006808D01*
X017702Y007549D02*
X017702Y007866D01*
X018491Y007866D01*
X018491Y007549D01*
X017702Y007549D01*
X018602Y007548D02*
X018602Y007866D01*
X019391Y007866D01*
X019391Y007548D01*
X018602Y007548D01*
X019502Y007549D02*
X019502Y007866D01*
X020291Y007866D01*
X020291Y007549D01*
X019502Y007549D01*
X020869Y008393D02*
X020869Y009182D01*
X021186Y009182D01*
X021186Y008393D01*
X020869Y008393D01*
X020869Y009283D02*
X020869Y010072D01*
X021186Y010072D01*
X021186Y009283D01*
X020869Y009283D01*
X020868Y010183D02*
X021186Y010183D01*
X021186Y010972D01*
X020868Y010972D01*
X020868Y010183D01*
X025183Y008386D02*
X025183Y008068D01*
X025972Y008068D01*
X025972Y008386D01*
X025183Y008386D01*
X025183Y007960D02*
X025183Y007642D01*
X025972Y007642D01*
X025972Y007960D01*
X025183Y007960D01*
X023278Y007621D02*
X023278Y006832D01*
X022960Y006832D01*
X022960Y007621D01*
X023278Y007621D01*
X024333Y004994D02*
X025122Y004994D01*
X025122Y004677D01*
X024333Y004677D01*
X024333Y004994D01*
X025385Y004927D02*
X025385Y004138D01*
X025703Y004138D01*
X025703Y004927D01*
X025385Y004927D01*
X025847Y004897D02*
X025847Y004579D01*
X026636Y004579D01*
X026636Y004897D01*
X025847Y004897D01*
X025847Y004485D02*
X026636Y004485D01*
X026636Y004168D01*
X025847Y004168D01*
X025847Y004485D01*
X025122Y003979D02*
X025122Y003661D01*
X024333Y003661D01*
X024333Y003979D01*
X025122Y003979D01*
X023384Y004098D02*
X023384Y003780D01*
X022596Y003780D01*
X022596Y004098D01*
X023384Y004098D01*
X023384Y003687D02*
X023384Y003370D01*
X022596Y003370D01*
X022596Y003687D01*
X023384Y003687D01*
X022475Y003688D02*
X022475Y003370D01*
X021687Y003370D01*
X021687Y003688D01*
X022475Y003688D01*
X022475Y003780D02*
X021687Y003780D01*
X021687Y004098D01*
X022475Y004098D01*
X022475Y003780D01*
X028391Y017276D02*
X028466Y017270D01*
X028410Y018068D02*
X028534Y018106D01*
D16*
X004462Y009125D02*
X004462Y008715D01*
X004372Y008715D01*
X004372Y009035D01*
X019443Y001827D02*
X019643Y001827D01*
X019543Y001927D01*
X019443Y001827D01*
D17*
X007072Y004525D02*
X007072Y009825D01*
X007070Y009847D01*
X007065Y009868D01*
X007057Y009889D01*
X007045Y009907D01*
X007031Y009924D01*
X007014Y009938D01*
X006996Y009950D01*
X006975Y009958D01*
X006954Y009963D01*
X006932Y009965D01*
X003902Y009965D01*
X003880Y009963D01*
X003859Y009958D01*
X003838Y009950D01*
X003820Y009938D01*
X003803Y009924D01*
X003789Y009907D01*
X003777Y009889D01*
X003769Y009868D01*
X003764Y009847D01*
X003762Y009825D01*
X003762Y004525D01*
X004372Y005875D02*
X004482Y005875D01*
X004482Y006545D01*
X004372Y006545D01*
X004372Y006245D01*
X004372Y006145D02*
X004372Y005875D01*
X004372Y006145D02*
X004102Y006145D01*
X004102Y006265D01*
X004752Y006265D01*
X004752Y006145D01*
X004212Y006145D01*
X005922Y006085D02*
X005962Y006085D01*
X005970Y006083D01*
X005976Y006079D01*
X005980Y006073D01*
X005982Y006065D01*
X005850Y006065D02*
X005852Y006087D01*
X005858Y006108D01*
X005867Y006128D01*
X005880Y006145D01*
X005896Y006160D01*
X005914Y006172D01*
X005934Y006181D01*
X005956Y006186D01*
X005977Y006187D01*
X005999Y006184D01*
X006020Y006177D01*
X006039Y006167D01*
X006056Y006153D01*
X006071Y006137D01*
X006082Y006118D01*
X006090Y006097D01*
X006094Y006076D01*
X006094Y006054D01*
X006090Y006033D01*
X006082Y006012D01*
X006071Y005993D01*
X006056Y005977D01*
X006039Y005963D01*
X006020Y005953D01*
X005999Y005946D01*
X005977Y005943D01*
X005956Y005944D01*
X005934Y005949D01*
X005914Y005958D01*
X005896Y005970D01*
X005880Y005985D01*
X005867Y006002D01*
X005858Y006022D01*
X005852Y006043D01*
X005850Y006065D01*
X006512Y006275D02*
X006632Y006275D01*
X006637Y006274D01*
X006641Y006270D01*
X006642Y006265D01*
X006468Y006275D02*
X006470Y006297D01*
X006475Y006317D01*
X006485Y006337D01*
X006497Y006355D01*
X006512Y006370D01*
X006530Y006382D01*
X006550Y006392D01*
X006570Y006397D01*
X006592Y006399D01*
X006614Y006397D01*
X006634Y006392D01*
X006654Y006382D01*
X006672Y006370D01*
X006687Y006355D01*
X006699Y006337D01*
X006709Y006317D01*
X006714Y006297D01*
X006716Y006275D01*
X006714Y006253D01*
X006709Y006233D01*
X006699Y006213D01*
X006687Y006195D01*
X006672Y006180D01*
X006654Y006168D01*
X006634Y006158D01*
X006614Y006153D01*
X006592Y006151D01*
X006570Y006153D01*
X006550Y006158D01*
X006530Y006168D01*
X006512Y006180D01*
X006497Y006195D01*
X006485Y006213D01*
X006475Y006233D01*
X006470Y006253D01*
X006468Y006275D01*
X007072Y004525D02*
X006843Y004450D01*
X006610Y004387D01*
X006375Y004334D01*
X006138Y004294D01*
X005898Y004264D01*
X005658Y004247D01*
X005417Y004241D01*
X005176Y004247D01*
X004936Y004264D01*
X004696Y004294D01*
X004459Y004334D01*
X004224Y004387D01*
X003991Y004450D01*
X003762Y004525D01*
X005596Y014910D02*
X005598Y014923D01*
X005604Y014935D01*
X005613Y014944D01*
X005624Y014951D01*
X005637Y014954D01*
X005650Y014953D01*
X005662Y014948D01*
X005672Y014940D01*
X005680Y014929D01*
X005684Y014917D01*
X005684Y014903D01*
X005680Y014891D01*
X005672Y014880D01*
X005662Y014872D01*
X005650Y014867D01*
X005637Y014866D01*
X005624Y014869D01*
X005613Y014876D01*
X005604Y014885D01*
X005598Y014897D01*
X005596Y014910D01*
D18*
X013967Y005252D02*
X013967Y004837D01*
X013967Y004842D02*
X013967Y004527D01*
X014756Y004527D01*
X014756Y004842D01*
X013967Y004842D01*
X013967Y004887D02*
X013967Y005202D01*
X014756Y005202D01*
X014756Y004887D01*
X013967Y004887D01*
X013967Y004892D02*
X013967Y004477D01*
X013967Y004482D02*
X013967Y004167D01*
X014756Y004167D01*
X014756Y004482D01*
X013967Y004482D01*
X013967Y004532D02*
X013967Y004117D01*
X016836Y003979D02*
X016836Y003190D01*
X017151Y003190D01*
X017151Y003979D01*
X016836Y003979D01*
X017196Y003979D02*
X017196Y003190D01*
X017511Y003190D01*
X017511Y003979D01*
X017196Y003979D01*
X017201Y003190D02*
X016786Y003190D01*
X017146Y003190D02*
X017561Y003190D01*
D19*
X006784Y004755D02*
X006786Y004765D01*
X006791Y004774D01*
X006800Y004780D01*
X006809Y004783D01*
X006820Y004782D01*
X006829Y004777D01*
X006836Y004770D01*
X006840Y004760D01*
X006840Y004750D01*
X006836Y004740D01*
X006829Y004733D01*
X006820Y004728D01*
X006809Y004727D01*
X006800Y004730D01*
X006791Y004736D01*
X006786Y004745D01*
X006784Y004755D01*
X006694Y004845D02*
X006696Y004855D01*
X006701Y004864D01*
X006710Y004870D01*
X006719Y004873D01*
X006730Y004872D01*
X006739Y004867D01*
X006746Y004860D01*
X006750Y004850D01*
X006750Y004840D01*
X006746Y004830D01*
X006739Y004823D01*
X006730Y004818D01*
X006719Y004817D01*
X006710Y004820D01*
X006701Y004826D01*
X006696Y004835D01*
X006694Y004845D01*
X006604Y004925D02*
X006606Y004935D01*
X006611Y004944D01*
X006620Y004950D01*
X006629Y004953D01*
X006640Y004952D01*
X006649Y004947D01*
X006656Y004940D01*
X006660Y004930D01*
X006660Y004920D01*
X006656Y004910D01*
X006649Y004903D01*
X006640Y004898D01*
X006629Y004897D01*
X006620Y004900D01*
X006611Y004906D01*
X006606Y004915D01*
X006604Y004925D01*
X006504Y004995D02*
X006506Y005005D01*
X006511Y005014D01*
X006520Y005020D01*
X006529Y005023D01*
X006540Y005022D01*
X006549Y005017D01*
X006556Y005010D01*
X006560Y005000D01*
X006560Y004990D01*
X006556Y004980D01*
X006549Y004973D01*
X006540Y004968D01*
X006529Y004967D01*
X006520Y004970D01*
X006511Y004976D01*
X006506Y004985D01*
X006504Y004995D01*
X006414Y005075D02*
X006416Y005085D01*
X006421Y005094D01*
X006430Y005100D01*
X006439Y005103D01*
X006450Y005102D01*
X006459Y005097D01*
X006466Y005090D01*
X006470Y005080D01*
X006470Y005070D01*
X006466Y005060D01*
X006459Y005053D01*
X006450Y005048D01*
X006439Y005047D01*
X006430Y005050D01*
X006421Y005056D01*
X006416Y005065D01*
X006414Y005075D01*
X006314Y005155D02*
X006316Y005165D01*
X006321Y005174D01*
X006330Y005180D01*
X006339Y005183D01*
X006350Y005182D01*
X006359Y005177D01*
X006366Y005170D01*
X006370Y005160D01*
X006370Y005150D01*
X006366Y005140D01*
X006359Y005133D01*
X006350Y005128D01*
X006339Y005127D01*
X006330Y005130D01*
X006321Y005136D01*
X006316Y005145D01*
X006314Y005155D01*
X006224Y005245D02*
X006226Y005255D01*
X006231Y005264D01*
X006240Y005270D01*
X006249Y005273D01*
X006260Y005272D01*
X006269Y005267D01*
X006276Y005260D01*
X006280Y005250D01*
X006280Y005240D01*
X006276Y005230D01*
X006269Y005223D01*
X006260Y005218D01*
X006249Y005217D01*
X006240Y005220D01*
X006231Y005226D01*
X006226Y005235D01*
X006224Y005245D01*
X006114Y005135D02*
X006116Y005145D01*
X006121Y005154D01*
X006130Y005160D01*
X006139Y005163D01*
X006150Y005162D01*
X006159Y005157D01*
X006166Y005150D01*
X006170Y005140D01*
X006170Y005130D01*
X006166Y005120D01*
X006159Y005113D01*
X006150Y005108D01*
X006139Y005107D01*
X006130Y005110D01*
X006121Y005116D01*
X006116Y005125D01*
X006114Y005135D01*
X006214Y005045D02*
X006216Y005055D01*
X006221Y005064D01*
X006230Y005070D01*
X006239Y005073D01*
X006250Y005072D01*
X006259Y005067D01*
X006266Y005060D01*
X006270Y005050D01*
X006270Y005040D01*
X006266Y005030D01*
X006259Y005023D01*
X006250Y005018D01*
X006239Y005017D01*
X006230Y005020D01*
X006221Y005026D01*
X006216Y005035D01*
X006214Y005045D01*
X006114Y004935D02*
X006116Y004945D01*
X006121Y004954D01*
X006130Y004960D01*
X006139Y004963D01*
X006150Y004962D01*
X006159Y004957D01*
X006166Y004950D01*
X006170Y004940D01*
X006170Y004930D01*
X006166Y004920D01*
X006159Y004913D01*
X006150Y004908D01*
X006139Y004907D01*
X006130Y004910D01*
X006121Y004916D01*
X006116Y004925D01*
X006114Y004935D01*
X006204Y004855D02*
X006206Y004865D01*
X006211Y004874D01*
X006220Y004880D01*
X006229Y004883D01*
X006240Y004882D01*
X006249Y004877D01*
X006256Y004870D01*
X006260Y004860D01*
X006260Y004850D01*
X006256Y004840D01*
X006249Y004833D01*
X006240Y004828D01*
X006229Y004827D01*
X006220Y004830D01*
X006211Y004836D01*
X006206Y004845D01*
X006204Y004855D01*
X006114Y004735D02*
X006116Y004745D01*
X006121Y004754D01*
X006130Y004760D01*
X006139Y004763D01*
X006150Y004762D01*
X006159Y004757D01*
X006166Y004750D01*
X006170Y004740D01*
X006170Y004730D01*
X006166Y004720D01*
X006159Y004713D01*
X006150Y004708D01*
X006139Y004707D01*
X006130Y004710D01*
X006121Y004716D01*
X006116Y004725D01*
X006114Y004735D01*
X006204Y004665D02*
X006206Y004675D01*
X006211Y004684D01*
X006220Y004690D01*
X006229Y004693D01*
X006240Y004692D01*
X006249Y004687D01*
X006256Y004680D01*
X006260Y004670D01*
X006260Y004660D01*
X006256Y004650D01*
X006249Y004643D01*
X006240Y004638D01*
X006229Y004637D01*
X006220Y004640D01*
X006211Y004646D01*
X006206Y004655D01*
X006204Y004665D01*
X006294Y004595D02*
X006296Y004605D01*
X006301Y004614D01*
X006310Y004620D01*
X006319Y004623D01*
X006330Y004622D01*
X006339Y004617D01*
X006346Y004610D01*
X006350Y004600D01*
X006350Y004590D01*
X006346Y004580D01*
X006339Y004573D01*
X006330Y004568D01*
X006319Y004567D01*
X006310Y004570D01*
X006301Y004576D01*
X006296Y004585D01*
X006294Y004595D01*
X006394Y004695D02*
X006396Y004705D01*
X006401Y004714D01*
X006410Y004720D01*
X006419Y004723D01*
X006430Y004722D01*
X006439Y004717D01*
X006446Y004710D01*
X006450Y004700D01*
X006450Y004690D01*
X006446Y004680D01*
X006439Y004673D01*
X006430Y004668D01*
X006419Y004667D01*
X006410Y004670D01*
X006401Y004676D01*
X006396Y004685D01*
X006394Y004695D01*
X006314Y004775D02*
X006316Y004785D01*
X006321Y004794D01*
X006330Y004800D01*
X006339Y004803D01*
X006350Y004802D01*
X006359Y004797D01*
X006366Y004790D01*
X006370Y004780D01*
X006370Y004770D01*
X006366Y004760D01*
X006359Y004753D01*
X006350Y004748D01*
X006339Y004747D01*
X006330Y004750D01*
X006321Y004756D01*
X006316Y004765D01*
X006314Y004775D01*
X006404Y004895D02*
X006406Y004905D01*
X006411Y004914D01*
X006420Y004920D01*
X006429Y004923D01*
X006440Y004922D01*
X006449Y004917D01*
X006456Y004910D01*
X006460Y004900D01*
X006460Y004890D01*
X006456Y004880D01*
X006449Y004873D01*
X006440Y004868D01*
X006429Y004867D01*
X006420Y004870D01*
X006411Y004876D01*
X006406Y004885D01*
X006404Y004895D01*
X006314Y004965D02*
X006316Y004975D01*
X006321Y004984D01*
X006330Y004990D01*
X006339Y004993D01*
X006350Y004992D01*
X006359Y004987D01*
X006366Y004980D01*
X006370Y004970D01*
X006370Y004960D01*
X006366Y004950D01*
X006359Y004943D01*
X006350Y004938D01*
X006339Y004937D01*
X006330Y004940D01*
X006321Y004946D01*
X006316Y004955D01*
X006314Y004965D01*
X006504Y004815D02*
X006506Y004825D01*
X006511Y004834D01*
X006520Y004840D01*
X006529Y004843D01*
X006540Y004842D01*
X006549Y004837D01*
X006556Y004830D01*
X006560Y004820D01*
X006560Y004810D01*
X006556Y004800D01*
X006549Y004793D01*
X006540Y004788D01*
X006529Y004787D01*
X006520Y004790D01*
X006511Y004796D01*
X006506Y004805D01*
X006504Y004815D01*
X006584Y004725D02*
X006586Y004735D01*
X006591Y004744D01*
X006600Y004750D01*
X006609Y004753D01*
X006620Y004752D01*
X006629Y004747D01*
X006636Y004740D01*
X006640Y004730D01*
X006640Y004720D01*
X006636Y004710D01*
X006629Y004703D01*
X006620Y004698D01*
X006609Y004697D01*
X006600Y004700D01*
X006591Y004706D01*
X006586Y004715D01*
X006584Y004725D01*
X006494Y004625D02*
X006496Y004635D01*
X006501Y004644D01*
X006510Y004650D01*
X006519Y004653D01*
X006530Y004652D01*
X006539Y004647D01*
X006546Y004640D01*
X006550Y004630D01*
X006550Y004620D01*
X006546Y004610D01*
X006539Y004603D01*
X006530Y004598D01*
X006519Y004597D01*
X006510Y004600D01*
X006501Y004606D01*
X006496Y004615D01*
X006494Y004625D01*
X006694Y004655D02*
X006696Y004665D01*
X006701Y004674D01*
X006710Y004680D01*
X006719Y004683D01*
X006730Y004682D01*
X006739Y004677D01*
X006746Y004670D01*
X006750Y004660D01*
X006750Y004650D01*
X006746Y004640D01*
X006739Y004633D01*
X006730Y004628D01*
X006719Y004627D01*
X006710Y004630D01*
X006701Y004636D01*
X006696Y004645D01*
X006694Y004655D01*
X006794Y004955D02*
X006796Y004965D01*
X006801Y004974D01*
X006810Y004980D01*
X006819Y004983D01*
X006830Y004982D01*
X006839Y004977D01*
X006846Y004970D01*
X006850Y004960D01*
X006850Y004950D01*
X006846Y004940D01*
X006839Y004933D01*
X006830Y004928D01*
X006819Y004927D01*
X006810Y004930D01*
X006801Y004936D01*
X006796Y004945D01*
X006794Y004955D01*
X006704Y005035D02*
X006706Y005045D01*
X006711Y005054D01*
X006720Y005060D01*
X006729Y005063D01*
X006740Y005062D01*
X006749Y005057D01*
X006756Y005050D01*
X006760Y005040D01*
X006760Y005030D01*
X006756Y005020D01*
X006749Y005013D01*
X006740Y005008D01*
X006729Y005007D01*
X006720Y005010D01*
X006711Y005016D01*
X006706Y005025D01*
X006704Y005035D01*
X006604Y005115D02*
X006606Y005125D01*
X006611Y005134D01*
X006620Y005140D01*
X006629Y005143D01*
X006640Y005142D01*
X006649Y005137D01*
X006656Y005130D01*
X006660Y005120D01*
X006660Y005110D01*
X006656Y005100D01*
X006649Y005093D01*
X006640Y005088D01*
X006629Y005087D01*
X006620Y005090D01*
X006611Y005096D01*
X006606Y005105D01*
X006604Y005115D01*
X006514Y005185D02*
X006516Y005195D01*
X006521Y005204D01*
X006530Y005210D01*
X006539Y005213D01*
X006550Y005212D01*
X006559Y005207D01*
X006566Y005200D01*
X006570Y005190D01*
X006570Y005180D01*
X006566Y005170D01*
X006559Y005163D01*
X006550Y005158D01*
X006539Y005157D01*
X006530Y005160D01*
X006521Y005166D01*
X006516Y005175D01*
X006514Y005185D01*
X006414Y005265D02*
X006416Y005275D01*
X006421Y005284D01*
X006430Y005290D01*
X006439Y005293D01*
X006450Y005292D01*
X006459Y005287D01*
X006466Y005280D01*
X006470Y005270D01*
X006470Y005260D01*
X006466Y005250D01*
X006459Y005243D01*
X006450Y005238D01*
X006439Y005237D01*
X006430Y005240D01*
X006421Y005246D01*
X006416Y005255D01*
X006414Y005265D01*
X006604Y005295D02*
X006606Y005305D01*
X006611Y005314D01*
X006620Y005320D01*
X006629Y005323D01*
X006640Y005322D01*
X006649Y005317D01*
X006656Y005310D01*
X006660Y005300D01*
X006660Y005290D01*
X006656Y005280D01*
X006649Y005273D01*
X006640Y005268D01*
X006629Y005267D01*
X006620Y005270D01*
X006611Y005276D01*
X006606Y005285D01*
X006604Y005295D01*
X006714Y005215D02*
X006716Y005225D01*
X006721Y005234D01*
X006730Y005240D01*
X006739Y005243D01*
X006750Y005242D01*
X006759Y005237D01*
X006766Y005230D01*
X006770Y005220D01*
X006770Y005210D01*
X006766Y005200D01*
X006759Y005193D01*
X006750Y005188D01*
X006739Y005187D01*
X006730Y005190D01*
X006721Y005196D01*
X006716Y005205D01*
X006714Y005215D01*
X006804Y005145D02*
X006806Y005155D01*
X006811Y005164D01*
X006820Y005170D01*
X006829Y005173D01*
X006840Y005172D01*
X006849Y005167D01*
X006856Y005160D01*
X006860Y005150D01*
X006860Y005140D01*
X006856Y005130D01*
X006849Y005123D01*
X006840Y005118D01*
X006829Y005117D01*
X006820Y005120D01*
X006811Y005126D01*
X006806Y005135D01*
X006804Y005145D01*
X010437Y013080D02*
X010457Y013160D01*
X010532Y013140D01*
X010577Y013135D01*
X010657Y013135D01*
X010697Y013145D01*
X010722Y013155D01*
X010757Y013175D01*
X010787Y013205D01*
X010807Y013240D01*
X010817Y013270D01*
X010822Y013315D01*
X010822Y013640D01*
X010802Y013710D01*
X010782Y013735D01*
X010757Y013765D01*
X010727Y013790D01*
X010697Y013805D01*
X010662Y013815D01*
X010597Y013815D01*
X010572Y013810D01*
X010532Y013795D01*
X010502Y013770D01*
X010482Y013750D01*
X010462Y013725D01*
X010447Y013685D01*
X010437Y013655D01*
X010432Y013615D01*
X010432Y013580D01*
X010437Y013545D01*
X010447Y013515D01*
X010462Y013480D01*
X010487Y013455D01*
X010517Y013430D01*
X010552Y013410D01*
X010587Y013400D01*
X010662Y013400D01*
X010697Y013410D01*
X010742Y013430D01*
X010762Y013440D01*
X010762Y013350D01*
X010732Y013335D01*
X010687Y013320D01*
X010652Y013315D01*
X010607Y013315D01*
X010552Y013325D01*
X010502Y013345D01*
X010462Y013365D01*
X010432Y013390D01*
X010407Y013420D01*
X010382Y013455D01*
X010367Y013485D01*
X010352Y013530D01*
X010347Y013575D01*
X010347Y013620D01*
X010352Y013670D01*
X010362Y013710D01*
X010377Y013745D01*
X010397Y013780D01*
X010417Y013805D01*
X010452Y013840D01*
X010492Y013865D01*
X010537Y013885D01*
X010577Y013895D01*
X010612Y013900D01*
X010647Y013900D01*
X010682Y013895D01*
X010712Y013890D01*
X010742Y013880D01*
X010787Y013855D01*
X010812Y013835D01*
X010847Y013800D01*
X010872Y013765D01*
X010887Y013735D01*
X010902Y013690D01*
X010912Y013635D01*
X010912Y013335D01*
X010912Y013340D02*
X010902Y013280D01*
X010892Y013235D01*
X010877Y013195D01*
X010847Y013150D01*
X010817Y013120D01*
X010787Y013095D01*
X010752Y013075D01*
X010707Y013060D01*
X010647Y013050D01*
X010587Y013050D01*
X010507Y013060D01*
X010437Y013080D01*
X011092Y013325D02*
X011092Y013890D01*
X011182Y013890D01*
X011182Y013325D01*
X011092Y013325D01*
X011392Y013325D02*
X011392Y014155D01*
X011482Y014155D01*
X011482Y013325D01*
X011392Y013325D01*
X011672Y013410D02*
X011657Y013450D01*
X011652Y013485D01*
X011652Y014030D01*
X011742Y014030D01*
X011742Y013885D01*
X011947Y013885D01*
X011947Y013805D01*
X011742Y013805D01*
X011742Y013465D01*
X011752Y013440D01*
X011767Y013425D01*
X011782Y013415D01*
X011802Y013410D01*
X011947Y013410D01*
X011947Y013330D01*
X011947Y013325D02*
X011932Y013335D01*
X011947Y013325D02*
X011792Y013325D01*
X011772Y013330D01*
X011742Y013340D01*
X011707Y013360D01*
X011682Y013390D01*
X011672Y013410D01*
X012032Y013510D02*
X012022Y013550D01*
X012017Y013580D01*
X012017Y013630D01*
X012027Y013680D01*
X012042Y013725D01*
X012067Y013775D01*
X012107Y013820D01*
X012152Y013855D01*
X012202Y013880D01*
X012252Y013895D01*
X012287Y013900D01*
X012342Y013900D01*
X012387Y013890D01*
X012437Y013875D01*
X012497Y013835D01*
X012537Y013795D01*
X012577Y013730D01*
X012202Y013520D01*
X012167Y013590D01*
X012452Y013750D01*
X012442Y013765D01*
X012417Y013785D01*
X012387Y013805D01*
X012347Y013815D01*
X012287Y013815D01*
X012257Y013810D01*
X012227Y013800D01*
X012197Y013785D01*
X012167Y013755D01*
X012147Y013730D01*
X012127Y013695D01*
X012117Y013665D01*
X012112Y013635D01*
X012112Y013565D01*
X012122Y013530D01*
X012137Y013495D01*
X012162Y013460D01*
X012187Y013435D01*
X012207Y013425D01*
X012242Y013405D01*
X012277Y013400D01*
X012352Y013400D01*
X012382Y013405D01*
X012412Y013420D01*
X012437Y013435D01*
X012462Y013460D01*
X012482Y013495D01*
X012497Y013525D01*
X012507Y013555D01*
X012512Y013580D01*
X012602Y013570D01*
X012592Y013510D01*
X012572Y013465D01*
X012547Y013425D01*
X012502Y013380D01*
X012472Y013360D01*
X012447Y013345D01*
X012412Y013330D01*
X012377Y013320D01*
X012342Y013315D01*
X012282Y013315D01*
X012247Y013320D01*
X012187Y013340D01*
X012157Y013355D01*
X012127Y013375D01*
X012097Y013405D01*
X012072Y013435D01*
X012047Y013475D01*
X012032Y013510D01*
X012687Y013410D02*
X012997Y013410D01*
X013027Y013420D01*
X013042Y013435D01*
X013052Y013455D01*
X013052Y013495D01*
X013037Y013515D01*
X013002Y013535D01*
X012962Y013550D01*
X012877Y013575D01*
X012822Y013595D01*
X012782Y013610D01*
X012747Y013630D01*
X012722Y013655D01*
X012697Y013685D01*
X012687Y013720D01*
X012687Y013760D01*
X012697Y013800D01*
X012712Y013825D01*
X012737Y013850D01*
X012762Y013865D01*
X012802Y013880D01*
X012847Y013885D01*
X013117Y013885D01*
X013117Y013800D01*
X012817Y013800D01*
X012797Y013790D01*
X012782Y013760D01*
X012782Y013730D01*
X012792Y013710D01*
X012812Y013695D01*
X012847Y013680D01*
X013007Y013630D01*
X013067Y013605D01*
X013097Y013585D01*
X013122Y013560D01*
X013137Y013530D01*
X013147Y013500D01*
X013147Y013445D01*
X013137Y013415D01*
X013122Y013385D01*
X013097Y013360D01*
X013072Y013345D01*
X013032Y013330D01*
X012997Y013325D01*
X012687Y013325D01*
X012687Y013410D01*
X013232Y013520D02*
X013222Y013575D01*
X013222Y013650D01*
X013227Y013690D01*
X013247Y013740D01*
X013267Y013780D01*
X013302Y013820D01*
X013332Y013845D01*
X013362Y013865D01*
X013397Y013880D01*
X013427Y013890D01*
X013487Y013900D01*
X013542Y013900D01*
X013597Y013890D01*
X013632Y013880D01*
X013672Y013860D01*
X013702Y013840D01*
X013737Y013810D01*
X013757Y013780D01*
X013772Y013750D01*
X013782Y013720D01*
X013792Y013685D01*
X013797Y013650D01*
X013797Y013325D01*
X013707Y013325D01*
X013707Y013650D01*
X013702Y013685D01*
X013687Y013730D01*
X013652Y013770D01*
X013612Y013795D01*
X013572Y013810D01*
X013537Y013815D01*
X013487Y013815D01*
X013457Y013810D01*
X013422Y013800D01*
X013392Y013780D01*
X013362Y013755D01*
X013342Y013725D01*
X013327Y013695D01*
X013317Y013670D01*
X013312Y013645D01*
X013312Y013570D01*
X013322Y013525D01*
X013342Y013485D01*
X013362Y013460D01*
X013402Y013425D01*
X013442Y013405D01*
X013477Y013400D01*
X013547Y013400D01*
X013577Y013410D01*
X013602Y013425D01*
X013627Y013445D01*
X013642Y013460D01*
X013642Y013365D01*
X013607Y013340D01*
X013572Y013325D01*
X013537Y013315D01*
X013467Y013315D01*
X013432Y013320D01*
X013387Y013335D01*
X013342Y013360D01*
X013307Y013390D01*
X013272Y013435D01*
X013247Y013480D01*
X013232Y013520D01*
X013957Y013390D02*
X013957Y013370D01*
X013967Y013350D01*
X013977Y013335D01*
X013992Y013325D01*
X014012Y013320D01*
X014017Y013320D02*
X014032Y013320D01*
X014047Y013325D01*
X014062Y013335D01*
X014077Y013355D01*
X014082Y013370D01*
X014082Y013390D01*
X014077Y013405D01*
X014067Y013420D01*
X014052Y013435D01*
X014037Y013440D01*
X014007Y013440D01*
X013992Y013435D01*
X013977Y013425D01*
X013962Y013405D01*
X013957Y013390D01*
X014257Y013535D02*
X014277Y013485D01*
X014292Y013455D01*
X014322Y013415D01*
X014372Y013375D01*
X014417Y013350D01*
X014462Y013335D01*
X014507Y013325D01*
X014627Y013325D01*
X014627Y013410D01*
X014522Y013410D01*
X014497Y013415D01*
X014462Y013425D01*
X014427Y013445D01*
X014397Y013465D01*
X014372Y013495D01*
X014357Y013525D01*
X014347Y013560D01*
X014342Y013590D01*
X014342Y013630D01*
X014352Y013670D01*
X014367Y013705D01*
X014382Y013730D01*
X014407Y013755D01*
X014437Y013775D01*
X014457Y013785D01*
X014482Y013795D01*
X014522Y013805D01*
X014622Y013805D01*
X014622Y013885D01*
X014507Y013885D01*
X014472Y013880D01*
X014437Y013870D01*
X014402Y013855D01*
X014367Y013835D01*
X014332Y013805D01*
X014312Y013785D01*
X014287Y013745D01*
X014272Y013715D01*
X014257Y013675D01*
X014252Y013630D01*
X014252Y013575D01*
X014257Y013535D01*
X014702Y013590D02*
X014712Y013525D01*
X014727Y013485D01*
X014747Y013445D01*
X014787Y013395D01*
X014832Y013360D01*
X014872Y013340D01*
X014912Y013325D01*
X014957Y013315D01*
X015027Y013315D01*
X015077Y013325D01*
X015117Y013340D01*
X015162Y013365D01*
X015212Y013405D01*
X015242Y013450D01*
X015262Y013490D01*
X015277Y013535D01*
X015287Y013580D01*
X015287Y013635D01*
X015277Y013675D01*
X015262Y013725D01*
X015242Y013765D01*
X015212Y013805D01*
X015172Y013840D01*
X015132Y013865D01*
X015087Y013885D01*
X015047Y013895D01*
X015022Y013900D01*
X014967Y013900D01*
X014912Y013890D01*
X014862Y013870D01*
X014837Y013855D01*
X014807Y013835D01*
X014777Y013805D01*
X014757Y013780D01*
X014737Y013750D01*
X014722Y013715D01*
X014707Y013665D01*
X014702Y013625D01*
X014702Y013590D01*
X014797Y013570D02*
X014807Y013525D01*
X014822Y013490D01*
X014847Y013460D01*
X014867Y013440D01*
X014892Y013420D01*
X014927Y013405D01*
X014987Y013395D01*
X014972Y013400D02*
X015022Y013400D01*
X015057Y013405D01*
X015082Y013415D01*
X015107Y013430D01*
X015132Y013450D01*
X015157Y013480D01*
X015177Y013520D01*
X015187Y013545D01*
X015192Y013575D01*
X015192Y013635D01*
X015182Y013680D01*
X015167Y013715D01*
X015147Y013750D01*
X015152Y013740D02*
X015132Y013765D01*
X015112Y013780D01*
X015087Y013795D01*
X015062Y013805D01*
X015022Y013815D01*
X014967Y013815D01*
X014927Y013805D01*
X014897Y013795D01*
X014902Y013795D02*
X014882Y013785D01*
X014857Y013765D01*
X014837Y013740D01*
X014822Y013720D01*
X014807Y013690D01*
X014797Y013650D01*
X014797Y013570D01*
X015397Y013720D02*
X015397Y013325D01*
X015487Y013325D01*
X015487Y013700D01*
X015492Y013740D01*
X015492Y013735D02*
X015502Y013760D01*
X015522Y013785D01*
X015537Y013800D01*
X015572Y013815D01*
X015632Y013815D01*
X015667Y013800D01*
X015697Y013775D01*
X015712Y013745D01*
X015722Y013715D01*
X015722Y013325D01*
X015812Y013325D01*
X015812Y013715D01*
X015822Y013750D01*
X015842Y013780D01*
X015867Y013800D01*
X015897Y013815D01*
X015957Y013815D01*
X015982Y013805D01*
X016007Y013790D01*
X016027Y013765D01*
X016042Y013735D01*
X016047Y013700D01*
X016047Y013325D01*
X016132Y013325D01*
X016132Y013730D01*
X016127Y013760D01*
X016117Y013790D01*
X016107Y013805D01*
X016092Y013825D01*
X016072Y013850D01*
X016052Y013865D01*
X016022Y013880D01*
X015992Y013890D01*
X015972Y013895D01*
X015957Y013900D01*
X015912Y013900D01*
X015882Y013895D01*
X015847Y013880D01*
X015827Y013870D01*
X015802Y013855D01*
X015762Y013810D01*
X015767Y013815D02*
X015732Y013850D01*
X015707Y013870D01*
X015677Y013885D01*
X015647Y013895D01*
X015617Y013900D01*
X015577Y013900D01*
X015537Y013890D01*
X015497Y013875D01*
X015467Y013855D01*
X015442Y013830D01*
X015422Y013800D01*
X015407Y013765D01*
X015397Y013720D01*
X011192Y014010D02*
X011192Y014035D01*
X011187Y014050D01*
X011177Y014065D01*
X011162Y014075D01*
X011147Y014080D01*
X011127Y014080D01*
X011112Y014075D01*
X011097Y014065D01*
X011087Y014050D01*
X011082Y014030D01*
X011082Y014010D01*
X011097Y013985D01*
X011112Y013975D01*
X011132Y013970D01*
X011137Y013970D02*
X011147Y013970D01*
X011162Y013975D01*
X011182Y013995D01*
X011187Y014005D01*
X011192Y014010D01*
X016555Y017389D02*
X016584Y017354D01*
X016613Y017328D01*
X016653Y017298D01*
X016703Y017273D01*
X016744Y017259D01*
X016781Y017252D01*
X016831Y017251D01*
X016834Y017250D02*
X016908Y017250D01*
X016967Y017262D01*
X017024Y017282D01*
X017075Y017315D01*
X017117Y017353D01*
X017151Y017663D01*
X016896Y017666D01*
X016886Y017651D01*
X016871Y017543D01*
X016884Y017531D01*
X016991Y017529D01*
X016990Y017507D01*
X016985Y017422D01*
X016956Y017404D01*
X016926Y017393D01*
X016892Y017387D01*
X016854Y017386D01*
X016795Y017388D01*
X016755Y017399D01*
X016721Y017419D01*
X016686Y017445D01*
X016659Y017483D01*
X016639Y017522D01*
X016627Y017584D01*
X016623Y017645D01*
X016629Y017689D01*
X016646Y017756D01*
X016680Y017818D01*
X016718Y017870D01*
X016766Y017909D01*
X016816Y017942D01*
X016864Y017959D01*
X016932Y017983D01*
X016966Y017991D01*
X017013Y017994D01*
X017116Y017994D01*
X017160Y017985D01*
X017190Y017979D01*
X017201Y017980D01*
X017207Y017997D01*
X017215Y018109D01*
X017190Y018121D01*
X016905Y018120D01*
X016858Y018109D01*
X016806Y018090D01*
X016744Y018061D01*
X016701Y018036D01*
X016661Y018003D01*
X016612Y017961D01*
X016564Y017901D01*
X016535Y017847D01*
X016512Y017787D01*
X016508Y017774D01*
X016506Y017486D01*
X016526Y017438D01*
X016555Y017389D01*
X016510Y017476D02*
X016501Y017504D01*
X016505Y017491D02*
X016486Y017552D01*
X016481Y017620D01*
X016489Y017718D01*
X016504Y017767D01*
X016483Y017626D01*
X016495Y017560D01*
X016501Y017628D01*
X016501Y017643D01*
X017192Y017257D02*
X017318Y018121D01*
X017566Y018121D01*
X017607Y018106D01*
X017635Y018088D01*
X017671Y018055D01*
X017709Y017990D01*
X017721Y017929D01*
X017715Y017840D01*
X017700Y017798D01*
X017662Y017744D01*
X017656Y017728D01*
X017703Y017685D01*
X017733Y017643D01*
X017759Y017570D01*
X017757Y017470D01*
X017746Y017431D01*
X017718Y017377D01*
X017690Y017344D01*
X017659Y017310D01*
X017610Y017279D01*
X017539Y017256D01*
X017193Y017257D01*
X017353Y017389D02*
X017390Y017650D01*
X017404Y017654D01*
X017473Y017651D01*
X017514Y017646D01*
X017533Y017640D01*
X017564Y017625D01*
X017594Y017593D01*
X017611Y017565D01*
X017617Y017539D01*
X017619Y017499D01*
X017612Y017476D01*
X017598Y017448D01*
X017576Y017423D01*
X017546Y017405D01*
X017526Y017395D01*
X017496Y017387D01*
X017368Y017387D01*
X017363Y017389D01*
X017851Y017516D02*
X017845Y017544D01*
X017846Y017700D01*
X017868Y017797D01*
X017893Y017860D01*
X017962Y017955D01*
X017999Y017994D01*
X018072Y018050D01*
X018143Y018085D01*
X018187Y018103D01*
X018254Y018120D01*
X018552Y018121D01*
X018570Y018111D01*
X018556Y017985D01*
X018506Y017987D01*
X018476Y017992D01*
X018339Y017992D01*
X018277Y017983D01*
X018228Y017966D01*
X018171Y017941D01*
X018126Y017916D01*
X018090Y017884D01*
X018044Y017836D01*
X018021Y017793D01*
X018002Y017747D01*
X017991Y017713D01*
X017983Y017677D01*
X017982Y017588D01*
X017994Y017532D01*
X018011Y017491D01*
X018029Y017460D01*
X018059Y017431D01*
X018091Y017411D01*
X018134Y017395D01*
X018170Y017387D01*
X018226Y017387D01*
X018276Y017388D01*
X018309Y017396D01*
X018347Y017407D01*
X018390Y017423D01*
X018428Y017441D01*
X018456Y017455D01*
X018480Y017457D01*
X018480Y017452D02*
X018461Y017309D01*
X018405Y017285D01*
X018336Y017267D01*
X018286Y017254D01*
X018256Y017252D01*
X018151Y017252D01*
X018090Y017263D01*
X018021Y017295D01*
X017965Y017333D01*
X017910Y017389D01*
X017878Y017444D01*
X017851Y017516D01*
X017535Y017815D02*
X017512Y017800D01*
X017487Y017793D01*
X017464Y017789D01*
X017416Y017787D01*
X017436Y017991D01*
X017447Y017990D02*
X017522Y017990D01*
X017536Y017984D01*
X017555Y017971D01*
X017570Y017952D01*
X017581Y017925D01*
X017583Y017898D01*
X017576Y017867D01*
X017556Y017835D01*
X017535Y017815D01*
X018869Y017481D02*
X018956Y018114D01*
X018959Y018114D02*
X019099Y018115D01*
X019015Y017501D01*
X019021Y017465D01*
X019040Y017416D01*
X019074Y017395D01*
X019113Y017379D01*
X019181Y017377D01*
X019215Y017384D01*
X019253Y017403D01*
X019283Y017442D01*
X019307Y017484D01*
X019408Y018123D01*
X019550Y018120D01*
X019451Y017444D01*
X019429Y017391D01*
X019391Y017332D01*
X019344Y017287D01*
X019298Y017262D01*
X019262Y017250D01*
X019226Y017242D01*
X019111Y017242D01*
X019019Y017260D01*
X018957Y017300D01*
X018912Y017352D01*
X018884Y017415D01*
X018875Y017446D01*
X018869Y017481D01*
X019559Y017436D02*
X019547Y017299D01*
X019677Y017256D01*
X019730Y017247D01*
X019821Y017247D01*
X019851Y017252D01*
X019891Y017265D01*
X019943Y017288D01*
X020001Y017335D01*
X020035Y017373D01*
X020064Y017421D01*
X020086Y017497D01*
X020087Y017560D01*
X020074Y017616D01*
X020047Y017670D01*
X020002Y017723D01*
X019940Y017760D01*
X019876Y017783D01*
X019827Y017796D01*
X019784Y017836D01*
X019774Y017873D01*
X019774Y017908D01*
X019793Y017945D01*
X019822Y017971D01*
X019860Y017988D01*
X019918Y017990D01*
X019988Y017981D01*
X020047Y017972D01*
X020072Y018106D01*
X020072Y018105D02*
X019993Y018120D01*
X019828Y018121D01*
X019787Y018109D01*
X019730Y018072D01*
X019674Y018012D01*
X019640Y017941D01*
X019628Y017890D01*
X019633Y017845D01*
X019642Y017801D01*
X019677Y017738D01*
X019713Y017706D01*
X019743Y017688D01*
X019806Y017659D01*
X019865Y017638D01*
X019894Y017623D01*
X019927Y017588D01*
X019941Y017549D01*
X019942Y017494D01*
X019924Y017455D01*
X019895Y017420D01*
X019869Y017396D01*
X019840Y017389D01*
X019741Y017389D01*
X019704Y017393D01*
X019638Y017411D01*
X019595Y017429D01*
X019559Y017436D01*
X020131Y017255D02*
X020257Y018119D01*
X020505Y018119D01*
X020546Y018104D01*
X020574Y018086D01*
X020610Y018053D01*
X020648Y017988D01*
X020660Y017927D01*
X020654Y017838D01*
X020639Y017796D01*
X020601Y017742D01*
X020595Y017726D01*
X020642Y017683D01*
X020672Y017641D01*
X020698Y017568D01*
X020696Y017468D01*
X020685Y017429D01*
X020657Y017375D01*
X020629Y017342D01*
X020598Y017308D01*
X020549Y017277D01*
X020478Y017254D01*
X020132Y017255D01*
X020292Y017387D02*
X020329Y017648D01*
X020343Y017652D01*
X020412Y017649D01*
X020453Y017644D01*
X020472Y017638D01*
X020503Y017623D01*
X020533Y017591D01*
X020550Y017563D01*
X020556Y017537D01*
X020558Y017497D01*
X020551Y017474D01*
X020537Y017446D01*
X020515Y017421D01*
X020485Y017403D01*
X020465Y017393D01*
X020435Y017385D01*
X020307Y017385D01*
X020302Y017387D01*
X020355Y017785D02*
X020375Y017989D01*
X020386Y017988D02*
X020461Y017988D01*
X020475Y017982D01*
X020494Y017969D01*
X020509Y017950D01*
X020520Y017923D01*
X020522Y017896D01*
X020515Y017865D01*
X020495Y017833D01*
X020474Y017813D01*
X020451Y017798D01*
X020426Y017791D01*
X020403Y017787D01*
X020355Y017785D01*
X020821Y017769D02*
X021178Y017770D01*
X021187Y017760D01*
X021165Y017628D01*
X020805Y017628D01*
X020801Y017642D01*
X020822Y017769D01*
X021264Y017700D02*
X021263Y017544D01*
X021269Y017516D01*
X021296Y017444D01*
X021328Y017389D01*
X021383Y017333D01*
X021439Y017295D01*
X021508Y017263D01*
X021569Y017252D01*
X021674Y017252D01*
X021704Y017254D01*
X021754Y017267D01*
X021823Y017285D01*
X021879Y017309D01*
X021898Y017452D01*
X021898Y017457D02*
X021874Y017455D01*
X021846Y017441D01*
X021808Y017423D01*
X021765Y017407D01*
X021727Y017396D01*
X021694Y017388D01*
X021644Y017387D01*
X021588Y017387D01*
X021552Y017395D01*
X021509Y017411D01*
X021477Y017431D01*
X021447Y017460D01*
X021429Y017491D01*
X021412Y017532D01*
X021400Y017588D01*
X021401Y017677D01*
X021409Y017713D01*
X021420Y017747D01*
X021439Y017793D01*
X021462Y017836D01*
X021508Y017884D01*
X021544Y017916D01*
X021589Y017941D01*
X021646Y017966D01*
X021695Y017983D01*
X021757Y017992D01*
X021894Y017992D01*
X021924Y017987D01*
X021974Y017985D01*
X021988Y018111D01*
X021970Y018121D01*
X021672Y018120D01*
X021605Y018103D01*
X021561Y018085D01*
X021490Y018050D01*
X021417Y017994D01*
X021380Y017955D01*
X021311Y017860D01*
X021286Y017797D01*
X021264Y017700D01*
X022309Y017704D02*
X022308Y017548D01*
X022314Y017520D01*
X022341Y017448D01*
X022373Y017393D01*
X022428Y017337D01*
X022484Y017299D01*
X022553Y017267D01*
X022614Y017256D01*
X022719Y017256D01*
X022749Y017258D01*
X022799Y017271D01*
X022868Y017289D01*
X022924Y017313D01*
X022943Y017456D01*
X022943Y017461D02*
X022919Y017459D01*
X022891Y017445D01*
X022853Y017427D01*
X022810Y017411D01*
X022772Y017400D01*
X022739Y017392D01*
X022689Y017391D01*
X022633Y017391D01*
X022597Y017399D01*
X022554Y017415D01*
X022522Y017435D01*
X022492Y017464D01*
X022474Y017495D01*
X022457Y017536D01*
X022445Y017592D01*
X022446Y017681D01*
X022454Y017717D01*
X022465Y017751D01*
X022484Y017797D01*
X022507Y017840D01*
X022553Y017888D01*
X022589Y017920D01*
X022634Y017945D01*
X022691Y017970D01*
X022740Y017987D01*
X022802Y017996D01*
X022939Y017996D01*
X022969Y017991D01*
X023019Y017989D01*
X023033Y018115D01*
X023015Y018125D01*
X022717Y018124D01*
X022650Y018107D01*
X022606Y018089D01*
X022535Y018054D01*
X022462Y017998D01*
X022425Y017959D01*
X022356Y017864D01*
X022331Y017801D01*
X022309Y017704D01*
X023015Y017268D02*
X023141Y018118D01*
X023276Y018120D01*
X023284Y018110D01*
X023233Y017776D01*
X023244Y017769D01*
X023582Y017764D01*
X023646Y018123D01*
X023775Y018121D01*
X023789Y018110D01*
X023666Y017258D01*
X023529Y017257D01*
X023521Y017267D01*
X023564Y017622D01*
X023552Y017629D01*
X023223Y017630D01*
X023214Y017624D01*
X023159Y017258D01*
X023033Y017257D01*
X023027Y017257D02*
X023015Y017268D01*
X023756Y017270D02*
X024146Y018119D01*
X024266Y018123D01*
X024414Y017269D01*
X024407Y017253D01*
X024287Y017251D01*
X024270Y017253D01*
X024231Y017479D01*
X024172Y017826D01*
X024148Y017808D01*
X024152Y017807D01*
X024073Y017626D01*
X024098Y017616D01*
X024199Y017620D01*
X024223Y017486D02*
X024009Y017486D01*
X023900Y017256D01*
X023772Y017257D01*
X023771Y017257D02*
X023756Y017270D01*
X024497Y017267D02*
X024614Y018120D01*
X024894Y018121D01*
X024951Y018101D01*
X024998Y018070D01*
X025051Y018014D01*
X025080Y017960D01*
X025088Y017860D01*
X025059Y017770D01*
X025030Y017724D01*
X024980Y017681D01*
X024911Y017642D01*
X024881Y017632D01*
X025066Y017278D01*
X025066Y017256D01*
X024909Y017256D01*
X024706Y017637D01*
X024697Y017622D01*
X024697Y017614D01*
X024639Y017259D01*
X024510Y017256D01*
X024511Y017256D02*
X024497Y017267D01*
X024720Y017778D02*
X024862Y017771D01*
X024899Y017794D01*
X024922Y017820D01*
X024938Y017853D01*
X024945Y017888D01*
X024942Y017921D01*
X024925Y017946D01*
X024899Y017973D01*
X024881Y017982D01*
X024759Y017990D01*
X024752Y017988D02*
X024720Y017778D01*
X025129Y017713D02*
X025144Y017762D01*
X025123Y017621D01*
X025135Y017555D01*
X025141Y017623D01*
X025141Y017638D01*
X025121Y017615D02*
X025129Y017713D01*
X025148Y017769D02*
X025146Y017481D01*
X025166Y017433D01*
X025195Y017384D01*
X025224Y017349D01*
X025253Y017323D01*
X025293Y017293D01*
X025343Y017268D01*
X025384Y017254D01*
X025421Y017247D01*
X025471Y017246D01*
X025474Y017245D02*
X025548Y017245D01*
X025607Y017257D01*
X025664Y017277D01*
X025715Y017310D01*
X025757Y017348D01*
X025791Y017658D01*
X025536Y017661D01*
X025526Y017646D01*
X025511Y017538D01*
X025524Y017526D01*
X025631Y017524D01*
X025630Y017502D01*
X025625Y017417D01*
X025596Y017399D01*
X025566Y017388D01*
X025532Y017382D01*
X025494Y017381D01*
X025435Y017383D01*
X025395Y017394D01*
X025361Y017414D01*
X025326Y017440D01*
X025299Y017478D01*
X025279Y017517D01*
X025267Y017579D01*
X025263Y017640D01*
X025269Y017684D01*
X025286Y017751D01*
X025320Y017813D01*
X025358Y017865D01*
X025406Y017904D01*
X025456Y017937D01*
X025504Y017954D01*
X025572Y017978D01*
X025606Y017986D01*
X025653Y017989D01*
X025756Y017989D01*
X025800Y017980D01*
X025830Y017974D01*
X025841Y017975D01*
X025847Y017992D01*
X025855Y018104D01*
X025830Y018116D01*
X025545Y018115D01*
X025498Y018104D01*
X025446Y018085D01*
X025384Y018056D01*
X025341Y018031D01*
X025301Y017998D01*
X025252Y017956D01*
X025204Y017896D01*
X025175Y017842D01*
X025152Y017782D01*
X025148Y017769D01*
X025121Y017615D02*
X025126Y017547D01*
X025145Y017486D01*
X025141Y017499D02*
X025150Y017471D01*
X025834Y017262D02*
X025957Y018121D01*
X026098Y018120D01*
X025976Y017257D01*
X025841Y017255D01*
X025834Y017262D01*
X026091Y017266D02*
X026212Y018120D01*
X026351Y018123D01*
X026615Y017552D01*
X026627Y017549D01*
X026717Y018119D01*
X026843Y018121D01*
X026853Y018112D01*
X026736Y017255D01*
X026598Y017255D01*
X026330Y017819D01*
X026322Y017817D01*
X026314Y017812D01*
X026229Y017257D01*
X026102Y017258D01*
X026102Y017258D01*
X026091Y017266D01*
X026899Y017495D02*
X026901Y017783D01*
X026905Y017796D01*
X026928Y017856D01*
X026957Y017910D01*
X027005Y017970D01*
X027054Y018012D01*
X027094Y018045D01*
X027137Y018070D01*
X027199Y018099D01*
X027251Y018118D01*
X027298Y018129D01*
X027583Y018130D01*
X027608Y018118D01*
X027600Y018006D01*
X027594Y017989D01*
X027583Y017988D01*
X027553Y017994D01*
X027509Y018003D01*
X027406Y018003D01*
X027359Y018000D01*
X027325Y017992D01*
X027257Y017968D01*
X027209Y017951D01*
X027159Y017918D01*
X027111Y017879D01*
X027073Y017827D01*
X027039Y017765D01*
X027022Y017698D01*
X027016Y017654D01*
X027020Y017593D01*
X027032Y017531D01*
X027052Y017492D01*
X027079Y017454D01*
X027114Y017428D01*
X027148Y017408D01*
X027188Y017397D01*
X027247Y017395D01*
X027285Y017396D01*
X027319Y017402D01*
X027349Y017413D01*
X027378Y017431D01*
X027383Y017516D01*
X027384Y017538D01*
X027277Y017540D01*
X027264Y017552D01*
X027279Y017660D01*
X027289Y017675D01*
X027544Y017672D01*
X027510Y017362D01*
X027468Y017324D01*
X027417Y017291D01*
X027360Y017271D01*
X027301Y017259D01*
X027227Y017259D01*
X027224Y017260D02*
X027174Y017261D01*
X027137Y017268D01*
X027096Y017282D01*
X027046Y017307D01*
X027006Y017337D01*
X026977Y017363D01*
X026948Y017398D01*
X026919Y017447D01*
X026899Y017495D01*
X026898Y017500D02*
X026879Y017561D01*
X026874Y017629D01*
X026882Y017727D01*
X026897Y017776D01*
X026876Y017635D01*
X026888Y017569D01*
X026894Y017637D01*
X026894Y017652D01*
X026894Y017513D02*
X026903Y017485D01*
X027923Y017270D02*
X027931Y017258D01*
X028062Y017258D01*
X028067Y017261D01*
X028185Y018112D01*
X028175Y018121D01*
X028046Y018121D01*
X028046Y018118D02*
X027923Y017270D01*
X028328Y017258D02*
X028127Y017637D01*
X028250Y017695D02*
X028262Y017690D01*
X028490Y017264D01*
X028487Y017257D01*
X028328Y017258D01*
X028560Y017264D02*
X028683Y018123D01*
X028824Y018122D01*
X028702Y017259D01*
X028567Y017257D01*
X028560Y017264D01*
X029006Y017263D02*
X029012Y017257D01*
X029145Y017256D01*
X029151Y017261D01*
X029254Y017992D01*
X029109Y017986D02*
X029006Y017263D01*
X029794Y017263D02*
X029800Y017257D01*
X029934Y017256D01*
X029988Y017627D01*
X030000Y017629D01*
X030153Y017629D01*
X030203Y017641D01*
X030256Y017666D01*
X030312Y017710D01*
X030356Y017774D01*
X030376Y017836D01*
X030384Y017925D01*
X030359Y017991D01*
X030319Y018045D01*
X030259Y018093D01*
X030202Y018116D01*
X030148Y018121D01*
X029911Y018122D01*
X029910Y018123D02*
X029794Y017263D01*
X030023Y017770D02*
X030159Y017771D01*
X030191Y017793D01*
X030222Y017828D01*
X030233Y017862D01*
X030234Y017898D01*
X030230Y017933D01*
X030213Y017957D01*
X030186Y017979D01*
X030166Y017985D01*
X030053Y017989D01*
X030045Y017981D02*
X030013Y017784D01*
X030023Y017770D01*
X030571Y017633D02*
X030582Y017625D01*
X030590Y017621D01*
X030785Y017258D01*
X030948Y017257D01*
X030757Y017620D01*
X030764Y017632D02*
X030949Y017278D01*
X030949Y017256D01*
X030792Y017256D01*
X030589Y017637D01*
X030580Y017622D01*
X030580Y017614D01*
X030522Y017259D01*
X030393Y017256D01*
X030386Y017256D02*
X030380Y017267D01*
X030497Y018120D01*
X030777Y018121D01*
X030834Y018101D01*
X030881Y018070D01*
X030934Y018014D01*
X030963Y017960D01*
X030971Y017860D01*
X030942Y017770D01*
X030913Y017724D01*
X030863Y017681D01*
X030794Y017642D01*
X030764Y017632D01*
X030745Y017771D02*
X030782Y017794D01*
X030805Y017820D01*
X030821Y017853D01*
X030828Y017888D01*
X030825Y017921D01*
X030808Y017946D01*
X030782Y017973D01*
X030764Y017982D01*
X030642Y017990D01*
X030635Y017988D02*
X030603Y017778D01*
X030745Y017771D01*
X030571Y017633D02*
X030519Y017257D01*
X030386Y017256D01*
X030381Y017264D01*
X031006Y017440D02*
X030993Y017515D01*
X030995Y017617D01*
X031030Y017781D01*
X031059Y017857D01*
X031096Y017941D01*
X031112Y017966D01*
X031113Y017968D02*
X031141Y018005D01*
X031173Y018044D01*
X031230Y018089D01*
X031301Y018121D01*
X031530Y018120D01*
X031537Y018116D01*
X031575Y018095D01*
X031604Y018075D01*
X031654Y018018D01*
X031688Y017954D01*
X031705Y017890D01*
X031708Y017757D01*
X031698Y017688D01*
X031679Y017616D01*
X031652Y017527D01*
X031616Y017452D01*
X031561Y017373D01*
X031499Y017306D01*
X031419Y017266D01*
X031345Y017247D01*
X031263Y017247D01*
X031261Y017246D02*
X031174Y017262D01*
X031118Y017293D01*
X031073Y017332D01*
X031034Y017386D01*
X031006Y017440D01*
X031143Y017490D02*
X031154Y017458D01*
X031186Y017416D01*
X031227Y017388D01*
X031269Y017380D01*
X031301Y017377D01*
X031309Y017377D01*
X031305Y017378D02*
X031347Y017386D01*
X031383Y017402D01*
X031411Y017421D01*
X031439Y017445D01*
X031466Y017478D01*
X031494Y017519D01*
X031520Y017570D01*
X031543Y017640D01*
X031561Y017715D01*
X031568Y017770D01*
X031573Y017825D01*
X031561Y017879D01*
X031549Y017921D01*
X031528Y017956D01*
X031500Y017979D01*
X031464Y017996D01*
X031427Y018000D01*
X031387Y018000D01*
X031356Y017995D01*
X031313Y017977D01*
X031278Y017950D01*
X031241Y017911D01*
X031217Y017873D01*
X031186Y017805D01*
X031161Y017726D01*
X031142Y017641D01*
X031131Y017548D01*
X031143Y017490D01*
X029459Y017993D02*
X029458Y017990D01*
X028908Y017991D01*
X028896Y018001D01*
X028911Y018120D01*
X028910Y018119D02*
X029480Y018122D01*
X029459Y017993D01*
X028555Y018100D02*
X028250Y017695D01*
X028170Y017822D02*
X028388Y018117D01*
X028392Y018120D02*
X028546Y018121D01*
X028553Y018116D01*
X028555Y018100D01*
X028170Y017822D02*
X028156Y017813D01*
D20*
X019014Y010427D02*
X018741Y010427D01*
X018741Y009027D02*
X019014Y009027D01*
X005782Y005215D02*
X005552Y005215D01*
X005292Y005215D02*
X005052Y005215D01*
D21*
X004422Y007575D02*
X006512Y007575D01*
X006512Y009535D01*
D22*
X006502Y009545D02*
X004412Y009545D01*
X004412Y009135D01*
X004102Y009145D01*
X004102Y009595D01*
X004103Y009605D01*
X004107Y009615D01*
X004114Y009623D01*
X004122Y009630D01*
X004132Y009634D01*
X004142Y009635D01*
X006642Y009635D01*
X006659Y009633D01*
X006676Y009629D01*
X006692Y009622D01*
X006706Y009612D01*
X006719Y009599D01*
X006729Y009585D01*
X006736Y009569D01*
X006740Y009552D01*
X006742Y009535D01*
X006742Y007295D01*
X006652Y007345D02*
X006652Y007435D01*
X006642Y007435D01*
X004412Y007415D02*
X004262Y007415D01*
X004262Y008545D01*
X004272Y008545D01*
X004412Y008685D02*
X004102Y008685D01*
X004102Y007305D01*
X004412Y007415D02*
X004412Y008685D01*
X004232Y009255D02*
X004232Y009595D01*
X004102Y007294D02*
X004430Y007244D01*
X004759Y007208D01*
X005090Y007186D01*
X005422Y007179D01*
X005754Y007186D01*
X006085Y007208D01*
X006414Y007244D01*
X006742Y007294D01*
D23*
X006512Y007365D02*
X004482Y007365D01*
D24*
X019605Y008548D02*
X019607Y008560D01*
X019612Y008571D01*
X019621Y008580D01*
X019632Y008585D01*
X019644Y008587D01*
X019656Y008585D01*
X019667Y008580D01*
X019676Y008571D01*
X019681Y008560D01*
X019683Y008548D01*
X019681Y008536D01*
X019676Y008525D01*
X019667Y008516D01*
X019656Y008511D01*
X019644Y008509D01*
X019632Y008511D01*
X019621Y008516D01*
X019612Y008525D01*
X019607Y008536D01*
X019605Y008548D01*
X026822Y005586D02*
X026824Y005598D01*
X026829Y005609D01*
X026838Y005618D01*
X026849Y005623D01*
X026861Y005625D01*
X026873Y005623D01*
X026884Y005618D01*
X026893Y005609D01*
X026898Y005598D01*
X026900Y005586D01*
X026898Y005574D01*
X026893Y005563D01*
X026884Y005554D01*
X026873Y005549D01*
X026861Y005547D01*
X026849Y005549D01*
X026838Y005554D01*
X026829Y005563D01*
X026824Y005574D01*
X026822Y005586D01*
D25*
X025583Y005677D03*
X024264Y005677D03*
D26*
X017617Y007226D02*
X017619Y007238D01*
X017625Y007250D01*
X017633Y007258D01*
X017645Y007264D01*
X017657Y007266D01*
X017669Y007264D01*
X017681Y007258D01*
X017689Y007250D01*
X017695Y007238D01*
X017697Y007226D01*
X017695Y007214D01*
X017689Y007202D01*
X017681Y007194D01*
X017669Y007188D01*
X017657Y007186D01*
X017645Y007188D01*
X017633Y007194D01*
X017625Y007202D01*
X017619Y007214D01*
X017617Y007226D01*
D27*
X014384Y014322D02*
X012388Y014322D01*
X012452Y014892D01*
X012307Y014892D01*
X012338Y015192D01*
X012339Y015193D01*
X013484Y015193D01*
X013432Y015249D02*
X012355Y015251D01*
X012340Y015253D01*
X012327Y015257D01*
X012314Y015265D01*
X012304Y015275D01*
X012296Y015288D01*
X012291Y015301D01*
X012289Y015316D01*
X012503Y016883D01*
X012507Y016899D01*
X012513Y016914D01*
X012523Y016927D01*
X012535Y016938D01*
X012549Y016946D01*
X012564Y016952D01*
X012580Y016954D01*
X012580Y016953D02*
X013666Y016953D01*
X013716Y016904D01*
X013667Y016392D01*
X013479Y016392D01*
X013519Y016731D01*
X013501Y016759D01*
X013474Y016782D01*
X012728Y016785D01*
X012687Y016764D01*
X012656Y016729D01*
X012491Y015475D01*
X012512Y015451D01*
X012533Y015436D01*
X013280Y015421D01*
X013322Y015443D01*
X013348Y015468D01*
X013366Y015507D01*
X013418Y015949D01*
X013038Y015951D01*
X013059Y016075D01*
X013619Y016073D01*
X013619Y016074D02*
X013518Y015333D01*
X013576Y015279D02*
X013571Y015260D01*
X013563Y015242D01*
X013552Y015227D01*
X013538Y015213D01*
X013521Y015203D01*
X013503Y015196D01*
X013484Y015193D01*
X013525Y015098D02*
X013705Y015100D01*
X013726Y015093D01*
X013739Y015079D01*
X013738Y014985D01*
X013726Y014967D01*
X013672Y014965D01*
X013618Y014965D01*
X013599Y014980D01*
X013561Y014981D01*
X013543Y014967D01*
X013523Y014950D01*
X013511Y014929D01*
X013510Y014875D01*
X013528Y014855D01*
X013543Y014842D01*
X013596Y014827D01*
X013635Y014819D01*
X013673Y014798D01*
X013704Y014766D01*
X013729Y014732D01*
X013749Y014676D01*
X013749Y014580D01*
X013737Y014541D01*
X013714Y014509D01*
X013686Y014470D01*
X013659Y014447D01*
X013613Y014424D01*
X013567Y014400D01*
X013428Y014399D01*
X013407Y014411D01*
X013356Y014425D01*
X013328Y014428D01*
X013312Y014424D01*
X013295Y014398D01*
X012856Y014398D01*
X012954Y015102D01*
X012955Y015102D02*
X013332Y015104D01*
X013324Y014980D01*
X013072Y014979D01*
X013059Y014827D01*
X013267Y014826D01*
X013249Y014687D01*
X013027Y014687D01*
X013010Y014532D01*
X013307Y014532D01*
X013318Y014549D01*
X013325Y014554D01*
X013327Y014558D01*
X013337Y014565D01*
X013377Y014567D01*
X013396Y014552D01*
X013431Y014534D01*
X013569Y014532D01*
X013586Y014544D01*
X013593Y014552D01*
X013601Y014560D01*
X013608Y014568D01*
X013616Y014579D01*
X013619Y014655D01*
X013606Y014678D01*
X013596Y014689D01*
X013572Y014701D01*
X013522Y014720D01*
X013486Y014737D01*
X013445Y014762D01*
X013414Y014790D01*
X013391Y014819D01*
X013376Y014845D01*
X013376Y014955D01*
X013392Y014999D01*
X013412Y015020D01*
X013433Y015038D01*
X013453Y015058D01*
X013472Y015074D01*
X013485Y015085D01*
X013525Y015098D01*
X013576Y015278D02*
X013691Y016072D01*
X014255Y016073D01*
X014173Y015453D01*
X014439Y015453D01*
X014400Y015135D01*
X014250Y015135D01*
X014384Y014324D01*
X014384Y014322D01*
X014262Y014396D02*
X014146Y015103D01*
X014032Y015102D01*
X013718Y014394D01*
X013723Y014393D02*
X013856Y014393D01*
X013937Y014572D01*
X014107Y014573D01*
X014128Y014397D01*
X014262Y014396D01*
X014077Y014710D02*
X013999Y014712D01*
X014045Y014839D01*
X014061Y014838D01*
X014077Y014710D01*
X013881Y015229D02*
X014321Y015230D01*
X014339Y015358D01*
X014048Y015363D01*
X014129Y015997D01*
X013988Y015996D01*
X013988Y015995D02*
X013881Y015229D01*
X013804Y015230D02*
X013674Y015230D01*
X013773Y015997D01*
X013771Y015995D02*
X013917Y015994D01*
X013804Y015230D01*
X013518Y015333D02*
X013514Y015315D01*
X013506Y015298D01*
X013496Y015283D01*
X013483Y015270D01*
X013467Y015260D01*
X013450Y015252D01*
X013432Y015249D01*
X012890Y015103D02*
X012876Y014982D01*
X012712Y014982D01*
X012631Y014393D01*
X012494Y014393D01*
X012575Y014980D01*
X012415Y014980D01*
X012431Y015104D01*
X012431Y015103D02*
X012890Y015103D01*
X012737Y015690D02*
X012665Y015691D01*
X012682Y015911D01*
X012756Y015911D01*
X012737Y015690D01*
X012790Y015755D02*
X012802Y015756D01*
X012809Y015845D01*
X012612Y015845D01*
X012602Y015755D01*
X012600Y015754D02*
X012790Y015755D01*
X012782Y016312D02*
X012724Y016311D01*
X012724Y016312D02*
X012758Y016578D01*
X012771Y016609D01*
X012797Y016628D01*
X013357Y016627D01*
X013375Y016610D01*
X013384Y016593D01*
X013355Y016311D01*
X013301Y016310D01*
X013325Y016574D01*
X013315Y016587D01*
X012825Y016587D01*
X012810Y016568D01*
X012782Y016312D01*
X013666Y016953D02*
X013666Y016953D01*
D28*
X013662Y016939D02*
X012569Y016935D01*
X012547Y016927D01*
X012527Y016910D01*
X012520Y016883D01*
X012305Y015313D01*
X012311Y015289D01*
X012327Y015275D01*
X012355Y015266D01*
X012842Y015269D01*
X012854Y015266D02*
X013426Y015264D01*
X013462Y015275D01*
X013479Y015288D01*
X013494Y015312D01*
X013500Y015329D01*
X013602Y016060D01*
X013070Y016058D01*
X013053Y015965D01*
X013430Y015964D01*
X013431Y015941D01*
X013384Y015505D01*
X013360Y015458D01*
X013327Y015429D01*
X013289Y015408D01*
X012526Y015420D01*
X012488Y015445D01*
X012494Y015446D01*
X012478Y015470D01*
X012639Y016734D01*
X012667Y016768D01*
X012700Y016790D01*
X012733Y016800D01*
X013477Y016799D01*
X013504Y016779D01*
X013526Y016754D01*
X013535Y016739D01*
X013498Y016405D01*
X013651Y016405D01*
X013698Y016898D01*
X013662Y016939D01*
X013351Y016609D02*
X012806Y016613D01*
X012792Y016608D01*
X012778Y016590D01*
X012743Y016326D01*
X012740Y016324D02*
X012766Y016324D01*
X012797Y016577D01*
X012813Y016602D01*
X013323Y016599D01*
X013342Y016586D01*
X013319Y016340D01*
X013314Y016322D01*
X013343Y016326D01*
X013368Y016591D01*
X013351Y016609D01*
X013701Y016055D02*
X013590Y015257D01*
X013575Y015232D01*
X013553Y015211D01*
X013518Y015187D01*
X013494Y015177D01*
X012348Y015174D01*
X012323Y014904D01*
X012471Y014905D01*
X012405Y014339D01*
X012402Y014334D02*
X014370Y014336D01*
X014232Y015147D01*
X014386Y015154D01*
X014387Y015149D01*
X014424Y015440D01*
X014159Y015442D01*
X014238Y016061D01*
X013701Y016055D01*
X013758Y016009D02*
X013659Y015213D01*
X013806Y015212D01*
X013818Y015220D01*
X013935Y016006D01*
X013771Y016009D01*
X013976Y016013D02*
X013867Y015217D01*
X013877Y015213D01*
X014333Y015215D01*
X014353Y015357D01*
X014344Y015371D01*
X014067Y015375D01*
X014150Y016011D01*
X013988Y016012D01*
X012797Y015829D02*
X012790Y015770D01*
X012616Y015769D01*
X012621Y015814D01*
X012775Y015813D01*
X012772Y015792D01*
X012636Y015793D01*
X012624Y015832D02*
X012797Y015829D01*
X012731Y015871D02*
X012721Y015885D01*
X012712Y015870D02*
X012707Y015720D01*
X012680Y015703D01*
X012725Y015704D01*
X012740Y015897D01*
X012696Y015894D01*
X012682Y015706D01*
X012907Y015114D02*
X012428Y015116D01*
X012414Y015103D01*
X012400Y014975D01*
X012413Y014968D01*
X012558Y014966D01*
X012478Y014377D01*
X012493Y014374D02*
X012638Y014376D01*
X012725Y014967D01*
X012881Y014967D01*
X012888Y014972D01*
X012907Y015114D01*
X012949Y015115D02*
X012841Y014379D01*
X012855Y014379D02*
X012865Y014380D01*
X013301Y014383D01*
X013319Y014410D01*
X013391Y014401D01*
X013419Y014384D01*
X013569Y014383D01*
X013674Y014435D01*
X013723Y014493D01*
X013758Y014546D01*
X013766Y014611D01*
X013762Y014701D01*
X013731Y014768D01*
X013726Y014760D01*
X013688Y014807D01*
X013644Y014831D01*
X013595Y014845D01*
X013548Y014860D01*
X013526Y014885D01*
X013529Y014925D01*
X013561Y014964D01*
X013593Y014965D01*
X013606Y014955D01*
X013730Y014953D01*
X013750Y014973D01*
X013755Y015078D01*
X013742Y015105D01*
X013710Y015114D01*
X013523Y015114D01*
X013473Y015094D01*
X013391Y015024D01*
X013380Y015004D01*
X013363Y014951D01*
X013360Y014837D01*
X013406Y014772D01*
X013455Y014734D01*
X013523Y014705D01*
X013593Y014672D01*
X013602Y014647D01*
X013602Y014585D01*
X013567Y014550D01*
X013430Y014552D01*
X013390Y014576D01*
X013356Y014580D01*
X013324Y014573D01*
X013301Y014548D01*
X013026Y014549D01*
X013041Y014671D01*
X013260Y014672D01*
X013284Y014834D01*
X013275Y014840D01*
X013073Y014840D01*
X013085Y014963D01*
X013335Y014965D01*
X013350Y015107D01*
X013339Y015114D01*
X012949Y015115D01*
X014022Y014809D02*
X013984Y014697D01*
X014056Y014697D01*
X014096Y014698D01*
X014071Y014846D01*
X014068Y014852D02*
X014038Y014852D01*
X014022Y014809D01*
X014094Y014559D02*
X013946Y014559D01*
X013860Y014378D01*
X013717Y014381D01*
X013698Y014380D02*
X014026Y015118D01*
X014154Y015115D01*
X014162Y015107D01*
X014277Y014387D01*
X014268Y014381D01*
X014122Y014384D01*
X014113Y014390D01*
X014094Y014559D01*
M02*
