G75*
G70*
%OFA0B0*%
%FSLAX24Y24*%
%IPPOS*%
%LPD*%
%AMOC8*
5,1,8,0,0,1.08239X$1,22.5*
%
%ADD10C,0.0050*%
%ADD11C,0.0000*%
%ADD12C,0.1181*%
%ADD13R,0.0787X0.1041*%
%ADD14R,0.0737X0.0788*%
%ADD15R,0.0850X0.0788*%
%ADD16R,0.0800X0.1300*%
%ADD17R,0.0550X0.1400*%
%ADD18R,0.0197X0.0220*%
%ADD19R,0.0220X0.0197*%
%ADD20R,0.0315X0.0472*%
%ADD21R,0.0250X0.0472*%
%ADD22C,0.0004*%
%ADD23C,0.0450*%
%ADD24C,0.0709*%
%ADD25R,0.0600X0.0236*%
%ADD26R,0.1450X0.0350*%
%ADD27C,0.0850*%
%ADD28R,0.0394X0.0433*%
%ADD29C,0.0787*%
%ADD30C,0.0512*%
%ADD31R,0.0197X0.0250*%
%ADD32R,0.0472X0.0217*%
%ADD33R,0.0358X0.0480*%
%ADD34R,0.0551X0.0906*%
%ADD35R,0.0157X0.0551*%
%ADD36R,0.0250X0.0354*%
%ADD37R,0.0433X0.0394*%
%ADD38R,0.0315X0.0354*%
%ADD39R,0.0354X0.0250*%
%ADD40C,0.0984*%
%ADD41R,0.0551X0.0236*%
%ADD42R,0.0551X0.1181*%
%ADD43R,0.0906X0.0551*%
D10*
X001677Y000927D02*
X016366Y000927D01*
X016366Y000955D01*
X016370Y000983D01*
X016377Y001010D01*
X016388Y001036D01*
X016402Y001060D01*
X016419Y001082D01*
X016439Y001102D01*
X016461Y001119D01*
X016485Y001133D01*
X016511Y001144D01*
X016538Y001151D01*
X016566Y001155D01*
X016716Y001155D01*
X016744Y001151D01*
X016771Y001144D01*
X016797Y001133D01*
X016821Y001119D01*
X016843Y001102D01*
X016863Y001082D01*
X016880Y001060D01*
X016894Y001036D01*
X016905Y001010D01*
X016912Y000983D01*
X016916Y000955D01*
X016916Y000927D01*
X022103Y000927D01*
X022103Y000955D01*
X022107Y000983D01*
X022114Y001010D01*
X022125Y001036D01*
X022139Y001060D01*
X022156Y001082D01*
X022176Y001102D01*
X022198Y001119D01*
X022222Y001133D01*
X022248Y001144D01*
X022275Y001151D01*
X022303Y001155D01*
X022453Y001155D01*
X022453Y001156D02*
X022482Y001152D01*
X022509Y001145D01*
X022535Y001135D01*
X022560Y001121D01*
X022583Y001104D01*
X022603Y001084D01*
X022621Y001062D01*
X022635Y001037D01*
X022647Y001011D01*
X022654Y000984D01*
X022658Y000956D01*
X022659Y000928D01*
X022658Y000927D02*
X031662Y000927D01*
X031716Y000929D01*
X031770Y000934D01*
X031823Y000943D01*
X031876Y000956D01*
X031927Y000973D01*
X031977Y000993D01*
X032025Y001017D01*
X032072Y001044D01*
X032117Y001075D01*
X032159Y001108D01*
X032199Y001145D01*
X032236Y001184D01*
X032270Y001226D01*
X032301Y001270D01*
X032329Y001316D01*
X032353Y001364D01*
X032374Y001414D01*
X032392Y001465D01*
X032406Y001517D01*
X032416Y001570D01*
X032422Y001624D01*
X032424Y001677D01*
X032423Y001677D02*
X032423Y017896D01*
X032424Y017895D02*
X032422Y017949D01*
X032415Y018003D01*
X032405Y018056D01*
X032392Y018108D01*
X032374Y018159D01*
X032353Y018209D01*
X032329Y018257D01*
X032301Y018303D01*
X032269Y018347D01*
X032235Y018388D01*
X032198Y018427D01*
X032158Y018464D01*
X032116Y018497D01*
X032072Y018528D01*
X032025Y018555D01*
X031977Y018578D01*
X031927Y018599D01*
X031875Y018615D01*
X031823Y018628D01*
X031770Y018637D01*
X031716Y018643D01*
X031663Y018644D01*
X031662Y018644D02*
X001677Y018644D01*
X001624Y018642D01*
X001570Y018637D01*
X001518Y018627D01*
X001466Y018614D01*
X001415Y018597D01*
X001366Y018577D01*
X001318Y018553D01*
X001272Y018526D01*
X001228Y018495D01*
X001186Y018462D01*
X001147Y018425D01*
X001111Y018386D01*
X001077Y018345D01*
X001046Y018301D01*
X001019Y018255D01*
X000995Y018207D01*
X000975Y018158D01*
X000958Y018107D01*
X000944Y018055D01*
X000935Y018003D01*
X000929Y017949D01*
X000927Y017896D01*
X000927Y001677D01*
X000929Y001623D01*
X000935Y001570D01*
X000944Y001518D01*
X000957Y001466D01*
X000974Y001415D01*
X000995Y001365D01*
X001019Y001318D01*
X001046Y001272D01*
X001077Y001228D01*
X001110Y001186D01*
X001147Y001147D01*
X001186Y001110D01*
X001228Y001077D01*
X001272Y001046D01*
X001318Y001019D01*
X001365Y000995D01*
X001415Y000974D01*
X001466Y000957D01*
X001518Y000944D01*
X001570Y000935D01*
X001623Y000929D01*
X001677Y000927D01*
X009521Y002579D02*
X009521Y003914D01*
X010421Y003914D01*
X010421Y003659D01*
X010423Y003625D01*
X010429Y003592D01*
X010438Y003560D01*
X010451Y003529D01*
X010467Y003499D01*
X010486Y003472D01*
X010509Y003447D01*
X010534Y003424D01*
X010561Y003405D01*
X010591Y003389D01*
X010622Y003376D01*
X010654Y003367D01*
X010687Y003361D01*
X010721Y003359D01*
X011821Y003359D01*
X011851Y003361D01*
X011881Y003366D01*
X011910Y003375D01*
X011937Y003388D01*
X011963Y003403D01*
X011987Y003422D01*
X012008Y003443D01*
X012027Y003467D01*
X012042Y003493D01*
X012055Y003520D01*
X012064Y003549D01*
X012069Y003579D01*
X012071Y003609D01*
X012071Y006809D01*
X012069Y006839D01*
X012064Y006869D01*
X012055Y006898D01*
X012042Y006925D01*
X012027Y006951D01*
X012008Y006975D01*
X011987Y006996D01*
X011963Y007015D01*
X011937Y007030D01*
X011910Y007043D01*
X011881Y007052D01*
X011851Y007057D01*
X011821Y007059D01*
X011471Y007059D01*
X011441Y007061D01*
X011411Y007066D01*
X011382Y007075D01*
X011355Y007088D01*
X011329Y007103D01*
X011305Y007122D01*
X011284Y007143D01*
X011265Y007167D01*
X011250Y007193D01*
X011237Y007220D01*
X011228Y007249D01*
X011223Y007279D01*
X011221Y007309D01*
X011221Y009109D01*
X011223Y009139D01*
X011228Y009169D01*
X011237Y009198D01*
X011250Y009225D01*
X011265Y009251D01*
X011284Y009275D01*
X011305Y009296D01*
X011329Y009315D01*
X011355Y009330D01*
X011382Y009343D01*
X011411Y009352D01*
X011441Y009357D01*
X011471Y009359D01*
X013471Y009359D01*
X013499Y009358D01*
X013526Y009354D01*
X013553Y009347D01*
X013578Y009336D01*
X013602Y009322D01*
X013623Y009305D01*
X013643Y009285D01*
X013659Y009263D01*
X013673Y009239D01*
X013683Y009213D01*
X013690Y009186D01*
X013693Y009159D01*
X013693Y008015D01*
X013692Y007979D01*
X013695Y007944D01*
X013702Y007909D01*
X013712Y007875D01*
X013726Y007842D01*
X013743Y007810D01*
X013764Y007781D01*
X013787Y007754D01*
X013813Y007730D01*
X013841Y007708D01*
X013872Y007689D01*
X013904Y007674D01*
X013938Y007663D01*
X013973Y007654D01*
X014008Y007650D01*
X016403Y007650D01*
X016435Y007649D01*
X016467Y007646D01*
X016499Y007638D01*
X016530Y007627D01*
X016559Y007613D01*
X016586Y007595D01*
X016612Y007575D01*
X016635Y007552D01*
X016655Y007526D01*
X016672Y007499D01*
X016686Y007469D01*
X016696Y007438D01*
X016703Y007407D01*
X016707Y007374D01*
X016707Y005092D01*
X016007Y005092D01*
X016007Y005093D02*
X015984Y005097D01*
X015962Y005104D01*
X015941Y005114D01*
X015922Y005127D01*
X015905Y005143D01*
X015891Y005161D01*
X015879Y005181D01*
X015870Y005202D01*
X015864Y005224D01*
X015861Y005247D01*
X015862Y005270D01*
X015862Y005332D01*
X015862Y005355D01*
X015858Y005378D01*
X015852Y005400D01*
X015842Y005421D01*
X015830Y005440D01*
X015815Y005457D01*
X015797Y005472D01*
X015778Y005485D01*
X015757Y005494D01*
X015735Y005500D01*
X015712Y005504D01*
X015572Y005504D01*
X015572Y005505D02*
X015549Y005508D01*
X015527Y005515D01*
X015506Y005525D01*
X015486Y005538D01*
X015469Y005554D01*
X015453Y005571D01*
X015441Y005591D01*
X015432Y005613D01*
X015425Y005635D01*
X015422Y005658D01*
X015423Y005682D01*
X015422Y005682D02*
X015422Y006132D01*
X014322Y006132D01*
X014304Y006072D01*
X014282Y006013D01*
X014256Y005956D01*
X014227Y005900D01*
X014195Y005847D01*
X014159Y005795D01*
X014121Y005745D01*
X014080Y005698D01*
X014035Y005653D01*
X013989Y005612D01*
X013939Y005573D01*
X013888Y005537D01*
X013834Y005504D01*
X013784Y005466D01*
X013736Y005425D01*
X013691Y005381D01*
X013649Y005335D01*
X013609Y005286D01*
X013573Y005234D01*
X013540Y005181D01*
X013510Y005126D01*
X013483Y005069D01*
X013460Y005010D01*
X013441Y004950D01*
X013425Y004889D01*
X013413Y004828D01*
X013404Y004765D01*
X013400Y004702D01*
X013399Y004640D01*
X013402Y004577D01*
X013409Y004514D01*
X013420Y004452D01*
X013434Y004391D01*
X013452Y004331D01*
X013474Y004272D01*
X013499Y004214D01*
X013528Y004158D01*
X013560Y004104D01*
X013595Y004052D01*
X013633Y004002D01*
X013674Y003954D01*
X013719Y003909D01*
X013765Y003867D01*
X013814Y003828D01*
X013866Y003792D01*
X013919Y003759D01*
X013975Y003729D01*
X014032Y003703D01*
X014090Y003680D01*
X014150Y003661D01*
X014211Y003645D01*
X014273Y003633D01*
X014335Y003625D01*
X014398Y003621D01*
X014461Y003620D01*
X014524Y003624D01*
X014586Y003631D01*
X014648Y003642D01*
X014710Y003656D01*
X014770Y003674D01*
X014829Y003696D01*
X014886Y003722D01*
X015547Y003722D01*
X015580Y003724D01*
X015613Y003730D01*
X015645Y003739D01*
X015676Y003751D01*
X015706Y003766D01*
X015734Y003785D01*
X015759Y003806D01*
X015782Y003830D01*
X015803Y003856D01*
X015821Y003884D01*
X015836Y003914D01*
X015847Y003945D01*
X015856Y003977D01*
X015861Y004010D01*
X015862Y004043D01*
X015865Y004066D01*
X015872Y004088D01*
X015882Y004109D01*
X015895Y004129D01*
X015910Y004146D01*
X015928Y004161D01*
X015948Y004173D01*
X015969Y004183D01*
X015992Y004189D01*
X016015Y004192D01*
X016038Y004191D01*
X016038Y004192D02*
X016707Y004192D01*
X016707Y003122D01*
X016709Y003092D01*
X016714Y003062D01*
X016723Y003033D01*
X016736Y003006D01*
X016751Y002980D01*
X016770Y002956D01*
X016791Y002935D01*
X016815Y002916D01*
X016841Y002901D01*
X016868Y002888D01*
X016897Y002879D01*
X016927Y002874D01*
X016957Y002872D01*
X021818Y002959D01*
X022103Y002305D02*
X016916Y002305D01*
X016916Y002277D01*
X016912Y002249D01*
X016905Y002222D01*
X016894Y002196D01*
X016880Y002172D01*
X016863Y002150D01*
X016843Y002130D01*
X016821Y002113D01*
X016797Y002099D01*
X016771Y002088D01*
X016744Y002081D01*
X016716Y002077D01*
X016566Y002077D01*
X016538Y002081D01*
X016511Y002088D01*
X016485Y002099D01*
X016461Y002113D01*
X016439Y002130D01*
X016419Y002150D01*
X016402Y002172D01*
X016388Y002196D01*
X016377Y002222D01*
X016370Y002249D01*
X016366Y002277D01*
X016366Y002305D01*
X009861Y002305D01*
X009829Y002303D01*
X009797Y002305D01*
X009765Y002310D01*
X009733Y002318D01*
X009703Y002329D01*
X009674Y002344D01*
X009647Y002361D01*
X009622Y002382D01*
X009599Y002405D01*
X009579Y002430D01*
X009561Y002457D01*
X009546Y002485D01*
X009534Y002516D01*
X009526Y002547D01*
X009521Y002579D01*
X009521Y004702D02*
X009521Y007909D01*
X010421Y008509D02*
X010421Y004702D01*
X009521Y004702D01*
X009521Y007909D02*
X009524Y008093D01*
X009518Y008277D01*
X009505Y008460D01*
X009484Y008643D01*
X009455Y008824D01*
X009418Y009004D01*
X009374Y009183D01*
X009321Y009359D01*
X011051Y011649D02*
X010922Y011821D01*
X010784Y011987D01*
X010639Y012146D01*
X010486Y012297D01*
X010326Y012441D01*
X010159Y012578D01*
X009986Y012706D01*
X009807Y012825D01*
X009622Y012936D01*
X009432Y013038D01*
X009238Y013131D01*
X009040Y013214D01*
X008837Y013288D01*
X008631Y013352D01*
X008423Y013406D01*
X008212Y013450D01*
X008212Y013449D02*
X008212Y017454D01*
X008210Y017484D01*
X008204Y017513D01*
X008195Y017542D01*
X008183Y017569D01*
X008167Y017595D01*
X008148Y017618D01*
X008127Y017639D01*
X008103Y017657D01*
X008077Y017673D01*
X008050Y017685D01*
X008021Y017693D01*
X007992Y017698D01*
X007962Y017700D01*
X007962Y017699D02*
X006915Y017699D01*
X006915Y016609D01*
X007371Y016609D01*
X007401Y016607D01*
X007431Y016602D01*
X007460Y016593D01*
X007487Y016580D01*
X007513Y016565D01*
X007537Y016546D01*
X007558Y016525D01*
X007577Y016501D01*
X007592Y016475D01*
X007605Y016448D01*
X007614Y016419D01*
X007619Y016389D01*
X007621Y016359D01*
X007621Y014659D01*
X007619Y014629D01*
X007614Y014599D01*
X007605Y014570D01*
X007592Y014543D01*
X007577Y014517D01*
X007558Y014493D01*
X007537Y014472D01*
X007513Y014453D01*
X007487Y014438D01*
X007460Y014425D01*
X007431Y014416D01*
X007401Y014411D01*
X007371Y014409D01*
X006771Y014409D01*
X006741Y014407D01*
X006711Y014402D01*
X006682Y014393D01*
X006655Y014380D01*
X006629Y014365D01*
X006605Y014346D01*
X006584Y014325D01*
X006565Y014301D01*
X006550Y014275D01*
X006537Y014248D01*
X006528Y014219D01*
X006523Y014189D01*
X006521Y014159D01*
X006521Y013159D01*
X006523Y013129D01*
X006528Y013099D01*
X006537Y013070D01*
X006550Y013043D01*
X006565Y013017D01*
X006584Y012993D01*
X006605Y012972D01*
X006629Y012953D01*
X006655Y012938D01*
X006682Y012925D01*
X006711Y012916D01*
X006741Y012911D01*
X006771Y012909D01*
X007621Y012909D01*
X007271Y012059D02*
X005571Y012059D01*
X005541Y012061D01*
X005511Y012066D01*
X005482Y012075D01*
X005455Y012088D01*
X005429Y012103D01*
X005405Y012122D01*
X005384Y012143D01*
X005365Y012167D01*
X005350Y012193D01*
X005337Y012220D01*
X005328Y012249D01*
X005323Y012279D01*
X005321Y012309D01*
X005321Y014589D01*
X005319Y014643D01*
X005313Y014696D01*
X005304Y014748D01*
X005291Y014800D01*
X005274Y014851D01*
X005253Y014901D01*
X005229Y014948D01*
X005202Y014994D01*
X005171Y015038D01*
X005138Y015080D01*
X005101Y015119D01*
X005062Y015156D01*
X005020Y015189D01*
X004976Y015220D01*
X004930Y015247D01*
X004883Y015271D01*
X004833Y015292D01*
X004782Y015309D01*
X004730Y015322D01*
X004678Y015331D01*
X004625Y015337D01*
X004571Y015339D01*
X003321Y015339D01*
X002781Y014739D02*
X002735Y014744D01*
X002690Y014753D01*
X002645Y014765D01*
X002601Y014780D01*
X002559Y014799D01*
X002518Y014822D01*
X002479Y014847D01*
X002442Y014875D01*
X002408Y014906D01*
X002376Y014940D01*
X002347Y014976D01*
X002321Y015015D01*
X002297Y015055D01*
X002278Y015097D01*
X002261Y015140D01*
X002248Y015185D01*
X002238Y015230D01*
X002232Y015276D01*
X002230Y015322D01*
X002231Y015369D01*
X002231Y015368D02*
X002231Y017149D01*
X002233Y017194D01*
X002239Y017240D01*
X002248Y017284D01*
X002261Y017328D01*
X002277Y017370D01*
X002297Y017411D01*
X002321Y017450D01*
X002347Y017487D01*
X002376Y017522D01*
X002408Y017554D01*
X002443Y017583D01*
X002480Y017609D01*
X002519Y017633D01*
X002560Y017653D01*
X002602Y017669D01*
X002646Y017682D01*
X002690Y017691D01*
X002736Y017697D01*
X002781Y017699D01*
X006127Y017699D01*
X006127Y016609D01*
X005471Y016609D01*
X005448Y016611D01*
X005425Y016616D01*
X005403Y016625D01*
X005383Y016638D01*
X005365Y016653D01*
X005350Y016671D01*
X005337Y016691D01*
X005328Y016713D01*
X005323Y016736D01*
X005321Y016759D01*
X005321Y017059D01*
X005319Y017082D01*
X005314Y017105D01*
X005305Y017127D01*
X005292Y017147D01*
X005277Y017165D01*
X005259Y017180D01*
X005239Y017193D01*
X005217Y017202D01*
X005194Y017207D01*
X005171Y017209D01*
X003321Y017209D01*
X003276Y017207D01*
X003230Y017201D01*
X003186Y017192D01*
X003142Y017179D01*
X003100Y017163D01*
X003059Y017143D01*
X003020Y017119D01*
X002983Y017093D01*
X002948Y017064D01*
X002916Y017032D01*
X002887Y016997D01*
X002861Y016960D01*
X002837Y016921D01*
X002817Y016880D01*
X002801Y016838D01*
X002788Y016794D01*
X002779Y016750D01*
X002773Y016704D01*
X002771Y016659D01*
X002771Y015889D01*
X002773Y015844D01*
X002779Y015798D01*
X002788Y015754D01*
X002801Y015710D01*
X002817Y015668D01*
X002837Y015627D01*
X002861Y015588D01*
X002887Y015551D01*
X002916Y015516D01*
X002948Y015484D01*
X002983Y015455D01*
X003020Y015429D01*
X003059Y015405D01*
X003100Y015385D01*
X003142Y015369D01*
X003186Y015356D01*
X003230Y015347D01*
X003276Y015341D01*
X003321Y015339D01*
X002781Y014739D02*
X003971Y014739D01*
X004025Y014737D01*
X004078Y014731D01*
X004130Y014722D01*
X004182Y014709D01*
X004233Y014692D01*
X004283Y014671D01*
X004330Y014647D01*
X004376Y014620D01*
X004420Y014589D01*
X004462Y014556D01*
X004501Y014519D01*
X004538Y014480D01*
X004571Y014438D01*
X004602Y014394D01*
X004629Y014348D01*
X004653Y014301D01*
X004674Y014251D01*
X004691Y014200D01*
X004704Y014148D01*
X004713Y014096D01*
X004719Y014043D01*
X004721Y013989D01*
X004721Y011509D01*
X004723Y011479D01*
X004728Y011449D01*
X004737Y011420D01*
X004750Y011393D01*
X004765Y011367D01*
X004784Y011343D01*
X004805Y011322D01*
X004829Y011303D01*
X004855Y011288D01*
X004882Y011275D01*
X004911Y011266D01*
X004941Y011261D01*
X004971Y011259D01*
X006871Y011259D01*
X010721Y010653D02*
X013671Y010653D01*
X013695Y010655D01*
X013718Y010661D01*
X013740Y010671D01*
X013760Y010684D01*
X013778Y010700D01*
X013794Y010719D01*
X013806Y010739D01*
X013814Y010762D01*
X013820Y010785D01*
X013821Y010809D01*
X013823Y010826D01*
X013827Y010843D01*
X013834Y010859D01*
X013844Y010873D01*
X013857Y010886D01*
X013871Y010896D01*
X013887Y010903D01*
X013904Y010907D01*
X013921Y010909D01*
X014671Y010909D01*
X014688Y010907D01*
X014705Y010903D01*
X014721Y010896D01*
X014735Y010886D01*
X014748Y010873D01*
X014758Y010859D01*
X014765Y010843D01*
X014769Y010826D01*
X014771Y010809D01*
X014772Y010809D02*
X014773Y010785D01*
X014779Y010762D01*
X014787Y010739D01*
X014799Y010719D01*
X014815Y010700D01*
X014833Y010684D01*
X014853Y010671D01*
X014875Y010661D01*
X014898Y010655D01*
X014922Y010653D01*
X014921Y010653D02*
X017312Y010653D01*
X017335Y010655D01*
X017358Y010660D01*
X017380Y010669D01*
X017400Y010682D01*
X017418Y010697D01*
X017433Y010715D01*
X017446Y010735D01*
X017455Y010757D01*
X017460Y010780D01*
X017462Y010803D01*
X017462Y011240D01*
X017465Y011271D01*
X017473Y011302D01*
X017484Y011332D01*
X017498Y011360D01*
X017515Y011387D01*
X017535Y011411D01*
X017557Y011433D01*
X017582Y011453D01*
X017609Y011469D01*
X017638Y011483D01*
X017668Y011493D01*
X017699Y011499D01*
X017730Y011503D01*
X017762Y011502D01*
X017762Y011503D02*
X018477Y011503D01*
X018477Y012853D01*
X016912Y012853D01*
X016912Y012852D02*
X016881Y012853D01*
X016851Y012849D01*
X016822Y012842D01*
X016794Y012831D01*
X016767Y012816D01*
X016743Y012798D01*
X016721Y012777D01*
X016702Y012753D01*
X016687Y012727D01*
X016674Y012699D01*
X016666Y012670D01*
X016662Y012640D01*
X016662Y011803D01*
X016660Y011779D01*
X016655Y011756D01*
X016646Y011733D01*
X016634Y011713D01*
X016619Y011695D01*
X016601Y011679D01*
X016580Y011666D01*
X016558Y011657D01*
X016535Y011651D01*
X016512Y011649D01*
X011051Y011649D01*
X010221Y009659D02*
X010268Y009520D01*
X010308Y009379D01*
X010342Y009236D01*
X010371Y009093D01*
X010393Y008948D01*
X010408Y008802D01*
X010418Y008656D01*
X010421Y008509D01*
X010721Y010653D02*
X010610Y010843D01*
X010490Y011027D01*
X010361Y011205D01*
X010224Y011377D01*
X010078Y011541D01*
X009925Y011699D01*
X009764Y011849D01*
X009596Y011991D01*
X009421Y012124D01*
X009240Y012250D01*
X009054Y012366D01*
X008862Y012473D01*
X008664Y012570D01*
X008463Y012658D01*
X008257Y012736D01*
X008048Y012804D01*
X007836Y012862D01*
X007621Y012909D01*
X004121Y016209D02*
X004121Y016359D01*
X004119Y016398D01*
X004113Y016437D01*
X004104Y016475D01*
X004091Y016512D01*
X004074Y016548D01*
X004054Y016581D01*
X004030Y016613D01*
X004004Y016642D01*
X003975Y016668D01*
X003943Y016692D01*
X003910Y016712D01*
X003874Y016729D01*
X003837Y016742D01*
X003799Y016751D01*
X003760Y016757D01*
X003721Y016759D01*
X003682Y016757D01*
X003643Y016751D01*
X003605Y016742D01*
X003568Y016729D01*
X003532Y016712D01*
X003499Y016692D01*
X003467Y016668D01*
X003438Y016642D01*
X003412Y016613D01*
X003388Y016581D01*
X003368Y016548D01*
X003351Y016512D01*
X003338Y016475D01*
X003329Y016437D01*
X003323Y016398D01*
X003321Y016359D01*
X003321Y016209D01*
X003323Y016170D01*
X003329Y016131D01*
X003338Y016093D01*
X003351Y016056D01*
X003368Y016020D01*
X003388Y015987D01*
X003412Y015955D01*
X003438Y015926D01*
X003467Y015900D01*
X003499Y015876D01*
X003532Y015856D01*
X003568Y015839D01*
X003605Y015826D01*
X003643Y015817D01*
X003682Y015811D01*
X003721Y015809D01*
X003760Y015811D01*
X003799Y015817D01*
X003837Y015826D01*
X003874Y015839D01*
X003910Y015856D01*
X003943Y015876D01*
X003975Y015900D01*
X004004Y015926D01*
X004030Y015955D01*
X004054Y015987D01*
X004074Y016020D01*
X004091Y016056D01*
X004104Y016093D01*
X004113Y016131D01*
X004119Y016170D01*
X004121Y016209D01*
X007271Y012059D02*
X007442Y012030D01*
X007612Y011994D01*
X007780Y011949D01*
X007946Y011897D01*
X008109Y011837D01*
X008269Y011769D01*
X008425Y011694D01*
X008578Y011611D01*
X008727Y011522D01*
X008871Y011425D01*
X009011Y011322D01*
X009146Y011212D01*
X009275Y011097D01*
X009399Y010975D01*
X009517Y010847D01*
X009629Y010714D01*
X009734Y010576D01*
X009833Y010434D01*
X009925Y010286D01*
X010010Y010135D01*
X010088Y009980D01*
X010158Y009821D01*
X010221Y009659D01*
X009321Y009359D02*
X009267Y009490D01*
X009206Y009618D01*
X009140Y009743D01*
X009068Y009865D01*
X008990Y009983D01*
X008907Y010097D01*
X008818Y010208D01*
X008725Y010314D01*
X008626Y010416D01*
X008523Y010513D01*
X008415Y010605D01*
X008303Y010691D01*
X008187Y010773D01*
X008068Y010849D01*
X007945Y010919D01*
X007819Y010983D01*
X007690Y011041D01*
X007558Y011094D01*
X007424Y011139D01*
X007288Y011179D01*
X007150Y011212D01*
X007011Y011239D01*
X006871Y011259D01*
X019265Y011503D02*
X019265Y012853D01*
X023232Y012853D01*
X023233Y012853D02*
X023276Y012844D01*
X023320Y012833D01*
X023362Y012817D01*
X023402Y012799D01*
X023441Y012777D01*
X023478Y012752D01*
X023513Y012724D01*
X023545Y012693D01*
X023575Y012659D01*
X023602Y012623D01*
X023626Y012586D01*
X023646Y012546D01*
X023663Y012505D01*
X023677Y012462D01*
X023687Y012419D01*
X023694Y012374D01*
X023697Y012330D01*
X023696Y012285D01*
X023692Y012240D01*
X023692Y010486D01*
X023694Y010440D01*
X023700Y010394D01*
X023710Y010350D01*
X023724Y010306D01*
X023741Y010263D01*
X023761Y010223D01*
X023785Y010183D01*
X023812Y010146D01*
X023842Y010112D01*
X023875Y010080D01*
X023910Y010050D01*
X023948Y010024D01*
X023987Y010001D01*
X024028Y009981D01*
X024071Y009965D01*
X024115Y009953D01*
X024160Y009944D01*
X024206Y009938D01*
X024251Y009937D01*
X030612Y009937D01*
X030655Y009935D01*
X030698Y009929D01*
X030741Y009920D01*
X030782Y009907D01*
X030822Y009890D01*
X030861Y009870D01*
X030897Y009847D01*
X030931Y009821D01*
X030963Y009791D01*
X030993Y009759D01*
X031019Y009725D01*
X031042Y009688D01*
X031062Y009650D01*
X031079Y009610D01*
X031092Y009569D01*
X031101Y009526D01*
X031107Y009483D01*
X031109Y009440D01*
X031109Y006704D01*
X030321Y006704D01*
X030321Y008259D01*
X030319Y008293D01*
X030313Y008326D01*
X030304Y008358D01*
X030291Y008389D01*
X030275Y008419D01*
X030256Y008446D01*
X030233Y008471D01*
X030208Y008494D01*
X030181Y008513D01*
X030151Y008529D01*
X030120Y008542D01*
X030088Y008551D01*
X030055Y008557D01*
X030021Y008559D01*
X029521Y008559D01*
X029522Y008559D02*
X029504Y008561D01*
X029487Y008566D01*
X029471Y008574D01*
X029456Y008585D01*
X029444Y008598D01*
X029434Y008613D01*
X029427Y008630D01*
X029423Y008647D01*
X029422Y008665D01*
X029421Y008665D02*
X029419Y008682D01*
X029415Y008699D01*
X029408Y008715D01*
X029398Y008729D01*
X029385Y008742D01*
X029371Y008752D01*
X029355Y008759D01*
X029338Y008763D01*
X029321Y008765D01*
X028421Y008765D01*
X028404Y008763D01*
X028387Y008759D01*
X028371Y008752D01*
X028357Y008742D01*
X028344Y008729D01*
X028334Y008715D01*
X028327Y008699D01*
X028323Y008682D01*
X028321Y008665D01*
X028320Y008647D01*
X028316Y008630D01*
X028309Y008613D01*
X028299Y008598D01*
X028287Y008585D01*
X028272Y008574D01*
X028256Y008566D01*
X028239Y008561D01*
X028221Y008559D01*
X024061Y008559D01*
X022515Y008687D02*
X021728Y008687D01*
X021728Y008685D02*
X021721Y008759D01*
X022521Y008759D01*
X022515Y008685D01*
X022494Y008614D01*
X022462Y008548D01*
X022417Y008489D01*
X022363Y008440D01*
X022300Y008401D01*
X022231Y008374D01*
X022158Y008361D01*
X022085Y008361D01*
X022012Y008374D01*
X021943Y008401D01*
X021880Y008440D01*
X021826Y008489D01*
X021781Y008548D01*
X021749Y008614D01*
X021728Y008685D01*
X021742Y008639D02*
X022501Y008639D01*
X022483Y008590D02*
X021760Y008590D01*
X021786Y008542D02*
X022457Y008542D01*
X022420Y008493D02*
X021823Y008493D01*
X021875Y008445D02*
X022368Y008445D01*
X022288Y008396D02*
X021955Y008396D01*
X021724Y008736D02*
X022519Y008736D01*
X022892Y009708D02*
X022892Y011353D01*
X022887Y011378D01*
X022878Y011401D01*
X022866Y011424D01*
X022851Y011444D01*
X022833Y011462D01*
X022813Y011477D01*
X022791Y011489D01*
X022767Y011498D01*
X022742Y011503D01*
X022717Y011505D01*
X022692Y011503D01*
X019265Y011503D01*
X022892Y009708D02*
X022895Y009640D01*
X022901Y009573D01*
X022911Y009507D01*
X022926Y009441D01*
X022944Y009376D01*
X022965Y009312D01*
X022991Y009250D01*
X023020Y009189D01*
X023052Y009130D01*
X023088Y009073D01*
X023127Y009018D01*
X023170Y008965D01*
X023215Y008915D01*
X023263Y008868D01*
X023314Y008824D01*
X023367Y008782D01*
X023423Y008744D01*
X023480Y008709D01*
X023540Y008678D01*
X023601Y008650D01*
X023664Y008625D01*
X023728Y008605D01*
X023794Y008588D01*
X023860Y008575D01*
X023927Y008566D01*
X023994Y008560D01*
X024061Y008559D01*
X028499Y006853D02*
X028478Y006782D01*
X028471Y006709D01*
X029271Y006709D01*
X029265Y006782D01*
X029244Y006853D01*
X029212Y006919D01*
X029167Y006978D01*
X029113Y007028D01*
X029050Y007067D01*
X028981Y007094D01*
X028908Y007107D01*
X028835Y007107D01*
X028762Y007094D01*
X028693Y007067D01*
X028630Y007028D01*
X028576Y006978D01*
X028531Y006919D01*
X028499Y006853D01*
X028496Y006844D02*
X029247Y006844D01*
X029261Y006796D02*
X028482Y006796D01*
X028475Y006747D02*
X029268Y006747D01*
X029225Y006893D02*
X028518Y006893D01*
X028548Y006941D02*
X029195Y006941D01*
X029154Y006990D02*
X028589Y006990D01*
X028647Y007038D02*
X029096Y007038D01*
X028998Y007087D02*
X028745Y007087D01*
X030321Y005916D02*
X030321Y005459D01*
X031109Y004959D02*
X031106Y004890D01*
X031099Y004821D01*
X031088Y004753D01*
X031073Y004686D01*
X031055Y004620D01*
X031033Y004554D01*
X031008Y004490D01*
X030979Y004428D01*
X030946Y004367D01*
X030910Y004308D01*
X030872Y004252D01*
X030829Y004197D01*
X030784Y004145D01*
X030737Y004095D01*
X030686Y004049D01*
X030633Y004005D01*
X030578Y003964D01*
X030520Y003926D01*
X030460Y003892D01*
X030399Y003861D01*
X030336Y003833D01*
X030271Y003809D01*
X030206Y003788D01*
X030139Y003772D01*
X030071Y003758D01*
X031109Y004959D02*
X031109Y005916D01*
X030321Y005916D01*
X030321Y005459D02*
X030319Y005391D01*
X030313Y005324D01*
X030304Y005257D01*
X030291Y005190D01*
X030274Y005124D01*
X030254Y005060D01*
X030230Y004996D01*
X030202Y004934D01*
X030172Y004874D01*
X030137Y004815D01*
X030100Y004759D01*
X030060Y004704D01*
X030016Y004652D01*
X029970Y004603D01*
X029921Y004556D01*
X029870Y004512D01*
X029816Y004470D01*
X029760Y004432D01*
X029702Y004397D01*
X029642Y004365D01*
X029580Y004337D01*
X029517Y004312D01*
X029453Y004291D01*
X029387Y004273D01*
X029321Y004259D01*
X022659Y002305D02*
X022658Y002277D01*
X022654Y002249D01*
X022647Y002222D01*
X022635Y002196D01*
X022621Y002171D01*
X022603Y002149D01*
X022583Y002129D01*
X022560Y002112D01*
X022535Y002098D01*
X022509Y002088D01*
X022482Y002081D01*
X022453Y002077D01*
X022303Y002077D01*
X022275Y002081D01*
X022248Y002088D01*
X022222Y002099D01*
X022198Y002113D01*
X022176Y002130D01*
X022156Y002150D01*
X022139Y002172D01*
X022125Y002196D01*
X022114Y002222D01*
X022107Y002249D01*
X022103Y002277D01*
X022103Y002305D01*
X022658Y002306D02*
X024534Y002548D01*
X026397Y002871D01*
X028244Y003275D01*
X030072Y003759D01*
X029321Y004260D02*
X027468Y003812D01*
X025598Y003446D01*
X023713Y003161D01*
X021818Y002959D01*
D11*
X030718Y002959D02*
X030720Y003007D01*
X030726Y003055D01*
X030736Y003102D01*
X030749Y003148D01*
X030767Y003193D01*
X030787Y003237D01*
X030812Y003279D01*
X030840Y003318D01*
X030870Y003355D01*
X030904Y003389D01*
X030941Y003421D01*
X030979Y003450D01*
X031020Y003475D01*
X031063Y003497D01*
X031108Y003515D01*
X031154Y003529D01*
X031201Y003540D01*
X031249Y003547D01*
X031297Y003550D01*
X031345Y003549D01*
X031393Y003544D01*
X031441Y003535D01*
X031487Y003523D01*
X031532Y003506D01*
X031576Y003486D01*
X031618Y003463D01*
X031658Y003436D01*
X031696Y003406D01*
X031731Y003373D01*
X031763Y003337D01*
X031793Y003299D01*
X031819Y003258D01*
X031841Y003215D01*
X031861Y003171D01*
X031876Y003126D01*
X031888Y003079D01*
X031896Y003031D01*
X031900Y002983D01*
X031900Y002935D01*
X031896Y002887D01*
X031888Y002839D01*
X031876Y002792D01*
X031861Y002747D01*
X031841Y002703D01*
X031819Y002660D01*
X031793Y002619D01*
X031763Y002581D01*
X031731Y002545D01*
X031696Y002512D01*
X031658Y002482D01*
X031618Y002455D01*
X031576Y002432D01*
X031532Y002412D01*
X031487Y002395D01*
X031441Y002383D01*
X031393Y002374D01*
X031345Y002369D01*
X031297Y002368D01*
X031249Y002371D01*
X031201Y002378D01*
X031154Y002389D01*
X031108Y002403D01*
X031063Y002421D01*
X031020Y002443D01*
X030979Y002468D01*
X030941Y002497D01*
X030904Y002529D01*
X030870Y002563D01*
X030840Y002600D01*
X030812Y002639D01*
X030787Y002681D01*
X030767Y002725D01*
X030749Y002770D01*
X030736Y002816D01*
X030726Y002863D01*
X030720Y002911D01*
X030718Y002959D01*
X030718Y012459D02*
X030720Y012507D01*
X030726Y012555D01*
X030736Y012602D01*
X030749Y012648D01*
X030767Y012693D01*
X030787Y012737D01*
X030812Y012779D01*
X030840Y012818D01*
X030870Y012855D01*
X030904Y012889D01*
X030941Y012921D01*
X030979Y012950D01*
X031020Y012975D01*
X031063Y012997D01*
X031108Y013015D01*
X031154Y013029D01*
X031201Y013040D01*
X031249Y013047D01*
X031297Y013050D01*
X031345Y013049D01*
X031393Y013044D01*
X031441Y013035D01*
X031487Y013023D01*
X031532Y013006D01*
X031576Y012986D01*
X031618Y012963D01*
X031658Y012936D01*
X031696Y012906D01*
X031731Y012873D01*
X031763Y012837D01*
X031793Y012799D01*
X031819Y012758D01*
X031841Y012715D01*
X031861Y012671D01*
X031876Y012626D01*
X031888Y012579D01*
X031896Y012531D01*
X031900Y012483D01*
X031900Y012435D01*
X031896Y012387D01*
X031888Y012339D01*
X031876Y012292D01*
X031861Y012247D01*
X031841Y012203D01*
X031819Y012160D01*
X031793Y012119D01*
X031763Y012081D01*
X031731Y012045D01*
X031696Y012012D01*
X031658Y011982D01*
X031618Y011955D01*
X031576Y011932D01*
X031532Y011912D01*
X031487Y011895D01*
X031441Y011883D01*
X031393Y011874D01*
X031345Y011869D01*
X031297Y011868D01*
X031249Y011871D01*
X031201Y011878D01*
X031154Y011889D01*
X031108Y011903D01*
X031063Y011921D01*
X031020Y011943D01*
X030979Y011968D01*
X030941Y011997D01*
X030904Y012029D01*
X030870Y012063D01*
X030840Y012100D01*
X030812Y012139D01*
X030787Y012181D01*
X030767Y012225D01*
X030749Y012270D01*
X030736Y012316D01*
X030726Y012363D01*
X030720Y012411D01*
X030718Y012459D01*
X001440Y012459D02*
X001442Y012507D01*
X001448Y012555D01*
X001458Y012602D01*
X001471Y012648D01*
X001489Y012693D01*
X001509Y012737D01*
X001534Y012779D01*
X001562Y012818D01*
X001592Y012855D01*
X001626Y012889D01*
X001663Y012921D01*
X001701Y012950D01*
X001742Y012975D01*
X001785Y012997D01*
X001830Y013015D01*
X001876Y013029D01*
X001923Y013040D01*
X001971Y013047D01*
X002019Y013050D01*
X002067Y013049D01*
X002115Y013044D01*
X002163Y013035D01*
X002209Y013023D01*
X002254Y013006D01*
X002298Y012986D01*
X002340Y012963D01*
X002380Y012936D01*
X002418Y012906D01*
X002453Y012873D01*
X002485Y012837D01*
X002515Y012799D01*
X002541Y012758D01*
X002563Y012715D01*
X002583Y012671D01*
X002598Y012626D01*
X002610Y012579D01*
X002618Y012531D01*
X002622Y012483D01*
X002622Y012435D01*
X002618Y012387D01*
X002610Y012339D01*
X002598Y012292D01*
X002583Y012247D01*
X002563Y012203D01*
X002541Y012160D01*
X002515Y012119D01*
X002485Y012081D01*
X002453Y012045D01*
X002418Y012012D01*
X002380Y011982D01*
X002340Y011955D01*
X002298Y011932D01*
X002254Y011912D01*
X002209Y011895D01*
X002163Y011883D01*
X002115Y011874D01*
X002067Y011869D01*
X002019Y011868D01*
X001971Y011871D01*
X001923Y011878D01*
X001876Y011889D01*
X001830Y011903D01*
X001785Y011921D01*
X001742Y011943D01*
X001701Y011968D01*
X001663Y011997D01*
X001626Y012029D01*
X001592Y012063D01*
X001562Y012100D01*
X001534Y012139D01*
X001509Y012181D01*
X001489Y012225D01*
X001471Y012270D01*
X001458Y012316D01*
X001448Y012363D01*
X001442Y012411D01*
X001440Y012459D01*
X001440Y002959D02*
X001442Y003007D01*
X001448Y003055D01*
X001458Y003102D01*
X001471Y003148D01*
X001489Y003193D01*
X001509Y003237D01*
X001534Y003279D01*
X001562Y003318D01*
X001592Y003355D01*
X001626Y003389D01*
X001663Y003421D01*
X001701Y003450D01*
X001742Y003475D01*
X001785Y003497D01*
X001830Y003515D01*
X001876Y003529D01*
X001923Y003540D01*
X001971Y003547D01*
X002019Y003550D01*
X002067Y003549D01*
X002115Y003544D01*
X002163Y003535D01*
X002209Y003523D01*
X002254Y003506D01*
X002298Y003486D01*
X002340Y003463D01*
X002380Y003436D01*
X002418Y003406D01*
X002453Y003373D01*
X002485Y003337D01*
X002515Y003299D01*
X002541Y003258D01*
X002563Y003215D01*
X002583Y003171D01*
X002598Y003126D01*
X002610Y003079D01*
X002618Y003031D01*
X002622Y002983D01*
X002622Y002935D01*
X002618Y002887D01*
X002610Y002839D01*
X002598Y002792D01*
X002583Y002747D01*
X002563Y002703D01*
X002541Y002660D01*
X002515Y002619D01*
X002485Y002581D01*
X002453Y002545D01*
X002418Y002512D01*
X002380Y002482D01*
X002340Y002455D01*
X002298Y002432D01*
X002254Y002412D01*
X002209Y002395D01*
X002163Y002383D01*
X002115Y002374D01*
X002067Y002369D01*
X002019Y002368D01*
X001971Y002371D01*
X001923Y002378D01*
X001876Y002389D01*
X001830Y002403D01*
X001785Y002421D01*
X001742Y002443D01*
X001701Y002468D01*
X001663Y002497D01*
X001626Y002529D01*
X001592Y002563D01*
X001562Y002600D01*
X001534Y002639D01*
X001509Y002681D01*
X001489Y002725D01*
X001471Y002770D01*
X001458Y002816D01*
X001448Y002863D01*
X001442Y002911D01*
X001440Y002959D01*
D12*
X002031Y002959D03*
X002031Y012459D03*
X031309Y012459D03*
X031309Y002959D03*
D13*
X006521Y017179D03*
D14*
X030740Y006310D03*
D15*
X009946Y004308D03*
D16*
X018877Y012203D03*
D17*
X016641Y001627D03*
X022378Y001627D03*
D18*
X025544Y004309D03*
X025544Y004755D03*
X023119Y007003D03*
X023119Y007450D03*
X021027Y008564D03*
X021027Y009011D03*
X021027Y009454D03*
X021027Y009901D03*
X021027Y010354D03*
X021027Y010801D03*
X017354Y004951D03*
X016994Y004951D03*
X016994Y004505D03*
X017354Y004505D03*
X017354Y003808D03*
X016994Y003808D03*
X016994Y003362D03*
X017354Y003362D03*
D19*
X014585Y003964D03*
X014138Y003964D03*
X014138Y004324D03*
X014138Y004684D03*
X014585Y004684D03*
X014585Y004324D03*
X014585Y005044D03*
X014138Y005044D03*
X017873Y007707D03*
X018320Y007707D03*
X018773Y007707D03*
X019220Y007707D03*
X019673Y007707D03*
X020120Y007707D03*
X024504Y004836D03*
X024951Y004836D03*
X026018Y004738D03*
X026465Y004738D03*
X026465Y004327D03*
X026018Y004327D03*
X024951Y003820D03*
X024504Y003820D03*
X023213Y003939D03*
X022767Y003939D03*
X022767Y003529D03*
X023213Y003529D03*
X022304Y003529D03*
X021858Y003529D03*
X021858Y003939D03*
X022304Y003939D03*
X025354Y007801D03*
X025801Y007801D03*
X025801Y008227D03*
X025354Y008227D03*
D20*
X020623Y004805D03*
X020139Y004805D03*
X018942Y004805D03*
X018458Y004805D03*
D21*
X019343Y004805D03*
X019737Y004805D03*
D22*
X021008Y004805D02*
X021480Y004805D01*
X021480Y004803D02*
X021008Y004803D01*
X021008Y004800D02*
X021480Y004800D01*
X021480Y004798D02*
X021008Y004798D01*
X021008Y004795D02*
X021480Y004795D01*
X021480Y004793D02*
X021008Y004793D01*
X021008Y004790D02*
X021480Y004790D01*
X021480Y004788D02*
X021008Y004788D01*
X021008Y004786D02*
X021480Y004786D01*
X021480Y004783D02*
X021008Y004783D01*
X021008Y004781D02*
X021480Y004781D01*
X021480Y004778D02*
X021008Y004778D01*
X021008Y004776D02*
X021480Y004776D01*
X021480Y004773D02*
X021008Y004773D01*
X021008Y004771D02*
X021480Y004771D01*
X021480Y004769D02*
X021008Y004769D01*
X021008Y004766D02*
X021480Y004766D01*
X021480Y004764D02*
X021008Y004764D01*
X021008Y004761D02*
X021480Y004761D01*
X021480Y004759D02*
X021008Y004759D01*
X021008Y004756D02*
X021480Y004756D01*
X021480Y004754D02*
X021008Y004754D01*
X021008Y004751D02*
X021480Y004751D01*
X021480Y004749D02*
X021008Y004749D01*
X021008Y004747D02*
X021480Y004747D01*
X021480Y004744D02*
X021008Y004744D01*
X021008Y004742D02*
X021480Y004742D01*
X021480Y004739D02*
X021008Y004739D01*
X021008Y004737D02*
X021480Y004737D01*
X021480Y004734D02*
X021008Y004734D01*
X021008Y004732D02*
X021480Y004732D01*
X021480Y004730D02*
X021008Y004730D01*
X021008Y004727D02*
X021480Y004727D01*
X021480Y004725D02*
X021008Y004725D01*
X021008Y004722D02*
X021480Y004722D01*
X021480Y004720D02*
X021008Y004720D01*
X021008Y004717D02*
X021480Y004717D01*
X021480Y004715D02*
X021008Y004715D01*
X021008Y004712D02*
X021480Y004712D01*
X021480Y004710D02*
X021008Y004710D01*
X021008Y004708D02*
X021480Y004708D01*
X021480Y004705D02*
X021008Y004705D01*
X021008Y004703D02*
X021480Y004703D01*
X021480Y004700D02*
X021008Y004700D01*
X021008Y004698D02*
X021480Y004698D01*
X021480Y004695D02*
X021008Y004695D01*
X021008Y004693D02*
X021480Y004693D01*
X021480Y004691D02*
X021008Y004691D01*
X021008Y004688D02*
X021480Y004688D01*
X021480Y004686D02*
X021008Y004686D01*
X021008Y004683D02*
X021480Y004683D01*
X021480Y004681D02*
X021008Y004681D01*
X021008Y004678D02*
X021480Y004678D01*
X021480Y004676D02*
X021008Y004676D01*
X021008Y004673D02*
X021480Y004673D01*
X021480Y004671D02*
X021008Y004671D01*
X021008Y004669D02*
X021480Y004669D01*
X021480Y004666D02*
X021008Y004666D01*
X021008Y004664D02*
X021480Y004664D01*
X021480Y004661D02*
X021008Y004661D01*
X021008Y004659D02*
X021480Y004659D01*
X021480Y004656D02*
X021008Y004656D01*
X021008Y004654D02*
X021480Y004654D01*
X021480Y004652D02*
X021008Y004652D01*
X021008Y004649D02*
X021480Y004649D01*
X021480Y004647D02*
X021008Y004647D01*
X021008Y004644D02*
X021480Y004644D01*
X021480Y004642D02*
X021008Y004642D01*
X021008Y004639D02*
X021480Y004639D01*
X021480Y004637D02*
X021008Y004637D01*
X021008Y004634D02*
X021480Y004634D01*
X021480Y004632D02*
X021476Y004586D01*
X021462Y004542D01*
X021028Y004542D01*
X021027Y004544D02*
X021463Y004544D01*
X021462Y004542D02*
X021440Y004502D01*
X021411Y004466D01*
X021375Y004437D01*
X021334Y004415D01*
X021290Y004402D01*
X021244Y004398D01*
X021192Y004404D01*
X021142Y004421D01*
X021097Y004449D01*
X021390Y004449D01*
X021387Y004447D02*
X021100Y004447D01*
X021097Y004449D02*
X021060Y004486D01*
X021427Y004486D01*
X021429Y004488D02*
X021058Y004488D01*
X021057Y004491D02*
X021431Y004491D01*
X021433Y004493D02*
X021055Y004493D01*
X021054Y004496D02*
X021435Y004496D01*
X021437Y004498D02*
X021052Y004498D01*
X021051Y004500D02*
X021439Y004500D01*
X021441Y004503D02*
X021049Y004503D01*
X021048Y004505D02*
X021442Y004505D01*
X021444Y004508D02*
X021046Y004508D01*
X021044Y004510D02*
X021445Y004510D01*
X021446Y004513D02*
X021043Y004513D01*
X021041Y004515D02*
X021448Y004515D01*
X021449Y004517D02*
X021040Y004517D01*
X021038Y004520D02*
X021450Y004520D01*
X021451Y004522D02*
X021037Y004522D01*
X021035Y004525D02*
X021453Y004525D01*
X021454Y004527D02*
X021034Y004527D01*
X021032Y004530D02*
X021455Y004530D01*
X021457Y004532D02*
X021031Y004532D01*
X021032Y004530D02*
X021014Y004580D01*
X021008Y004632D01*
X021480Y004632D01*
X021480Y004868D01*
X021476Y004915D01*
X021013Y004915D01*
X021013Y004917D02*
X021475Y004917D01*
X021476Y004915D02*
X021463Y004959D01*
X021441Y005000D01*
X021049Y005000D01*
X021047Y004998D02*
X021442Y004998D01*
X021441Y005000D02*
X021412Y005036D01*
X021376Y005066D01*
X021335Y005088D01*
X021291Y005102D01*
X021244Y005107D01*
X021191Y005100D01*
X021141Y005083D01*
X021097Y005054D01*
X021059Y005016D01*
X021031Y004971D01*
X021457Y004971D01*
X021455Y004973D02*
X021032Y004973D01*
X021031Y004971D02*
X021014Y004921D01*
X021008Y004868D01*
X021008Y004632D01*
X021008Y004630D02*
X021480Y004630D01*
X021480Y004627D02*
X021009Y004627D01*
X021009Y004625D02*
X021480Y004625D01*
X021479Y004622D02*
X021009Y004622D01*
X021009Y004620D02*
X021479Y004620D01*
X021479Y004617D02*
X021010Y004617D01*
X021010Y004615D02*
X021479Y004615D01*
X021478Y004613D02*
X021010Y004613D01*
X021011Y004610D02*
X021478Y004610D01*
X021478Y004608D02*
X021011Y004608D01*
X021011Y004605D02*
X021478Y004605D01*
X021477Y004603D02*
X021011Y004603D01*
X021012Y004600D02*
X021477Y004600D01*
X021477Y004598D02*
X021012Y004598D01*
X021012Y004595D02*
X021477Y004595D01*
X021476Y004593D02*
X021013Y004593D01*
X021013Y004591D02*
X021476Y004591D01*
X021476Y004588D02*
X021013Y004588D01*
X021013Y004586D02*
X021476Y004586D01*
X021475Y004583D02*
X021014Y004583D01*
X021014Y004581D02*
X021474Y004581D01*
X021473Y004578D02*
X021015Y004578D01*
X021016Y004576D02*
X021473Y004576D01*
X021472Y004574D02*
X021016Y004574D01*
X021017Y004571D02*
X021471Y004571D01*
X021470Y004569D02*
X021018Y004569D01*
X021019Y004566D02*
X021470Y004566D01*
X021469Y004564D02*
X021020Y004564D01*
X021021Y004561D02*
X021468Y004561D01*
X021467Y004559D02*
X021022Y004559D01*
X021022Y004556D02*
X021467Y004556D01*
X021466Y004554D02*
X021023Y004554D01*
X021024Y004552D02*
X021465Y004552D01*
X021464Y004549D02*
X021025Y004549D01*
X021026Y004547D02*
X021464Y004547D01*
X021461Y004539D02*
X021028Y004539D01*
X021029Y004537D02*
X021459Y004537D01*
X021458Y004535D02*
X021030Y004535D01*
X021032Y004530D02*
X021060Y004486D01*
X021062Y004483D02*
X021425Y004483D01*
X021423Y004481D02*
X021065Y004481D01*
X021067Y004478D02*
X021421Y004478D01*
X021419Y004476D02*
X021070Y004476D01*
X021072Y004474D02*
X021417Y004474D01*
X021415Y004471D02*
X021075Y004471D01*
X021077Y004469D02*
X021413Y004469D01*
X021411Y004466D02*
X021080Y004466D01*
X021082Y004464D02*
X021408Y004464D01*
X021405Y004461D02*
X021084Y004461D01*
X021087Y004459D02*
X021402Y004459D01*
X021399Y004457D02*
X021089Y004457D01*
X021092Y004454D02*
X021396Y004454D01*
X021393Y004452D02*
X021094Y004452D01*
X021104Y004444D02*
X021384Y004444D01*
X021381Y004442D02*
X021108Y004442D01*
X021112Y004439D02*
X021378Y004439D01*
X021375Y004437D02*
X021116Y004437D01*
X021120Y004435D02*
X021371Y004435D01*
X021366Y004432D02*
X021124Y004432D01*
X021128Y004430D02*
X021361Y004430D01*
X021357Y004427D02*
X021132Y004427D01*
X021136Y004425D02*
X021352Y004425D01*
X021348Y004422D02*
X021139Y004422D01*
X021144Y004420D02*
X021343Y004420D01*
X021338Y004418D02*
X021151Y004418D01*
X021159Y004415D02*
X021333Y004415D01*
X021325Y004413D02*
X021166Y004413D01*
X021173Y004410D02*
X021317Y004410D01*
X021309Y004408D02*
X021180Y004408D01*
X021187Y004405D02*
X021301Y004405D01*
X021292Y004403D02*
X021198Y004403D01*
X021221Y004400D02*
X021272Y004400D01*
X021246Y004398D02*
X021243Y004398D01*
X021008Y004808D02*
X021480Y004808D01*
X021480Y004810D02*
X021008Y004810D01*
X021008Y004812D02*
X021480Y004812D01*
X021480Y004815D02*
X021008Y004815D01*
X021008Y004817D02*
X021480Y004817D01*
X021480Y004820D02*
X021008Y004820D01*
X021008Y004822D02*
X021480Y004822D01*
X021480Y004825D02*
X021008Y004825D01*
X021008Y004827D02*
X021480Y004827D01*
X021480Y004829D02*
X021008Y004829D01*
X021008Y004832D02*
X021480Y004832D01*
X021480Y004834D02*
X021008Y004834D01*
X021008Y004837D02*
X021480Y004837D01*
X021480Y004839D02*
X021008Y004839D01*
X021008Y004842D02*
X021480Y004842D01*
X021480Y004844D02*
X021008Y004844D01*
X021008Y004847D02*
X021480Y004847D01*
X021480Y004849D02*
X021008Y004849D01*
X021008Y004851D02*
X021480Y004851D01*
X021480Y004854D02*
X021008Y004854D01*
X021008Y004856D02*
X021480Y004856D01*
X021480Y004859D02*
X021008Y004859D01*
X021008Y004861D02*
X021480Y004861D01*
X021480Y004864D02*
X021008Y004864D01*
X021008Y004866D02*
X021480Y004866D01*
X021480Y004868D02*
X021008Y004868D01*
X021008Y004871D02*
X021480Y004871D01*
X021480Y004873D02*
X021009Y004873D01*
X021009Y004876D02*
X021480Y004876D01*
X021480Y004878D02*
X021009Y004878D01*
X021009Y004881D02*
X021479Y004881D01*
X021479Y004883D02*
X021010Y004883D01*
X021010Y004886D02*
X021479Y004886D01*
X021479Y004888D02*
X021010Y004888D01*
X021010Y004890D02*
X021478Y004890D01*
X021478Y004893D02*
X021011Y004893D01*
X021011Y004895D02*
X021478Y004895D01*
X021478Y004898D02*
X021011Y004898D01*
X021011Y004900D02*
X021477Y004900D01*
X021477Y004903D02*
X021012Y004903D01*
X021012Y004905D02*
X021477Y004905D01*
X021477Y004907D02*
X021012Y004907D01*
X021013Y004910D02*
X021477Y004910D01*
X021476Y004912D02*
X021013Y004912D01*
X021014Y004920D02*
X021475Y004920D01*
X021474Y004922D02*
X021014Y004922D01*
X021015Y004924D02*
X021473Y004924D01*
X021472Y004927D02*
X021016Y004927D01*
X021017Y004929D02*
X021472Y004929D01*
X021471Y004932D02*
X021017Y004932D01*
X021018Y004934D02*
X021470Y004934D01*
X021470Y004937D02*
X021019Y004937D01*
X021020Y004939D02*
X021469Y004939D01*
X021468Y004942D02*
X021021Y004942D01*
X021022Y004944D02*
X021467Y004944D01*
X021467Y004946D02*
X021022Y004946D01*
X021023Y004949D02*
X021466Y004949D01*
X021465Y004951D02*
X021024Y004951D01*
X021025Y004954D02*
X021464Y004954D01*
X021464Y004956D02*
X021026Y004956D01*
X021027Y004959D02*
X021463Y004959D01*
X021462Y004961D02*
X021028Y004961D01*
X021028Y004963D02*
X021461Y004963D01*
X021459Y004966D02*
X021029Y004966D01*
X021030Y004968D02*
X021458Y004968D01*
X021454Y004976D02*
X021034Y004976D01*
X021035Y004978D02*
X021453Y004978D01*
X021452Y004981D02*
X021037Y004981D01*
X021038Y004983D02*
X021450Y004983D01*
X021449Y004985D02*
X021040Y004985D01*
X021041Y004988D02*
X021448Y004988D01*
X021446Y004990D02*
X021043Y004990D01*
X021044Y004993D02*
X021445Y004993D01*
X021444Y004995D02*
X021046Y004995D01*
X021050Y005002D02*
X021439Y005002D01*
X021437Y005005D02*
X021052Y005005D01*
X021053Y005007D02*
X021435Y005007D01*
X021433Y005010D02*
X021055Y005010D01*
X021057Y005012D02*
X021431Y005012D01*
X021429Y005015D02*
X021058Y005015D01*
X021060Y005017D02*
X021427Y005017D01*
X021425Y005020D02*
X021062Y005020D01*
X021065Y005022D02*
X021423Y005022D01*
X021421Y005024D02*
X021067Y005024D01*
X021069Y005027D02*
X021419Y005027D01*
X021417Y005029D02*
X021072Y005029D01*
X021074Y005032D02*
X021415Y005032D01*
X021414Y005034D02*
X021077Y005034D01*
X021079Y005037D02*
X021411Y005037D01*
X021408Y005039D02*
X021082Y005039D01*
X021084Y005041D02*
X021406Y005041D01*
X021403Y005044D02*
X021086Y005044D01*
X021089Y005046D02*
X021400Y005046D01*
X021397Y005049D02*
X021091Y005049D01*
X021094Y005051D02*
X021394Y005051D01*
X021391Y005054D02*
X021096Y005054D01*
X021100Y005056D02*
X021388Y005056D01*
X021385Y005059D02*
X021103Y005059D01*
X021107Y005061D02*
X021382Y005061D01*
X021379Y005063D02*
X021111Y005063D01*
X021115Y005066D02*
X021376Y005066D01*
X021372Y005068D02*
X021119Y005068D01*
X021123Y005071D02*
X021367Y005071D01*
X021363Y005073D02*
X021126Y005073D01*
X021130Y005076D02*
X021358Y005076D01*
X021354Y005078D02*
X021134Y005078D01*
X021138Y005080D02*
X021349Y005080D01*
X021345Y005083D02*
X021142Y005083D01*
X021149Y005085D02*
X021340Y005085D01*
X021336Y005088D02*
X021156Y005088D01*
X021163Y005090D02*
X021328Y005090D01*
X021320Y005093D02*
X021170Y005093D01*
X021177Y005095D02*
X021312Y005095D01*
X021304Y005098D02*
X021183Y005098D01*
X021190Y005100D02*
X021297Y005100D01*
X021285Y005102D02*
X021209Y005102D01*
X021230Y005105D02*
X021261Y005105D01*
X021244Y003611D02*
X021291Y003606D01*
X021335Y003592D01*
X021376Y003570D01*
X021412Y003540D01*
X021079Y003540D01*
X021081Y003543D02*
X021409Y003543D01*
X021406Y003545D02*
X021084Y003545D01*
X021086Y003547D02*
X021403Y003547D01*
X021400Y003550D02*
X021088Y003550D01*
X021091Y003552D02*
X021397Y003552D01*
X021394Y003555D02*
X021093Y003555D01*
X021096Y003557D02*
X021391Y003557D01*
X021388Y003560D02*
X021099Y003560D01*
X021097Y003558D02*
X021141Y003587D01*
X021141Y003586D02*
X021345Y003586D01*
X021341Y003589D02*
X021148Y003589D01*
X021141Y003587D02*
X021191Y003604D01*
X021244Y003611D01*
X021226Y003608D02*
X021265Y003608D01*
X021289Y003606D02*
X021205Y003606D01*
X021189Y003604D02*
X021298Y003604D01*
X021306Y003601D02*
X021182Y003601D01*
X021175Y003599D02*
X021314Y003599D01*
X021322Y003596D02*
X021169Y003596D01*
X021162Y003594D02*
X021330Y003594D01*
X021336Y003591D02*
X021155Y003591D01*
X021137Y003584D02*
X021350Y003584D01*
X021354Y003582D02*
X021134Y003582D01*
X021130Y003579D02*
X021359Y003579D01*
X021363Y003577D02*
X021126Y003577D01*
X021122Y003574D02*
X021368Y003574D01*
X021372Y003572D02*
X021118Y003572D01*
X021114Y003569D02*
X021377Y003569D01*
X021380Y003567D02*
X021110Y003567D01*
X021107Y003565D02*
X021382Y003565D01*
X021385Y003562D02*
X021103Y003562D01*
X021097Y003558D02*
X021059Y003520D01*
X021031Y003475D01*
X021014Y003425D01*
X021008Y003372D01*
X021480Y003372D01*
X021480Y003136D01*
X021476Y003090D01*
X021462Y003046D01*
X021440Y003006D01*
X021411Y002970D01*
X021375Y002941D01*
X021334Y002919D01*
X021290Y002906D01*
X021244Y002902D01*
X021192Y002908D01*
X021142Y002925D01*
X021097Y002953D01*
X021390Y002953D01*
X021393Y002955D02*
X021095Y002955D01*
X021097Y002953D02*
X021060Y002990D01*
X021032Y003034D01*
X021014Y003084D01*
X021008Y003136D01*
X021008Y003372D01*
X021008Y003374D02*
X021480Y003374D01*
X021480Y003372D02*
X021476Y003419D01*
X021463Y003463D01*
X021441Y003504D01*
X021412Y003540D01*
X021414Y003538D02*
X021076Y003538D01*
X021074Y003535D02*
X021416Y003535D01*
X021418Y003533D02*
X021071Y003533D01*
X021069Y003530D02*
X021420Y003530D01*
X021422Y003528D02*
X021067Y003528D01*
X021064Y003526D02*
X021424Y003526D01*
X021426Y003523D02*
X021062Y003523D01*
X021059Y003521D02*
X021428Y003521D01*
X021430Y003518D02*
X021058Y003518D01*
X021056Y003516D02*
X021432Y003516D01*
X021434Y003513D02*
X021055Y003513D01*
X021053Y003511D02*
X021436Y003511D01*
X021438Y003508D02*
X021052Y003508D01*
X021050Y003506D02*
X021440Y003506D01*
X021441Y003504D02*
X021049Y003504D01*
X021047Y003501D02*
X021443Y003501D01*
X021444Y003499D02*
X021046Y003499D01*
X021044Y003496D02*
X021445Y003496D01*
X021447Y003494D02*
X021043Y003494D01*
X021041Y003491D02*
X021448Y003491D01*
X021449Y003489D02*
X021040Y003489D01*
X021038Y003487D02*
X021450Y003487D01*
X021452Y003484D02*
X021037Y003484D01*
X021035Y003482D02*
X021453Y003482D01*
X021454Y003479D02*
X021034Y003479D01*
X021032Y003477D02*
X021456Y003477D01*
X021457Y003474D02*
X021031Y003474D01*
X021030Y003472D02*
X021458Y003472D01*
X021459Y003469D02*
X021029Y003469D01*
X021028Y003467D02*
X021461Y003467D01*
X021462Y003465D02*
X021027Y003465D01*
X021027Y003462D02*
X021463Y003462D01*
X021464Y003460D02*
X021026Y003460D01*
X021025Y003457D02*
X021465Y003457D01*
X021465Y003455D02*
X021024Y003455D01*
X021023Y003452D02*
X021466Y003452D01*
X021467Y003450D02*
X021022Y003450D01*
X021021Y003448D02*
X021467Y003448D01*
X021468Y003445D02*
X021021Y003445D01*
X021020Y003443D02*
X021469Y003443D01*
X021470Y003440D02*
X021019Y003440D01*
X021018Y003438D02*
X021470Y003438D01*
X021471Y003435D02*
X021017Y003435D01*
X021016Y003433D02*
X021472Y003433D01*
X021473Y003430D02*
X021016Y003430D01*
X021015Y003428D02*
X021473Y003428D01*
X021474Y003426D02*
X021014Y003426D01*
X021014Y003423D02*
X021475Y003423D01*
X021475Y003421D02*
X021013Y003421D01*
X021013Y003418D02*
X021476Y003418D01*
X021476Y003416D02*
X021013Y003416D01*
X021012Y003413D02*
X021477Y003413D01*
X021477Y003411D02*
X021012Y003411D01*
X021012Y003409D02*
X021477Y003409D01*
X021477Y003406D02*
X021012Y003406D01*
X021011Y003404D02*
X021478Y003404D01*
X021478Y003401D02*
X021011Y003401D01*
X021011Y003399D02*
X021478Y003399D01*
X021478Y003396D02*
X021011Y003396D01*
X021010Y003394D02*
X021478Y003394D01*
X021479Y003391D02*
X021010Y003391D01*
X021010Y003389D02*
X021479Y003389D01*
X021479Y003387D02*
X021010Y003387D01*
X021009Y003384D02*
X021479Y003384D01*
X021480Y003382D02*
X021009Y003382D01*
X021009Y003379D02*
X021480Y003379D01*
X021480Y003377D02*
X021009Y003377D01*
X021008Y003370D02*
X021480Y003370D01*
X021480Y003367D02*
X021008Y003367D01*
X021008Y003365D02*
X021480Y003365D01*
X021480Y003362D02*
X021008Y003362D01*
X021008Y003360D02*
X021480Y003360D01*
X021480Y003357D02*
X021008Y003357D01*
X021008Y003355D02*
X021480Y003355D01*
X021480Y003352D02*
X021008Y003352D01*
X021008Y003350D02*
X021480Y003350D01*
X021480Y003348D02*
X021008Y003348D01*
X021008Y003345D02*
X021480Y003345D01*
X021480Y003343D02*
X021008Y003343D01*
X021008Y003340D02*
X021480Y003340D01*
X021480Y003338D02*
X021008Y003338D01*
X021008Y003335D02*
X021480Y003335D01*
X021480Y003333D02*
X021008Y003333D01*
X021008Y003331D02*
X021480Y003331D01*
X021480Y003328D02*
X021008Y003328D01*
X021008Y003326D02*
X021480Y003326D01*
X021480Y003323D02*
X021008Y003323D01*
X021008Y003321D02*
X021480Y003321D01*
X021480Y003318D02*
X021008Y003318D01*
X021008Y003316D02*
X021480Y003316D01*
X021480Y003313D02*
X021008Y003313D01*
X021008Y003311D02*
X021480Y003311D01*
X021480Y003309D02*
X021008Y003309D01*
X021008Y003306D02*
X021480Y003306D01*
X021480Y003304D02*
X021008Y003304D01*
X021008Y003301D02*
X021480Y003301D01*
X021480Y003299D02*
X021008Y003299D01*
X021008Y003296D02*
X021480Y003296D01*
X021480Y003294D02*
X021008Y003294D01*
X021008Y003292D02*
X021480Y003292D01*
X021480Y003289D02*
X021008Y003289D01*
X021008Y003287D02*
X021480Y003287D01*
X021480Y003284D02*
X021008Y003284D01*
X021008Y003282D02*
X021480Y003282D01*
X021480Y003279D02*
X021008Y003279D01*
X021008Y003277D02*
X021480Y003277D01*
X021480Y003274D02*
X021008Y003274D01*
X021008Y003272D02*
X021480Y003272D01*
X021480Y003270D02*
X021008Y003270D01*
X021008Y003267D02*
X021480Y003267D01*
X021480Y003265D02*
X021008Y003265D01*
X021008Y003262D02*
X021480Y003262D01*
X021480Y003260D02*
X021008Y003260D01*
X021008Y003257D02*
X021480Y003257D01*
X021480Y003255D02*
X021008Y003255D01*
X021008Y003253D02*
X021480Y003253D01*
X021480Y003250D02*
X021008Y003250D01*
X021008Y003248D02*
X021480Y003248D01*
X021480Y003245D02*
X021008Y003245D01*
X021008Y003243D02*
X021480Y003243D01*
X021480Y003240D02*
X021008Y003240D01*
X021008Y003238D02*
X021480Y003238D01*
X021480Y003235D02*
X021008Y003235D01*
X021008Y003233D02*
X021480Y003233D01*
X021480Y003231D02*
X021008Y003231D01*
X021008Y003228D02*
X021480Y003228D01*
X021480Y003226D02*
X021008Y003226D01*
X021008Y003223D02*
X021480Y003223D01*
X021480Y003221D02*
X021008Y003221D01*
X021008Y003218D02*
X021480Y003218D01*
X021480Y003216D02*
X021008Y003216D01*
X021008Y003214D02*
X021480Y003214D01*
X021480Y003211D02*
X021008Y003211D01*
X021008Y003209D02*
X021480Y003209D01*
X021480Y003206D02*
X021008Y003206D01*
X021008Y003204D02*
X021480Y003204D01*
X021480Y003201D02*
X021008Y003201D01*
X021008Y003199D02*
X021480Y003199D01*
X021480Y003196D02*
X021008Y003196D01*
X021008Y003194D02*
X021480Y003194D01*
X021480Y003192D02*
X021008Y003192D01*
X021008Y003189D02*
X021480Y003189D01*
X021480Y003187D02*
X021008Y003187D01*
X021008Y003184D02*
X021480Y003184D01*
X021480Y003182D02*
X021008Y003182D01*
X021008Y003179D02*
X021480Y003179D01*
X021480Y003177D02*
X021008Y003177D01*
X021008Y003175D02*
X021480Y003175D01*
X021480Y003172D02*
X021008Y003172D01*
X021008Y003170D02*
X021480Y003170D01*
X021480Y003167D02*
X021008Y003167D01*
X021008Y003165D02*
X021480Y003165D01*
X021480Y003162D02*
X021008Y003162D01*
X021008Y003160D02*
X021480Y003160D01*
X021480Y003157D02*
X021008Y003157D01*
X021008Y003155D02*
X021480Y003155D01*
X021480Y003153D02*
X021008Y003153D01*
X021008Y003150D02*
X021480Y003150D01*
X021480Y003148D02*
X021008Y003148D01*
X021008Y003145D02*
X021480Y003145D01*
X021480Y003143D02*
X021008Y003143D01*
X021008Y003140D02*
X021480Y003140D01*
X021480Y003138D02*
X021008Y003138D01*
X021008Y003136D02*
X021480Y003136D01*
X021480Y003133D02*
X021008Y003133D01*
X021009Y003131D02*
X021480Y003131D01*
X021480Y003128D02*
X021009Y003128D01*
X021009Y003126D02*
X021479Y003126D01*
X021479Y003123D02*
X021010Y003123D01*
X021010Y003121D02*
X021479Y003121D01*
X021479Y003118D02*
X021010Y003118D01*
X021010Y003116D02*
X021478Y003116D01*
X021478Y003114D02*
X021011Y003114D01*
X021011Y003111D02*
X021478Y003111D01*
X021478Y003109D02*
X021011Y003109D01*
X021012Y003106D02*
X021477Y003106D01*
X021477Y003104D02*
X021012Y003104D01*
X021012Y003101D02*
X021477Y003101D01*
X021477Y003099D02*
X021012Y003099D01*
X021013Y003097D02*
X021476Y003097D01*
X021476Y003094D02*
X021013Y003094D01*
X021013Y003092D02*
X021476Y003092D01*
X021475Y003089D02*
X021014Y003089D01*
X021014Y003087D02*
X021475Y003087D01*
X021474Y003084D02*
X021014Y003084D01*
X021015Y003082D02*
X021473Y003082D01*
X021472Y003079D02*
X021016Y003079D01*
X021017Y003077D02*
X021472Y003077D01*
X021471Y003075D02*
X021017Y003075D01*
X021018Y003072D02*
X021470Y003072D01*
X021469Y003070D02*
X021019Y003070D01*
X021020Y003067D02*
X021469Y003067D01*
X021468Y003065D02*
X021021Y003065D01*
X021022Y003062D02*
X021467Y003062D01*
X021466Y003060D02*
X021023Y003060D01*
X021023Y003058D02*
X021466Y003058D01*
X021465Y003055D02*
X021024Y003055D01*
X021025Y003053D02*
X021464Y003053D01*
X021463Y003050D02*
X021026Y003050D01*
X021027Y003048D02*
X021463Y003048D01*
X021462Y003045D02*
X021028Y003045D01*
X021029Y003043D02*
X021460Y003043D01*
X021459Y003041D02*
X021029Y003041D01*
X021030Y003038D02*
X021458Y003038D01*
X021457Y003036D02*
X021031Y003036D01*
X021032Y003033D02*
X021455Y003033D01*
X021454Y003031D02*
X021034Y003031D01*
X021035Y003028D02*
X021453Y003028D01*
X021451Y003026D02*
X021037Y003026D01*
X021039Y003023D02*
X021450Y003023D01*
X021449Y003021D02*
X021040Y003021D01*
X021042Y003019D02*
X021447Y003019D01*
X021446Y003016D02*
X021043Y003016D01*
X021045Y003014D02*
X021445Y003014D01*
X021443Y003011D02*
X021046Y003011D01*
X021048Y003009D02*
X021442Y003009D01*
X021441Y003006D02*
X021049Y003006D01*
X021051Y003004D02*
X021439Y003004D01*
X021437Y003002D02*
X021052Y003002D01*
X021054Y002999D02*
X021435Y002999D01*
X021433Y002997D02*
X021056Y002997D01*
X021057Y002994D02*
X021431Y002994D01*
X021429Y002992D02*
X021059Y002992D01*
X021060Y002989D02*
X021427Y002989D01*
X021425Y002987D02*
X021063Y002987D01*
X021065Y002984D02*
X021423Y002984D01*
X021421Y002982D02*
X021068Y002982D01*
X021070Y002980D02*
X021419Y002980D01*
X021417Y002977D02*
X021073Y002977D01*
X021075Y002975D02*
X021415Y002975D01*
X021413Y002972D02*
X021078Y002972D01*
X021080Y002970D02*
X021411Y002970D01*
X021408Y002967D02*
X021082Y002967D01*
X021085Y002965D02*
X021405Y002965D01*
X021402Y002963D02*
X021087Y002963D01*
X021090Y002960D02*
X021399Y002960D01*
X021396Y002958D02*
X021092Y002958D01*
X021101Y002950D02*
X021387Y002950D01*
X021384Y002948D02*
X021105Y002948D01*
X021109Y002945D02*
X021381Y002945D01*
X021378Y002943D02*
X021113Y002943D01*
X021117Y002941D02*
X021374Y002941D01*
X021370Y002938D02*
X021121Y002938D01*
X021124Y002936D02*
X021365Y002936D01*
X021361Y002933D02*
X021128Y002933D01*
X021132Y002931D02*
X021356Y002931D01*
X021351Y002928D02*
X021136Y002928D01*
X021140Y002926D02*
X021347Y002926D01*
X021342Y002924D02*
X021146Y002924D01*
X021153Y002921D02*
X021338Y002921D01*
X021332Y002919D02*
X021160Y002919D01*
X021167Y002916D02*
X021324Y002916D01*
X021316Y002914D02*
X021174Y002914D01*
X021181Y002911D02*
X021307Y002911D01*
X021299Y002909D02*
X021188Y002909D01*
X021202Y002906D02*
X021291Y002906D01*
X021267Y002904D02*
X021224Y002904D01*
X018080Y003136D02*
X018075Y003090D01*
X018061Y003046D01*
X018039Y003006D01*
X018010Y002970D01*
X017974Y002941D01*
X017934Y002919D01*
X017889Y002906D01*
X017843Y002902D01*
X017791Y002908D01*
X017741Y002925D01*
X017697Y002953D01*
X017659Y002990D01*
X017631Y003034D01*
X017613Y003084D01*
X017607Y003136D01*
X017607Y003372D01*
X018080Y003372D01*
X018080Y003136D01*
X017607Y003136D01*
X017607Y003138D02*
X018080Y003138D01*
X018080Y003140D02*
X017607Y003140D01*
X017607Y003143D02*
X018080Y003143D01*
X018080Y003145D02*
X017607Y003145D01*
X017607Y003148D02*
X018080Y003148D01*
X018080Y003150D02*
X017607Y003150D01*
X017607Y003153D02*
X018080Y003153D01*
X018080Y003155D02*
X017607Y003155D01*
X017607Y003157D02*
X018080Y003157D01*
X018080Y003160D02*
X017607Y003160D01*
X017607Y003162D02*
X018080Y003162D01*
X018080Y003165D02*
X017607Y003165D01*
X017607Y003167D02*
X018080Y003167D01*
X018080Y003170D02*
X017607Y003170D01*
X017607Y003172D02*
X018080Y003172D01*
X018080Y003175D02*
X017607Y003175D01*
X017607Y003177D02*
X018080Y003177D01*
X018080Y003179D02*
X017607Y003179D01*
X017607Y003182D02*
X018080Y003182D01*
X018080Y003184D02*
X017607Y003184D01*
X017607Y003187D02*
X018080Y003187D01*
X018080Y003189D02*
X017607Y003189D01*
X017607Y003192D02*
X018080Y003192D01*
X018080Y003194D02*
X017607Y003194D01*
X017607Y003196D02*
X018080Y003196D01*
X018080Y003199D02*
X017607Y003199D01*
X017607Y003201D02*
X018080Y003201D01*
X018080Y003204D02*
X017607Y003204D01*
X017607Y003206D02*
X018080Y003206D01*
X018080Y003209D02*
X017607Y003209D01*
X017607Y003211D02*
X018080Y003211D01*
X018080Y003214D02*
X017607Y003214D01*
X017607Y003216D02*
X018080Y003216D01*
X018080Y003218D02*
X017607Y003218D01*
X017607Y003221D02*
X018080Y003221D01*
X018080Y003223D02*
X017607Y003223D01*
X017607Y003226D02*
X018080Y003226D01*
X018080Y003228D02*
X017607Y003228D01*
X017607Y003231D02*
X018080Y003231D01*
X018080Y003233D02*
X017607Y003233D01*
X017607Y003235D02*
X018080Y003235D01*
X018080Y003238D02*
X017607Y003238D01*
X017607Y003240D02*
X018080Y003240D01*
X018080Y003243D02*
X017607Y003243D01*
X017607Y003245D02*
X018080Y003245D01*
X018080Y003248D02*
X017607Y003248D01*
X017607Y003250D02*
X018080Y003250D01*
X018080Y003253D02*
X017607Y003253D01*
X017607Y003255D02*
X018080Y003255D01*
X018080Y003257D02*
X017607Y003257D01*
X017607Y003260D02*
X018080Y003260D01*
X018080Y003262D02*
X017607Y003262D01*
X017607Y003265D02*
X018080Y003265D01*
X018080Y003267D02*
X017607Y003267D01*
X017607Y003270D02*
X018080Y003270D01*
X018080Y003272D02*
X017607Y003272D01*
X017607Y003274D02*
X018080Y003274D01*
X018080Y003277D02*
X017607Y003277D01*
X017607Y003279D02*
X018080Y003279D01*
X018080Y003282D02*
X017607Y003282D01*
X017607Y003284D02*
X018080Y003284D01*
X018080Y003287D02*
X017607Y003287D01*
X017607Y003289D02*
X018080Y003289D01*
X018080Y003292D02*
X017607Y003292D01*
X017607Y003294D02*
X018080Y003294D01*
X018080Y003296D02*
X017607Y003296D01*
X017607Y003299D02*
X018080Y003299D01*
X018080Y003301D02*
X017607Y003301D01*
X017607Y003304D02*
X018080Y003304D01*
X018080Y003306D02*
X017607Y003306D01*
X017607Y003309D02*
X018080Y003309D01*
X018080Y003311D02*
X017607Y003311D01*
X017607Y003313D02*
X018080Y003313D01*
X018080Y003316D02*
X017607Y003316D01*
X017607Y003318D02*
X018080Y003318D01*
X018080Y003321D02*
X017607Y003321D01*
X017607Y003323D02*
X018080Y003323D01*
X018080Y003326D02*
X017607Y003326D01*
X017607Y003328D02*
X018080Y003328D01*
X018080Y003331D02*
X017607Y003331D01*
X017607Y003333D02*
X018080Y003333D01*
X018080Y003335D02*
X017607Y003335D01*
X017607Y003338D02*
X018080Y003338D01*
X018080Y003340D02*
X017607Y003340D01*
X017607Y003343D02*
X018080Y003343D01*
X018080Y003345D02*
X017607Y003345D01*
X017607Y003348D02*
X018080Y003348D01*
X018080Y003350D02*
X017607Y003350D01*
X017607Y003352D02*
X018080Y003352D01*
X018080Y003355D02*
X017607Y003355D01*
X017607Y003357D02*
X018080Y003357D01*
X018080Y003360D02*
X017607Y003360D01*
X017607Y003362D02*
X018080Y003362D01*
X018080Y003365D02*
X017607Y003365D01*
X017607Y003367D02*
X018080Y003367D01*
X018080Y003370D02*
X017607Y003370D01*
X017607Y003372D02*
X017613Y003425D01*
X017630Y003475D01*
X017658Y003520D01*
X017696Y003558D01*
X017741Y003587D01*
X017791Y003604D01*
X017843Y003611D01*
X017890Y003606D01*
X017934Y003592D01*
X017975Y003570D01*
X018011Y003540D01*
X017678Y003540D01*
X017676Y003538D02*
X018013Y003538D01*
X018011Y003540D02*
X018040Y003504D01*
X018062Y003463D01*
X018075Y003419D01*
X018080Y003372D01*
X018079Y003374D02*
X017607Y003374D01*
X017608Y003377D02*
X018079Y003377D01*
X018079Y003379D02*
X017608Y003379D01*
X017608Y003382D02*
X018079Y003382D01*
X018079Y003384D02*
X017609Y003384D01*
X017609Y003387D02*
X018078Y003387D01*
X018078Y003389D02*
X017609Y003389D01*
X017609Y003391D02*
X018078Y003391D01*
X018078Y003394D02*
X017610Y003394D01*
X017610Y003396D02*
X018077Y003396D01*
X018077Y003399D02*
X017610Y003399D01*
X017610Y003401D02*
X018077Y003401D01*
X018077Y003404D02*
X017611Y003404D01*
X017611Y003406D02*
X018077Y003406D01*
X018076Y003409D02*
X017611Y003409D01*
X017611Y003411D02*
X018076Y003411D01*
X018076Y003413D02*
X017612Y003413D01*
X017612Y003416D02*
X018076Y003416D01*
X018075Y003418D02*
X017612Y003418D01*
X017612Y003421D02*
X018075Y003421D01*
X018074Y003423D02*
X017613Y003423D01*
X017613Y003426D02*
X018073Y003426D01*
X018073Y003428D02*
X017614Y003428D01*
X017615Y003430D02*
X018072Y003430D01*
X018071Y003433D02*
X017616Y003433D01*
X017616Y003435D02*
X018070Y003435D01*
X018070Y003438D02*
X017617Y003438D01*
X017618Y003440D02*
X018069Y003440D01*
X018068Y003443D02*
X017619Y003443D01*
X017620Y003445D02*
X018067Y003445D01*
X018067Y003448D02*
X017621Y003448D01*
X017622Y003450D02*
X018066Y003450D01*
X018065Y003452D02*
X017622Y003452D01*
X017623Y003455D02*
X018064Y003455D01*
X018064Y003457D02*
X017624Y003457D01*
X017625Y003460D02*
X018063Y003460D01*
X018062Y003462D02*
X017626Y003462D01*
X017627Y003465D02*
X018061Y003465D01*
X018060Y003467D02*
X017627Y003467D01*
X017628Y003469D02*
X018059Y003469D01*
X018057Y003472D02*
X017629Y003472D01*
X017630Y003474D02*
X018056Y003474D01*
X018055Y003477D02*
X017631Y003477D01*
X017633Y003479D02*
X018054Y003479D01*
X018052Y003482D02*
X017634Y003482D01*
X017636Y003484D02*
X018051Y003484D01*
X018050Y003487D02*
X017637Y003487D01*
X017639Y003489D02*
X018048Y003489D01*
X018047Y003491D02*
X017640Y003491D01*
X017642Y003494D02*
X018046Y003494D01*
X018044Y003496D02*
X017643Y003496D01*
X017645Y003499D02*
X018043Y003499D01*
X018042Y003501D02*
X017646Y003501D01*
X017648Y003504D02*
X018041Y003504D01*
X018039Y003506D02*
X017649Y003506D01*
X017651Y003508D02*
X018037Y003508D01*
X018035Y003511D02*
X017652Y003511D01*
X017654Y003513D02*
X018033Y003513D01*
X018031Y003516D02*
X017655Y003516D01*
X017657Y003518D02*
X018029Y003518D01*
X018027Y003521D02*
X017659Y003521D01*
X017661Y003523D02*
X018025Y003523D01*
X018023Y003526D02*
X017663Y003526D01*
X017666Y003528D02*
X018021Y003528D01*
X018019Y003530D02*
X017668Y003530D01*
X017671Y003533D02*
X018017Y003533D01*
X018015Y003535D02*
X017673Y003535D01*
X017680Y003543D02*
X018008Y003543D01*
X018005Y003545D02*
X017683Y003545D01*
X017685Y003547D02*
X018002Y003547D01*
X017999Y003550D02*
X017688Y003550D01*
X017690Y003552D02*
X017996Y003552D01*
X017993Y003555D02*
X017692Y003555D01*
X017695Y003557D02*
X017991Y003557D01*
X017988Y003560D02*
X017698Y003560D01*
X017702Y003562D02*
X017985Y003562D01*
X017982Y003565D02*
X017706Y003565D01*
X017710Y003567D02*
X017979Y003567D01*
X017976Y003569D02*
X017714Y003569D01*
X017717Y003572D02*
X017972Y003572D01*
X017967Y003574D02*
X017721Y003574D01*
X017725Y003577D02*
X017963Y003577D01*
X017958Y003579D02*
X017729Y003579D01*
X017733Y003582D02*
X017954Y003582D01*
X017949Y003584D02*
X017737Y003584D01*
X017740Y003586D02*
X017945Y003586D01*
X017940Y003589D02*
X017747Y003589D01*
X017754Y003591D02*
X017936Y003591D01*
X017929Y003594D02*
X017761Y003594D01*
X017768Y003596D02*
X017921Y003596D01*
X017913Y003599D02*
X017775Y003599D01*
X017781Y003601D02*
X017905Y003601D01*
X017897Y003604D02*
X017788Y003604D01*
X017804Y003606D02*
X017888Y003606D01*
X017864Y003608D02*
X017825Y003608D01*
X017608Y003133D02*
X018079Y003133D01*
X018079Y003131D02*
X017608Y003131D01*
X017608Y003128D02*
X018079Y003128D01*
X018079Y003126D02*
X017608Y003126D01*
X017609Y003123D02*
X018078Y003123D01*
X018078Y003121D02*
X017609Y003121D01*
X017609Y003118D02*
X018078Y003118D01*
X018078Y003116D02*
X017610Y003116D01*
X017610Y003114D02*
X018077Y003114D01*
X018077Y003111D02*
X017610Y003111D01*
X017610Y003109D02*
X018077Y003109D01*
X018077Y003106D02*
X017611Y003106D01*
X017611Y003104D02*
X018076Y003104D01*
X018076Y003101D02*
X017611Y003101D01*
X017612Y003099D02*
X018076Y003099D01*
X018076Y003097D02*
X017612Y003097D01*
X017612Y003094D02*
X018075Y003094D01*
X018075Y003092D02*
X017612Y003092D01*
X017613Y003089D02*
X018075Y003089D01*
X018074Y003087D02*
X017613Y003087D01*
X017613Y003084D02*
X018073Y003084D01*
X018072Y003082D02*
X017614Y003082D01*
X017615Y003079D02*
X018072Y003079D01*
X018071Y003077D02*
X017616Y003077D01*
X017617Y003075D02*
X018070Y003075D01*
X018069Y003072D02*
X017617Y003072D01*
X017618Y003070D02*
X018069Y003070D01*
X018068Y003067D02*
X017619Y003067D01*
X017620Y003065D02*
X018067Y003065D01*
X018066Y003062D02*
X017621Y003062D01*
X017622Y003060D02*
X018066Y003060D01*
X018065Y003058D02*
X017623Y003058D01*
X017624Y003055D02*
X018064Y003055D01*
X018063Y003053D02*
X017624Y003053D01*
X017625Y003050D02*
X018063Y003050D01*
X018062Y003048D02*
X017626Y003048D01*
X017627Y003045D02*
X018061Y003045D01*
X018060Y003043D02*
X017628Y003043D01*
X017629Y003041D02*
X018058Y003041D01*
X018057Y003038D02*
X017630Y003038D01*
X017630Y003036D02*
X018056Y003036D01*
X018054Y003033D02*
X017632Y003033D01*
X017633Y003031D02*
X018053Y003031D01*
X018052Y003028D02*
X017635Y003028D01*
X017636Y003026D02*
X018050Y003026D01*
X018049Y003023D02*
X017638Y003023D01*
X017639Y003021D02*
X018048Y003021D01*
X018047Y003019D02*
X017641Y003019D01*
X017642Y003016D02*
X018045Y003016D01*
X018044Y003014D02*
X017644Y003014D01*
X017645Y003011D02*
X018043Y003011D01*
X018041Y003009D02*
X017647Y003009D01*
X017649Y003006D02*
X018040Y003006D01*
X018038Y003004D02*
X017650Y003004D01*
X017652Y003002D02*
X018036Y003002D01*
X018034Y002999D02*
X017653Y002999D01*
X017655Y002997D02*
X018032Y002997D01*
X018030Y002994D02*
X017656Y002994D01*
X017658Y002992D02*
X018028Y002992D01*
X018026Y002989D02*
X017660Y002989D01*
X017662Y002987D02*
X018024Y002987D01*
X018022Y002984D02*
X017664Y002984D01*
X017667Y002982D02*
X018020Y002982D01*
X018018Y002980D02*
X017669Y002980D01*
X017672Y002977D02*
X018016Y002977D01*
X018014Y002975D02*
X017674Y002975D01*
X017677Y002972D02*
X018012Y002972D01*
X018010Y002970D02*
X017679Y002970D01*
X017682Y002967D02*
X018007Y002967D01*
X018004Y002965D02*
X017684Y002965D01*
X017687Y002963D02*
X018001Y002963D01*
X017998Y002960D02*
X017689Y002960D01*
X017691Y002958D02*
X017995Y002958D01*
X017992Y002955D02*
X017694Y002955D01*
X017696Y002953D02*
X017989Y002953D01*
X017986Y002950D02*
X017700Y002950D01*
X017704Y002948D02*
X017983Y002948D01*
X017980Y002945D02*
X017708Y002945D01*
X017712Y002943D02*
X017977Y002943D01*
X017974Y002941D02*
X017716Y002941D01*
X017720Y002938D02*
X017969Y002938D01*
X017964Y002936D02*
X017724Y002936D01*
X017728Y002933D02*
X017960Y002933D01*
X017955Y002931D02*
X017731Y002931D01*
X017735Y002928D02*
X017951Y002928D01*
X017946Y002926D02*
X017739Y002926D01*
X017745Y002924D02*
X017941Y002924D01*
X017937Y002921D02*
X017752Y002921D01*
X017759Y002919D02*
X017931Y002919D01*
X017923Y002916D02*
X017766Y002916D01*
X017773Y002914D02*
X017915Y002914D01*
X017907Y002911D02*
X017780Y002911D01*
X017787Y002909D02*
X017898Y002909D01*
X017890Y002906D02*
X017801Y002906D01*
X017824Y002904D02*
X017866Y002904D01*
X017843Y004398D02*
X017791Y004404D01*
X017741Y004421D01*
X017697Y004449D01*
X017659Y004486D01*
X018026Y004486D01*
X018024Y004483D02*
X017662Y004483D01*
X017664Y004481D02*
X018022Y004481D01*
X018020Y004478D02*
X017666Y004478D01*
X017669Y004476D02*
X018018Y004476D01*
X018016Y004474D02*
X017671Y004474D01*
X017674Y004471D02*
X018014Y004471D01*
X018012Y004469D02*
X017676Y004469D01*
X017679Y004466D02*
X018010Y004466D01*
X017974Y004437D01*
X017934Y004415D01*
X017889Y004402D01*
X017843Y004398D01*
X017842Y004398D02*
X017845Y004398D01*
X017820Y004400D02*
X017871Y004400D01*
X017892Y004403D02*
X017797Y004403D01*
X017786Y004405D02*
X017900Y004405D01*
X017908Y004408D02*
X017779Y004408D01*
X017772Y004410D02*
X017916Y004410D01*
X017924Y004413D02*
X017765Y004413D01*
X017758Y004415D02*
X017932Y004415D01*
X017938Y004418D02*
X017751Y004418D01*
X017744Y004420D02*
X017942Y004420D01*
X017947Y004422D02*
X017739Y004422D01*
X017735Y004425D02*
X017951Y004425D01*
X017956Y004427D02*
X017731Y004427D01*
X017727Y004430D02*
X017961Y004430D01*
X017965Y004432D02*
X017723Y004432D01*
X017719Y004435D02*
X017970Y004435D01*
X017974Y004437D02*
X017715Y004437D01*
X017711Y004439D02*
X017977Y004439D01*
X017980Y004442D02*
X017707Y004442D01*
X017703Y004444D02*
X017983Y004444D01*
X017986Y004447D02*
X017700Y004447D01*
X017696Y004449D02*
X017989Y004449D01*
X017992Y004452D02*
X017694Y004452D01*
X017691Y004454D02*
X017995Y004454D01*
X017998Y004457D02*
X017689Y004457D01*
X017686Y004459D02*
X018001Y004459D01*
X018004Y004461D02*
X017684Y004461D01*
X017681Y004464D02*
X018007Y004464D01*
X018010Y004466D02*
X018039Y004502D01*
X018061Y004542D01*
X017627Y004542D01*
X017626Y004544D02*
X018062Y004544D01*
X018061Y004542D02*
X018075Y004586D01*
X018080Y004632D01*
X017607Y004632D01*
X017613Y004580D01*
X017631Y004530D01*
X017659Y004486D01*
X017658Y004488D02*
X018028Y004488D01*
X018030Y004491D02*
X017656Y004491D01*
X017654Y004493D02*
X018032Y004493D01*
X018034Y004496D02*
X017653Y004496D01*
X017651Y004498D02*
X018036Y004498D01*
X018038Y004500D02*
X017650Y004500D01*
X017648Y004503D02*
X018040Y004503D01*
X018041Y004505D02*
X017647Y004505D01*
X017645Y004508D02*
X018043Y004508D01*
X018044Y004510D02*
X017644Y004510D01*
X017642Y004513D02*
X018045Y004513D01*
X018047Y004515D02*
X017641Y004515D01*
X017639Y004517D02*
X018048Y004517D01*
X018049Y004520D02*
X017637Y004520D01*
X017636Y004522D02*
X018051Y004522D01*
X018052Y004525D02*
X017634Y004525D01*
X017633Y004527D02*
X018053Y004527D01*
X018055Y004530D02*
X017631Y004530D01*
X017630Y004532D02*
X018056Y004532D01*
X018057Y004535D02*
X017629Y004535D01*
X017629Y004537D02*
X018059Y004537D01*
X018060Y004539D02*
X017628Y004539D01*
X017625Y004547D02*
X018063Y004547D01*
X018064Y004549D02*
X017624Y004549D01*
X017623Y004552D02*
X018064Y004552D01*
X018065Y004554D02*
X017623Y004554D01*
X017622Y004556D02*
X018066Y004556D01*
X018067Y004559D02*
X017621Y004559D01*
X017620Y004561D02*
X018067Y004561D01*
X018068Y004564D02*
X017619Y004564D01*
X017618Y004566D02*
X018069Y004566D01*
X018070Y004569D02*
X017617Y004569D01*
X017616Y004571D02*
X018070Y004571D01*
X018071Y004574D02*
X017616Y004574D01*
X017615Y004576D02*
X018072Y004576D01*
X018073Y004578D02*
X017614Y004578D01*
X017613Y004581D02*
X018073Y004581D01*
X018074Y004583D02*
X017613Y004583D01*
X017613Y004586D02*
X018075Y004586D01*
X018075Y004588D02*
X017612Y004588D01*
X017612Y004591D02*
X018075Y004591D01*
X018076Y004593D02*
X017612Y004593D01*
X017612Y004595D02*
X018076Y004595D01*
X018076Y004598D02*
X017611Y004598D01*
X017611Y004600D02*
X018076Y004600D01*
X018077Y004603D02*
X017611Y004603D01*
X017610Y004605D02*
X018077Y004605D01*
X018077Y004608D02*
X017610Y004608D01*
X017610Y004610D02*
X018077Y004610D01*
X018078Y004613D02*
X017610Y004613D01*
X017609Y004615D02*
X018078Y004615D01*
X018078Y004617D02*
X017609Y004617D01*
X017609Y004620D02*
X018078Y004620D01*
X018079Y004622D02*
X017608Y004622D01*
X017608Y004625D02*
X018079Y004625D01*
X018079Y004627D02*
X017608Y004627D01*
X017608Y004630D02*
X018079Y004630D01*
X018080Y004632D02*
X018080Y004868D01*
X018075Y004915D01*
X017612Y004915D01*
X017613Y004917D02*
X018075Y004917D01*
X018075Y004915D02*
X018062Y004959D01*
X018040Y005000D01*
X017648Y005000D01*
X017647Y004998D02*
X018042Y004998D01*
X018040Y005000D02*
X018011Y005036D01*
X017975Y005066D01*
X017934Y005088D01*
X017890Y005102D01*
X017843Y005107D01*
X017791Y005100D01*
X017741Y005083D01*
X017944Y005083D01*
X017948Y005080D02*
X017737Y005080D01*
X017733Y005078D02*
X017953Y005078D01*
X017957Y005076D02*
X017730Y005076D01*
X017726Y005073D02*
X017962Y005073D01*
X017966Y005071D02*
X017722Y005071D01*
X017718Y005068D02*
X017971Y005068D01*
X017975Y005066D02*
X017714Y005066D01*
X017710Y005063D02*
X017978Y005063D01*
X017981Y005061D02*
X017706Y005061D01*
X017703Y005059D02*
X017984Y005059D01*
X017987Y005056D02*
X017699Y005056D01*
X017696Y005054D02*
X017741Y005083D01*
X017748Y005085D02*
X017939Y005085D01*
X017935Y005088D02*
X017755Y005088D01*
X017762Y005090D02*
X017927Y005090D01*
X017919Y005093D02*
X017769Y005093D01*
X017776Y005095D02*
X017912Y005095D01*
X017904Y005098D02*
X017783Y005098D01*
X017789Y005100D02*
X017896Y005100D01*
X017884Y005102D02*
X017808Y005102D01*
X017829Y005105D02*
X017860Y005105D01*
X017990Y005054D02*
X017695Y005054D01*
X017696Y005054D02*
X017658Y005016D01*
X017630Y004971D01*
X018056Y004971D01*
X018055Y004973D02*
X017631Y004973D01*
X017630Y004971D02*
X017613Y004921D01*
X017607Y004868D01*
X017607Y004632D01*
X017607Y004634D02*
X018080Y004634D01*
X018080Y004637D02*
X017607Y004637D01*
X017607Y004639D02*
X018080Y004639D01*
X018080Y004642D02*
X017607Y004642D01*
X017607Y004644D02*
X018080Y004644D01*
X018080Y004647D02*
X017607Y004647D01*
X017607Y004649D02*
X018080Y004649D01*
X018080Y004652D02*
X017607Y004652D01*
X017607Y004654D02*
X018080Y004654D01*
X018080Y004656D02*
X017607Y004656D01*
X017607Y004659D02*
X018080Y004659D01*
X018080Y004661D02*
X017607Y004661D01*
X017607Y004664D02*
X018080Y004664D01*
X018080Y004666D02*
X017607Y004666D01*
X017607Y004669D02*
X018080Y004669D01*
X018080Y004671D02*
X017607Y004671D01*
X017607Y004673D02*
X018080Y004673D01*
X018080Y004676D02*
X017607Y004676D01*
X017607Y004678D02*
X018080Y004678D01*
X018080Y004681D02*
X017607Y004681D01*
X017607Y004683D02*
X018080Y004683D01*
X018080Y004686D02*
X017607Y004686D01*
X017607Y004688D02*
X018080Y004688D01*
X018080Y004691D02*
X017607Y004691D01*
X017607Y004693D02*
X018080Y004693D01*
X018080Y004695D02*
X017607Y004695D01*
X017607Y004698D02*
X018080Y004698D01*
X018080Y004700D02*
X017607Y004700D01*
X017607Y004703D02*
X018080Y004703D01*
X018080Y004705D02*
X017607Y004705D01*
X017607Y004708D02*
X018080Y004708D01*
X018080Y004710D02*
X017607Y004710D01*
X017607Y004712D02*
X018080Y004712D01*
X018080Y004715D02*
X017607Y004715D01*
X017607Y004717D02*
X018080Y004717D01*
X018080Y004720D02*
X017607Y004720D01*
X017607Y004722D02*
X018080Y004722D01*
X018080Y004725D02*
X017607Y004725D01*
X017607Y004727D02*
X018080Y004727D01*
X018080Y004730D02*
X017607Y004730D01*
X017607Y004732D02*
X018080Y004732D01*
X018080Y004734D02*
X017607Y004734D01*
X017607Y004737D02*
X018080Y004737D01*
X018080Y004739D02*
X017607Y004739D01*
X017607Y004742D02*
X018080Y004742D01*
X018080Y004744D02*
X017607Y004744D01*
X017607Y004747D02*
X018080Y004747D01*
X018080Y004749D02*
X017607Y004749D01*
X017607Y004751D02*
X018080Y004751D01*
X018080Y004754D02*
X017607Y004754D01*
X017607Y004756D02*
X018080Y004756D01*
X018080Y004759D02*
X017607Y004759D01*
X017607Y004761D02*
X018080Y004761D01*
X018080Y004764D02*
X017607Y004764D01*
X017607Y004766D02*
X018080Y004766D01*
X018080Y004769D02*
X017607Y004769D01*
X017607Y004771D02*
X018080Y004771D01*
X018080Y004773D02*
X017607Y004773D01*
X017607Y004776D02*
X018080Y004776D01*
X018080Y004778D02*
X017607Y004778D01*
X017607Y004781D02*
X018080Y004781D01*
X018080Y004783D02*
X017607Y004783D01*
X017607Y004786D02*
X018080Y004786D01*
X018080Y004788D02*
X017607Y004788D01*
X017607Y004790D02*
X018080Y004790D01*
X018080Y004793D02*
X017607Y004793D01*
X017607Y004795D02*
X018080Y004795D01*
X018080Y004798D02*
X017607Y004798D01*
X017607Y004800D02*
X018080Y004800D01*
X018080Y004803D02*
X017607Y004803D01*
X017607Y004805D02*
X018080Y004805D01*
X018080Y004808D02*
X017607Y004808D01*
X017607Y004810D02*
X018080Y004810D01*
X018080Y004812D02*
X017607Y004812D01*
X017607Y004815D02*
X018080Y004815D01*
X018080Y004817D02*
X017607Y004817D01*
X017607Y004820D02*
X018080Y004820D01*
X018080Y004822D02*
X017607Y004822D01*
X017607Y004825D02*
X018080Y004825D01*
X018080Y004827D02*
X017607Y004827D01*
X017607Y004829D02*
X018080Y004829D01*
X018080Y004832D02*
X017607Y004832D01*
X017607Y004834D02*
X018080Y004834D01*
X018080Y004837D02*
X017607Y004837D01*
X017607Y004839D02*
X018080Y004839D01*
X018080Y004842D02*
X017607Y004842D01*
X017607Y004844D02*
X018080Y004844D01*
X018080Y004847D02*
X017607Y004847D01*
X017607Y004849D02*
X018080Y004849D01*
X018080Y004851D02*
X017607Y004851D01*
X017607Y004854D02*
X018080Y004854D01*
X018080Y004856D02*
X017607Y004856D01*
X017607Y004859D02*
X018080Y004859D01*
X018080Y004861D02*
X017607Y004861D01*
X017607Y004864D02*
X018080Y004864D01*
X018080Y004866D02*
X017607Y004866D01*
X017607Y004868D02*
X018080Y004868D01*
X018079Y004871D02*
X017608Y004871D01*
X017608Y004873D02*
X018079Y004873D01*
X018079Y004876D02*
X017608Y004876D01*
X017608Y004878D02*
X018079Y004878D01*
X018079Y004881D02*
X017609Y004881D01*
X017609Y004883D02*
X018078Y004883D01*
X018078Y004886D02*
X017609Y004886D01*
X017609Y004888D02*
X018078Y004888D01*
X018078Y004890D02*
X017610Y004890D01*
X017610Y004893D02*
X018077Y004893D01*
X018077Y004895D02*
X017610Y004895D01*
X017610Y004898D02*
X018077Y004898D01*
X018077Y004900D02*
X017611Y004900D01*
X017611Y004903D02*
X018076Y004903D01*
X018076Y004905D02*
X017611Y004905D01*
X017611Y004907D02*
X018076Y004907D01*
X018076Y004910D02*
X017612Y004910D01*
X017612Y004912D02*
X018076Y004912D01*
X018074Y004920D02*
X017613Y004920D01*
X017613Y004922D02*
X018073Y004922D01*
X018072Y004924D02*
X017614Y004924D01*
X017615Y004927D02*
X018072Y004927D01*
X018071Y004929D02*
X017616Y004929D01*
X017617Y004932D02*
X018070Y004932D01*
X018069Y004934D02*
X017617Y004934D01*
X017618Y004937D02*
X018069Y004937D01*
X018068Y004939D02*
X017619Y004939D01*
X017620Y004942D02*
X018067Y004942D01*
X018067Y004944D02*
X017621Y004944D01*
X017622Y004946D02*
X018066Y004946D01*
X018065Y004949D02*
X017623Y004949D01*
X017623Y004951D02*
X018064Y004951D01*
X018064Y004954D02*
X017624Y004954D01*
X017625Y004956D02*
X018063Y004956D01*
X018062Y004959D02*
X017626Y004959D01*
X017627Y004961D02*
X018061Y004961D01*
X018060Y004963D02*
X017628Y004963D01*
X017628Y004966D02*
X018058Y004966D01*
X018057Y004968D02*
X017629Y004968D01*
X017633Y004976D02*
X018053Y004976D01*
X018052Y004978D02*
X017634Y004978D01*
X017636Y004981D02*
X018051Y004981D01*
X018049Y004983D02*
X017638Y004983D01*
X017639Y004985D02*
X018048Y004985D01*
X018047Y004988D02*
X017641Y004988D01*
X017642Y004990D02*
X018046Y004990D01*
X018044Y004993D02*
X017644Y004993D01*
X017645Y004995D02*
X018043Y004995D01*
X018039Y005002D02*
X017650Y005002D01*
X017651Y005005D02*
X018037Y005005D01*
X018035Y005007D02*
X017653Y005007D01*
X017654Y005010D02*
X018033Y005010D01*
X018031Y005012D02*
X017656Y005012D01*
X017657Y005015D02*
X018029Y005015D01*
X018027Y005017D02*
X017659Y005017D01*
X017661Y005020D02*
X018025Y005020D01*
X018023Y005022D02*
X017664Y005022D01*
X017666Y005024D02*
X018021Y005024D01*
X018019Y005027D02*
X017669Y005027D01*
X017671Y005029D02*
X018017Y005029D01*
X018015Y005032D02*
X017673Y005032D01*
X017676Y005034D02*
X018013Y005034D01*
X018011Y005037D02*
X017678Y005037D01*
X017681Y005039D02*
X018008Y005039D01*
X018005Y005041D02*
X017683Y005041D01*
X017686Y005044D02*
X018002Y005044D01*
X017999Y005046D02*
X017688Y005046D01*
X017690Y005049D02*
X017996Y005049D01*
X017993Y005051D02*
X017693Y005051D01*
D23*
X015562Y005034D03*
X015562Y004234D03*
D24*
X014871Y006121D03*
D25*
X005727Y015312D03*
X005727Y015706D03*
D26*
X006771Y016318D03*
X006771Y014700D03*
D27*
X028871Y008709D03*
D28*
X025824Y006477D03*
X025115Y006477D03*
X027099Y006327D03*
X027808Y006327D03*
D29*
X014291Y010919D03*
X011373Y005909D03*
X011373Y004309D03*
D30*
X029921Y005259D03*
X029921Y006159D03*
X029921Y007059D03*
X029921Y007959D03*
D31*
X017054Y006678D03*
X017054Y006238D03*
D32*
X027216Y005586D03*
X027216Y005212D03*
X027216Y004838D03*
X028239Y004838D03*
X028239Y005212D03*
X028239Y005586D03*
D33*
X026464Y005677D03*
X025175Y005677D03*
X024672Y005677D03*
X023383Y005677D03*
D34*
X026492Y007562D03*
X027890Y007562D03*
D35*
X020411Y008953D03*
X020155Y008953D03*
X019899Y008953D03*
X019644Y008953D03*
X019644Y010685D03*
X019899Y010685D03*
X020155Y010685D03*
X020411Y010685D03*
D36*
X021754Y010477D03*
X022301Y010477D03*
X022301Y011077D03*
X021754Y011077D03*
X021754Y009876D03*
X022301Y009876D03*
X023147Y006400D03*
X023694Y006400D03*
X024454Y004329D03*
X025001Y004329D03*
D37*
X018877Y008673D03*
X018027Y008673D03*
X018027Y009382D03*
X018877Y009382D03*
X018877Y010073D03*
X018027Y010073D03*
X018027Y010782D03*
X018877Y010782D03*
D38*
X017151Y009201D03*
X016403Y009201D03*
X016777Y008344D03*
X022427Y005510D03*
X022053Y004654D03*
X022801Y004654D03*
D39*
X023722Y006953D03*
X024372Y006954D03*
X024372Y007501D03*
X023722Y007500D03*
D40*
X013704Y008672D03*
D41*
X018153Y007216D03*
X018153Y006716D03*
X018153Y006216D03*
X018153Y005716D03*
X020240Y005716D03*
X020240Y006216D03*
X020240Y006716D03*
X020240Y007216D03*
D42*
X019197Y006466D03*
D43*
X021770Y006095D03*
X021770Y007493D03*
M02*
