G75*
G70*
%OFA0B0*%
%FSLAX24Y24*%
%IPPOS*%
%LPD*%
%AMOC8*
5,1,8,0,0,1.08239X$1,22.5*
%
%ADD10C,0.0050*%
%ADD11C,0.0000*%
%ADD12C,0.0500*%
D10*
X001677Y000927D02*
X016366Y000927D01*
X016366Y000955D01*
X016370Y000983D01*
X016377Y001010D01*
X016388Y001036D01*
X016402Y001060D01*
X016419Y001082D01*
X016439Y001102D01*
X016461Y001119D01*
X016485Y001133D01*
X016511Y001144D01*
X016538Y001151D01*
X016566Y001155D01*
X016716Y001155D01*
X016744Y001151D01*
X016771Y001144D01*
X016797Y001133D01*
X016821Y001119D01*
X016843Y001102D01*
X016863Y001082D01*
X016880Y001060D01*
X016894Y001036D01*
X016905Y001010D01*
X016912Y000983D01*
X016916Y000955D01*
X016916Y000927D01*
X022103Y000927D01*
X022103Y000955D01*
X022107Y000983D01*
X022114Y001010D01*
X022125Y001036D01*
X022139Y001060D01*
X022156Y001082D01*
X022176Y001102D01*
X022198Y001119D01*
X022222Y001133D01*
X022248Y001144D01*
X022275Y001151D01*
X022303Y001155D01*
X022453Y001155D01*
X022453Y001156D02*
X022482Y001152D01*
X022509Y001145D01*
X022535Y001135D01*
X022560Y001121D01*
X022583Y001104D01*
X022603Y001084D01*
X022621Y001062D01*
X022635Y001037D01*
X022647Y001011D01*
X022654Y000984D01*
X022658Y000956D01*
X022659Y000928D01*
X022658Y000927D02*
X031662Y000927D01*
X031716Y000929D01*
X031770Y000934D01*
X031823Y000943D01*
X031876Y000956D01*
X031927Y000973D01*
X031977Y000993D01*
X032025Y001017D01*
X032072Y001044D01*
X032117Y001075D01*
X032159Y001108D01*
X032199Y001145D01*
X032236Y001184D01*
X032270Y001226D01*
X032301Y001270D01*
X032329Y001316D01*
X032353Y001364D01*
X032374Y001414D01*
X032392Y001465D01*
X032406Y001517D01*
X032416Y001570D01*
X032422Y001624D01*
X032424Y001677D01*
X032423Y001677D02*
X032423Y017896D01*
X032424Y017895D02*
X032422Y017949D01*
X032415Y018003D01*
X032405Y018056D01*
X032392Y018108D01*
X032374Y018159D01*
X032353Y018209D01*
X032329Y018257D01*
X032301Y018303D01*
X032269Y018347D01*
X032235Y018388D01*
X032198Y018427D01*
X032158Y018464D01*
X032116Y018497D01*
X032072Y018528D01*
X032025Y018555D01*
X031977Y018578D01*
X031927Y018599D01*
X031875Y018615D01*
X031823Y018628D01*
X031770Y018637D01*
X031716Y018643D01*
X031663Y018644D01*
X031662Y018644D02*
X001677Y018644D01*
X001624Y018642D01*
X001570Y018637D01*
X001518Y018627D01*
X001466Y018614D01*
X001415Y018597D01*
X001366Y018577D01*
X001318Y018553D01*
X001272Y018526D01*
X001228Y018495D01*
X001186Y018462D01*
X001147Y018425D01*
X001111Y018386D01*
X001077Y018345D01*
X001046Y018301D01*
X001019Y018255D01*
X000995Y018207D01*
X000975Y018158D01*
X000958Y018107D01*
X000944Y018055D01*
X000935Y018003D01*
X000929Y017949D01*
X000927Y017896D01*
X000927Y001677D01*
X000929Y001623D01*
X000935Y001570D01*
X000944Y001518D01*
X000957Y001466D01*
X000974Y001415D01*
X000995Y001365D01*
X001019Y001318D01*
X001046Y001272D01*
X001077Y001228D01*
X001110Y001186D01*
X001147Y001147D01*
X001186Y001110D01*
X001228Y001077D01*
X001272Y001046D01*
X001318Y001019D01*
X001365Y000995D01*
X001415Y000974D01*
X001466Y000957D01*
X001518Y000944D01*
X001570Y000935D01*
X001623Y000929D01*
X001677Y000927D01*
X009521Y002579D02*
X009521Y003914D01*
X010421Y003914D01*
X010421Y003659D01*
X010423Y003625D01*
X010429Y003592D01*
X010438Y003560D01*
X010451Y003529D01*
X010467Y003499D01*
X010486Y003472D01*
X010509Y003447D01*
X010534Y003424D01*
X010561Y003405D01*
X010591Y003389D01*
X010622Y003376D01*
X010654Y003367D01*
X010687Y003361D01*
X010721Y003359D01*
X011821Y003359D01*
X011851Y003361D01*
X011881Y003366D01*
X011910Y003375D01*
X011937Y003388D01*
X011963Y003403D01*
X011987Y003422D01*
X012008Y003443D01*
X012027Y003467D01*
X012042Y003493D01*
X012055Y003520D01*
X012064Y003549D01*
X012069Y003579D01*
X012071Y003609D01*
X012071Y006809D01*
X012069Y006839D01*
X012064Y006869D01*
X012055Y006898D01*
X012042Y006925D01*
X012027Y006951D01*
X012008Y006975D01*
X011987Y006996D01*
X011963Y007015D01*
X011937Y007030D01*
X011910Y007043D01*
X011881Y007052D01*
X011851Y007057D01*
X011821Y007059D01*
X011471Y007059D01*
X011441Y007061D01*
X011411Y007066D01*
X011382Y007075D01*
X011355Y007088D01*
X011329Y007103D01*
X011305Y007122D01*
X011284Y007143D01*
X011265Y007167D01*
X011250Y007193D01*
X011237Y007220D01*
X011228Y007249D01*
X011223Y007279D01*
X011221Y007309D01*
X011221Y009109D01*
X011223Y009139D01*
X011228Y009169D01*
X011237Y009198D01*
X011250Y009225D01*
X011265Y009251D01*
X011284Y009275D01*
X011305Y009296D01*
X011329Y009315D01*
X011355Y009330D01*
X011382Y009343D01*
X011411Y009352D01*
X011441Y009357D01*
X011471Y009359D01*
X013471Y009359D01*
X013499Y009358D01*
X013526Y009354D01*
X013553Y009347D01*
X013578Y009336D01*
X013602Y009322D01*
X013623Y009305D01*
X013643Y009285D01*
X013659Y009263D01*
X013673Y009239D01*
X013683Y009213D01*
X013690Y009186D01*
X013693Y009159D01*
X013693Y008015D01*
X013692Y007979D01*
X013695Y007944D01*
X013702Y007909D01*
X013712Y007875D01*
X013726Y007842D01*
X013743Y007810D01*
X013764Y007781D01*
X013787Y007754D01*
X013813Y007730D01*
X013841Y007708D01*
X013872Y007689D01*
X013904Y007674D01*
X013938Y007663D01*
X013973Y007654D01*
X014008Y007650D01*
X016403Y007650D01*
X016435Y007649D01*
X016467Y007646D01*
X016499Y007638D01*
X016530Y007627D01*
X016559Y007613D01*
X016586Y007595D01*
X016612Y007575D01*
X016635Y007552D01*
X016655Y007526D01*
X016672Y007499D01*
X016686Y007469D01*
X016696Y007438D01*
X016703Y007407D01*
X016707Y007374D01*
X016707Y005092D01*
X016007Y005092D01*
X016007Y005093D02*
X015984Y005097D01*
X015962Y005104D01*
X015941Y005114D01*
X015922Y005127D01*
X015905Y005143D01*
X015891Y005161D01*
X015879Y005181D01*
X015870Y005202D01*
X015864Y005224D01*
X015861Y005247D01*
X015862Y005270D01*
X015862Y005332D01*
X015862Y005355D01*
X015858Y005378D01*
X015852Y005400D01*
X015842Y005421D01*
X015830Y005440D01*
X015815Y005457D01*
X015797Y005472D01*
X015778Y005485D01*
X015757Y005494D01*
X015735Y005500D01*
X015712Y005504D01*
X015572Y005504D01*
X015572Y005505D02*
X015549Y005508D01*
X015527Y005515D01*
X015506Y005525D01*
X015486Y005538D01*
X015469Y005554D01*
X015453Y005571D01*
X015441Y005591D01*
X015432Y005613D01*
X015425Y005635D01*
X015422Y005658D01*
X015423Y005682D01*
X015422Y005682D02*
X015422Y006132D01*
X014322Y006132D01*
X014304Y006072D01*
X014282Y006013D01*
X014256Y005956D01*
X014227Y005900D01*
X014195Y005847D01*
X014159Y005795D01*
X014121Y005745D01*
X014080Y005698D01*
X014035Y005653D01*
X013989Y005612D01*
X013939Y005573D01*
X013888Y005537D01*
X013834Y005504D01*
X013784Y005466D01*
X013736Y005425D01*
X013691Y005381D01*
X013649Y005335D01*
X013609Y005286D01*
X013573Y005234D01*
X013540Y005181D01*
X013510Y005126D01*
X013483Y005069D01*
X013460Y005010D01*
X013441Y004950D01*
X013425Y004889D01*
X013413Y004828D01*
X013404Y004765D01*
X013400Y004702D01*
X013399Y004640D01*
X013402Y004577D01*
X013409Y004514D01*
X013420Y004452D01*
X013434Y004391D01*
X013452Y004331D01*
X013474Y004272D01*
X013499Y004214D01*
X013528Y004158D01*
X013560Y004104D01*
X013595Y004052D01*
X013633Y004002D01*
X013674Y003954D01*
X013719Y003909D01*
X013765Y003867D01*
X013814Y003828D01*
X013866Y003792D01*
X013919Y003759D01*
X013975Y003729D01*
X014032Y003703D01*
X014090Y003680D01*
X014150Y003661D01*
X014211Y003645D01*
X014273Y003633D01*
X014335Y003625D01*
X014398Y003621D01*
X014461Y003620D01*
X014524Y003624D01*
X014586Y003631D01*
X014648Y003642D01*
X014710Y003656D01*
X014770Y003674D01*
X014829Y003696D01*
X014886Y003722D01*
X015547Y003722D01*
X015580Y003724D01*
X015613Y003730D01*
X015645Y003739D01*
X015676Y003751D01*
X015706Y003766D01*
X015734Y003785D01*
X015759Y003806D01*
X015782Y003830D01*
X015803Y003856D01*
X015821Y003884D01*
X015836Y003914D01*
X015847Y003945D01*
X015856Y003977D01*
X015861Y004010D01*
X015862Y004043D01*
X015865Y004066D01*
X015872Y004088D01*
X015882Y004109D01*
X015895Y004129D01*
X015910Y004146D01*
X015928Y004161D01*
X015948Y004173D01*
X015969Y004183D01*
X015992Y004189D01*
X016015Y004192D01*
X016038Y004191D01*
X016038Y004192D02*
X016707Y004192D01*
X016707Y003122D01*
X016709Y003092D01*
X016714Y003062D01*
X016723Y003033D01*
X016736Y003006D01*
X016751Y002980D01*
X016770Y002956D01*
X016791Y002935D01*
X016815Y002916D01*
X016841Y002901D01*
X016868Y002888D01*
X016897Y002879D01*
X016927Y002874D01*
X016957Y002872D01*
X021818Y002959D01*
X022103Y002305D02*
X016916Y002305D01*
X016916Y002277D01*
X016912Y002249D01*
X016905Y002222D01*
X016894Y002196D01*
X016880Y002172D01*
X016863Y002150D01*
X016843Y002130D01*
X016821Y002113D01*
X016797Y002099D01*
X016771Y002088D01*
X016744Y002081D01*
X016716Y002077D01*
X016566Y002077D01*
X016538Y002081D01*
X016511Y002088D01*
X016485Y002099D01*
X016461Y002113D01*
X016439Y002130D01*
X016419Y002150D01*
X016402Y002172D01*
X016388Y002196D01*
X016377Y002222D01*
X016370Y002249D01*
X016366Y002277D01*
X016366Y002305D01*
X009861Y002305D01*
X009829Y002303D01*
X009797Y002305D01*
X009765Y002310D01*
X009733Y002318D01*
X009703Y002329D01*
X009674Y002344D01*
X009647Y002361D01*
X009622Y002382D01*
X009599Y002405D01*
X009579Y002430D01*
X009561Y002457D01*
X009546Y002485D01*
X009534Y002516D01*
X009526Y002547D01*
X009521Y002579D01*
X009521Y004702D02*
X009521Y007909D01*
X010421Y008509D02*
X010421Y004702D01*
X009521Y004702D01*
X009521Y007909D02*
X009524Y008093D01*
X009518Y008277D01*
X009505Y008460D01*
X009484Y008643D01*
X009455Y008824D01*
X009418Y009004D01*
X009374Y009183D01*
X009321Y009359D01*
X011051Y011649D02*
X010922Y011821D01*
X010784Y011987D01*
X010639Y012146D01*
X010486Y012297D01*
X010326Y012441D01*
X010159Y012578D01*
X009986Y012706D01*
X009807Y012825D01*
X009622Y012936D01*
X009432Y013038D01*
X009238Y013131D01*
X009040Y013214D01*
X008837Y013288D01*
X008631Y013352D01*
X008423Y013406D01*
X008212Y013450D01*
X008212Y013449D02*
X008212Y017454D01*
X008210Y017484D01*
X008204Y017513D01*
X008195Y017542D01*
X008183Y017569D01*
X008167Y017595D01*
X008148Y017618D01*
X008127Y017639D01*
X008103Y017657D01*
X008077Y017673D01*
X008050Y017685D01*
X008021Y017693D01*
X007992Y017698D01*
X007962Y017700D01*
X007962Y017699D02*
X006915Y017699D01*
X006915Y016609D01*
X007371Y016609D01*
X007401Y016607D01*
X007431Y016602D01*
X007460Y016593D01*
X007487Y016580D01*
X007513Y016565D01*
X007537Y016546D01*
X007558Y016525D01*
X007577Y016501D01*
X007592Y016475D01*
X007605Y016448D01*
X007614Y016419D01*
X007619Y016389D01*
X007621Y016359D01*
X007621Y014659D01*
X007619Y014629D01*
X007614Y014599D01*
X007605Y014570D01*
X007592Y014543D01*
X007577Y014517D01*
X007558Y014493D01*
X007537Y014472D01*
X007513Y014453D01*
X007487Y014438D01*
X007460Y014425D01*
X007431Y014416D01*
X007401Y014411D01*
X007371Y014409D01*
X006771Y014409D01*
X006741Y014407D01*
X006711Y014402D01*
X006682Y014393D01*
X006655Y014380D01*
X006629Y014365D01*
X006605Y014346D01*
X006584Y014325D01*
X006565Y014301D01*
X006550Y014275D01*
X006537Y014248D01*
X006528Y014219D01*
X006523Y014189D01*
X006521Y014159D01*
X006521Y013159D01*
X006523Y013129D01*
X006528Y013099D01*
X006537Y013070D01*
X006550Y013043D01*
X006565Y013017D01*
X006584Y012993D01*
X006605Y012972D01*
X006629Y012953D01*
X006655Y012938D01*
X006682Y012925D01*
X006711Y012916D01*
X006741Y012911D01*
X006771Y012909D01*
X007621Y012909D01*
X007271Y012059D02*
X005571Y012059D01*
X005541Y012061D01*
X005511Y012066D01*
X005482Y012075D01*
X005455Y012088D01*
X005429Y012103D01*
X005405Y012122D01*
X005384Y012143D01*
X005365Y012167D01*
X005350Y012193D01*
X005337Y012220D01*
X005328Y012249D01*
X005323Y012279D01*
X005321Y012309D01*
X005321Y014589D01*
X005319Y014643D01*
X005313Y014696D01*
X005304Y014748D01*
X005291Y014800D01*
X005274Y014851D01*
X005253Y014901D01*
X005229Y014948D01*
X005202Y014994D01*
X005171Y015038D01*
X005138Y015080D01*
X005101Y015119D01*
X005062Y015156D01*
X005020Y015189D01*
X004976Y015220D01*
X004930Y015247D01*
X004883Y015271D01*
X004833Y015292D01*
X004782Y015309D01*
X004730Y015322D01*
X004678Y015331D01*
X004625Y015337D01*
X004571Y015339D01*
X003321Y015339D01*
X002781Y014739D02*
X002735Y014744D01*
X002690Y014753D01*
X002645Y014765D01*
X002601Y014780D01*
X002559Y014799D01*
X002518Y014822D01*
X002479Y014847D01*
X002442Y014875D01*
X002408Y014906D01*
X002376Y014940D01*
X002347Y014976D01*
X002321Y015015D01*
X002297Y015055D01*
X002278Y015097D01*
X002261Y015140D01*
X002248Y015185D01*
X002238Y015230D01*
X002232Y015276D01*
X002230Y015322D01*
X002231Y015369D01*
X002231Y015368D02*
X002231Y017149D01*
X002233Y017194D01*
X002239Y017240D01*
X002248Y017284D01*
X002261Y017328D01*
X002277Y017370D01*
X002297Y017411D01*
X002321Y017450D01*
X002347Y017487D01*
X002376Y017522D01*
X002408Y017554D01*
X002443Y017583D01*
X002480Y017609D01*
X002519Y017633D01*
X002560Y017653D01*
X002602Y017669D01*
X002646Y017682D01*
X002690Y017691D01*
X002736Y017697D01*
X002781Y017699D01*
X006127Y017699D01*
X006127Y016609D01*
X005471Y016609D01*
X005448Y016611D01*
X005425Y016616D01*
X005403Y016625D01*
X005383Y016638D01*
X005365Y016653D01*
X005350Y016671D01*
X005337Y016691D01*
X005328Y016713D01*
X005323Y016736D01*
X005321Y016759D01*
X005321Y017059D01*
X005319Y017082D01*
X005314Y017105D01*
X005305Y017127D01*
X005292Y017147D01*
X005277Y017165D01*
X005259Y017180D01*
X005239Y017193D01*
X005217Y017202D01*
X005194Y017207D01*
X005171Y017209D01*
X003321Y017209D01*
X003276Y017207D01*
X003230Y017201D01*
X003186Y017192D01*
X003142Y017179D01*
X003100Y017163D01*
X003059Y017143D01*
X003020Y017119D01*
X002983Y017093D01*
X002948Y017064D01*
X002916Y017032D01*
X002887Y016997D01*
X002861Y016960D01*
X002837Y016921D01*
X002817Y016880D01*
X002801Y016838D01*
X002788Y016794D01*
X002779Y016750D01*
X002773Y016704D01*
X002771Y016659D01*
X002771Y015889D01*
X002773Y015844D01*
X002779Y015798D01*
X002788Y015754D01*
X002801Y015710D01*
X002817Y015668D01*
X002837Y015627D01*
X002861Y015588D01*
X002887Y015551D01*
X002916Y015516D01*
X002948Y015484D01*
X002983Y015455D01*
X003020Y015429D01*
X003059Y015405D01*
X003100Y015385D01*
X003142Y015369D01*
X003186Y015356D01*
X003230Y015347D01*
X003276Y015341D01*
X003321Y015339D01*
X002781Y014739D02*
X003971Y014739D01*
X004025Y014737D01*
X004078Y014731D01*
X004130Y014722D01*
X004182Y014709D01*
X004233Y014692D01*
X004283Y014671D01*
X004330Y014647D01*
X004376Y014620D01*
X004420Y014589D01*
X004462Y014556D01*
X004501Y014519D01*
X004538Y014480D01*
X004571Y014438D01*
X004602Y014394D01*
X004629Y014348D01*
X004653Y014301D01*
X004674Y014251D01*
X004691Y014200D01*
X004704Y014148D01*
X004713Y014096D01*
X004719Y014043D01*
X004721Y013989D01*
X004721Y011509D01*
X004723Y011479D01*
X004728Y011449D01*
X004737Y011420D01*
X004750Y011393D01*
X004765Y011367D01*
X004784Y011343D01*
X004805Y011322D01*
X004829Y011303D01*
X004855Y011288D01*
X004882Y011275D01*
X004911Y011266D01*
X004941Y011261D01*
X004971Y011259D01*
X006871Y011259D01*
X010721Y010653D02*
X013671Y010653D01*
X013695Y010655D01*
X013718Y010661D01*
X013740Y010671D01*
X013760Y010684D01*
X013778Y010700D01*
X013794Y010719D01*
X013806Y010739D01*
X013814Y010762D01*
X013820Y010785D01*
X013821Y010809D01*
X013823Y010826D01*
X013827Y010843D01*
X013834Y010859D01*
X013844Y010873D01*
X013857Y010886D01*
X013871Y010896D01*
X013887Y010903D01*
X013904Y010907D01*
X013921Y010909D01*
X014671Y010909D01*
X014688Y010907D01*
X014705Y010903D01*
X014721Y010896D01*
X014735Y010886D01*
X014748Y010873D01*
X014758Y010859D01*
X014765Y010843D01*
X014769Y010826D01*
X014771Y010809D01*
X014772Y010809D02*
X014773Y010785D01*
X014779Y010762D01*
X014787Y010739D01*
X014799Y010719D01*
X014815Y010700D01*
X014833Y010684D01*
X014853Y010671D01*
X014875Y010661D01*
X014898Y010655D01*
X014922Y010653D01*
X014921Y010653D02*
X017312Y010653D01*
X017335Y010655D01*
X017358Y010660D01*
X017380Y010669D01*
X017400Y010682D01*
X017418Y010697D01*
X017433Y010715D01*
X017446Y010735D01*
X017455Y010757D01*
X017460Y010780D01*
X017462Y010803D01*
X017462Y011240D01*
X017465Y011271D01*
X017473Y011302D01*
X017484Y011332D01*
X017498Y011360D01*
X017515Y011387D01*
X017535Y011411D01*
X017557Y011433D01*
X017582Y011453D01*
X017609Y011469D01*
X017638Y011483D01*
X017668Y011493D01*
X017699Y011499D01*
X017730Y011503D01*
X017762Y011502D01*
X017762Y011503D02*
X018477Y011503D01*
X018477Y012853D01*
X016912Y012853D01*
X016912Y012852D02*
X016881Y012853D01*
X016851Y012849D01*
X016822Y012842D01*
X016794Y012831D01*
X016767Y012816D01*
X016743Y012798D01*
X016721Y012777D01*
X016702Y012753D01*
X016687Y012727D01*
X016674Y012699D01*
X016666Y012670D01*
X016662Y012640D01*
X016662Y011803D01*
X016660Y011779D01*
X016655Y011756D01*
X016646Y011733D01*
X016634Y011713D01*
X016619Y011695D01*
X016601Y011679D01*
X016580Y011666D01*
X016558Y011657D01*
X016535Y011651D01*
X016512Y011649D01*
X011051Y011649D01*
X010221Y009659D02*
X010268Y009520D01*
X010308Y009379D01*
X010342Y009236D01*
X010371Y009093D01*
X010393Y008948D01*
X010408Y008802D01*
X010418Y008656D01*
X010421Y008509D01*
X010721Y010653D02*
X010610Y010843D01*
X010490Y011027D01*
X010361Y011205D01*
X010224Y011377D01*
X010078Y011541D01*
X009925Y011699D01*
X009764Y011849D01*
X009596Y011991D01*
X009421Y012124D01*
X009240Y012250D01*
X009054Y012366D01*
X008862Y012473D01*
X008664Y012570D01*
X008463Y012658D01*
X008257Y012736D01*
X008048Y012804D01*
X007836Y012862D01*
X007621Y012909D01*
X004121Y016209D02*
X004121Y016359D01*
X004119Y016398D01*
X004113Y016437D01*
X004104Y016475D01*
X004091Y016512D01*
X004074Y016548D01*
X004054Y016581D01*
X004030Y016613D01*
X004004Y016642D01*
X003975Y016668D01*
X003943Y016692D01*
X003910Y016712D01*
X003874Y016729D01*
X003837Y016742D01*
X003799Y016751D01*
X003760Y016757D01*
X003721Y016759D01*
X003682Y016757D01*
X003643Y016751D01*
X003605Y016742D01*
X003568Y016729D01*
X003532Y016712D01*
X003499Y016692D01*
X003467Y016668D01*
X003438Y016642D01*
X003412Y016613D01*
X003388Y016581D01*
X003368Y016548D01*
X003351Y016512D01*
X003338Y016475D01*
X003329Y016437D01*
X003323Y016398D01*
X003321Y016359D01*
X003321Y016209D01*
X003323Y016170D01*
X003329Y016131D01*
X003338Y016093D01*
X003351Y016056D01*
X003368Y016020D01*
X003388Y015987D01*
X003412Y015955D01*
X003438Y015926D01*
X003467Y015900D01*
X003499Y015876D01*
X003532Y015856D01*
X003568Y015839D01*
X003605Y015826D01*
X003643Y015817D01*
X003682Y015811D01*
X003721Y015809D01*
X003760Y015811D01*
X003799Y015817D01*
X003837Y015826D01*
X003874Y015839D01*
X003910Y015856D01*
X003943Y015876D01*
X003975Y015900D01*
X004004Y015926D01*
X004030Y015955D01*
X004054Y015987D01*
X004074Y016020D01*
X004091Y016056D01*
X004104Y016093D01*
X004113Y016131D01*
X004119Y016170D01*
X004121Y016209D01*
X007271Y012059D02*
X007442Y012030D01*
X007612Y011994D01*
X007780Y011949D01*
X007946Y011897D01*
X008109Y011837D01*
X008269Y011769D01*
X008425Y011694D01*
X008578Y011611D01*
X008727Y011522D01*
X008871Y011425D01*
X009011Y011322D01*
X009146Y011212D01*
X009275Y011097D01*
X009399Y010975D01*
X009517Y010847D01*
X009629Y010714D01*
X009734Y010576D01*
X009833Y010434D01*
X009925Y010286D01*
X010010Y010135D01*
X010088Y009980D01*
X010158Y009821D01*
X010221Y009659D01*
X009321Y009359D02*
X009267Y009490D01*
X009206Y009618D01*
X009140Y009743D01*
X009068Y009865D01*
X008990Y009983D01*
X008907Y010097D01*
X008818Y010208D01*
X008725Y010314D01*
X008626Y010416D01*
X008523Y010513D01*
X008415Y010605D01*
X008303Y010691D01*
X008187Y010773D01*
X008068Y010849D01*
X007945Y010919D01*
X007819Y010983D01*
X007690Y011041D01*
X007558Y011094D01*
X007424Y011139D01*
X007288Y011179D01*
X007150Y011212D01*
X007011Y011239D01*
X006871Y011259D01*
X019265Y011503D02*
X019265Y012853D01*
X023232Y012853D01*
X023233Y012853D02*
X023276Y012844D01*
X023320Y012833D01*
X023362Y012817D01*
X023402Y012799D01*
X023441Y012777D01*
X023478Y012752D01*
X023513Y012724D01*
X023545Y012693D01*
X023575Y012659D01*
X023602Y012623D01*
X023626Y012586D01*
X023646Y012546D01*
X023663Y012505D01*
X023677Y012462D01*
X023687Y012419D01*
X023694Y012374D01*
X023697Y012330D01*
X023696Y012285D01*
X023692Y012240D01*
X023692Y010486D01*
X023694Y010440D01*
X023700Y010394D01*
X023710Y010350D01*
X023724Y010306D01*
X023741Y010263D01*
X023761Y010223D01*
X023785Y010183D01*
X023812Y010146D01*
X023842Y010112D01*
X023875Y010080D01*
X023910Y010050D01*
X023948Y010024D01*
X023987Y010001D01*
X024028Y009981D01*
X024071Y009965D01*
X024115Y009953D01*
X024160Y009944D01*
X024206Y009938D01*
X024251Y009937D01*
X030612Y009937D01*
X030655Y009935D01*
X030698Y009929D01*
X030741Y009920D01*
X030782Y009907D01*
X030822Y009890D01*
X030861Y009870D01*
X030897Y009847D01*
X030931Y009821D01*
X030963Y009791D01*
X030993Y009759D01*
X031019Y009725D01*
X031042Y009688D01*
X031062Y009650D01*
X031079Y009610D01*
X031092Y009569D01*
X031101Y009526D01*
X031107Y009483D01*
X031109Y009440D01*
X031109Y006704D01*
X030321Y006704D01*
X030321Y008259D01*
X030319Y008293D01*
X030313Y008326D01*
X030304Y008358D01*
X030291Y008389D01*
X030275Y008419D01*
X030256Y008446D01*
X030233Y008471D01*
X030208Y008494D01*
X030181Y008513D01*
X030151Y008529D01*
X030120Y008542D01*
X030088Y008551D01*
X030055Y008557D01*
X030021Y008559D01*
X029521Y008559D01*
X029522Y008559D02*
X029504Y008561D01*
X029487Y008566D01*
X029471Y008574D01*
X029456Y008585D01*
X029444Y008598D01*
X029434Y008613D01*
X029427Y008630D01*
X029423Y008647D01*
X029422Y008665D01*
X029421Y008665D02*
X029419Y008682D01*
X029415Y008699D01*
X029408Y008715D01*
X029398Y008729D01*
X029385Y008742D01*
X029371Y008752D01*
X029355Y008759D01*
X029338Y008763D01*
X029321Y008765D01*
X028421Y008765D01*
X028404Y008763D01*
X028387Y008759D01*
X028371Y008752D01*
X028357Y008742D01*
X028344Y008729D01*
X028334Y008715D01*
X028327Y008699D01*
X028323Y008682D01*
X028321Y008665D01*
X028320Y008647D01*
X028316Y008630D01*
X028309Y008613D01*
X028299Y008598D01*
X028287Y008585D01*
X028272Y008574D01*
X028256Y008566D01*
X028239Y008561D01*
X028221Y008559D01*
X024061Y008559D01*
X023994Y008560D01*
X023927Y008566D01*
X023860Y008575D01*
X023794Y008588D01*
X023728Y008605D01*
X023664Y008625D01*
X023601Y008650D01*
X023540Y008678D01*
X023480Y008709D01*
X023423Y008744D01*
X023367Y008782D01*
X023314Y008824D01*
X023263Y008868D01*
X023215Y008915D01*
X023170Y008965D01*
X023127Y009018D01*
X023088Y009073D01*
X023052Y009130D01*
X023020Y009189D01*
X022991Y009250D01*
X022965Y009312D01*
X022944Y009376D01*
X022926Y009441D01*
X022911Y009507D01*
X022901Y009573D01*
X022895Y009640D01*
X022892Y009708D01*
X022892Y011353D01*
X022887Y011378D01*
X022878Y011401D01*
X022866Y011424D01*
X022851Y011444D01*
X022833Y011462D01*
X022813Y011477D01*
X022791Y011489D01*
X022767Y011498D01*
X022742Y011503D01*
X022717Y011505D01*
X022692Y011503D01*
X019265Y011503D01*
X029321Y004259D02*
X029387Y004273D01*
X029453Y004291D01*
X029517Y004312D01*
X029580Y004337D01*
X029642Y004365D01*
X029702Y004397D01*
X029760Y004432D01*
X029816Y004470D01*
X029870Y004512D01*
X029921Y004556D01*
X029970Y004603D01*
X030016Y004652D01*
X030060Y004704D01*
X030100Y004759D01*
X030137Y004815D01*
X030172Y004874D01*
X030202Y004934D01*
X030230Y004996D01*
X030254Y005060D01*
X030274Y005124D01*
X030291Y005190D01*
X030304Y005257D01*
X030313Y005324D01*
X030319Y005391D01*
X030321Y005459D01*
X030321Y005916D01*
X031109Y005916D01*
X031109Y004959D01*
X031106Y004890D01*
X031099Y004821D01*
X031088Y004753D01*
X031073Y004686D01*
X031055Y004620D01*
X031033Y004554D01*
X031008Y004490D01*
X030979Y004428D01*
X030946Y004367D01*
X030910Y004308D01*
X030872Y004252D01*
X030829Y004197D01*
X030784Y004145D01*
X030737Y004095D01*
X030686Y004049D01*
X030633Y004005D01*
X030578Y003964D01*
X030520Y003926D01*
X030460Y003892D01*
X030399Y003861D01*
X030336Y003833D01*
X030271Y003809D01*
X030206Y003788D01*
X030139Y003772D01*
X030071Y003758D01*
X022659Y002305D02*
X022658Y002277D01*
X022654Y002249D01*
X022647Y002222D01*
X022635Y002196D01*
X022621Y002171D01*
X022603Y002149D01*
X022583Y002129D01*
X022560Y002112D01*
X022535Y002098D01*
X022509Y002088D01*
X022482Y002081D01*
X022453Y002077D01*
X022303Y002077D01*
X022275Y002081D01*
X022248Y002088D01*
X022222Y002099D01*
X022198Y002113D01*
X022176Y002130D01*
X022156Y002150D01*
X022139Y002172D01*
X022125Y002196D01*
X022114Y002222D01*
X022107Y002249D01*
X022103Y002277D01*
X022103Y002305D01*
X022658Y002306D02*
X024534Y002548D01*
X026397Y002871D01*
X028244Y003275D01*
X030072Y003759D01*
X029321Y004260D02*
X027468Y003812D01*
X025598Y003446D01*
X023713Y003161D01*
X021818Y002959D01*
D11*
X030718Y002959D02*
X030720Y003007D01*
X030726Y003055D01*
X030736Y003102D01*
X030749Y003148D01*
X030767Y003193D01*
X030787Y003237D01*
X030812Y003279D01*
X030840Y003318D01*
X030870Y003355D01*
X030904Y003389D01*
X030941Y003421D01*
X030979Y003450D01*
X031020Y003475D01*
X031063Y003497D01*
X031108Y003515D01*
X031154Y003529D01*
X031201Y003540D01*
X031249Y003547D01*
X031297Y003550D01*
X031345Y003549D01*
X031393Y003544D01*
X031441Y003535D01*
X031487Y003523D01*
X031532Y003506D01*
X031576Y003486D01*
X031618Y003463D01*
X031658Y003436D01*
X031696Y003406D01*
X031731Y003373D01*
X031763Y003337D01*
X031793Y003299D01*
X031819Y003258D01*
X031841Y003215D01*
X031861Y003171D01*
X031876Y003126D01*
X031888Y003079D01*
X031896Y003031D01*
X031900Y002983D01*
X031900Y002935D01*
X031896Y002887D01*
X031888Y002839D01*
X031876Y002792D01*
X031861Y002747D01*
X031841Y002703D01*
X031819Y002660D01*
X031793Y002619D01*
X031763Y002581D01*
X031731Y002545D01*
X031696Y002512D01*
X031658Y002482D01*
X031618Y002455D01*
X031576Y002432D01*
X031532Y002412D01*
X031487Y002395D01*
X031441Y002383D01*
X031393Y002374D01*
X031345Y002369D01*
X031297Y002368D01*
X031249Y002371D01*
X031201Y002378D01*
X031154Y002389D01*
X031108Y002403D01*
X031063Y002421D01*
X031020Y002443D01*
X030979Y002468D01*
X030941Y002497D01*
X030904Y002529D01*
X030870Y002563D01*
X030840Y002600D01*
X030812Y002639D01*
X030787Y002681D01*
X030767Y002725D01*
X030749Y002770D01*
X030736Y002816D01*
X030726Y002863D01*
X030720Y002911D01*
X030718Y002959D01*
X030718Y012459D02*
X030720Y012507D01*
X030726Y012555D01*
X030736Y012602D01*
X030749Y012648D01*
X030767Y012693D01*
X030787Y012737D01*
X030812Y012779D01*
X030840Y012818D01*
X030870Y012855D01*
X030904Y012889D01*
X030941Y012921D01*
X030979Y012950D01*
X031020Y012975D01*
X031063Y012997D01*
X031108Y013015D01*
X031154Y013029D01*
X031201Y013040D01*
X031249Y013047D01*
X031297Y013050D01*
X031345Y013049D01*
X031393Y013044D01*
X031441Y013035D01*
X031487Y013023D01*
X031532Y013006D01*
X031576Y012986D01*
X031618Y012963D01*
X031658Y012936D01*
X031696Y012906D01*
X031731Y012873D01*
X031763Y012837D01*
X031793Y012799D01*
X031819Y012758D01*
X031841Y012715D01*
X031861Y012671D01*
X031876Y012626D01*
X031888Y012579D01*
X031896Y012531D01*
X031900Y012483D01*
X031900Y012435D01*
X031896Y012387D01*
X031888Y012339D01*
X031876Y012292D01*
X031861Y012247D01*
X031841Y012203D01*
X031819Y012160D01*
X031793Y012119D01*
X031763Y012081D01*
X031731Y012045D01*
X031696Y012012D01*
X031658Y011982D01*
X031618Y011955D01*
X031576Y011932D01*
X031532Y011912D01*
X031487Y011895D01*
X031441Y011883D01*
X031393Y011874D01*
X031345Y011869D01*
X031297Y011868D01*
X031249Y011871D01*
X031201Y011878D01*
X031154Y011889D01*
X031108Y011903D01*
X031063Y011921D01*
X031020Y011943D01*
X030979Y011968D01*
X030941Y011997D01*
X030904Y012029D01*
X030870Y012063D01*
X030840Y012100D01*
X030812Y012139D01*
X030787Y012181D01*
X030767Y012225D01*
X030749Y012270D01*
X030736Y012316D01*
X030726Y012363D01*
X030720Y012411D01*
X030718Y012459D01*
X001440Y012459D02*
X001442Y012507D01*
X001448Y012555D01*
X001458Y012602D01*
X001471Y012648D01*
X001489Y012693D01*
X001509Y012737D01*
X001534Y012779D01*
X001562Y012818D01*
X001592Y012855D01*
X001626Y012889D01*
X001663Y012921D01*
X001701Y012950D01*
X001742Y012975D01*
X001785Y012997D01*
X001830Y013015D01*
X001876Y013029D01*
X001923Y013040D01*
X001971Y013047D01*
X002019Y013050D01*
X002067Y013049D01*
X002115Y013044D01*
X002163Y013035D01*
X002209Y013023D01*
X002254Y013006D01*
X002298Y012986D01*
X002340Y012963D01*
X002380Y012936D01*
X002418Y012906D01*
X002453Y012873D01*
X002485Y012837D01*
X002515Y012799D01*
X002541Y012758D01*
X002563Y012715D01*
X002583Y012671D01*
X002598Y012626D01*
X002610Y012579D01*
X002618Y012531D01*
X002622Y012483D01*
X002622Y012435D01*
X002618Y012387D01*
X002610Y012339D01*
X002598Y012292D01*
X002583Y012247D01*
X002563Y012203D01*
X002541Y012160D01*
X002515Y012119D01*
X002485Y012081D01*
X002453Y012045D01*
X002418Y012012D01*
X002380Y011982D01*
X002340Y011955D01*
X002298Y011932D01*
X002254Y011912D01*
X002209Y011895D01*
X002163Y011883D01*
X002115Y011874D01*
X002067Y011869D01*
X002019Y011868D01*
X001971Y011871D01*
X001923Y011878D01*
X001876Y011889D01*
X001830Y011903D01*
X001785Y011921D01*
X001742Y011943D01*
X001701Y011968D01*
X001663Y011997D01*
X001626Y012029D01*
X001592Y012063D01*
X001562Y012100D01*
X001534Y012139D01*
X001509Y012181D01*
X001489Y012225D01*
X001471Y012270D01*
X001458Y012316D01*
X001448Y012363D01*
X001442Y012411D01*
X001440Y012459D01*
X001440Y002959D02*
X001442Y003007D01*
X001448Y003055D01*
X001458Y003102D01*
X001471Y003148D01*
X001489Y003193D01*
X001509Y003237D01*
X001534Y003279D01*
X001562Y003318D01*
X001592Y003355D01*
X001626Y003389D01*
X001663Y003421D01*
X001701Y003450D01*
X001742Y003475D01*
X001785Y003497D01*
X001830Y003515D01*
X001876Y003529D01*
X001923Y003540D01*
X001971Y003547D01*
X002019Y003550D01*
X002067Y003549D01*
X002115Y003544D01*
X002163Y003535D01*
X002209Y003523D01*
X002254Y003506D01*
X002298Y003486D01*
X002340Y003463D01*
X002380Y003436D01*
X002418Y003406D01*
X002453Y003373D01*
X002485Y003337D01*
X002515Y003299D01*
X002541Y003258D01*
X002563Y003215D01*
X002583Y003171D01*
X002598Y003126D01*
X002610Y003079D01*
X002618Y003031D01*
X002622Y002983D01*
X002622Y002935D01*
X002618Y002887D01*
X002610Y002839D01*
X002598Y002792D01*
X002583Y002747D01*
X002563Y002703D01*
X002541Y002660D01*
X002515Y002619D01*
X002485Y002581D01*
X002453Y002545D01*
X002418Y002512D01*
X002380Y002482D01*
X002340Y002455D01*
X002298Y002432D01*
X002254Y002412D01*
X002209Y002395D01*
X002163Y002383D01*
X002115Y002374D01*
X002067Y002369D01*
X002019Y002368D01*
X001971Y002371D01*
X001923Y002378D01*
X001876Y002389D01*
X001830Y002403D01*
X001785Y002421D01*
X001742Y002443D01*
X001701Y002468D01*
X001663Y002497D01*
X001626Y002529D01*
X001592Y002563D01*
X001562Y002600D01*
X001534Y002639D01*
X001509Y002681D01*
X001489Y002725D01*
X001471Y002770D01*
X001458Y002816D01*
X001448Y002863D01*
X001442Y002911D01*
X001440Y002959D01*
D12*
X014862Y004634D03*
M02*
