G75*
G70*
%OFA0B0*%
%FSLAX24Y24*%
%IPPOS*%
%LPD*%
%AMOC8*
5,1,8,0,0,1.08239X$1,22.5*
%
%ADD10C,0.0060*%
%ADD11C,0.0050*%
%ADD12C,0.0000*%
%ADD13C,0.0080*%
%ADD14C,0.0120*%
%ADD15C,0.0100*%
%ADD16C,0.0020*%
%ADD17C,0.0030*%
%ADD18C,0.0040*%
%ADD19R,0.0280X0.0280*%
D10*
X014535Y008488D02*
X014535Y008828D01*
X014648Y008828D02*
X014422Y008828D01*
X014790Y008828D02*
X014790Y008544D01*
X014847Y008488D01*
X014960Y008488D01*
X015017Y008544D01*
X015017Y008828D01*
X015158Y008771D02*
X015215Y008828D01*
X015328Y008828D01*
X015385Y008771D01*
X015385Y008544D01*
X015328Y008488D01*
X015215Y008488D01*
X015158Y008544D01*
X015158Y008771D01*
X015527Y008828D02*
X015527Y008601D01*
X015640Y008488D01*
X015753Y008601D01*
X015753Y008828D01*
X014757Y010080D02*
X014644Y010080D01*
X014587Y010137D01*
X014587Y010194D01*
X014644Y010250D01*
X014757Y010250D01*
X014814Y010307D01*
X014814Y010364D01*
X014757Y010421D01*
X014644Y010421D01*
X014587Y010364D01*
X014446Y010421D02*
X014276Y010421D01*
X014219Y010364D01*
X014219Y010137D01*
X014276Y010080D01*
X014446Y010080D01*
X014446Y010421D01*
X014077Y010421D02*
X013850Y010080D01*
X013850Y010421D01*
X014077Y010421D02*
X014077Y010080D01*
X014757Y010080D02*
X014814Y010137D01*
X019830Y008928D02*
X019830Y008701D01*
X019943Y008588D01*
X020057Y008701D01*
X020057Y008928D01*
X020198Y008928D02*
X020425Y008928D01*
X020425Y008758D01*
X020312Y008815D01*
X020255Y008815D01*
X020198Y008758D01*
X020198Y008644D01*
X020255Y008588D01*
X020368Y008588D01*
X020425Y008644D01*
X020567Y008758D02*
X020793Y008758D01*
X020935Y008815D02*
X020992Y008758D01*
X021162Y008758D01*
X021303Y008758D02*
X021417Y008758D01*
X021303Y008758D02*
X021303Y008644D01*
X021360Y008588D01*
X021473Y008588D01*
X021530Y008644D01*
X021530Y008871D01*
X021473Y008928D01*
X021360Y008928D01*
X021303Y008871D01*
X021162Y008928D02*
X020992Y008928D01*
X020935Y008871D01*
X020935Y008815D01*
X020992Y008758D02*
X020935Y008701D01*
X020935Y008644D01*
X020992Y008588D01*
X021162Y008588D01*
X021162Y008928D01*
X020680Y008871D02*
X020680Y008644D01*
X025101Y006279D02*
X025081Y006219D01*
X025091Y006139D01*
X025121Y006059D01*
X025161Y006009D01*
X025191Y005989D01*
X025211Y005969D02*
X025291Y005979D01*
X025331Y006009D01*
X025351Y006059D01*
X025351Y006139D01*
X025321Y006219D01*
X025281Y006279D01*
X025221Y006319D01*
X025151Y006319D01*
X025101Y006279D01*
X025068Y005495D02*
X025168Y005495D01*
X025218Y005445D01*
X025068Y005495D02*
X025018Y005445D01*
X025018Y005394D01*
X025218Y005194D01*
X025018Y005194D01*
X025101Y005065D02*
X025301Y004764D01*
X025432Y004814D02*
X025482Y004764D01*
X025582Y004764D01*
X025632Y004814D01*
X025764Y004764D02*
X025964Y004764D01*
X025764Y004964D01*
X025764Y005015D01*
X025814Y005065D01*
X025914Y005065D01*
X025964Y005015D01*
X026095Y005015D02*
X026295Y004814D01*
X026245Y004764D01*
X026145Y004764D01*
X026095Y004814D01*
X026095Y005015D01*
X026145Y005065D01*
X026245Y005065D01*
X026295Y005015D01*
X026295Y004814D01*
X026427Y004764D02*
X026627Y004764D01*
X026427Y004964D01*
X026427Y005015D01*
X026477Y005065D01*
X026577Y005065D01*
X026627Y005015D01*
X026047Y005294D02*
X025947Y005194D01*
X025846Y005294D01*
X025846Y005495D01*
X025715Y005445D02*
X025665Y005495D01*
X025565Y005495D01*
X025515Y005445D01*
X025515Y005394D01*
X025565Y005344D01*
X025515Y005294D01*
X025515Y005244D01*
X025565Y005194D01*
X025665Y005194D01*
X025715Y005244D01*
X025615Y005344D02*
X025565Y005344D01*
X025384Y005244D02*
X025334Y005244D01*
X025334Y005194D01*
X025384Y005194D01*
X025384Y005244D01*
X025482Y005065D02*
X025432Y005015D01*
X025432Y004964D01*
X025482Y004914D01*
X025432Y004864D01*
X025432Y004814D01*
X025482Y004914D02*
X025532Y004914D01*
X025632Y005015D02*
X025582Y005065D01*
X025482Y005065D01*
X024969Y004964D02*
X024869Y005065D01*
X024869Y004764D01*
X024969Y004764D02*
X024769Y004764D01*
X024638Y004814D02*
X024438Y005015D01*
X024438Y004814D01*
X024488Y004764D01*
X024588Y004764D01*
X024638Y004814D01*
X024638Y005015D01*
X024588Y005065D01*
X024488Y005065D01*
X024438Y005015D01*
X026047Y005294D02*
X026047Y005495D01*
X029217Y005994D02*
X029217Y006221D01*
X029273Y006278D01*
X029443Y006278D01*
X029443Y005938D01*
X029273Y005938D01*
X029217Y005994D01*
X029585Y005938D02*
X029585Y006278D01*
X029812Y006278D02*
X029585Y005938D01*
X029812Y005938D02*
X029812Y006278D01*
X029953Y006221D02*
X030010Y006278D01*
X030123Y006278D01*
X030180Y006221D01*
X030180Y005994D01*
X030123Y005938D01*
X030010Y005938D01*
X029953Y005994D01*
X029953Y006108D01*
X030067Y006108D01*
X030039Y007990D02*
X029926Y008104D01*
X029926Y008330D01*
X029785Y008330D02*
X029671Y008330D01*
X029728Y008330D02*
X029728Y007990D01*
X029785Y007990D02*
X029671Y007990D01*
X029539Y007990D02*
X029539Y008330D01*
X029312Y007990D01*
X029312Y008330D01*
X030039Y007990D02*
X030153Y008104D01*
X030153Y008330D01*
X030131Y015307D02*
X030077Y015361D01*
X030131Y015307D02*
X030237Y015307D01*
X030291Y015361D01*
X030291Y015574D01*
X030237Y015627D01*
X030131Y015627D01*
X030077Y015574D01*
X029941Y015627D02*
X029941Y015307D01*
X029727Y015307D01*
X029591Y015361D02*
X029537Y015307D01*
X029431Y015307D01*
X029377Y015361D01*
X029377Y015414D01*
X029431Y015467D01*
X029537Y015467D01*
X029591Y015521D01*
X029591Y015574D01*
X029537Y015627D01*
X029431Y015627D01*
X029377Y015574D01*
X029241Y015574D02*
X029241Y015521D01*
X029188Y015467D01*
X029081Y015467D01*
X029027Y015414D01*
X029027Y015361D01*
X029081Y015307D01*
X029188Y015307D01*
X029241Y015361D01*
X029241Y015574D02*
X029188Y015627D01*
X029081Y015627D01*
X029027Y015574D01*
X028891Y015627D02*
X028891Y015307D01*
X028891Y015467D02*
X028784Y015467D01*
X028678Y015627D02*
X028891Y015627D01*
X028541Y015627D02*
X028541Y015361D01*
X028488Y015307D01*
X028381Y015307D01*
X028328Y015361D01*
X028328Y015627D01*
X028191Y015627D02*
X028191Y015307D01*
X027978Y015307D01*
X027491Y015307D02*
X027385Y015307D01*
X027438Y015307D02*
X027438Y015627D01*
X027491Y015627D02*
X027385Y015627D01*
X027258Y015627D02*
X027045Y015307D01*
X027045Y015627D01*
X026908Y015574D02*
X026908Y015521D01*
X026855Y015467D01*
X026748Y015467D01*
X026695Y015414D01*
X026695Y015361D01*
X026748Y015307D01*
X026855Y015307D01*
X026908Y015361D01*
X026908Y015574D02*
X026855Y015627D01*
X026748Y015627D01*
X026695Y015574D01*
X026558Y015627D02*
X026345Y015627D01*
X026452Y015627D02*
X026452Y015307D01*
X026209Y015307D02*
X026209Y015521D01*
X026102Y015627D01*
X025995Y015521D01*
X025995Y015307D01*
X025859Y015307D02*
X025645Y015307D01*
X025509Y015307D02*
X025295Y015307D01*
X025159Y015307D02*
X025159Y015521D01*
X025052Y015627D01*
X024945Y015521D01*
X024945Y015307D01*
X024945Y015467D02*
X025159Y015467D01*
X025509Y015627D02*
X025509Y015307D01*
X025859Y015307D02*
X025859Y015627D01*
X025995Y015467D02*
X026209Y015467D01*
X026228Y015857D02*
X026442Y015857D01*
X026442Y016177D01*
X026228Y016177D01*
X026335Y016017D02*
X026442Y016017D01*
X026578Y015911D02*
X026578Y016124D01*
X026632Y016177D01*
X026792Y016177D01*
X026792Y015857D01*
X026632Y015857D01*
X026578Y015911D01*
X026918Y015857D02*
X027025Y015857D01*
X026972Y015857D02*
X026972Y016177D01*
X027025Y016177D02*
X026918Y016177D01*
X027161Y016177D02*
X027161Y015911D01*
X027215Y015857D01*
X027321Y015857D01*
X027375Y015911D01*
X027375Y016177D01*
X027511Y016124D02*
X027565Y016177D01*
X027671Y016177D01*
X027725Y016124D01*
X027725Y015911D01*
X027671Y015857D01*
X027565Y015857D01*
X027511Y015911D01*
X027511Y016017D01*
X027618Y016017D01*
X027258Y015627D02*
X027258Y015307D01*
X028211Y015857D02*
X028425Y015857D01*
X028425Y016177D01*
X028211Y016177D01*
X028318Y016017D02*
X028425Y016017D01*
X028561Y016017D02*
X028774Y016017D01*
X028774Y015857D02*
X028774Y016177D01*
X028911Y016177D02*
X029124Y016177D01*
X029018Y016177D02*
X029018Y015857D01*
X029611Y015911D02*
X029611Y016124D01*
X029664Y016177D01*
X029824Y016177D01*
X029824Y015857D01*
X029664Y015857D01*
X029611Y015911D01*
X029961Y015857D02*
X029961Y016071D01*
X030067Y016177D01*
X030174Y016071D01*
X030174Y015857D01*
X030310Y015857D02*
X030524Y015857D01*
X030524Y016177D01*
X030310Y016177D01*
X030417Y016017D02*
X030524Y016017D01*
X030660Y016017D02*
X030714Y015964D01*
X030874Y015964D01*
X030874Y015857D02*
X030874Y016177D01*
X030714Y016177D01*
X030660Y016124D01*
X030660Y016017D01*
X030767Y015964D02*
X030660Y015857D01*
X030174Y016017D02*
X029961Y016017D01*
X029941Y015627D02*
X029727Y015627D01*
X029834Y015467D02*
X029941Y015467D01*
X030427Y015361D02*
X030480Y015307D01*
X030587Y015307D01*
X030641Y015361D01*
X030641Y015574D01*
X030587Y015627D01*
X030480Y015627D01*
X030427Y015574D01*
X030777Y015627D02*
X030777Y015361D01*
X030830Y015307D01*
X030937Y015307D01*
X030990Y015361D01*
X030990Y015627D01*
X031127Y015574D02*
X031180Y015627D01*
X031287Y015627D01*
X031340Y015574D01*
X031340Y015521D01*
X031287Y015467D01*
X031180Y015467D01*
X031127Y015414D01*
X031127Y015361D01*
X031180Y015307D01*
X031287Y015307D01*
X031340Y015361D01*
X028561Y015857D02*
X028561Y016177D01*
X025742Y016177D02*
X025742Y015857D01*
X025742Y016017D02*
X025635Y016017D01*
X025742Y016177D02*
X025528Y016177D01*
X025392Y016124D02*
X025392Y015911D01*
X025339Y015857D01*
X025232Y015857D01*
X025179Y015911D01*
X025179Y016124D01*
X025232Y016177D01*
X025339Y016177D01*
X025392Y016124D01*
X025042Y016177D02*
X025042Y015857D01*
X025042Y015964D02*
X024882Y015964D01*
X024829Y016017D01*
X024829Y016124D01*
X024882Y016177D01*
X025042Y016177D01*
X024935Y015964D02*
X024829Y015857D01*
X024342Y015857D02*
X024342Y016071D01*
X024236Y016177D01*
X024129Y016071D01*
X024129Y015857D01*
X024129Y016017D02*
X024342Y016017D01*
X024352Y015627D02*
X024459Y015627D01*
X024406Y015627D02*
X024406Y015307D01*
X024459Y015307D02*
X024352Y015307D01*
X024226Y015361D02*
X024226Y015574D01*
X024172Y015627D01*
X024066Y015627D01*
X024012Y015574D01*
X024012Y015361D01*
X024066Y015307D01*
X024172Y015307D01*
X024226Y015361D01*
X023876Y015307D02*
X023876Y015627D01*
X023662Y015307D01*
X023662Y015627D01*
X024595Y015627D02*
X024809Y015627D01*
X024702Y015627D02*
X024702Y015307D01*
X007093Y015209D02*
X006980Y015323D01*
X006753Y015323D01*
X006923Y015323D02*
X006923Y015096D01*
X006980Y015096D02*
X007093Y015209D01*
X006980Y015096D02*
X006753Y015096D01*
X006809Y014954D02*
X006753Y014898D01*
X006753Y014728D01*
X007093Y014728D01*
X007093Y014898D01*
X007036Y014954D01*
X006980Y014954D01*
X006923Y014898D01*
X006923Y014728D01*
X006923Y014898D02*
X006866Y014954D01*
X006809Y014954D01*
X007093Y015464D02*
X007093Y015691D01*
X007093Y015578D02*
X006753Y015578D01*
X006753Y015832D02*
X006753Y015946D01*
X006753Y015889D02*
X007093Y015889D01*
X007093Y015832D02*
X007093Y015946D01*
X007093Y016078D02*
X006753Y016078D01*
X006753Y016305D02*
X007093Y016305D01*
X007093Y016078D02*
X006753Y016305D01*
X015307Y004764D02*
X015307Y004504D01*
X015438Y004504D01*
X015481Y004547D01*
X015481Y004634D01*
X015438Y004677D01*
X015307Y004677D01*
D11*
X016366Y000927D02*
X001677Y000927D01*
X001623Y000929D01*
X001570Y000935D01*
X001518Y000944D01*
X001466Y000957D01*
X001415Y000974D01*
X001365Y000995D01*
X001318Y001019D01*
X001272Y001046D01*
X001228Y001077D01*
X001186Y001110D01*
X001147Y001147D01*
X001110Y001186D01*
X001077Y001228D01*
X001046Y001272D01*
X001019Y001318D01*
X000995Y001365D01*
X000974Y001415D01*
X000957Y001466D01*
X000944Y001518D01*
X000935Y001570D01*
X000929Y001623D01*
X000927Y001677D01*
X000927Y017896D01*
X000929Y017949D01*
X000935Y018003D01*
X000944Y018055D01*
X000958Y018107D01*
X000975Y018158D01*
X000995Y018207D01*
X001019Y018255D01*
X001046Y018301D01*
X001077Y018345D01*
X001111Y018386D01*
X001147Y018425D01*
X001186Y018462D01*
X001228Y018495D01*
X001272Y018526D01*
X001318Y018553D01*
X001366Y018577D01*
X001415Y018597D01*
X001466Y018614D01*
X001518Y018627D01*
X001570Y018637D01*
X001624Y018642D01*
X001677Y018644D01*
X031662Y018644D01*
X031663Y018644D02*
X031716Y018643D01*
X031770Y018637D01*
X031823Y018628D01*
X031875Y018615D01*
X031927Y018599D01*
X031977Y018578D01*
X032025Y018555D01*
X032072Y018528D01*
X032116Y018497D01*
X032158Y018464D01*
X032198Y018427D01*
X032235Y018388D01*
X032269Y018347D01*
X032301Y018303D01*
X032329Y018257D01*
X032353Y018209D01*
X032374Y018159D01*
X032392Y018108D01*
X032405Y018056D01*
X032415Y018003D01*
X032422Y017949D01*
X032424Y017895D01*
X032423Y017896D02*
X032423Y001677D01*
X032424Y001677D02*
X032422Y001624D01*
X032416Y001570D01*
X032406Y001517D01*
X032392Y001465D01*
X032374Y001414D01*
X032353Y001364D01*
X032329Y001316D01*
X032301Y001270D01*
X032270Y001226D01*
X032236Y001184D01*
X032199Y001145D01*
X032159Y001108D01*
X032117Y001075D01*
X032072Y001044D01*
X032025Y001017D01*
X031977Y000993D01*
X031927Y000973D01*
X031876Y000956D01*
X031823Y000943D01*
X031770Y000934D01*
X031716Y000929D01*
X031662Y000927D01*
X022658Y000927D01*
X022659Y000928D02*
X022658Y000956D01*
X022654Y000984D01*
X022647Y001011D01*
X022635Y001037D01*
X022621Y001062D01*
X022603Y001084D01*
X022583Y001104D01*
X022560Y001121D01*
X022535Y001135D01*
X022509Y001145D01*
X022482Y001152D01*
X022453Y001156D01*
X022453Y001155D02*
X022303Y001155D01*
X022275Y001151D01*
X022248Y001144D01*
X022222Y001133D01*
X022198Y001119D01*
X022176Y001102D01*
X022156Y001082D01*
X022139Y001060D01*
X022125Y001036D01*
X022114Y001010D01*
X022107Y000983D01*
X022103Y000955D01*
X022103Y000927D01*
X016916Y000927D01*
X016916Y000955D01*
X016912Y000983D01*
X016905Y001010D01*
X016894Y001036D01*
X016880Y001060D01*
X016863Y001082D01*
X016843Y001102D01*
X016821Y001119D01*
X016797Y001133D01*
X016771Y001144D01*
X016744Y001151D01*
X016716Y001155D01*
X016566Y001155D01*
X016538Y001151D01*
X016511Y001144D01*
X016485Y001133D01*
X016461Y001119D01*
X016439Y001102D01*
X016419Y001082D01*
X016402Y001060D01*
X016388Y001036D01*
X016377Y001010D01*
X016370Y000983D01*
X016366Y000955D01*
X016366Y000927D01*
X016566Y002077D02*
X016716Y002077D01*
X016744Y002081D01*
X016771Y002088D01*
X016797Y002099D01*
X016821Y002113D01*
X016843Y002130D01*
X016863Y002150D01*
X016880Y002172D01*
X016894Y002196D01*
X016905Y002222D01*
X016912Y002249D01*
X016916Y002277D01*
X016916Y002305D01*
X022103Y002305D01*
X022103Y002277D01*
X022107Y002249D01*
X022114Y002222D01*
X022125Y002196D01*
X022139Y002172D01*
X022156Y002150D01*
X022176Y002130D01*
X022198Y002113D01*
X022222Y002099D01*
X022248Y002088D01*
X022275Y002081D01*
X022303Y002077D01*
X022453Y002077D01*
X022482Y002081D01*
X022509Y002088D01*
X022535Y002098D01*
X022560Y002112D01*
X022583Y002129D01*
X022603Y002149D01*
X022621Y002171D01*
X022635Y002196D01*
X022647Y002222D01*
X022654Y002249D01*
X022658Y002277D01*
X022659Y002305D01*
X021818Y002959D02*
X016957Y002872D01*
X016927Y002874D01*
X016897Y002879D01*
X016868Y002888D01*
X016841Y002901D01*
X016815Y002916D01*
X016791Y002935D01*
X016770Y002956D01*
X016751Y002980D01*
X016736Y003006D01*
X016723Y003033D01*
X016714Y003062D01*
X016709Y003092D01*
X016707Y003122D01*
X016707Y004192D01*
X016038Y004192D01*
X016038Y004191D02*
X016015Y004192D01*
X015992Y004189D01*
X015969Y004183D01*
X015948Y004173D01*
X015928Y004161D01*
X015910Y004146D01*
X015895Y004129D01*
X015882Y004109D01*
X015872Y004088D01*
X015865Y004066D01*
X015862Y004043D01*
X015861Y004010D01*
X015856Y003977D01*
X015847Y003945D01*
X015836Y003914D01*
X015821Y003884D01*
X015803Y003856D01*
X015782Y003830D01*
X015759Y003806D01*
X015734Y003785D01*
X015706Y003766D01*
X015676Y003751D01*
X015645Y003739D01*
X015613Y003730D01*
X015580Y003724D01*
X015547Y003722D01*
X014886Y003722D01*
X014829Y003696D01*
X014770Y003674D01*
X014710Y003656D01*
X014648Y003642D01*
X014586Y003631D01*
X014524Y003624D01*
X014461Y003620D01*
X014398Y003621D01*
X014335Y003625D01*
X014273Y003633D01*
X014211Y003645D01*
X014150Y003661D01*
X014090Y003680D01*
X014032Y003703D01*
X013975Y003729D01*
X013919Y003759D01*
X013866Y003792D01*
X013814Y003828D01*
X013765Y003867D01*
X013719Y003909D01*
X013674Y003954D01*
X013633Y004002D01*
X013595Y004052D01*
X013560Y004104D01*
X013528Y004158D01*
X013499Y004214D01*
X013474Y004272D01*
X013452Y004331D01*
X013434Y004391D01*
X013420Y004452D01*
X013409Y004514D01*
X013402Y004577D01*
X013399Y004640D01*
X013400Y004702D01*
X013404Y004765D01*
X013413Y004828D01*
X013425Y004889D01*
X013441Y004950D01*
X013460Y005010D01*
X013483Y005069D01*
X013510Y005126D01*
X013540Y005181D01*
X013573Y005234D01*
X013609Y005286D01*
X013649Y005335D01*
X013691Y005381D01*
X013736Y005425D01*
X013784Y005466D01*
X013834Y005504D01*
X014322Y006132D02*
X015422Y006132D01*
X015422Y005682D01*
X015423Y005682D02*
X015422Y005658D01*
X015425Y005635D01*
X015432Y005613D01*
X015441Y005591D01*
X015453Y005571D01*
X015469Y005554D01*
X015486Y005538D01*
X015506Y005525D01*
X015527Y005515D01*
X015549Y005508D01*
X015572Y005505D01*
X015572Y005504D02*
X015712Y005504D01*
X015735Y005500D01*
X015757Y005494D01*
X015778Y005485D01*
X015797Y005472D01*
X015815Y005457D01*
X015830Y005440D01*
X015842Y005421D01*
X015852Y005400D01*
X015858Y005378D01*
X015862Y005355D01*
X015862Y005332D01*
X015862Y005270D01*
X015861Y005247D01*
X015864Y005224D01*
X015870Y005202D01*
X015879Y005181D01*
X015891Y005161D01*
X015905Y005143D01*
X015922Y005127D01*
X015941Y005114D01*
X015962Y005104D01*
X015984Y005097D01*
X016007Y005093D01*
X016007Y005092D02*
X016707Y005092D01*
X016707Y007374D01*
X016703Y007407D01*
X016696Y007438D01*
X016686Y007469D01*
X016672Y007499D01*
X016655Y007526D01*
X016635Y007552D01*
X016612Y007575D01*
X016586Y007595D01*
X016559Y007613D01*
X016530Y007627D01*
X016499Y007638D01*
X016467Y007646D01*
X016435Y007649D01*
X016403Y007650D01*
X014008Y007650D01*
X013973Y007654D01*
X013938Y007663D01*
X013904Y007674D01*
X013872Y007689D01*
X013841Y007708D01*
X013813Y007730D01*
X013787Y007754D01*
X013764Y007781D01*
X013743Y007810D01*
X013726Y007842D01*
X013712Y007875D01*
X013702Y007909D01*
X013695Y007944D01*
X013692Y007979D01*
X013693Y008015D01*
X013693Y009159D01*
X013690Y009186D01*
X013683Y009213D01*
X013673Y009239D01*
X013659Y009263D01*
X013643Y009285D01*
X013623Y009305D01*
X013602Y009322D01*
X013578Y009336D01*
X013553Y009347D01*
X013526Y009354D01*
X013499Y009358D01*
X013471Y009359D01*
X011471Y009359D01*
X011441Y009357D01*
X011411Y009352D01*
X011382Y009343D01*
X011355Y009330D01*
X011329Y009315D01*
X011305Y009296D01*
X011284Y009275D01*
X011265Y009251D01*
X011250Y009225D01*
X011237Y009198D01*
X011228Y009169D01*
X011223Y009139D01*
X011221Y009109D01*
X011221Y007309D01*
X011223Y007279D01*
X011228Y007249D01*
X011237Y007220D01*
X011250Y007193D01*
X011265Y007167D01*
X011284Y007143D01*
X011305Y007122D01*
X011329Y007103D01*
X011355Y007088D01*
X011382Y007075D01*
X011411Y007066D01*
X011441Y007061D01*
X011471Y007059D01*
X011821Y007059D01*
X011851Y007057D01*
X011881Y007052D01*
X011910Y007043D01*
X011937Y007030D01*
X011963Y007015D01*
X011987Y006996D01*
X012008Y006975D01*
X012027Y006951D01*
X012042Y006925D01*
X012055Y006898D01*
X012064Y006869D01*
X012069Y006839D01*
X012071Y006809D01*
X012071Y003609D01*
X012021Y003514D02*
X011791Y003514D01*
X011791Y003744D01*
X012021Y003744D01*
X012021Y003514D01*
X012071Y003609D02*
X012069Y003579D01*
X012064Y003549D01*
X012055Y003520D01*
X012042Y003493D01*
X012027Y003467D01*
X012008Y003443D01*
X011987Y003422D01*
X011963Y003403D01*
X011937Y003388D01*
X011910Y003375D01*
X011881Y003366D01*
X011851Y003361D01*
X011821Y003359D01*
X010721Y003359D01*
X010687Y003361D01*
X010654Y003367D01*
X010622Y003376D01*
X010591Y003389D01*
X010561Y003405D01*
X010534Y003424D01*
X010509Y003447D01*
X010486Y003472D01*
X010467Y003499D01*
X010451Y003529D01*
X010438Y003560D01*
X010429Y003592D01*
X010423Y003625D01*
X010421Y003659D01*
X010421Y003914D01*
X009521Y003914D01*
X009521Y002579D01*
X009526Y002547D01*
X009534Y002516D01*
X009546Y002485D01*
X009561Y002457D01*
X009579Y002430D01*
X009599Y002405D01*
X009622Y002382D01*
X009647Y002361D01*
X009674Y002344D01*
X009703Y002329D01*
X009733Y002318D01*
X009765Y002310D01*
X009797Y002305D01*
X009829Y002303D01*
X009861Y002305D01*
X016366Y002305D01*
X016366Y002277D01*
X016370Y002249D01*
X016377Y002222D01*
X016388Y002196D01*
X016402Y002172D01*
X016419Y002150D01*
X016439Y002130D01*
X016461Y002113D01*
X016485Y002099D01*
X016511Y002088D01*
X016538Y002081D01*
X016566Y002077D01*
X012021Y003844D02*
X011791Y003844D01*
X011791Y004074D01*
X012021Y004074D01*
X012021Y003844D01*
X011691Y003844D02*
X011691Y004074D01*
X011461Y004074D01*
X011461Y003844D01*
X011691Y003844D01*
X011691Y003744D02*
X011691Y003514D01*
X011461Y003514D01*
X011461Y003744D01*
X011691Y003744D01*
X011791Y004174D02*
X011791Y004404D01*
X012021Y004404D01*
X012021Y004174D01*
X011791Y004174D01*
X011361Y004174D02*
X011361Y004404D01*
X011131Y004404D01*
X011131Y004174D01*
X011361Y004174D01*
X011361Y004834D02*
X011131Y004834D01*
X011131Y005064D01*
X011361Y005064D01*
X011361Y004834D01*
X011361Y005164D02*
X011131Y005164D01*
X011131Y005394D01*
X011361Y005394D01*
X011361Y005164D01*
X011461Y005164D02*
X011461Y005394D01*
X011691Y005394D01*
X011691Y005164D01*
X011461Y005164D01*
X011031Y005164D02*
X011031Y005394D01*
X010801Y005394D01*
X010801Y005164D01*
X011031Y005164D01*
X010421Y004702D02*
X009521Y004702D01*
X009521Y007909D01*
X010421Y008509D02*
X010421Y004702D01*
X013834Y005504D02*
X013888Y005537D01*
X013939Y005573D01*
X013989Y005612D01*
X014035Y005653D01*
X014080Y005698D01*
X014121Y005745D01*
X014159Y005795D01*
X014195Y005847D01*
X014227Y005900D01*
X014256Y005956D01*
X014282Y006013D01*
X014304Y006072D01*
X014322Y006132D01*
X011051Y011649D02*
X010922Y011821D01*
X010784Y011987D01*
X010639Y012146D01*
X010486Y012297D01*
X010326Y012441D01*
X010159Y012578D01*
X009986Y012706D01*
X009807Y012825D01*
X009622Y012936D01*
X009432Y013038D01*
X009238Y013131D01*
X009040Y013214D01*
X008837Y013288D01*
X008631Y013352D01*
X008423Y013406D01*
X008212Y013450D01*
X008212Y013449D02*
X008212Y017454D01*
X008210Y017484D01*
X008204Y017513D01*
X008195Y017542D01*
X008183Y017569D01*
X008167Y017595D01*
X008148Y017618D01*
X008127Y017639D01*
X008103Y017657D01*
X008077Y017673D01*
X008050Y017685D01*
X008021Y017693D01*
X007992Y017698D01*
X007962Y017700D01*
X007962Y017699D02*
X006915Y017699D01*
X006915Y016609D01*
X007371Y016609D01*
X007401Y016607D01*
X007431Y016602D01*
X007460Y016593D01*
X007487Y016580D01*
X007513Y016565D01*
X007537Y016546D01*
X007558Y016525D01*
X007577Y016501D01*
X007592Y016475D01*
X007605Y016448D01*
X007614Y016419D01*
X007619Y016389D01*
X007621Y016359D01*
X007621Y014659D01*
X007619Y014629D01*
X007614Y014599D01*
X007605Y014570D01*
X007592Y014543D01*
X007577Y014517D01*
X007558Y014493D01*
X007537Y014472D01*
X007513Y014453D01*
X007487Y014438D01*
X007460Y014425D01*
X007431Y014416D01*
X007401Y014411D01*
X007371Y014409D01*
X006771Y014409D01*
X006741Y014407D01*
X006711Y014402D01*
X006682Y014393D01*
X006655Y014380D01*
X006629Y014365D01*
X006605Y014346D01*
X006584Y014325D01*
X006565Y014301D01*
X006550Y014275D01*
X006537Y014248D01*
X006528Y014219D01*
X006523Y014189D01*
X006521Y014159D01*
X006521Y013159D01*
X006523Y013129D01*
X006528Y013099D01*
X006537Y013070D01*
X006550Y013043D01*
X006565Y013017D01*
X006584Y012993D01*
X006605Y012972D01*
X006629Y012953D01*
X006655Y012938D01*
X006682Y012925D01*
X006711Y012916D01*
X006741Y012911D01*
X006771Y012909D01*
X007621Y012909D01*
X007271Y012059D02*
X005571Y012059D01*
X005541Y012061D01*
X005511Y012066D01*
X005482Y012075D01*
X005455Y012088D01*
X005429Y012103D01*
X005405Y012122D01*
X005384Y012143D01*
X005365Y012167D01*
X005350Y012193D01*
X005337Y012220D01*
X005328Y012249D01*
X005323Y012279D01*
X005321Y012309D01*
X005321Y014589D01*
X005319Y014643D01*
X005313Y014696D01*
X005304Y014748D01*
X005291Y014800D01*
X005274Y014851D01*
X005253Y014901D01*
X005229Y014948D01*
X005202Y014994D01*
X005171Y015038D01*
X005138Y015080D01*
X005101Y015119D01*
X005062Y015156D01*
X005020Y015189D01*
X004976Y015220D01*
X004930Y015247D01*
X004883Y015271D01*
X004833Y015292D01*
X004782Y015309D01*
X004730Y015322D01*
X004678Y015331D01*
X004625Y015337D01*
X004571Y015339D01*
X003321Y015339D01*
X002781Y014739D02*
X002735Y014744D01*
X002690Y014753D01*
X002645Y014765D01*
X002601Y014780D01*
X002559Y014799D01*
X002518Y014822D01*
X002479Y014847D01*
X002442Y014875D01*
X002408Y014906D01*
X002376Y014940D01*
X002347Y014976D01*
X002321Y015015D01*
X002297Y015055D01*
X002278Y015097D01*
X002261Y015140D01*
X002248Y015185D01*
X002238Y015230D01*
X002232Y015276D01*
X002230Y015322D01*
X002231Y015369D01*
X002231Y015368D02*
X002231Y017149D01*
X002233Y017194D01*
X002239Y017240D01*
X002248Y017284D01*
X002261Y017328D01*
X002277Y017370D01*
X002297Y017411D01*
X002321Y017450D01*
X002347Y017487D01*
X002376Y017522D01*
X002408Y017554D01*
X002443Y017583D01*
X002480Y017609D01*
X002519Y017633D01*
X002560Y017653D01*
X002602Y017669D01*
X002646Y017682D01*
X002690Y017691D01*
X002736Y017697D01*
X002781Y017699D01*
X006127Y017699D01*
X006127Y016609D01*
X005471Y016609D01*
X005448Y016611D01*
X005425Y016616D01*
X005403Y016625D01*
X005383Y016638D01*
X005365Y016653D01*
X005350Y016671D01*
X005337Y016691D01*
X005328Y016713D01*
X005323Y016736D01*
X005321Y016759D01*
X005321Y017059D01*
X005319Y017082D01*
X005314Y017105D01*
X005305Y017127D01*
X005292Y017147D01*
X005277Y017165D01*
X005259Y017180D01*
X005239Y017193D01*
X005217Y017202D01*
X005194Y017207D01*
X005171Y017209D01*
X003321Y017209D01*
X003276Y017207D01*
X003230Y017201D01*
X003186Y017192D01*
X003142Y017179D01*
X003100Y017163D01*
X003059Y017143D01*
X003020Y017119D01*
X002983Y017093D01*
X002948Y017064D01*
X002916Y017032D01*
X002887Y016997D01*
X002861Y016960D01*
X002837Y016921D01*
X002817Y016880D01*
X002801Y016838D01*
X002788Y016794D01*
X002779Y016750D01*
X002773Y016704D01*
X002771Y016659D01*
X002771Y015889D01*
X002773Y015844D01*
X002779Y015798D01*
X002788Y015754D01*
X002801Y015710D01*
X002817Y015668D01*
X002837Y015627D01*
X002861Y015588D01*
X002887Y015551D01*
X002916Y015516D01*
X002948Y015484D01*
X002983Y015455D01*
X003020Y015429D01*
X003059Y015405D01*
X003100Y015385D01*
X003142Y015369D01*
X003186Y015356D01*
X003230Y015347D01*
X003276Y015341D01*
X003321Y015339D01*
X002781Y014739D02*
X003971Y014739D01*
X004025Y014737D01*
X004078Y014731D01*
X004130Y014722D01*
X004182Y014709D01*
X004233Y014692D01*
X004283Y014671D01*
X004330Y014647D01*
X004376Y014620D01*
X004420Y014589D01*
X004462Y014556D01*
X004501Y014519D01*
X004538Y014480D01*
X004571Y014438D01*
X004602Y014394D01*
X004629Y014348D01*
X004653Y014301D01*
X004674Y014251D01*
X004691Y014200D01*
X004704Y014148D01*
X004713Y014096D01*
X004719Y014043D01*
X004721Y013989D01*
X004721Y011509D01*
X004723Y011479D01*
X004728Y011449D01*
X004737Y011420D01*
X004750Y011393D01*
X004765Y011367D01*
X004784Y011343D01*
X004805Y011322D01*
X004829Y011303D01*
X004855Y011288D01*
X004882Y011275D01*
X004911Y011266D01*
X004941Y011261D01*
X004971Y011259D01*
X006871Y011259D01*
X010721Y010653D02*
X013671Y010653D01*
X013695Y010655D01*
X013718Y010661D01*
X013740Y010671D01*
X013760Y010684D01*
X013778Y010700D01*
X013794Y010719D01*
X013806Y010739D01*
X013814Y010762D01*
X013820Y010785D01*
X013821Y010809D01*
X013823Y010826D01*
X013827Y010843D01*
X013834Y010859D01*
X013844Y010873D01*
X013857Y010886D01*
X013871Y010896D01*
X013887Y010903D01*
X013904Y010907D01*
X013921Y010909D01*
X014671Y010909D01*
X014688Y010907D01*
X014705Y010903D01*
X014721Y010896D01*
X014735Y010886D01*
X014748Y010873D01*
X014758Y010859D01*
X014765Y010843D01*
X014769Y010826D01*
X014771Y010809D01*
X014772Y010809D02*
X014773Y010785D01*
X014779Y010762D01*
X014787Y010739D01*
X014799Y010719D01*
X014815Y010700D01*
X014833Y010684D01*
X014853Y010671D01*
X014875Y010661D01*
X014898Y010655D01*
X014922Y010653D01*
X014921Y010653D02*
X017312Y010653D01*
X017335Y010655D01*
X017358Y010660D01*
X017380Y010669D01*
X017400Y010682D01*
X017418Y010697D01*
X017433Y010715D01*
X017446Y010735D01*
X017455Y010757D01*
X017460Y010780D01*
X017462Y010803D01*
X017462Y011240D01*
X017465Y011271D01*
X017473Y011302D01*
X017484Y011332D01*
X017498Y011360D01*
X017515Y011387D01*
X017535Y011411D01*
X017557Y011433D01*
X017582Y011453D01*
X017609Y011469D01*
X017638Y011483D01*
X017668Y011493D01*
X017699Y011499D01*
X017730Y011503D01*
X017762Y011502D01*
X017762Y011503D02*
X018477Y011503D01*
X018477Y012853D01*
X016912Y012853D01*
X016912Y012852D02*
X016881Y012853D01*
X016851Y012849D01*
X016822Y012842D01*
X016794Y012831D01*
X016767Y012816D01*
X016743Y012798D01*
X016721Y012777D01*
X016702Y012753D01*
X016687Y012727D01*
X016674Y012699D01*
X016666Y012670D01*
X016662Y012640D01*
X016662Y011803D01*
X016660Y011779D01*
X016655Y011756D01*
X016646Y011733D01*
X016634Y011713D01*
X016619Y011695D01*
X016601Y011679D01*
X016580Y011666D01*
X016558Y011657D01*
X016535Y011651D01*
X016512Y011649D01*
X011051Y011649D01*
X010221Y009659D02*
X010268Y009520D01*
X010308Y009379D01*
X010342Y009236D01*
X010371Y009093D01*
X010393Y008948D01*
X010408Y008802D01*
X010418Y008656D01*
X010421Y008509D01*
X010721Y010653D02*
X010610Y010843D01*
X010490Y011027D01*
X010361Y011205D01*
X010224Y011377D01*
X010078Y011541D01*
X009925Y011699D01*
X009764Y011849D01*
X009596Y011991D01*
X009421Y012124D01*
X009240Y012250D01*
X009054Y012366D01*
X008862Y012473D01*
X008664Y012570D01*
X008463Y012658D01*
X008257Y012736D01*
X008048Y012804D01*
X007836Y012862D01*
X007621Y012909D01*
X004121Y016209D02*
X004121Y016359D01*
X004119Y016398D01*
X004113Y016437D01*
X004104Y016475D01*
X004091Y016512D01*
X004074Y016548D01*
X004054Y016581D01*
X004030Y016613D01*
X004004Y016642D01*
X003975Y016668D01*
X003943Y016692D01*
X003910Y016712D01*
X003874Y016729D01*
X003837Y016742D01*
X003799Y016751D01*
X003760Y016757D01*
X003721Y016759D01*
X003682Y016757D01*
X003643Y016751D01*
X003605Y016742D01*
X003568Y016729D01*
X003532Y016712D01*
X003499Y016692D01*
X003467Y016668D01*
X003438Y016642D01*
X003412Y016613D01*
X003388Y016581D01*
X003368Y016548D01*
X003351Y016512D01*
X003338Y016475D01*
X003329Y016437D01*
X003323Y016398D01*
X003321Y016359D01*
X003321Y016209D01*
X003323Y016170D01*
X003329Y016131D01*
X003338Y016093D01*
X003351Y016056D01*
X003368Y016020D01*
X003388Y015987D01*
X003412Y015955D01*
X003438Y015926D01*
X003467Y015900D01*
X003499Y015876D01*
X003532Y015856D01*
X003568Y015839D01*
X003605Y015826D01*
X003643Y015817D01*
X003682Y015811D01*
X003721Y015809D01*
X003760Y015811D01*
X003799Y015817D01*
X003837Y015826D01*
X003874Y015839D01*
X003910Y015856D01*
X003943Y015876D01*
X003975Y015900D01*
X004004Y015926D01*
X004030Y015955D01*
X004054Y015987D01*
X004074Y016020D01*
X004091Y016056D01*
X004104Y016093D01*
X004113Y016131D01*
X004119Y016170D01*
X004121Y016209D01*
X007271Y012059D02*
X007442Y012030D01*
X007612Y011994D01*
X007780Y011949D01*
X007946Y011897D01*
X008109Y011837D01*
X008269Y011769D01*
X008425Y011694D01*
X008578Y011611D01*
X008727Y011522D01*
X008871Y011425D01*
X009011Y011322D01*
X009146Y011212D01*
X009275Y011097D01*
X009399Y010975D01*
X009517Y010847D01*
X009629Y010714D01*
X009734Y010576D01*
X009833Y010434D01*
X009925Y010286D01*
X010010Y010135D01*
X010088Y009980D01*
X010158Y009821D01*
X010221Y009659D01*
X009321Y009359D02*
X009267Y009490D01*
X009206Y009618D01*
X009140Y009743D01*
X009068Y009865D01*
X008990Y009983D01*
X008907Y010097D01*
X008818Y010208D01*
X008725Y010314D01*
X008626Y010416D01*
X008523Y010513D01*
X008415Y010605D01*
X008303Y010691D01*
X008187Y010773D01*
X008068Y010849D01*
X007945Y010919D01*
X007819Y010983D01*
X007690Y011041D01*
X007558Y011094D01*
X007424Y011139D01*
X007288Y011179D01*
X007150Y011212D01*
X007011Y011239D01*
X006871Y011259D01*
X009321Y009359D02*
X009374Y009183D01*
X009418Y009004D01*
X009455Y008824D01*
X009484Y008643D01*
X009505Y008460D01*
X009518Y008277D01*
X009524Y008093D01*
X009521Y007909D01*
X019265Y011503D02*
X019265Y012853D01*
X023232Y012853D01*
X023233Y012853D02*
X023276Y012844D01*
X023320Y012833D01*
X023362Y012817D01*
X023402Y012799D01*
X023441Y012777D01*
X023478Y012752D01*
X023513Y012724D01*
X023545Y012693D01*
X023575Y012659D01*
X023602Y012623D01*
X023626Y012586D01*
X023646Y012546D01*
X023663Y012505D01*
X023677Y012462D01*
X023687Y012419D01*
X023694Y012374D01*
X023697Y012330D01*
X023696Y012285D01*
X023692Y012240D01*
X023692Y010486D01*
X023694Y010440D01*
X023700Y010394D01*
X023710Y010350D01*
X023724Y010306D01*
X023741Y010263D01*
X023761Y010223D01*
X023785Y010183D01*
X023812Y010146D01*
X023842Y010112D01*
X023875Y010080D01*
X023910Y010050D01*
X023948Y010024D01*
X023987Y010001D01*
X024028Y009981D01*
X024071Y009965D01*
X024115Y009953D01*
X024160Y009944D01*
X024206Y009938D01*
X024251Y009937D01*
X030612Y009937D01*
X030655Y009935D01*
X030698Y009929D01*
X030741Y009920D01*
X030782Y009907D01*
X030822Y009890D01*
X030861Y009870D01*
X030897Y009847D01*
X030931Y009821D01*
X030963Y009791D01*
X030993Y009759D01*
X031019Y009725D01*
X031042Y009688D01*
X031062Y009650D01*
X031079Y009610D01*
X031092Y009569D01*
X031101Y009526D01*
X031107Y009483D01*
X031109Y009440D01*
X031109Y006704D01*
X030321Y006704D01*
X030321Y008259D01*
X030319Y008293D01*
X030313Y008326D01*
X030304Y008358D01*
X030291Y008389D01*
X030275Y008419D01*
X030256Y008446D01*
X030233Y008471D01*
X030208Y008494D01*
X030181Y008513D01*
X030151Y008529D01*
X030120Y008542D01*
X030088Y008551D01*
X030055Y008557D01*
X030021Y008559D01*
X029521Y008559D01*
X029522Y008559D02*
X029504Y008561D01*
X029487Y008566D01*
X029471Y008574D01*
X029456Y008585D01*
X029444Y008598D01*
X029434Y008613D01*
X029427Y008630D01*
X029423Y008647D01*
X029422Y008665D01*
X029421Y008665D02*
X029419Y008682D01*
X029415Y008699D01*
X029408Y008715D01*
X029398Y008729D01*
X029385Y008742D01*
X029371Y008752D01*
X029355Y008759D01*
X029338Y008763D01*
X029321Y008765D01*
X028421Y008765D01*
X028404Y008763D01*
X028387Y008759D01*
X028371Y008752D01*
X028357Y008742D01*
X028344Y008729D01*
X028334Y008715D01*
X028327Y008699D01*
X028323Y008682D01*
X028321Y008665D01*
X028320Y008647D01*
X028316Y008630D01*
X028309Y008613D01*
X028299Y008598D01*
X028287Y008585D01*
X028272Y008574D01*
X028256Y008566D01*
X028239Y008561D01*
X028221Y008559D01*
X024061Y008559D01*
X023994Y008560D01*
X023927Y008566D01*
X023860Y008575D01*
X023794Y008588D01*
X023728Y008605D01*
X023664Y008625D01*
X023601Y008650D01*
X023540Y008678D01*
X023480Y008709D01*
X023423Y008744D01*
X023367Y008782D01*
X023314Y008824D01*
X023263Y008868D01*
X023215Y008915D01*
X023170Y008965D01*
X023127Y009018D01*
X023088Y009073D01*
X023052Y009130D01*
X023020Y009189D01*
X022991Y009250D01*
X022965Y009312D01*
X022944Y009376D01*
X022926Y009441D01*
X022911Y009507D01*
X022901Y009573D01*
X022895Y009640D01*
X022892Y009708D01*
X022892Y011353D01*
X022887Y011378D01*
X022878Y011401D01*
X022866Y011424D01*
X022851Y011444D01*
X022833Y011462D01*
X022813Y011477D01*
X022791Y011489D01*
X022767Y011498D01*
X022742Y011503D01*
X022717Y011505D01*
X022692Y011503D01*
X019265Y011503D01*
X029321Y004259D02*
X029387Y004273D01*
X029453Y004291D01*
X029517Y004312D01*
X029580Y004337D01*
X029642Y004365D01*
X029702Y004397D01*
X029760Y004432D01*
X029816Y004470D01*
X029870Y004512D01*
X029921Y004556D01*
X029970Y004603D01*
X030016Y004652D01*
X030060Y004704D01*
X030100Y004759D01*
X030137Y004815D01*
X030172Y004874D01*
X030202Y004934D01*
X030230Y004996D01*
X030254Y005060D01*
X030274Y005124D01*
X030291Y005190D01*
X030304Y005257D01*
X030313Y005324D01*
X030319Y005391D01*
X030321Y005459D01*
X030321Y005916D01*
X031109Y005916D01*
X031109Y004959D01*
X031106Y004890D01*
X031099Y004821D01*
X031088Y004753D01*
X031073Y004686D01*
X031055Y004620D01*
X031033Y004554D01*
X031008Y004490D01*
X030979Y004428D01*
X030946Y004367D01*
X030910Y004308D01*
X030872Y004252D01*
X030829Y004197D01*
X030784Y004145D01*
X030737Y004095D01*
X030686Y004049D01*
X030633Y004005D01*
X030578Y003964D01*
X030520Y003926D01*
X030460Y003892D01*
X030399Y003861D01*
X030336Y003833D01*
X030271Y003809D01*
X030206Y003788D01*
X030139Y003772D01*
X030071Y003758D01*
X024809Y004164D02*
X024789Y004126D01*
X024766Y004099D01*
X024734Y004084D01*
X024699Y004076D02*
X024634Y004104D01*
X024601Y004166D01*
X024606Y004239D01*
X024649Y004289D01*
X024671Y004304D01*
X024734Y004304D01*
X024786Y004269D01*
X024809Y004224D01*
X024809Y004164D01*
X022658Y002306D02*
X024534Y002548D01*
X026397Y002871D01*
X028244Y003275D01*
X030072Y003759D01*
X029321Y004260D02*
X027468Y003812D01*
X025598Y003446D01*
X023713Y003161D01*
X021818Y002959D01*
D12*
X030718Y002959D02*
X030720Y003007D01*
X030726Y003055D01*
X030736Y003102D01*
X030749Y003148D01*
X030767Y003193D01*
X030787Y003237D01*
X030812Y003279D01*
X030840Y003318D01*
X030870Y003355D01*
X030904Y003389D01*
X030941Y003421D01*
X030979Y003450D01*
X031020Y003475D01*
X031063Y003497D01*
X031108Y003515D01*
X031154Y003529D01*
X031201Y003540D01*
X031249Y003547D01*
X031297Y003550D01*
X031345Y003549D01*
X031393Y003544D01*
X031441Y003535D01*
X031487Y003523D01*
X031532Y003506D01*
X031576Y003486D01*
X031618Y003463D01*
X031658Y003436D01*
X031696Y003406D01*
X031731Y003373D01*
X031763Y003337D01*
X031793Y003299D01*
X031819Y003258D01*
X031841Y003215D01*
X031861Y003171D01*
X031876Y003126D01*
X031888Y003079D01*
X031896Y003031D01*
X031900Y002983D01*
X031900Y002935D01*
X031896Y002887D01*
X031888Y002839D01*
X031876Y002792D01*
X031861Y002747D01*
X031841Y002703D01*
X031819Y002660D01*
X031793Y002619D01*
X031763Y002581D01*
X031731Y002545D01*
X031696Y002512D01*
X031658Y002482D01*
X031618Y002455D01*
X031576Y002432D01*
X031532Y002412D01*
X031487Y002395D01*
X031441Y002383D01*
X031393Y002374D01*
X031345Y002369D01*
X031297Y002368D01*
X031249Y002371D01*
X031201Y002378D01*
X031154Y002389D01*
X031108Y002403D01*
X031063Y002421D01*
X031020Y002443D01*
X030979Y002468D01*
X030941Y002497D01*
X030904Y002529D01*
X030870Y002563D01*
X030840Y002600D01*
X030812Y002639D01*
X030787Y002681D01*
X030767Y002725D01*
X030749Y002770D01*
X030736Y002816D01*
X030726Y002863D01*
X030720Y002911D01*
X030718Y002959D01*
X030718Y012459D02*
X030720Y012507D01*
X030726Y012555D01*
X030736Y012602D01*
X030749Y012648D01*
X030767Y012693D01*
X030787Y012737D01*
X030812Y012779D01*
X030840Y012818D01*
X030870Y012855D01*
X030904Y012889D01*
X030941Y012921D01*
X030979Y012950D01*
X031020Y012975D01*
X031063Y012997D01*
X031108Y013015D01*
X031154Y013029D01*
X031201Y013040D01*
X031249Y013047D01*
X031297Y013050D01*
X031345Y013049D01*
X031393Y013044D01*
X031441Y013035D01*
X031487Y013023D01*
X031532Y013006D01*
X031576Y012986D01*
X031618Y012963D01*
X031658Y012936D01*
X031696Y012906D01*
X031731Y012873D01*
X031763Y012837D01*
X031793Y012799D01*
X031819Y012758D01*
X031841Y012715D01*
X031861Y012671D01*
X031876Y012626D01*
X031888Y012579D01*
X031896Y012531D01*
X031900Y012483D01*
X031900Y012435D01*
X031896Y012387D01*
X031888Y012339D01*
X031876Y012292D01*
X031861Y012247D01*
X031841Y012203D01*
X031819Y012160D01*
X031793Y012119D01*
X031763Y012081D01*
X031731Y012045D01*
X031696Y012012D01*
X031658Y011982D01*
X031618Y011955D01*
X031576Y011932D01*
X031532Y011912D01*
X031487Y011895D01*
X031441Y011883D01*
X031393Y011874D01*
X031345Y011869D01*
X031297Y011868D01*
X031249Y011871D01*
X031201Y011878D01*
X031154Y011889D01*
X031108Y011903D01*
X031063Y011921D01*
X031020Y011943D01*
X030979Y011968D01*
X030941Y011997D01*
X030904Y012029D01*
X030870Y012063D01*
X030840Y012100D01*
X030812Y012139D01*
X030787Y012181D01*
X030767Y012225D01*
X030749Y012270D01*
X030736Y012316D01*
X030726Y012363D01*
X030720Y012411D01*
X030718Y012459D01*
X001440Y012459D02*
X001442Y012507D01*
X001448Y012555D01*
X001458Y012602D01*
X001471Y012648D01*
X001489Y012693D01*
X001509Y012737D01*
X001534Y012779D01*
X001562Y012818D01*
X001592Y012855D01*
X001626Y012889D01*
X001663Y012921D01*
X001701Y012950D01*
X001742Y012975D01*
X001785Y012997D01*
X001830Y013015D01*
X001876Y013029D01*
X001923Y013040D01*
X001971Y013047D01*
X002019Y013050D01*
X002067Y013049D01*
X002115Y013044D01*
X002163Y013035D01*
X002209Y013023D01*
X002254Y013006D01*
X002298Y012986D01*
X002340Y012963D01*
X002380Y012936D01*
X002418Y012906D01*
X002453Y012873D01*
X002485Y012837D01*
X002515Y012799D01*
X002541Y012758D01*
X002563Y012715D01*
X002583Y012671D01*
X002598Y012626D01*
X002610Y012579D01*
X002618Y012531D01*
X002622Y012483D01*
X002622Y012435D01*
X002618Y012387D01*
X002610Y012339D01*
X002598Y012292D01*
X002583Y012247D01*
X002563Y012203D01*
X002541Y012160D01*
X002515Y012119D01*
X002485Y012081D01*
X002453Y012045D01*
X002418Y012012D01*
X002380Y011982D01*
X002340Y011955D01*
X002298Y011932D01*
X002254Y011912D01*
X002209Y011895D01*
X002163Y011883D01*
X002115Y011874D01*
X002067Y011869D01*
X002019Y011868D01*
X001971Y011871D01*
X001923Y011878D01*
X001876Y011889D01*
X001830Y011903D01*
X001785Y011921D01*
X001742Y011943D01*
X001701Y011968D01*
X001663Y011997D01*
X001626Y012029D01*
X001592Y012063D01*
X001562Y012100D01*
X001534Y012139D01*
X001509Y012181D01*
X001489Y012225D01*
X001471Y012270D01*
X001458Y012316D01*
X001448Y012363D01*
X001442Y012411D01*
X001440Y012459D01*
X001440Y002959D02*
X001442Y003007D01*
X001448Y003055D01*
X001458Y003102D01*
X001471Y003148D01*
X001489Y003193D01*
X001509Y003237D01*
X001534Y003279D01*
X001562Y003318D01*
X001592Y003355D01*
X001626Y003389D01*
X001663Y003421D01*
X001701Y003450D01*
X001742Y003475D01*
X001785Y003497D01*
X001830Y003515D01*
X001876Y003529D01*
X001923Y003540D01*
X001971Y003547D01*
X002019Y003550D01*
X002067Y003549D01*
X002115Y003544D01*
X002163Y003535D01*
X002209Y003523D01*
X002254Y003506D01*
X002298Y003486D01*
X002340Y003463D01*
X002380Y003436D01*
X002418Y003406D01*
X002453Y003373D01*
X002485Y003337D01*
X002515Y003299D01*
X002541Y003258D01*
X002563Y003215D01*
X002583Y003171D01*
X002598Y003126D01*
X002610Y003079D01*
X002618Y003031D01*
X002622Y002983D01*
X002622Y002935D01*
X002618Y002887D01*
X002610Y002839D01*
X002598Y002792D01*
X002583Y002747D01*
X002563Y002703D01*
X002541Y002660D01*
X002515Y002619D01*
X002485Y002581D01*
X002453Y002545D01*
X002418Y002512D01*
X002380Y002482D01*
X002340Y002455D01*
X002298Y002432D01*
X002254Y002412D01*
X002209Y002395D01*
X002163Y002383D01*
X002115Y002374D01*
X002067Y002369D01*
X002019Y002368D01*
X001971Y002371D01*
X001923Y002378D01*
X001876Y002389D01*
X001830Y002403D01*
X001785Y002421D01*
X001742Y002443D01*
X001701Y002468D01*
X001663Y002497D01*
X001626Y002529D01*
X001592Y002563D01*
X001562Y002600D01*
X001534Y002639D01*
X001509Y002681D01*
X001489Y002725D01*
X001471Y002770D01*
X001458Y002816D01*
X001448Y002863D01*
X001442Y002911D01*
X001440Y002959D01*
D13*
X002787Y006378D02*
X002787Y006659D01*
X002927Y006799D01*
X003067Y006659D01*
X003067Y006378D01*
X003247Y006448D02*
X003317Y006378D01*
X003457Y006378D01*
X003527Y006448D01*
X003457Y006589D02*
X003317Y006589D01*
X003247Y006519D01*
X003247Y006448D01*
X003067Y006589D02*
X002787Y006589D01*
X003247Y006729D02*
X003317Y006799D01*
X003457Y006799D01*
X003527Y006729D01*
X003527Y006659D01*
X003457Y006589D01*
X004087Y006729D02*
X004157Y006799D01*
X004297Y006799D01*
X004367Y006729D01*
X004367Y006448D01*
X004297Y006378D01*
X004157Y006378D01*
X004087Y006448D01*
X004547Y006378D02*
X004547Y006799D01*
X004827Y006799D02*
X004547Y006378D01*
X004827Y006378D02*
X004827Y006799D01*
X005387Y006799D02*
X005387Y006729D01*
X005527Y006589D01*
X005527Y006378D01*
X005527Y006589D02*
X005667Y006729D01*
X005667Y006799D01*
X005847Y006729D02*
X005847Y006659D01*
X005917Y006589D01*
X006127Y006589D01*
X006127Y006799D02*
X005917Y006799D01*
X005847Y006729D01*
X005917Y006589D02*
X005847Y006519D01*
X005847Y006448D01*
X005917Y006378D01*
X006127Y006378D01*
X006127Y006799D01*
X009238Y015530D02*
X009238Y015600D01*
X008957Y015880D01*
X008957Y015950D01*
X009238Y015950D01*
X009418Y015880D02*
X009418Y015810D01*
X009488Y015740D01*
X009628Y015740D01*
X009698Y015810D01*
X009698Y015880D01*
X009628Y015950D01*
X009488Y015950D01*
X009418Y015880D01*
X009488Y015740D02*
X009418Y015670D01*
X009418Y015600D01*
X009488Y015530D01*
X009628Y015530D01*
X009698Y015600D01*
X009698Y015670D01*
X009628Y015740D01*
X009878Y015670D02*
X010158Y015670D01*
X010158Y015810D02*
X009878Y015810D01*
X010338Y015740D02*
X010409Y015670D01*
X010619Y015670D01*
X010619Y015530D02*
X010619Y015950D01*
X010409Y015950D01*
X010338Y015880D01*
X010338Y015740D01*
X010799Y015810D02*
X010799Y015880D01*
X010869Y015950D01*
X011009Y015950D01*
X011079Y015880D01*
X011259Y015950D02*
X011540Y015530D01*
X011720Y015530D02*
X011720Y015950D01*
X011860Y015810D01*
X012000Y015950D01*
X012000Y015530D01*
X012180Y015600D02*
X012180Y015880D01*
X012250Y015950D01*
X012390Y015950D01*
X012460Y015880D01*
X012460Y015600D01*
X012390Y015530D01*
X012250Y015530D01*
X012180Y015600D01*
X012640Y015600D02*
X012711Y015530D01*
X012851Y015530D01*
X012921Y015600D01*
X012921Y015880D01*
X012851Y015950D01*
X012711Y015950D01*
X012640Y015880D01*
X013081Y015600D02*
X013081Y015530D01*
X013151Y015530D01*
X013151Y015600D01*
X013081Y015600D01*
X013331Y015530D02*
X013331Y015810D01*
X013471Y015950D01*
X013611Y015810D01*
X013611Y015530D01*
X013791Y015600D02*
X013791Y015670D01*
X013861Y015740D01*
X014002Y015740D01*
X014072Y015810D01*
X014072Y015880D01*
X014002Y015950D01*
X013861Y015950D01*
X013791Y015880D01*
X013611Y015740D02*
X013331Y015740D01*
X013791Y015600D02*
X013861Y015530D01*
X014002Y015530D01*
X014072Y015600D01*
X014252Y015530D02*
X014532Y015530D01*
X014532Y015950D01*
X014252Y015950D01*
X014392Y015740D02*
X014532Y015740D01*
X014712Y015950D02*
X014992Y015950D01*
X014852Y015950D02*
X014852Y015530D01*
X015173Y015530D02*
X015453Y015530D01*
X015453Y015950D01*
X015620Y015950D02*
X015760Y015950D01*
X015690Y015950D02*
X015690Y015530D01*
X015760Y015530D02*
X015620Y015530D01*
X015940Y015600D02*
X015940Y015740D01*
X016080Y015740D01*
X015940Y015600D02*
X016010Y015530D01*
X016150Y015530D01*
X016220Y015600D01*
X016220Y015880D01*
X016150Y015950D01*
X016010Y015950D01*
X015940Y015880D01*
X016380Y015600D02*
X016380Y015530D01*
X016450Y015530D01*
X016450Y015600D01*
X016380Y015600D01*
X016631Y015740D02*
X016701Y015670D01*
X016911Y015670D01*
X016911Y015530D02*
X016911Y015950D01*
X016701Y015950D01*
X016631Y015880D01*
X016631Y015740D01*
X017091Y015600D02*
X017091Y015880D01*
X017161Y015950D01*
X017301Y015950D01*
X017371Y015880D01*
X017371Y015600D01*
X017301Y015530D01*
X017161Y015530D01*
X017091Y015600D01*
X017551Y015530D02*
X017551Y015950D01*
X017551Y015740D02*
X017832Y015740D01*
X018012Y015670D02*
X018012Y015600D01*
X018082Y015530D01*
X018222Y015530D01*
X018292Y015600D01*
X018222Y015740D02*
X018082Y015740D01*
X018012Y015670D01*
X018012Y015880D02*
X018082Y015950D01*
X018222Y015950D01*
X018292Y015880D01*
X018292Y015810D01*
X018222Y015740D01*
X018472Y015950D02*
X018752Y015530D01*
X018932Y015950D02*
X019213Y015530D01*
X019373Y015530D02*
X019443Y015530D01*
X019443Y015600D01*
X019373Y015600D01*
X019373Y015530D01*
X019373Y015740D02*
X019443Y015740D01*
X019443Y015810D01*
X019373Y015810D01*
X019373Y015740D01*
X019623Y015670D02*
X019623Y015600D01*
X019693Y015530D01*
X019833Y015530D01*
X019903Y015600D01*
X019833Y015740D02*
X019693Y015740D01*
X019623Y015670D01*
X019623Y015880D02*
X019693Y015950D01*
X019833Y015950D01*
X019903Y015880D01*
X019903Y015810D01*
X019833Y015740D01*
X020083Y015740D02*
X020083Y015880D01*
X020154Y015950D01*
X020364Y015950D01*
X020364Y015530D01*
X020364Y015670D02*
X020154Y015670D01*
X020083Y015740D01*
X020544Y015950D02*
X020824Y015950D01*
X020684Y015950D02*
X020684Y015530D01*
X021144Y015530D02*
X021144Y015950D01*
X021284Y015950D02*
X021004Y015950D01*
X021465Y015950D02*
X021465Y015530D01*
X021465Y015740D02*
X021745Y015740D01*
X021745Y015530D02*
X021745Y015950D01*
X022115Y015741D02*
X022615Y015941D01*
X022615Y015791D01*
X023015Y015791D01*
X023015Y015691D01*
X022615Y015691D01*
X022615Y015541D01*
X022115Y015741D01*
X022265Y015741D02*
X022565Y015641D01*
X022565Y015891D01*
X022315Y015791D01*
X022515Y015691D01*
X022515Y015791D01*
X022415Y015791D01*
X022615Y015791D02*
X022615Y015741D01*
X022615Y015691D01*
X022615Y015741D02*
X023015Y015741D01*
X023371Y016490D02*
X023371Y014990D01*
X031621Y014990D01*
X031621Y016490D01*
X023371Y016490D01*
X017832Y015950D02*
X017832Y015530D01*
X010939Y015600D02*
X010939Y015530D01*
X010939Y015670D02*
X010799Y015810D01*
D14*
X007357Y007688D02*
X007377Y007710D01*
X007400Y007729D01*
X007425Y007745D01*
X007452Y007758D01*
X007480Y007767D01*
X007510Y007773D01*
X007539Y007775D01*
X007569Y007773D01*
X007598Y007768D01*
X007627Y007759D01*
X007654Y007746D01*
X007679Y007730D01*
X007702Y007711D01*
X007722Y007689D01*
X007740Y007665D01*
X007754Y007639D01*
X007765Y007611D01*
X007773Y007582D01*
X007777Y007553D01*
X007777Y007523D01*
X007773Y007494D01*
X007765Y007465D01*
X007754Y007437D01*
X007740Y007411D01*
X007722Y007387D01*
X007702Y007365D01*
X007679Y007346D01*
X007654Y007330D01*
X007627Y007317D01*
X007598Y007308D01*
X007569Y007303D01*
X007539Y007301D01*
X007510Y007303D01*
X007480Y007309D01*
X007452Y007318D01*
X007425Y007331D01*
X007400Y007347D01*
X007377Y007366D01*
X007357Y007388D01*
X006757Y007388D02*
X006777Y007366D01*
X006800Y007347D01*
X006825Y007331D01*
X006852Y007318D01*
X006880Y007309D01*
X006910Y007303D01*
X006939Y007301D01*
X006969Y007303D01*
X006998Y007308D01*
X007027Y007317D01*
X007054Y007330D01*
X007079Y007346D01*
X007102Y007365D01*
X007122Y007387D01*
X007140Y007411D01*
X007154Y007437D01*
X007165Y007465D01*
X007173Y007494D01*
X007177Y007523D01*
X007177Y007553D01*
X007173Y007582D01*
X007165Y007611D01*
X007154Y007639D01*
X007140Y007665D01*
X007122Y007689D01*
X007102Y007711D01*
X007079Y007730D01*
X007054Y007746D01*
X007027Y007759D01*
X006998Y007768D01*
X006969Y007773D01*
X006939Y007775D01*
X006910Y007773D01*
X006880Y007767D01*
X006852Y007758D01*
X006825Y007745D01*
X006800Y007729D01*
X006777Y007710D01*
X006757Y007688D01*
X014262Y004634D02*
X014462Y004634D01*
X014462Y004884D01*
X014462Y004634D02*
X014462Y004384D01*
D15*
X008257Y006338D02*
X008257Y008338D01*
X008255Y008361D01*
X008250Y008384D01*
X008241Y008406D01*
X008228Y008426D01*
X008213Y008444D01*
X008195Y008459D01*
X008175Y008472D01*
X008153Y008481D01*
X008130Y008486D01*
X008107Y008488D01*
X002557Y008488D01*
X002534Y008486D01*
X002511Y008481D01*
X002489Y008472D01*
X002469Y008459D01*
X002451Y008444D01*
X002436Y008426D01*
X002423Y008406D01*
X002414Y008384D01*
X002409Y008361D01*
X002407Y008338D01*
X002407Y006338D01*
X002409Y006315D01*
X002414Y006292D01*
X002423Y006270D01*
X002436Y006250D01*
X002451Y006232D01*
X002469Y006217D01*
X002489Y006204D01*
X002511Y006195D01*
X002534Y006190D01*
X002557Y006188D01*
X008107Y006188D01*
X008130Y006190D01*
X008153Y006195D01*
X008175Y006204D01*
X008195Y006217D01*
X008213Y006232D01*
X008228Y006250D01*
X008241Y006270D01*
X008250Y006292D01*
X008255Y006315D01*
X008257Y006338D01*
X008257Y006988D02*
X008057Y006988D01*
X008026Y006938D01*
X007992Y006890D01*
X007955Y006845D01*
X007916Y006802D01*
X007873Y006761D01*
X007828Y006724D01*
X007781Y006689D01*
X007732Y006657D01*
X007680Y006629D01*
X007627Y006604D01*
X007573Y006582D01*
X007517Y006563D01*
X007461Y006549D01*
X007403Y006538D01*
X007345Y006530D01*
X007286Y006526D01*
X007228Y006526D01*
X007169Y006530D01*
X007111Y006538D01*
X007053Y006549D01*
X006997Y006563D01*
X006941Y006582D01*
X006887Y006604D01*
X006834Y006629D01*
X006782Y006657D01*
X006733Y006689D01*
X006686Y006724D01*
X006641Y006761D01*
X006598Y006802D01*
X006559Y006845D01*
X006522Y006890D01*
X006488Y006938D01*
X006457Y006988D01*
X002407Y006988D01*
X003397Y007628D02*
X003517Y007748D01*
X003317Y007768D01*
X003397Y007628D01*
X002616Y007738D02*
X002618Y007784D01*
X002624Y007829D01*
X002633Y007874D01*
X002647Y007918D01*
X002664Y007961D01*
X002685Y008002D01*
X002709Y008041D01*
X002736Y008078D01*
X002766Y008112D01*
X002800Y008144D01*
X002835Y008173D01*
X002873Y008199D01*
X002913Y008221D01*
X002955Y008240D01*
X002999Y008255D01*
X003043Y008267D01*
X003088Y008275D01*
X003134Y008279D01*
X003180Y008279D01*
X003226Y008275D01*
X003271Y008267D01*
X003315Y008255D01*
X003359Y008240D01*
X003401Y008221D01*
X003441Y008199D01*
X003479Y008173D01*
X003514Y008144D01*
X003548Y008112D01*
X003578Y008078D01*
X003605Y008041D01*
X003629Y008002D01*
X003650Y007961D01*
X003667Y007918D01*
X003681Y007874D01*
X003690Y007829D01*
X003696Y007784D01*
X003698Y007738D01*
X003696Y007692D01*
X003690Y007647D01*
X003681Y007602D01*
X003667Y007558D01*
X003650Y007515D01*
X003629Y007474D01*
X003605Y007435D01*
X003578Y007398D01*
X003548Y007364D01*
X003514Y007332D01*
X003479Y007303D01*
X003441Y007277D01*
X003401Y007255D01*
X003359Y007236D01*
X003315Y007221D01*
X003271Y007209D01*
X003226Y007201D01*
X003180Y007197D01*
X003134Y007197D01*
X003088Y007201D01*
X003043Y007209D01*
X002999Y007221D01*
X002955Y007236D01*
X002913Y007255D01*
X002873Y007277D01*
X002835Y007303D01*
X002800Y007332D01*
X002766Y007364D01*
X002736Y007398D01*
X002709Y007435D01*
X002685Y007474D01*
X002664Y007515D01*
X002647Y007558D01*
X002633Y007602D01*
X002624Y007647D01*
X002618Y007692D01*
X002616Y007738D01*
X003277Y007449D02*
X003246Y007434D01*
X003213Y007422D01*
X003179Y007415D01*
X003144Y007411D01*
X003110Y007410D01*
X003075Y007414D01*
X003041Y007422D01*
X003008Y007433D01*
X002977Y007448D01*
X002947Y007466D01*
X002920Y007488D01*
X002895Y007512D01*
X002873Y007539D01*
X002854Y007569D01*
X002839Y007600D01*
X002827Y007632D01*
X002819Y007666D01*
X002815Y007701D01*
X002814Y007736D01*
X002818Y007770D01*
X002825Y007804D01*
X002836Y007837D01*
X002851Y007869D01*
X002869Y007899D01*
X002890Y007926D01*
X002914Y007951D01*
X002941Y007973D01*
X002970Y007992D01*
X003001Y008008D01*
X003034Y008020D01*
X003068Y008028D01*
X003102Y008033D01*
X003137Y008034D01*
X003172Y008031D01*
X003206Y008024D01*
X003239Y008013D01*
X003270Y007999D01*
X003300Y007981D01*
X003328Y007960D01*
X003353Y007936D01*
X003376Y007909D01*
X003395Y007880D01*
X003411Y007849D01*
X003423Y007817D01*
X003432Y007783D01*
X003437Y007749D01*
X003977Y007508D02*
X004937Y007948D01*
X004457Y007948D02*
X004457Y008028D01*
X004357Y007888D02*
X004373Y007901D01*
X004391Y007912D01*
X004410Y007919D01*
X004431Y007923D01*
X004451Y007922D01*
X004472Y007919D01*
X004491Y007911D01*
X004509Y007900D01*
X004524Y007886D01*
X004537Y007870D01*
X004546Y007852D01*
X004552Y007832D01*
X004555Y007811D01*
X004554Y007791D01*
X004549Y007771D01*
X004540Y007752D01*
X004529Y007735D01*
X004514Y007720D01*
X004497Y007708D01*
X003916Y007738D02*
X003918Y007784D01*
X003924Y007829D01*
X003933Y007874D01*
X003947Y007918D01*
X003964Y007961D01*
X003985Y008002D01*
X004009Y008041D01*
X004036Y008078D01*
X004066Y008112D01*
X004100Y008144D01*
X004135Y008173D01*
X004173Y008199D01*
X004213Y008221D01*
X004255Y008240D01*
X004299Y008255D01*
X004343Y008267D01*
X004388Y008275D01*
X004434Y008279D01*
X004480Y008279D01*
X004526Y008275D01*
X004571Y008267D01*
X004615Y008255D01*
X004659Y008240D01*
X004701Y008221D01*
X004741Y008199D01*
X004779Y008173D01*
X004814Y008144D01*
X004848Y008112D01*
X004878Y008078D01*
X004905Y008041D01*
X004929Y008002D01*
X004950Y007961D01*
X004967Y007918D01*
X004981Y007874D01*
X004990Y007829D01*
X004996Y007784D01*
X004998Y007738D01*
X004996Y007692D01*
X004990Y007647D01*
X004981Y007602D01*
X004967Y007558D01*
X004950Y007515D01*
X004929Y007474D01*
X004905Y007435D01*
X004878Y007398D01*
X004848Y007364D01*
X004814Y007332D01*
X004779Y007303D01*
X004741Y007277D01*
X004701Y007255D01*
X004659Y007236D01*
X004615Y007221D01*
X004571Y007209D01*
X004526Y007201D01*
X004480Y007197D01*
X004434Y007197D01*
X004388Y007201D01*
X004343Y007209D01*
X004299Y007221D01*
X004255Y007236D01*
X004213Y007255D01*
X004173Y007277D01*
X004135Y007303D01*
X004100Y007332D01*
X004066Y007364D01*
X004036Y007398D01*
X004009Y007435D01*
X003985Y007474D01*
X003964Y007515D01*
X003947Y007558D01*
X003933Y007602D01*
X003924Y007647D01*
X003918Y007692D01*
X003916Y007738D01*
X004396Y007488D02*
X004380Y007500D01*
X004365Y007515D01*
X004354Y007532D01*
X004345Y007551D01*
X004340Y007571D01*
X004338Y007592D01*
X004340Y007613D01*
X004345Y007633D01*
X004354Y007652D01*
X004365Y007669D01*
X004380Y007684D01*
X004397Y007696D01*
X004415Y007705D01*
X004435Y007711D01*
X004456Y007714D01*
X004476Y007713D01*
X004497Y007708D01*
X004577Y007528D02*
X004562Y007511D01*
X004545Y007496D01*
X004526Y007485D01*
X004505Y007476D01*
X004483Y007471D01*
X004461Y007470D01*
X004439Y007473D01*
X004417Y007479D01*
X004397Y007488D01*
X004457Y007468D02*
X004457Y007388D01*
X005627Y007658D02*
X005627Y007818D01*
X005837Y007818D01*
X005837Y007658D01*
X005767Y007658D01*
X005767Y007388D01*
X005697Y007388D01*
X005697Y007658D01*
X005627Y007658D01*
X005717Y007718D02*
X005717Y007768D01*
X005717Y007718D02*
X005787Y007718D01*
X005787Y007788D01*
X005797Y007788D01*
X005216Y007738D02*
X005218Y007784D01*
X005224Y007829D01*
X005233Y007874D01*
X005247Y007918D01*
X005264Y007961D01*
X005285Y008002D01*
X005309Y008041D01*
X005336Y008078D01*
X005366Y008112D01*
X005400Y008144D01*
X005435Y008173D01*
X005473Y008199D01*
X005513Y008221D01*
X005555Y008240D01*
X005599Y008255D01*
X005643Y008267D01*
X005688Y008275D01*
X005734Y008279D01*
X005780Y008279D01*
X005826Y008275D01*
X005871Y008267D01*
X005915Y008255D01*
X005959Y008240D01*
X006001Y008221D01*
X006041Y008199D01*
X006079Y008173D01*
X006114Y008144D01*
X006148Y008112D01*
X006178Y008078D01*
X006205Y008041D01*
X006229Y008002D01*
X006250Y007961D01*
X006267Y007918D01*
X006281Y007874D01*
X006290Y007829D01*
X006296Y007784D01*
X006298Y007738D01*
X006296Y007692D01*
X006290Y007647D01*
X006281Y007602D01*
X006267Y007558D01*
X006250Y007515D01*
X006229Y007474D01*
X006205Y007435D01*
X006178Y007398D01*
X006148Y007364D01*
X006114Y007332D01*
X006079Y007303D01*
X006041Y007277D01*
X006001Y007255D01*
X005959Y007236D01*
X005915Y007221D01*
X005871Y007209D01*
X005826Y007201D01*
X005780Y007197D01*
X005734Y007197D01*
X005688Y007201D01*
X005643Y007209D01*
X005599Y007221D01*
X005555Y007236D01*
X005513Y007255D01*
X005473Y007277D01*
X005435Y007303D01*
X005400Y007332D01*
X005366Y007364D01*
X005336Y007398D01*
X005309Y007435D01*
X005285Y007474D01*
X005264Y007515D01*
X005247Y007558D01*
X005233Y007602D01*
X005224Y007647D01*
X005218Y007692D01*
X005216Y007738D01*
X005687Y008018D02*
X005689Y008031D01*
X005694Y008044D01*
X005703Y008055D01*
X005714Y008062D01*
X005727Y008067D01*
X005740Y008068D01*
X005754Y008065D01*
X005766Y008059D01*
X005776Y008050D01*
X005783Y008038D01*
X005787Y008025D01*
X005787Y008011D01*
X005783Y007998D01*
X005776Y007986D01*
X005766Y007977D01*
X005754Y007971D01*
X005740Y007968D01*
X005727Y007969D01*
X005714Y007974D01*
X005703Y007981D01*
X005694Y007992D01*
X005689Y008005D01*
X005687Y008018D01*
X006550Y007538D02*
X006552Y007591D01*
X006558Y007643D01*
X006568Y007695D01*
X006581Y007746D01*
X006599Y007796D01*
X006620Y007845D01*
X006645Y007892D01*
X006673Y007936D01*
X006704Y007979D01*
X006739Y008019D01*
X006776Y008056D01*
X006816Y008091D01*
X006859Y008122D01*
X006904Y008150D01*
X006950Y008175D01*
X006999Y008196D01*
X007049Y008214D01*
X007100Y008227D01*
X007152Y008237D01*
X007204Y008243D01*
X007257Y008245D01*
X007310Y008243D01*
X007362Y008237D01*
X007414Y008227D01*
X007465Y008214D01*
X007515Y008196D01*
X007564Y008175D01*
X007611Y008150D01*
X007655Y008122D01*
X007698Y008091D01*
X007738Y008056D01*
X007775Y008019D01*
X007810Y007979D01*
X007841Y007936D01*
X007869Y007891D01*
X007894Y007845D01*
X007915Y007796D01*
X007933Y007746D01*
X007946Y007695D01*
X007956Y007643D01*
X007962Y007591D01*
X007964Y007538D01*
X007962Y007485D01*
X007956Y007433D01*
X007946Y007381D01*
X007933Y007330D01*
X007915Y007280D01*
X007894Y007231D01*
X007869Y007184D01*
X007841Y007140D01*
X007810Y007097D01*
X007775Y007057D01*
X007738Y007020D01*
X007698Y006985D01*
X007655Y006954D01*
X007610Y006926D01*
X007564Y006901D01*
X007515Y006880D01*
X007465Y006862D01*
X007414Y006849D01*
X007362Y006839D01*
X007310Y006833D01*
X007257Y006831D01*
X007204Y006833D01*
X007152Y006839D01*
X007100Y006849D01*
X007049Y006862D01*
X006999Y006880D01*
X006950Y006901D01*
X006903Y006926D01*
X006859Y006954D01*
X006816Y006985D01*
X006776Y007020D01*
X006739Y007057D01*
X006704Y007097D01*
X006673Y007140D01*
X006645Y007185D01*
X006620Y007231D01*
X006599Y007280D01*
X006581Y007330D01*
X006568Y007381D01*
X006558Y007433D01*
X006552Y007485D01*
X006550Y007538D01*
D16*
X024154Y004244D02*
X024151Y004221D01*
X024151Y004066D01*
X024196Y004066D01*
X024196Y004239D01*
X024204Y004256D01*
X024214Y004271D01*
X024229Y004276D01*
X024239Y004281D01*
X024279Y004281D01*
X024296Y004266D01*
X024306Y004251D01*
X024309Y004246D01*
X024309Y004066D01*
X024354Y004066D01*
X024354Y004246D01*
X024366Y004264D01*
X024379Y004274D01*
X024399Y004284D01*
X024429Y004284D01*
X024446Y004276D01*
X024456Y004266D01*
X024464Y004254D01*
X024471Y004239D01*
X024471Y004064D01*
X024514Y004064D01*
X024514Y004236D01*
X024504Y004271D01*
X024489Y004296D01*
X024466Y004314D01*
X024434Y004326D01*
X024394Y004326D01*
X024374Y004319D01*
X024349Y004304D01*
X024339Y004294D01*
X024329Y004294D01*
X024316Y004301D01*
X024301Y004314D01*
X024284Y004324D01*
X024271Y004326D01*
X024236Y004326D01*
X024219Y004321D01*
X024199Y004311D01*
X024181Y004296D01*
X024169Y004281D01*
X024159Y004259D01*
X024154Y004244D01*
X024579Y004221D02*
X024586Y004249D01*
X024596Y004269D01*
X024634Y004306D01*
X024661Y004321D01*
X024689Y004326D01*
X024731Y004326D01*
X024759Y004316D01*
X024786Y004299D01*
X024809Y004276D01*
X024824Y004254D01*
X024834Y004216D01*
X024834Y004169D01*
X024829Y004151D01*
X024821Y004131D01*
X024811Y004114D01*
X024794Y004096D01*
X024774Y004079D01*
X024754Y004069D01*
X024729Y004061D01*
X024719Y004061D01*
X024716Y004061D02*
X024684Y004061D01*
X024661Y004066D01*
X024636Y004076D01*
X024614Y004096D01*
X024596Y004121D01*
X024584Y004139D01*
X024579Y004164D01*
X024579Y004221D01*
X024626Y004219D02*
X024634Y004239D01*
X024646Y004259D01*
X024661Y004274D01*
X024676Y004281D01*
X024684Y004284D01*
X024724Y004284D01*
X024741Y004279D01*
X024761Y004266D01*
X024771Y004254D01*
X024784Y004234D01*
X024789Y004219D01*
X024789Y004169D01*
X024779Y004146D01*
X024766Y004126D01*
X024749Y004111D01*
X024731Y004101D01*
X024691Y004101D01*
X024699Y004099D02*
X024679Y004104D01*
X024659Y004114D01*
X024646Y004126D01*
X024634Y004144D01*
X024629Y004156D01*
X024626Y004166D01*
X024626Y004219D01*
X024886Y004279D02*
X024886Y004321D01*
X024936Y004321D01*
X024959Y004319D01*
X024981Y004311D01*
X025006Y004296D01*
X025024Y004279D01*
X025036Y004264D01*
X025046Y004244D01*
X025054Y004224D01*
X025059Y004206D01*
X025059Y004176D01*
X025054Y004151D01*
X025041Y004126D01*
X025029Y004111D01*
X025014Y004096D01*
X024994Y004081D01*
X024976Y004074D01*
X024956Y004069D01*
X024929Y004064D01*
X024886Y004064D01*
X024886Y004106D01*
X024936Y004106D01*
X024954Y004111D01*
X024976Y004121D01*
X024994Y004139D01*
X025006Y004156D01*
X025011Y004169D01*
X025014Y004174D01*
X025014Y004214D01*
X025004Y004229D01*
X024991Y004251D01*
X024969Y004266D01*
X024954Y004274D01*
X024929Y004279D01*
X024886Y004279D01*
X024901Y004294D02*
X024956Y004291D01*
X025001Y004259D01*
X025026Y004224D01*
X025024Y004159D01*
X024994Y004116D01*
X024956Y004096D01*
X024901Y004091D01*
X024896Y004076D02*
X024964Y004081D01*
X025014Y004114D01*
X025041Y004161D01*
X025041Y004229D01*
X025004Y004279D01*
X024956Y004306D01*
X024901Y004309D01*
X024901Y004294D01*
X024931Y004064D02*
X024929Y004064D01*
X025136Y004079D02*
X025136Y004096D01*
X025141Y004106D01*
X025154Y004119D01*
X025176Y004119D01*
X025186Y004111D01*
X025194Y004101D01*
X025194Y004081D01*
X025191Y004074D01*
X025181Y004064D01*
X025171Y004061D01*
X025154Y004079D01*
X025151Y004096D01*
X025164Y004106D01*
X025176Y004096D01*
X025174Y004081D01*
X025166Y004089D01*
X025166Y004061D02*
X025156Y004061D01*
X025149Y004064D01*
X025139Y004071D01*
X025136Y004079D01*
X025281Y004066D02*
X025281Y004206D01*
X025286Y004231D01*
X025294Y004251D01*
X025309Y004279D01*
X025329Y004299D01*
X025359Y004316D01*
X025379Y004324D01*
X025394Y004326D01*
X025434Y004326D01*
X025459Y004319D01*
X025481Y004309D01*
X025504Y004289D01*
X025521Y004266D01*
X025531Y004244D01*
X025539Y004219D01*
X025539Y004169D01*
X025526Y004131D01*
X025506Y004101D01*
X025489Y004084D01*
X025466Y004074D01*
X025436Y004061D01*
X025394Y004061D01*
X025346Y004076D01*
X025341Y004079D01*
X025334Y004079D01*
X025324Y004066D01*
X025316Y004066D01*
X025311Y004066D02*
X025281Y004066D01*
X025294Y004074D02*
X025299Y004211D01*
X025321Y004271D01*
X025351Y004294D01*
X025396Y004309D01*
X025441Y004309D01*
X025481Y004291D01*
X025516Y004244D01*
X025524Y004211D01*
X025521Y004159D01*
X025481Y004096D01*
X025434Y004074D01*
X025391Y004079D01*
X025349Y004096D01*
X025329Y004089D01*
X025314Y004079D01*
X025314Y004089D01*
X025344Y004106D01*
X025309Y004096D01*
X025319Y004119D01*
X025309Y004119D01*
X025316Y004219D01*
X025344Y004276D01*
X025401Y004296D01*
X025459Y004289D01*
X025499Y004251D01*
X025509Y004176D01*
X025494Y004134D01*
X025464Y004099D01*
X025391Y004084D01*
X025386Y004099D02*
X025366Y004106D01*
X025349Y004119D01*
X025346Y004121D01*
X025339Y004114D01*
X025331Y004119D02*
X025329Y004121D01*
X025326Y004126D01*
X025329Y004221D01*
X025334Y004234D01*
X025344Y004254D01*
X025361Y004271D01*
X025381Y004281D01*
X025389Y004284D01*
X025431Y004284D01*
X025454Y004276D01*
X025471Y004264D01*
X025484Y004246D01*
X025494Y004229D01*
X025494Y004159D01*
X025484Y004144D01*
X025466Y004119D01*
X025446Y004104D01*
X025429Y004099D01*
X025386Y004099D01*
X025596Y004109D02*
X025596Y004151D01*
X025604Y004171D01*
X025621Y004186D01*
X025729Y004234D01*
X025739Y004244D01*
X025741Y004249D01*
X025741Y004266D01*
X025736Y004276D01*
X025734Y004279D01*
X025726Y004281D01*
X025609Y004281D01*
X025609Y004321D01*
X025721Y004321D01*
X025744Y004316D01*
X025759Y004309D01*
X025774Y004294D01*
X025784Y004279D01*
X025786Y004261D01*
X025786Y004246D01*
X025779Y004229D01*
X025766Y004211D01*
X025729Y004186D01*
X025651Y004154D01*
X025641Y004141D01*
X025636Y004129D01*
X025646Y004116D01*
X025659Y004106D01*
X025786Y004106D01*
X025786Y004066D01*
X025671Y004066D01*
X025631Y004074D01*
X025611Y004086D01*
X025596Y004109D01*
X025611Y004111D02*
X025641Y004081D01*
X025649Y004081D02*
X025659Y004091D01*
X025774Y004091D01*
X025779Y004089D01*
X025751Y004086D01*
X025776Y004079D02*
X025649Y004081D01*
X025649Y004096D02*
X025624Y004114D01*
X025629Y004134D01*
X025639Y004164D01*
X025744Y004211D01*
X025769Y004241D01*
X025764Y004289D01*
X025734Y004304D01*
X025621Y004306D01*
X025624Y004296D01*
X025734Y004294D01*
X025749Y004279D01*
X025759Y004249D01*
X025746Y004229D01*
X025641Y004184D01*
X025619Y004161D01*
X025611Y004111D01*
X025784Y004069D02*
X025786Y004066D01*
X025864Y004111D02*
X025881Y004091D01*
X025899Y004079D01*
X025919Y004069D01*
X025941Y004061D01*
X025991Y004061D01*
X026011Y004066D01*
X026036Y004076D01*
X026056Y004091D01*
X026074Y004111D01*
X026091Y004141D01*
X026099Y004166D01*
X026101Y004191D01*
X026096Y004221D01*
X026089Y004249D01*
X026064Y004286D01*
X026039Y004306D01*
X026011Y004321D01*
X025994Y004326D01*
X025946Y004326D01*
X025919Y004319D01*
X025896Y004306D01*
X025879Y004291D01*
X025861Y004271D01*
X025846Y004249D01*
X026016Y004154D01*
X026014Y004154D02*
X026034Y004184D01*
X025919Y004251D01*
X025921Y004264D01*
X025929Y004276D01*
X025941Y004284D01*
X025994Y004284D01*
X026016Y004271D01*
X026036Y004251D01*
X026044Y004239D01*
X026051Y004229D01*
X026054Y004199D01*
X026054Y004176D01*
X026044Y004151D01*
X026031Y004126D01*
X026011Y004114D01*
X025996Y004106D01*
X025989Y004101D01*
X025949Y004101D01*
X025934Y004109D01*
X025916Y004121D01*
X025901Y004136D01*
X025891Y004154D01*
X025884Y004184D01*
X025839Y004176D01*
X025849Y004144D01*
X025864Y004111D01*
X025881Y004111D02*
X025856Y004169D01*
X025874Y004166D02*
X025889Y004124D01*
X025936Y004094D01*
X025951Y004086D01*
X025994Y004086D01*
X026041Y004111D01*
X026069Y004174D01*
X026064Y004234D01*
X026044Y004269D01*
X026001Y004294D01*
X025949Y004296D01*
X025921Y004284D01*
X025909Y004266D01*
X025904Y004249D01*
X026016Y004184D01*
X026014Y004169D01*
X025866Y004254D01*
X025901Y004294D01*
X025889Y004254D01*
X025901Y004276D02*
X025941Y004314D01*
X025959Y004314D01*
X025996Y004314D02*
X026059Y004276D01*
X026076Y004234D01*
X026084Y004166D01*
X026054Y004104D01*
X025994Y004074D01*
X025939Y004074D01*
X025881Y004111D01*
X025909Y004299D02*
X025996Y004311D01*
X026149Y004324D02*
X026149Y004281D01*
X026219Y004281D01*
X026226Y004279D01*
X026226Y004141D01*
X026219Y004126D01*
X026211Y004119D01*
X026201Y004111D01*
X026186Y004104D01*
X026151Y004104D01*
X026151Y004064D01*
X026176Y004064D01*
X026181Y004064D02*
X026164Y004076D01*
X026201Y004084D01*
X026234Y004094D01*
X026249Y004121D01*
X026261Y004151D01*
X026261Y004376D01*
X026241Y004379D01*
X026244Y004149D01*
X026221Y004104D01*
X026161Y004086D01*
X026181Y004064D02*
X026201Y004069D01*
X026224Y004074D01*
X026246Y004086D01*
X026261Y004109D01*
X026274Y004144D01*
X026274Y004391D01*
X026226Y004391D01*
X026226Y004331D01*
X026229Y004324D01*
X026149Y004324D01*
X026161Y004309D02*
X026231Y004309D01*
X026234Y004294D02*
X026161Y004291D01*
X026161Y004309D01*
X026349Y004439D02*
X026349Y004066D01*
X026394Y004066D01*
X026394Y004069D02*
X026394Y004439D01*
X026349Y004439D01*
X026361Y004426D02*
X026361Y004076D01*
X026379Y004076D02*
X026381Y004426D01*
X026361Y004426D01*
X026471Y004399D02*
X026474Y004409D01*
X026484Y004419D01*
X026491Y004424D01*
X026506Y004424D01*
X026516Y004416D01*
X026524Y004404D01*
X026524Y004389D01*
X026519Y004379D01*
X026509Y004369D01*
X026499Y004369D01*
X026489Y004399D01*
X026499Y004409D01*
X026509Y004401D01*
X026506Y004384D01*
X026499Y004371D02*
X026491Y004369D01*
X026481Y004374D01*
X026476Y004381D01*
X026471Y004391D01*
X026471Y004399D01*
X026476Y004321D02*
X026521Y004321D01*
X026521Y004066D01*
X026476Y004066D01*
X026476Y004321D01*
X026494Y004309D02*
X026489Y004079D01*
X026504Y004079D01*
X026509Y004309D01*
X026609Y004254D02*
X026624Y004276D01*
X026644Y004299D01*
X026664Y004311D01*
X026691Y004324D01*
X026706Y004326D01*
X026749Y004326D01*
X026781Y004316D01*
X026804Y004304D01*
X026821Y004286D01*
X026836Y004266D01*
X026846Y004249D01*
X026854Y004216D01*
X026854Y004171D01*
X026849Y004151D01*
X026839Y004126D01*
X026824Y004104D01*
X026801Y004081D01*
X026751Y004061D01*
X026709Y004061D01*
X026661Y004076D01*
X026644Y004081D01*
X026644Y004036D01*
X026659Y004019D01*
X026679Y004001D01*
X026699Y003991D01*
X026719Y003986D01*
X026749Y003986D01*
X026799Y003999D01*
X026809Y003959D01*
X026746Y003941D01*
X026716Y003941D01*
X026681Y003946D01*
X026659Y003959D01*
X026634Y003976D01*
X026614Y004001D01*
X026604Y004026D01*
X026596Y004054D01*
X026596Y004211D01*
X026601Y004231D01*
X026609Y004254D01*
X026616Y004231D02*
X026651Y004286D01*
X026694Y004306D01*
X026739Y004311D01*
X026791Y004291D01*
X026834Y004241D01*
X026836Y004166D01*
X026824Y004134D01*
X026791Y004089D01*
X026724Y004069D01*
X026644Y004091D01*
X026644Y004114D01*
X026709Y004084D01*
X026766Y004091D01*
X026806Y004126D01*
X026821Y004179D01*
X026814Y004246D01*
X026784Y004281D01*
X026749Y004296D01*
X026696Y004291D01*
X026656Y004279D01*
X026631Y004231D01*
X026631Y004224D02*
X026629Y004029D01*
X026676Y003979D01*
X026734Y003971D01*
X026789Y003984D01*
X026801Y003974D02*
X026734Y003956D01*
X026674Y003964D01*
X026631Y004004D01*
X026614Y004041D01*
X026614Y004221D01*
X026631Y004224D01*
X026644Y004224D02*
X026644Y004131D01*
X026639Y004134D02*
X026666Y004116D01*
X026699Y004104D01*
X026706Y004101D01*
X026749Y004101D01*
X026771Y004111D01*
X026789Y004131D01*
X026806Y004164D01*
X026809Y004229D01*
X026806Y004226D02*
X026799Y004241D01*
X026786Y004256D01*
X026774Y004269D01*
X026756Y004281D01*
X026739Y004284D01*
X026701Y004284D01*
X026681Y004274D01*
X026661Y004259D01*
X026649Y004239D01*
X026644Y004224D01*
X025941Y005949D02*
X025881Y005949D01*
X025861Y006119D01*
X025831Y006329D01*
X025851Y006329D01*
X025901Y005959D01*
X025921Y005959D01*
X025871Y006329D01*
X025881Y006339D02*
X025761Y006339D01*
X025731Y006329D01*
X025691Y006289D01*
X025681Y006269D01*
X025681Y006199D01*
X025701Y006169D01*
X025721Y006149D01*
X025751Y006129D01*
X025781Y006119D01*
X025861Y006119D01*
X025841Y006129D02*
X025841Y006169D01*
X025771Y006169D01*
X025741Y006189D01*
X025731Y006229D01*
X025731Y006259D01*
X025751Y006289D01*
X025821Y006299D01*
X025821Y006319D01*
X025741Y006299D01*
X025711Y006259D01*
X025711Y006229D01*
X025731Y006169D01*
X025751Y006169D01*
X025751Y006159D01*
X025831Y006159D01*
X025831Y006139D01*
X025771Y006149D01*
X025761Y006139D02*
X025791Y006129D01*
X025841Y006129D01*
X025841Y006179D02*
X025771Y006179D01*
X025751Y006199D01*
X025741Y006219D01*
X025741Y006239D01*
X025751Y006269D01*
X025761Y006279D01*
X025831Y006279D01*
X025841Y006179D01*
X025761Y006139D02*
X025721Y006159D01*
X025701Y006199D01*
X025691Y006259D01*
X025711Y006289D01*
X025751Y006319D01*
X025821Y006329D01*
X025881Y006339D02*
X025941Y005949D01*
X025671Y005949D02*
X025611Y005949D01*
X025591Y006119D01*
X025561Y006329D01*
X025581Y006329D01*
X025631Y005959D01*
X025651Y005959D01*
X025601Y006329D01*
X025611Y006339D02*
X025491Y006339D01*
X025461Y006329D01*
X025421Y006289D01*
X025411Y006269D01*
X025411Y006199D01*
X025431Y006169D01*
X025451Y006149D01*
X025481Y006129D01*
X025511Y006119D01*
X025431Y005959D01*
X025451Y005959D01*
X025521Y006109D01*
X025541Y006109D01*
X025461Y005959D01*
X025471Y005959D01*
X025551Y006109D01*
X025571Y006119D02*
X025481Y005949D01*
X025411Y005949D01*
X025501Y006119D01*
X025511Y006119D01*
X025571Y006119D01*
X025591Y006119D01*
X025571Y006129D02*
X025571Y006169D01*
X025501Y006169D01*
X025471Y006189D01*
X025461Y006229D01*
X025461Y006259D01*
X025481Y006289D01*
X025551Y006299D01*
X025551Y006319D01*
X025471Y006299D01*
X025441Y006259D01*
X025441Y006229D01*
X025461Y006169D01*
X025481Y006169D01*
X025481Y006159D01*
X025561Y006159D01*
X025561Y006139D01*
X025501Y006149D01*
X025491Y006139D02*
X025521Y006129D01*
X025571Y006129D01*
X025571Y006179D02*
X025501Y006179D01*
X025481Y006199D01*
X025471Y006219D01*
X025471Y006239D01*
X025481Y006269D01*
X025491Y006279D01*
X025561Y006279D01*
X025571Y006179D01*
X025491Y006139D02*
X025451Y006159D01*
X025431Y006199D01*
X025421Y006259D01*
X025441Y006289D01*
X025481Y006319D01*
X025551Y006329D01*
X025611Y006339D02*
X025671Y005949D01*
X025381Y006049D02*
X025361Y005999D01*
X025331Y005969D01*
X025291Y005949D01*
X025251Y005939D01*
X025221Y005939D01*
X025191Y005949D01*
X025171Y005959D01*
X025141Y005979D01*
X025111Y006019D01*
X025091Y006049D01*
X025061Y006139D01*
X025061Y006239D01*
X025071Y006279D01*
X025091Y006309D01*
X025121Y006329D01*
X025161Y006349D01*
X025211Y006349D01*
X025251Y006339D01*
X025281Y006319D01*
X025321Y006279D01*
X025351Y006229D01*
X025371Y006159D01*
X025381Y006119D01*
X025381Y006049D01*
X025321Y006039D02*
X025321Y006139D01*
X025311Y006169D01*
X025291Y006219D01*
X025271Y006249D01*
X025241Y006279D01*
X025211Y006289D01*
X025151Y006289D01*
X025131Y006269D01*
X025111Y006239D01*
X025111Y006179D01*
X025121Y006139D01*
X025141Y006079D01*
X025171Y006039D01*
X025201Y006009D01*
X025231Y005999D01*
X025281Y005999D01*
X025321Y006039D01*
X025881Y006489D02*
X025971Y006659D01*
X025981Y006659D01*
X025901Y006499D01*
X025921Y006499D01*
X025991Y006649D01*
X026011Y006649D01*
X025931Y006499D01*
X025941Y006499D01*
X026021Y006649D01*
X026041Y006659D02*
X025981Y006659D01*
X025951Y006669D01*
X025921Y006689D01*
X025901Y006709D01*
X025881Y006739D01*
X025881Y006809D01*
X025891Y006829D01*
X025931Y006869D01*
X025961Y006879D01*
X026081Y006879D01*
X026141Y006489D01*
X026081Y006489D01*
X026061Y006659D01*
X026031Y006869D01*
X026051Y006869D01*
X026101Y006499D01*
X026121Y006499D01*
X026071Y006869D01*
X026021Y006869D02*
X025951Y006859D01*
X025911Y006829D01*
X025891Y006799D01*
X025901Y006739D01*
X025921Y006699D01*
X025961Y006679D01*
X025991Y006669D01*
X026041Y006669D01*
X026041Y006709D01*
X025971Y006709D01*
X025941Y006729D01*
X025931Y006769D01*
X025931Y006799D01*
X025951Y006829D01*
X026021Y006839D01*
X026021Y006859D01*
X025941Y006839D01*
X025911Y006799D01*
X025911Y006769D01*
X025931Y006709D01*
X025951Y006709D01*
X025951Y006699D01*
X026031Y006699D01*
X026031Y006679D01*
X025971Y006689D01*
X025971Y006719D02*
X025951Y006739D01*
X025941Y006759D01*
X025941Y006779D01*
X025951Y006809D01*
X025961Y006819D01*
X026031Y006819D01*
X026041Y006719D01*
X025971Y006719D01*
X026041Y006659D02*
X025951Y006489D01*
X025881Y006489D01*
X026041Y006659D02*
X026061Y006659D01*
D17*
X026251Y006609D02*
X026371Y006619D01*
X026271Y006639D01*
X026271Y006649D01*
X026371Y006649D01*
X026361Y006629D02*
X026301Y006779D01*
X026291Y006799D02*
X026251Y006599D01*
X026261Y006599D02*
X026371Y006599D01*
X026431Y006489D01*
X026481Y006489D01*
X026301Y006879D01*
X026261Y006879D01*
X026191Y006499D01*
X026241Y006499D01*
X026261Y006599D01*
X026261Y006619D02*
X026281Y006739D01*
X026271Y006749D02*
X026311Y006749D01*
X026281Y006859D02*
X026221Y006509D01*
X026451Y006499D02*
X026281Y006859D01*
X026481Y006879D02*
X026541Y006499D01*
X026591Y006499D01*
X026531Y006879D01*
X026511Y006869D01*
X026561Y006519D01*
X026581Y006669D02*
X026741Y006669D01*
X026741Y006699D02*
X026571Y006699D01*
X026571Y006719D02*
X026731Y006719D01*
X026751Y006869D02*
X026791Y006499D01*
X026821Y006489D01*
X026771Y006489D01*
X026721Y006879D01*
X026771Y006879D01*
X026821Y006489D01*
X026881Y006509D02*
X026881Y006559D01*
X026961Y006539D01*
X027011Y006539D01*
X027051Y006549D01*
X027081Y006569D01*
X027111Y006619D01*
X027111Y006679D01*
X027091Y006749D01*
X027051Y006799D01*
X026981Y006829D01*
X026901Y006839D01*
X026841Y006839D01*
X026841Y006879D01*
X026901Y006889D01*
X027001Y006869D01*
X027061Y006839D01*
X027111Y006799D01*
X027151Y006719D01*
X027151Y006599D01*
X027111Y006539D01*
X027071Y006509D01*
X027031Y006499D01*
X026961Y006499D01*
X026881Y006509D01*
X026891Y006539D02*
X026921Y006529D01*
X027001Y006519D01*
X027071Y006529D01*
X027111Y006569D01*
X027131Y006619D01*
X027131Y006709D01*
X027081Y006799D01*
X026991Y006849D01*
X026901Y006859D01*
X026861Y006859D01*
X026531Y006879D02*
X026481Y006879D01*
X026381Y007129D02*
X026421Y007159D01*
X026461Y007219D01*
X026461Y007339D01*
X026421Y007419D01*
X026371Y007459D01*
X026311Y007489D01*
X026211Y007509D01*
X026151Y007499D01*
X026151Y007459D01*
X026211Y007459D01*
X026291Y007449D01*
X026361Y007419D01*
X026401Y007369D01*
X026421Y007299D01*
X026421Y007239D01*
X026391Y007189D01*
X026361Y007169D01*
X026321Y007159D01*
X026291Y007159D01*
X026241Y007179D01*
X026231Y007249D01*
X026291Y007249D01*
X026281Y007299D01*
X026261Y007269D01*
X026211Y007279D01*
X026211Y007259D01*
X026221Y007209D01*
X026211Y007199D01*
X026191Y007189D02*
X026181Y007299D01*
X026281Y007299D01*
X026251Y007169D02*
X026191Y007189D01*
X026191Y007179D02*
X026201Y007159D01*
X026231Y007149D01*
X026311Y007139D01*
X026381Y007149D01*
X026421Y007189D01*
X026441Y007239D01*
X026441Y007329D01*
X026391Y007419D01*
X026301Y007469D01*
X026211Y007479D01*
X026171Y007479D01*
X026081Y007509D02*
X026141Y007119D01*
X025991Y007119D01*
X025951Y007139D01*
X025921Y007169D01*
X025901Y007209D01*
X025901Y007259D01*
X025941Y007339D01*
X025921Y007369D01*
X025911Y007409D01*
X025921Y007459D01*
X025961Y007499D01*
X025991Y007509D01*
X026071Y007509D01*
X026061Y007489D02*
X026121Y007139D01*
X026101Y007139D02*
X026061Y007489D01*
X026041Y007499D02*
X026081Y007139D01*
X026101Y007139D01*
X026091Y007169D02*
X025981Y007169D01*
X025951Y007199D01*
X025941Y007229D01*
X025951Y007269D01*
X025981Y007299D01*
X026011Y007309D01*
X026041Y007309D01*
X026031Y007329D02*
X025961Y007319D01*
X025941Y007299D01*
X025941Y007289D01*
X025931Y007269D01*
X025911Y007259D01*
X025921Y007249D01*
X025921Y007199D01*
X025931Y007179D01*
X025941Y007169D01*
X025971Y007149D01*
X025991Y007139D01*
X026051Y007139D01*
X026061Y007149D01*
X026191Y007179D02*
X026271Y007159D01*
X026291Y007159D01*
X026271Y007119D02*
X026341Y007119D01*
X026381Y007129D01*
X026271Y007119D02*
X026201Y007159D01*
X026031Y007329D02*
X026011Y007329D01*
X025961Y007349D01*
X025971Y007329D01*
X025951Y007349D01*
X025951Y007369D01*
X025941Y007399D01*
X025931Y007419D01*
X025941Y007439D01*
X025941Y007459D01*
X026021Y007499D01*
X026021Y007469D01*
X025981Y007459D01*
X025961Y007429D01*
X025961Y007399D01*
X025971Y007369D01*
X026001Y007349D01*
X026041Y007349D01*
X025841Y007339D02*
X025841Y007219D01*
X025801Y007159D01*
X025761Y007129D01*
X025721Y007119D01*
X025651Y007119D01*
X025571Y007129D01*
X025571Y007179D01*
X025651Y007159D01*
X025701Y007159D01*
X025741Y007169D01*
X025771Y007189D01*
X025801Y007239D01*
X025801Y007299D01*
X025781Y007369D01*
X025741Y007419D01*
X025671Y007449D01*
X025591Y007459D01*
X025531Y007459D01*
X025531Y007499D01*
X025591Y007509D01*
X025691Y007489D01*
X025751Y007459D01*
X025801Y007419D01*
X025841Y007339D01*
X025821Y007329D02*
X025771Y007419D01*
X025681Y007469D01*
X025591Y007479D01*
X025551Y007479D01*
X025321Y007509D02*
X025271Y007509D01*
X025311Y007219D01*
X025301Y007189D01*
X025281Y007169D01*
X025241Y007159D01*
X025191Y007169D01*
X025161Y007199D01*
X025111Y007509D01*
X025061Y007509D01*
X025101Y007209D01*
X025121Y007169D01*
X025151Y007139D01*
X025191Y007119D01*
X025251Y007119D01*
X025301Y007129D01*
X025331Y007149D01*
X025351Y007189D01*
X025361Y007229D01*
X025321Y007509D01*
X025291Y007499D02*
X025341Y007229D01*
X025321Y007189D01*
X025321Y007169D01*
X025301Y007149D01*
X025251Y007139D01*
X025221Y007139D01*
X025191Y007149D01*
X025171Y007149D01*
X025151Y007169D01*
X025131Y007199D01*
X025101Y007489D01*
X025081Y007499D01*
X025111Y007269D01*
X025041Y007189D02*
X025001Y007149D01*
X025021Y007149D01*
X024951Y007139D01*
X024921Y007139D01*
X024891Y007159D01*
X024871Y007179D01*
X024841Y007199D01*
X024831Y007219D01*
X024831Y007279D01*
X024951Y007339D01*
X024851Y007299D01*
X024971Y007369D01*
X024981Y007419D01*
X024971Y007439D01*
X024941Y007469D01*
X024921Y007479D01*
X024861Y007479D01*
X024841Y007489D01*
X024841Y007479D01*
X024821Y007509D02*
X024821Y007449D01*
X024911Y007459D01*
X024941Y007439D01*
X024961Y007419D01*
X024951Y007389D01*
X024941Y007369D01*
X024861Y007329D01*
X024831Y007309D01*
X024811Y007249D01*
X024811Y007219D01*
X024831Y007179D01*
X024861Y007149D01*
X024891Y007129D01*
X024911Y007119D01*
X024981Y007119D01*
X025041Y007139D01*
X025041Y007189D01*
X024981Y007169D01*
X024911Y007169D01*
X024881Y007189D01*
X024861Y007219D01*
X024861Y007269D01*
X024881Y007289D01*
X024921Y007309D01*
X024971Y007329D01*
X025001Y007379D01*
X025001Y007429D01*
X024981Y007469D01*
X024941Y007499D01*
X024901Y007509D01*
X024821Y007509D01*
X024711Y007509D02*
X024771Y007119D01*
X024621Y007119D01*
X024581Y007139D01*
X024551Y007169D01*
X024531Y007209D01*
X024531Y007259D01*
X024571Y007339D01*
X024551Y007369D01*
X024541Y007409D01*
X024551Y007459D01*
X024591Y007499D01*
X024621Y007509D01*
X024701Y007509D01*
X024691Y007489D02*
X024751Y007139D01*
X024731Y007139D02*
X024691Y007489D01*
X024671Y007499D02*
X024711Y007139D01*
X024731Y007139D01*
X024721Y007169D02*
X024611Y007169D01*
X024581Y007199D01*
X024571Y007229D01*
X024581Y007269D01*
X024611Y007299D01*
X024641Y007309D01*
X024671Y007309D01*
X024661Y007329D02*
X024591Y007319D01*
X024571Y007299D01*
X024571Y007289D01*
X024561Y007269D01*
X024541Y007259D01*
X024551Y007249D01*
X024551Y007199D01*
X024561Y007179D01*
X024571Y007169D01*
X024601Y007149D01*
X024621Y007139D01*
X024681Y007139D01*
X024691Y007149D01*
X024661Y007329D02*
X024641Y007329D01*
X024591Y007349D01*
X024601Y007329D01*
X024581Y007349D01*
X024581Y007369D01*
X024571Y007399D01*
X024561Y007419D01*
X024571Y007439D01*
X024571Y007459D01*
X024651Y007499D01*
X024651Y007469D01*
X024611Y007459D01*
X024591Y007429D01*
X024591Y007399D01*
X024601Y007369D01*
X024631Y007349D01*
X024671Y007349D01*
X024771Y006889D02*
X024711Y006879D01*
X024711Y006839D01*
X024771Y006839D01*
X024851Y006829D01*
X024921Y006799D01*
X024961Y006749D01*
X024981Y006679D01*
X024981Y006619D01*
X024951Y006569D01*
X024921Y006549D01*
X024881Y006539D01*
X024851Y006539D01*
X024801Y006559D01*
X024791Y006629D01*
X024851Y006629D01*
X024841Y006679D01*
X024821Y006649D01*
X024771Y006659D01*
X024771Y006639D01*
X024781Y006589D01*
X024771Y006579D01*
X024751Y006569D02*
X024741Y006679D01*
X024841Y006679D01*
X024811Y006549D02*
X024751Y006569D01*
X024751Y006559D02*
X024761Y006539D01*
X024791Y006529D01*
X024871Y006519D01*
X024941Y006529D01*
X024981Y006569D01*
X025001Y006619D01*
X025001Y006709D01*
X024951Y006799D01*
X024861Y006849D01*
X024771Y006859D01*
X024731Y006859D01*
X024771Y006889D02*
X024871Y006869D01*
X024931Y006839D01*
X024981Y006799D01*
X025021Y006719D01*
X025021Y006599D01*
X024981Y006539D01*
X024941Y006509D01*
X024901Y006499D01*
X024831Y006499D01*
X024761Y006539D01*
X024751Y006559D02*
X024831Y006539D01*
X024851Y006539D01*
X025111Y006499D02*
X025061Y006879D01*
X025111Y006879D01*
X025151Y006589D01*
X025291Y006879D01*
X025341Y006879D01*
X025391Y006499D01*
X025351Y006499D01*
X025311Y006779D01*
X025281Y006749D01*
X025161Y006499D01*
X025111Y006499D01*
X025121Y006519D02*
X025161Y006579D01*
X025141Y006519D02*
X025091Y006859D01*
X025281Y006819D02*
X025141Y006519D01*
X025121Y006519D02*
X025101Y006649D01*
X025261Y006759D02*
X025311Y006819D01*
X025321Y006799D01*
X025311Y006809D01*
X025321Y006839D01*
X025281Y006819D01*
X025311Y006819D02*
X025291Y006859D01*
X025331Y006859D01*
X025371Y006519D01*
X025461Y006499D02*
X025511Y006499D01*
X025461Y006879D01*
X025441Y006879D01*
X025481Y006509D01*
X025461Y006499D02*
X025411Y006879D01*
X025441Y006879D01*
X025431Y006869D02*
X025461Y006879D01*
X025521Y006879D02*
X025521Y006839D01*
X025581Y006839D01*
X025661Y006829D01*
X025731Y006799D01*
X025771Y006749D01*
X025791Y006679D01*
X025791Y006619D01*
X025761Y006569D01*
X025731Y006549D01*
X025691Y006539D01*
X025661Y006539D01*
X025611Y006559D01*
X025601Y006629D01*
X025661Y006629D01*
X025651Y006679D01*
X025631Y006649D01*
X025581Y006659D01*
X025581Y006639D01*
X025591Y006589D01*
X025581Y006579D01*
X025561Y006569D02*
X025551Y006679D01*
X025651Y006679D01*
X025621Y006549D02*
X025561Y006569D01*
X025561Y006559D02*
X025571Y006539D01*
X025601Y006529D01*
X025681Y006519D01*
X025751Y006529D01*
X025791Y006569D01*
X025811Y006619D01*
X025811Y006709D01*
X025761Y006799D01*
X025671Y006849D01*
X025581Y006859D01*
X025541Y006859D01*
X025521Y006879D02*
X025581Y006889D01*
X025681Y006869D01*
X025741Y006839D01*
X025791Y006799D01*
X025831Y006719D01*
X025831Y006599D01*
X025791Y006539D01*
X025751Y006509D01*
X025711Y006499D01*
X025641Y006499D01*
X025571Y006539D01*
X025561Y006559D02*
X025641Y006539D01*
X025661Y006539D01*
X025691Y007139D02*
X025611Y007149D01*
X025581Y007159D01*
X025691Y007139D02*
X025761Y007149D01*
X025801Y007189D01*
X025821Y007239D01*
X025821Y007329D01*
X025321Y007239D02*
X025321Y007189D01*
X024491Y006879D02*
X024441Y006879D01*
X024501Y006489D01*
X024541Y006489D01*
X024491Y006879D01*
X024461Y006869D02*
X024471Y006839D01*
X024511Y006509D01*
X024361Y006499D02*
X024331Y006499D01*
X024441Y006699D01*
X024311Y006859D01*
X024331Y006879D02*
X024471Y006699D01*
X024441Y006649D01*
X024361Y006499D01*
X024361Y006489D02*
X024301Y006489D01*
X024411Y006689D01*
X024271Y006879D01*
X024331Y006879D01*
X024191Y006879D02*
X024251Y006499D01*
X024201Y006499D01*
X024141Y006879D01*
X024161Y006879D01*
X024221Y006519D01*
X024041Y006499D02*
X023991Y006499D01*
X023941Y006829D01*
X023961Y006829D01*
X024011Y006519D01*
X024041Y006499D02*
X023991Y006819D01*
X024061Y006859D02*
X023861Y006859D01*
X023851Y006839D02*
X023841Y006879D01*
X024081Y006879D01*
X024091Y006839D01*
X023851Y006839D01*
X024061Y006869D02*
X024081Y006879D01*
X024161Y006879D02*
X024181Y006879D01*
D18*
X024421Y004306D02*
X024369Y004291D01*
X024336Y004266D01*
X024331Y004079D01*
X024171Y004086D02*
X024174Y004241D01*
X024201Y004286D01*
X024251Y004301D01*
X024289Y004299D01*
X024321Y004271D01*
X024421Y004306D02*
X024459Y004291D01*
X024494Y004236D01*
X024491Y004086D01*
D19*
X011906Y004619D03*
X011246Y003959D03*
X010916Y003959D03*
X010916Y004289D03*
X010586Y004289D03*
X010916Y004619D03*
X010916Y004949D03*
X010586Y005279D03*
X010586Y005609D03*
X010916Y005609D03*
X010916Y005939D03*
X010636Y007149D03*
X010636Y007479D03*
X010636Y007809D03*
X010966Y007479D03*
X011246Y003629D03*
X010586Y003629D03*
M02*
