solid Pipe_light_v5
facet normal 0.773010453362737 -0.6343932841636456 -7.828412009373226e-18
  outer loop
    vertex 3.6000000000000005 0.8121678668817187 1.4099832412739487e-15
    vertex 3.4142135623731007 0.5857864376269105 0.85
    vertex 3.4142135623731007 0.5857864376269105 0.0
  endloop
endfacet
facet normal 0.773010453362737 -0.6343932841636456 -7.828412009373226e-18
  outer loop
    vertex 3.4142135623731007 0.5857864376269105 0.85
    vertex 3.6000000000000005 0.8121678668817187 1.4099832412739487e-15
    vertex 3.6000000000000005 0.8121678668817187 0.85
  endloop
endfacet
facet normal 0.6343932841636502 -0.7730104533627332 0.0
  outer loop
    vertex 3.4142135623731007 0.5857864376269105 0.85
    vertex 3.111140466039211 0.33706077539491297 0.0
    vertex 3.4142135623731007 0.5857864376269105 0.0
  endloop
endfacet
facet normal 0.6343932841636502 -0.7730104533627332 0.0
  outer loop
    vertex 3.111140466039211 0.33706077539491297 0.0
    vertex 3.4142135623731007 0.5857864376269105 0.85
    vertex 3.111140466039211 0.33706077539491297 0.85
  endloop
endfacet
facet normal 0.4713967368259983 -0.8819212643483548 0.0
  outer loop
    vertex 3.111140466039211 0.33706077539491297 0.85
    vertex 2.765366864730185 0.15224093497742883 0.0
    vertex 3.111140466039211 0.33706077539491297 0.0
  endloop
endfacet
facet normal 0.4713967368259983 -0.8819212643483548 0.0
  outer loop
    vertex 2.765366864730185 0.15224093497742883 0.0
    vertex 3.111140466039211 0.33706077539491297 0.85
    vertex 2.765366864730185 0.15224093497742883 0.85
  endloop
endfacet
facet normal 6.170604994634334e-17 -1.9573769297779398e-32 -1.0
  outer loop
    vertex 0.03842943919353818 2.390180644032257 0.0
    vertex 0.03842943919353959 1.6098193559677423 0.0
    vertex 0.0 1.9999999999999991 0.0
  endloop
endfacet
facet normal 6.170604994634334e-17 -1.9573769297779398e-32 -1.0
  outer loop
    vertex 0.03842943919353959 1.6098193559677423 0.0
    vertex 0.03842943919353818 2.390180644032257 0.0
    vertex 0.1522409349774262 2.7653668647301797 0.0
  endloop
endfacet
facet normal 6.170604994634334e-17 -1.9573769297779398e-32 -1.0
  outer loop
    vertex 0.03842943919353959 1.6098193559677423 0.0
    vertex 0.1522409349774262 2.7653668647301797 0.0
    vertex 0.1522409349774276 1.2346331352698188 0.0
  endloop
endfacet
facet normal 6.170604994634334e-17 -1.9573769297779398e-32 -1.0
  outer loop
    vertex 0.1522409349774276 1.2346331352698188 0.0
    vertex 0.1522409349774262 2.7653668647301797 0.0
    vertex 0.33706077539491036 3.111140466039206 0.0
  endloop
endfacet
facet normal 6.170604994634334e-17 -1.9573769297779398e-32 -1.0
  outer loop
    vertex 0.1522409349774276 1.2346331352698188 0.0
    vertex 0.33706077539491036 3.111140466039206 0.0
    vertex 0.3370607753949118 0.8888595339607925 0.0
  endloop
endfacet
facet normal 6.170604994634334e-17 -1.9573769297779398e-32 -1.0
  outer loop
    vertex 0.3370607753949118 0.8888595339607925 0.0
    vertex 0.33706077539491036 3.111140466039206 0.0
    vertex 0.5857864376269049 3.4142135623730963 0.0
  endloop
endfacet
facet normal 6.170604994634334e-17 -1.9573769297779398e-32 -1.0
  outer loop
    vertex 0.3370607753949118 0.8888595339607925 0.0
    vertex 0.5857864376269049 3.4142135623730963 0.0
    vertex 0.5857864376269077 0.5857864376269035 0.0
  endloop
endfacet
facet normal 6.170604994634334e-17 -1.9573769297779398e-32 -1.0
  outer loop
    vertex 0.5857864376269077 0.5857864376269035 0.0
    vertex 0.5857864376269049 3.4142135623730963 0.0
    vertex 0.8888595339607958 3.662939224605091 0.0
  endloop
endfacet
facet normal 6.170604994634334e-17 -1.9573769297779398e-32 -1.0
  outer loop
    vertex 0.5857864376269077 0.5857864376269035 0.0
    vertex 0.8888595339607958 3.662939224605091 0.0
    vertex 0.8888595339607985 0.3370607753949073 0.0
  endloop
endfacet
facet normal 6.170604994634334e-17 -1.9573769297779398e-32 -1.0
  outer loop
    vertex 0.8888595339607985 0.3370607753949073 0.0
    vertex 0.8888595339607958 3.662939224605091 0.0
    vertex 1.2346331352698205 3.8477590650225766 0.0
  endloop
endfacet
facet normal 6.170604994634334e-17 -1.9573769297779398e-32 -1.0
  outer loop
    vertex 0.8888595339607985 0.3370607753949073 0.0
    vertex 1.2346331352698205 3.8477590650225766 0.0
    vertex 1.2346331352698245 0.15224093497742458 0.0
  endloop
endfacet
facet normal 6.170604994634334e-17 -1.9573769297779398e-32 -1.0
  outer loop
    vertex 1.2346331352698245 0.15224093497742458 0.0
    vertex 1.2346331352698205 3.8477590650225766 0.0
    vertex 1.6098193559677434 3.961570560806463 0.0
  endloop
endfacet
facet normal 6.170604994634334e-17 -1.9573769297779398e-32 -1.0
  outer loop
    vertex 1.2346331352698245 0.15224093497742458 0.0
    vertex 1.6098193559677434 3.961570560806463 0.0
    vertex 1.6098193559677476 0.038429439193538195 0.0
  endloop
endfacet
facet normal 6.170604994634334e-17 -1.9573769297779398e-32 -1.0
  outer loop
    vertex 1.6098193559677476 0.038429439193538195 0.0
    vertex 1.6098193559677434 3.961570560806463 0.0
    vertex 2.0000000000000004 4.000000000000001 0.0
  endloop
endfacet
facet normal 6.170604994634334e-17 -1.9573769297779398e-32 -1.0
  outer loop
    vertex 1.6098193559677476 0.038429439193538195 0.0
    vertex 2.0000000000000004 4.000000000000001 0.0
    vertex 2.000000000000006 0.0 0.0
  endloop
endfacet
facet normal 6.170604994634334e-17 -1.9573769297779398e-32 -1.0
  outer loop
    vertex 2.000000000000006 0.0 0.0
    vertex 2.0000000000000004 4.000000000000001 0.0
    vertex 2.3901806440322573 3.961570560806463 0.0
  endloop
endfacet
facet normal 6.170604994634334e-17 -1.9573769297779398e-32 -1.0
  outer loop
    vertex 2.000000000000006 0.0 0.0
    vertex 2.3901806440322573 3.961570560806463 0.0
    vertex 2.390180644032263 0.03842943919354101 0.0
  endloop
endfacet
facet normal 6.170604994634334e-17 -1.9573769297779398e-32 -1.0
  outer loop
    vertex 2.390180644032263 0.03842943919354101 0.0
    vertex 2.3901806440322573 3.961570560806463 0.0
    vertex 2.765366864730181 3.8477590650225766 0.0
  endloop
endfacet
facet normal 6.170604994634334e-17 -1.9573769297779398e-32 -1.0
  outer loop
    vertex 2.390180644032263 0.03842943919354101 0.0
    vertex 2.765366864730181 3.8477590650225766 0.0
    vertex 2.765366864730185 0.15224093497742883 0.0
  endloop
endfacet
facet normal 6.170604994634334e-17 -1.9573769297779398e-32 -1.0
  outer loop
    vertex 2.765366864730185 0.15224093497742883 0.0
    vertex 2.765366864730181 3.8477590650225766 0.0
    vertex 3.1111404660392052 3.662939224605091 0.0
  endloop
endfacet
facet normal 6.170604994634334e-17 -1.9573769297779398e-32 -1.0
  outer loop
    vertex 2.765366864730185 0.15224093497742883 0.0
    vertex 3.1111404660392052 3.662939224605091 0.0
    vertex 3.111140466039211 0.33706077539491297 0.0
  endloop
endfacet
facet normal 6.170604994634334e-17 -1.9573769297779398e-32 -1.0
  outer loop
    vertex 3.111140466039211 0.33706077539491297 0.0
    vertex 3.1111404660392052 3.662939224605091 0.0
    vertex 3.4142135623730963 3.4142135623730963 0.0
  endloop
endfacet
facet normal 6.170604994634334e-17 -1.9573769297779398e-32 -1.0
  outer loop
    vertex 3.111140466039211 0.33706077539491297 0.0
    vertex 3.4142135623730963 3.4142135623730963 0.0
    vertex 3.4142135623731007 0.5857864376269105 0.0
  endloop
endfacet
facet normal 6.170604994634334e-17 -1.9573769297779398e-32 -1.0
  outer loop
    vertex 3.4142135623731007 0.5857864376269105 0.0
    vertex 3.4142135623730963 3.4142135623730963 0.0
    vertex 3.6000000000000005 3.1878321331182833 1.4099832412739487e-15
  endloop
endfacet
facet normal 6.170604994634334e-17 -1.9573769297779398e-32 -1.0
  outer loop
    vertex 3.4142135623731007 0.5857864376269105 0.0
    vertex 3.6000000000000005 3.1878321331182833 1.4099832412739487e-15
    vertex 3.6000000000000005 0.8121678668817187 1.4099832412739487e-15
  endloop
endfacet
facet normal 0.4713967368260004 -0.8819212643483536 0.0
  outer loop
    vertex 2.8889123728313684 0.6696486203159312 3.85
    vertex 2.612293491784148 0.5217927479819433 0.85
    vertex 2.8889123728313684 0.6696486203159312 0.85
  endloop
endfacet
facet normal 0.4713967368260004 -0.8819212643483536 0.0
  outer loop
    vertex 2.612293491784148 0.5217927479819433 0.85
    vertex 2.8889123728313684 0.6696486203159312 3.85
    vertex 2.612293491784148 0.5217927479819433 3.85
  endloop
endfacet
facet normal 0.95694033573221 -0.2902846772544588 0.0
  outer loop
    vertex 3.5692564486451714 1.6878554847742016 0.85
    vertex 3.478207252018062 1.3877065082158622 3.85
    vertex 3.478207252018062 1.3877065082158622 0.85
  endloop
endfacet
facet normal 0.95694033573221 -0.2902846772544588 0.0
  outer loop
    vertex 3.478207252018062 1.3877065082158622 3.85
    vertex 3.5692564486451714 1.6878554847742016 0.85
    vertex 3.5692564486451714 1.6878554847742016 3.85
  endloop
endfacet
facet normal 0.8819212643483569 -0.4713967368259942 0.0
  outer loop
    vertex 3.478207252018062 1.3877065082158622 0.85
    vertex 3.330351379684077 1.1110876271686414 3.85
    vertex 3.330351379684077 1.1110876271686414 0.85
  endloop
endfacet
facet normal 0.8819212643483569 -0.4713967368259942 0.0
  outer loop
    vertex 3.330351379684077 1.1110876271686414 3.85
    vertex 3.478207252018062 1.3877065082158622 0.85
    vertex 3.478207252018062 1.3877065082158622 3.85
  endloop
endfacet
facet normal 0.7730104533627391 -0.634393284163643 0.0
  outer loop
    vertex 3.330351379684077 1.1110876271686414 0.85
    vertex 3.131370849898481 0.8686291501015277 3.85
    vertex 3.131370849898481 0.8686291501015277 0.85
  endloop
endfacet
facet normal 0.7730104533627391 -0.634393284163643 0.0
  outer loop
    vertex 3.131370849898481 0.8686291501015277 3.85
    vertex 3.330351379684077 1.1110876271686414 0.85
    vertex 3.330351379684077 1.1110876271686414 3.85
  endloop
endfacet
facet normal 0.6343932841636475 -0.7730104533627353 0.0
  outer loop
    vertex 3.131370849898481 0.8686291501015277 3.85
    vertex 2.8889123728313684 0.6696486203159312 0.85
    vertex 3.131370849898481 0.8686291501015277 0.85
  endloop
endfacet
facet normal 0.6343932841636475 -0.7730104533627353 0.0
  outer loop
    vertex 2.8889123728313684 0.6696486203159312 0.85
    vertex 3.131370849898481 0.8686291501015277 3.85
    vertex 2.8889123728313684 0.6696486203159312 3.85
  endloop
endfacet
facet normal 0.9951847266721974 -0.09801714032955533 -1.441605101089952e-32
  outer loop
    vertex 3.6000000000000005 2.0000000000000004 0.85
    vertex 3.5692564486451714 1.6878554847742016 3.85
    vertex 3.5692564486451714 1.6878554847742016 0.85
  endloop
endfacet
facet normal 0.9951847266721974 -0.09801714032955533 -1.441605101089952e-32
  outer loop
    vertex 3.5692564486451714 1.6878554847742016 3.85
    vertex 3.6000000000000005 2.0000000000000004 0.85
    vertex 3.6000000000000005 2.0000000000000004 3.85
  endloop
endfacet
facet normal -0.9569403357322088 0.2902846772544625 0.0
  outer loop
    vertex 0.5217927479819411 2.6122934917841443 3.85
    vertex 0.430743551354831 2.3121445152258056 0.85
    vertex 0.430743551354831 2.3121445152258056 3.85
  endloop
endfacet
facet normal -0.9569403357322088 0.2902846772544625 0.0
  outer loop
    vertex 0.430743551354831 2.3121445152258056 0.85
    vertex 0.5217927479819411 2.6122934917841443 3.85
    vertex 0.5217927479819411 2.6122934917841443 0.85
  endloop
endfacet
facet normal -0.7730104533627369 0.6343932841636457 0.0
  outer loop
    vertex 0.8686291501015242 3.131370849898477 3.85
    vertex 0.6696486203159272 2.888912372831365 0.85
    vertex 0.6696486203159272 2.888912372831365 3.85
  endloop
endfacet
facet normal -0.7730104533627369 0.6343932841636457 0.0
  outer loop
    vertex 0.6696486203159272 2.888912372831365 0.85
    vertex 0.8686291501015242 3.131370849898477 3.85
    vertex 0.8686291501015242 3.131370849898477 0.85
  endloop
endfacet
facet normal -0.8819212643483555 0.471396736825997 0.0
  outer loop
    vertex 0.6696486203159272 2.888912372831365 3.85
    vertex 0.5217927479819411 2.6122934917841443 0.85
    vertex 0.5217927479819411 2.6122934917841443 3.85
  endloop
endfacet
facet normal -0.8819212643483555 0.471396736825997 0.0
  outer loop
    vertex 0.5217927479819411 2.6122934917841443 0.85
    vertex 0.6696486203159272 2.888912372831365 3.85
    vertex 0.6696486203159272 2.888912372831365 0.85
  endloop
endfacet
facet normal 0.2902846772544659 -0.9569403357322079 2.003823778441776e-33
  outer loop
    vertex 2.612293491784148 0.5217927479819433 3.85
    vertex 2.3121445152258095 0.4307435513548322 0.85
    vertex 2.612293491784148 0.5217927479819433 0.85
  endloop
endfacet
facet normal 0.2902846772544659 -0.9569403357322079 2.003823778441776e-33
  outer loop
    vertex 2.3121445152258095 0.4307435513548322 0.85
    vertex 2.612293491784148 0.5217927479819433 3.85
    vertex 2.3121445152258095 0.4307435513548322 3.85
  endloop
endfacet
facet normal -0.995184726672197 0.09801714032955995 0.0
  outer loop
    vertex 0.430743551354831 2.3121445152258056 3.85
    vertex 0.3999999999999999 1.9999999999999996 0.85
    vertex 0.3999999999999999 1.9999999999999996 3.85
  endloop
endfacet
facet normal -0.995184726672197 0.09801714032955995 0.0
  outer loop
    vertex 0.3999999999999999 1.9999999999999996 0.85
    vertex 0.430743551354831 2.3121445152258056 3.85
    vertex 0.430743551354831 2.3121445152258056 0.85
  endloop
endfacet
facet normal -0.9569403357322085 -0.29028467725446355 0.0
  outer loop
    vertex 0.4307435513548315 1.6878554847741938 3.85
    vertex 0.5217927479819419 1.3877065082158548 0.85
    vertex 0.5217927479819419 1.3877065082158548 3.85
  endloop
endfacet
facet normal -0.9569403357322085 -0.29028467725446355 0.0
  outer loop
    vertex 0.5217927479819419 1.3877065082158548 0.85
    vertex 0.4307435513548315 1.6878554847741938 3.85
    vertex 0.4307435513548315 1.6878554847741938 0.85
  endloop
endfacet
facet normal -0.773010453362736 -0.6343932841636468 0.0
  outer loop
    vertex 0.6696486203159286 1.1110876271686347 3.85
    vertex 0.868629150101526 0.8686291501015221 0.85
    vertex 0.868629150101526 0.8686291501015221 3.85
  endloop
endfacet
facet normal -0.773010453362736 -0.6343932841636468 0.0
  outer loop
    vertex 0.868629150101526 0.8686291501015221 0.85
    vertex 0.6696486203159286 1.1110876271686347 3.85
    vertex 0.6696486203159286 1.1110876271686347 0.85
  endloop
endfacet
facet normal -0.6343932841636438 -0.7730104533627383 0.0
  outer loop
    vertex 1.1110876271686392 0.6696486203159269 3.85
    vertex 0.868629150101526 0.8686291501015221 0.85
    vertex 1.1110876271686392 0.6696486203159269 0.85
  endloop
endfacet
facet normal -0.6343932841636438 -0.7730104533627383 0.0
  outer loop
    vertex 0.868629150101526 0.8686291501015221 0.85
    vertex 1.1110876271686392 0.6696486203159269 3.85
    vertex 0.868629150101526 0.8686291501015221 3.85
  endloop
endfacet
facet normal -0.29028467725446067 -0.9569403357322095 -2.653342320742861e-33
  outer loop
    vertex 1.6878554847741989 0.4307435513548307 3.85
    vertex 1.38770650821586 0.5217927479819402 0.85
    vertex 1.6878554847741989 0.4307435513548307 0.85
  endloop
endfacet
facet normal -0.29028467725446067 -0.9569403357322095 -2.653342320742861e-33
  outer loop
    vertex 1.38770650821586 0.5217927479819402 0.85
    vertex 1.6878554847741989 0.4307435513548307 3.85
    vertex 1.38770650821586 0.5217927479819402 3.85
  endloop
endfacet
facet normal -0.9951847266721968 -0.0980171403295615 0.0
  outer loop
    vertex 0.3999999999999999 1.9999999999999996 3.85
    vertex 0.4307435513548315 1.6878554847741938 0.85
    vertex 0.4307435513548315 1.6878554847741938 3.85
  endloop
endfacet
facet normal -0.9951847266721968 -0.0980171403295615 0.0
  outer loop
    vertex 0.4307435513548315 1.6878554847741938 0.85
    vertex 0.3999999999999999 1.9999999999999996 3.85
    vertex 0.3999999999999999 1.9999999999999996 0.85
  endloop
endfacet
facet normal -0.471396736825996 -0.881921264348356 0.0
  outer loop
    vertex 1.38770650821586 0.5217927479819402 3.85
    vertex 1.1110876271686392 0.6696486203159269 0.85
    vertex 1.38770650821586 0.5217927479819402 0.85
  endloop
endfacet
facet normal -0.471396736825996 -0.881921264348356 0.0
  outer loop
    vertex 1.1110876271686392 0.6696486203159269 0.85
    vertex 1.38770650821586 0.5217927479819402 3.85
    vertex 1.1110876271686392 0.6696486203159269 3.85
  endloop
endfacet
facet normal -0.8819212643483546 -0.47139673682599864 0.0
  outer loop
    vertex 0.5217927479819419 1.3877065082158548 3.85
    vertex 0.6696486203159286 1.1110876271686347 0.85
    vertex 0.6696486203159286 1.1110876271686347 3.85
  endloop
endfacet
facet normal -0.8819212643483546 -0.47139673682599864 0.0
  outer loop
    vertex 0.6696486203159286 1.1110876271686347 0.85
    vertex 0.5217927479819419 1.3877065082158548 3.85
    vertex 0.5217927479819419 1.3877065082158548 0.85
  endloop
endfacet
facet normal 6.863872274266341e-32 -9.880731216882465e-33 1.0
  outer loop
    vertex 0.03842943919353959 1.6098193559677423 0.85
    vertex 0.03842943919353818 2.390180644032257 0.85
    vertex 0.0 1.9999999999999991 0.85
  endloop
endfacet
facet normal 6.863872274266341e-32 -9.880731216882465e-33 1.0
  outer loop
    vertex 0.03842943919353818 2.390180644032257 0.85
    vertex 0.03842943919353959 1.6098193559677423 0.85
    vertex 0.1522409349774262 2.7653668647301797 0.85
  endloop
endfacet
facet normal 6.863872274266341e-32 -9.880731216882465e-33 1.0
  outer loop
    vertex 0.1522409349774262 2.7653668647301797 0.85
    vertex 0.03842943919353959 1.6098193559677423 0.85
    vertex 0.1522409349774276 1.2346331352698188 0.85
  endloop
endfacet
facet normal 6.863872274266341e-32 -9.880731216882465e-33 1.0
  outer loop
    vertex 0.1522409349774262 2.7653668647301797 0.85
    vertex 0.1522409349774276 1.2346331352698188 0.85
    vertex 0.33706077539491036 3.111140466039206 0.85
  endloop
endfacet
facet normal 6.863872274266341e-32 -9.880731216882465e-33 1.0
  outer loop
    vertex 0.33706077539491036 3.111140466039206 0.85
    vertex 0.1522409349774276 1.2346331352698188 0.85
    vertex 0.3370607753949118 0.8888595339607925 0.85
  endloop
endfacet
facet normal 6.863872274266341e-32 -9.880731216882465e-33 1.0
  outer loop
    vertex 0.33706077539491036 3.111140466039206 0.85
    vertex 0.3370607753949118 0.8888595339607925 0.85
    vertex 0.5857864376269049 3.4142135623730963 0.85
  endloop
endfacet
facet normal 6.863872274266341e-32 -9.880731216882465e-33 1.0
  outer loop
    vertex 0.5857864376269049 3.4142135623730963 0.85
    vertex 0.3370607753949118 0.8888595339607925 0.85
    vertex 0.5857864376269077 0.5857864376269035 0.85
  endloop
endfacet
facet normal 6.863872274266341e-32 -9.880731216882465e-33 1.0
  outer loop
    vertex 0.5857864376269049 3.4142135623730963 0.85
    vertex 0.5857864376269077 0.5857864376269035 0.85
    vertex 0.8888595339607958 3.662939224605091 0.85
  endloop
endfacet
facet normal 6.863872274266341e-32 -9.880731216882465e-33 1.0
  outer loop
    vertex 0.8888595339607958 3.662939224605091 0.85
    vertex 0.5857864376269077 0.5857864376269035 0.85
    vertex 0.8888595339607985 0.3370607753949073 0.85
  endloop
endfacet
facet normal 6.863872274266341e-32 -9.880731216882465e-33 1.0
  outer loop
    vertex 0.8888595339607958 3.662939224605091 0.85
    vertex 0.8888595339607985 0.3370607753949073 0.85
    vertex 1.2346331352698205 3.8477590650225766 0.85
  endloop
endfacet
facet normal 6.863872274266341e-32 -9.880731216882465e-33 1.0
  outer loop
    vertex 1.2346331352698205 3.8477590650225766 0.85
    vertex 0.8888595339607985 0.3370607753949073 0.85
    vertex 1.2346331352698245 0.15224093497742458 0.85
  endloop
endfacet
facet normal 6.863872274266341e-32 -9.880731216882465e-33 1.0
  outer loop
    vertex 1.2346331352698205 3.8477590650225766 0.85
    vertex 1.2346331352698245 0.15224093497742458 0.85
    vertex 1.6098193559677434 3.961570560806463 0.85
  endloop
endfacet
facet normal 6.863872274266341e-32 -9.880731216882465e-33 1.0
  outer loop
    vertex 1.6098193559677434 3.961570560806463 0.85
    vertex 1.2346331352698245 0.15224093497742458 0.85
    vertex 1.6098193559677476 0.038429439193538195 0.85
  endloop
endfacet
facet normal 6.863872274266341e-32 -9.880731216882465e-33 1.0
  outer loop
    vertex 1.6098193559677434 3.961570560806463 0.85
    vertex 1.6098193559677476 0.038429439193538195 0.85
    vertex 2.0000000000000004 4.000000000000001 0.85
  endloop
endfacet
facet normal 6.863872274266341e-32 -9.880731216882465e-33 1.0
  outer loop
    vertex 2.0000000000000004 4.000000000000001 0.85
    vertex 1.6098193559677476 0.038429439193538195 0.85
    vertex 2.000000000000006 0.0 0.85
  endloop
endfacet
facet normal 6.863872274266341e-32 -9.880731216882465e-33 1.0
  outer loop
    vertex 2.0000000000000004 4.000000000000001 0.85
    vertex 2.000000000000006 0.0 0.85
    vertex 2.3901806440322573 3.961570560806463 0.85
  endloop
endfacet
facet normal 6.863872274266341e-32 -9.880731216882465e-33 1.0
  outer loop
    vertex 2.3901806440322573 3.961570560806463 0.85
    vertex 2.000000000000006 0.0 0.85
    vertex 2.390180644032263 0.03842943919354101 0.85
  endloop
endfacet
facet normal 6.863872274266341e-32 -9.880731216882465e-33 1.0
  outer loop
    vertex 2.3901806440322573 3.961570560806463 0.85
    vertex 2.390180644032263 0.03842943919354101 0.85
    vertex 2.765366864730181 3.8477590650225766 0.85
  endloop
endfacet
facet normal 6.863872274266341e-32 -9.880731216882465e-33 1.0
  outer loop
    vertex 2.765366864730181 3.8477590650225766 0.85
    vertex 2.390180644032263 0.03842943919354101 0.85
    vertex 2.765366864730185 0.15224093497742883 0.85
  endloop
endfacet
facet normal 6.863872274266341e-32 -9.880731216882465e-33 1.0
  outer loop
    vertex 2.765366864730181 3.8477590650225766 0.85
    vertex 2.765366864730185 0.15224093497742883 0.85
    vertex 3.1111404660392052 3.662939224605091 0.85
  endloop
endfacet
facet normal 6.863872274266341e-32 -9.880731216882465e-33 1.0
  outer loop
    vertex 3.1111404660392052 3.662939224605091 0.85
    vertex 2.765366864730185 0.15224093497742883 0.85
    vertex 3.111140466039211 0.33706077539491297 0.85
  endloop
endfacet
facet normal 6.863872274266341e-32 -9.880731216882465e-33 1.0
  outer loop
    vertex 3.1111404660392052 3.662939224605091 0.85
    vertex 3.111140466039211 0.33706077539491297 0.85
    vertex 3.4142135623730963 3.4142135623730963 0.85
  endloop
endfacet
facet normal 6.863872274266341e-32 -9.880731216882465e-33 1.0
  outer loop
    vertex 3.4142135623730963 3.4142135623730963 0.85
    vertex 3.111140466039211 0.33706077539491297 0.85
    vertex 3.4142135623731007 0.5857864376269105 0.85
  endloop
endfacet
facet normal 6.863872274266341e-32 -9.880731216882465e-33 1.0
  outer loop
    vertex 3.4142135623730963 3.4142135623730963 0.85
    vertex 3.4142135623731007 0.5857864376269105 0.85
    vertex 3.6000000000000005 3.1878321331182833 0.85
  endloop
endfacet
facet normal 6.863872274266341e-32 -9.880731216882465e-33 1.0
  outer loop
    vertex 3.6000000000000005 3.1878321331182833 0.85
    vertex 3.4142135623731007 0.5857864376269105 0.85
    vertex 3.6000000000000005 0.8121678668817187 0.85
  endloop
endfacet
facet normal 6.863872274266341e-32 -9.880731216882465e-33 1.0
  outer loop
    vertex 3.6000000000000005 3.1878321331182833 0.85
    vertex 3.6000000000000005 0.8121678668817187 0.85
    vertex 3.6000000000000005 2.0000000000000004 0.85
  endloop
endfacet
facet normal 0.9951847266721972 0.09801714032955751 1.3739442523173337e-32
  outer loop
    vertex 3.56925644864517 2.312144515225807 0.85
    vertex 3.6000000000000005 2.0000000000000004 3.85
    vertex 3.6000000000000005 2.0000000000000004 0.85
  endloop
endfacet
facet normal 0.9951847266721972 0.09801714032955751 1.3739442523173337e-32
  outer loop
    vertex 3.6000000000000005 2.0000000000000004 3.85
    vertex 3.56925644864517 2.312144515225807 0.85
    vertex 3.56925644864517 2.312144515225807 3.85
  endloop
endfacet
facet normal 0.6343932841636457 0.7730104533627369 0.0
  outer loop
    vertex 2.888912372831365 3.3303513796840734 3.85
    vertex 3.1313708498984765 3.131370849898477 0.85
    vertex 2.888912372831365 3.3303513796840734 0.85
  endloop
endfacet
facet normal 0.6343932841636457 0.7730104533627369 0.0
  outer loop
    vertex 3.1313708498984765 3.131370849898477 0.85
    vertex 2.888912372831365 3.3303513796840734 3.85
    vertex 3.1313708498984765 3.131370849898477 3.85
  endloop
endfacet
facet normal -3.0941982963361447e-31 -2.704173300999658e-31 1.0
  outer loop
    vertex 0.4307435513548315 1.6878554847741938 3.85
    vertex 0.430743551354831 2.3121445152258056 3.85
    vertex 0.3999999999999999 1.9999999999999996 3.85
  endloop
endfacet
facet normal -3.0941982963361447e-31 -2.704173300999658e-31 1.0
  outer loop
    vertex 0.430743551354831 2.3121445152258056 3.85
    vertex 0.4307435513548315 1.6878554847741938 3.85
    vertex 0.5217927479819411 2.6122934917841443 3.85
  endloop
endfacet
facet normal -3.0941982963361447e-31 -2.704173300999658e-31 1.0
  outer loop
    vertex 0.5217927479819411 2.6122934917841443 3.85
    vertex 0.4307435513548315 1.6878554847741938 3.85
    vertex 0.5217927479819419 1.3877065082158548 3.85
  endloop
endfacet
facet normal -3.0941982963361447e-31 -2.704173300999658e-31 1.0
  outer loop
    vertex 0.5217927479819411 2.6122934917841443 3.85
    vertex 0.5217927479819419 1.3877065082158548 3.85
    vertex 0.6696486203159272 2.888912372831365 3.85
  endloop
endfacet
facet normal -3.0941982963361447e-31 -2.704173300999658e-31 1.0
  outer loop
    vertex 0.6696486203159272 2.888912372831365 3.85
    vertex 0.5217927479819419 1.3877065082158548 3.85
    vertex 0.6696486203159286 1.1110876271686347 3.85
  endloop
endfacet
facet normal -3.0941982963361447e-31 -2.704173300999658e-31 1.0
  outer loop
    vertex 0.6696486203159272 2.888912372831365 3.85
    vertex 0.6696486203159286 1.1110876271686347 3.85
    vertex 0.8686291501015242 3.131370849898477 3.85
  endloop
endfacet
facet normal -3.0941982963361447e-31 -2.704173300999658e-31 1.0
  outer loop
    vertex 0.8686291501015242 3.131370849898477 3.85
    vertex 0.6696486203159286 1.1110876271686347 3.85
    vertex 0.868629150101526 0.8686291501015221 3.85
  endloop
endfacet
facet normal -3.0941982963361447e-31 -2.704173300999658e-31 1.0
  outer loop
    vertex 0.8686291501015242 3.131370849898477 3.85
    vertex 0.868629150101526 0.8686291501015221 3.85
    vertex 1.111087627168637 3.3303513796840734 3.85
  endloop
endfacet
facet normal -3.0941982963361447e-31 -2.704173300999658e-31 1.0
  outer loop
    vertex 1.111087627168637 3.3303513796840734 3.85
    vertex 0.868629150101526 0.8686291501015221 3.85
    vertex 1.1110876271686392 0.6696486203159269 3.85
  endloop
endfacet
facet normal -3.0941982963361447e-31 -2.704173300999658e-31 1.0
  outer loop
    vertex 1.111087627168637 3.3303513796840734 3.85
    vertex 1.1110876271686392 0.6696486203159269 3.85
    vertex 1.387706508215857 3.4782072520180596 3.85
  endloop
endfacet
facet normal -3.0941982963361447e-31 -2.704173300999658e-31 1.0
  outer loop
    vertex 1.387706508215857 3.4782072520180596 3.85
    vertex 1.1110876271686392 0.6696486203159269 3.85
    vertex 1.38770650821586 0.5217927479819402 3.85
  endloop
endfacet
facet normal -3.0941982963361447e-31 -2.704173300999658e-31 1.0
  outer loop
    vertex 1.387706508215857 3.4782072520180596 3.85
    vertex 1.38770650821586 0.5217927479819402 3.85
    vertex 1.687855484774195 3.56925644864517 3.85
  endloop
endfacet
facet normal -3.0941982963361447e-31 -2.704173300999658e-31 1.0
  outer loop
    vertex 1.687855484774195 3.56925644864517 3.85
    vertex 1.38770650821586 0.5217927479819402 3.85
    vertex 1.6878554847741989 0.4307435513548307 3.85
  endloop
endfacet
facet normal -3.0941982963361447e-31 -2.704173300999658e-31 1.0
  outer loop
    vertex 1.687855484774195 3.56925644864517 3.85
    vertex 1.6878554847741989 0.4307435513548307 3.85
    vertex 2.312144515225806 3.56925644864517 3.85
  endloop
endfacet
facet normal -3.0941982963361447e-31 -2.704173300999658e-31 1.0
  outer loop
    vertex 2.312144515225806 3.56925644864517 3.85
    vertex 1.6878554847741989 0.4307435513548307 3.85
    vertex 2.3121445152258095 0.4307435513548322 3.85
  endloop
endfacet
facet normal -3.0941982963361447e-31 -2.704173300999658e-31 1.0
  outer loop
    vertex 2.312144515225806 3.56925644864517 3.85
    vertex 2.3121445152258095 0.4307435513548322 3.85
    vertex 2.6122934917841443 3.4782072520180596 3.85
  endloop
endfacet
facet normal -3.0941982963361447e-31 -2.704173300999658e-31 1.0
  outer loop
    vertex 2.6122934917841443 3.4782072520180596 3.85
    vertex 2.3121445152258095 0.4307435513548322 3.85
    vertex 2.612293491784148 0.5217927479819433 3.85
  endloop
endfacet
facet normal -3.0941982963361447e-31 -2.704173300999658e-31 1.0
  outer loop
    vertex 2.6122934917841443 3.4782072520180596 3.85
    vertex 2.612293491784148 0.5217927479819433 3.85
    vertex 2.888912372831365 3.3303513796840734 3.85
  endloop
endfacet
facet normal -3.0941982963361447e-31 -2.704173300999658e-31 1.0
  outer loop
    vertex 2.888912372831365 3.3303513796840734 3.85
    vertex 2.612293491784148 0.5217927479819433 3.85
    vertex 2.8889123728313684 0.6696486203159312 3.85
  endloop
endfacet
facet normal -3.0941982963361447e-31 -2.704173300999658e-31 1.0
  outer loop
    vertex 2.888912372831365 3.3303513796840734 3.85
    vertex 2.8889123728313684 0.6696486203159312 3.85
    vertex 3.1313708498984765 3.131370849898477 3.85
  endloop
endfacet
facet normal -3.0941982963361447e-31 -2.704173300999658e-31 1.0
  outer loop
    vertex 3.1313708498984765 3.131370849898477 3.85
    vertex 2.8889123728313684 0.6696486203159312 3.85
    vertex 3.131370849898481 0.8686291501015277 3.85
  endloop
endfacet
facet normal -3.0941982963361447e-31 -2.704173300999658e-31 1.0
  outer loop
    vertex 3.1313708498984765 3.131370849898477 3.85
    vertex 3.131370849898481 0.8686291501015277 3.85
    vertex 3.3303513796840734 2.888912372831365 3.85
  endloop
endfacet
facet normal -3.0941982963361447e-31 -2.704173300999658e-31 1.0
  outer loop
    vertex 3.3303513796840734 2.888912372831365 3.85
    vertex 3.131370849898481 0.8686291501015277 3.85
    vertex 3.330351379684077 1.1110876271686414 3.85
  endloop
endfacet
facet normal -3.0941982963361447e-31 -2.704173300999658e-31 1.0
  outer loop
    vertex 3.3303513796840734 2.888912372831365 3.85
    vertex 3.330351379684077 1.1110876271686414 3.85
    vertex 3.4782072520180596 2.612293491784145 3.85
  endloop
endfacet
facet normal -3.0941982963361447e-31 -2.704173300999658e-31 1.0
  outer loop
    vertex 3.4782072520180596 2.612293491784145 3.85
    vertex 3.330351379684077 1.1110876271686414 3.85
    vertex 3.478207252018062 1.3877065082158622 3.85
  endloop
endfacet
facet normal -3.0941982963361447e-31 -2.704173300999658e-31 1.0
  outer loop
    vertex 3.4782072520180596 2.612293491784145 3.85
    vertex 3.478207252018062 1.3877065082158622 3.85
    vertex 3.56925644864517 2.312144515225807 3.85
  endloop
endfacet
facet normal -3.0941982963361447e-31 -2.704173300999658e-31 1.0
  outer loop
    vertex 3.56925644864517 2.312144515225807 3.85
    vertex 3.478207252018062 1.3877065082158622 3.85
    vertex 3.5692564486451714 1.6878554847742016 3.85
  endloop
endfacet
facet normal -3.0941982963361447e-31 -2.704173300999658e-31 1.0
  outer loop
    vertex 3.56925644864517 2.312144515225807 3.85
    vertex 3.5692564486451714 1.6878554847742016 3.85
    vertex 3.6000000000000005 2.0000000000000004 3.85
  endloop
endfacet
facet normal -0.29028467725446444 0.9569403357322083 1.1280525027383084e-18
  outer loop
    vertex 1.387706508215857 3.4782072520180596 3.85
    vertex 1.687855484774195 3.56925644864517 0.85
    vertex 1.387706508215857 3.4782072520180596 0.85
  endloop
endfacet
facet normal -0.29028467725446444 0.9569403357322083 1.1280525027383084e-18
  outer loop
    vertex 1.687855484774195 3.56925644864517 0.85
    vertex 1.387706508215857 3.4782072520180596 3.85
    vertex 1.687855484774195 3.56925644864517 3.85
  endloop
endfacet
facet normal 0.9569403357322085 0.29028467725446355 0.0
  outer loop
    vertex 3.4782072520180596 2.612293491784145 0.85
    vertex 3.56925644864517 2.312144515225807 3.85
    vertex 3.56925644864517 2.312144515225807 0.85
  endloop
endfacet
facet normal 0.9569403357322085 0.29028467725446355 0.0
  outer loop
    vertex 3.56925644864517 2.312144515225807 3.85
    vertex 3.4782072520180596 2.612293491784145 0.85
    vertex 3.4782072520180596 2.612293491784145 3.85
  endloop
endfacet
facet normal 0.8819212643483554 0.47139673682599725 0.0
  outer loop
    vertex 3.3303513796840734 2.888912372831365 0.85
    vertex 3.4782072520180596 2.612293491784145 3.85
    vertex 3.4782072520180596 2.612293491784145 0.85
  endloop
endfacet
facet normal 0.8819212643483554 0.47139673682599725 0.0
  outer loop
    vertex 3.4782072520180596 2.612293491784145 3.85
    vertex 3.3303513796840734 2.888912372831365 0.85
    vertex 3.3303513796840734 2.888912372831365 3.85
  endloop
endfacet
facet normal 0.7730104533627374 0.6343932841636448 0.0
  outer loop
    vertex 3.1313708498984765 3.131370849898477 0.85
    vertex 3.3303513796840734 2.888912372831365 3.85
    vertex 3.3303513796840734 2.888912372831365 0.85
  endloop
endfacet
facet normal 0.7730104533627374 0.6343932841636448 0.0
  outer loop
    vertex 3.3303513796840734 2.888912372831365 3.85
    vertex 3.1313708498984765 3.131370849898477 0.85
    vertex 3.1313708498984765 3.131370849898477 3.85
  endloop
endfacet
facet normal 0.2902846772544639 0.9569403357322084 -2.0038237784417626e-33
  outer loop
    vertex 2.312144515225806 3.56925644864517 3.85
    vertex 2.6122934917841443 3.4782072520180596 0.85
    vertex 2.312144515225806 3.56925644864517 0.85
  endloop
endfacet
facet normal 0.2902846772544639 0.9569403357322084 -2.0038237784417626e-33
  outer loop
    vertex 2.6122934917841443 3.4782072520180596 0.85
    vertex 2.312144515225806 3.56925644864517 3.85
    vertex 2.6122934917841443 3.4782072520180596 3.85
  endloop
endfacet
facet normal -0.47139673682599725 0.8819212643483554 0.0
  outer loop
    vertex 1.111087627168637 3.3303513796840734 3.85
    vertex 1.387706508215857 3.4782072520180596 0.85
    vertex 1.111087627168637 3.3303513796840734 0.85
  endloop
endfacet
facet normal -0.47139673682599725 0.8819212643483554 0.0
  outer loop
    vertex 1.387706508215857 3.4782072520180596 0.85
    vertex 1.111087627168637 3.3303513796840734 3.85
    vertex 1.387706508215857 3.4782072520180596 3.85
  endloop
endfacet
facet normal -0.6343932841636448 0.7730104533627374 0.0
  outer loop
    vertex 0.8686291501015242 3.131370849898477 3.85
    vertex 1.111087627168637 3.3303513796840734 0.85
    vertex 0.8686291501015242 3.131370849898477 0.85
  endloop
endfacet
facet normal -0.6343932841636448 0.7730104533627374 0.0
  outer loop
    vertex 1.111087627168637 3.3303513796840734 0.85
    vertex 0.8686291501015242 3.131370849898477 3.85
    vertex 1.111087627168637 3.3303513796840734 3.85
  endloop
endfacet
facet normal 0.471396736825997 0.8819212643483555 0.0
  outer loop
    vertex 2.6122934917841443 3.4782072520180596 3.85
    vertex 2.888912372831365 3.3303513796840734 0.85
    vertex 2.6122934917841443 3.4782072520180596 0.85
  endloop
endfacet
facet normal 0.471396736825997 0.8819212643483555 0.0
  outer loop
    vertex 2.888912372831365 3.3303513796840734 0.85
    vertex 2.6122934917841443 3.4782072520180596 3.85
    vertex 2.888912372831365 3.3303513796840734 3.85
  endloop
endfacet
facet normal -0.6343932841636438 0.7730104533627383 0.0
  outer loop
    vertex 0.5857864376269049 3.4142135623730963 0.85
    vertex 0.8888595339607958 3.662939224605091 0.0
    vertex 0.5857864376269049 3.4142135623730963 0.0
  endloop
endfacet
facet normal -0.6343932841636438 0.7730104533627383 0.0
  outer loop
    vertex 0.8888595339607958 3.662939224605091 0.0
    vertex 0.5857864376269049 3.4142135623730963 0.85
    vertex 0.8888595339607958 3.662939224605091 0.85
  endloop
endfacet
facet normal -0.7730104533627351 -0.6343932841636479 0.0
  outer loop
    vertex 0.3370607753949118 0.8888595339607925 0.85
    vertex 0.5857864376269077 0.5857864376269035 0.0
    vertex 0.5857864376269077 0.5857864376269035 0.85
  endloop
endfacet
facet normal -0.7730104533627351 -0.6343932841636479 0.0
  outer loop
    vertex 0.5857864376269077 0.5857864376269035 0.0
    vertex 0.3370607753949118 0.8888595339607925 0.85
    vertex 0.3370607753949118 0.8888595339607925 0.0
  endloop
endfacet
facet normal -0.2902846772544597 -0.9569403357322096 0.0
  outer loop
    vertex 1.6098193559677476 0.038429439193538195 0.85
    vertex 1.2346331352698245 0.15224093497742458 0.0
    vertex 1.6098193559677476 0.038429439193538195 0.0
  endloop
endfacet
facet normal -0.2902846772544597 -0.9569403357322096 0.0
  outer loop
    vertex 1.2346331352698245 0.15224093497742458 0.0
    vertex 1.6098193559677476 0.038429439193538195 0.85
    vertex 1.2346331352698245 0.15224093497742458 0.85
  endloop
endfacet
facet normal -0.9951847266721972 0.09801714032955822 0.0
  outer loop
    vertex 0.03842943919353818 2.390180644032257 0.85
    vertex 0.0 1.9999999999999991 0.0
    vertex 0.0 1.9999999999999991 0.85
  endloop
endfacet
facet normal -0.9951847266721972 0.09801714032955822 0.0
  outer loop
    vertex 0.0 1.9999999999999991 0.0
    vertex 0.03842943919353818 2.390180644032257 0.85
    vertex 0.03842943919353818 2.390180644032257 0.0
  endloop
endfacet
facet normal -0.8819212643483545 -0.47139673682599875 0.0
  outer loop
    vertex 0.1522409349774276 1.2346331352698188 0.85
    vertex 0.3370607753949118 0.8888595339607925 0.0
    vertex 0.3370607753949118 0.8888595339607925 0.85
  endloop
endfacet
facet normal -0.8819212643483545 -0.47139673682599875 0.0
  outer loop
    vertex 0.3370607753949118 0.8888595339607925 0.0
    vertex 0.1522409349774276 1.2346331352698188 0.85
    vertex 0.1522409349774276 1.2346331352698188 0.0
  endloop
endfacet
facet normal 0.29028467725446383 -0.9569403357322085 0.0
  outer loop
    vertex 2.765366864730185 0.15224093497742883 0.85
    vertex 2.390180644032263 0.03842943919354101 0.0
    vertex 2.765366864730185 0.15224093497742883 0.0
  endloop
endfacet
facet normal 0.29028467725446383 -0.9569403357322085 0.0
  outer loop
    vertex 2.390180644032263 0.03842943919354101 0.0
    vertex 2.765366864730185 0.15224093497742883 0.85
    vertex 2.390180644032263 0.03842943919354101 0.85
  endloop
endfacet
facet normal -0.2902846772544603 0.9569403357322095 0.0
  outer loop
    vertex 1.2346331352698205 3.8477590650225766 0.85
    vertex 1.6098193559677434 3.961570560806463 0.0
    vertex 1.2346331352698205 3.8477590650225766 0.0
  endloop
endfacet
facet normal -0.2902846772544603 0.9569403357322095 0.0
  outer loop
    vertex 1.6098193559677434 3.961570560806463 0.0
    vertex 1.2346331352698205 3.8477590650225766 0.85
    vertex 1.6098193559677434 3.961570560806463 0.85
  endloop
endfacet
facet normal 0.09801714032956173 0.9951847266721968 0.0
  outer loop
    vertex 2.0000000000000004 4.000000000000001 0.85
    vertex 2.3901806440322573 3.961570560806463 0.0
    vertex 2.0000000000000004 4.000000000000001 0.0
  endloop
endfacet
facet normal 0.09801714032956173 0.9951847266721968 0.0
  outer loop
    vertex 2.3901806440322573 3.961570560806463 0.0
    vertex 2.0000000000000004 4.000000000000001 0.85
    vertex 2.3901806440322573 3.961570560806463 0.85
  endloop
endfacet
facet normal 0.09801714032956538 -0.9951847266721965 0.0
  outer loop
    vertex 2.390180644032263 0.03842943919354101 0.85
    vertex 2.000000000000006 0.0 0.0
    vertex 2.390180644032263 0.03842943919354101 0.0
  endloop
endfacet
facet normal 0.09801714032956538 -0.9951847266721965 0.0
  outer loop
    vertex 2.000000000000006 0.0 0.0
    vertex 2.390180644032263 0.03842943919354101 0.85
    vertex 2.000000000000006 0.0 0.85
  endloop
endfacet
facet normal -0.09801714032956173 0.9951847266721968 0.0
  outer loop
    vertex 1.6098193559677434 3.961570560806463 0.85
    vertex 2.0000000000000004 4.000000000000001 0.0
    vertex 1.6098193559677434 3.961570560806463 0.0
  endloop
endfacet
facet normal -0.09801714032956173 0.9951847266721968 0.0
  outer loop
    vertex 2.0000000000000004 4.000000000000001 0.0
    vertex 1.6098193559677434 3.961570560806463 0.85
    vertex 2.0000000000000004 4.000000000000001 0.85
  endloop
endfacet
facet normal -0.8819212643483545 0.47139673682599875 0.0
  outer loop
    vertex 0.33706077539491036 3.111140466039206 0.85
    vertex 0.1522409349774262 2.7653668647301797 0.0
    vertex 0.1522409349774262 2.7653668647301797 0.85
  endloop
endfacet
facet normal -0.8819212643483545 0.47139673682599875 0.0
  outer loop
    vertex 0.1522409349774262 2.7653668647301797 0.0
    vertex 0.33706077539491036 3.111140466039206 0.85
    vertex 0.33706077539491036 3.111140466039206 0.0
  endloop
endfacet
facet normal -0.9569403357322086 -0.2902846772544631 0.0
  outer loop
    vertex 0.03842943919353959 1.6098193559677423 0.85
    vertex 0.1522409349774276 1.2346331352698188 0.0
    vertex 0.1522409349774276 1.2346331352698188 0.85
  endloop
endfacet
facet normal -0.9569403357322086 -0.2902846772544631 0.0
  outer loop
    vertex 0.1522409349774276 1.2346331352698188 0.0
    vertex 0.03842943919353959 1.6098193559677423 0.85
    vertex 0.03842943919353959 1.6098193559677423 0.0
  endloop
endfacet
facet normal -0.4713967368259999 0.8819212643483539 0.0
  outer loop
    vertex 0.8888595339607958 3.662939224605091 0.85
    vertex 1.2346331352698205 3.8477590650225766 0.0
    vertex 0.8888595339607958 3.662939224605091 0.0
  endloop
endfacet
facet normal -0.4713967368259999 0.8819212643483539 0.0
  outer loop
    vertex 1.2346331352698205 3.8477590650225766 0.0
    vertex 0.8888595339607958 3.662939224605091 0.85
    vertex 1.2346331352698205 3.8477590650225766 0.85
  endloop
endfacet
facet normal 0.4713967368259999 0.8819212643483539 0.0
  outer loop
    vertex 2.765366864730181 3.8477590650225766 0.85
    vertex 3.1111404660392052 3.662939224605091 0.0
    vertex 2.765366864730181 3.8477590650225766 0.0
  endloop
endfacet
facet normal 0.4713967368259999 0.8819212643483539 0.0
  outer loop
    vertex 3.1111404660392052 3.662939224605091 0.0
    vertex 2.765366864730181 3.8477590650225766 0.85
    vertex 3.1111404660392052 3.662939224605091 0.85
  endloop
endfacet
facet normal 0.2902846772544603 0.9569403357322095 0.0
  outer loop
    vertex 2.3901806440322573 3.961570560806463 0.85
    vertex 2.765366864730181 3.8477590650225766 0.0
    vertex 2.3901806440322573 3.961570560806463 0.0
  endloop
endfacet
facet normal 0.2902846772544603 0.9569403357322095 0.0
  outer loop
    vertex 2.765366864730181 3.8477590650225766 0.0
    vertex 2.3901806440322573 3.961570560806463 0.85
    vertex 2.765366864730181 3.8477590650225766 0.85
  endloop
endfacet
facet normal -0.9569403357322086 0.29028467725446344 0.0
  outer loop
    vertex 0.1522409349774262 2.7653668647301797 0.85
    vertex 0.03842943919353818 2.390180644032257 0.0
    vertex 0.03842943919353818 2.390180644032257 0.85
  endloop
endfacet
facet normal -0.9569403357322086 0.29028467725446344 0.0
  outer loop
    vertex 0.03842943919353818 2.390180644032257 0.0
    vertex 0.1522409349774262 2.7653668647301797 0.85
    vertex 0.1522409349774262 2.7653668647301797 0.0
  endloop
endfacet
facet normal -0.634393284163646 -0.7730104533627365 0.0
  outer loop
    vertex 0.8888595339607985 0.3370607753949073 0.85
    vertex 0.5857864376269077 0.5857864376269035 0.0
    vertex 0.8888595339607985 0.3370607753949073 0.0
  endloop
endfacet
facet normal -0.634393284163646 -0.7730104533627365 0.0
  outer loop
    vertex 0.5857864376269077 0.5857864376269035 0.0
    vertex 0.8888595339607985 0.3370607753949073 0.85
    vertex 0.5857864376269077 0.5857864376269035 0.85
  endloop
endfacet
facet normal -0.47139673682599526 -0.8819212643483564 0.0
  outer loop
    vertex 1.2346331352698245 0.15224093497742458 0.85
    vertex 0.8888595339607985 0.3370607753949073 0.0
    vertex 1.2346331352698245 0.15224093497742458 0.0
  endloop
endfacet
facet normal -0.47139673682599526 -0.8819212643483564 0.0
  outer loop
    vertex 0.8888595339607985 0.3370607753949073 0.0
    vertex 1.2346331352698245 0.15224093497742458 0.85
    vertex 0.8888595339607985 0.3370607753949073 0.85
  endloop
endfacet
facet normal -0.7730104533627383 0.6343932841636438 0.0
  outer loop
    vertex 0.5857864376269049 3.4142135623730963 0.85
    vertex 0.33706077539491036 3.111140466039206 0.0
    vertex 0.33706077539491036 3.111140466039206 0.85
  endloop
endfacet
facet normal -0.7730104533627383 0.6343932841636438 0.0
  outer loop
    vertex 0.33706077539491036 3.111140466039206 0.0
    vertex 0.5857864376269049 3.4142135623730963 0.85
    vertex 0.5857864376269049 3.4142135623730963 0.0
  endloop
endfacet
facet normal 0.7730104533627374 0.634393284163645 4.644675562761379e-18
  outer loop
    vertex 3.4142135623730963 3.4142135623730963 0.0
    vertex 3.6000000000000005 3.1878321331182833 0.85
    vertex 3.6000000000000005 3.1878321331182833 1.4099832412739487e-15
  endloop
endfacet
facet normal 0.7730104533627374 0.634393284163645 4.644675562761379e-18
  outer loop
    vertex 3.6000000000000005 3.1878321331182833 0.85
    vertex 3.4142135623730963 3.4142135623730963 0.0
    vertex 3.4142135623730963 3.4142135623730963 0.85
  endloop
endfacet
facet normal 0.6343932841636438 0.7730104533627383 0.0
  outer loop
    vertex 3.1111404660392052 3.662939224605091 0.85
    vertex 3.4142135623730963 3.4142135623730963 0.0
    vertex 3.1111404660392052 3.662939224605091 0.0
  endloop
endfacet
facet normal 0.6343932841636438 0.7730104533627383 0.0
  outer loop
    vertex 3.4142135623730963 3.4142135623730963 0.0
    vertex 3.1111404660392052 3.662939224605091 0.85
    vertex 3.4142135623730963 3.4142135623730963 0.85
  endloop
endfacet
facet normal -0.9951847266721968 -0.09801714032956173 0.0
  outer loop
    vertex 0.0 1.9999999999999991 0.85
    vertex 0.03842943919353959 1.6098193559677423 0.0
    vertex 0.03842943919353959 1.6098193559677423 0.85
  endloop
endfacet
facet normal -0.9951847266721968 -0.09801714032956173 0.0
  outer loop
    vertex 0.03842943919353959 1.6098193559677423 0.0
    vertex 0.0 1.9999999999999991 0.85
    vertex 0.0 1.9999999999999991 0.0
  endloop
endfacet
facet normal -0.09801714032955783 -0.9951847266721972 0.0
  outer loop
    vertex 2.000000000000006 0.0 0.85
    vertex 1.6098193559677476 0.038429439193538195 0.0
    vertex 2.000000000000006 0.0 0.0
  endloop
endfacet
facet normal -0.09801714032955783 -0.9951847266721972 0.0
  outer loop
    vertex 1.6098193559677476 0.038429439193538195 0.0
    vertex 2.000000000000006 0.0 0.85
    vertex 1.6098193559677476 0.038429439193538195 0.85
  endloop
endfacet
facet normal 1.0 0.0 0.0
  outer loop
    vertex 2.312144515225806 3.6692564486451698 0.85
    vertex 2.312144515225806 3.56925644864517 3.85
    vertex 2.312144515225806 3.56925644864517 0.85
  endloop
endfacet
facet normal 1.0 0.0 0.0
  outer loop
    vertex 2.312144515225806 3.56925644864517 3.85
    vertex 2.312144515225806 3.6692564486451698 0.85
    vertex 2.312144515225806 3.6692564486451698 3.35
  endloop
endfacet
facet normal -1.0 8.508519559411775e-15 2.6741061472436966e-16
  outer loop
    vertex 1.6878554847741967 3.6692564486451698 3.35
    vertex 1.687855484774195 3.56925644864517 0.85
    vertex 1.687855484774195 3.56925644864517 3.85
  endloop
endfacet
facet normal -1.0 8.508519559411775e-15 2.6741061472436966e-16
  outer loop
    vertex 1.687855484774195 3.56925644864517 0.85
    vertex 1.6878554847741967 3.6692564486451698 3.35
    vertex 1.687855484774195 3.6692564486451698 0.85
  endloop
endfacet
facet normal 1.0 0.0 0.0
  outer loop
    vertex 3.6000000000000005 3.1878321331182833 1.4099832412739487e-15
    vertex 3.6000000000000005 0.8121678668817187 0.85
    vertex 3.6000000000000005 0.8121678668817187 1.4099832412739487e-15
  endloop
endfacet
facet normal 1.0 0.0 0.0
  outer loop
    vertex 3.6000000000000005 0.8121678668817187 0.85
    vertex 3.6000000000000005 3.1878321331182833 1.4099832412739487e-15
    vertex 3.6000000000000005 2.0000000000000004 0.85
  endloop
endfacet
facet normal 1.0 0.0 0.0
  outer loop
    vertex 3.6000000000000005 2.0000000000000004 0.85
    vertex 3.6000000000000005 3.1878321331182833 1.4099832412739487e-15
    vertex 3.6000000000000005 3.1878321331182833 0.85
  endloop
endfacet
facet normal 4.399766591038911e-18 0.9805806756909203 0.19611613513818374
  outer loop
    vertex 1.687855484774195 3.56925644864517 3.85
    vertex 2.312144515225806 3.6692564486451698 3.35
    vertex 1.6878554847741967 3.6692564486451698 3.35
  endloop
endfacet
facet normal 4.399766591038911e-18 0.9805806756909203 0.19611613513818374
  outer loop
    vertex 2.312144515225806 3.6692564486451698 3.35
    vertex 1.687855484774195 3.56925644864517 3.85
    vertex 2.312144515225806 3.56925644864517 3.85
  endloop
endfacet
facet normal -0.9971696058865501 -0.07516639527765023 0.0016703643395032553
  outer loop
    vertex 1.6878554847741989 0.4307435513548307 3.85
    vertex 1.6878554847741996 0.33074355135483074 0.85
    vertex 1.712144515225808 0.3307435513548306 3.35
  endloop
endfacet
facet normal -0.9971696058865501 -0.07516639527765023 0.0016703643395032553
  outer loop
    vertex 1.6878554847741996 0.33074355135483074 0.85
    vertex 1.6878554847741989 0.4307435513548307 3.85
    vertex 1.6878554847741989 0.4307435513548307 0.85
  endloop
endfacet
facet normal 1.0 -7.916709182562747e-15 3.4671719047720046e-16
  outer loop
    vertex 2.31214451522581 0.3307435513548323 0.85
    vertex 2.3121445152258095 0.4307435513548322 3.85
    vertex 2.312144515225808 0.33074355135483213 3.35
  endloop
endfacet
facet normal 1.0 -7.916709182562747e-15 3.4671719047720046e-16
  outer loop
    vertex 2.3121445152258095 0.4307435513548322 3.85
    vertex 2.31214451522581 0.3307435513548323 0.85
    vertex 2.3121445152258095 0.4307435513548322 0.85
  endloop
endfacet
facet normal 2.441119986583605e-15 -0.9805806756909202 0.1961161351381845
  outer loop
    vertex 2.3121445152258095 0.4307435513548322 3.85
    vertex 1.712144515225808 0.3307435513548306 3.35
    vertex 2.312144515225808 0.33074355135483213 3.35
  endloop
endfacet
facet normal 2.441119986583605e-15 -0.9805806756909202 0.1961161351381845
  outer loop
    vertex 1.712144515225808 0.3307435513548306 3.35
    vertex 2.3121445152258095 0.4307435513548322 3.85
    vertex 1.6878554847741989 0.4307435513548307 3.85
  endloop
endfacet
facet normal 2.4816087534654304e-15 -1.0 -7.374194092211444e-17
  outer loop
    vertex 2.312144515225808 0.33074355135483213 3.35
    vertex 1.6878554847741996 0.33074355135483074 0.85
    vertex 2.31214451522581 0.3307435513548323 0.85
  endloop
endfacet
facet normal 2.4816087534654304e-15 -1.0 -7.374194092211444e-17
  outer loop
    vertex 1.6878554847741996 0.33074355135483074 0.85
    vertex 2.312144515225808 0.33074355135483213 3.35
    vertex 1.712144515225808 0.3307435513548306 3.35
  endloop
endfacet
facet normal -0.0 1.0 -0.0
  outer loop
    vertex 1.6878554847741967 3.6692564486451698 3.35
    vertex 2.312144515225806 3.6692564486451698 0.85
    vertex 1.687855484774195 3.6692564486451698 0.85
  endloop
endfacet
facet normal -0.0 1.0 -0.0
  outer loop
    vertex 2.312144515225806 3.6692564486451698 0.85
    vertex 1.6878554847741967 3.6692564486451698 3.35
    vertex 2.312144515225806 3.6692564486451698 3.35
  endloop
endfacet
endsolid Pipe_light_v5
