G75*
G70*
%OFA0B0*%
%FSLAX24Y24*%
%IPPOS*%
%LPD*%
%AMOC8*
5,1,8,0,0,1.08239X$1,22.5*
%
%ADD10C,0.0050*%
%ADD11C,0.0000*%
%ADD12C,0.0004*%
%ADD13C,0.0433*%
%ADD14C,0.0500*%
%ADD15C,0.0709*%
%ADD16C,0.0850*%
%ADD17C,0.0825*%
%ADD18C,0.0787*%
%ADD19C,0.0591*%
%ADD20C,0.0984*%
%ADD21C,0.0080*%
%ADD22C,0.0240*%
%ADD23C,0.0200*%
%ADD24C,0.0220*%
%ADD25C,0.0160*%
%ADD26C,0.0100*%
%ADD27C,0.0240*%
%ADD28C,0.0390*%
%ADD29C,0.0300*%
%ADD30C,0.0280*%
%ADD31C,0.0300*%
%ADD32C,0.0120*%
%ADD33C,0.0260*%
%ADD34C,0.0420*%
%ADD35C,0.0320*%
%ADD36C,0.0140*%
D10*
X001427Y000927D02*
X016366Y000927D01*
X016366Y000955D01*
X016370Y000983D01*
X016377Y001010D01*
X016388Y001036D01*
X016402Y001060D01*
X016419Y001082D01*
X016439Y001102D01*
X016461Y001119D01*
X016485Y001133D01*
X016511Y001144D01*
X016538Y001151D01*
X016566Y001155D01*
X016716Y001155D01*
X016744Y001151D01*
X016771Y001144D01*
X016797Y001133D01*
X016821Y001119D01*
X016843Y001102D01*
X016863Y001082D01*
X016880Y001060D01*
X016894Y001036D01*
X016905Y001010D01*
X016912Y000983D01*
X016916Y000955D01*
X016916Y000927D01*
X022103Y000927D01*
X022103Y000955D01*
X022107Y000983D01*
X022114Y001010D01*
X022125Y001036D01*
X022139Y001060D01*
X022156Y001082D01*
X022176Y001102D01*
X022198Y001119D01*
X022222Y001133D01*
X022248Y001144D01*
X022275Y001151D01*
X022303Y001155D01*
X022453Y001155D01*
X022453Y001156D02*
X022482Y001152D01*
X022509Y001145D01*
X022535Y001135D01*
X022560Y001121D01*
X022583Y001104D01*
X022603Y001084D01*
X022621Y001062D01*
X022635Y001037D01*
X022647Y001011D01*
X022654Y000984D01*
X022658Y000956D01*
X022659Y000928D01*
X022658Y000927D02*
X031912Y000927D01*
X031957Y000928D01*
X032000Y000934D01*
X032044Y000943D01*
X032086Y000956D01*
X032127Y000972D01*
X032166Y000992D01*
X032204Y001015D01*
X032239Y001042D01*
X032272Y001071D01*
X032302Y001104D01*
X032329Y001138D01*
X032353Y001175D01*
X032374Y001214D01*
X032392Y001255D01*
X032405Y001297D01*
X032415Y001340D01*
X032422Y001383D01*
X032424Y001427D01*
X032423Y001427D02*
X032423Y018146D01*
X032424Y018146D02*
X032421Y018189D01*
X032415Y018233D01*
X032405Y018276D01*
X032391Y018318D01*
X032374Y018358D01*
X032353Y018397D01*
X032329Y018434D01*
X032302Y018469D01*
X032271Y018501D01*
X032239Y018530D01*
X032203Y018556D01*
X032166Y018580D01*
X032127Y018599D01*
X032086Y018616D01*
X032043Y018628D01*
X032000Y018637D01*
X031957Y018643D01*
X031912Y018644D01*
X001427Y018644D01*
X001383Y018642D01*
X001340Y018637D01*
X001298Y018627D01*
X001256Y018614D01*
X001216Y018598D01*
X001177Y018578D01*
X001141Y018554D01*
X001106Y018528D01*
X001074Y018499D01*
X001044Y018467D01*
X001018Y018432D01*
X000994Y018395D01*
X000974Y018357D01*
X000957Y018317D01*
X000944Y018275D01*
X000935Y018233D01*
X000929Y018189D01*
X000927Y018146D01*
X000927Y001427D01*
X000929Y001383D01*
X000935Y001340D01*
X000944Y001298D01*
X000957Y001256D01*
X000974Y001216D01*
X000994Y001177D01*
X001017Y001140D01*
X001044Y001106D01*
X001073Y001073D01*
X001106Y001044D01*
X001140Y001017D01*
X001177Y000994D01*
X001216Y000974D01*
X001256Y000957D01*
X001298Y000944D01*
X001340Y000935D01*
X001383Y000929D01*
X001427Y000927D01*
X009521Y002579D02*
X009521Y003914D01*
X010421Y003914D01*
X010421Y003659D01*
X010423Y003625D01*
X010429Y003592D01*
X010438Y003560D01*
X010451Y003529D01*
X010467Y003499D01*
X010486Y003472D01*
X010509Y003447D01*
X010534Y003424D01*
X010561Y003405D01*
X010591Y003389D01*
X010622Y003376D01*
X010654Y003367D01*
X010687Y003361D01*
X010721Y003359D01*
X011821Y003359D01*
X011851Y003361D01*
X011881Y003366D01*
X011910Y003375D01*
X011937Y003388D01*
X011963Y003403D01*
X011987Y003422D01*
X012008Y003443D01*
X012027Y003467D01*
X012042Y003493D01*
X012055Y003520D01*
X012064Y003549D01*
X012069Y003579D01*
X012071Y003609D01*
X012071Y006809D01*
X012069Y006839D01*
X012064Y006869D01*
X012055Y006898D01*
X012042Y006925D01*
X012027Y006951D01*
X012008Y006975D01*
X011987Y006996D01*
X011963Y007015D01*
X011937Y007030D01*
X011910Y007043D01*
X011881Y007052D01*
X011851Y007057D01*
X011821Y007059D01*
X011471Y007059D01*
X011441Y007061D01*
X011411Y007066D01*
X011382Y007075D01*
X011355Y007088D01*
X011329Y007103D01*
X011305Y007122D01*
X011284Y007143D01*
X011265Y007167D01*
X011250Y007193D01*
X011237Y007220D01*
X011228Y007249D01*
X011223Y007279D01*
X011221Y007309D01*
X011221Y009109D01*
X011223Y009139D01*
X011228Y009169D01*
X011237Y009198D01*
X011250Y009225D01*
X011265Y009251D01*
X011284Y009275D01*
X011305Y009296D01*
X011329Y009315D01*
X011355Y009330D01*
X011382Y009343D01*
X011411Y009352D01*
X011441Y009357D01*
X011471Y009359D01*
X013471Y009359D01*
X013499Y009358D01*
X013526Y009354D01*
X013553Y009347D01*
X013578Y009336D01*
X013602Y009322D01*
X013623Y009305D01*
X013643Y009285D01*
X013659Y009263D01*
X013673Y009239D01*
X013683Y009213D01*
X013690Y009186D01*
X013693Y009159D01*
X013693Y008015D01*
X013692Y007979D01*
X013695Y007944D01*
X013702Y007909D01*
X013712Y007875D01*
X013726Y007842D01*
X013743Y007810D01*
X013764Y007781D01*
X013787Y007754D01*
X013813Y007730D01*
X013841Y007708D01*
X013872Y007689D01*
X013904Y007674D01*
X013938Y007663D01*
X013973Y007654D01*
X014008Y007650D01*
X016403Y007650D01*
X016435Y007649D01*
X016467Y007646D01*
X016499Y007638D01*
X016530Y007627D01*
X016559Y007613D01*
X016586Y007595D01*
X016612Y007575D01*
X016635Y007552D01*
X016655Y007526D01*
X016672Y007499D01*
X016686Y007469D01*
X016696Y007438D01*
X016703Y007407D01*
X016707Y007374D01*
X016707Y005044D01*
X015862Y005044D01*
X015862Y005339D01*
X015860Y005364D01*
X015854Y005389D01*
X015845Y005412D01*
X015833Y005434D01*
X015818Y005453D01*
X015800Y005471D01*
X015780Y005485D01*
X015758Y005497D01*
X015734Y005506D01*
X015710Y005511D01*
X015685Y005512D01*
X015685Y005511D02*
X015095Y005511D01*
X015070Y005513D01*
X015046Y005519D01*
X015022Y005528D01*
X015000Y005540D01*
X014980Y005555D01*
X014963Y005573D01*
X014948Y005593D01*
X014936Y005616D01*
X014928Y005639D01*
X014923Y005664D01*
X014921Y005689D01*
X014921Y006589D01*
X014339Y006589D01*
X014340Y006589D02*
X014306Y006587D01*
X014272Y006581D01*
X014240Y006571D01*
X014208Y006559D01*
X014178Y006543D01*
X014150Y006524D01*
X014124Y006502D01*
X014101Y006478D01*
X014080Y006451D01*
X014062Y006422D01*
X014047Y006392D01*
X014035Y006360D01*
X014027Y006327D01*
X014022Y006293D01*
X014021Y006260D01*
X014021Y005789D01*
X014012Y005754D01*
X013999Y005720D01*
X013984Y005687D01*
X013966Y005656D01*
X013945Y005626D01*
X013922Y005598D01*
X013896Y005573D01*
X013868Y005550D01*
X013839Y005529D01*
X013807Y005511D01*
X013807Y005512D02*
X013757Y005474D01*
X013709Y005432D01*
X013664Y005389D01*
X013622Y005342D01*
X013582Y005293D01*
X013545Y005241D01*
X013512Y005188D01*
X013482Y005133D01*
X013455Y005075D01*
X013432Y005017D01*
X013412Y004957D01*
X013396Y004896D01*
X013384Y004834D01*
X013376Y004771D01*
X013371Y004708D01*
X013370Y004645D01*
X013373Y004582D01*
X013380Y004520D01*
X013390Y004457D01*
X013405Y004396D01*
X013423Y004336D01*
X013444Y004276D01*
X013470Y004218D01*
X013498Y004162D01*
X013530Y004108D01*
X013565Y004055D01*
X013604Y004005D01*
X013645Y003958D01*
X013689Y003913D01*
X013736Y003870D01*
X013785Y003831D01*
X013837Y003794D01*
X013890Y003761D01*
X013946Y003731D01*
X014003Y003705D01*
X014062Y003682D01*
X014122Y003662D01*
X014183Y003647D01*
X014245Y003635D01*
X014307Y003626D01*
X014370Y003622D01*
X014433Y003621D01*
X014496Y003624D01*
X014559Y003631D01*
X014621Y003642D01*
X014683Y003657D01*
X014743Y003675D01*
X014802Y003697D01*
X014860Y003722D01*
X015547Y003722D01*
X015580Y003721D01*
X015612Y003724D01*
X015644Y003730D01*
X015675Y003740D01*
X015705Y003753D01*
X015733Y003770D01*
X015759Y003789D01*
X015783Y003812D01*
X015804Y003837D01*
X015822Y003864D01*
X015837Y003893D01*
X015849Y003923D01*
X015857Y003955D01*
X015862Y003987D01*
X015862Y004254D01*
X016707Y004254D01*
X016707Y003122D01*
X016709Y003092D01*
X016714Y003062D01*
X016723Y003033D01*
X016736Y003006D01*
X016751Y002980D01*
X016770Y002956D01*
X016791Y002935D01*
X016815Y002916D01*
X016841Y002901D01*
X016868Y002888D01*
X016897Y002879D01*
X016927Y002874D01*
X016957Y002872D01*
X021818Y002959D01*
X022103Y002305D02*
X016916Y002305D01*
X016916Y002277D01*
X016912Y002249D01*
X016905Y002222D01*
X016894Y002196D01*
X016880Y002172D01*
X016863Y002150D01*
X016843Y002130D01*
X016821Y002113D01*
X016797Y002099D01*
X016771Y002088D01*
X016744Y002081D01*
X016716Y002077D01*
X016566Y002077D01*
X016538Y002081D01*
X016511Y002088D01*
X016485Y002099D01*
X016461Y002113D01*
X016439Y002130D01*
X016419Y002150D01*
X016402Y002172D01*
X016388Y002196D01*
X016377Y002222D01*
X016370Y002249D01*
X016366Y002277D01*
X016366Y002305D01*
X009861Y002305D01*
X009829Y002303D01*
X009797Y002305D01*
X009765Y002310D01*
X009733Y002318D01*
X009703Y002329D01*
X009674Y002344D01*
X009647Y002361D01*
X009622Y002382D01*
X009599Y002405D01*
X009579Y002430D01*
X009561Y002457D01*
X009546Y002485D01*
X009534Y002516D01*
X009526Y002547D01*
X009521Y002579D01*
X009521Y004702D02*
X009521Y007909D01*
X010421Y008509D02*
X010421Y004702D01*
X009521Y004702D01*
X009521Y007909D02*
X009524Y008093D01*
X009518Y008277D01*
X009505Y008460D01*
X009484Y008643D01*
X009455Y008824D01*
X009418Y009004D01*
X009374Y009183D01*
X009321Y009359D01*
X011051Y011649D02*
X010922Y011821D01*
X010784Y011987D01*
X010639Y012146D01*
X010486Y012297D01*
X010326Y012441D01*
X010159Y012578D01*
X009986Y012706D01*
X009807Y012825D01*
X009622Y012936D01*
X009432Y013038D01*
X009238Y013131D01*
X009040Y013214D01*
X008837Y013288D01*
X008631Y013352D01*
X008423Y013406D01*
X008212Y013450D01*
X008212Y013449D02*
X008212Y017454D01*
X008210Y017484D01*
X008204Y017513D01*
X008195Y017542D01*
X008183Y017569D01*
X008167Y017595D01*
X008148Y017618D01*
X008127Y017639D01*
X008103Y017657D01*
X008077Y017673D01*
X008050Y017685D01*
X008021Y017693D01*
X007992Y017698D01*
X007962Y017700D01*
X007962Y017699D02*
X006915Y017699D01*
X006915Y016609D01*
X007371Y016609D01*
X007401Y016607D01*
X007431Y016602D01*
X007460Y016593D01*
X007487Y016580D01*
X007513Y016565D01*
X007537Y016546D01*
X007558Y016525D01*
X007577Y016501D01*
X007592Y016475D01*
X007605Y016448D01*
X007614Y016419D01*
X007619Y016389D01*
X007621Y016359D01*
X007621Y014659D01*
X007619Y014629D01*
X007614Y014599D01*
X007605Y014570D01*
X007592Y014543D01*
X007577Y014517D01*
X007558Y014493D01*
X007537Y014472D01*
X007513Y014453D01*
X007487Y014438D01*
X007460Y014425D01*
X007431Y014416D01*
X007401Y014411D01*
X007371Y014409D01*
X006771Y014409D01*
X006741Y014407D01*
X006711Y014402D01*
X006682Y014393D01*
X006655Y014380D01*
X006629Y014365D01*
X006605Y014346D01*
X006584Y014325D01*
X006565Y014301D01*
X006550Y014275D01*
X006537Y014248D01*
X006528Y014219D01*
X006523Y014189D01*
X006521Y014159D01*
X006521Y013159D01*
X006523Y013129D01*
X006528Y013099D01*
X006537Y013070D01*
X006550Y013043D01*
X006565Y013017D01*
X006584Y012993D01*
X006605Y012972D01*
X006629Y012953D01*
X006655Y012938D01*
X006682Y012925D01*
X006711Y012916D01*
X006741Y012911D01*
X006771Y012909D01*
X007621Y012909D01*
X007271Y012059D02*
X005571Y012059D01*
X005541Y012061D01*
X005511Y012066D01*
X005482Y012075D01*
X005455Y012088D01*
X005429Y012103D01*
X005405Y012122D01*
X005384Y012143D01*
X005365Y012167D01*
X005350Y012193D01*
X005337Y012220D01*
X005328Y012249D01*
X005323Y012279D01*
X005321Y012309D01*
X005321Y014589D01*
X005319Y014643D01*
X005313Y014696D01*
X005304Y014748D01*
X005291Y014800D01*
X005274Y014851D01*
X005253Y014901D01*
X005229Y014948D01*
X005202Y014994D01*
X005171Y015038D01*
X005138Y015080D01*
X005101Y015119D01*
X005062Y015156D01*
X005020Y015189D01*
X004976Y015220D01*
X004930Y015247D01*
X004883Y015271D01*
X004833Y015292D01*
X004782Y015309D01*
X004730Y015322D01*
X004678Y015331D01*
X004625Y015337D01*
X004571Y015339D01*
X003321Y015339D01*
X002781Y014739D02*
X002735Y014744D01*
X002690Y014753D01*
X002645Y014765D01*
X002601Y014780D01*
X002559Y014799D01*
X002518Y014822D01*
X002479Y014847D01*
X002442Y014875D01*
X002408Y014906D01*
X002376Y014940D01*
X002347Y014976D01*
X002321Y015015D01*
X002297Y015055D01*
X002278Y015097D01*
X002261Y015140D01*
X002248Y015185D01*
X002238Y015230D01*
X002232Y015276D01*
X002230Y015322D01*
X002231Y015369D01*
X002231Y015368D02*
X002231Y017149D01*
X002233Y017194D01*
X002239Y017240D01*
X002248Y017284D01*
X002261Y017328D01*
X002277Y017370D01*
X002297Y017411D01*
X002321Y017450D01*
X002347Y017487D01*
X002376Y017522D01*
X002408Y017554D01*
X002443Y017583D01*
X002480Y017609D01*
X002519Y017633D01*
X002560Y017653D01*
X002602Y017669D01*
X002646Y017682D01*
X002690Y017691D01*
X002736Y017697D01*
X002781Y017699D01*
X006127Y017699D01*
X006127Y016609D01*
X005471Y016609D01*
X005448Y016611D01*
X005425Y016616D01*
X005403Y016625D01*
X005383Y016638D01*
X005365Y016653D01*
X005350Y016671D01*
X005337Y016691D01*
X005328Y016713D01*
X005323Y016736D01*
X005321Y016759D01*
X005321Y017059D01*
X005319Y017082D01*
X005314Y017105D01*
X005305Y017127D01*
X005292Y017147D01*
X005277Y017165D01*
X005259Y017180D01*
X005239Y017193D01*
X005217Y017202D01*
X005194Y017207D01*
X005171Y017209D01*
X003321Y017209D01*
X003276Y017207D01*
X003230Y017201D01*
X003186Y017192D01*
X003142Y017179D01*
X003100Y017163D01*
X003059Y017143D01*
X003020Y017119D01*
X002983Y017093D01*
X002948Y017064D01*
X002916Y017032D01*
X002887Y016997D01*
X002861Y016960D01*
X002837Y016921D01*
X002817Y016880D01*
X002801Y016838D01*
X002788Y016794D01*
X002779Y016750D01*
X002773Y016704D01*
X002771Y016659D01*
X002771Y015889D01*
X002773Y015844D01*
X002779Y015798D01*
X002788Y015754D01*
X002801Y015710D01*
X002817Y015668D01*
X002837Y015627D01*
X002861Y015588D01*
X002887Y015551D01*
X002916Y015516D01*
X002948Y015484D01*
X002983Y015455D01*
X003020Y015429D01*
X003059Y015405D01*
X003100Y015385D01*
X003142Y015369D01*
X003186Y015356D01*
X003230Y015347D01*
X003276Y015341D01*
X003321Y015339D01*
X002781Y014739D02*
X003971Y014739D01*
X004025Y014737D01*
X004078Y014731D01*
X004130Y014722D01*
X004182Y014709D01*
X004233Y014692D01*
X004283Y014671D01*
X004330Y014647D01*
X004376Y014620D01*
X004420Y014589D01*
X004462Y014556D01*
X004501Y014519D01*
X004538Y014480D01*
X004571Y014438D01*
X004602Y014394D01*
X004629Y014348D01*
X004653Y014301D01*
X004674Y014251D01*
X004691Y014200D01*
X004704Y014148D01*
X004713Y014096D01*
X004719Y014043D01*
X004721Y013989D01*
X004721Y011509D01*
X004723Y011479D01*
X004728Y011449D01*
X004737Y011420D01*
X004750Y011393D01*
X004765Y011367D01*
X004784Y011343D01*
X004805Y011322D01*
X004829Y011303D01*
X004855Y011288D01*
X004882Y011275D01*
X004911Y011266D01*
X004941Y011261D01*
X004971Y011259D01*
X006871Y011259D01*
X010721Y010653D02*
X013671Y010653D01*
X013695Y010655D01*
X013718Y010661D01*
X013740Y010671D01*
X013760Y010684D01*
X013778Y010700D01*
X013794Y010719D01*
X013806Y010739D01*
X013814Y010762D01*
X013820Y010785D01*
X013821Y010809D01*
X013823Y010826D01*
X013827Y010843D01*
X013834Y010859D01*
X013844Y010873D01*
X013857Y010886D01*
X013871Y010896D01*
X013887Y010903D01*
X013904Y010907D01*
X013921Y010909D01*
X014671Y010909D01*
X014688Y010907D01*
X014705Y010903D01*
X014721Y010896D01*
X014735Y010886D01*
X014748Y010873D01*
X014758Y010859D01*
X014765Y010843D01*
X014769Y010826D01*
X014771Y010809D01*
X014772Y010809D02*
X014773Y010785D01*
X014779Y010762D01*
X014787Y010739D01*
X014799Y010719D01*
X014815Y010700D01*
X014833Y010684D01*
X014853Y010671D01*
X014875Y010661D01*
X014898Y010655D01*
X014922Y010653D01*
X014921Y010653D02*
X017312Y010653D01*
X017335Y010655D01*
X017358Y010660D01*
X017380Y010669D01*
X017400Y010682D01*
X017418Y010697D01*
X017433Y010715D01*
X017446Y010735D01*
X017455Y010757D01*
X017460Y010780D01*
X017462Y010803D01*
X017462Y011240D01*
X017465Y011271D01*
X017473Y011302D01*
X017484Y011332D01*
X017498Y011360D01*
X017515Y011387D01*
X017535Y011411D01*
X017557Y011433D01*
X017582Y011453D01*
X017609Y011469D01*
X017638Y011483D01*
X017668Y011493D01*
X017699Y011499D01*
X017730Y011503D01*
X017762Y011502D01*
X017762Y011503D02*
X018477Y011503D01*
X018477Y012853D01*
X016912Y012853D01*
X016912Y012852D02*
X016881Y012853D01*
X016851Y012849D01*
X016822Y012842D01*
X016794Y012831D01*
X016767Y012816D01*
X016743Y012798D01*
X016721Y012777D01*
X016702Y012753D01*
X016687Y012727D01*
X016674Y012699D01*
X016666Y012670D01*
X016662Y012640D01*
X016662Y011803D01*
X016660Y011779D01*
X016655Y011756D01*
X016646Y011733D01*
X016634Y011713D01*
X016619Y011695D01*
X016601Y011679D01*
X016580Y011666D01*
X016558Y011657D01*
X016535Y011651D01*
X016512Y011649D01*
X011051Y011649D01*
X010221Y009659D02*
X010268Y009520D01*
X010308Y009379D01*
X010342Y009236D01*
X010371Y009093D01*
X010393Y008948D01*
X010408Y008802D01*
X010418Y008656D01*
X010421Y008509D01*
X010721Y010653D02*
X010610Y010843D01*
X010490Y011027D01*
X010361Y011205D01*
X010224Y011377D01*
X010078Y011541D01*
X009925Y011699D01*
X009764Y011849D01*
X009596Y011991D01*
X009421Y012124D01*
X009240Y012250D01*
X009054Y012366D01*
X008862Y012473D01*
X008664Y012570D01*
X008463Y012658D01*
X008257Y012736D01*
X008048Y012804D01*
X007836Y012862D01*
X007621Y012909D01*
X004121Y016209D02*
X004121Y016359D01*
X004119Y016398D01*
X004113Y016437D01*
X004104Y016475D01*
X004091Y016512D01*
X004074Y016548D01*
X004054Y016581D01*
X004030Y016613D01*
X004004Y016642D01*
X003975Y016668D01*
X003943Y016692D01*
X003910Y016712D01*
X003874Y016729D01*
X003837Y016742D01*
X003799Y016751D01*
X003760Y016757D01*
X003721Y016759D01*
X003682Y016757D01*
X003643Y016751D01*
X003605Y016742D01*
X003568Y016729D01*
X003532Y016712D01*
X003499Y016692D01*
X003467Y016668D01*
X003438Y016642D01*
X003412Y016613D01*
X003388Y016581D01*
X003368Y016548D01*
X003351Y016512D01*
X003338Y016475D01*
X003329Y016437D01*
X003323Y016398D01*
X003321Y016359D01*
X003321Y016209D01*
X003323Y016170D01*
X003329Y016131D01*
X003338Y016093D01*
X003351Y016056D01*
X003368Y016020D01*
X003388Y015987D01*
X003412Y015955D01*
X003438Y015926D01*
X003467Y015900D01*
X003499Y015876D01*
X003532Y015856D01*
X003568Y015839D01*
X003605Y015826D01*
X003643Y015817D01*
X003682Y015811D01*
X003721Y015809D01*
X003760Y015811D01*
X003799Y015817D01*
X003837Y015826D01*
X003874Y015839D01*
X003910Y015856D01*
X003943Y015876D01*
X003975Y015900D01*
X004004Y015926D01*
X004030Y015955D01*
X004054Y015987D01*
X004074Y016020D01*
X004091Y016056D01*
X004104Y016093D01*
X004113Y016131D01*
X004119Y016170D01*
X004121Y016209D01*
X007271Y012059D02*
X007442Y012030D01*
X007612Y011994D01*
X007780Y011949D01*
X007946Y011897D01*
X008109Y011837D01*
X008269Y011769D01*
X008425Y011694D01*
X008578Y011611D01*
X008727Y011522D01*
X008871Y011425D01*
X009011Y011322D01*
X009146Y011212D01*
X009275Y011097D01*
X009399Y010975D01*
X009517Y010847D01*
X009629Y010714D01*
X009734Y010576D01*
X009833Y010434D01*
X009925Y010286D01*
X010010Y010135D01*
X010088Y009980D01*
X010158Y009821D01*
X010221Y009659D01*
X009321Y009359D02*
X009267Y009490D01*
X009206Y009618D01*
X009140Y009743D01*
X009068Y009865D01*
X008990Y009983D01*
X008907Y010097D01*
X008818Y010208D01*
X008725Y010314D01*
X008626Y010416D01*
X008523Y010513D01*
X008415Y010605D01*
X008303Y010691D01*
X008187Y010773D01*
X008068Y010849D01*
X007945Y010919D01*
X007819Y010983D01*
X007690Y011041D01*
X007558Y011094D01*
X007424Y011139D01*
X007288Y011179D01*
X007150Y011212D01*
X007011Y011239D01*
X006871Y011259D01*
X019265Y011503D02*
X019265Y012853D01*
X023232Y012853D01*
X023233Y012853D02*
X023276Y012844D01*
X023320Y012833D01*
X023362Y012817D01*
X023402Y012799D01*
X023441Y012777D01*
X023478Y012752D01*
X023513Y012724D01*
X023545Y012693D01*
X023575Y012659D01*
X023602Y012623D01*
X023626Y012586D01*
X023646Y012546D01*
X023663Y012505D01*
X023677Y012462D01*
X023687Y012419D01*
X023694Y012374D01*
X023697Y012330D01*
X023696Y012285D01*
X023692Y012240D01*
X023692Y010486D01*
X023694Y010440D01*
X023700Y010394D01*
X023710Y010350D01*
X023724Y010306D01*
X023741Y010263D01*
X023761Y010223D01*
X023785Y010183D01*
X023812Y010146D01*
X023842Y010112D01*
X023875Y010080D01*
X023910Y010050D01*
X023948Y010024D01*
X023987Y010001D01*
X024028Y009981D01*
X024071Y009965D01*
X024115Y009953D01*
X024160Y009944D01*
X024206Y009938D01*
X024251Y009937D01*
X030612Y009937D01*
X030655Y009935D01*
X030698Y009929D01*
X030741Y009920D01*
X030782Y009907D01*
X030822Y009890D01*
X030861Y009870D01*
X030897Y009847D01*
X030931Y009821D01*
X030963Y009791D01*
X030993Y009759D01*
X031019Y009725D01*
X031042Y009688D01*
X031062Y009650D01*
X031079Y009610D01*
X031092Y009569D01*
X031101Y009526D01*
X031107Y009483D01*
X031109Y009440D01*
X031109Y006704D01*
X030321Y006704D01*
X030321Y008259D01*
X030319Y008293D01*
X030313Y008326D01*
X030304Y008358D01*
X030291Y008389D01*
X030275Y008419D01*
X030256Y008446D01*
X030233Y008471D01*
X030208Y008494D01*
X030181Y008513D01*
X030151Y008529D01*
X030120Y008542D01*
X030088Y008551D01*
X030055Y008557D01*
X030021Y008559D01*
X029521Y008559D01*
X029522Y008559D02*
X029504Y008561D01*
X029487Y008566D01*
X029471Y008574D01*
X029456Y008585D01*
X029444Y008598D01*
X029434Y008613D01*
X029427Y008630D01*
X029423Y008647D01*
X029422Y008665D01*
X029421Y008665D02*
X029419Y008682D01*
X029415Y008699D01*
X029408Y008715D01*
X029398Y008729D01*
X029385Y008742D01*
X029371Y008752D01*
X029355Y008759D01*
X029338Y008763D01*
X029321Y008765D01*
X028421Y008765D01*
X028404Y008763D01*
X028387Y008759D01*
X028371Y008752D01*
X028357Y008742D01*
X028344Y008729D01*
X028334Y008715D01*
X028327Y008699D01*
X028323Y008682D01*
X028321Y008665D01*
X028320Y008647D01*
X028316Y008630D01*
X028309Y008613D01*
X028299Y008598D01*
X028287Y008585D01*
X028272Y008574D01*
X028256Y008566D01*
X028239Y008561D01*
X028221Y008559D01*
X024061Y008559D01*
X023994Y008560D01*
X023927Y008566D01*
X023860Y008575D01*
X023794Y008588D01*
X023728Y008605D01*
X023664Y008625D01*
X023601Y008650D01*
X023540Y008678D01*
X023480Y008709D01*
X023423Y008744D01*
X023367Y008782D01*
X023314Y008824D01*
X023263Y008868D01*
X023215Y008915D01*
X023170Y008965D01*
X023127Y009018D01*
X023088Y009073D01*
X023052Y009130D01*
X023020Y009189D01*
X022991Y009250D01*
X022965Y009312D01*
X022944Y009376D01*
X022926Y009441D01*
X022911Y009507D01*
X022901Y009573D01*
X022895Y009640D01*
X022892Y009708D01*
X022892Y011353D01*
X022887Y011378D01*
X022878Y011401D01*
X022866Y011424D01*
X022851Y011444D01*
X022833Y011462D01*
X022813Y011477D01*
X022791Y011489D01*
X022767Y011498D01*
X022742Y011503D01*
X022717Y011505D01*
X022692Y011503D01*
X019265Y011503D01*
X029321Y004259D02*
X029387Y004273D01*
X029453Y004291D01*
X029517Y004312D01*
X029580Y004337D01*
X029642Y004365D01*
X029702Y004397D01*
X029760Y004432D01*
X029816Y004470D01*
X029870Y004512D01*
X029921Y004556D01*
X029970Y004603D01*
X030016Y004652D01*
X030060Y004704D01*
X030100Y004759D01*
X030137Y004815D01*
X030172Y004874D01*
X030202Y004934D01*
X030230Y004996D01*
X030254Y005060D01*
X030274Y005124D01*
X030291Y005190D01*
X030304Y005257D01*
X030313Y005324D01*
X030319Y005391D01*
X030321Y005459D01*
X030321Y005916D01*
X031109Y005916D01*
X031109Y004959D01*
X031106Y004890D01*
X031099Y004821D01*
X031088Y004753D01*
X031073Y004686D01*
X031055Y004620D01*
X031033Y004554D01*
X031008Y004490D01*
X030979Y004428D01*
X030946Y004367D01*
X030910Y004308D01*
X030872Y004252D01*
X030829Y004197D01*
X030784Y004145D01*
X030737Y004095D01*
X030686Y004049D01*
X030633Y004005D01*
X030578Y003964D01*
X030520Y003926D01*
X030460Y003892D01*
X030399Y003861D01*
X030336Y003833D01*
X030271Y003809D01*
X030206Y003788D01*
X030139Y003772D01*
X030071Y003758D01*
X022659Y002305D02*
X022658Y002277D01*
X022654Y002249D01*
X022647Y002222D01*
X022635Y002196D01*
X022621Y002171D01*
X022603Y002149D01*
X022583Y002129D01*
X022560Y002112D01*
X022535Y002098D01*
X022509Y002088D01*
X022482Y002081D01*
X022453Y002077D01*
X022303Y002077D01*
X022275Y002081D01*
X022248Y002088D01*
X022222Y002099D01*
X022198Y002113D01*
X022176Y002130D01*
X022156Y002150D01*
X022139Y002172D01*
X022125Y002196D01*
X022114Y002222D01*
X022107Y002249D01*
X022103Y002277D01*
X022103Y002305D01*
X022658Y002306D02*
X024534Y002548D01*
X026397Y002871D01*
X028244Y003275D01*
X030072Y003759D01*
X029321Y004260D02*
X027468Y003812D01*
X025598Y003446D01*
X023713Y003161D01*
X021818Y002959D01*
D11*
X030698Y001321D02*
X030700Y001351D01*
X030706Y001380D01*
X030715Y001408D01*
X030728Y001434D01*
X030745Y001459D01*
X030764Y001482D01*
X030787Y001501D01*
X030811Y001518D01*
X030838Y001531D01*
X030866Y001540D01*
X030895Y001546D01*
X030925Y001548D01*
X030955Y001546D01*
X030984Y001540D01*
X031012Y001531D01*
X031038Y001518D01*
X031063Y001501D01*
X031086Y001482D01*
X031105Y001459D01*
X031122Y001435D01*
X031135Y001408D01*
X031144Y001380D01*
X031150Y001351D01*
X031152Y001321D01*
X031150Y001291D01*
X031144Y001262D01*
X031135Y001234D01*
X031122Y001208D01*
X031105Y001183D01*
X031086Y001160D01*
X031063Y001141D01*
X031039Y001124D01*
X031012Y001111D01*
X030984Y001102D01*
X030955Y001096D01*
X030925Y001094D01*
X030895Y001096D01*
X030866Y001102D01*
X030838Y001111D01*
X030812Y001124D01*
X030787Y001141D01*
X030764Y001160D01*
X030745Y001183D01*
X030728Y001207D01*
X030715Y001234D01*
X030706Y001262D01*
X030700Y001291D01*
X030698Y001321D01*
X030718Y002959D02*
X030720Y003007D01*
X030726Y003055D01*
X030736Y003102D01*
X030749Y003148D01*
X030767Y003193D01*
X030787Y003237D01*
X030812Y003279D01*
X030840Y003318D01*
X030870Y003355D01*
X030904Y003389D01*
X030941Y003421D01*
X030979Y003450D01*
X031020Y003475D01*
X031063Y003497D01*
X031108Y003515D01*
X031154Y003529D01*
X031201Y003540D01*
X031249Y003547D01*
X031297Y003550D01*
X031345Y003549D01*
X031393Y003544D01*
X031441Y003535D01*
X031487Y003523D01*
X031532Y003506D01*
X031576Y003486D01*
X031618Y003463D01*
X031658Y003436D01*
X031696Y003406D01*
X031731Y003373D01*
X031763Y003337D01*
X031793Y003299D01*
X031819Y003258D01*
X031841Y003215D01*
X031861Y003171D01*
X031876Y003126D01*
X031888Y003079D01*
X031896Y003031D01*
X031900Y002983D01*
X031900Y002935D01*
X031896Y002887D01*
X031888Y002839D01*
X031876Y002792D01*
X031861Y002747D01*
X031841Y002703D01*
X031819Y002660D01*
X031793Y002619D01*
X031763Y002581D01*
X031731Y002545D01*
X031696Y002512D01*
X031658Y002482D01*
X031618Y002455D01*
X031576Y002432D01*
X031532Y002412D01*
X031487Y002395D01*
X031441Y002383D01*
X031393Y002374D01*
X031345Y002369D01*
X031297Y002368D01*
X031249Y002371D01*
X031201Y002378D01*
X031154Y002389D01*
X031108Y002403D01*
X031063Y002421D01*
X031020Y002443D01*
X030979Y002468D01*
X030941Y002497D01*
X030904Y002529D01*
X030870Y002563D01*
X030840Y002600D01*
X030812Y002639D01*
X030787Y002681D01*
X030767Y002725D01*
X030749Y002770D01*
X030736Y002816D01*
X030726Y002863D01*
X030720Y002911D01*
X030718Y002959D01*
X030718Y012459D02*
X030720Y012507D01*
X030726Y012555D01*
X030736Y012602D01*
X030749Y012648D01*
X030767Y012693D01*
X030787Y012737D01*
X030812Y012779D01*
X030840Y012818D01*
X030870Y012855D01*
X030904Y012889D01*
X030941Y012921D01*
X030979Y012950D01*
X031020Y012975D01*
X031063Y012997D01*
X031108Y013015D01*
X031154Y013029D01*
X031201Y013040D01*
X031249Y013047D01*
X031297Y013050D01*
X031345Y013049D01*
X031393Y013044D01*
X031441Y013035D01*
X031487Y013023D01*
X031532Y013006D01*
X031576Y012986D01*
X031618Y012963D01*
X031658Y012936D01*
X031696Y012906D01*
X031731Y012873D01*
X031763Y012837D01*
X031793Y012799D01*
X031819Y012758D01*
X031841Y012715D01*
X031861Y012671D01*
X031876Y012626D01*
X031888Y012579D01*
X031896Y012531D01*
X031900Y012483D01*
X031900Y012435D01*
X031896Y012387D01*
X031888Y012339D01*
X031876Y012292D01*
X031861Y012247D01*
X031841Y012203D01*
X031819Y012160D01*
X031793Y012119D01*
X031763Y012081D01*
X031731Y012045D01*
X031696Y012012D01*
X031658Y011982D01*
X031618Y011955D01*
X031576Y011932D01*
X031532Y011912D01*
X031487Y011895D01*
X031441Y011883D01*
X031393Y011874D01*
X031345Y011869D01*
X031297Y011868D01*
X031249Y011871D01*
X031201Y011878D01*
X031154Y011889D01*
X031108Y011903D01*
X031063Y011921D01*
X031020Y011943D01*
X030979Y011968D01*
X030941Y011997D01*
X030904Y012029D01*
X030870Y012063D01*
X030840Y012100D01*
X030812Y012139D01*
X030787Y012181D01*
X030767Y012225D01*
X030749Y012270D01*
X030736Y012316D01*
X030726Y012363D01*
X030720Y012411D01*
X030718Y012459D01*
X001440Y012459D02*
X001442Y012507D01*
X001448Y012555D01*
X001458Y012602D01*
X001471Y012648D01*
X001489Y012693D01*
X001509Y012737D01*
X001534Y012779D01*
X001562Y012818D01*
X001592Y012855D01*
X001626Y012889D01*
X001663Y012921D01*
X001701Y012950D01*
X001742Y012975D01*
X001785Y012997D01*
X001830Y013015D01*
X001876Y013029D01*
X001923Y013040D01*
X001971Y013047D01*
X002019Y013050D01*
X002067Y013049D01*
X002115Y013044D01*
X002163Y013035D01*
X002209Y013023D01*
X002254Y013006D01*
X002298Y012986D01*
X002340Y012963D01*
X002380Y012936D01*
X002418Y012906D01*
X002453Y012873D01*
X002485Y012837D01*
X002515Y012799D01*
X002541Y012758D01*
X002563Y012715D01*
X002583Y012671D01*
X002598Y012626D01*
X002610Y012579D01*
X002618Y012531D01*
X002622Y012483D01*
X002622Y012435D01*
X002618Y012387D01*
X002610Y012339D01*
X002598Y012292D01*
X002583Y012247D01*
X002563Y012203D01*
X002541Y012160D01*
X002515Y012119D01*
X002485Y012081D01*
X002453Y012045D01*
X002418Y012012D01*
X002380Y011982D01*
X002340Y011955D01*
X002298Y011932D01*
X002254Y011912D01*
X002209Y011895D01*
X002163Y011883D01*
X002115Y011874D01*
X002067Y011869D01*
X002019Y011868D01*
X001971Y011871D01*
X001923Y011878D01*
X001876Y011889D01*
X001830Y011903D01*
X001785Y011921D01*
X001742Y011943D01*
X001701Y011968D01*
X001663Y011997D01*
X001626Y012029D01*
X001592Y012063D01*
X001562Y012100D01*
X001534Y012139D01*
X001509Y012181D01*
X001489Y012225D01*
X001471Y012270D01*
X001458Y012316D01*
X001448Y012363D01*
X001442Y012411D01*
X001440Y012459D01*
X001094Y017183D02*
X001096Y017213D01*
X001102Y017242D01*
X001111Y017270D01*
X001124Y017296D01*
X001141Y017321D01*
X001160Y017344D01*
X001183Y017363D01*
X001207Y017380D01*
X001234Y017393D01*
X001262Y017402D01*
X001291Y017408D01*
X001321Y017410D01*
X001351Y017408D01*
X001380Y017402D01*
X001408Y017393D01*
X001434Y017380D01*
X001459Y017363D01*
X001482Y017344D01*
X001501Y017321D01*
X001518Y017297D01*
X001531Y017270D01*
X001540Y017242D01*
X001546Y017213D01*
X001548Y017183D01*
X001546Y017153D01*
X001540Y017124D01*
X001531Y017096D01*
X001518Y017070D01*
X001501Y017045D01*
X001482Y017022D01*
X001459Y017003D01*
X001435Y016986D01*
X001408Y016973D01*
X001380Y016964D01*
X001351Y016958D01*
X001321Y016956D01*
X001291Y016958D01*
X001262Y016964D01*
X001234Y016973D01*
X001208Y016986D01*
X001183Y017003D01*
X001160Y017022D01*
X001141Y017045D01*
X001124Y017069D01*
X001111Y017096D01*
X001102Y017124D01*
X001096Y017153D01*
X001094Y017183D01*
X001440Y002959D02*
X001442Y003007D01*
X001448Y003055D01*
X001458Y003102D01*
X001471Y003148D01*
X001489Y003193D01*
X001509Y003237D01*
X001534Y003279D01*
X001562Y003318D01*
X001592Y003355D01*
X001626Y003389D01*
X001663Y003421D01*
X001701Y003450D01*
X001742Y003475D01*
X001785Y003497D01*
X001830Y003515D01*
X001876Y003529D01*
X001923Y003540D01*
X001971Y003547D01*
X002019Y003550D01*
X002067Y003549D01*
X002115Y003544D01*
X002163Y003535D01*
X002209Y003523D01*
X002254Y003506D01*
X002298Y003486D01*
X002340Y003463D01*
X002380Y003436D01*
X002418Y003406D01*
X002453Y003373D01*
X002485Y003337D01*
X002515Y003299D01*
X002541Y003258D01*
X002563Y003215D01*
X002583Y003171D01*
X002598Y003126D01*
X002610Y003079D01*
X002618Y003031D01*
X002622Y002983D01*
X002622Y002935D01*
X002618Y002887D01*
X002610Y002839D01*
X002598Y002792D01*
X002583Y002747D01*
X002563Y002703D01*
X002541Y002660D01*
X002515Y002619D01*
X002485Y002581D01*
X002453Y002545D01*
X002418Y002512D01*
X002380Y002482D01*
X002340Y002455D01*
X002298Y002432D01*
X002254Y002412D01*
X002209Y002395D01*
X002163Y002383D01*
X002115Y002374D01*
X002067Y002369D01*
X002019Y002368D01*
X001971Y002371D01*
X001923Y002378D01*
X001876Y002389D01*
X001830Y002403D01*
X001785Y002421D01*
X001742Y002443D01*
X001701Y002468D01*
X001663Y002497D01*
X001626Y002529D01*
X001592Y002563D01*
X001562Y002600D01*
X001534Y002639D01*
X001509Y002681D01*
X001489Y002725D01*
X001471Y002770D01*
X001458Y002816D01*
X001448Y002863D01*
X001442Y002911D01*
X001440Y002959D01*
D12*
X017731Y003136D02*
X017731Y003380D01*
X017732Y003380D02*
X017734Y003400D01*
X017739Y003419D01*
X017748Y003437D01*
X017760Y003453D01*
X017775Y003466D01*
X017792Y003477D01*
X017810Y003484D01*
X017830Y003488D01*
X017850Y003488D01*
X017870Y003484D01*
X017888Y003477D01*
X017905Y003466D01*
X017920Y003453D01*
X017932Y003437D01*
X017941Y003419D01*
X017946Y003400D01*
X017948Y003380D01*
X017948Y003136D01*
X017946Y003116D01*
X017941Y003097D01*
X017932Y003079D01*
X017920Y003063D01*
X017905Y003050D01*
X017888Y003039D01*
X017870Y003032D01*
X017850Y003028D01*
X017830Y003028D01*
X017810Y003032D01*
X017792Y003039D01*
X017775Y003050D01*
X017760Y003063D01*
X017748Y003079D01*
X017739Y003097D01*
X017734Y003116D01*
X017732Y003136D01*
X017731Y004632D02*
X017731Y004876D01*
X017732Y004876D02*
X017734Y004896D01*
X017739Y004915D01*
X017748Y004933D01*
X017760Y004949D01*
X017775Y004962D01*
X017792Y004973D01*
X017810Y004980D01*
X017830Y004984D01*
X017850Y004984D01*
X017870Y004980D01*
X017888Y004973D01*
X017905Y004962D01*
X017920Y004949D01*
X017932Y004933D01*
X017941Y004915D01*
X017946Y004896D01*
X017948Y004876D01*
X017948Y004632D01*
X017946Y004612D01*
X017941Y004593D01*
X017932Y004575D01*
X017920Y004559D01*
X017905Y004546D01*
X017888Y004535D01*
X017870Y004528D01*
X017850Y004524D01*
X017830Y004524D01*
X017810Y004528D01*
X017792Y004535D01*
X017775Y004546D01*
X017760Y004559D01*
X017748Y004575D01*
X017739Y004593D01*
X017734Y004612D01*
X017732Y004632D01*
X021133Y004632D02*
X021133Y004876D01*
X021135Y004896D01*
X021140Y004915D01*
X021149Y004933D01*
X021161Y004949D01*
X021176Y004962D01*
X021193Y004973D01*
X021211Y004980D01*
X021231Y004984D01*
X021251Y004984D01*
X021271Y004980D01*
X021289Y004973D01*
X021306Y004962D01*
X021321Y004949D01*
X021333Y004933D01*
X021342Y004915D01*
X021347Y004896D01*
X021349Y004876D01*
X021349Y004632D01*
X021347Y004612D01*
X021342Y004593D01*
X021333Y004575D01*
X021321Y004559D01*
X021306Y004546D01*
X021289Y004535D01*
X021271Y004528D01*
X021251Y004524D01*
X021231Y004524D01*
X021211Y004528D01*
X021193Y004535D01*
X021176Y004546D01*
X021161Y004559D01*
X021149Y004575D01*
X021140Y004593D01*
X021135Y004612D01*
X021133Y004632D01*
X021133Y003380D02*
X021133Y003136D01*
X021135Y003116D01*
X021140Y003097D01*
X021149Y003079D01*
X021161Y003063D01*
X021176Y003050D01*
X021193Y003039D01*
X021211Y003032D01*
X021231Y003028D01*
X021251Y003028D01*
X021271Y003032D01*
X021289Y003039D01*
X021306Y003050D01*
X021321Y003063D01*
X021333Y003079D01*
X021342Y003097D01*
X021347Y003116D01*
X021349Y003136D01*
X021349Y003380D01*
X021347Y003400D01*
X021342Y003419D01*
X021333Y003437D01*
X021321Y003453D01*
X021306Y003466D01*
X021289Y003477D01*
X021271Y003484D01*
X021251Y003488D01*
X021231Y003488D01*
X021211Y003484D01*
X021193Y003477D01*
X021176Y003466D01*
X021161Y003453D01*
X021149Y003437D01*
X021140Y003419D01*
X021135Y003400D01*
X021133Y003380D01*
D13*
X021241Y003138D02*
X021241Y003138D01*
X021241Y003374D01*
X021241Y003374D01*
X021241Y003138D01*
X021241Y004634D02*
X021241Y004634D01*
X021241Y004870D01*
X021241Y004870D01*
X021241Y004634D01*
X017840Y004634D02*
X017840Y004634D01*
X017840Y004870D01*
X017840Y004870D01*
X017840Y004634D01*
X017840Y003138D02*
X017840Y003138D01*
X017840Y003374D01*
X017840Y003374D01*
X017840Y003138D01*
D14*
X014862Y004634D03*
D15*
X014871Y006121D03*
D16*
X022121Y008759D03*
X028871Y008709D03*
X028871Y006709D03*
D17*
X028871Y006584D03*
X028871Y006459D03*
X022121Y008884D03*
X022121Y009009D03*
D18*
X014291Y010919D03*
D19*
X008099Y004809D03*
X008099Y003809D03*
X026599Y011959D03*
X027599Y011959D03*
X028599Y011959D03*
X028599Y012959D03*
X027599Y012959D03*
X026599Y012959D03*
D20*
X013704Y008672D03*
D21*
X013722Y008672D01*
X013727Y008677D01*
X014821Y008683D02*
X014821Y009113D01*
X014826Y009126D01*
X014821Y009172D01*
X014821Y009219D01*
X014816Y009231D01*
X014808Y009325D01*
X014690Y009579D01*
X014491Y009777D01*
X014237Y009896D01*
X014144Y009904D01*
X014131Y009909D01*
X014085Y009909D01*
X014038Y009913D01*
X014025Y009909D01*
X010725Y009909D01*
X010721Y009917D01*
X010721Y009919D01*
X010699Y009972D01*
X010678Y010026D01*
X010677Y010027D01*
X010562Y010315D01*
X010170Y010946D01*
X009675Y011500D01*
X009092Y011959D01*
X008437Y012310D01*
X007732Y012542D01*
X007402Y012590D01*
X007381Y012598D01*
X007343Y012598D01*
X007305Y012604D01*
X007284Y012598D01*
X005970Y012598D01*
X005959Y012602D01*
X005910Y012598D01*
X005890Y012598D01*
X005878Y012602D01*
X005868Y012611D01*
X005861Y012624D01*
X005861Y012626D01*
X005861Y015957D01*
X005879Y015975D01*
X005936Y016113D01*
X005936Y016262D01*
X005902Y016344D01*
X006179Y016344D01*
X006277Y016384D01*
X006351Y016459D01*
X006392Y016556D01*
X006392Y017752D01*
X006351Y017850D01*
X006277Y017924D01*
X006179Y017964D01*
X002619Y017964D01*
X002319Y017840D01*
X002090Y017611D01*
X001966Y017312D01*
X001966Y015377D01*
X001955Y015216D01*
X002064Y014894D01*
X002064Y014894D01*
X002288Y014637D01*
X002288Y014637D01*
X002593Y014486D01*
X002593Y014486D01*
X002720Y014477D01*
X002728Y014474D01*
X002772Y014474D01*
X002816Y014471D01*
X002824Y014474D01*
X003971Y014474D01*
X004047Y014468D01*
X004192Y014421D01*
X004314Y014332D01*
X004404Y014209D01*
X004451Y014065D01*
X004456Y013989D01*
X004456Y011406D01*
X004535Y011217D01*
X004680Y011072D01*
X004869Y010994D01*
X006851Y010994D01*
X007133Y010945D01*
X007693Y010750D01*
X008198Y010439D01*
X008624Y010027D01*
X008952Y009534D01*
X009071Y009270D01*
X009160Y008946D01*
X009254Y008263D01*
X009256Y007939D01*
X009256Y007914D01*
X001192Y007914D01*
X001192Y007992D02*
X009256Y007992D01*
X009256Y007914D02*
X009255Y007866D01*
X009256Y007861D01*
X009256Y004688D01*
X008563Y004688D01*
X008574Y004714D01*
X008574Y004903D01*
X008502Y005078D01*
X008368Y005212D01*
X008193Y005284D01*
X008004Y005284D01*
X007829Y005212D01*
X007696Y005078D01*
X007623Y004903D01*
X007623Y004714D01*
X007696Y004540D01*
X007829Y004406D01*
X008004Y004334D01*
X008193Y004334D01*
X008232Y004350D01*
X008273Y004309D01*
X008232Y004268D01*
X008193Y004284D01*
X008004Y004284D01*
X007829Y004212D01*
X007696Y004078D01*
X007623Y003903D01*
X007623Y003714D01*
X007696Y003540D01*
X007829Y003406D01*
X008004Y003334D01*
X008193Y003334D01*
X008368Y003406D01*
X008502Y003540D01*
X008574Y003714D01*
X008574Y003903D01*
X008564Y003928D01*
X009256Y003928D01*
X009256Y002617D01*
X009252Y002603D01*
X009256Y002565D01*
X009256Y002526D01*
X009262Y002513D01*
X009270Y002437D01*
X009380Y002237D01*
X009380Y002237D01*
X009558Y002094D01*
X009777Y002030D01*
X009876Y002040D01*
X016162Y002040D01*
X016174Y002027D01*
X016174Y001206D01*
X016162Y001192D01*
X001427Y001192D01*
X001382Y001197D01*
X001297Y001232D01*
X001232Y001297D01*
X001197Y001382D01*
X001192Y001427D01*
X001192Y016731D01*
X001228Y016716D01*
X001414Y016716D01*
X001586Y016787D01*
X001717Y016919D01*
X001788Y017090D01*
X001788Y017276D01*
X001717Y017448D01*
X001586Y017579D01*
X001414Y017650D01*
X001228Y017650D01*
X001192Y017635D01*
X001192Y018145D01*
X001197Y018191D01*
X001232Y018275D01*
X001297Y018340D01*
X001381Y018375D01*
X001427Y018379D01*
X001480Y018379D01*
X031861Y018379D01*
X031863Y018378D01*
X031914Y018379D01*
X031916Y018379D01*
X031963Y018375D01*
X032049Y018340D01*
X032116Y018275D01*
X032153Y018189D01*
X032158Y018143D01*
X032158Y001430D01*
X032153Y001383D01*
X032116Y001297D01*
X032049Y001231D01*
X031962Y001196D01*
X031916Y001192D01*
X031914Y001192D01*
X031863Y001193D01*
X031861Y001192D01*
X031377Y001192D01*
X031392Y001228D01*
X031392Y001414D01*
X031321Y001586D01*
X031190Y001717D01*
X031018Y001788D01*
X030832Y001788D01*
X030661Y001717D01*
X030529Y001586D01*
X030458Y001414D01*
X030458Y001228D01*
X030473Y001192D01*
X022923Y001192D01*
X022923Y002067D01*
X023948Y002177D01*
X026451Y002592D01*
X026451Y002592D01*
X028926Y003153D01*
X030130Y003500D01*
X030322Y003532D01*
X030702Y003711D01*
X030702Y003711D01*
X031019Y003988D01*
X031019Y003988D01*
X031019Y003988D01*
X031247Y004341D01*
X031247Y004341D01*
X031370Y004744D01*
X031373Y004904D01*
X031374Y004906D01*
X031374Y004956D01*
X031375Y005007D01*
X031374Y005009D01*
X031374Y005830D01*
X031375Y005831D01*
X031375Y005890D01*
X031661Y006012D01*
X031661Y006012D01*
X031895Y006255D01*
X031895Y006255D01*
X032014Y006571D01*
X032014Y006571D01*
X032007Y006735D01*
X032007Y009884D01*
X032009Y009886D01*
X032007Y009979D01*
X032007Y010073D01*
X032006Y010074D01*
X032004Y010154D01*
X031867Y010471D01*
X031867Y010471D01*
X031618Y010712D01*
X031296Y010839D01*
X031125Y010836D01*
X029377Y010836D01*
X029364Y010837D01*
X029339Y010848D01*
X029319Y010867D01*
X029309Y010892D01*
X029307Y010906D01*
X029307Y012779D01*
X029230Y012967D01*
X029086Y013111D01*
X029086Y013111D01*
X029043Y013129D01*
X029002Y013228D01*
X028868Y013362D01*
X028693Y013434D01*
X028504Y013434D01*
X028329Y013362D01*
X028196Y013228D01*
X028123Y013053D01*
X028123Y012864D01*
X028196Y012690D01*
X028329Y012556D01*
X028504Y012484D01*
X028693Y012484D01*
X028847Y012547D01*
X028847Y012370D01*
X028693Y012434D01*
X028504Y012434D01*
X028329Y012362D01*
X028196Y012228D01*
X028123Y012053D01*
X028123Y011864D01*
X028188Y011707D01*
X028080Y011707D01*
X028031Y011712D01*
X028014Y011719D01*
X028074Y011864D01*
X028074Y012053D01*
X028002Y012228D01*
X027868Y012362D01*
X027693Y012434D01*
X027504Y012434D01*
X027329Y012362D01*
X027196Y012228D01*
X027123Y012053D01*
X027123Y011864D01*
X027196Y011690D01*
X027329Y011556D01*
X027504Y011484D01*
X027549Y011484D01*
X027677Y011356D01*
X027939Y011247D01*
X028377Y011247D01*
X028391Y011246D01*
X028416Y011236D01*
X028436Y011216D01*
X028446Y011191D01*
X028447Y011177D01*
X028447Y010758D01*
X028538Y010478D01*
X028712Y010240D01*
X028764Y010202D01*
X024303Y010202D01*
X024302Y010202D01*
X024250Y010202D01*
X024249Y010202D01*
X024192Y010207D01*
X024088Y010249D01*
X024007Y010328D01*
X023963Y010432D01*
X023957Y010488D01*
X023957Y012221D01*
X023977Y012361D01*
X023977Y012361D01*
X023897Y012672D01*
X023704Y012929D01*
X023673Y012947D01*
X025285Y012947D01*
X026140Y012093D01*
X026123Y012053D01*
X026123Y011864D01*
X026196Y011690D01*
X026329Y011556D01*
X026504Y011484D01*
X026693Y011484D01*
X026868Y011556D01*
X027002Y011690D01*
X027074Y011864D01*
X027074Y012053D01*
X027002Y012228D01*
X026868Y012362D01*
X026693Y012434D01*
X026504Y012434D01*
X026465Y012418D01*
X026154Y012729D01*
X026179Y012729D01*
X026196Y012690D01*
X026329Y012556D01*
X026504Y012484D01*
X026693Y012484D01*
X026868Y012556D01*
X027002Y012690D01*
X027074Y012864D01*
X027074Y013053D01*
X027002Y013228D01*
X026868Y013362D01*
X026693Y013434D01*
X026504Y013434D01*
X026329Y013362D01*
X026196Y013228D01*
X026179Y013189D01*
X025991Y013189D01*
X025707Y013473D01*
X025573Y013607D01*
X019092Y013607D01*
X018842Y013504D01*
X018651Y013313D01*
X018651Y013313D01*
X018570Y013117D01*
X018530Y013117D01*
X018529Y013118D01*
X016922Y013118D01*
X016800Y013128D01*
X016560Y013013D01*
X016408Y012794D01*
X016401Y012703D01*
X016397Y012693D01*
X016397Y012651D01*
X016393Y012609D01*
X016397Y012598D01*
X016397Y011914D01*
X011187Y011914D01*
X011053Y012101D01*
X010542Y012623D01*
X010542Y012623D01*
X010542Y012623D01*
X009956Y013061D01*
X009956Y013061D01*
X009310Y013404D01*
X008619Y013644D01*
X008477Y013670D01*
X008477Y017402D01*
X008477Y017403D01*
X008477Y017455D01*
X008477Y017506D01*
X008477Y017508D01*
X008476Y017594D01*
X008336Y017830D01*
X008097Y017966D01*
X007961Y017964D01*
X006862Y017964D01*
X006765Y017924D01*
X006690Y017850D01*
X006650Y017752D01*
X006650Y016556D01*
X006690Y016459D01*
X006765Y016384D01*
X006862Y016344D01*
X007356Y016344D01*
X007356Y014674D01*
X006669Y014674D01*
X006480Y014595D01*
X006480Y014595D01*
X006335Y014451D01*
X006335Y014451D01*
X006256Y014261D01*
X006256Y013056D01*
X006335Y012867D01*
X006480Y012722D01*
X006669Y012644D01*
X007591Y012644D01*
X007933Y012562D01*
X008628Y012294D01*
X009266Y011910D01*
X009827Y011421D01*
X010295Y010842D01*
X010484Y010534D01*
X010497Y010503D01*
X010508Y010492D01*
X010515Y010478D01*
X010545Y010455D01*
X010571Y010428D01*
X010586Y010422D01*
X010598Y010413D01*
X010634Y010402D01*
X010669Y010388D01*
X010684Y010388D01*
X010699Y010383D01*
X010736Y010388D01*
X013622Y010388D01*
X013624Y010387D01*
X013674Y010388D01*
X013724Y010388D01*
X013727Y010389D01*
X013789Y010390D01*
X013797Y010395D01*
X013912Y010347D01*
X014172Y010347D01*
X014177Y010345D01*
X014370Y010345D01*
X014424Y010291D01*
X014491Y010224D01*
X014580Y010187D01*
X017237Y010187D01*
X017237Y009426D01*
X017215Y009403D01*
X017167Y009289D01*
X017167Y009166D01*
X017215Y009052D01*
X017302Y008965D01*
X017416Y008917D01*
X017539Y008917D01*
X017653Y008965D01*
X017740Y009052D01*
X017787Y009166D01*
X017787Y009289D01*
X017740Y009403D01*
X017717Y009426D01*
X017717Y010342D01*
X017907Y010532D01*
X017907Y011027D01*
X017908Y011031D01*
X017911Y011039D01*
X017916Y011044D01*
X017923Y011047D01*
X017927Y011047D01*
X018497Y011047D01*
X018508Y011038D01*
X018590Y011047D01*
X018673Y011047D01*
X018683Y011058D01*
X018724Y011062D01*
X018891Y011185D01*
X018956Y011120D01*
X019132Y011047D01*
X020867Y011047D01*
X020920Y011042D01*
X021017Y011002D01*
X021078Y010941D01*
X021037Y010843D01*
X021037Y010712D01*
X021088Y010590D01*
X021107Y010571D01*
X021107Y009280D01*
X021198Y009001D01*
X021371Y008763D01*
X021371Y008763D01*
X021516Y008657D01*
X021516Y008639D01*
X021609Y008416D01*
X021779Y008246D01*
X022001Y008154D01*
X022015Y008154D01*
X022029Y008115D01*
X022117Y008017D01*
X022235Y007961D01*
X022366Y007955D01*
X022490Y007999D01*
X022797Y008277D01*
X022854Y008395D01*
X022860Y008526D01*
X022816Y008650D01*
X022728Y008747D01*
X022726Y008748D01*
X022726Y008879D01*
X022714Y008909D01*
X022714Y009127D01*
X022624Y009345D01*
X022457Y009511D01*
X022239Y009601D01*
X022004Y009601D01*
X021786Y009511D01*
X021634Y009359D01*
X021632Y009363D01*
X021627Y009427D01*
X021627Y010571D01*
X021647Y010590D01*
X021697Y010712D01*
X021697Y010843D01*
X021647Y010964D01*
X021554Y011057D01*
X021539Y011063D01*
X021486Y011191D01*
X021440Y011238D01*
X022627Y011238D01*
X022627Y009759D01*
X022626Y009758D01*
X022627Y009707D01*
X022627Y009655D01*
X022627Y009654D01*
X022629Y009480D01*
X022772Y009052D01*
X023040Y008689D01*
X023040Y008689D01*
X023040Y008689D01*
X023407Y008428D01*
X023407Y008428D01*
X023838Y008292D01*
X024062Y008294D01*
X028020Y008294D01*
X027983Y008257D01*
X027937Y008147D01*
X027937Y007902D01*
X027890Y007783D01*
X027897Y007404D01*
X027897Y007340D01*
X027899Y007337D01*
X027899Y007334D01*
X027924Y007274D01*
X027949Y007215D01*
X027951Y007213D01*
X027953Y007210D01*
X027999Y007165D01*
X028045Y007119D01*
X028048Y007118D01*
X028050Y007116D01*
X028110Y007092D01*
X028170Y007067D01*
X028173Y007067D01*
X028176Y007066D01*
X028240Y007067D01*
X028305Y007067D01*
X028308Y007069D01*
X028311Y007069D01*
X028370Y007094D01*
X028430Y007119D01*
X028432Y007121D01*
X028435Y007123D01*
X028480Y007169D01*
X028526Y007215D01*
X028527Y007218D01*
X028529Y007220D01*
X028553Y007280D01*
X028577Y007340D01*
X028577Y007343D01*
X028579Y007346D01*
X028577Y007410D01*
X028577Y007785D01*
X028537Y007882D01*
X028537Y007963D01*
X028551Y007976D01*
X028585Y007962D01*
X028720Y007962D01*
X028845Y008014D01*
X028935Y008104D01*
X028992Y008104D01*
X029105Y008151D01*
X029126Y008129D01*
X029871Y008129D01*
X029875Y008129D01*
X029875Y008129D01*
X029883Y008126D01*
X029888Y008120D01*
X029891Y008113D01*
X029891Y008109D01*
X029891Y007963D01*
X029841Y008013D01*
X029731Y008059D01*
X029612Y008059D01*
X029502Y008013D01*
X029417Y007929D01*
X029371Y007819D01*
X029371Y007699D01*
X029417Y007589D01*
X029441Y007565D01*
X029373Y007497D01*
X029327Y007387D01*
X029327Y007268D01*
X029373Y007157D01*
X029457Y007073D01*
X029497Y007057D01*
X029497Y006623D01*
X029419Y006544D01*
X029417Y006544D01*
X029416Y006555D01*
X029423Y006577D01*
X029436Y006664D01*
X029436Y006669D01*
X029417Y006669D01*
X029410Y006713D01*
X029407Y006722D01*
X029407Y006749D01*
X029436Y006749D01*
X029436Y006753D01*
X029423Y006841D01*
X029407Y006888D01*
X029407Y006912D01*
X029396Y006924D01*
X029395Y006926D01*
X029355Y007005D01*
X029302Y007077D01*
X029240Y007140D01*
X029168Y007192D01*
X029088Y007233D01*
X029004Y007260D01*
X028916Y007274D01*
X028911Y007274D01*
X028911Y006749D01*
X028831Y006749D01*
X028831Y007274D01*
X028827Y007274D01*
X028739Y007260D01*
X028655Y007233D01*
X028575Y007192D01*
X028503Y007140D01*
X028441Y007077D01*
X028388Y007005D01*
X028348Y006926D01*
X028320Y006841D01*
X028306Y006753D01*
X028306Y006749D01*
X028344Y006749D01*
X028333Y006713D01*
X028326Y006669D01*
X028306Y006669D01*
X028306Y006664D01*
X028320Y006577D01*
X028327Y006555D01*
X028326Y006544D01*
X028319Y006544D01*
X028319Y006540D01*
X028322Y006521D01*
X028319Y006502D01*
X028319Y006499D01*
X028326Y006499D01*
X028333Y006455D01*
X028344Y006419D01*
X028319Y006419D01*
X028319Y006415D01*
X028333Y006330D01*
X028359Y006247D01*
X028399Y006169D01*
X028450Y006099D01*
X028512Y006037D01*
X028582Y005986D01*
X028659Y005947D01*
X028742Y005920D01*
X028828Y005906D01*
X028831Y005906D01*
X028831Y006419D01*
X028911Y006419D01*
X028911Y005906D01*
X028915Y005906D01*
X029001Y005920D01*
X029084Y005947D01*
X029161Y005986D01*
X029231Y006037D01*
X029293Y006099D01*
X029344Y006169D01*
X029384Y006247D01*
X029397Y006290D01*
X029397Y005774D01*
X028767Y005189D01*
X026033Y004603D01*
X024090Y004264D01*
X024071Y004281D01*
X024071Y004281D01*
X023814Y004388D01*
X023814Y004388D01*
X023536Y004401D01*
X023536Y004401D01*
X023270Y004318D01*
X023049Y004149D01*
X023049Y004149D01*
X023049Y004149D01*
X023033Y004123D01*
X022307Y004039D01*
X021997Y004377D01*
X021997Y004383D01*
X021933Y004447D01*
X021872Y004513D01*
X021867Y004513D01*
X021863Y004517D01*
X021772Y004517D01*
X021682Y004521D01*
X021678Y004517D01*
X021622Y004517D01*
X021638Y004555D01*
X021638Y004949D01*
X021577Y005095D01*
X021466Y005207D01*
X021320Y005267D01*
X021162Y005267D01*
X021016Y005207D01*
X020905Y005095D01*
X020845Y004949D01*
X020845Y004555D01*
X020860Y004517D01*
X019027Y004517D01*
X018977Y004567D01*
X018867Y004612D01*
X018748Y004612D01*
X018637Y004567D01*
X018553Y004482D01*
X018523Y004411D01*
X018443Y004457D01*
X018196Y004457D01*
X018236Y004555D01*
X018236Y004949D01*
X018176Y005095D01*
X018064Y005207D01*
X017918Y005267D01*
X017761Y005267D01*
X017707Y005245D01*
X017708Y005245D01*
X017707Y005245D02*
X017707Y005432D01*
X017803Y005528D01*
X017923Y005377D01*
X017923Y005377D01*
X017923Y005377D01*
X018225Y005162D01*
X018367Y005112D01*
X018382Y005097D01*
X018409Y005097D01*
X018574Y005039D01*
X018574Y005039D01*
X018709Y005031D01*
X018718Y005027D01*
X018768Y005027D01*
X018819Y005024D01*
X018828Y005027D01*
X020537Y005027D01*
X020647Y005073D01*
X021002Y005427D01*
X021903Y005427D01*
X022557Y004773D01*
X022668Y004727D01*
X023047Y004727D01*
X023089Y004627D01*
X023181Y004534D01*
X023303Y004484D01*
X023434Y004484D01*
X023555Y004534D01*
X023860Y004839D01*
X023910Y004961D01*
X023910Y005092D01*
X023860Y005213D01*
X023767Y005306D01*
X023646Y005356D01*
X023515Y005356D01*
X023445Y005327D01*
X022852Y005327D01*
X022591Y005588D01*
X022614Y005598D01*
X022707Y005690D01*
X022757Y005812D01*
X022757Y006243D01*
X022707Y006364D01*
X022614Y006457D01*
X022493Y006507D01*
X022362Y006507D01*
X022240Y006457D01*
X022211Y006427D01*
X020618Y006427D01*
X020507Y006382D01*
X020483Y006357D01*
X020471Y006386D01*
X020446Y006411D01*
X020446Y007407D01*
X020487Y007407D01*
X020597Y007453D01*
X020682Y007537D01*
X020727Y007648D01*
X020727Y007767D01*
X020682Y007877D01*
X020597Y007962D01*
X020487Y008007D01*
X020368Y008007D01*
X020257Y007962D01*
X020173Y007877D01*
X020163Y007853D01*
X020105Y007819D01*
X020105Y007819D01*
X019986Y007615D01*
X019986Y006411D01*
X019962Y006386D01*
X019916Y006276D01*
X019916Y006157D01*
X019962Y006046D01*
X019981Y006027D01*
X018827Y006027D01*
X018773Y006032D01*
X018669Y006066D01*
X018580Y006130D01*
X018516Y006219D01*
X018482Y006323D01*
X018477Y006377D01*
X018477Y007593D01*
X018483Y007618D01*
X018477Y007652D01*
X018477Y007687D01*
X018468Y007710D01*
X018444Y007853D01*
X018444Y007853D01*
X018406Y007921D01*
X018427Y007973D01*
X018427Y008092D01*
X018382Y008202D01*
X018297Y008287D01*
X018296Y008287D01*
X019402Y008287D01*
X019431Y008218D01*
X019518Y008131D01*
X019632Y008084D01*
X019755Y008084D01*
X019869Y008131D01*
X019956Y008218D01*
X020004Y008332D01*
X020004Y008455D01*
X019956Y008569D01*
X019869Y008656D01*
X019755Y008704D01*
X019741Y008704D01*
X019713Y008731D01*
X019625Y008767D01*
X016482Y008767D01*
X016477Y008780D01*
X016390Y008867D01*
X016276Y008914D01*
X016153Y008914D01*
X016039Y008867D01*
X015952Y008780D01*
X015904Y008666D01*
X015904Y008543D01*
X015911Y008527D01*
X014893Y008527D01*
X014881Y008529D01*
X014853Y008543D01*
X014832Y008567D01*
X014821Y008597D01*
X014821Y008623D01*
X014825Y008673D01*
X014821Y008683D01*
X014821Y008699D02*
X015918Y008699D01*
X015904Y008620D02*
X014821Y008620D01*
X014856Y008542D02*
X015905Y008542D01*
X015950Y008777D02*
X014821Y008777D01*
X014821Y008856D02*
X016028Y008856D01*
X016401Y008856D02*
X021303Y008856D01*
X021246Y008934D02*
X017580Y008934D01*
X017701Y009013D02*
X021194Y009013D01*
X021198Y009001D02*
X021198Y009001D01*
X021169Y009091D02*
X017757Y009091D01*
X017787Y009170D02*
X021143Y009170D01*
X021118Y009248D02*
X017787Y009248D01*
X017772Y009327D02*
X021107Y009327D01*
X021107Y009405D02*
X017738Y009405D01*
X017717Y009484D02*
X021107Y009484D01*
X021107Y009562D02*
X017717Y009562D01*
X017717Y009641D02*
X021107Y009641D01*
X021107Y009719D02*
X017717Y009719D01*
X017717Y009798D02*
X021107Y009798D01*
X021107Y009876D02*
X017717Y009876D01*
X017717Y009955D02*
X021107Y009955D01*
X021107Y010033D02*
X017717Y010033D01*
X017717Y010112D02*
X021107Y010112D01*
X021107Y010190D02*
X017717Y010190D01*
X017717Y010269D02*
X021107Y010269D01*
X021107Y010347D02*
X017723Y010347D01*
X017801Y010426D02*
X021107Y010426D01*
X021107Y010504D02*
X017880Y010504D01*
X017907Y010583D02*
X021095Y010583D01*
X021058Y010661D02*
X017907Y010661D01*
X017907Y010740D02*
X021037Y010740D01*
X021037Y010818D02*
X017907Y010818D01*
X017907Y010897D02*
X021060Y010897D01*
X021044Y010975D02*
X017907Y010975D01*
X018679Y011054D02*
X019116Y011054D01*
X018956Y011120D02*
X018956Y011120D01*
X018956Y011120D01*
X018944Y011132D02*
X018820Y011132D01*
X018724Y011062D02*
X018724Y011062D01*
X017237Y010112D02*
X010643Y010112D01*
X010674Y010033D02*
X017237Y010033D01*
X017237Y009955D02*
X010706Y009955D01*
X010611Y010190D02*
X014572Y010190D01*
X014446Y010269D02*
X010580Y010269D01*
X010541Y010347D02*
X013912Y010347D01*
X013789Y010390D02*
X013789Y010390D01*
X014424Y010291D02*
X014424Y010291D01*
X014237Y009896D02*
X014237Y009896D01*
X014278Y009876D02*
X017237Y009876D01*
X017237Y009798D02*
X014447Y009798D01*
X014491Y009777D02*
X014491Y009777D01*
X014549Y009719D02*
X017237Y009719D01*
X017237Y009641D02*
X014628Y009641D01*
X014690Y009579D02*
X014690Y009579D01*
X014697Y009562D02*
X017237Y009562D01*
X017237Y009484D02*
X014734Y009484D01*
X014770Y009405D02*
X017217Y009405D01*
X017183Y009327D02*
X014807Y009327D01*
X014808Y009325D02*
X014808Y009325D01*
X014815Y009248D02*
X017167Y009248D01*
X017167Y009170D02*
X014822Y009170D01*
X014821Y009091D02*
X017198Y009091D01*
X017253Y009013D02*
X014821Y009013D01*
X014821Y008934D02*
X017375Y008934D01*
X016478Y008777D02*
X021360Y008777D01*
X021371Y008763D02*
X021371Y008763D01*
X021459Y008699D02*
X019766Y008699D01*
X019905Y008620D02*
X021524Y008620D01*
X021557Y008542D02*
X019968Y008542D01*
X020000Y008463D02*
X021589Y008463D01*
X021640Y008385D02*
X020004Y008385D01*
X019993Y008306D02*
X021718Y008306D01*
X021822Y008228D02*
X019960Y008228D01*
X019888Y008149D02*
X022016Y008149D01*
X022068Y008071D02*
X018427Y008071D01*
X018427Y007992D02*
X020332Y007992D01*
X020210Y007914D02*
X018410Y007914D01*
X018447Y007835D02*
X020133Y007835D01*
X020105Y007819D02*
X020105Y007819D01*
X020069Y007757D02*
X018460Y007757D01*
X018477Y007678D02*
X020023Y007678D01*
X019986Y007600D02*
X018479Y007600D01*
X018477Y007521D02*
X019986Y007521D01*
X019986Y007443D02*
X018477Y007443D01*
X018477Y007364D02*
X019986Y007364D01*
X019986Y007286D02*
X018477Y007286D01*
X018477Y007207D02*
X019986Y007207D01*
X019986Y007129D02*
X018477Y007129D01*
X018477Y007050D02*
X019986Y007050D01*
X019986Y006972D02*
X018477Y006972D01*
X018477Y006893D02*
X019986Y006893D01*
X019986Y006815D02*
X018477Y006815D01*
X018477Y006736D02*
X019986Y006736D01*
X019986Y006658D02*
X018477Y006658D01*
X018477Y006579D02*
X019986Y006579D01*
X019986Y006501D02*
X018477Y006501D01*
X018477Y006422D02*
X019986Y006422D01*
X019944Y006344D02*
X018480Y006344D01*
X018500Y006265D02*
X019916Y006265D01*
X019916Y006187D02*
X018538Y006187D01*
X018610Y006108D02*
X019936Y006108D01*
X019979Y006030D02*
X018795Y006030D01*
X017999Y005323D02*
X017707Y005323D01*
X017707Y005402D02*
X017904Y005402D01*
X017841Y005480D02*
X017756Y005480D01*
X017971Y005245D02*
X018109Y005245D01*
X018104Y005166D02*
X018220Y005166D01*
X018225Y005162D02*
X018225Y005162D01*
X018179Y005088D02*
X018436Y005088D01*
X018211Y005009D02*
X020869Y005009D01*
X020845Y004931D02*
X018236Y004931D01*
X018236Y004852D02*
X020845Y004852D01*
X020845Y004774D02*
X018236Y004774D01*
X018236Y004695D02*
X020845Y004695D01*
X020845Y004617D02*
X018236Y004617D01*
X018229Y004538D02*
X018609Y004538D01*
X018544Y004460D02*
X018197Y004460D01*
X019006Y004538D02*
X020852Y004538D01*
X020902Y005088D02*
X020662Y005088D01*
X020741Y005166D02*
X020976Y005166D01*
X021109Y005245D02*
X020819Y005245D01*
X020898Y005323D02*
X022007Y005323D01*
X022086Y005245D02*
X021373Y005245D01*
X021506Y005166D02*
X022164Y005166D01*
X022243Y005088D02*
X021580Y005088D01*
X021613Y005009D02*
X022321Y005009D01*
X022400Y004931D02*
X021638Y004931D01*
X021638Y004852D02*
X022478Y004852D01*
X022557Y004774D02*
X021638Y004774D01*
X021638Y004695D02*
X023060Y004695D01*
X023099Y004617D02*
X021638Y004617D01*
X021631Y004538D02*
X023177Y004538D01*
X023270Y004318D02*
X023270Y004318D01*
X023251Y004303D02*
X022065Y004303D01*
X021997Y004381D02*
X023474Y004381D01*
X023559Y004538D02*
X025663Y004538D01*
X025214Y004460D02*
X021921Y004460D01*
X022138Y004224D02*
X023148Y004224D01*
X023047Y004146D02*
X022210Y004146D01*
X022282Y004067D02*
X022550Y004067D01*
X023638Y004617D02*
X026097Y004617D01*
X026464Y004695D02*
X023716Y004695D01*
X023795Y004774D02*
X026830Y004774D01*
X027196Y004852D02*
X023866Y004852D01*
X023898Y004931D02*
X027563Y004931D01*
X027929Y005009D02*
X023910Y005009D01*
X023910Y005088D02*
X028295Y005088D01*
X028662Y005166D02*
X023880Y005166D01*
X023828Y005245D02*
X028827Y005245D01*
X028912Y005323D02*
X023725Y005323D01*
X022777Y005402D02*
X028997Y005402D01*
X029081Y005480D02*
X022699Y005480D01*
X022620Y005559D02*
X029166Y005559D01*
X029250Y005637D02*
X022654Y005637D01*
X022718Y005716D02*
X029335Y005716D01*
X029397Y005794D02*
X022750Y005794D01*
X022757Y005873D02*
X029397Y005873D01*
X029397Y005951D02*
X029092Y005951D01*
X029221Y006030D02*
X029397Y006030D01*
X029397Y006108D02*
X029300Y006108D01*
X029353Y006187D02*
X029397Y006187D01*
X029390Y006265D02*
X029397Y006265D01*
X029423Y006579D02*
X029454Y006579D01*
X029435Y006658D02*
X029497Y006658D01*
X029497Y006736D02*
X029407Y006736D01*
X029427Y006815D02*
X029497Y006815D01*
X029497Y006893D02*
X029407Y006893D01*
X029372Y006972D02*
X029497Y006972D01*
X029497Y007050D02*
X029322Y007050D01*
X029251Y007129D02*
X029402Y007129D01*
X029352Y007207D02*
X029138Y007207D01*
X029327Y007286D02*
X028555Y007286D01*
X028578Y007364D02*
X029327Y007364D01*
X029351Y007443D02*
X028577Y007443D01*
X028577Y007521D02*
X029397Y007521D01*
X029413Y007600D02*
X028577Y007600D01*
X028577Y007678D02*
X029380Y007678D01*
X029371Y007757D02*
X028577Y007757D01*
X028557Y007835D02*
X029378Y007835D01*
X029411Y007914D02*
X028537Y007914D01*
X028793Y007992D02*
X029481Y007992D01*
X029862Y007992D02*
X029891Y007992D01*
X029891Y008071D02*
X028902Y008071D01*
X029102Y008149D02*
X029106Y008149D01*
X027971Y008228D02*
X022744Y008228D01*
X022812Y008306D02*
X023792Y008306D01*
X023838Y008292D02*
X023838Y008292D01*
X023543Y008385D02*
X022849Y008385D01*
X022857Y008463D02*
X023357Y008463D01*
X023247Y008542D02*
X022855Y008542D01*
X022827Y008620D02*
X023137Y008620D01*
X023033Y008699D02*
X022772Y008699D01*
X022726Y008777D02*
X022975Y008777D01*
X022917Y008856D02*
X022726Y008856D01*
X022714Y008934D02*
X022859Y008934D01*
X022801Y009013D02*
X022714Y009013D01*
X022772Y009052D02*
X022772Y009052D01*
X022759Y009091D02*
X022714Y009091D01*
X022696Y009170D02*
X022732Y009170D01*
X022706Y009248D02*
X022664Y009248D01*
X022680Y009327D02*
X022631Y009327D01*
X022653Y009405D02*
X022563Y009405D01*
X022629Y009480D02*
X022629Y009480D01*
X022629Y009484D02*
X022484Y009484D01*
X022628Y009562D02*
X022333Y009562D01*
X022627Y009641D02*
X021627Y009641D01*
X021627Y009719D02*
X022626Y009719D01*
X022627Y009798D02*
X021627Y009798D01*
X021627Y009876D02*
X022627Y009876D01*
X022627Y009955D02*
X021627Y009955D01*
X021627Y010033D02*
X022627Y010033D01*
X022627Y010112D02*
X021627Y010112D01*
X021627Y010190D02*
X022627Y010190D01*
X022627Y010269D02*
X021627Y010269D01*
X021627Y010347D02*
X022627Y010347D01*
X022627Y010426D02*
X021627Y010426D01*
X021627Y010504D02*
X022627Y010504D01*
X022627Y010583D02*
X021640Y010583D01*
X021677Y010661D02*
X022627Y010661D01*
X022627Y010740D02*
X021697Y010740D01*
X021697Y010818D02*
X022627Y010818D01*
X022627Y010897D02*
X021675Y010897D01*
X021636Y010975D02*
X022627Y010975D01*
X022627Y011054D02*
X021558Y011054D01*
X021510Y011132D02*
X022627Y011132D01*
X022627Y011211D02*
X021466Y011211D01*
X021486Y011191D02*
X021486Y011191D01*
X023957Y011211D02*
X028438Y011211D01*
X028447Y011132D02*
X023957Y011132D01*
X023957Y011054D02*
X028447Y011054D01*
X028447Y010975D02*
X023957Y010975D01*
X023957Y010897D02*
X028447Y010897D01*
X028447Y010818D02*
X023957Y010818D01*
X023957Y010740D02*
X028453Y010740D01*
X028479Y010661D02*
X023957Y010661D01*
X023957Y010583D02*
X028504Y010583D01*
X028530Y010504D02*
X023957Y010504D01*
X023965Y010426D02*
X028576Y010426D01*
X028538Y010478D02*
X028538Y010478D01*
X028633Y010347D02*
X023999Y010347D01*
X024067Y010269D02*
X028691Y010269D01*
X028712Y010240D02*
X028712Y010240D01*
X028712Y010240D01*
X029308Y010897D02*
X032158Y010897D01*
X032158Y010975D02*
X029307Y010975D01*
X029307Y011054D02*
X032158Y011054D01*
X032158Y011132D02*
X029307Y011132D01*
X029307Y011211D02*
X032158Y011211D01*
X032158Y011289D02*
X029307Y011289D01*
X029307Y011368D02*
X032158Y011368D01*
X032158Y011446D02*
X029307Y011446D01*
X029307Y011525D02*
X032158Y011525D01*
X032158Y011603D02*
X029307Y011603D01*
X029307Y011682D02*
X031015Y011682D01*
X031144Y011628D02*
X031474Y011628D01*
X031780Y011755D01*
X032013Y011988D01*
X032140Y012294D01*
X032140Y012624D01*
X032158Y012624D01*
X032140Y012624D02*
X032013Y012929D01*
X031780Y013163D01*
X031474Y013289D01*
X031144Y013289D01*
X030839Y013163D01*
X030605Y012929D01*
X030479Y012624D01*
X029307Y012624D01*
X029307Y012702D02*
X030511Y012702D01*
X030479Y012624D02*
X030479Y012294D01*
X030605Y011988D01*
X030839Y011755D01*
X031144Y011628D01*
X030833Y011760D02*
X029307Y011760D01*
X029307Y011839D02*
X030755Y011839D01*
X030676Y011917D02*
X029307Y011917D01*
X029307Y011996D02*
X030602Y011996D01*
X030570Y012074D02*
X029307Y012074D01*
X029307Y012153D02*
X030537Y012153D01*
X030505Y012231D02*
X029307Y012231D01*
X029307Y012310D02*
X030479Y012310D01*
X030479Y012388D02*
X029307Y012388D01*
X029307Y012467D02*
X030479Y012467D01*
X030479Y012545D02*
X029307Y012545D01*
X029307Y012781D02*
X030544Y012781D01*
X030576Y012859D02*
X029274Y012859D01*
X029242Y012938D02*
X030614Y012938D01*
X030692Y013016D02*
X029180Y013016D01*
X029230Y012967D02*
X029230Y012967D01*
X029102Y013095D02*
X030771Y013095D01*
X030864Y013173D02*
X029024Y013173D01*
X028978Y013252D02*
X031054Y013252D01*
X031565Y013252D02*
X032158Y013252D01*
X032158Y013330D02*
X028899Y013330D01*
X028754Y013409D02*
X032158Y013409D01*
X032158Y013487D02*
X025693Y013487D01*
X025707Y013473D02*
X025707Y013473D01*
X025771Y013409D02*
X026443Y013409D01*
X026298Y013330D02*
X025850Y013330D01*
X025928Y013252D02*
X026220Y013252D01*
X026754Y013409D02*
X028443Y013409D01*
X028298Y013330D02*
X027828Y013330D01*
X027827Y013331D02*
X027766Y013362D01*
X027701Y013383D01*
X027639Y013393D01*
X027639Y012999D01*
X028033Y012999D01*
X028023Y013061D01*
X028002Y013126D01*
X027971Y013187D01*
X027931Y013242D01*
X027882Y013291D01*
X027827Y013331D01*
X027921Y013252D02*
X028220Y013252D01*
X028173Y013173D02*
X027978Y013173D01*
X028012Y013095D02*
X028141Y013095D01*
X028123Y013016D02*
X028030Y013016D01*
X028033Y012919D02*
X027639Y012919D01*
X027639Y012999D01*
X027559Y012999D01*
X027559Y013393D01*
X027497Y013383D01*
X027432Y013362D01*
X027371Y013331D01*
X027315Y013291D01*
X027267Y013242D01*
X027226Y013187D01*
X027195Y013126D01*
X027174Y013061D01*
X027164Y012999D01*
X027559Y012999D01*
X027559Y012919D01*
X027639Y012919D01*
X027639Y012525D01*
X027701Y012534D01*
X027766Y012556D01*
X027827Y012587D01*
X027882Y012627D01*
X027931Y012675D01*
X027971Y012731D01*
X028002Y012792D01*
X028023Y012857D01*
X028033Y012919D01*
X028024Y012859D02*
X028125Y012859D01*
X028123Y012938D02*
X027639Y012938D01*
X027639Y013016D02*
X027559Y013016D01*
X027559Y012938D02*
X027074Y012938D01*
X027074Y013016D02*
X027167Y013016D01*
X027185Y013095D02*
X027057Y013095D01*
X027024Y013173D02*
X027219Y013173D01*
X027276Y013252D02*
X026978Y013252D01*
X026899Y013330D02*
X027370Y013330D01*
X027559Y013330D02*
X027639Y013330D01*
X027639Y013252D02*
X027559Y013252D01*
X027559Y013173D02*
X027639Y013173D01*
X027639Y013095D02*
X027559Y013095D01*
X027559Y012919D02*
X027164Y012919D01*
X027174Y012857D01*
X027195Y012792D01*
X027226Y012731D01*
X027267Y012675D01*
X027315Y012627D01*
X027371Y012587D01*
X027432Y012556D01*
X027497Y012534D01*
X027559Y012525D01*
X027559Y012919D01*
X027559Y012859D02*
X027639Y012859D01*
X027639Y012781D02*
X027559Y012781D01*
X027559Y012702D02*
X027639Y012702D01*
X027639Y012624D02*
X027559Y012624D01*
X027559Y012545D02*
X027639Y012545D01*
X027735Y012545D02*
X028355Y012545D01*
X028261Y012624D02*
X027878Y012624D01*
X027950Y012702D02*
X028190Y012702D01*
X028158Y012781D02*
X027997Y012781D01*
X027463Y012545D02*
X026842Y012545D01*
X026936Y012624D02*
X027319Y012624D01*
X027247Y012702D02*
X027007Y012702D01*
X027039Y012781D02*
X027201Y012781D01*
X027174Y012859D02*
X027072Y012859D01*
X026804Y012388D02*
X027394Y012388D01*
X027278Y012310D02*
X026920Y012310D01*
X026998Y012231D02*
X027199Y012231D01*
X027165Y012153D02*
X027033Y012153D01*
X027065Y012074D02*
X027132Y012074D01*
X027123Y011996D02*
X027074Y011996D01*
X027074Y011917D02*
X027123Y011917D01*
X027134Y011839D02*
X027063Y011839D01*
X027031Y011760D02*
X027166Y011760D01*
X027203Y011682D02*
X026994Y011682D01*
X026915Y011603D02*
X027282Y011603D01*
X027404Y011525D02*
X026793Y011525D01*
X026404Y011525D02*
X023957Y011525D01*
X023957Y011603D02*
X026282Y011603D01*
X026203Y011682D02*
X023957Y011682D01*
X023957Y011760D02*
X026166Y011760D01*
X026134Y011839D02*
X023957Y011839D01*
X023957Y011917D02*
X026123Y011917D01*
X026123Y011996D02*
X023957Y011996D01*
X023957Y012074D02*
X026132Y012074D01*
X026079Y012153D02*
X023957Y012153D01*
X023958Y012231D02*
X026001Y012231D01*
X025922Y012310D02*
X023969Y012310D01*
X023970Y012388D02*
X025844Y012388D01*
X025765Y012467D02*
X023950Y012467D01*
X023929Y012545D02*
X025687Y012545D01*
X025608Y012624D02*
X023909Y012624D01*
X023897Y012672D02*
X023897Y012672D01*
X023874Y012702D02*
X025530Y012702D01*
X025451Y012781D02*
X023815Y012781D01*
X023757Y012859D02*
X025373Y012859D01*
X025294Y012938D02*
X023689Y012938D01*
X023704Y012929D02*
X023704Y012929D01*
X025614Y013566D02*
X032158Y013566D01*
X032158Y013644D02*
X008618Y013644D01*
X008619Y013644D02*
X008619Y013644D01*
X008477Y013723D02*
X032158Y013723D01*
X032158Y013801D02*
X008477Y013801D01*
X008477Y013880D02*
X032158Y013880D01*
X032158Y013958D02*
X008477Y013958D01*
X008477Y014037D02*
X032158Y014037D01*
X032158Y014115D02*
X008477Y014115D01*
X008477Y014194D02*
X032158Y014194D01*
X032158Y014272D02*
X008477Y014272D01*
X008477Y014351D02*
X032158Y014351D01*
X032158Y014429D02*
X008477Y014429D01*
X008477Y014508D02*
X032158Y014508D01*
X032158Y014586D02*
X008477Y014586D01*
X008477Y014665D02*
X032158Y014665D01*
X032158Y014743D02*
X008477Y014743D01*
X008477Y014822D02*
X032158Y014822D01*
X032158Y014900D02*
X008477Y014900D01*
X008477Y014979D02*
X032158Y014979D01*
X032158Y015057D02*
X008477Y015057D01*
X008477Y015136D02*
X032158Y015136D01*
X032158Y015214D02*
X008477Y015214D01*
X008477Y015293D02*
X032158Y015293D01*
X032158Y015371D02*
X008477Y015371D01*
X008477Y015450D02*
X032158Y015450D01*
X032158Y015528D02*
X008477Y015528D01*
X008477Y015607D02*
X032158Y015607D01*
X032158Y015685D02*
X008477Y015685D01*
X008477Y015764D02*
X032158Y015764D01*
X032158Y015842D02*
X008477Y015842D01*
X008477Y015921D02*
X032158Y015921D01*
X032158Y015999D02*
X008477Y015999D01*
X008477Y016078D02*
X032158Y016078D01*
X032158Y016156D02*
X008477Y016156D01*
X008477Y016235D02*
X032158Y016235D01*
X032158Y016313D02*
X008477Y016313D01*
X008477Y016392D02*
X032158Y016392D01*
X032158Y016470D02*
X008477Y016470D01*
X008477Y016549D02*
X032158Y016549D01*
X032158Y016627D02*
X008477Y016627D01*
X008477Y016706D02*
X032158Y016706D01*
X032158Y016784D02*
X008477Y016784D01*
X008477Y016863D02*
X032158Y016863D01*
X032158Y016941D02*
X008477Y016941D01*
X008477Y017020D02*
X032158Y017020D01*
X032158Y017098D02*
X008477Y017098D01*
X008477Y017177D02*
X032158Y017177D01*
X032158Y017255D02*
X008477Y017255D01*
X008477Y017334D02*
X032158Y017334D01*
X032158Y017412D02*
X008477Y017412D01*
X008477Y017491D02*
X032158Y017491D01*
X032158Y017569D02*
X008476Y017569D01*
X008476Y017594D02*
X008476Y017594D01*
X008444Y017648D02*
X032158Y017648D01*
X032158Y017726D02*
X008398Y017726D01*
X008351Y017805D02*
X032158Y017805D01*
X032158Y017883D02*
X008242Y017883D01*
X008336Y017830D02*
X008336Y017830D01*
X008336Y017830D01*
X008104Y017962D02*
X032158Y017962D01*
X032158Y018040D02*
X001192Y018040D01*
X001192Y017962D02*
X002613Y017962D01*
X002423Y017883D02*
X001192Y017883D01*
X001192Y017805D02*
X002284Y017805D01*
X002319Y017840D02*
X002319Y017840D01*
X002205Y017726D02*
X001192Y017726D01*
X001192Y017648D02*
X001223Y017648D01*
X001420Y017648D02*
X002127Y017648D01*
X002090Y017611D02*
X002090Y017611D01*
X002073Y017569D02*
X001595Y017569D01*
X001674Y017491D02*
X002040Y017491D01*
X002008Y017412D02*
X001732Y017412D01*
X001764Y017334D02*
X001975Y017334D01*
X001966Y017255D02*
X001788Y017255D01*
X001788Y017177D02*
X001966Y017177D01*
X001966Y017098D02*
X001788Y017098D01*
X001759Y017020D02*
X001966Y017020D01*
X001966Y016941D02*
X001726Y016941D01*
X001661Y016863D02*
X001966Y016863D01*
X001966Y016784D02*
X001579Y016784D01*
X001192Y016706D02*
X001966Y016706D01*
X001966Y016627D02*
X001192Y016627D01*
X001192Y016549D02*
X001966Y016549D01*
X001966Y016470D02*
X001192Y016470D01*
X001192Y016392D02*
X001966Y016392D01*
X001966Y016313D02*
X001192Y016313D01*
X001192Y016235D02*
X001966Y016235D01*
X001966Y016156D02*
X001192Y016156D01*
X001192Y016078D02*
X001966Y016078D01*
X001966Y015999D02*
X001192Y015999D01*
X001192Y015921D02*
X001966Y015921D01*
X001966Y015842D02*
X001192Y015842D01*
X001192Y015764D02*
X001966Y015764D01*
X001966Y015685D02*
X001192Y015685D01*
X001192Y015607D02*
X001966Y015607D01*
X001966Y015528D02*
X001192Y015528D01*
X001192Y015450D02*
X001966Y015450D01*
X001966Y015371D02*
X001192Y015371D01*
X001192Y015293D02*
X001960Y015293D01*
X001955Y015216D02*
X001955Y015216D01*
X001956Y015214D02*
X001192Y015214D01*
X001192Y015136D02*
X001982Y015136D01*
X002009Y015057D02*
X001192Y015057D01*
X001192Y014979D02*
X002035Y014979D01*
X002062Y014900D02*
X001192Y014900D01*
X001192Y014822D02*
X002127Y014822D01*
X002195Y014743D02*
X001192Y014743D01*
X001192Y014665D02*
X002264Y014665D01*
X002390Y014586D02*
X001192Y014586D01*
X001192Y014508D02*
X002549Y014508D01*
X001192Y014429D02*
X004166Y014429D01*
X004288Y014351D02*
X001192Y014351D01*
X001192Y014272D02*
X004358Y014272D01*
X004409Y014194D02*
X001192Y014194D01*
X001192Y014115D02*
X004434Y014115D01*
X004453Y014037D02*
X001192Y014037D01*
X001192Y013958D02*
X004456Y013958D01*
X004456Y013880D02*
X001192Y013880D01*
X001192Y013801D02*
X004456Y013801D01*
X004456Y013723D02*
X001192Y013723D01*
X001192Y013644D02*
X004456Y013644D01*
X004456Y013566D02*
X001192Y013566D01*
X001192Y013487D02*
X004456Y013487D01*
X004456Y013409D02*
X001192Y013409D01*
X001192Y013330D02*
X004456Y013330D01*
X004456Y013252D02*
X002286Y013252D01*
X002196Y013289D02*
X001865Y013289D01*
X001560Y013163D01*
X001326Y012929D01*
X001200Y012624D01*
X001192Y012624D01*
X001200Y012624D02*
X001200Y012294D01*
X001326Y011988D01*
X001560Y011755D01*
X001865Y011628D01*
X002196Y011628D01*
X002501Y011755D01*
X002735Y011988D01*
X002861Y012294D01*
X002861Y012624D01*
X004456Y012624D01*
X004456Y012702D02*
X002829Y012702D01*
X002861Y012624D02*
X002735Y012929D01*
X002501Y013163D01*
X002196Y013289D01*
X002476Y013173D02*
X004456Y013173D01*
X004456Y013095D02*
X002569Y013095D01*
X002648Y013016D02*
X004456Y013016D01*
X004456Y012938D02*
X002726Y012938D01*
X002764Y012859D02*
X004456Y012859D01*
X004456Y012781D02*
X002796Y012781D01*
X002861Y012545D02*
X004456Y012545D01*
X004456Y012467D02*
X002861Y012467D01*
X002861Y012388D02*
X004456Y012388D01*
X004456Y012310D02*
X002861Y012310D01*
X002835Y012231D02*
X004456Y012231D01*
X004456Y012153D02*
X002803Y012153D01*
X002770Y012074D02*
X004456Y012074D01*
X004456Y011996D02*
X002738Y011996D01*
X002664Y011917D02*
X004456Y011917D01*
X004456Y011839D02*
X002585Y011839D01*
X002507Y011760D02*
X004456Y011760D01*
X004456Y011682D02*
X002325Y011682D01*
X001736Y011682D02*
X001192Y011682D01*
X001192Y011760D02*
X001554Y011760D01*
X001476Y011839D02*
X001192Y011839D01*
X001192Y011917D02*
X001397Y011917D01*
X001323Y011996D02*
X001192Y011996D01*
X001192Y012074D02*
X001291Y012074D01*
X001258Y012153D02*
X001192Y012153D01*
X001192Y012231D02*
X001226Y012231D01*
X001200Y012310D02*
X001192Y012310D01*
X001192Y012388D02*
X001200Y012388D01*
X001192Y012467D02*
X001200Y012467D01*
X001192Y012545D02*
X001200Y012545D01*
X001192Y012702D02*
X001232Y012702D01*
X001265Y012781D02*
X001192Y012781D01*
X001192Y012859D02*
X001297Y012859D01*
X001335Y012938D02*
X001192Y012938D01*
X001192Y013016D02*
X001414Y013016D01*
X001492Y013095D02*
X001192Y013095D01*
X001192Y013173D02*
X001585Y013173D01*
X001775Y013252D02*
X001192Y013252D01*
X001192Y011603D02*
X004456Y011603D01*
X004456Y011525D02*
X001192Y011525D01*
X001192Y011446D02*
X004456Y011446D01*
X004472Y011368D02*
X001192Y011368D01*
X001192Y011289D02*
X004505Y011289D01*
X004535Y011217D02*
X004535Y011217D01*
X004541Y011211D02*
X001192Y011211D01*
X001192Y011132D02*
X004620Y011132D01*
X004680Y011072D02*
X004680Y011072D01*
X004680Y011072D01*
X004724Y011054D02*
X001192Y011054D01*
X001192Y010975D02*
X006957Y010975D01*
X007270Y010897D02*
X001192Y010897D01*
X001192Y010818D02*
X007495Y010818D01*
X007709Y010740D02*
X001192Y010740D01*
X001192Y010661D02*
X007836Y010661D01*
X007964Y010583D02*
X001192Y010583D01*
X001192Y010504D02*
X008092Y010504D01*
X008211Y010426D02*
X001192Y010426D01*
X001192Y010347D02*
X008293Y010347D01*
X008374Y010269D02*
X001192Y010269D01*
X001192Y010190D02*
X008455Y010190D01*
X008537Y010112D02*
X001192Y010112D01*
X001192Y010033D02*
X008618Y010033D01*
X008672Y009955D02*
X001192Y009955D01*
X001192Y009876D02*
X008724Y009876D01*
X008777Y009798D02*
X001192Y009798D01*
X001192Y009719D02*
X008829Y009719D01*
X008881Y009641D02*
X001192Y009641D01*
X001192Y009562D02*
X008933Y009562D01*
X008975Y009484D02*
X001192Y009484D01*
X001192Y009405D02*
X009010Y009405D01*
X009046Y009327D02*
X001192Y009327D01*
X001192Y009248D02*
X009077Y009248D01*
X009099Y009170D02*
X001192Y009170D01*
X001192Y009091D02*
X009120Y009091D01*
X009141Y009013D02*
X001192Y009013D01*
X001192Y008934D02*
X009161Y008934D01*
X009172Y008856D02*
X001192Y008856D01*
X001192Y008777D02*
X009183Y008777D01*
X009194Y008699D02*
X001192Y008699D01*
X001192Y008620D02*
X009205Y008620D01*
X009215Y008542D02*
X001192Y008542D01*
X001192Y008463D02*
X009226Y008463D01*
X009237Y008385D02*
X001192Y008385D01*
X001192Y008306D02*
X009248Y008306D01*
X009254Y008228D02*
X001192Y008228D01*
X001192Y008149D02*
X009255Y008149D01*
X009255Y008071D02*
X001192Y008071D01*
X001192Y007835D02*
X009256Y007835D01*
X009256Y007757D02*
X001192Y007757D01*
X001192Y007678D02*
X009256Y007678D01*
X009256Y007600D02*
X001192Y007600D01*
X001192Y007521D02*
X009256Y007521D01*
X009256Y007443D02*
X001192Y007443D01*
X001192Y007364D02*
X009256Y007364D01*
X009256Y007286D02*
X001192Y007286D01*
X001192Y007207D02*
X009256Y007207D01*
X009256Y007129D02*
X001192Y007129D01*
X001192Y007050D02*
X009256Y007050D01*
X009256Y006972D02*
X001192Y006972D01*
X001192Y006893D02*
X009256Y006893D01*
X009256Y006815D02*
X001192Y006815D01*
X001192Y006736D02*
X009256Y006736D01*
X009256Y006658D02*
X001192Y006658D01*
X001192Y006579D02*
X009256Y006579D01*
X009256Y006501D02*
X001192Y006501D01*
X001192Y006422D02*
X009256Y006422D01*
X009256Y006344D02*
X001192Y006344D01*
X001192Y006265D02*
X009256Y006265D01*
X009256Y006187D02*
X001192Y006187D01*
X001192Y006108D02*
X009256Y006108D01*
X009256Y006030D02*
X001192Y006030D01*
X001192Y005951D02*
X009256Y005951D01*
X009256Y005873D02*
X001192Y005873D01*
X001192Y005794D02*
X009256Y005794D01*
X009256Y005716D02*
X001192Y005716D01*
X001192Y005637D02*
X009256Y005637D01*
X009256Y005559D02*
X001192Y005559D01*
X001192Y005480D02*
X009256Y005480D01*
X009256Y005402D02*
X001192Y005402D01*
X001192Y005323D02*
X009256Y005323D01*
X009256Y005245D02*
X008288Y005245D01*
X008413Y005166D02*
X009256Y005166D01*
X009256Y005088D02*
X008492Y005088D01*
X008530Y005009D02*
X009256Y005009D01*
X009256Y004931D02*
X008563Y004931D01*
X008574Y004852D02*
X009256Y004852D01*
X009256Y004774D02*
X008574Y004774D01*
X008566Y004695D02*
X009256Y004695D01*
X008267Y004303D02*
X001192Y004303D01*
X001192Y004381D02*
X007889Y004381D01*
X007776Y004460D02*
X001192Y004460D01*
X001192Y004538D02*
X007697Y004538D01*
X007664Y004617D02*
X001192Y004617D01*
X001192Y004695D02*
X007631Y004695D01*
X007623Y004774D02*
X001192Y004774D01*
X001192Y004852D02*
X007623Y004852D01*
X007635Y004931D02*
X001192Y004931D01*
X001192Y005009D02*
X007667Y005009D01*
X007706Y005088D02*
X001192Y005088D01*
X001192Y005166D02*
X007784Y005166D01*
X007909Y005245D02*
X001192Y005245D01*
X001192Y004224D02*
X007860Y004224D01*
X007764Y004146D02*
X001192Y004146D01*
X001192Y004067D02*
X007691Y004067D01*
X007659Y003989D02*
X001192Y003989D01*
X001192Y003910D02*
X007626Y003910D01*
X007623Y003832D02*
X001192Y003832D01*
X001192Y003753D02*
X001778Y003753D01*
X001865Y003789D02*
X001560Y003663D01*
X001326Y003429D01*
X001200Y003124D01*
X001200Y002794D01*
X001326Y002488D01*
X001560Y002255D01*
X001865Y002128D01*
X002196Y002128D01*
X002501Y002255D01*
X002735Y002488D01*
X002861Y002794D01*
X002861Y003124D01*
X002735Y003429D01*
X002501Y003663D01*
X002196Y003789D01*
X001865Y003789D01*
X001589Y003675D02*
X001192Y003675D01*
X001192Y003596D02*
X001493Y003596D01*
X001415Y003518D02*
X001192Y003518D01*
X001192Y003439D02*
X001336Y003439D01*
X001298Y003361D02*
X001192Y003361D01*
X001192Y003282D02*
X001266Y003282D01*
X001233Y003204D02*
X001192Y003204D01*
X001192Y003125D02*
X001201Y003125D01*
X001192Y003047D02*
X001200Y003047D01*
X001192Y002968D02*
X001200Y002968D01*
X001192Y002890D02*
X001200Y002890D01*
X001192Y002811D02*
X001200Y002811D01*
X001192Y002733D02*
X001225Y002733D01*
X001192Y002654D02*
X001258Y002654D01*
X001290Y002576D02*
X001192Y002576D01*
X001192Y002497D02*
X001323Y002497D01*
X001396Y002419D02*
X001192Y002419D01*
X001192Y002340D02*
X001474Y002340D01*
X001553Y002262D02*
X001192Y002262D01*
X001192Y002183D02*
X001732Y002183D01*
X002329Y002183D02*
X009446Y002183D01*
X009366Y002262D02*
X002508Y002262D01*
X002587Y002340D02*
X009323Y002340D01*
X009280Y002419D02*
X002665Y002419D01*
X002738Y002497D02*
X009264Y002497D01*
X009270Y002437D02*
X009270Y002437D01*
X009255Y002576D02*
X002771Y002576D01*
X002803Y002654D02*
X009256Y002654D01*
X009256Y002733D02*
X002836Y002733D01*
X002861Y002811D02*
X009256Y002811D01*
X009256Y002890D02*
X002861Y002890D01*
X002861Y002968D02*
X009256Y002968D01*
X009256Y003047D02*
X002861Y003047D01*
X002861Y003125D02*
X009256Y003125D01*
X009256Y003204D02*
X002828Y003204D01*
X002796Y003282D02*
X009256Y003282D01*
X009256Y003361D02*
X008259Y003361D01*
X008401Y003439D02*
X009256Y003439D01*
X009256Y003518D02*
X008480Y003518D01*
X008525Y003596D02*
X009256Y003596D01*
X009256Y003675D02*
X008558Y003675D01*
X008574Y003753D02*
X009256Y003753D01*
X009256Y003832D02*
X008574Y003832D01*
X008571Y003910D02*
X009256Y003910D01*
X007938Y003361D02*
X002763Y003361D01*
X002725Y003439D02*
X007796Y003439D01*
X007718Y003518D02*
X002646Y003518D01*
X002568Y003596D02*
X007672Y003596D01*
X007640Y003675D02*
X002472Y003675D01*
X002283Y003753D02*
X007623Y003753D01*
X009544Y002105D02*
X001192Y002105D01*
X001192Y002026D02*
X016174Y002026D01*
X016174Y001948D02*
X001192Y001948D01*
X001192Y001869D02*
X016174Y001869D01*
X016174Y001791D02*
X001192Y001791D01*
X001192Y001712D02*
X016174Y001712D01*
X016174Y001634D02*
X001192Y001634D01*
X001192Y001555D02*
X016174Y001555D01*
X016174Y001477D02*
X001192Y001477D01*
X001195Y001398D02*
X016174Y001398D01*
X016174Y001320D02*
X001222Y001320D01*
X001287Y001241D02*
X016174Y001241D01*
X014626Y003916D02*
X014373Y003887D01*
X014124Y003941D01*
X013906Y004073D01*
X013742Y004269D01*
X013651Y004507D01*
X013641Y004762D01*
X013715Y005006D01*
X013863Y005213D01*
X013952Y005288D01*
X014063Y005346D01*
X014247Y005584D01*
X014275Y005709D01*
X014286Y005736D01*
X014286Y005760D01*
X014291Y005783D01*
X014286Y005812D01*
X014286Y006210D01*
X014287Y006212D01*
X014286Y006262D01*
X014286Y006265D01*
X014287Y006276D01*
X014295Y006297D01*
X014311Y006314D01*
X014332Y006323D01*
X014343Y006324D01*
X014419Y006324D01*
X014413Y006311D01*
X014389Y006237D01*
X014377Y006161D01*
X014656Y006161D01*
X014656Y006081D01*
X014377Y006081D01*
X014389Y006006D01*
X014413Y005932D01*
X014448Y005862D01*
X014494Y005799D01*
X014549Y005744D01*
X014612Y005699D01*
X014656Y005676D01*
X014655Y005574D01*
X014771Y005368D01*
X014974Y005248D01*
X015041Y005247D01*
X015042Y005246D01*
X015094Y005246D01*
X015145Y005246D01*
X015146Y005246D01*
X015597Y005246D01*
X015597Y004991D01*
X015637Y004893D01*
X015657Y004874D01*
X015657Y004424D01*
X015637Y004404D01*
X015597Y004307D01*
X015597Y004005D01*
X015592Y003996D01*
X015584Y003989D01*
X015535Y003989D01*
X015517Y003990D02*
X015506Y003987D01*
X014905Y003987D01*
X014899Y003989D01*
X014853Y003987D01*
X014807Y003987D01*
X014800Y003984D01*
X014793Y003984D01*
X014752Y003964D01*
X014735Y003957D01*
X014626Y003916D01*
X014579Y003910D02*
X014264Y003910D01*
X014045Y003989D02*
X014892Y003989D01*
X014900Y003989D02*
X015512Y003989D01*
X015517Y003990D02*
X015558Y003987D01*
X015577Y003987D01*
X015584Y003989D01*
X015597Y004067D02*
X013915Y004067D01*
X013845Y004146D02*
X014781Y004146D01*
X014807Y004120D02*
X014918Y004074D01*
X015037Y004074D01*
X015147Y004120D01*
X015232Y004204D01*
X015277Y004314D01*
X015277Y004434D01*
X015261Y004474D01*
X015292Y004549D01*
X015292Y004720D01*
X015226Y004878D01*
X015105Y004999D01*
X014947Y005064D01*
X014776Y005064D01*
X014618Y004999D01*
X014497Y004878D01*
X014432Y004720D01*
X014432Y004549D01*
X014497Y004391D01*
X014618Y004270D01*
X014712Y004231D01*
X014723Y004204D01*
X014807Y004120D01*
X014715Y004224D02*
X013779Y004224D01*
X013729Y004303D02*
X014585Y004303D01*
X014506Y004381D02*
X013699Y004381D01*
X013669Y004460D02*
X014468Y004460D01*
X014436Y004538D02*
X013649Y004538D01*
X013647Y004617D02*
X014432Y004617D01*
X014432Y004695D02*
X013644Y004695D01*
X013645Y004774D02*
X014454Y004774D01*
X014487Y004852D02*
X013669Y004852D01*
X013692Y004931D02*
X014550Y004931D01*
X014644Y005009D02*
X013717Y005009D01*
X013774Y005088D02*
X015597Y005088D01*
X015597Y005166D02*
X013830Y005166D01*
X013901Y005245D02*
X015597Y005245D01*
X015597Y005009D02*
X015079Y005009D01*
X015173Y004931D02*
X015622Y004931D01*
X015657Y004852D02*
X015237Y004852D01*
X015269Y004774D02*
X015657Y004774D01*
X015657Y004695D02*
X015292Y004695D01*
X015292Y004617D02*
X015657Y004617D01*
X015627Y004677D02*
X015427Y004477D01*
X015427Y004127D01*
X015284Y004084D01*
X015190Y004064D01*
X015070Y004034D01*
X015173Y004146D02*
X015597Y004146D01*
X015597Y004224D02*
X015240Y004224D01*
X015273Y004303D02*
X015597Y004303D01*
X015628Y004381D02*
X015277Y004381D01*
X015267Y004460D02*
X015657Y004460D01*
X015657Y004538D02*
X015287Y004538D01*
X015627Y004677D02*
X016777Y004677D01*
X016877Y004777D01*
X016877Y006077D01*
X016977Y006177D01*
X016977Y006921D01*
X017054Y006997D01*
X016972Y006972D02*
X017247Y006972D01*
X017247Y007050D02*
X016972Y007050D01*
X016972Y007129D02*
X017247Y007129D01*
X017247Y007207D02*
X016972Y007207D01*
X016972Y007286D02*
X017195Y007286D01*
X017173Y007307D02*
X017247Y007233D01*
X017247Y006193D01*
X017213Y006207D01*
X017094Y006207D01*
X016984Y006162D01*
X016972Y006150D01*
X016972Y007328D01*
X016975Y007335D01*
X016972Y007381D01*
X016972Y007427D01*
X016970Y007433D01*
X016967Y007498D01*
X016929Y007577D01*
X017144Y007577D01*
X017127Y007537D01*
X017127Y007418D01*
X017173Y007307D01*
X017149Y007364D02*
X016973Y007364D01*
X016969Y007443D02*
X017127Y007443D01*
X017127Y007521D02*
X016955Y007521D01*
X016967Y007498D02*
X016967Y007498D01*
X016972Y006893D02*
X017247Y006893D01*
X017247Y006815D02*
X016972Y006815D01*
X016972Y006736D02*
X017247Y006736D01*
X017247Y006658D02*
X016972Y006658D01*
X016972Y006579D02*
X017247Y006579D01*
X017247Y006501D02*
X016972Y006501D01*
X016972Y006422D02*
X017247Y006422D01*
X017247Y006344D02*
X016972Y006344D01*
X016972Y006265D02*
X017247Y006265D01*
X017045Y006187D02*
X016972Y006187D01*
X014974Y005248D02*
X014974Y005248D01*
X014846Y005323D02*
X014021Y005323D01*
X014063Y005346D02*
X014063Y005346D01*
X014107Y005402D02*
X014751Y005402D01*
X014771Y005368D02*
X014771Y005368D01*
X014771Y005368D01*
X014707Y005480D02*
X014167Y005480D01*
X014227Y005559D02*
X014663Y005559D01*
X014655Y005574D02*
X014655Y005574D01*
X014655Y005637D02*
X014259Y005637D01*
X014247Y005584D02*
X014247Y005584D01*
X014277Y005716D02*
X014588Y005716D01*
X014499Y005794D02*
X014289Y005794D01*
X014286Y005873D02*
X014443Y005873D01*
X014406Y005951D02*
X014286Y005951D01*
X014286Y006030D02*
X014385Y006030D01*
X014286Y006108D02*
X014656Y006108D01*
X014381Y006187D02*
X014286Y006187D01*
X014286Y006265D02*
X014398Y006265D01*
X018356Y008228D02*
X019427Y008228D01*
X019499Y008149D02*
X018404Y008149D01*
X020523Y007992D02*
X022169Y007992D01*
X022473Y007992D02*
X027937Y007992D01*
X027937Y007914D02*
X020645Y007914D01*
X020699Y007835D02*
X027911Y007835D01*
X027891Y007757D02*
X020727Y007757D01*
X020727Y007678D02*
X027892Y007678D01*
X027894Y007600D02*
X020708Y007600D01*
X020666Y007521D02*
X027895Y007521D01*
X027897Y007443D02*
X020573Y007443D01*
X020446Y007364D02*
X027897Y007364D01*
X027919Y007286D02*
X020446Y007286D01*
X020446Y007207D02*
X027955Y007207D01*
X028035Y007129D02*
X020446Y007129D01*
X020446Y007050D02*
X028421Y007050D01*
X028441Y007129D02*
X028492Y007129D01*
X028518Y007207D02*
X028605Y007207D01*
X028831Y007207D02*
X028911Y007207D01*
X028911Y007129D02*
X028831Y007129D01*
X028831Y007050D02*
X028911Y007050D01*
X028911Y006972D02*
X028831Y006972D01*
X028831Y006893D02*
X028911Y006893D01*
X028911Y006815D02*
X028831Y006815D01*
X028831Y006669D02*
X028911Y006669D01*
X028911Y006624D01*
X028831Y006624D01*
X028831Y006669D01*
X028831Y006658D02*
X028911Y006658D01*
X028911Y006544D02*
X028911Y006499D01*
X028831Y006499D01*
X028831Y006544D01*
X028911Y006544D01*
X028911Y006501D02*
X028831Y006501D01*
X028831Y006344D02*
X028911Y006344D01*
X028911Y006265D02*
X028831Y006265D01*
X028831Y006187D02*
X028911Y006187D01*
X028911Y006108D02*
X028831Y006108D01*
X028831Y006030D02*
X028911Y006030D01*
X028911Y005951D02*
X028831Y005951D01*
X028650Y005951D02*
X022757Y005951D01*
X022757Y006030D02*
X028522Y006030D01*
X028443Y006108D02*
X022757Y006108D01*
X022757Y006187D02*
X028390Y006187D01*
X028353Y006265D02*
X022748Y006265D01*
X022716Y006344D02*
X028330Y006344D01*
X028343Y006422D02*
X022649Y006422D01*
X022509Y006501D02*
X028319Y006501D01*
X028320Y006579D02*
X020446Y006579D01*
X020446Y006501D02*
X022346Y006501D01*
X021929Y005402D02*
X020976Y005402D01*
X020606Y006422D02*
X020446Y006422D01*
X020446Y006658D02*
X028308Y006658D01*
X028340Y006736D02*
X020446Y006736D01*
X020446Y006815D02*
X028316Y006815D01*
X028337Y006893D02*
X020446Y006893D01*
X020446Y006972D02*
X028371Y006972D01*
X027937Y008071D02*
X022570Y008071D01*
X022657Y008149D02*
X027938Y008149D01*
X031375Y005873D02*
X032158Y005873D01*
X032158Y005951D02*
X031519Y005951D01*
X031678Y006030D02*
X032158Y006030D01*
X032158Y006108D02*
X031754Y006108D01*
X031829Y006187D02*
X032158Y006187D01*
X032158Y006265D02*
X031899Y006265D01*
X031928Y006344D02*
X032158Y006344D01*
X032158Y006422D02*
X031958Y006422D01*
X031988Y006501D02*
X032158Y006501D01*
X032158Y006579D02*
X032014Y006579D01*
X032011Y006658D02*
X032158Y006658D01*
X032158Y006736D02*
X032007Y006736D01*
X032007Y006815D02*
X032158Y006815D01*
X032158Y006893D02*
X032007Y006893D01*
X032007Y006972D02*
X032158Y006972D01*
X032158Y007050D02*
X032007Y007050D01*
X032007Y007129D02*
X032158Y007129D01*
X032158Y007207D02*
X032007Y007207D01*
X032007Y007286D02*
X032158Y007286D01*
X032158Y007364D02*
X032007Y007364D01*
X032007Y007443D02*
X032158Y007443D01*
X032158Y007521D02*
X032007Y007521D01*
X032007Y007600D02*
X032158Y007600D01*
X032158Y007678D02*
X032007Y007678D01*
X032007Y007757D02*
X032158Y007757D01*
X032158Y007835D02*
X032007Y007835D01*
X032007Y007914D02*
X032158Y007914D01*
X032158Y007992D02*
X032007Y007992D01*
X032007Y008071D02*
X032158Y008071D01*
X032158Y008149D02*
X032007Y008149D01*
X032007Y008228D02*
X032158Y008228D01*
X032158Y008306D02*
X032007Y008306D01*
X032007Y008385D02*
X032158Y008385D01*
X032158Y008463D02*
X032007Y008463D01*
X032007Y008542D02*
X032158Y008542D01*
X032158Y008620D02*
X032007Y008620D01*
X032007Y008699D02*
X032158Y008699D01*
X032158Y008777D02*
X032007Y008777D01*
X032007Y008856D02*
X032158Y008856D01*
X032158Y008934D02*
X032007Y008934D01*
X032007Y009013D02*
X032158Y009013D01*
X032158Y009091D02*
X032007Y009091D01*
X032007Y009170D02*
X032158Y009170D01*
X032158Y009248D02*
X032007Y009248D01*
X032007Y009327D02*
X032158Y009327D01*
X032158Y009405D02*
X032007Y009405D01*
X032007Y009484D02*
X032158Y009484D01*
X032158Y009562D02*
X032007Y009562D01*
X032007Y009641D02*
X032158Y009641D01*
X032158Y009719D02*
X032007Y009719D01*
X032007Y009798D02*
X032158Y009798D01*
X032158Y009876D02*
X032007Y009876D01*
X032008Y009955D02*
X032158Y009955D01*
X032158Y010033D02*
X032007Y010033D01*
X032005Y010112D02*
X032158Y010112D01*
X032158Y010190D02*
X031989Y010190D01*
X032004Y010154D02*
X032004Y010154D01*
X031955Y010269D02*
X032158Y010269D01*
X032158Y010347D02*
X031921Y010347D01*
X031886Y010426D02*
X032158Y010426D01*
X032158Y010504D02*
X031833Y010504D01*
X031751Y010583D02*
X032158Y010583D01*
X032158Y010661D02*
X031670Y010661D01*
X031618Y010712D02*
X031618Y010712D01*
X031547Y010740D02*
X032158Y010740D01*
X032158Y010818D02*
X031348Y010818D01*
X031296Y010839D02*
X031296Y010839D01*
X031604Y011682D02*
X032158Y011682D01*
X032158Y011760D02*
X031785Y011760D01*
X031864Y011839D02*
X032158Y011839D01*
X032158Y011917D02*
X031942Y011917D01*
X032017Y011996D02*
X032158Y011996D01*
X032158Y012074D02*
X032049Y012074D01*
X032082Y012153D02*
X032158Y012153D01*
X032158Y012231D02*
X032114Y012231D01*
X032140Y012310D02*
X032158Y012310D01*
X032158Y012388D02*
X032140Y012388D01*
X032140Y012467D02*
X032158Y012467D01*
X032158Y012545D02*
X032140Y012545D01*
X032158Y012702D02*
X032107Y012702D01*
X032075Y012781D02*
X032158Y012781D01*
X032158Y012859D02*
X032042Y012859D01*
X032005Y012938D02*
X032158Y012938D01*
X032158Y013016D02*
X031926Y013016D01*
X031848Y013095D02*
X032158Y013095D01*
X032158Y013173D02*
X031755Y013173D01*
X028847Y012545D02*
X028842Y012545D01*
X028847Y012467D02*
X026416Y012467D01*
X026355Y012545D02*
X026337Y012545D01*
X026261Y012624D02*
X026259Y012624D01*
X026190Y012702D02*
X026180Y012702D01*
X027804Y012388D02*
X028394Y012388D01*
X028278Y012310D02*
X027920Y012310D01*
X027998Y012231D02*
X028199Y012231D01*
X028165Y012153D02*
X028033Y012153D01*
X028065Y012074D02*
X028132Y012074D01*
X028123Y011996D02*
X028074Y011996D01*
X028074Y011917D02*
X028123Y011917D01*
X028134Y011839D02*
X028063Y011839D01*
X028031Y011760D02*
X028166Y011760D01*
X027677Y011356D02*
X027677Y011356D01*
X027665Y011368D02*
X023957Y011368D01*
X023957Y011446D02*
X027586Y011446D01*
X027837Y011289D02*
X023957Y011289D01*
X021910Y009562D02*
X021627Y009562D01*
X021627Y009484D02*
X021759Y009484D01*
X021680Y009405D02*
X021629Y009405D01*
X016397Y011917D02*
X011185Y011917D01*
X011129Y011996D02*
X016397Y011996D01*
X016397Y012074D02*
X011072Y012074D01*
X011002Y012153D02*
X016397Y012153D01*
X016397Y012231D02*
X010926Y012231D01*
X010849Y012310D02*
X016397Y012310D01*
X016397Y012388D02*
X010772Y012388D01*
X010695Y012467D02*
X016397Y012467D01*
X016397Y012545D02*
X010618Y012545D01*
X010541Y012624D02*
X016394Y012624D01*
X016401Y012702D02*
X010436Y012702D01*
X010331Y012781D02*
X016407Y012781D01*
X016408Y012794D02*
X016408Y012794D01*
X016453Y012859D02*
X010226Y012859D01*
X010121Y012938D02*
X016508Y012938D01*
X016560Y013013D02*
X016560Y013013D01*
X016560Y013013D01*
X016566Y013016D02*
X010016Y013016D01*
X009892Y013095D02*
X016732Y013095D01*
X016800Y013128D02*
X016800Y013128D01*
X018593Y013173D02*
X009744Y013173D01*
X009596Y013252D02*
X018626Y013252D01*
X018669Y013330D02*
X009449Y013330D01*
X009310Y013404D02*
X009310Y013404D01*
X009296Y013409D02*
X018747Y013409D01*
X018826Y013487D02*
X009070Y013487D01*
X008845Y013566D02*
X018992Y013566D01*
X018842Y013504D02*
X018842Y013504D01*
X010576Y010426D02*
X010493Y010426D01*
X010496Y010504D02*
X010444Y010504D01*
X010454Y010583D02*
X010395Y010583D01*
X010406Y010661D02*
X010347Y010661D01*
X010358Y010740D02*
X010298Y010740D01*
X010310Y010818D02*
X010250Y010818D01*
X010251Y010897D02*
X010201Y010897D01*
X010188Y010975D02*
X010144Y010975D01*
X010124Y011054D02*
X010074Y011054D01*
X010061Y011132D02*
X010004Y011132D01*
X009997Y011211D02*
X009934Y011211D01*
X009934Y011289D02*
X009863Y011289D01*
X009870Y011368D02*
X009793Y011368D01*
X009798Y011446D02*
X009723Y011446D01*
X009675Y011500D02*
X009675Y011500D01*
X009644Y011525D02*
X009708Y011525D01*
X009618Y011603D02*
X009544Y011603D01*
X009528Y011682D02*
X009444Y011682D01*
X009438Y011760D02*
X009344Y011760D01*
X009347Y011839D02*
X009245Y011839D01*
X009254Y011917D02*
X009145Y011917D01*
X009123Y011996D02*
X009023Y011996D01*
X008993Y012074D02*
X008877Y012074D01*
X008862Y012153D02*
X008731Y012153D01*
X008732Y012231D02*
X008584Y012231D01*
X008587Y012310D02*
X008438Y012310D01*
X008383Y012388D02*
X008199Y012388D01*
X008179Y012467D02*
X007961Y012467D01*
X007975Y012545D02*
X007709Y012545D01*
X007732Y012542D02*
X007732Y012542D01*
X007674Y012624D02*
X005861Y012624D01*
X005861Y012702D02*
X006528Y012702D01*
X006480Y012722D02*
X006480Y012722D01*
X006480Y012722D01*
X006421Y012781D02*
X005861Y012781D01*
X005861Y012859D02*
X006343Y012859D01*
X006335Y012867D02*
X006335Y012867D01*
X006306Y012938D02*
X005861Y012938D01*
X005861Y013016D02*
X006273Y013016D01*
X006256Y013095D02*
X005861Y013095D01*
X005861Y013173D02*
X006256Y013173D01*
X006256Y013252D02*
X005861Y013252D01*
X005861Y013330D02*
X006256Y013330D01*
X006256Y013409D02*
X005861Y013409D01*
X005861Y013487D02*
X006256Y013487D01*
X006256Y013566D02*
X005861Y013566D01*
X005861Y013644D02*
X006256Y013644D01*
X006256Y013723D02*
X005861Y013723D01*
X005861Y013801D02*
X006256Y013801D01*
X006256Y013880D02*
X005861Y013880D01*
X005861Y013958D02*
X006256Y013958D01*
X006256Y014037D02*
X005861Y014037D01*
X005861Y014115D02*
X006256Y014115D01*
X006256Y014194D02*
X005861Y014194D01*
X005861Y014272D02*
X006261Y014272D01*
X006294Y014351D02*
X005861Y014351D01*
X005861Y014429D02*
X006326Y014429D01*
X006392Y014508D02*
X005861Y014508D01*
X005861Y014586D02*
X006471Y014586D01*
X006647Y014665D02*
X005861Y014665D01*
X005861Y014743D02*
X007356Y014743D01*
X007356Y014822D02*
X005861Y014822D01*
X005861Y014900D02*
X007356Y014900D01*
X007356Y014979D02*
X005861Y014979D01*
X005861Y015057D02*
X007356Y015057D01*
X007356Y015136D02*
X005861Y015136D01*
X005861Y015214D02*
X007356Y015214D01*
X007356Y015293D02*
X005861Y015293D01*
X005861Y015371D02*
X007356Y015371D01*
X007356Y015450D02*
X005861Y015450D01*
X005861Y015528D02*
X007356Y015528D01*
X007356Y015607D02*
X005861Y015607D01*
X005861Y015685D02*
X007356Y015685D01*
X007356Y015764D02*
X005861Y015764D01*
X005861Y015842D02*
X007356Y015842D01*
X007356Y015921D02*
X005861Y015921D01*
X005889Y015999D02*
X007356Y015999D01*
X007356Y016078D02*
X005921Y016078D01*
X005936Y016156D02*
X007356Y016156D01*
X007356Y016235D02*
X005936Y016235D01*
X005915Y016313D02*
X007356Y016313D01*
X006757Y016392D02*
X006285Y016392D01*
X006356Y016470D02*
X006685Y016470D01*
X006653Y016549D02*
X006389Y016549D01*
X006392Y016627D02*
X006650Y016627D01*
X006650Y016706D02*
X006392Y016706D01*
X006392Y016784D02*
X006650Y016784D01*
X006650Y016863D02*
X006392Y016863D01*
X006392Y016941D02*
X006650Y016941D01*
X006650Y017020D02*
X006392Y017020D01*
X006392Y017098D02*
X006650Y017098D01*
X006650Y017177D02*
X006392Y017177D01*
X006392Y017255D02*
X006650Y017255D01*
X006650Y017334D02*
X006392Y017334D01*
X006392Y017412D02*
X006650Y017412D01*
X006650Y017491D02*
X006392Y017491D01*
X006392Y017569D02*
X006650Y017569D01*
X006650Y017648D02*
X006392Y017648D01*
X006392Y017726D02*
X006650Y017726D01*
X006672Y017805D02*
X006370Y017805D01*
X006318Y017883D02*
X006724Y017883D01*
X006856Y017962D02*
X006186Y017962D01*
X008097Y017966D02*
X008097Y017966D01*
X001480Y018379D02*
X001480Y018379D01*
X001427Y018379D02*
X001427Y018379D01*
X001332Y018354D02*
X032014Y018354D01*
X032115Y018276D02*
X001233Y018276D01*
X001200Y018197D02*
X032150Y018197D01*
X032158Y018119D02*
X001192Y018119D01*
X023830Y004381D02*
X024764Y004381D01*
X024315Y004303D02*
X024018Y004303D01*
X026353Y002576D02*
X030569Y002576D01*
X030536Y002654D02*
X026726Y002654D01*
X027073Y002733D02*
X030504Y002733D01*
X030479Y002794D02*
X030605Y002488D01*
X030839Y002255D01*
X031144Y002128D01*
X031474Y002128D01*
X031780Y002255D01*
X032013Y002488D01*
X032140Y002794D01*
X032140Y003124D01*
X032013Y003429D01*
X031780Y003663D01*
X031474Y003789D01*
X031144Y003789D01*
X030839Y003663D01*
X030605Y003429D01*
X030479Y003124D01*
X030479Y002794D01*
X030479Y002811D02*
X027419Y002811D01*
X027766Y002890D02*
X030479Y002890D01*
X030479Y002968D02*
X028113Y002968D01*
X028459Y003047D02*
X030479Y003047D01*
X030479Y003125D02*
X028806Y003125D01*
X028926Y003153D02*
X028926Y003153D01*
X029104Y003204D02*
X030512Y003204D01*
X030544Y003282D02*
X029376Y003282D01*
X029648Y003361D02*
X030577Y003361D01*
X030615Y003439D02*
X029920Y003439D01*
X030239Y003518D02*
X030694Y003518D01*
X030772Y003596D02*
X030459Y003596D01*
X030322Y003532D02*
X030322Y003532D01*
X030626Y003675D02*
X030868Y003675D01*
X030751Y003753D02*
X031057Y003753D01*
X030930Y003910D02*
X032158Y003910D01*
X032158Y003832D02*
X030840Y003832D01*
X031019Y003989D02*
X032158Y003989D01*
X032158Y004067D02*
X031070Y004067D01*
X031121Y004146D02*
X032158Y004146D01*
X032158Y004224D02*
X031172Y004224D01*
X031222Y004303D02*
X032158Y004303D01*
X032158Y004381D02*
X031260Y004381D01*
X031283Y004460D02*
X032158Y004460D01*
X032158Y004538D02*
X031307Y004538D01*
X031331Y004617D02*
X032158Y004617D01*
X032158Y004695D02*
X031355Y004695D01*
X031370Y004744D02*
X031370Y004744D01*
X031371Y004774D02*
X032158Y004774D01*
X032158Y004852D02*
X031372Y004852D01*
X031374Y004931D02*
X032158Y004931D01*
X032158Y005009D02*
X031374Y005009D01*
X031374Y005088D02*
X032158Y005088D01*
X032158Y005166D02*
X031374Y005166D01*
X031374Y005245D02*
X032158Y005245D01*
X032158Y005323D02*
X031374Y005323D01*
X031374Y005402D02*
X032158Y005402D01*
X032158Y005480D02*
X031374Y005480D01*
X031374Y005559D02*
X032158Y005559D01*
X032158Y005637D02*
X031374Y005637D01*
X031374Y005716D02*
X032158Y005716D01*
X032158Y005794D02*
X031374Y005794D01*
X031562Y003753D02*
X032158Y003753D01*
X032158Y003675D02*
X031751Y003675D01*
X031846Y003596D02*
X032158Y003596D01*
X032158Y003518D02*
X031925Y003518D01*
X032003Y003439D02*
X032158Y003439D01*
X032158Y003361D02*
X032042Y003361D01*
X032074Y003282D02*
X032158Y003282D01*
X032158Y003204D02*
X032107Y003204D01*
X032139Y003125D02*
X032158Y003125D01*
X032158Y003047D02*
X032140Y003047D01*
X032140Y002968D02*
X032158Y002968D01*
X032158Y002890D02*
X032140Y002890D01*
X032140Y002811D02*
X032158Y002811D01*
X032158Y002733D02*
X032115Y002733D01*
X032082Y002654D02*
X032158Y002654D01*
X032158Y002576D02*
X032050Y002576D01*
X032017Y002497D02*
X032158Y002497D01*
X032158Y002419D02*
X031944Y002419D01*
X031865Y002340D02*
X032158Y002340D01*
X032158Y002262D02*
X031787Y002262D01*
X031607Y002183D02*
X032158Y002183D01*
X032158Y002105D02*
X023277Y002105D01*
X022923Y002026D02*
X032158Y002026D01*
X032158Y001948D02*
X022923Y001948D01*
X022923Y001869D02*
X032158Y001869D01*
X032158Y001791D02*
X022923Y001791D01*
X022923Y001712D02*
X030656Y001712D01*
X030577Y001634D02*
X022923Y001634D01*
X022923Y001555D02*
X030517Y001555D01*
X030484Y001477D02*
X022923Y001477D01*
X022923Y001398D02*
X030458Y001398D01*
X030458Y001320D02*
X022923Y001320D01*
X022923Y001241D02*
X030458Y001241D01*
X031194Y001712D02*
X032158Y001712D01*
X032158Y001634D02*
X031273Y001634D01*
X031333Y001555D02*
X032158Y001555D01*
X032158Y001477D02*
X031366Y001477D01*
X031392Y001398D02*
X032155Y001398D01*
X032126Y001320D02*
X031392Y001320D01*
X031392Y001241D02*
X032060Y001241D01*
X031011Y002183D02*
X023989Y002183D01*
X023948Y002177D02*
X023948Y002177D01*
X024462Y002262D02*
X030832Y002262D01*
X030753Y002340D02*
X024935Y002340D01*
X025408Y002419D02*
X030675Y002419D01*
X030601Y002497D02*
X025881Y002497D01*
X009777Y002030D02*
X009777Y002030D01*
X009558Y002094D02*
X009558Y002094D01*
X028804Y012388D02*
X028847Y012388D01*
D22*
X024192Y010437D03*
X022542Y010390D03*
X022542Y010690D03*
X022542Y010990D03*
X022527Y008477D03*
X022317Y008287D03*
X021545Y008110D03*
X021245Y008110D03*
X020945Y008110D03*
X020645Y008110D03*
X020427Y007707D03*
X019347Y006930D03*
X019347Y006660D03*
X019047Y006660D03*
X019047Y006930D03*
X019047Y006390D03*
X019047Y006120D03*
X019347Y006120D03*
X019347Y006390D03*
X020216Y006216D03*
X020626Y004929D03*
X020626Y004679D03*
X018807Y004312D03*
X018456Y004679D03*
X018456Y004929D03*
X017352Y004152D03*
X018247Y003927D03*
X018807Y003957D03*
X017177Y003127D03*
X015190Y004064D03*
X014977Y004374D03*
X013792Y004584D03*
X013792Y004884D03*
X010972Y005647D03*
X010927Y003977D03*
X017154Y005907D03*
X017427Y007477D03*
X018127Y008032D03*
X015912Y009190D03*
X015612Y009190D03*
X015312Y009190D03*
X015012Y009190D03*
X013977Y009022D03*
X013977Y008322D03*
X013351Y010359D03*
X013051Y010359D03*
X012751Y010359D03*
X012451Y010359D03*
X012151Y010359D03*
X011851Y010359D03*
X011551Y010359D03*
X011251Y010359D03*
X010951Y010359D03*
X013977Y010677D03*
X014627Y010677D03*
X006051Y012729D03*
X006051Y013079D03*
X006051Y013429D03*
X006051Y013779D03*
X006051Y014129D03*
X024045Y006260D03*
X024345Y006260D03*
X024645Y006260D03*
X025692Y005690D03*
X025842Y005940D03*
X025992Y005690D03*
X026942Y005940D03*
X027242Y005940D03*
X028277Y005990D03*
X028842Y005790D03*
X028842Y005490D03*
X029897Y006159D03*
X028192Y006790D03*
X027192Y006940D03*
X027192Y007240D03*
X027192Y007540D03*
X027192Y007840D03*
X028477Y008477D03*
X028652Y008302D03*
X029671Y007759D03*
X029627Y007327D03*
X029777Y004827D03*
X024895Y007860D03*
X023627Y003677D03*
D23*
X013727Y010387D02*
X010607Y010387D01*
D24*
X017054Y007497D03*
X017054Y007247D03*
X017054Y006997D03*
D25*
X021367Y009427D02*
X021367Y010777D01*
X021367Y009427D02*
X021369Y009377D01*
X021374Y009327D01*
X021384Y009278D01*
X021397Y009230D01*
X021413Y009183D01*
X021433Y009137D01*
X021457Y009093D01*
X021483Y009050D01*
X021513Y009010D01*
X021546Y008972D01*
X021581Y008937D01*
X021619Y008904D01*
X021659Y008874D01*
X021701Y008848D01*
X021746Y008824D01*
X021792Y008804D01*
X021839Y008788D01*
X021887Y008775D01*
X021936Y008765D01*
X021986Y008760D01*
X022036Y008758D01*
X022036Y008759D02*
X022121Y008759D01*
X022121Y008884D01*
X022121Y009009D01*
X028277Y006709D02*
X028277Y005977D01*
X028277Y006709D02*
X028871Y006709D01*
X029671Y007759D02*
X029653Y007777D01*
D26*
X029671Y007759D02*
X029721Y007759D01*
X029747Y007757D01*
X029773Y007752D01*
X029798Y007744D01*
X029821Y007732D01*
X029843Y007718D01*
X029862Y007700D01*
X029880Y007681D01*
X029894Y007659D01*
X029906Y007636D01*
X029914Y007611D01*
X029919Y007585D01*
X029921Y007559D01*
X029921Y006730D01*
X030121Y006730D02*
X030121Y008109D01*
X030119Y008139D01*
X030114Y008169D01*
X030105Y008198D01*
X030092Y008225D01*
X030077Y008251D01*
X030058Y008275D01*
X030037Y008296D01*
X030013Y008315D01*
X029987Y008330D01*
X029960Y008343D01*
X029931Y008352D01*
X029901Y008357D01*
X029871Y008359D01*
X029221Y008359D01*
X028871Y008709D01*
X029627Y007327D02*
X029727Y007227D01*
X029727Y006527D01*
X029627Y006427D01*
X029627Y005677D01*
X029577Y005627D01*
X028877Y004977D01*
X026077Y004377D01*
X024017Y004017D01*
X023927Y003807D02*
X026177Y004187D01*
X029002Y004802D01*
X029827Y005577D01*
X029877Y005627D01*
X029877Y006139D01*
X029897Y006159D01*
X030077Y005810D02*
X030077Y005527D01*
X029147Y004637D01*
X028327Y004427D01*
X026927Y004127D01*
X025327Y003827D01*
X023655Y003556D01*
X023627Y003677D01*
X023168Y003907D02*
X023195Y003945D01*
X023225Y003981D01*
X023257Y004014D01*
X023292Y004045D01*
X023330Y004072D01*
X023370Y004096D01*
X023411Y004117D01*
X023454Y004134D01*
X023499Y004147D01*
X023544Y004157D01*
X023590Y004163D01*
X023637Y004165D01*
X023683Y004163D01*
X023729Y004158D01*
X023775Y004148D01*
X023819Y004135D01*
X023863Y004118D01*
X023904Y004098D01*
X023944Y004074D01*
X023982Y004047D01*
X024018Y004017D01*
X023927Y003807D02*
X023904Y003836D01*
X023877Y003862D01*
X023848Y003886D01*
X023816Y003906D01*
X023783Y003923D01*
X023748Y003936D01*
X023712Y003945D01*
X023675Y003951D01*
X023637Y003953D01*
X023600Y003951D01*
X023563Y003945D01*
X023527Y003935D01*
X023492Y003922D01*
X023459Y003905D01*
X023427Y003885D01*
X023398Y003862D01*
X023372Y003835D01*
X023348Y003806D01*
X023327Y003775D01*
X023310Y003742D01*
X023297Y003707D01*
X022152Y003582D01*
X021657Y004097D01*
X019047Y004097D01*
X018907Y003957D01*
X018807Y003957D01*
X018527Y003877D02*
X018529Y003851D01*
X018534Y003825D01*
X018542Y003800D01*
X018554Y003777D01*
X018568Y003755D01*
X018586Y003736D01*
X018605Y003718D01*
X018627Y003704D01*
X018650Y003692D01*
X018675Y003684D01*
X018701Y003679D01*
X018727Y003677D01*
X018927Y003677D01*
X019157Y003907D01*
X021547Y003907D01*
X022077Y003377D01*
X023477Y003527D01*
X023655Y003556D01*
X023477Y003327D02*
X024827Y003527D01*
X026777Y003877D01*
X028527Y004277D01*
X029277Y004477D01*
X029647Y004827D01*
X029777Y004827D01*
X030077Y005810D02*
X030079Y005844D01*
X030085Y005877D01*
X030094Y005909D01*
X030107Y005940D01*
X030123Y005970D01*
X030142Y005997D01*
X030165Y006022D01*
X030190Y006045D01*
X030217Y006064D01*
X030247Y006080D01*
X030278Y006093D01*
X030310Y006102D01*
X030343Y006108D01*
X030377Y006110D01*
X031182Y006110D01*
X031182Y006310D02*
X030342Y006310D01*
X030342Y006510D02*
X031182Y006510D01*
X031182Y006309D02*
X031220Y006311D01*
X031257Y006316D01*
X031294Y006325D01*
X031330Y006338D01*
X031364Y006354D01*
X031397Y006373D01*
X031427Y006396D01*
X031456Y006421D01*
X031481Y006449D01*
X031504Y006479D01*
X031524Y006511D01*
X031541Y006545D01*
X031554Y006580D01*
X031564Y006617D01*
X031570Y006654D01*
X031573Y006692D01*
X031572Y006730D01*
X031571Y006730D02*
X031571Y009977D01*
X031371Y009977D02*
X031371Y006730D01*
X031777Y006730D02*
X031778Y006682D01*
X031774Y006634D01*
X031766Y006586D01*
X031755Y006540D01*
X031739Y006494D01*
X031721Y006450D01*
X031698Y006407D01*
X031673Y006367D01*
X031644Y006328D01*
X031612Y006292D01*
X031577Y006259D01*
X031540Y006229D01*
X031501Y006201D01*
X031459Y006177D01*
X031416Y006157D01*
X031371Y006140D01*
X031325Y006126D01*
X031278Y006117D01*
X031230Y006111D01*
X031182Y006109D01*
X031182Y006509D02*
X031207Y006511D01*
X031232Y006516D01*
X031256Y006524D01*
X031279Y006535D01*
X031300Y006550D01*
X031319Y006567D01*
X031336Y006586D01*
X031350Y006607D01*
X031360Y006630D01*
X031368Y006654D01*
X031373Y006679D01*
X031374Y006705D01*
X031372Y006730D01*
X031777Y006730D02*
X031777Y009977D01*
X031371Y009977D02*
X031369Y010004D01*
X031364Y010032D01*
X031356Y010058D01*
X031345Y010083D01*
X031331Y010107D01*
X031314Y010128D01*
X031294Y010148D01*
X031273Y010165D01*
X031249Y010179D01*
X031224Y010190D01*
X031198Y010198D01*
X031170Y010203D01*
X031143Y010205D01*
X031143Y010206D02*
X029377Y010206D01*
X029377Y010406D02*
X031143Y010406D01*
X031127Y010606D02*
X029377Y010606D01*
X029377Y010206D02*
X029327Y010208D01*
X029277Y010213D01*
X029228Y010222D01*
X029180Y010234D01*
X029132Y010250D01*
X029086Y010269D01*
X029042Y010292D01*
X028999Y010317D01*
X028958Y010346D01*
X028919Y010377D01*
X028882Y010411D01*
X028848Y010448D01*
X028817Y010487D01*
X028788Y010528D01*
X028763Y010571D01*
X028740Y010615D01*
X028721Y010661D01*
X028705Y010709D01*
X028693Y010757D01*
X028684Y010806D01*
X028679Y010856D01*
X028677Y010906D01*
X028677Y011177D01*
X028675Y011211D01*
X028669Y011244D01*
X028660Y011276D01*
X028647Y011307D01*
X028631Y011337D01*
X028612Y011364D01*
X028589Y011389D01*
X028564Y011412D01*
X028537Y011431D01*
X028507Y011447D01*
X028476Y011460D01*
X028444Y011469D01*
X028411Y011475D01*
X028377Y011477D01*
X028080Y011477D01*
X028599Y011959D02*
X028630Y011957D01*
X028661Y011952D01*
X028691Y011943D01*
X028720Y011931D01*
X028747Y011916D01*
X028773Y011898D01*
X028796Y011877D01*
X028817Y011854D01*
X028835Y011828D01*
X028850Y011801D01*
X028862Y011772D01*
X028871Y011742D01*
X028876Y011711D01*
X028878Y011680D01*
X028877Y011680D02*
X028877Y010906D01*
X029077Y010906D02*
X029077Y012677D01*
X029075Y012708D01*
X029070Y012740D01*
X029061Y012770D01*
X029049Y012799D01*
X029034Y012827D01*
X029016Y012852D01*
X028995Y012876D01*
X028971Y012897D01*
X028946Y012915D01*
X028918Y012930D01*
X028889Y012942D01*
X028859Y012951D01*
X028827Y012956D01*
X028796Y012958D01*
X028796Y012959D02*
X028599Y012959D01*
X027599Y011959D02*
X027601Y011917D01*
X027606Y011875D01*
X027615Y011835D01*
X027628Y011794D01*
X027644Y011756D01*
X027663Y011719D01*
X027686Y011683D01*
X027712Y011650D01*
X027740Y011619D01*
X027771Y011591D01*
X027804Y011565D01*
X027839Y011542D01*
X027877Y011523D01*
X027915Y011507D01*
X027956Y011494D01*
X027996Y011485D01*
X028038Y011480D01*
X028080Y011478D01*
X027821Y011959D02*
X027599Y011959D01*
X026599Y011959D02*
X025380Y013177D01*
X019277Y013177D01*
X019227Y013377D02*
X025477Y013377D01*
X025896Y012959D01*
X026599Y012959D01*
X026521Y011983D02*
X026521Y011959D01*
X026599Y011959D01*
X029077Y010906D02*
X029079Y010872D01*
X029085Y010839D01*
X029094Y010807D01*
X029107Y010776D01*
X029123Y010746D01*
X029142Y010719D01*
X029165Y010694D01*
X029190Y010671D01*
X029217Y010652D01*
X029247Y010636D01*
X029278Y010623D01*
X029310Y010614D01*
X029343Y010608D01*
X029377Y010606D01*
X029377Y010406D02*
X029333Y010408D01*
X029290Y010414D01*
X029248Y010423D01*
X029206Y010436D01*
X029166Y010453D01*
X029127Y010473D01*
X029090Y010496D01*
X029056Y010523D01*
X029023Y010552D01*
X028994Y010585D01*
X028967Y010619D01*
X028944Y010656D01*
X028924Y010695D01*
X028907Y010735D01*
X028894Y010777D01*
X028885Y010819D01*
X028879Y010862D01*
X028877Y010906D01*
X031127Y010606D02*
X031177Y010605D01*
X031227Y010600D01*
X031277Y010591D01*
X031325Y010578D01*
X031373Y010561D01*
X031418Y010541D01*
X031463Y010517D01*
X031505Y010490D01*
X031545Y010460D01*
X031582Y010426D01*
X031617Y010390D01*
X031649Y010351D01*
X031677Y010310D01*
X031702Y010267D01*
X031724Y010221D01*
X031742Y010175D01*
X031757Y010127D01*
X031767Y010078D01*
X031774Y010028D01*
X031777Y009978D01*
X031571Y009977D02*
X031569Y010016D01*
X031564Y010056D01*
X031555Y010094D01*
X031542Y010132D01*
X031526Y010168D01*
X031507Y010202D01*
X031485Y010235D01*
X031459Y010265D01*
X031431Y010293D01*
X031401Y010319D01*
X031368Y010341D01*
X031334Y010360D01*
X031298Y010376D01*
X031260Y010389D01*
X031222Y010398D01*
X031182Y010403D01*
X031143Y010405D01*
X030121Y006730D02*
X030123Y006701D01*
X030129Y006673D01*
X030138Y006645D01*
X030151Y006620D01*
X030167Y006595D01*
X030186Y006574D01*
X030207Y006555D01*
X030231Y006539D01*
X030257Y006526D01*
X030285Y006517D01*
X030313Y006511D01*
X030342Y006509D01*
X030342Y006309D02*
X030303Y006311D01*
X030265Y006316D01*
X030227Y006325D01*
X030190Y006337D01*
X030154Y006353D01*
X030120Y006372D01*
X030088Y006394D01*
X030058Y006419D01*
X030031Y006446D01*
X030006Y006476D01*
X029984Y006508D01*
X029965Y006542D01*
X029949Y006578D01*
X029937Y006615D01*
X029928Y006653D01*
X029923Y006691D01*
X029921Y006730D01*
X023477Y003327D02*
X021977Y003177D01*
X021437Y003717D01*
X019267Y003717D01*
X019027Y003477D01*
X018277Y003477D01*
X017977Y003777D01*
X017277Y003777D01*
X017251Y003779D01*
X017225Y003784D01*
X017200Y003792D01*
X017177Y003804D01*
X017155Y003818D01*
X017136Y003836D01*
X017118Y003855D01*
X017104Y003877D01*
X017092Y003900D01*
X017084Y003925D01*
X017079Y003951D01*
X017077Y003977D01*
X017077Y004327D01*
X017277Y004527D01*
X017277Y005627D01*
X017477Y005827D01*
X017477Y007427D01*
X017427Y007477D01*
X018077Y007727D02*
X018077Y007927D01*
X018127Y008032D01*
X018077Y007727D02*
X018177Y007627D01*
X020216Y007496D02*
X020216Y006216D01*
X018777Y005327D02*
X018477Y005327D01*
X018327Y005477D01*
X018227Y005477D01*
X017827Y005877D02*
X017477Y005527D01*
X017477Y004427D01*
X017677Y004227D01*
X018327Y004227D01*
X018353Y004225D01*
X018379Y004220D01*
X018404Y004212D01*
X018427Y004200D01*
X018449Y004186D01*
X018468Y004168D01*
X018486Y004149D01*
X018500Y004127D01*
X018512Y004104D01*
X018520Y004079D01*
X018525Y004053D01*
X018527Y004027D01*
X018527Y003877D01*
X018247Y003927D02*
X018197Y003977D01*
X017477Y003977D01*
X017457Y003979D01*
X017438Y003983D01*
X017420Y003991D01*
X017404Y004001D01*
X017389Y004014D01*
X017376Y004029D01*
X017366Y004045D01*
X017358Y004063D01*
X017354Y004082D01*
X017352Y004102D01*
X017352Y004152D01*
X017077Y004627D02*
X016877Y004427D01*
X016877Y003377D01*
X016879Y003347D01*
X016884Y003317D01*
X016893Y003288D01*
X016906Y003261D01*
X016921Y003235D01*
X016940Y003211D01*
X016961Y003190D01*
X016985Y003171D01*
X017011Y003156D01*
X017038Y003143D01*
X017067Y003134D01*
X017097Y003129D01*
X017127Y003127D01*
X017177Y003127D01*
X018807Y004312D02*
X018832Y004287D01*
X021767Y004287D01*
X022217Y003797D01*
X023167Y003907D01*
X017827Y005877D02*
X017827Y006227D01*
X017154Y005907D02*
X017154Y005904D01*
X017077Y005827D01*
X017077Y004627D01*
X014977Y004374D02*
X014862Y004440D01*
X014862Y004634D01*
X010877Y004627D02*
X010708Y004458D01*
X008449Y004458D01*
X008099Y004809D01*
X008448Y004158D02*
X008099Y003809D01*
X008448Y004158D02*
X010747Y004158D01*
X010927Y003977D01*
X010877Y004627D02*
X010877Y005552D01*
X010972Y005647D01*
X017477Y010327D02*
X017477Y010427D01*
X017677Y010627D01*
X017677Y011027D01*
X017679Y011057D01*
X017684Y011087D01*
X017693Y011116D01*
X017706Y011143D01*
X017721Y011169D01*
X017740Y011193D01*
X017761Y011214D01*
X017785Y011233D01*
X017811Y011248D01*
X017838Y011261D01*
X017867Y011270D01*
X017897Y011275D01*
X017927Y011277D01*
X018577Y011277D01*
X018604Y011282D01*
X018630Y011290D01*
X018655Y011301D01*
X018678Y011315D01*
X018700Y011331D01*
X018720Y011350D01*
X018737Y011372D01*
X018751Y011395D01*
X018762Y011420D01*
X018771Y011446D01*
X018776Y011472D01*
X018778Y011500D01*
X018777Y011527D01*
X018777Y012927D01*
X018977Y012877D02*
X018977Y011527D01*
X018979Y011497D01*
X018984Y011467D01*
X018993Y011438D01*
X019006Y011411D01*
X019021Y011385D01*
X019040Y011361D01*
X019061Y011340D01*
X019085Y011321D01*
X019111Y011306D01*
X019138Y011293D01*
X019167Y011284D01*
X019197Y011279D01*
X019227Y011277D01*
X020867Y011277D01*
X020911Y011275D01*
X020954Y011269D01*
X020996Y011260D01*
X021038Y011247D01*
X021078Y011230D01*
X021117Y011210D01*
X021154Y011187D01*
X021188Y011160D01*
X021221Y011131D01*
X021250Y011098D01*
X021277Y011064D01*
X021300Y011027D01*
X021320Y010988D01*
X021337Y010948D01*
X021350Y010906D01*
X021359Y010864D01*
X021365Y010821D01*
X021367Y010777D01*
X018977Y012877D02*
X018979Y012911D01*
X018985Y012944D01*
X018994Y012976D01*
X019007Y013007D01*
X019023Y013037D01*
X019042Y013064D01*
X019065Y013089D01*
X019090Y013112D01*
X019117Y013131D01*
X019147Y013147D01*
X019178Y013160D01*
X019210Y013169D01*
X019243Y013175D01*
X019277Y013177D01*
X019227Y013377D02*
X019185Y013375D01*
X019144Y013369D01*
X019104Y013360D01*
X019064Y013347D01*
X019026Y013330D01*
X018990Y013310D01*
X018956Y013286D01*
X018924Y013260D01*
X018894Y013230D01*
X018868Y013198D01*
X018844Y013164D01*
X018824Y013128D01*
X018807Y013090D01*
X018794Y013050D01*
X018785Y013010D01*
X018779Y012969D01*
X018777Y012927D01*
X014627Y010677D02*
X014377Y010677D01*
X014352Y010702D01*
X020216Y007496D02*
X020218Y007524D01*
X020223Y007551D01*
X020232Y007577D01*
X020244Y007602D01*
X020260Y007624D01*
X020278Y007645D01*
X020299Y007663D01*
X020321Y007679D01*
X020346Y007691D01*
X020372Y007700D01*
X020399Y007705D01*
X020427Y007707D01*
D27*
X018827Y005727D02*
X018778Y005729D01*
X018730Y005734D01*
X018682Y005743D01*
X018635Y005756D01*
X018590Y005772D01*
X018545Y005791D01*
X018502Y005814D01*
X018461Y005840D01*
X018422Y005869D01*
X018385Y005901D01*
X018351Y005935D01*
X018319Y005972D01*
X018290Y006011D01*
X018264Y006052D01*
X018241Y006095D01*
X018222Y006140D01*
X018206Y006185D01*
X018193Y006232D01*
X018184Y006280D01*
X018179Y006328D01*
X018177Y006377D01*
X018177Y007627D01*
X017827Y007377D02*
X017827Y006227D01*
X017828Y006227D02*
X017837Y006166D01*
X017849Y006105D01*
X017865Y006046D01*
X017885Y005987D01*
X017909Y005930D01*
X017935Y005874D01*
X017965Y005820D01*
X017999Y005768D01*
X018035Y005718D01*
X018075Y005671D01*
X018117Y005626D01*
X018162Y005583D01*
X018209Y005543D01*
X018259Y005507D01*
X018310Y005473D01*
X018364Y005442D01*
X018420Y005415D01*
X018477Y005392D01*
X018535Y005371D01*
X018595Y005355D01*
X018655Y005342D01*
X018716Y005332D01*
X018778Y005327D01*
X018777Y005327D02*
X020477Y005327D01*
X020877Y005727D01*
X022027Y005727D01*
X022727Y005027D01*
X023579Y005027D01*
X023580Y005026D01*
X023532Y004977D01*
X023427Y004927D02*
X023368Y004868D01*
X023368Y004814D01*
X023355Y004827D01*
X023368Y004814D02*
X023377Y004823D01*
X022427Y005877D02*
X022277Y006127D01*
X020677Y006127D01*
X020277Y005727D01*
X018827Y005727D01*
X017827Y007377D02*
X017825Y007421D01*
X017819Y007464D01*
X017810Y007506D01*
X017797Y007548D01*
X017780Y007588D01*
X017760Y007627D01*
X017737Y007664D01*
X017710Y007698D01*
X017681Y007731D01*
X017648Y007760D01*
X017614Y007787D01*
X017577Y007810D01*
X017538Y007830D01*
X017498Y007847D01*
X017456Y007860D01*
X017414Y007869D01*
X017371Y007875D01*
X017327Y007877D01*
X014227Y007877D01*
X014200Y007876D01*
X014172Y007878D01*
X014146Y007883D01*
X014120Y007892D01*
X014095Y007903D01*
X014072Y007917D01*
X014050Y007934D01*
X014031Y007954D01*
X014015Y007976D01*
X014001Y007999D01*
X013990Y008024D01*
X013982Y008050D01*
X013977Y008077D01*
X013977Y008677D02*
X013727Y008677D01*
X013704Y008677D01*
X014521Y009159D02*
X014515Y009202D01*
X014506Y009244D01*
X014493Y009285D01*
X014477Y009325D01*
X014457Y009363D01*
X014433Y009400D01*
X014407Y009434D01*
X014378Y009466D01*
X014346Y009495D01*
X014312Y009521D01*
X014275Y009545D01*
X014237Y009565D01*
X014197Y009581D01*
X014156Y009594D01*
X014114Y009603D01*
X014071Y009609D01*
X010521Y009609D01*
X010421Y009859D01*
X010421Y009859D01*
X010421Y009858D02*
X010347Y010031D01*
X010265Y010200D01*
X010175Y010365D01*
X010078Y010525D01*
X009973Y010680D01*
X009860Y010831D01*
X009741Y010976D01*
X009614Y011115D01*
X009482Y011247D01*
X009343Y011374D01*
X009198Y011493D01*
X009048Y011606D01*
X008893Y011711D01*
X008732Y011809D01*
X008568Y011899D01*
X008399Y011981D01*
X008226Y012055D01*
X008050Y012121D01*
X007872Y012178D01*
X007690Y012226D01*
X007507Y012266D01*
X007322Y012298D01*
X007321Y012298D02*
X005921Y012298D01*
X005886Y012297D01*
X005851Y012300D01*
X005816Y012307D01*
X005782Y012317D01*
X005750Y012330D01*
X005719Y012347D01*
X005690Y012368D01*
X005663Y012391D01*
X005639Y012416D01*
X005617Y012444D01*
X005599Y012474D01*
X005584Y012506D01*
X005572Y012540D01*
X005564Y012574D01*
X005560Y012609D01*
X005561Y012609D02*
X005561Y016188D01*
X014521Y009159D02*
X014521Y008633D01*
X014520Y008596D01*
X014523Y008558D01*
X014530Y008521D01*
X014540Y008485D01*
X014554Y008450D01*
X014571Y008417D01*
X014591Y008386D01*
X014615Y008356D01*
X014641Y008329D01*
X014669Y008305D01*
X014700Y008284D01*
X014733Y008265D01*
X014767Y008250D01*
X014803Y008239D01*
X014840Y008231D01*
X014877Y008227D01*
X017477Y008227D01*
X017478Y008227D02*
X017530Y008224D01*
X017582Y008218D01*
X017634Y008208D01*
X017685Y008194D01*
X017735Y008176D01*
X017783Y008155D01*
X017829Y008130D01*
X017874Y008102D01*
X017916Y008071D01*
X017956Y008037D01*
X017994Y008000D01*
X018028Y007960D01*
X018060Y007918D01*
X018088Y007873D01*
X018113Y007827D01*
X018135Y007779D01*
X018153Y007729D01*
X018167Y007679D01*
X018177Y007627D01*
X028237Y007717D02*
X028237Y008087D01*
X028859Y008709D01*
X028871Y008709D01*
D28*
X005561Y016188D03*
D29*
X013977Y010677D02*
X014627Y010677D01*
X022317Y008287D02*
X022527Y008477D01*
X022427Y006177D02*
X022427Y005877D01*
X023368Y004814D02*
X023580Y005026D01*
D30*
X023580Y005026D03*
X023368Y004814D03*
X022427Y005877D03*
X022427Y006177D03*
X028237Y007407D03*
X028237Y007717D03*
D31*
X021367Y010777D03*
D32*
X019577Y008527D02*
X016291Y008527D01*
X016214Y008604D01*
X017477Y009227D02*
X017477Y010327D01*
X017475Y010344D01*
X017471Y010361D01*
X017464Y010377D01*
X017454Y010391D01*
X017441Y010404D01*
X017427Y010414D01*
X017411Y010421D01*
X017394Y010425D01*
X017377Y010427D01*
X014627Y010427D01*
X014352Y010702D01*
X014291Y010763D01*
X014291Y010919D01*
X019577Y008527D02*
X019694Y008411D01*
X019694Y008394D01*
D33*
X019694Y008394D03*
X017477Y009227D03*
X016214Y008604D03*
D34*
X013977Y008677D02*
X013977Y008077D01*
X013977Y008677D02*
X013977Y009022D01*
X013977Y009099D01*
D35*
X028232Y007722D02*
X028237Y007407D01*
X028237Y007717D01*
X028652Y008302D02*
X028477Y008477D01*
D36*
X028232Y007722D02*
X028273Y007682D01*
X028237Y007717D01*
M02*
