%
M48
M72
T01C0.0100
T02C0.0120
T03C0.0140
T04C0.0160
T05C0.0180
T06C0.0260
T07C0.0394
T08C0.0454
T09C0.0492
T10C0.0550
T11C0.1181
%
T01
X17054Y6997
X17054Y7247
X17054Y7497
T02
X17427Y7477
X18127Y8032
X19047Y6930
X19047Y6660
X19347Y6660
X19347Y6930
X19347Y6390
X19347Y6120
X19047Y6120
X19047Y6390
X20216Y6216
X20626Y4929
X20626Y4679
X18807Y4312
X18456Y4679
X18456Y4929
X17352Y4152
X18247Y3927
X18807Y3957
X17177Y3127
X15190Y4064
X14977Y4374
X13792Y4584
X13792Y4884
X10972Y5647
X10927Y3977
X17154Y5907
X20427Y7707
X20645Y8110
X20945Y8110
X21245Y8110
X21545Y8110
X22317Y8287
X22527Y8477
X24895Y7860
X27192Y7840
X27192Y7540
X27192Y7240
X27192Y6940
X28192Y6790
X28277Y5990
X28842Y5790
X28842Y5490
X29897Y6159
X29627Y7327
X29671Y7759
X28652Y8302
X28477Y8477
X24645Y6260
X24345Y6260
X24045Y6260
X25692Y5690
X25842Y5940
X25992Y5690
X26942Y5940
X27242Y5940
X29777Y4827
X23627Y3677
X15912Y9190
X15612Y9190
X15312Y9190
X15012Y9190
X13977Y9022
X13977Y8322
X13351Y10359
X13051Y10359
X12751Y10359
X12451Y10359
X12151Y10359
X11851Y10359
X11551Y10359
X11251Y10359
X10951Y10359
X13977Y10677
X14627Y10677
X22542Y10690
X22542Y10390
X22542Y10990
X24192Y10437
X6051Y12729
X6051Y13079
X6051Y13429
X6051Y13779
X6051Y14129
T03
X16214Y8604
X17477Y9227
X19694Y8394
T04
X22427Y6177
X22427Y5877
X23580Y5026
X23368Y4814
X28237Y7407
X28237Y7717
T05
X21367Y10777
T06
X5561Y16188
T07
X14291Y10919
X14871Y6121
T08
X30925Y1321
X1321Y17183
T09
X13704Y8672
T10
X22121Y8759
X22121Y8884
X22121Y9009
X28871Y8709
X28871Y6709
X28871Y6584
X28871Y6459
T11
X2031Y2959
X2031Y12459
X31309Y12459
X31309Y2959
M30
